0
SECTION
2
ENTITIES
0
3DFACE
8
0
10
9.353333
20
5.612435
30
-1.074101
11
9.353333
21
5.312435
31
-1.074101
12
9.020000
22
5.312435
32
-1.574101
13
9.020000
23
5.312435
33
-1.574101
0
3DFACE
8
0
10
9.020000
20
5.312435
30
-1.574101
11
9.020000
21
5.612435
31
-1.574101
12
9.353333
22
5.612435
32
-1.074101
13
9.353333
23
5.612435
33
-1.074101
0
3DFACE
8
0
10
9.353333
20
5.312435
30
-1.074101
11
9.353333
21
5.612435
31
-1.074101
12
9.353333
22
5.612435
32
1.225899
13
9.353333
23
5.612435
33
1.225899
0
3DFACE
8
0
10
9.353333
20
5.612435
30
1.225899
11
9.353333
21
5.312435
31
1.225899
12
9.353333
22
5.312435
32
-1.074101
13
9.353333
23
5.312435
33
-1.074101
0
3DFACE
8
0
10
7.686667
20
5.312435
30
1.725899
11
7.686667
21
5.612435
31
1.725899
12
7.353333
22
5.612435
32
1.225899
13
7.353333
23
5.612435
33
1.225899
0
3DFACE
8
0
10
7.353333
20
5.612435
30
1.225899
11
7.353333
21
5.312435
31
1.225899
12
7.686667
22
5.312435
32
1.725899
13
7.686667
23
5.312435
33
1.725899
0
3DFACE
8
0
10
7.353333
20
5.612435
30
-1.074101
11
7.353333
21
5.312435
31
-1.074101
12
7.353333
22
5.312435
32
1.225899
13
7.353333
23
5.312435
33
1.225899
0
3DFACE
8
0
10
7.353333
20
5.312435
30
1.225899
11
7.353333
21
5.612435
31
1.225899
12
7.353333
22
5.612435
32
-1.074101
13
7.353333
23
5.612435
33
-1.074101
0
3DFACE
8
0
10
9.353333
20
5.312435
30
-1.074101
11
9.353333
21
5.312435
31
1.225899
12
9.020000
22
5.312435
32
1.725899
13
9.020000
23
5.312435
33
1.725899
0
3DFACE
8
0
10
9.020000
20
5.312435
30
1.725899
11
9.020000
21
5.312435
31
-1.574101
12
9.353333
22
5.312435
32
-1.074101
13
9.353333
23
5.312435
33
-1.074101
0
3DFACE
8
0
10
9.353333
20
5.612435
30
-1.074101
11
9.020000
21
5.612435
31
-1.574101
12
9.020000
22
5.612435
32
1.725899
13
9.020000
23
5.612435
33
1.725899
0
3DFACE
8
0
10
9.020000
20
5.612435
30
1.725899
11
9.353333
21
5.612435
31
1.225899
12
9.353333
22
5.612435
32
-1.074101
13
9.353333
23
5.612435
33
-1.074101
0
3DFACE
8
0
10
7.686666
20
5.612435
30
-1.574101
11
7.686666
21
5.312435
31
-1.574101
12
7.353333
22
5.312435
32
-1.074101
13
7.353333
23
5.312435
33
-1.074101
0
3DFACE
8
0
10
7.353333
20
5.312435
30
-1.074101
11
7.353333
21
5.612435
31
-1.074101
12
7.686666
22
5.612435
32
-1.574101
13
7.686666
23
5.612435
33
-1.574101
0
3DFACE
8
0
10
7.686666
20
5.612435
30
-1.574101
11
8.020000
21
5.612435
31
-2.074101
12
8.020000
22
5.312435
32
-2.074101
13
8.020000
23
5.312435
33
-2.074101
0
3DFACE
8
0
10
8.020000
20
5.312435
30
-2.074101
11
7.686666
21
5.312435
31
-1.574101
12
7.686666
22
5.612435
32
-1.574101
13
7.686666
23
5.612435
33
-1.574101
0
3DFACE
8
0
10
9.353333
20
5.312435
30
1.225899
11
9.353333
21
5.612435
31
1.225899
12
9.020000
22
5.612435
32
1.725899
13
9.020000
23
5.612435
33
1.725899
0
3DFACE
8
0
10
9.020000
20
5.612435
30
1.725899
11
9.020000
21
5.312435
31
1.725899
12
9.353333
22
5.312435
32
1.225899
13
9.353333
23
5.312435
33
1.225899
0
3DFACE
8
0
10
9.020000
20
5.312435
30
1.725899
11
9.020000
21
5.612435
31
1.725899
12
7.686667
22
5.612435
32
1.725899
13
7.686667
23
5.612435
33
1.725899
0
3DFACE
8
0
10
7.686667
20
5.612435
30
1.725899
11
7.686667
21
5.312435
31
1.725899
12
9.020000
22
5.312435
32
1.725899
13
9.020000
23
5.312435
33
1.725899
0
3DFACE
8
0
10
7.353333
20
5.312435
30
-1.074101
11
7.686666
21
5.312435
31
-1.574101
12
7.686667
22
5.312435
32
1.725899
13
7.686667
23
5.312435
33
1.725899
0
3DFACE
8
0
10
7.686667
20
5.312435
30
1.725899
11
7.353333
21
5.312435
31
1.225899
12
7.353333
22
5.312435
32
-1.074101
13
7.353333
23
5.312435
33
-1.074101
0
3DFACE
8
0
10
9.020000
20
5.312435
30
-1.574101
11
8.436481
21
5.312435
31
-1.268544
12
8.445722
22
5.312435
32
-1.285833
13
8.445722
23
5.312435
33
-1.285833
0
3DFACE
8
0
10
9.020000
20
5.312435
30
-1.574101
11
8.424044
21
5.312435
31
-1.253391
12
8.436481
22
5.312435
32
-1.268544
13
8.436481
23
5.312435
33
-1.268544
0
3DFACE
8
0
10
9.020000
20
5.312435
30
-1.574101
11
8.279247
21
5.312435
31
-1.074101
12
8.408891
22
5.312435
32
-1.240954
13
8.408891
23
5.312435
33
-1.240954
0
3DFACE
8
0
10
8.408891
20
5.312435
30
-1.240954
11
8.424044
21
5.312435
31
-1.253391
12
9.020000
22
5.312435
32
-1.574101
13
9.020000
23
5.312435
33
-1.574101
0
3DFACE
8
0
10
8.445722
20
5.312435
30
-1.285833
11
8.451412
21
5.312435
31
-1.304592
12
9.020000
22
5.312435
32
-1.574101
13
9.020000
23
5.312435
33
-1.574101
0
3DFACE
8
0
10
8.279247
20
5.312435
30
-1.074101
11
8.391602
21
5.312435
31
-1.231713
12
8.408891
22
5.312435
32
-1.240954
13
8.408891
23
5.312435
33
-1.240954
0
3DFACE
8
0
10
8.279247
20
5.312435
30
-1.074101
11
8.372843
21
5.312435
31
-1.226023
12
8.391602
22
5.312435
32
-1.231713
13
8.391602
23
5.312435
33
-1.231713
0
3DFACE
8
0
10
8.279247
20
5.312435
30
-1.074101
11
8.353333
21
5.312435
31
-1.224101
12
8.372843
22
5.312435
32
-1.226023
13
8.372843
23
5.312435
33
-1.226023
0
3DFACE
8
0
10
8.279247
20
5.312435
30
-1.074101
11
8.333824
21
5.312435
31
-1.226023
12
8.353333
22
5.312435
32
-1.224101
13
8.353333
23
5.312435
33
-1.224101
0
3DFACE
8
0
10
8.279247
20
5.312435
30
-1.074101
11
8.315065
21
5.312435
31
-1.231713
12
8.333824
22
5.312435
32
-1.226023
13
8.333824
23
5.312435
33
-1.226023
0
3DFACE
8
0
10
8.279247
20
5.312435
30
-1.074101
11
8.297776
21
5.312435
31
-1.240954
12
8.315065
22
5.312435
32
-1.231713
13
8.315065
23
5.312435
33
-1.231713
0
3DFACE
8
0
10
8.451412
20
5.312435
30
-1.304592
11
8.453334
21
5.312435
31
-1.324101
12
9.020000
22
5.312435
32
-1.574101
13
9.020000
23
5.312435
33
-1.574101
0
3DFACE
8
0
10
8.279247
20
5.312435
30
-1.074101
11
8.282622
21
5.312435
31
-1.253391
12
8.297776
22
5.312435
32
-1.240954
13
8.297776
23
5.312435
33
-1.240954
0
3DFACE
8
0
10
8.279247
20
5.312435
30
-1.074101
11
7.908084
21
5.312435
31
-1.074101
12
8.278333
22
5.312435
32
-1.258618
13
8.278333
23
5.312435
33
-1.258618
0
3DFACE
8
0
10
8.278333
20
5.312435
30
-1.258618
11
8.282622
21
5.312435
31
-1.253391
12
8.279247
22
5.312435
32
-1.074101
13
8.279247
23
5.312435
33
-1.074101
0
3DFACE
8
0
10
8.453334
20
5.312435
30
-1.324101
11
8.452487
21
5.312435
31
-1.332698
12
9.020000
22
5.312435
32
-1.574101
13
9.020000
23
5.312435
33
-1.574101
0
3DFACE
8
0
10
7.908084
20
5.312435
30
-1.074101
11
7.844552
21
5.312435
31
-1.074101
12
8.278333
22
5.312435
32
-1.258618
13
8.278333
23
5.312435
33
-1.258618
0
3DFACE
8
0
10
9.020000
20
5.312435
30
-1.574101
11
8.343150
21
5.312435
31
-1.074101
12
8.309895
22
5.312435
32
-1.074101
13
8.309895
23
5.312435
33
-1.074101
0
3DFACE
8
0
10
8.309895
20
5.312435
30
-1.074101
11
8.279247
21
5.312435
31
-1.074101
12
9.020000
22
5.312435
32
-1.574101
13
9.020000
23
5.312435
33
-1.574101
0
3DFACE
8
0
10
9.020000
20
5.312435
30
-1.574101
11
8.396015
21
5.312435
31
-1.074101
12
8.373480
22
5.312435
32
-1.074101
13
8.373480
23
5.312435
33
-1.074101
0
3DFACE
8
0
10
8.373480
20
5.312435
30
-1.074101
11
8.343150
21
5.312435
31
-1.074101
12
9.020000
22
5.312435
32
-1.574101
13
9.020000
23
5.312435
33
-1.574101
0
3DFACE
8
0
10
9.020000
20
5.312435
30
-1.574101
11
8.953334
21
5.312435
31
-1.074101
12
8.407441
22
5.312435
32
-1.074101
13
8.407441
23
5.312435
33
-1.074101
0
3DFACE
8
0
10
8.407441
20
5.312435
30
-1.074101
11
8.396015
21
5.312435
31
-1.074101
12
9.020000
22
5.312435
32
-1.574101
13
9.020000
23
5.312435
33
-1.574101
0
3DFACE
8
0
10
9.020000
20
5.312435
30
-1.574101
11
8.953334
21
5.312435
31
1.153085
12
8.953334
22
5.312435
32
-0.869307
13
8.953334
23
5.312435
33
-0.869307
0
3DFACE
8
0
10
8.953334
20
5.312435
30
-0.869307
11
8.953334
21
5.312435
31
-1.074101
12
9.020000
22
5.312435
32
-1.574101
13
9.020000
23
5.312435
33
-1.574101
0
3DFACE
8
0
10
9.020000
20
5.312435
30
1.725899
11
8.953334
21
5.312435
31
1.225899
12
8.953334
22
5.312435
32
1.153085
13
8.953334
23
5.312435
33
1.153085
0
3DFACE
8
0
10
8.953334
20
5.312435
30
1.153085
11
9.020000
21
5.312435
31
-1.574101
12
9.020000
22
5.312435
32
1.725899
13
9.020000
23
5.312435
33
1.725899
0
3DFACE
8
0
10
7.839306
20
5.312435
30
-1.074101
11
7.836456
21
5.312435
31
-1.074101
12
8.277018
22
5.312435
32
-1.260221
13
8.277018
23
5.312435
33
-1.260221
0
3DFACE
8
0
10
8.277018
20
5.312435
30
-1.260221
11
7.844552
21
5.312435
31
-1.074101
12
7.839306
22
5.312435
32
-1.074101
13
7.839306
23
5.312435
33
-1.074101
0
3DFACE
8
0
10
8.277018
20
5.312435
30
-1.260221
11
8.278333
21
5.312435
31
-1.258618
12
7.844552
22
5.312435
32
-1.074101
13
7.844552
23
5.312435
33
-1.074101
0
3DFACE
8
0
10
9.020000
20
5.312435
30
-1.574101
11
8.452487
21
5.312435
31
-1.332698
12
8.452331
22
5.312435
32
-1.334284
13
8.452331
23
5.312435
33
-1.334284
0
3DFACE
8
0
10
9.020000
20
5.312435
30
1.725899
11
8.880383
21
5.312435
31
1.225899
12
8.882102
22
5.312435
32
1.225899
13
8.882102
23
5.312435
33
1.225899
0
3DFACE
8
0
10
8.882102
20
5.312435
30
1.225899
11
8.884058
21
5.312435
31
1.225899
12
9.020000
22
5.312435
32
1.725899
13
9.020000
23
5.312435
33
1.725899
0
3DFACE
8
0
10
9.020000
20
5.312435
30
1.725899
11
8.870211
21
5.312435
31
1.225899
12
8.875769
22
5.312435
32
1.225899
13
8.875769
23
5.312435
33
1.225899
0
3DFACE
8
0
10
8.875769
20
5.312435
30
1.225899
11
8.880383
21
5.312435
31
1.225899
12
9.020000
22
5.312435
32
1.725899
13
9.020000
23
5.312435
33
1.725899
0
3DFACE
8
0
10
9.020000
20
5.312435
30
1.725899
11
8.859938
21
5.312435
31
1.225899
12
8.864624
22
5.312435
32
1.225899
13
8.864624
23
5.312435
33
1.225899
0
3DFACE
8
0
10
8.864624
20
5.312435
30
1.225899
11
8.870211
21
5.312435
31
1.225899
12
9.020000
22
5.312435
32
1.725899
13
9.020000
23
5.312435
33
1.725899
0
3DFACE
8
0
10
9.020000
20
5.312435
30
1.725899
11
8.412763
21
5.312435
31
1.225899
12
8.440136
22
5.312435
32
1.225899
13
8.440136
23
5.312435
33
1.225899
0
3DFACE
8
0
10
8.440136
20
5.312435
30
1.225899
11
8.859938
21
5.312435
31
1.225899
12
9.020000
22
5.312435
32
1.725899
13
9.020000
23
5.312435
33
1.725899
0
3DFACE
8
0
10
9.020000
20
5.312435
30
1.725899
11
8.347654
21
5.312435
31
1.225899
12
8.380122
22
5.312435
32
1.225899
13
8.380122
23
5.312435
33
1.225899
0
3DFACE
8
0
10
8.380122
20
5.312435
30
1.225899
11
8.412763
21
5.312435
31
1.225899
12
9.020000
22
5.312435
32
1.725899
13
9.020000
23
5.312435
33
1.725899
0
3DFACE
8
0
10
9.020000
20
5.312435
30
1.725899
11
8.445722
21
5.312435
31
1.437631
12
8.436481
22
5.312435
32
1.420342
13
8.436481
23
5.312435
33
1.420342
0
3DFACE
8
0
10
9.020000
20
5.312435
30
1.725899
11
8.451412
21
5.312435
31
1.456390
12
8.445722
22
5.312435
32
1.437631
13
8.445722
23
5.312435
33
1.437631
0
3DFACE
8
0
10
9.020000
20
5.312435
30
1.725899
11
8.453334
21
5.312435
31
1.475899
12
8.451412
22
5.312435
32
1.456390
13
8.451412
23
5.312435
33
1.456390
0
3DFACE
8
0
10
9.020000
20
5.312435
30
1.725899
11
8.451412
21
5.312435
31
1.495408
12
8.453334
22
5.312435
32
1.475899
13
8.453334
23
5.312435
33
1.475899
0
3DFACE
8
0
10
9.020000
20
5.312435
30
1.725899
11
8.445722
21
5.312435
31
1.514167
12
8.451412
22
5.312435
32
1.495408
13
8.451412
23
5.312435
33
1.495408
0
3DFACE
8
0
10
9.020000
20
5.312435
30
1.725899
11
8.436481
21
5.312435
31
1.531456
12
8.445722
22
5.312435
32
1.514167
13
8.445722
23
5.312435
33
1.514167
0
3DFACE
8
0
10
9.020000
20
5.312435
30
1.725899
11
8.424045
21
5.312435
31
1.546609
12
8.436481
22
5.312435
32
1.531456
13
8.436481
23
5.312435
33
1.531456
0
3DFACE
8
0
10
9.020000
20
5.312435
30
1.725899
11
8.408891
21
5.312435
31
1.559046
12
8.424045
22
5.312435
32
1.546609
13
8.424045
23
5.312435
33
1.546609
0
3DFACE
8
0
10
9.020000
20
5.312435
30
1.725899
11
8.391602
21
5.312435
31
1.568287
12
8.408891
22
5.312435
32
1.559046
13
8.408891
23
5.312435
33
1.559046
0
3DFACE
8
0
10
9.020000
20
5.312435
30
1.725899
11
8.372843
21
5.312435
31
1.573977
12
8.391602
22
5.312435
32
1.568287
13
8.391602
23
5.312435
33
1.568287
0
3DFACE
8
0
10
9.020000
20
5.312435
30
1.725899
11
8.353333
21
5.312435
31
1.575899
12
8.372843
22
5.312435
32
1.573977
13
8.372843
23
5.312435
33
1.573977
0
3DFACE
8
0
10
9.020000
20
5.312435
30
1.725899
11
7.686667
21
5.312435
31
1.725899
12
8.333824
22
5.312435
32
1.573977
13
8.333824
23
5.312435
33
1.573977
0
3DFACE
8
0
10
8.333824
20
5.312435
30
1.573977
11
8.353333
21
5.312435
31
1.575899
12
9.020000
22
5.312435
32
1.725899
13
9.020000
23
5.312435
33
1.725899
0
3DFACE
8
0
10
8.436481
20
5.312435
30
1.420342
11
8.424045
21
5.312435
31
1.405188
12
9.020000
22
5.312435
32
1.725899
13
9.020000
23
5.312435
33
1.725899
0
3DFACE
8
0
10
7.686667
20
5.312435
30
1.725899
11
8.315065
21
5.312435
31
1.568287
12
8.333824
22
5.312435
32
1.573977
13
8.333824
23
5.312435
33
1.573977
0
3DFACE
8
0
10
7.686667
20
5.312435
30
1.725899
11
8.297776
21
5.312435
31
1.559046
12
8.315065
22
5.312435
32
1.568287
13
8.315065
23
5.312435
33
1.568287
0
3DFACE
8
0
10
7.686667
20
5.312435
30
1.725899
11
8.282623
21
5.312435
31
1.546609
12
8.297776
22
5.312435
32
1.559046
13
8.297776
23
5.312435
33
1.559046
0
3DFACE
8
0
10
7.686667
20
5.312435
30
1.725899
11
8.270186
21
5.312435
31
1.531456
12
8.282623
22
5.312435
32
1.546609
13
8.282623
23
5.312435
33
1.546609
0
3DFACE
8
0
10
7.686667
20
5.312435
30
1.725899
11
8.260945
21
5.312435
31
1.514167
12
8.270186
22
5.312435
32
1.531456
13
8.270186
23
5.312435
33
1.531456
0
3DFACE
8
0
10
7.686667
20
5.312435
30
1.725899
11
8.255255
21
5.312435
31
1.495408
12
8.260945
22
5.312435
32
1.514167
13
8.260945
23
5.312435
33
1.514167
0
3DFACE
8
0
10
7.686667
20
5.312435
30
1.725899
11
8.253334
21
5.312435
31
1.475899
12
8.255255
22
5.312435
32
1.495408
13
8.255255
23
5.312435
33
1.495408
0
3DFACE
8
0
10
7.686667
20
5.312435
30
1.725899
11
8.255255
21
5.312435
31
1.456390
12
8.253334
22
5.312435
32
1.475899
13
8.253334
23
5.312435
33
1.475899
0
3DFACE
8
0
10
7.686667
20
5.312435
30
1.725899
11
8.260945
21
5.312435
31
1.437631
12
8.255255
22
5.312435
32
1.456390
13
8.255255
23
5.312435
33
1.456390
0
3DFACE
8
0
10
7.686667
20
5.312435
30
1.725899
11
8.270186
21
5.312435
31
1.420342
12
8.260945
22
5.312435
32
1.437631
13
8.260945
23
5.312435
33
1.437631
0
3DFACE
8
0
10
7.686667
20
5.312435
30
1.725899
11
8.282623
21
5.312435
31
1.405188
12
8.270186
22
5.312435
32
1.420342
13
8.270186
23
5.312435
33
1.420342
0
3DFACE
8
0
10
7.686667
20
5.312435
30
1.725899
11
8.347654
21
5.312435
31
1.225899
12
8.297776
22
5.312435
32
1.392752
13
8.297776
23
5.312435
33
1.392752
0
3DFACE
8
0
10
8.297776
20
5.312435
30
1.392752
11
8.282623
21
5.312435
31
1.405188
12
7.686667
22
5.312435
32
1.725899
13
7.686667
23
5.312435
33
1.725899
0
3DFACE
8
0
10
8.408891
20
5.312435
30
1.392752
11
8.347654
21
5.312435
31
1.225899
12
9.020000
22
5.312435
32
1.725899
13
9.020000
23
5.312435
33
1.725899
0
3DFACE
8
0
10
9.020000
20
5.312435
30
1.725899
11
8.424045
21
5.312435
31
1.405188
12
8.408891
22
5.312435
32
1.392752
13
8.408891
23
5.312435
33
1.392752
0
3DFACE
8
0
10
8.408891
20
5.312435
30
1.392752
11
8.391602
21
5.312435
31
1.383511
12
8.347654
22
5.312435
32
1.225899
13
8.347654
23
5.312435
33
1.225899
0
3DFACE
8
0
10
8.347654
20
5.312435
30
1.225899
11
8.315065
21
5.312435
31
1.383511
12
8.297776
22
5.312435
32
1.392752
13
8.297776
23
5.312435
33
1.392752
0
3DFACE
8
0
10
8.391602
20
5.312435
30
1.383511
11
8.372843
21
5.312435
31
1.377820
12
8.347654
22
5.312435
32
1.225899
13
8.347654
23
5.312435
33
1.225899
0
3DFACE
8
0
10
8.347654
20
5.312435
30
1.225899
11
8.333825
21
5.312435
31
1.377820
12
8.315065
22
5.312435
32
1.383511
13
8.315065
23
5.312435
33
1.383511
0
3DFACE
8
0
10
8.372843
20
5.312435
30
1.377820
11
8.353333
21
5.312435
31
1.375899
12
8.347654
22
5.312435
32
1.225899
13
8.347654
23
5.312435
33
1.225899
0
3DFACE
8
0
10
8.347654
20
5.312435
30
1.225899
11
8.353333
21
5.312435
31
1.375899
12
8.333825
22
5.312435
32
1.377820
13
8.333825
23
5.312435
33
1.377820
0
3DFACE
8
0
10
7.686667
20
5.312435
30
1.725899
11
7.753334
21
5.312435
31
1.225899
12
8.347654
22
5.312435
32
1.225899
13
8.347654
23
5.312435
33
1.225899
0
3DFACE
8
0
10
9.020000
20
5.312435
30
1.725899
11
8.884058
21
5.312435
31
1.225899
12
8.953334
22
5.312435
32
1.225899
13
8.953334
23
5.312435
33
1.225899
0
3DFACE
8
0
10
7.686667
20
5.312435
30
1.725899
11
7.753334
21
5.312435
31
-0.869307
12
7.753334
22
5.312435
32
-0.803513
13
7.753334
23
5.312435
33
-0.803513
0
3DFACE
8
0
10
7.753334
20
5.312435
30
-0.803513
11
7.753334
21
5.312435
31
1.225899
12
7.686667
22
5.312435
32
1.725899
13
7.686667
23
5.312435
33
1.725899
0
3DFACE
8
0
10
7.686666
20
5.312435
30
-1.574101
11
7.753334
21
5.312435
31
-1.074101
12
7.753334
22
5.312435
32
-0.869307
13
7.753334
23
5.312435
33
-0.869307
0
3DFACE
8
0
10
7.753334
20
5.312435
30
-0.869307
11
7.686667
21
5.312435
31
1.725899
12
7.686666
22
5.312435
32
-1.574101
13
7.686666
23
5.312435
33
-1.574101
0
3DFACE
8
0
10
7.836456
20
5.312435
30
-1.074101
11
7.830899
21
5.312435
31
-1.074101
12
8.270186
22
5.312435
32
-1.268544
13
8.270186
23
5.312435
33
-1.268544
0
3DFACE
8
0
10
8.270186
20
5.312435
30
-1.268544
11
8.277018
21
5.312435
31
-1.260221
12
7.836456
22
5.312435
32
-1.074101
13
7.836456
23
5.312435
33
-1.074101
0
3DFACE
8
0
10
7.753334
20
5.312435
30
-1.074101
11
8.265959
21
5.312435
31
-1.276453
12
8.270186
22
5.312435
32
-1.268544
13
8.270186
23
5.312435
33
-1.268544
0
3DFACE
8
0
10
8.270186
20
5.312435
30
-1.268544
11
7.830899
21
5.312435
31
-1.074101
12
7.753334
22
5.312435
32
-1.074101
13
7.753334
23
5.312435
33
-1.074101
0
3DFACE
8
0
10
9.020000
20
5.312435
30
-1.574101
11
8.451412
21
5.312435
31
-1.343610
12
8.449774
22
5.312435
32
-1.349012
13
8.449774
23
5.312435
33
-1.349012
0
3DFACE
8
0
10
9.020000
20
5.312435
30
-1.574101
11
8.452331
21
5.312435
31
-1.334284
12
8.451412
22
5.312435
32
-1.343610
13
8.451412
23
5.312435
33
-1.343610
0
3DFACE
8
0
10
7.686666
20
5.312435
30
-1.574101
11
8.255255
21
5.312435
31
-1.343610
12
8.253333
22
5.312435
32
-1.324101
13
8.253333
23
5.312435
33
-1.324101
0
3DFACE
8
0
10
7.686666
20
5.312435
30
-1.574101
11
8.260945
21
5.312435
31
-1.362370
12
8.255255
22
5.312435
32
-1.343610
13
8.255255
23
5.312435
33
-1.343610
0
3DFACE
8
0
10
7.686666
20
5.312435
30
-1.574101
11
8.270186
21
5.312435
31
-1.379658
12
8.260945
22
5.312435
32
-1.362370
13
8.260945
23
5.312435
33
-1.362370
0
3DFACE
8
0
10
7.686666
20
5.312435
30
-1.574101
11
8.282622
21
5.312435
31
-1.394812
12
8.270186
22
5.312435
32
-1.379658
13
8.270186
23
5.312435
33
-1.379658
0
3DFACE
8
0
10
7.686666
20
5.312435
30
-1.574101
11
8.297776
21
5.312435
31
-1.407248
12
8.282622
22
5.312435
32
-1.394812
13
8.282622
23
5.312435
33
-1.394812
0
3DFACE
8
0
10
7.686666
20
5.312435
30
-1.574101
11
8.315065
21
5.312435
31
-1.416489
12
8.297776
22
5.312435
32
-1.407248
13
8.297776
23
5.312435
33
-1.407248
0
3DFACE
8
0
10
7.686666
20
5.312435
30
-1.574101
11
8.333824
21
5.312435
31
-1.422180
12
8.315065
22
5.312435
32
-1.416489
13
8.315065
23
5.312435
33
-1.416489
0
3DFACE
8
0
10
7.686666
20
5.312435
30
-1.574101
11
8.353333
21
5.312435
31
-1.424101
12
8.333824
22
5.312435
32
-1.422180
13
8.333824
23
5.312435
33
-1.422180
0
3DFACE
8
0
10
7.686666
20
5.312435
30
-1.574101
11
9.020000
21
5.312435
31
-1.574101
12
8.372843
22
5.312435
32
-1.422180
13
8.372843
23
5.312435
33
-1.422180
0
3DFACE
8
0
10
8.372843
20
5.312435
30
-1.422180
11
8.353333
21
5.312435
31
-1.424101
12
7.686666
22
5.312435
32
-1.574101
13
7.686666
23
5.312435
33
-1.574101
0
3DFACE
8
0
10
8.253333
20
5.312435
30
-1.324101
11
8.255255
21
5.312435
31
-1.304592
12
7.686666
22
5.312435
32
-1.574101
13
7.686666
23
5.312435
33
-1.574101
0
3DFACE
8
0
10
9.020000
20
5.312435
30
-1.574101
11
8.391602
21
5.312435
31
-1.416489
12
8.372843
22
5.312435
32
-1.422180
13
8.372843
23
5.312435
33
-1.422180
0
3DFACE
8
0
10
9.020000
20
5.312435
30
-1.574101
11
8.408891
21
5.312435
31
-1.407248
12
8.391602
22
5.312435
32
-1.416489
13
8.391602
23
5.312435
33
-1.416489
0
3DFACE
8
0
10
9.020000
20
5.312435
30
-1.574101
11
8.424045
21
5.312435
31
-1.394812
12
8.408891
22
5.312435
32
-1.407248
13
8.408891
23
5.312435
33
-1.407248
0
3DFACE
8
0
10
9.020000
20
5.312435
30
-1.574101
11
8.436481
21
5.312435
31
-1.379658
12
8.424045
22
5.312435
32
-1.394812
13
8.424045
23
5.312435
33
-1.394812
0
3DFACE
8
0
10
9.020000
20
5.312435
30
-1.574101
11
8.445722
21
5.312435
31
-1.362369
12
8.436481
22
5.312435
32
-1.379658
13
8.436481
23
5.312435
33
-1.379658
0
3DFACE
8
0
10
8.255255
20
5.312435
30
-1.304592
11
8.260945
21
5.312435
31
-1.285833
12
7.686666
22
5.312435
32
-1.574101
13
7.686666
23
5.312435
33
-1.574101
0
3DFACE
8
0
10
9.020000
20
5.312435
30
-1.574101
11
8.449774
21
5.312435
31
-1.349012
12
8.445722
22
5.312435
32
-1.362369
13
8.445722
23
5.312435
33
-1.362369
0
3DFACE
8
0
10
8.265959
20
5.312435
30
-1.276453
11
7.753334
21
5.312435
31
-1.074101
12
7.686666
22
5.312435
32
-1.574101
13
7.686666
23
5.312435
33
-1.574101
0
3DFACE
8
0
10
7.686666
20
5.312435
30
-1.574101
11
8.260945
21
5.312435
31
-1.285833
12
8.265959
22
5.312435
32
-1.276453
13
8.265959
23
5.312435
33
-1.276453
0
3DFACE
8
0
10
7.353333
20
5.612435
30
1.225899
11
7.686667
21
5.612435
31
1.725899
12
7.686666
22
5.612435
32
-1.574101
13
7.686666
23
5.612435
33
-1.574101
0
3DFACE
8
0
10
7.686666
20
5.612435
30
-1.574101
11
7.353333
21
5.612435
31
-1.074101
12
7.353333
22
5.612435
32
1.225899
13
7.353333
23
5.612435
33
1.225899
0
3DFACE
8
0
10
8.832198
20
5.612435
30
1.225899
11
8.445722
21
5.612435
31
1.437631
12
8.451412
22
5.612435
32
1.456390
13
8.451412
23
5.612435
33
1.456390
0
3DFACE
8
0
10
8.832198
20
5.612435
30
1.225899
11
8.436481
21
5.612435
31
1.420342
12
8.445722
22
5.612435
32
1.437631
13
8.445722
23
5.612435
33
1.437631
0
3DFACE
8
0
10
8.832198
20
5.612435
30
1.225899
11
8.424045
21
5.612435
31
1.405188
12
8.436481
22
5.612435
32
1.420342
13
8.436481
23
5.612435
33
1.420342
0
3DFACE
8
0
10
8.832198
20
5.612435
30
1.225899
11
8.408891
21
5.612435
31
1.392752
12
8.424045
22
5.612435
32
1.405188
13
8.424045
23
5.612435
33
1.405188
0
3DFACE
8
0
10
8.832198
20
5.612435
30
1.225899
11
8.391602
21
5.612435
31
1.383511
12
8.408891
22
5.612435
32
1.392752
13
8.408891
23
5.612435
33
1.392752
0
3DFACE
8
0
10
8.832198
20
5.612435
30
1.225899
11
8.372843
21
5.612435
31
1.377820
12
8.391602
22
5.612435
32
1.383511
13
8.391602
23
5.612435
33
1.383511
0
3DFACE
8
0
10
8.832198
20
5.612435
30
1.225899
11
8.353333
21
5.612435
31
1.375899
12
8.372843
22
5.612435
32
1.377820
13
8.372843
23
5.612435
33
1.377820
0
3DFACE
8
0
10
8.832198
20
5.612435
30
1.225899
11
8.333824
21
5.612435
31
1.377820
12
8.353333
22
5.612435
32
1.375899
13
8.353333
23
5.612435
33
1.375899
0
3DFACE
8
0
10
8.832198
20
5.612435
30
1.225899
11
7.753334
21
5.612435
31
1.225899
12
8.315065
22
5.612435
32
1.383511
13
8.315065
23
5.612435
33
1.383511
0
3DFACE
8
0
10
8.315065
20
5.612435
30
1.383511
11
8.333824
21
5.612435
31
1.377820
12
8.832198
22
5.612435
32
1.225899
13
8.832198
23
5.612435
33
1.225899
0
3DFACE
8
0
10
8.451412
20
5.612435
30
1.456390
11
8.453334
21
5.612435
31
1.475899
12
8.832198
22
5.612435
32
1.225899
13
8.832198
23
5.612435
33
1.225899
0
3DFACE
8
0
10
7.753334
20
5.612435
30
1.225899
11
8.297776
21
5.612435
31
1.392752
12
8.315065
22
5.612435
32
1.383511
13
8.315065
23
5.612435
33
1.383511
0
3DFACE
8
0
10
7.753334
20
5.612435
30
1.225899
11
8.282623
21
5.612435
31
1.405188
12
8.297776
22
5.612435
32
1.392752
13
8.297776
23
5.612435
33
1.392752
0
3DFACE
8
0
10
8.453334
20
5.612435
30
1.475899
11
8.451412
21
5.612435
31
1.495408
12
8.832198
22
5.612435
32
1.225899
13
8.832198
23
5.612435
33
1.225899
0
3DFACE
8
0
10
7.753334
20
5.612435
30
1.225899
11
8.270186
21
5.612435
31
1.420342
12
8.282623
22
5.612435
32
1.405188
13
8.282623
23
5.612435
33
1.405188
0
3DFACE
8
0
10
7.753334
20
5.612435
30
1.225899
11
8.265959
21
5.612435
31
1.428251
12
8.270186
22
5.612435
32
1.420342
13
8.270186
23
5.612435
33
1.420342
0
3DFACE
8
0
10
8.449774
20
5.612435
30
1.500809
11
8.838692
21
5.612435
31
1.225899
12
8.832198
22
5.612435
32
1.225899
13
8.832198
23
5.612435
33
1.225899
0
3DFACE
8
0
10
8.832198
20
5.612435
30
1.225899
11
8.451412
21
5.612435
31
1.495408
12
8.449774
22
5.612435
32
1.500809
13
8.449774
23
5.612435
33
1.500809
0
3DFACE
8
0
10
8.449774
20
5.612435
30
1.500809
11
9.020000
21
5.612435
31
1.725899
12
8.838692
22
5.612435
32
1.225899
13
8.838692
23
5.612435
33
1.225899
0
3DFACE
8
0
10
9.020000
20
5.612435
30
1.725899
11
8.934654
21
5.612435
31
1.225899
12
8.850694
22
5.612435
32
1.225899
13
8.850694
23
5.612435
33
1.225899
0
3DFACE
8
0
10
8.850694
20
5.612435
30
1.225899
11
8.845220
21
5.612435
31
1.225899
12
9.020000
22
5.612435
32
1.725899
13
9.020000
23
5.612435
33
1.725899
0
3DFACE
8
0
10
9.020000
20
5.612435
30
1.725899
11
8.936709
21
5.612435
31
1.225899
12
8.935592
22
5.612435
32
1.225899
13
8.935592
23
5.612435
33
1.225899
0
3DFACE
8
0
10
8.935592
20
5.612435
30
1.225899
11
8.934654
21
5.612435
31
1.225899
12
9.020000
22
5.612435
32
1.725899
13
9.020000
23
5.612435
33
1.725899
0
3DFACE
8
0
10
9.020000
20
5.612435
30
1.725899
11
8.938744
21
5.612435
31
1.225899
12
8.937820
22
5.612435
32
1.225899
13
8.937820
23
5.612435
33
1.225899
0
3DFACE
8
0
10
8.937820
20
5.612435
30
1.225899
11
8.936709
21
5.612435
31
1.225899
12
9.020000
22
5.612435
32
1.725899
13
9.020000
23
5.612435
33
1.725899
0
3DFACE
8
0
10
9.020000
20
5.612435
30
1.725899
11
8.939478
21
5.612435
31
1.225899
12
8.939087
22
5.612435
32
1.225899
13
8.939087
23
5.612435
33
1.225899
0
3DFACE
8
0
10
8.939087
20
5.612435
30
1.225899
11
8.938744
21
5.612435
31
1.225899
12
9.020000
22
5.612435
32
1.725899
13
9.020000
23
5.612435
33
1.725899
0
3DFACE
8
0
10
9.020000
20
5.612435
30
1.725899
11
8.953334
21
5.612435
31
1.225899
12
8.939478
22
5.612435
32
1.225899
13
8.939478
23
5.612435
33
1.225899
0
3DFACE
8
0
10
9.020000
20
5.612435
30
1.725899
11
8.953334
21
5.612435
31
0.359464
12
8.953334
22
5.612435
32
0.716201
13
8.953334
23
5.612435
33
0.716201
0
3DFACE
8
0
10
8.953334
20
5.612435
30
0.716201
11
8.953334
21
5.612435
31
1.225899
12
9.020000
22
5.612435
32
1.725899
13
9.020000
23
5.612435
33
1.725899
0
3DFACE
8
0
10
9.020000
20
5.612435
30
-1.574101
11
8.953334
21
5.612435
31
-1.074101
12
8.953334
22
5.612435
32
0.359464
13
8.953334
23
5.612435
33
0.359464
0
3DFACE
8
0
10
8.953334
20
5.612435
30
0.359464
11
9.020000
21
5.612435
31
1.725899
12
9.020000
22
5.612435
32
-1.574101
13
9.020000
23
5.612435
33
-1.574101
0
3DFACE
8
0
10
7.686667
20
5.612435
30
1.725899
11
8.255255
21
5.612435
31
1.495408
12
8.253333
22
5.612435
32
1.475899
13
8.253333
23
5.612435
33
1.475899
0
3DFACE
8
0
10
7.686667
20
5.612435
30
1.725899
11
8.260945
21
5.612435
31
1.514167
12
8.255255
22
5.612435
32
1.495408
13
8.255255
23
5.612435
33
1.495408
0
3DFACE
8
0
10
7.686667
20
5.612435
30
1.725899
11
8.270186
21
5.612435
31
1.531456
12
8.260945
22
5.612435
32
1.514167
13
8.260945
23
5.612435
33
1.514167
0
3DFACE
8
0
10
7.686667
20
5.612435
30
1.725899
11
8.282623
21
5.612435
31
1.546609
12
8.270186
22
5.612435
32
1.531456
13
8.270186
23
5.612435
33
1.531456
0
3DFACE
8
0
10
7.686667
20
5.612435
30
1.725899
11
8.297776
21
5.612435
31
1.559046
12
8.282623
22
5.612435
32
1.546609
13
8.282623
23
5.612435
33
1.546609
0
3DFACE
8
0
10
7.686667
20
5.612435
30
1.725899
11
8.315065
21
5.612435
31
1.568287
12
8.297776
22
5.612435
32
1.559046
13
8.297776
23
5.612435
33
1.559046
0
3DFACE
8
0
10
7.686667
20
5.612435
30
1.725899
11
8.333824
21
5.612435
31
1.573977
12
8.315065
22
5.612435
32
1.568287
13
8.315065
23
5.612435
33
1.568287
0
3DFACE
8
0
10
7.686667
20
5.612435
30
1.725899
11
8.353333
21
5.612435
31
1.575899
12
8.333824
22
5.612435
32
1.573977
13
8.333824
23
5.612435
33
1.573977
0
3DFACE
8
0
10
7.686667
20
5.612435
30
1.725899
11
9.020000
21
5.612435
31
1.725899
12
8.372843
22
5.612435
32
1.573977
13
8.372843
23
5.612435
33
1.573977
0
3DFACE
8
0
10
8.372843
20
5.612435
30
1.573977
11
8.353333
21
5.612435
31
1.575899
12
7.686667
22
5.612435
32
1.725899
13
7.686667
23
5.612435
33
1.725899
0
3DFACE
8
0
10
8.253333
20
5.612435
30
1.475899
11
8.255255
21
5.612435
31
1.456390
12
7.686667
22
5.612435
32
1.725899
13
7.686667
23
5.612435
33
1.725899
0
3DFACE
8
0
10
9.020000
20
5.612435
30
1.725899
11
8.391602
21
5.612435
31
1.568287
12
8.372843
22
5.612435
32
1.573977
13
8.372843
23
5.612435
33
1.573977
0
3DFACE
8
0
10
9.020000
20
5.612435
30
1.725899
11
8.408891
21
5.612435
31
1.559046
12
8.391602
22
5.612435
32
1.568287
13
8.391602
23
5.612435
33
1.568287
0
3DFACE
8
0
10
9.020000
20
5.612435
30
1.725899
11
8.424045
21
5.612435
31
1.546609
12
8.408891
22
5.612435
32
1.559046
13
8.408891
23
5.612435
33
1.559046
0
3DFACE
8
0
10
9.020000
20
5.612435
30
1.725899
11
8.436481
21
5.612435
31
1.531456
12
8.424045
22
5.612435
32
1.546609
13
8.424045
23
5.612435
33
1.546609
0
3DFACE
8
0
10
9.020000
20
5.612435
30
1.725899
11
8.445722
21
5.612435
31
1.514167
12
8.436481
22
5.612435
32
1.531456
13
8.436481
23
5.612435
33
1.531456
0
3DFACE
8
0
10
8.255255
20
5.612435
30
1.456390
11
8.260945
21
5.612435
31
1.437631
12
7.686667
22
5.612435
32
1.725899
13
7.686667
23
5.612435
33
1.725899
0
3DFACE
8
0
10
9.020000
20
5.612435
30
1.725899
11
8.449774
21
5.612435
31
1.500809
12
8.445722
22
5.612435
32
1.514167
13
8.445722
23
5.612435
33
1.514167
0
3DFACE
8
0
10
7.753334
20
5.612435
30
1.225899
11
7.686667
21
5.612435
31
1.725899
12
8.260945
22
5.612435
32
1.437631
13
8.260945
23
5.612435
33
1.437631
0
3DFACE
8
0
10
8.260945
20
5.612435
30
1.437631
11
8.265959
21
5.612435
31
1.428251
12
7.753334
22
5.612435
32
1.225899
13
7.753334
23
5.612435
33
1.225899
0
3DFACE
8
0
10
7.753334
20
5.612435
30
0.820017
11
7.753334
21
5.612435
31
0.359464
12
7.686667
22
5.612435
32
1.725899
13
7.686667
23
5.612435
33
1.725899
0
3DFACE
8
0
10
7.686667
20
5.612435
30
1.725899
11
7.753334
21
5.612435
31
1.225899
12
7.753334
22
5.612435
32
0.820017
13
7.753334
23
5.612435
33
0.820017
0
3DFACE
8
0
10
8.353333
20
5.612435
30
-1.224101
11
8.333824
21
5.612435
31
-1.226023
12
7.884155
22
5.612435
32
-1.074101
13
7.884155
23
5.612435
33
-1.074101
0
3DFACE
8
0
10
7.884155
20
5.612435
30
-1.074101
11
8.372843
21
5.612435
31
-1.226023
12
8.353333
22
5.612435
32
-1.224101
13
8.353333
23
5.612435
33
-1.224101
0
3DFACE
8
0
10
7.884155
20
5.612435
30
-1.074101
11
8.953334
21
5.612435
31
-1.074101
12
8.391602
22
5.612435
32
-1.231713
13
8.391602
23
5.612435
33
-1.231713
0
3DFACE
8
0
10
8.391602
20
5.612435
30
-1.231713
11
8.372843
21
5.612435
31
-1.226023
12
7.884155
22
5.612435
32
-1.074101
13
7.884155
23
5.612435
33
-1.074101
0
3DFACE
8
0
10
8.333824
20
5.612435
30
-1.226023
11
8.315065
21
5.612435
31
-1.231713
12
7.884155
22
5.612435
32
-1.074101
13
7.884155
23
5.612435
33
-1.074101
0
3DFACE
8
0
10
8.953334
20
5.612435
30
-1.074101
11
8.408891
21
5.612435
31
-1.240954
12
8.391602
22
5.612435
32
-1.231713
13
8.391602
23
5.612435
33
-1.231713
0
3DFACE
8
0
10
8.953334
20
5.612435
30
-1.074101
11
8.424044
21
5.612435
31
-1.253391
12
8.408891
22
5.612435
32
-1.240954
13
8.408891
23
5.612435
33
-1.240954
0
3DFACE
8
0
10
8.953334
20
5.612435
30
-1.074101
11
8.436481
21
5.612435
31
-1.268544
12
8.424044
22
5.612435
32
-1.253391
13
8.424044
23
5.612435
33
-1.253391
0
3DFACE
8
0
10
8.953334
20
5.612435
30
-1.074101
11
8.445722
21
5.612435
31
-1.285833
12
8.436481
22
5.612435
32
-1.268544
13
8.436481
23
5.612435
33
-1.268544
0
3DFACE
8
0
10
8.953334
20
5.612435
30
-1.074101
11
8.451412
21
5.612435
31
-1.304592
12
8.445722
22
5.612435
32
-1.285833
13
8.445722
23
5.612435
33
-1.285833
0
3DFACE
8
0
10
8.953334
20
5.612435
30
-1.074101
11
8.453333
21
5.612435
31
-1.324101
12
8.451412
22
5.612435
32
-1.304592
13
8.451412
23
5.612435
33
-1.304592
0
3DFACE
8
0
10
8.297776
20
5.612435
30
-1.240954
11
7.881870
21
5.612435
31
-1.074101
12
7.884155
22
5.612435
32
-1.074101
13
7.884155
23
5.612435
33
-1.074101
0
3DFACE
8
0
10
7.884155
20
5.612435
30
-1.074101
11
8.315065
21
5.612435
31
-1.231713
12
8.297776
22
5.612435
32
-1.240954
13
8.297776
23
5.612435
33
-1.240954
0
3DFACE
8
0
10
8.297776
20
5.612435
30
-1.240954
11
8.285188
21
5.612435
31
-1.251286
12
7.881870
22
5.612435
32
-1.074101
13
7.881870
23
5.612435
33
-1.074101
0
3DFACE
8
0
10
8.953334
20
5.612435
30
-1.074101
11
9.020000
21
5.612435
31
-1.574101
12
8.453234
22
5.612435
32
-1.325111
13
8.453234
23
5.612435
33
-1.325111
0
3DFACE
8
0
10
8.453234
20
5.612435
30
-1.325111
11
8.453333
21
5.612435
31
-1.324101
12
8.953334
22
5.612435
32
-1.074101
13
8.953334
23
5.612435
33
-1.074101
0
3DFACE
8
0
10
8.282822
20
5.612435
30
-1.253227
11
7.877362
21
5.612435
31
-1.074101
12
7.881870
22
5.612435
32
-1.074101
13
7.881870
23
5.612435
33
-1.074101
0
3DFACE
8
0
10
7.881870
20
5.612435
30
-1.074101
11
8.285188
21
5.612435
31
-1.251286
12
8.282822
22
5.612435
32
-1.253227
13
8.282822
23
5.612435
33
-1.253227
0
3DFACE
8
0
10
8.282822
20
5.612435
30
-1.253227
11
7.871296
21
5.612435
31
-1.074101
12
7.877362
22
5.612435
32
-1.074101
13
7.877362
23
5.612435
33
-1.074101
0
3DFACE
8
0
10
9.020000
20
5.612435
30
-1.574101
11
8.453017
21
5.612435
31
-1.327309
12
8.453234
22
5.612435
32
-1.325111
13
8.453234
23
5.612435
33
-1.325111
0
3DFACE
8
0
10
7.864645
20
5.612435
30
-1.074101
11
8.282822
21
5.612435
31
-1.253227
12
8.282622
22
5.612435
32
-1.253391
13
8.282622
23
5.612435
33
-1.253391
0
3DFACE
8
0
10
8.282622
20
5.612435
30
-1.253391
11
7.858516
21
5.612435
31
-1.074101
12
7.864645
22
5.612435
32
-1.074101
13
7.864645
23
5.612435
33
-1.074101
0
3DFACE
8
0
10
7.864645
20
5.612435
30
-1.074101
11
7.871296
21
5.612435
31
-1.074101
12
8.282822
22
5.612435
32
-1.253227
13
8.282822
23
5.612435
33
-1.253227
0
3DFACE
8
0
10
8.282622
20
5.612435
30
-1.253391
11
8.280633
21
5.612435
31
-1.255816
12
7.858516
22
5.612435
32
-1.074101
13
7.858516
23
5.612435
33
-1.074101
0
3DFACE
8
0
10
9.020000
20
5.612435
30
-1.574101
11
8.452761
21
5.612435
31
-1.329914
12
8.453017
22
5.612435
32
-1.327309
13
8.453017
23
5.612435
33
-1.327309
0
3DFACE
8
0
10
7.771577
20
5.612435
30
-1.074101
11
7.784284
21
5.612435
31
-1.074101
12
8.270186
22
5.612435
32
-1.268544
13
8.270186
23
5.612435
33
-1.268544
0
3DFACE
8
0
10
8.270186
20
5.612435
30
-1.268544
11
8.267874
21
5.612435
31
-1.272871
12
7.771577
22
5.612435
32
-1.074101
13
7.771577
23
5.612435
33
-1.074101
0
3DFACE
8
0
10
7.858516
20
5.612435
30
-1.074101
11
8.280633
21
5.612435
31
-1.255816
12
8.270186
22
5.612435
32
-1.268544
13
8.270186
23
5.612435
33
-1.268544
0
3DFACE
8
0
10
8.270186
20
5.612435
30
-1.268544
11
7.784284
21
5.612435
31
-1.074101
12
7.858516
22
5.612435
32
-1.074101
13
7.858516
23
5.612435
33
-1.074101
0
3DFACE
8
0
10
9.020000
20
5.612435
30
-1.574101
11
8.450663
21
5.612435
31
-1.346079
12
8.451412
22
5.612435
32
-1.343610
13
8.451412
23
5.612435
33
-1.343610
0
3DFACE
8
0
10
8.451412
20
5.612435
30
-1.343610
11
8.452761
21
5.612435
31
-1.329914
12
9.020000
22
5.612435
32
-1.574101
13
9.020000
23
5.612435
33
-1.574101
0
3DFACE
8
0
10
8.267702
20
5.612435
30
-1.273192
11
7.769958
21
5.612435
31
-1.074101
12
7.770528
22
5.612435
32
-1.074101
13
7.770528
23
5.612435
33
-1.074101
0
3DFACE
8
0
10
7.770528
20
5.612435
30
-1.074101
11
7.771577
21
5.612435
31
-1.074101
12
8.267702
22
5.612435
32
-1.273192
13
8.267702
23
5.612435
33
-1.273192
0
3DFACE
8
0
10
7.771577
20
5.612435
30
-1.074101
11
8.267874
21
5.612435
31
-1.272871
12
8.267702
22
5.612435
32
-1.273192
13
8.267702
23
5.612435
33
-1.273192
0
3DFACE
8
0
10
9.020000
20
5.612435
30
-1.574101
11
8.450583
21
5.612435
31
-1.346342
12
8.450663
22
5.612435
32
-1.346079
13
8.450663
23
5.612435
33
-1.346079
0
3DFACE
8
0
10
9.020000
20
5.612435
30
1.725899
11
8.845220
21
5.612435
31
1.225899
12
8.838692
22
5.612435
32
1.225899
13
8.838692
23
5.612435
33
1.225899
0
3DFACE
8
0
10
7.686666
20
5.612435
30
-1.574101
11
7.686667
21
5.612435
31
1.725899
12
7.753334
22
5.612435
32
0.359464
13
7.753334
23
5.612435
33
0.359464
0
3DFACE
8
0
10
7.753334
20
5.612435
30
0.359464
11
7.753334
21
5.612435
31
-1.074101
12
7.686666
22
5.612435
32
-1.574101
13
7.686666
23
5.612435
33
-1.574101
0
3DFACE
8
0
10
8.265959
20
5.612435
30
-1.276453
11
7.768847
21
5.612435
31
-1.074101
12
7.769958
22
5.612435
32
-1.074101
13
7.769958
23
5.612435
33
-1.074101
0
3DFACE
8
0
10
7.769958
20
5.612435
30
-1.074101
11
8.267702
21
5.612435
31
-1.273192
12
8.265959
22
5.612435
32
-1.276453
13
8.265959
23
5.612435
33
-1.276453
0
3DFACE
8
0
10
8.265959
20
5.612435
30
-1.276453
11
7.753334
21
5.612435
31
-1.074101
12
7.768847
22
5.612435
32
-1.074101
13
7.768847
23
5.612435
33
-1.074101
0
3DFACE
8
0
10
9.020000
20
5.612435
30
-1.574101
11
8.449774
21
5.612435
31
-1.349012
12
8.450583
22
5.612435
32
-1.346342
13
8.450583
23
5.612435
33
-1.346342
0
3DFACE
8
0
10
9.020000
20
5.612435
30
-1.574101
11
8.408891
21
5.612435
31
-1.407248
12
8.424044
22
5.612435
32
-1.394812
13
8.424044
23
5.612435
33
-1.394812
0
3DFACE
8
0
10
9.020000
20
5.612435
30
-1.574101
11
8.391602
21
5.612435
31
-1.416489
12
8.408891
22
5.612435
32
-1.407248
13
8.408891
23
5.612435
33
-1.407248
0
3DFACE
8
0
10
9.020000
20
5.612435
30
-1.574101
11
8.372843
21
5.612435
31
-1.422180
12
8.391602
22
5.612435
32
-1.416489
13
8.391602
23
5.612435
33
-1.416489
0
3DFACE
8
0
10
9.020000
20
5.612435
30
-1.574101
11
8.353333
21
5.612435
31
-1.424101
12
8.372843
22
5.612435
32
-1.422180
13
8.372843
23
5.612435
33
-1.422180
0
3DFACE
8
0
10
9.020000
20
5.612435
30
-1.574101
11
7.686666
21
5.612435
31
-1.574101
12
8.333824
22
5.612435
32
-1.422180
13
8.333824
23
5.612435
33
-1.422180
0
3DFACE
8
0
10
8.333824
20
5.612435
30
-1.422180
11
8.353333
21
5.612435
31
-1.424101
12
9.020000
22
5.612435
32
-1.574101
13
9.020000
23
5.612435
33
-1.574101
0
3DFACE
8
0
10
8.424044
20
5.612435
30
-1.394812
11
8.436481
21
5.612435
31
-1.379658
12
9.020000
22
5.612435
32
-1.574101
13
9.020000
23
5.612435
33
-1.574101
0
3DFACE
8
0
10
7.686666
20
5.612435
30
-1.574101
11
8.315065
21
5.612435
31
-1.416489
12
8.333824
22
5.612435
32
-1.422180
13
8.333824
23
5.612435
33
-1.422180
0
3DFACE
8
0
10
7.686666
20
5.612435
30
-1.574101
11
8.297776
21
5.612435
31
-1.407248
12
8.315065
22
5.612435
32
-1.416489
13
8.315065
23
5.612435
33
-1.416489
0
3DFACE
8
0
10
7.686666
20
5.612435
30
-1.574101
11
8.282622
21
5.612435
31
-1.394812
12
8.297776
22
5.612435
32
-1.407248
13
8.297776
23
5.612435
33
-1.407248
0
3DFACE
8
0
10
7.686666
20
5.612435
30
-1.574101
11
8.270186
21
5.612435
31
-1.379658
12
8.282622
22
5.612435
32
-1.394812
13
8.282622
23
5.612435
33
-1.394812
0
3DFACE
8
0
10
7.686666
20
5.612435
30
-1.574101
11
8.260945
21
5.612435
31
-1.362370
12
8.270186
22
5.612435
32
-1.379658
13
8.270186
23
5.612435
33
-1.379658
0
3DFACE
8
0
10
7.686666
20
5.612435
30
-1.574101
11
8.255255
21
5.612435
31
-1.343610
12
8.260945
22
5.612435
32
-1.362370
13
8.260945
23
5.612435
33
-1.362370
0
3DFACE
8
0
10
7.686666
20
5.612435
30
-1.574101
11
8.253333
21
5.612435
31
-1.324101
12
8.255255
22
5.612435
32
-1.343610
13
8.255255
23
5.612435
33
-1.343610
0
3DFACE
8
0
10
7.686666
20
5.612435
30
-1.574101
11
8.255255
21
5.612435
31
-1.304592
12
8.253333
22
5.612435
32
-1.324101
13
8.253333
23
5.612435
33
-1.324101
0
3DFACE
8
0
10
8.436481
20
5.612435
30
-1.379658
11
8.445722
21
5.612435
31
-1.362369
12
9.020000
22
5.612435
32
-1.574101
13
9.020000
23
5.612435
33
-1.574101
0
3DFACE
8
0
10
7.686666
20
5.612435
30
-1.574101
11
8.260945
21
5.612435
31
-1.285833
12
8.255255
22
5.612435
32
-1.304592
13
8.255255
23
5.612435
33
-1.304592
0
3DFACE
8
0
10
8.445722
20
5.612435
30
-1.362369
11
8.449774
21
5.612435
31
-1.349012
12
9.020000
22
5.612435
32
-1.574101
13
9.020000
23
5.612435
33
-1.574101
0
3DFACE
8
0
10
7.686666
20
5.612435
30
-1.574101
11
7.753334
21
5.612435
31
-1.074101
12
8.265959
22
5.612435
32
-1.276453
13
8.265959
23
5.612435
33
-1.276453
0
3DFACE
8
0
10
8.265959
20
5.612435
30
-1.276453
11
8.260945
21
5.612435
31
-1.285833
12
7.686666
22
5.612435
32
-1.574101
13
7.686666
23
5.612435
33
-1.574101
0
3DFACE
8
0
10
8.686666
20
5.312435
30
-5.574101
11
8.686666
21
5.612435
31
-5.574101
12
8.686666
22
5.612435
32
-2.074101
13
8.686666
23
5.612435
33
-2.074101
0
3DFACE
8
0
10
8.686666
20
5.612435
30
-2.074101
11
8.686666
21
5.312435
31
-2.074101
12
8.686666
22
5.312435
32
-5.574101
13
8.686666
23
5.312435
33
-5.574101
0
3DFACE
8
0
10
8.020000
20
5.612435
30
-2.074101
11
7.686666
21
5.612435
31
-1.574101
12
9.020000
22
5.612435
32
-1.574101
13
9.020000
23
5.612435
33
-1.574101
0
3DFACE
8
0
10
9.020000
20
5.612435
30
-1.574101
11
8.686666
21
5.612435
31
-2.074101
12
8.020000
22
5.612435
32
-2.074101
13
8.020000
23
5.612435
33
-2.074101
0
3DFACE
8
0
10
8.686666
20
5.612435
30
-2.074101
11
9.020000
21
5.612435
31
-1.574101
12
9.020000
22
5.312435
32
-1.574101
13
9.020000
23
5.312435
33
-1.574101
0
3DFACE
8
0
10
9.020000
20
5.312435
30
-1.574101
11
8.686666
21
5.312435
31
-2.074101
12
8.686666
22
5.612435
32
-2.074101
13
8.686666
23
5.612435
33
-2.074101
0
3DFACE
8
0
10
8.686666
20
5.312435
30
-2.074101
11
9.020000
21
5.312435
31
-1.574101
12
7.686666
22
5.312435
32
-1.574101
13
7.686666
23
5.312435
33
-1.574101
0
3DFACE
8
0
10
7.686666
20
5.312435
30
-1.574101
11
8.020000
21
5.312435
31
-2.074101
12
8.686666
22
5.312435
32
-2.074101
13
8.686666
23
5.312435
33
-2.074101
0
3DFACE
8
0
10
7.769958
20
5.612435
30
-1.074101
11
7.768847
21
5.612435
31
-1.074101
12
7.830899
22
5.312435
32
-1.074101
13
7.830899
23
5.312435
33
-1.074101
0
3DFACE
8
0
10
7.830899
20
5.312435
30
-1.074101
11
7.836456
21
5.312435
31
-1.074101
12
7.769958
22
5.612435
32
-1.074101
13
7.769958
23
5.612435
33
-1.074101
0
3DFACE
8
0
10
7.771577
20
5.612435
30
-1.074101
11
7.770528
21
5.612435
31
-1.074101
12
7.839306
22
5.312435
32
-1.074101
13
7.839306
23
5.312435
33
-1.074101
0
3DFACE
8
0
10
7.839306
20
5.312435
30
-1.074101
11
7.844552
21
5.312435
31
-1.074101
12
7.771577
22
5.612435
32
-1.074101
13
7.771577
23
5.612435
33
-1.074101
0
3DFACE
8
0
10
7.784284
20
5.612435
30
-1.074101
11
7.771577
21
5.612435
31
-1.074101
12
7.844552
22
5.312435
32
-1.074101
13
7.844552
23
5.312435
33
-1.074101
0
3DFACE
8
0
10
7.844552
20
5.312435
30
-1.074101
11
7.908084
21
5.312435
31
-1.074101
12
7.784284
22
5.612435
32
-1.074101
13
7.784284
23
5.612435
33
-1.074101
0
3DFACE
8
0
10
7.858516
20
5.612435
30
-1.074101
11
7.784284
21
5.612435
31
-1.074101
12
7.908084
22
5.312435
32
-1.074101
13
7.908084
23
5.312435
33
-1.074101
0
3DFACE
8
0
10
7.908084
20
5.312435
30
-1.074101
11
8.279247
21
5.312435
31
-1.074101
12
7.858516
22
5.612435
32
-1.074101
13
7.858516
23
5.612435
33
-1.074101
0
3DFACE
8
0
10
7.864645
20
5.612435
30
-1.074101
11
7.858516
21
5.612435
31
-1.074101
12
8.279247
22
5.312435
32
-1.074101
13
8.279247
23
5.312435
33
-1.074101
0
3DFACE
8
0
10
8.279247
20
5.312435
30
-1.074101
11
8.309895
21
5.312435
31
-1.074101
12
7.864645
22
5.612435
32
-1.074101
13
7.864645
23
5.612435
33
-1.074101
0
3DFACE
8
0
10
7.871296
20
5.612435
30
-1.074101
11
7.864645
21
5.612435
31
-1.074101
12
8.309895
22
5.312435
32
-1.074101
13
8.309895
23
5.312435
33
-1.074101
0
3DFACE
8
0
10
8.309895
20
5.312435
30
-1.074101
11
8.343150
21
5.312435
31
-1.074101
12
7.871296
22
5.612435
32
-1.074101
13
7.871296
23
5.612435
33
-1.074101
0
3DFACE
8
0
10
7.877362
20
5.612435
30
-1.074101
11
7.871296
21
5.612435
31
-1.074101
12
8.343150
22
5.312435
32
-1.074101
13
8.343150
23
5.312435
33
-1.074101
0
3DFACE
8
0
10
8.343150
20
5.312435
30
-1.074101
11
8.373480
21
5.312435
31
-1.074101
12
7.877362
22
5.612435
32
-1.074101
13
7.877362
23
5.612435
33
-1.074101
0
3DFACE
8
0
10
7.881870
20
5.612435
30
-1.074101
11
7.877362
21
5.612435
31
-1.074101
12
8.373480
22
5.312435
32
-1.074101
13
8.373480
23
5.312435
33
-1.074101
0
3DFACE
8
0
10
8.373480
20
5.312435
30
-1.074101
11
8.396015
21
5.312435
31
-1.074101
12
7.881870
22
5.612435
32
-1.074101
13
7.881870
23
5.612435
33
-1.074101
0
3DFACE
8
0
10
7.884155
20
5.612435
30
-1.074101
11
7.881870
21
5.612435
31
-1.074101
12
8.396015
22
5.312435
32
-1.074101
13
8.396015
23
5.312435
33
-1.074101
0
3DFACE
8
0
10
8.396015
20
5.312435
30
-1.074101
11
8.407441
21
5.312435
31
-1.074101
12
7.884155
22
5.612435
32
-1.074101
13
7.884155
23
5.612435
33
-1.074101
0
3DFACE
8
0
10
7.770528
20
5.612435
30
-1.074101
11
7.769958
21
5.612435
31
-1.074101
12
7.836456
22
5.312435
32
-1.074101
13
7.836456
23
5.312435
33
-1.074101
0
3DFACE
8
0
10
7.836456
20
5.312435
30
-1.074101
11
7.839306
21
5.312435
31
-1.074101
12
7.770528
22
5.612435
32
-1.074101
13
7.770528
23
5.612435
33
-1.074101
0
3DFACE
8
0
10
7.753334
20
5.312435
30
-1.074101
11
7.830899
21
5.312435
31
-1.074101
12
7.768847
22
5.612435
32
-1.074101
13
7.768847
23
5.612435
33
-1.074101
0
3DFACE
8
0
10
7.768847
20
5.612435
30
-1.074101
11
7.753334
21
5.612435
31
-1.074101
12
7.753334
22
5.312435
32
-1.074101
13
7.753334
23
5.312435
33
-1.074101
0
3DFACE
8
0
10
8.407441
20
5.312435
30
-1.074101
11
8.953334
21
5.312435
31
-1.074101
12
8.953334
22
5.612435
32
-1.074101
13
8.953334
23
5.612435
33
-1.074101
0
3DFACE
8
0
10
8.953334
20
5.612435
30
-1.074101
11
7.884155
21
5.612435
31
-1.074101
12
8.407441
22
5.312435
32
-1.074101
13
8.407441
23
5.312435
33
-1.074101
0
3DFACE
8
0
10
8.953334
20
5.612435
30
-1.074101
11
8.953334
21
5.312435
31
-1.074101
12
8.953334
22
5.312435
32
-0.869307
13
8.953334
23
5.312435
33
-0.869307
0
3DFACE
8
0
10
8.953334
20
5.312435
30
-0.869307
11
8.953334
21
5.612435
31
0.359464
12
8.953334
22
5.612435
32
-1.074101
13
8.953334
23
5.612435
33
-1.074101
0
3DFACE
8
0
10
8.953334
20
5.612435
30
1.225899
11
8.953334
21
5.612435
31
0.716201
12
8.953334
22
5.312435
32
1.153085
13
8.953334
23
5.312435
33
1.153085
0
3DFACE
8
0
10
8.953334
20
5.312435
30
1.153085
11
8.953334
21
5.312435
31
1.225899
12
8.953334
22
5.612435
32
1.225899
13
8.953334
23
5.612435
33
1.225899
0
3DFACE
8
0
10
8.953334
20
5.612435
30
0.716201
11
8.953334
21
5.612435
31
0.359464
12
8.953334
22
5.312435
32
-0.869307
13
8.953334
23
5.312435
33
-0.869307
0
3DFACE
8
0
10
8.953334
20
5.312435
30
-0.869307
11
8.953334
21
5.312435
31
1.153085
12
8.953334
22
5.612435
32
0.716201
13
8.953334
23
5.612435
33
0.716201
0
3DFACE
8
0
10
8.939087
20
5.612435
30
1.225899
11
8.939478
21
5.612435
31
1.225899
12
8.884058
22
5.312435
32
1.225899
13
8.884058
23
5.312435
33
1.225899
0
3DFACE
8
0
10
8.884058
20
5.312435
30
1.225899
11
8.882102
21
5.312435
31
1.225899
12
8.939087
22
5.612435
32
1.225899
13
8.939087
23
5.612435
33
1.225899
0
3DFACE
8
0
10
8.937820
20
5.612435
30
1.225899
11
8.938744
21
5.612435
31
1.225899
12
8.880383
22
5.312435
32
1.225899
13
8.880383
23
5.312435
33
1.225899
0
3DFACE
8
0
10
8.880383
20
5.312435
30
1.225899
11
8.875769
21
5.312435
31
1.225899
12
8.937820
22
5.612435
32
1.225899
13
8.937820
23
5.612435
33
1.225899
0
3DFACE
8
0
10
8.936709
20
5.612435
30
1.225899
11
8.937820
21
5.612435
31
1.225899
12
8.875769
22
5.312435
32
1.225899
13
8.875769
23
5.312435
33
1.225899
0
3DFACE
8
0
10
8.875769
20
5.312435
30
1.225899
11
8.870211
21
5.312435
31
1.225899
12
8.936709
22
5.612435
32
1.225899
13
8.936709
23
5.612435
33
1.225899
0
3DFACE
8
0
10
8.935592
20
5.612435
30
1.225899
11
8.936709
21
5.612435
31
1.225899
12
8.870211
22
5.312435
32
1.225899
13
8.870211
23
5.312435
33
1.225899
0
3DFACE
8
0
10
8.870211
20
5.312435
30
1.225899
11
8.864624
21
5.312435
31
1.225899
12
8.935592
22
5.612435
32
1.225899
13
8.935592
23
5.612435
33
1.225899
0
3DFACE
8
0
10
8.934654
20
5.612435
30
1.225899
11
8.935592
21
5.612435
31
1.225899
12
8.864624
22
5.312435
32
1.225899
13
8.864624
23
5.312435
33
1.225899
0
3DFACE
8
0
10
8.864624
20
5.312435
30
1.225899
11
8.859938
21
5.312435
31
1.225899
12
8.934654
22
5.612435
32
1.225899
13
8.934654
23
5.612435
33
1.225899
0
3DFACE
8
0
10
8.850694
20
5.612435
30
1.225899
11
8.934654
21
5.612435
31
1.225899
12
8.859938
22
5.312435
32
1.225899
13
8.859938
23
5.312435
33
1.225899
0
3DFACE
8
0
10
8.859938
20
5.312435
30
1.225899
11
8.440136
21
5.312435
31
1.225899
12
8.850694
22
5.612435
32
1.225899
13
8.850694
23
5.612435
33
1.225899
0
3DFACE
8
0
10
8.845220
20
5.612435
30
1.225899
11
8.850694
21
5.612435
31
1.225899
12
8.440136
22
5.312435
32
1.225899
13
8.440136
23
5.312435
33
1.225899
0
3DFACE
8
0
10
8.440136
20
5.312435
30
1.225899
11
8.412763
21
5.312435
31
1.225899
12
8.845220
22
5.612435
32
1.225899
13
8.845220
23
5.612435
33
1.225899
0
3DFACE
8
0
10
8.838692
20
5.612435
30
1.225899
11
8.845220
21
5.612435
31
1.225899
12
8.412763
22
5.312435
32
1.225899
13
8.412763
23
5.312435
33
1.225899
0
3DFACE
8
0
10
8.412763
20
5.312435
30
1.225899
11
8.380122
21
5.312435
31
1.225899
12
8.838692
22
5.612435
32
1.225899
13
8.838692
23
5.612435
33
1.225899
0
3DFACE
8
0
10
8.832198
20
5.612435
30
1.225899
11
8.838692
21
5.612435
31
1.225899
12
8.380122
22
5.312435
32
1.225899
13
8.380122
23
5.312435
33
1.225899
0
3DFACE
8
0
10
8.380122
20
5.312435
30
1.225899
11
8.347654
21
5.312435
31
1.225899
12
8.832198
22
5.612435
32
1.225899
13
8.832198
23
5.612435
33
1.225899
0
3DFACE
8
0
10
8.938744
20
5.612435
30
1.225899
11
8.939087
21
5.612435
31
1.225899
12
8.882102
22
5.312435
32
1.225899
13
8.882102
23
5.312435
33
1.225899
0
3DFACE
8
0
10
8.882102
20
5.312435
30
1.225899
11
8.880383
21
5.312435
31
1.225899
12
8.938744
22
5.612435
32
1.225899
13
8.938744
23
5.612435
33
1.225899
0
3DFACE
8
0
10
8.953334
20
5.312435
30
1.225899
11
8.884058
21
5.312435
31
1.225899
12
8.939478
22
5.612435
32
1.225899
13
8.939478
23
5.612435
33
1.225899
0
3DFACE
8
0
10
8.939478
20
5.612435
30
1.225899
11
8.953334
21
5.612435
31
1.225899
12
8.953334
22
5.312435
32
1.225899
13
8.953334
23
5.312435
33
1.225899
0
3DFACE
8
0
10
7.753334
20
5.612435
30
1.225899
11
8.832198
21
5.612435
31
1.225899
12
8.347654
22
5.312435
32
1.225899
13
8.347654
23
5.312435
33
1.225899
0
3DFACE
8
0
10
8.347654
20
5.312435
30
1.225899
11
7.753334
21
5.312435
31
1.225899
12
7.753334
22
5.612435
32
1.225899
13
7.753334
23
5.612435
33
1.225899
0
3DFACE
8
0
10
7.753334
20
5.312435
30
1.225899
11
7.753334
21
5.312435
31
-0.803513
12
7.753334
22
5.612435
32
0.820017
13
7.753334
23
5.612435
33
0.820017
0
3DFACE
8
0
10
7.753334
20
5.612435
30
0.820017
11
7.753334
21
5.612435
31
1.225899
12
7.753334
22
5.312435
32
1.225899
13
7.753334
23
5.312435
33
1.225899
0
3DFACE
8
0
10
7.753334
20
5.612435
30
0.359464
11
7.753334
21
5.612435
31
0.820017
12
7.753334
22
5.312435
32
-0.803513
13
7.753334
23
5.312435
33
-0.803513
0
3DFACE
8
0
10
7.753334
20
5.312435
30
-0.803513
11
7.753334
21
5.312435
31
-0.869307
12
7.753334
22
5.612435
32
0.359464
13
7.753334
23
5.612435
33
0.359464
0
3DFACE
8
0
10
7.753334
20
5.612435
30
-1.074101
11
7.753334
21
5.612435
31
0.359464
12
7.753334
22
5.312435
32
-0.869307
13
7.753334
23
5.312435
33
-0.869307
0
3DFACE
8
0
10
7.753334
20
5.312435
30
-0.869307
11
7.753334
21
5.312435
31
-1.074101
12
7.753334
22
5.612435
32
-1.074101
13
7.753334
23
5.612435
33
-1.074101
0
3DFACE
8
0
10
8.451412
20
5.612435
30
1.495408
11
8.453334
21
5.612435
31
1.475899
12
8.453334
22
5.312435
32
1.475899
13
8.453334
23
5.312435
33
1.475899
0
3DFACE
8
0
10
8.453334
20
5.312435
30
1.475899
11
8.451412
21
5.312435
31
1.495408
12
8.451412
22
5.612435
32
1.495408
13
8.451412
23
5.612435
33
1.495408
0
3DFACE
8
0
10
8.449774
20
5.612435
30
1.500809
11
8.451412
21
5.612435
31
1.495408
12
8.451412
22
5.312435
32
1.495408
13
8.451412
23
5.312435
33
1.495408
0
3DFACE
8
0
10
8.451412
20
5.312435
30
1.495408
11
8.445722
21
5.312435
31
1.514167
12
8.449774
22
5.612435
32
1.500809
13
8.449774
23
5.612435
33
1.500809
0
3DFACE
8
0
10
8.445722
20
5.312435
30
1.514167
11
8.445722
21
5.612435
31
1.514167
12
8.449774
22
5.612435
32
1.500809
13
8.449774
23
5.612435
33
1.500809
0
3DFACE
8
0
10
8.436481
20
5.612435
30
1.531456
11
8.445722
21
5.612435
31
1.514167
12
8.445722
22
5.312435
32
1.514167
13
8.445722
23
5.312435
33
1.514167
0
3DFACE
8
0
10
8.445722
20
5.312435
30
1.514167
11
8.436481
21
5.312435
31
1.531456
12
8.436481
22
5.612435
32
1.531456
13
8.436481
23
5.612435
33
1.531456
0
3DFACE
8
0
10
8.424045
20
5.612435
30
1.546609
11
8.436481
21
5.612435
31
1.531456
12
8.436481
22
5.312435
32
1.531456
13
8.436481
23
5.312435
33
1.531456
0
3DFACE
8
0
10
8.436481
20
5.312435
30
1.531456
11
8.424045
21
5.312435
31
1.546609
12
8.424045
22
5.612435
32
1.546609
13
8.424045
23
5.612435
33
1.546609
0
3DFACE
8
0
10
8.408891
20
5.612435
30
1.559046
11
8.424045
21
5.612435
31
1.546609
12
8.424045
22
5.312435
32
1.546609
13
8.424045
23
5.312435
33
1.546609
0
3DFACE
8
0
10
8.424045
20
5.312435
30
1.546609
11
8.408891
21
5.312435
31
1.559046
12
8.408891
22
5.612435
32
1.559046
13
8.408891
23
5.612435
33
1.559046
0
3DFACE
8
0
10
8.391602
20
5.612435
30
1.568287
11
8.408891
21
5.612435
31
1.559046
12
8.408891
22
5.312435
32
1.559046
13
8.408891
23
5.312435
33
1.559046
0
3DFACE
8
0
10
8.408891
20
5.312435
30
1.559046
11
8.391602
21
5.312435
31
1.568287
12
8.391602
22
5.612435
32
1.568287
13
8.391602
23
5.612435
33
1.568287
0
3DFACE
8
0
10
8.372843
20
5.612435
30
1.573977
11
8.391602
21
5.612435
31
1.568287
12
8.391602
22
5.312435
32
1.568287
13
8.391602
23
5.312435
33
1.568287
0
3DFACE
8
0
10
8.391602
20
5.312435
30
1.568287
11
8.372843
21
5.312435
31
1.573977
12
8.372843
22
5.612435
32
1.573977
13
8.372843
23
5.612435
33
1.573977
0
3DFACE
8
0
10
8.353333
20
5.612435
30
1.575899
11
8.372843
21
5.612435
31
1.573977
12
8.372843
22
5.312435
32
1.573977
13
8.372843
23
5.312435
33
1.573977
0
3DFACE
8
0
10
8.372843
20
5.312435
30
1.573977
11
8.353333
21
5.312435
31
1.575899
12
8.353333
22
5.612435
32
1.575899
13
8.353333
23
5.612435
33
1.575899
0
3DFACE
8
0
10
8.333824
20
5.612435
30
1.573977
11
8.353333
21
5.612435
31
1.575899
12
8.353333
22
5.312435
32
1.575899
13
8.353333
23
5.312435
33
1.575899
0
3DFACE
8
0
10
8.353333
20
5.312435
30
1.575899
11
8.333824
21
5.312435
31
1.573977
12
8.333824
22
5.612435
32
1.573977
13
8.333824
23
5.612435
33
1.573977
0
3DFACE
8
0
10
8.315065
20
5.612435
30
1.568287
11
8.333824
21
5.612435
31
1.573977
12
8.333824
22
5.312435
32
1.573977
13
8.333824
23
5.312435
33
1.573977
0
3DFACE
8
0
10
8.333824
20
5.312435
30
1.573977
11
8.315065
21
5.312435
31
1.568287
12
8.315065
22
5.612435
32
1.568287
13
8.315065
23
5.612435
33
1.568287
0
3DFACE
8
0
10
8.297776
20
5.612435
30
1.559046
11
8.315065
21
5.612435
31
1.568287
12
8.315065
22
5.312435
32
1.568287
13
8.315065
23
5.312435
33
1.568287
0
3DFACE
8
0
10
8.315065
20
5.312435
30
1.568287
11
8.297776
21
5.312435
31
1.559046
12
8.297776
22
5.612435
32
1.559046
13
8.297776
23
5.612435
33
1.559046
0
3DFACE
8
0
10
8.282623
20
5.612435
30
1.546609
11
8.297776
21
5.612435
31
1.559046
12
8.297776
22
5.312435
32
1.559046
13
8.297776
23
5.312435
33
1.559046
0
3DFACE
8
0
10
8.297776
20
5.312435
30
1.559046
11
8.282623
21
5.312435
31
1.546609
12
8.282623
22
5.612435
32
1.546609
13
8.282623
23
5.612435
33
1.546609
0
3DFACE
8
0
10
8.270186
20
5.612435
30
1.531456
11
8.282623
21
5.612435
31
1.546609
12
8.282623
22
5.312435
32
1.546609
13
8.282623
23
5.312435
33
1.546609
0
3DFACE
8
0
10
8.282623
20
5.312435
30
1.546609
11
8.270186
21
5.312435
31
1.531456
12
8.270186
22
5.612435
32
1.531456
13
8.270186
23
5.612435
33
1.531456
0
3DFACE
8
0
10
8.260945
20
5.612435
30
1.514167
11
8.270186
21
5.612435
31
1.531456
12
8.270186
22
5.312435
32
1.531456
13
8.270186
23
5.312435
33
1.531456
0
3DFACE
8
0
10
8.270186
20
5.312435
30
1.531456
11
8.260945
21
5.312435
31
1.514167
12
8.260945
22
5.612435
32
1.514167
13
8.260945
23
5.612435
33
1.514167
0
3DFACE
8
0
10
8.255255
20
5.612435
30
1.495408
11
8.260945
21
5.612435
31
1.514167
12
8.260945
22
5.312435
32
1.514167
13
8.260945
23
5.312435
33
1.514167
0
3DFACE
8
0
10
8.260945
20
5.312435
30
1.514167
11
8.255255
21
5.312435
31
1.495408
12
8.255255
22
5.612435
32
1.495408
13
8.255255
23
5.612435
33
1.495408
0
3DFACE
8
0
10
8.253333
20
5.612435
30
1.475899
11
8.255255
21
5.612435
31
1.495408
12
8.255255
22
5.312435
32
1.495408
13
8.255255
23
5.312435
33
1.495408
0
3DFACE
8
0
10
8.255255
20
5.312435
30
1.495408
11
8.253334
21
5.312435
31
1.475899
12
8.253333
22
5.612435
32
1.475899
13
8.253333
23
5.612435
33
1.475899
0
3DFACE
8
0
10
8.255255
20
5.612435
30
1.456390
11
8.253333
21
5.612435
31
1.475899
12
8.253334
22
5.312435
32
1.475899
13
8.253334
23
5.312435
33
1.475899
0
3DFACE
8
0
10
8.253334
20
5.312435
30
1.475899
11
8.255255
21
5.312435
31
1.456390
12
8.255255
22
5.612435
32
1.456390
13
8.255255
23
5.612435
33
1.456390
0
3DFACE
8
0
10
8.260945
20
5.612435
30
1.437631
11
8.255255
21
5.612435
31
1.456390
12
8.255255
22
5.312435
32
1.456390
13
8.255255
23
5.312435
33
1.456390
0
3DFACE
8
0
10
8.255255
20
5.312435
30
1.456390
11
8.260945
21
5.312435
31
1.437631
12
8.260945
22
5.612435
32
1.437631
13
8.260945
23
5.612435
33
1.437631
0
3DFACE
8
0
10
8.270186
20
5.312435
30
1.420342
11
8.270186
21
5.612435
31
1.420342
12
8.265959
22
5.612435
32
1.428251
13
8.265959
23
5.612435
33
1.428251
0
3DFACE
8
0
10
8.265959
20
5.612435
30
1.428251
11
8.260945
21
5.612435
31
1.437631
12
8.270186
22
5.312435
32
1.420342
13
8.270186
23
5.312435
33
1.420342
0
3DFACE
8
0
10
8.260945
20
5.612435
30
1.437631
11
8.260945
21
5.312435
31
1.437631
12
8.270186
22
5.312435
32
1.420342
13
8.270186
23
5.312435
33
1.420342
0
3DFACE
8
0
10
8.282623
20
5.612435
30
1.405188
11
8.270186
21
5.612435
31
1.420342
12
8.270186
22
5.312435
32
1.420342
13
8.270186
23
5.312435
33
1.420342
0
3DFACE
8
0
10
8.270186
20
5.312435
30
1.420342
11
8.282623
21
5.312435
31
1.405188
12
8.282623
22
5.612435
32
1.405188
13
8.282623
23
5.612435
33
1.405188
0
3DFACE
8
0
10
8.297776
20
5.612435
30
1.392752
11
8.282623
21
5.612435
31
1.405188
12
8.282623
22
5.312435
32
1.405188
13
8.282623
23
5.312435
33
1.405188
0
3DFACE
8
0
10
8.282623
20
5.312435
30
1.405188
11
8.297776
21
5.312435
31
1.392752
12
8.297776
22
5.612435
32
1.392752
13
8.297776
23
5.612435
33
1.392752
0
3DFACE
8
0
10
8.315065
20
5.612435
30
1.383511
11
8.297776
21
5.612435
31
1.392752
12
8.297776
22
5.312435
32
1.392752
13
8.297776
23
5.312435
33
1.392752
0
3DFACE
8
0
10
8.297776
20
5.312435
30
1.392752
11
8.315065
21
5.312435
31
1.383511
12
8.315065
22
5.612435
32
1.383511
13
8.315065
23
5.612435
33
1.383511
0
3DFACE
8
0
10
8.333824
20
5.612435
30
1.377820
11
8.315065
21
5.612435
31
1.383511
12
8.315065
22
5.312435
32
1.383511
13
8.315065
23
5.312435
33
1.383511
0
3DFACE
8
0
10
8.315065
20
5.312435
30
1.383511
11
8.333825
21
5.312435
31
1.377820
12
8.333824
22
5.612435
32
1.377820
13
8.333824
23
5.612435
33
1.377820
0
3DFACE
8
0
10
8.353333
20
5.612435
30
1.375899
11
8.333824
21
5.612435
31
1.377820
12
8.333825
22
5.312435
32
1.377820
13
8.333825
23
5.312435
33
1.377820
0
3DFACE
8
0
10
8.333825
20
5.312435
30
1.377820
11
8.353333
21
5.312435
31
1.375899
12
8.353333
22
5.612435
32
1.375899
13
8.353333
23
5.612435
33
1.375899
0
3DFACE
8
0
10
8.372843
20
5.612435
30
1.377820
11
8.353333
21
5.612435
31
1.375899
12
8.353333
22
5.312435
32
1.375899
13
8.353333
23
5.312435
33
1.375899
0
3DFACE
8
0
10
8.353333
20
5.312435
30
1.375899
11
8.372843
21
5.312435
31
1.377820
12
8.372843
22
5.612435
32
1.377820
13
8.372843
23
5.612435
33
1.377820
0
3DFACE
8
0
10
8.391602
20
5.612435
30
1.383511
11
8.372843
21
5.612435
31
1.377820
12
8.372843
22
5.312435
32
1.377820
13
8.372843
23
5.312435
33
1.377820
0
3DFACE
8
0
10
8.372843
20
5.312435
30
1.377820
11
8.391602
21
5.312435
31
1.383511
12
8.391602
22
5.612435
32
1.383511
13
8.391602
23
5.612435
33
1.383511
0
3DFACE
8
0
10
8.408891
20
5.612435
30
1.392752
11
8.391602
21
5.612435
31
1.383511
12
8.391602
22
5.312435
32
1.383511
13
8.391602
23
5.312435
33
1.383511
0
3DFACE
8
0
10
8.391602
20
5.312435
30
1.383511
11
8.408891
21
5.312435
31
1.392752
12
8.408891
22
5.612435
32
1.392752
13
8.408891
23
5.612435
33
1.392752
0
3DFACE
8
0
10
8.424045
20
5.612435
30
1.405188
11
8.408891
21
5.612435
31
1.392752
12
8.408891
22
5.312435
32
1.392752
13
8.408891
23
5.312435
33
1.392752
0
3DFACE
8
0
10
8.408891
20
5.312435
30
1.392752
11
8.424045
21
5.312435
31
1.405188
12
8.424045
22
5.612435
32
1.405188
13
8.424045
23
5.612435
33
1.405188
0
3DFACE
8
0
10
8.436481
20
5.612435
30
1.420342
11
8.424045
21
5.612435
31
1.405188
12
8.424045
22
5.312435
32
1.405188
13
8.424045
23
5.312435
33
1.405188
0
3DFACE
8
0
10
8.424045
20
5.312435
30
1.405188
11
8.436481
21
5.312435
31
1.420342
12
8.436481
22
5.612435
32
1.420342
13
8.436481
23
5.612435
33
1.420342
0
3DFACE
8
0
10
8.445722
20
5.612435
30
1.437631
11
8.436481
21
5.612435
31
1.420342
12
8.436481
22
5.312435
32
1.420342
13
8.436481
23
5.312435
33
1.420342
0
3DFACE
8
0
10
8.436481
20
5.312435
30
1.420342
11
8.445722
21
5.312435
31
1.437631
12
8.445722
22
5.612435
32
1.437631
13
8.445722
23
5.612435
33
1.437631
0
3DFACE
8
0
10
8.451412
20
5.312435
30
1.456390
11
8.453334
21
5.312435
31
1.475899
12
8.453334
22
5.612435
32
1.475899
13
8.453334
23
5.612435
33
1.475899
0
3DFACE
8
0
10
8.453334
20
5.612435
30
1.475899
11
8.451412
21
5.612435
31
1.456390
12
8.451412
22
5.312435
32
1.456390
13
8.451412
23
5.312435
33
1.456390
0
3DFACE
8
0
10
8.451412
20
5.612435
30
1.456390
11
8.445722
21
5.612435
31
1.437631
12
8.445722
22
5.312435
32
1.437631
13
8.445722
23
5.312435
33
1.437631
0
3DFACE
8
0
10
8.445722
20
5.312435
30
1.437631
11
8.451412
21
5.312435
31
1.456390
12
8.451412
22
5.612435
32
1.456390
13
8.451412
23
5.612435
33
1.456390
0
3DFACE
8
0
10
8.451412
20
5.312435
30
-1.304592
11
8.451412
21
5.612435
31
-1.304592
12
8.453333
22
5.612435
32
-1.324101
13
8.453333
23
5.612435
33
-1.324101
0
3DFACE
8
0
10
8.453333
20
5.612435
30
-1.324101
11
8.453334
21
5.312435
31
-1.324101
12
8.451412
22
5.312435
32
-1.304592
13
8.451412
23
5.312435
33
-1.304592
0
3DFACE
8
0
10
8.445722
20
5.312435
30
-1.285833
11
8.445722
21
5.612435
31
-1.285833
12
8.451412
22
5.612435
32
-1.304592
13
8.451412
23
5.612435
33
-1.304592
0
3DFACE
8
0
10
8.451412
20
5.612435
30
-1.304592
11
8.451412
21
5.312435
31
-1.304592
12
8.445722
22
5.312435
32
-1.285833
13
8.445722
23
5.312435
33
-1.285833
0
3DFACE
8
0
10
8.436481
20
5.312435
30
-1.268544
11
8.436481
21
5.612435
31
-1.268544
12
8.445722
22
5.612435
32
-1.285833
13
8.445722
23
5.612435
33
-1.285833
0
3DFACE
8
0
10
8.445722
20
5.612435
30
-1.285833
11
8.445722
21
5.312435
31
-1.285833
12
8.436481
22
5.312435
32
-1.268544
13
8.436481
23
5.312435
33
-1.268544
0
3DFACE
8
0
10
8.424044
20
5.312435
30
-1.253391
11
8.424044
21
5.612435
31
-1.253391
12
8.436481
22
5.612435
32
-1.268544
13
8.436481
23
5.612435
33
-1.268544
0
3DFACE
8
0
10
8.436481
20
5.612435
30
-1.268544
11
8.436481
21
5.312435
31
-1.268544
12
8.424044
22
5.312435
32
-1.253391
13
8.424044
23
5.312435
33
-1.253391
0
3DFACE
8
0
10
8.408891
20
5.312435
30
-1.240954
11
8.408891
21
5.612435
31
-1.240954
12
8.424044
22
5.612435
32
-1.253391
13
8.424044
23
5.612435
33
-1.253391
0
3DFACE
8
0
10
8.424044
20
5.612435
30
-1.253391
11
8.424044
21
5.312435
31
-1.253391
12
8.408891
22
5.312435
32
-1.240954
13
8.408891
23
5.312435
33
-1.240954
0
3DFACE
8
0
10
8.391602
20
5.312435
30
-1.231713
11
8.391602
21
5.612435
31
-1.231713
12
8.408891
22
5.612435
32
-1.240954
13
8.408891
23
5.612435
33
-1.240954
0
3DFACE
8
0
10
8.408891
20
5.612435
30
-1.240954
11
8.408891
21
5.312435
31
-1.240954
12
8.391602
22
5.312435
32
-1.231713
13
8.391602
23
5.312435
33
-1.231713
0
3DFACE
8
0
10
8.372843
20
5.312435
30
-1.226023
11
8.372843
21
5.612435
31
-1.226023
12
8.391602
22
5.612435
32
-1.231713
13
8.391602
23
5.612435
33
-1.231713
0
3DFACE
8
0
10
8.391602
20
5.612435
30
-1.231713
11
8.391602
21
5.312435
31
-1.231713
12
8.372843
22
5.312435
32
-1.226023
13
8.372843
23
5.312435
33
-1.226023
0
3DFACE
8
0
10
8.353333
20
5.312435
30
-1.224101
11
8.353333
21
5.612435
31
-1.224101
12
8.372843
22
5.612435
32
-1.226023
13
8.372843
23
5.612435
33
-1.226023
0
3DFACE
8
0
10
8.372843
20
5.612435
30
-1.226023
11
8.372843
21
5.312435
31
-1.226023
12
8.353333
22
5.312435
32
-1.224101
13
8.353333
23
5.312435
33
-1.224101
0
3DFACE
8
0
10
8.333824
20
5.312435
30
-1.226023
11
8.333824
21
5.612435
31
-1.226023
12
8.353333
22
5.612435
32
-1.224101
13
8.353333
23
5.612435
33
-1.224101
0
3DFACE
8
0
10
8.353333
20
5.612435
30
-1.224101
11
8.353333
21
5.312435
31
-1.224101
12
8.333824
22
5.312435
32
-1.226023
13
8.333824
23
5.312435
33
-1.226023
0
3DFACE
8
0
10
8.315065
20
5.312435
30
-1.231713
11
8.315065
21
5.612435
31
-1.231713
12
8.333824
22
5.612435
32
-1.226023
13
8.333824
23
5.612435
33
-1.226023
0
3DFACE
8
0
10
8.333824
20
5.612435
30
-1.226023
11
8.333824
21
5.312435
31
-1.226023
12
8.315065
22
5.312435
32
-1.231713
13
8.315065
23
5.312435
33
-1.231713
0
3DFACE
8
0
10
8.297776
20
5.312435
30
-1.240954
11
8.297776
21
5.612435
31
-1.240954
12
8.315065
22
5.612435
32
-1.231713
13
8.315065
23
5.612435
33
-1.231713
0
3DFACE
8
0
10
8.315065
20
5.612435
30
-1.231713
11
8.315065
21
5.312435
31
-1.231713
12
8.297776
22
5.312435
32
-1.240954
13
8.297776
23
5.312435
33
-1.240954
0
3DFACE
8
0
10
8.282622
20
5.312435
30
-1.253391
11
8.282822
21
5.612435
31
-1.253227
12
8.285188
22
5.612435
32
-1.251286
13
8.285188
23
5.612435
33
-1.251286
0
3DFACE
8
0
10
8.285188
20
5.612435
30
-1.251286
11
8.297776
21
5.612435
31
-1.240954
12
8.282622
22
5.312435
32
-1.253391
13
8.282622
23
5.312435
33
-1.253391
0
3DFACE
8
0
10
8.282622
20
5.312435
30
-1.253391
11
8.282622
21
5.612435
31
-1.253391
12
8.282822
22
5.612435
32
-1.253227
13
8.282822
23
5.612435
33
-1.253227
0
3DFACE
8
0
10
8.297776
20
5.612435
30
-1.240954
11
8.297776
21
5.312435
31
-1.240954
12
8.282622
22
5.312435
32
-1.253391
13
8.282622
23
5.312435
33
-1.253391
0
3DFACE
8
0
10
8.278333
20
5.312435
30
-1.258618
11
8.277018
21
5.312435
31
-1.260221
12
8.280633
22
5.612435
32
-1.255816
13
8.280633
23
5.612435
33
-1.255816
0
3DFACE
8
0
10
8.280633
20
5.612435
30
-1.255816
11
8.282622
21
5.612435
31
-1.253391
12
8.278333
22
5.312435
32
-1.258618
13
8.278333
23
5.312435
33
-1.258618
0
3DFACE
8
0
10
8.282622
20
5.612435
30
-1.253391
11
8.282622
21
5.312435
31
-1.253391
12
8.278333
22
5.312435
32
-1.258618
13
8.278333
23
5.312435
33
-1.258618
0
3DFACE
8
0
10
8.270186
20
5.312435
30
-1.268544
11
8.270186
21
5.612435
31
-1.268544
12
8.280633
22
5.612435
32
-1.255816
13
8.280633
23
5.612435
33
-1.255816
0
3DFACE
8
0
10
8.280633
20
5.612435
30
-1.255816
11
8.277018
21
5.312435
31
-1.260221
12
8.270186
22
5.312435
32
-1.268544
13
8.270186
23
5.312435
33
-1.268544
0
3DFACE
8
0
10
8.265959
20
5.312435
30
-1.276453
11
8.267702
21
5.612435
31
-1.273192
12
8.267874
22
5.612435
32
-1.272871
13
8.267874
23
5.612435
33
-1.272871
0
3DFACE
8
0
10
8.267874
20
5.612435
30
-1.272871
11
8.270186
21
5.612435
31
-1.268544
12
8.265959
22
5.312435
32
-1.276453
13
8.265959
23
5.312435
33
-1.276453
0
3DFACE
8
0
10
8.265959
20
5.312435
30
-1.276453
11
8.260945
21
5.612435
31
-1.285833
12
8.265959
22
5.612435
32
-1.276453
13
8.265959
23
5.612435
33
-1.276453
0
3DFACE
8
0
10
8.265959
20
5.612435
30
-1.276453
11
8.267702
21
5.612435
31
-1.273192
12
8.265959
22
5.312435
32
-1.276453
13
8.265959
23
5.312435
33
-1.276453
0
3DFACE
8
0
10
8.270186
20
5.612435
30
-1.268544
11
8.270186
21
5.312435
31
-1.268544
12
8.265959
22
5.312435
32
-1.276453
13
8.265959
23
5.312435
33
-1.276453
0
3DFACE
8
0
10
8.265959
20
5.312435
30
-1.276453
11
8.260945
21
5.312435
31
-1.285833
12
8.260945
22
5.612435
32
-1.285833
13
8.260945
23
5.612435
33
-1.285833
0
3DFACE
8
0
10
8.255255
20
5.312435
30
-1.304592
11
8.255255
21
5.612435
31
-1.304592
12
8.260945
22
5.612435
32
-1.285833
13
8.260945
23
5.612435
33
-1.285833
0
3DFACE
8
0
10
8.260945
20
5.612435
30
-1.285833
11
8.260945
21
5.312435
31
-1.285833
12
8.255255
22
5.312435
32
-1.304592
13
8.255255
23
5.312435
33
-1.304592
0
3DFACE
8
0
10
8.253333
20
5.312435
30
-1.324101
11
8.253333
21
5.612435
31
-1.324101
12
8.255255
22
5.612435
32
-1.304592
13
8.255255
23
5.612435
33
-1.304592
0
3DFACE
8
0
10
8.255255
20
5.612435
30
-1.304592
11
8.255255
21
5.312435
31
-1.304592
12
8.253333
22
5.312435
32
-1.324101
13
8.253333
23
5.312435
33
-1.324101
0
3DFACE
8
0
10
8.255255
20
5.312435
30
-1.343610
11
8.255255
21
5.612435
31
-1.343610
12
8.253333
22
5.612435
32
-1.324101
13
8.253333
23
5.612435
33
-1.324101
0
3DFACE
8
0
10
8.253333
20
5.612435
30
-1.324101
11
8.253333
21
5.312435
31
-1.324101
12
8.255255
22
5.312435
32
-1.343610
13
8.255255
23
5.312435
33
-1.343610
0
3DFACE
8
0
10
8.260945
20
5.312435
30
-1.362370
11
8.260945
21
5.612435
31
-1.362370
12
8.255255
22
5.612435
32
-1.343610
13
8.255255
23
5.612435
33
-1.343610
0
3DFACE
8
0
10
8.255255
20
5.612435
30
-1.343610
11
8.255255
21
5.312435
31
-1.343610
12
8.260945
22
5.312435
32
-1.362370
13
8.260945
23
5.312435
33
-1.362370
0
3DFACE
8
0
10
8.270186
20
5.312435
30
-1.379658
11
8.270186
21
5.612435
31
-1.379658
12
8.260945
22
5.612435
32
-1.362370
13
8.260945
23
5.612435
33
-1.362370
0
3DFACE
8
0
10
8.260945
20
5.612435
30
-1.362370
11
8.260945
21
5.312435
31
-1.362370
12
8.270186
22
5.312435
32
-1.379658
13
8.270186
23
5.312435
33
-1.379658
0
3DFACE
8
0
10
8.282622
20
5.312435
30
-1.394812
11
8.282622
21
5.612435
31
-1.394812
12
8.270186
22
5.612435
32
-1.379658
13
8.270186
23
5.612435
33
-1.379658
0
3DFACE
8
0
10
8.270186
20
5.612435
30
-1.379658
11
8.270186
21
5.312435
31
-1.379658
12
8.282622
22
5.312435
32
-1.394812
13
8.282622
23
5.312435
33
-1.394812
0
3DFACE
8
0
10
8.297776
20
5.312435
30
-1.407248
11
8.297776
21
5.612435
31
-1.407248
12
8.282622
22
5.612435
32
-1.394812
13
8.282622
23
5.612435
33
-1.394812
0
3DFACE
8
0
10
8.282622
20
5.612435
30
-1.394812
11
8.282622
21
5.312435
31
-1.394812
12
8.297776
22
5.312435
32
-1.407248
13
8.297776
23
5.312435
33
-1.407248
0
3DFACE
8
0
10
8.315065
20
5.312435
30
-1.416489
11
8.315065
21
5.612435
31
-1.416489
12
8.297776
22
5.612435
32
-1.407248
13
8.297776
23
5.612435
33
-1.407248
0
3DFACE
8
0
10
8.297776
20
5.612435
30
-1.407248
11
8.297776
21
5.312435
31
-1.407248
12
8.315065
22
5.312435
32
-1.416489
13
8.315065
23
5.312435
33
-1.416489
0
3DFACE
8
0
10
8.333824
20
5.312435
30
-1.422180
11
8.333824
21
5.612435
31
-1.422180
12
8.315065
22
5.612435
32
-1.416489
13
8.315065
23
5.612435
33
-1.416489
0
3DFACE
8
0
10
8.315065
20
5.612435
30
-1.416489
11
8.315065
21
5.312435
31
-1.416489
12
8.333824
22
5.312435
32
-1.422180
13
8.333824
23
5.312435
33
-1.422180
0
3DFACE
8
0
10
8.353333
20
5.312435
30
-1.424101
11
8.353333
21
5.612435
31
-1.424101
12
8.333824
22
5.612435
32
-1.422180
13
8.333824
23
5.612435
33
-1.422180
0
3DFACE
8
0
10
8.333824
20
5.612435
30
-1.422180
11
8.333824
21
5.312435
31
-1.422180
12
8.353333
22
5.312435
32
-1.424101
13
8.353333
23
5.312435
33
-1.424101
0
3DFACE
8
0
10
8.372843
20
5.312435
30
-1.422180
11
8.372843
21
5.612435
31
-1.422180
12
8.353333
22
5.612435
32
-1.424101
13
8.353333
23
5.612435
33
-1.424101
0
3DFACE
8
0
10
8.353333
20
5.612435
30
-1.424101
11
8.353333
21
5.312435
31
-1.424101
12
8.372843
22
5.312435
32
-1.422180
13
8.372843
23
5.312435
33
-1.422180
0
3DFACE
8
0
10
8.391602
20
5.312435
30
-1.416489
11
8.391602
21
5.612435
31
-1.416489
12
8.372843
22
5.612435
32
-1.422180
13
8.372843
23
5.612435
33
-1.422180
0
3DFACE
8
0
10
8.372843
20
5.612435
30
-1.422180
11
8.372843
21
5.312435
31
-1.422180
12
8.391602
22
5.312435
32
-1.416489
13
8.391602
23
5.312435
33
-1.416489
0
3DFACE
8
0
10
8.408891
20
5.312435
30
-1.407248
11
8.408891
21
5.612435
31
-1.407248
12
8.391602
22
5.612435
32
-1.416489
13
8.391602
23
5.612435
33
-1.416489
0
3DFACE
8
0
10
8.391602
20
5.612435
30
-1.416489
11
8.391602
21
5.312435
31
-1.416489
12
8.408891
22
5.312435
32
-1.407248
13
8.408891
23
5.312435
33
-1.407248
0
3DFACE
8
0
10
8.424045
20
5.312435
30
-1.394812
11
8.424044
21
5.612435
31
-1.394812
12
8.408891
22
5.612435
32
-1.407248
13
8.408891
23
5.612435
33
-1.407248
0
3DFACE
8
0
10
8.408891
20
5.612435
30
-1.407248
11
8.408891
21
5.312435
31
-1.407248
12
8.424045
22
5.312435
32
-1.394812
13
8.424045
23
5.312435
33
-1.394812
0
3DFACE
8
0
10
8.436481
20
5.312435
30
-1.379658
11
8.436481
21
5.612435
31
-1.379658
12
8.424044
22
5.612435
32
-1.394812
13
8.424044
23
5.612435
33
-1.394812
0
3DFACE
8
0
10
8.424044
20
5.612435
30
-1.394812
11
8.424045
21
5.312435
31
-1.394812
12
8.436481
22
5.312435
32
-1.379658
13
8.436481
23
5.312435
33
-1.379658
0
3DFACE
8
0
10
8.445722
20
5.312435
30
-1.362369
11
8.445722
21
5.612435
31
-1.362369
12
8.436481
22
5.612435
32
-1.379658
13
8.436481
23
5.612435
33
-1.379658
0
3DFACE
8
0
10
8.436481
20
5.612435
30
-1.379658
11
8.436481
21
5.312435
31
-1.379658
12
8.445722
22
5.312435
32
-1.362369
13
8.445722
23
5.312435
33
-1.362369
0
3DFACE
8
0
10
8.453234
20
5.612435
30
-1.325111
11
8.453017
21
5.612435
31
-1.327309
12
8.452487
22
5.312435
32
-1.332698
13
8.452487
23
5.312435
33
-1.332698
0
3DFACE
8
0
10
8.452487
20
5.312435
30
-1.332698
11
8.453333
21
5.612435
31
-1.324101
12
8.453234
22
5.612435
32
-1.325111
13
8.453234
23
5.612435
33
-1.325111
0
3DFACE
8
0
10
8.453017
20
5.612435
30
-1.327309
11
8.452761
21
5.612435
31
-1.329914
12
8.452331
22
5.312435
32
-1.334284
13
8.452331
23
5.312435
33
-1.334284
0
3DFACE
8
0
10
8.452331
20
5.312435
30
-1.334284
11
8.452487
21
5.312435
31
-1.332698
12
8.453017
22
5.612435
32
-1.327309
13
8.453017
23
5.612435
33
-1.327309
0
3DFACE
8
0
10
8.452487
20
5.312435
30
-1.332698
11
8.453334
21
5.312435
31
-1.324101
12
8.453333
22
5.612435
32
-1.324101
13
8.453333
23
5.612435
33
-1.324101
0
3DFACE
8
0
10
8.452761
20
5.612435
30
-1.329914
11
8.451412
21
5.612435
31
-1.343610
12
8.451412
22
5.312435
32
-1.343610
13
8.451412
23
5.312435
33
-1.343610
0
3DFACE
8
0
10
8.451412
20
5.312435
30
-1.343610
11
8.452331
21
5.312435
31
-1.334284
12
8.452761
22
5.612435
32
-1.329914
13
8.452761
23
5.612435
33
-1.329914
0
3DFACE
8
0
10
8.449774
20
5.312435
30
-1.349012
11
8.451412
21
5.612435
31
-1.343610
12
8.450663
22
5.612435
32
-1.346079
13
8.450663
23
5.612435
33
-1.346079
0
3DFACE
8
0
10
8.450663
20
5.612435
30
-1.346079
11
8.450583
21
5.612435
31
-1.346342
12
8.449774
22
5.312435
32
-1.349012
13
8.449774
23
5.312435
33
-1.349012
0
3DFACE
8
0
10
8.449774
20
5.612435
30
-1.349012
11
8.445722
21
5.612435
31
-1.362369
12
8.449774
22
5.312435
32
-1.349012
13
8.449774
23
5.312435
33
-1.349012
0
3DFACE
8
0
10
8.449774
20
5.312435
30
-1.349012
11
8.450583
21
5.612435
31
-1.346342
12
8.449774
22
5.612435
32
-1.349012
13
8.449774
23
5.612435
33
-1.349012
0
3DFACE
8
0
10
8.449774
20
5.312435
30
-1.349012
11
8.451412
21
5.312435
31
-1.343610
12
8.451412
22
5.612435
32
-1.343610
13
8.451412
23
5.612435
33
-1.343610
0
3DFACE
8
0
10
8.445722
20
5.612435
30
-1.362369
11
8.445722
21
5.312435
31
-1.362369
12
8.449774
22
5.312435
32
-1.349012
13
8.449774
23
5.312435
33
-1.349012
0
3DFACE
8
0
10
8.020000
20
5.312435
30
-5.574101
11
8.020000
21
5.612435
31
-5.574101
12
8.686666
22
5.612435
32
-5.574101
13
8.686666
23
5.612435
33
-5.574101
0
3DFACE
8
0
10
8.686666
20
5.612435
30
-5.574101
11
8.686666
21
5.312435
31
-5.574101
12
8.020000
22
5.312435
32
-5.574101
13
8.020000
23
5.312435
33
-5.574101
0
3DFACE
8
0
10
8.686666
20
5.612435
30
-5.574101
11
8.020000
21
5.612435
31
-5.574101
12
8.020000
22
5.612435
32
-2.074101
13
8.020000
23
5.612435
33
-2.074101
0
3DFACE
8
0
10
8.020000
20
5.612435
30
-2.074101
11
8.686666
21
5.612435
31
-2.074101
12
8.686666
22
5.612435
32
-5.574101
13
8.686666
23
5.612435
33
-5.574101
0
3DFACE
8
0
10
8.686666
20
5.312435
30
-2.074101
11
8.020000
21
5.312435
31
-2.074101
12
8.020000
22
5.312435
32
-5.574101
13
8.020000
23
5.312435
33
-5.574101
0
3DFACE
8
0
10
8.020000
20
5.312435
30
-5.574101
11
8.686666
21
5.312435
31
-5.574101
12
8.686666
22
5.312435
32
-2.074101
13
8.686666
23
5.312435
33
-2.074101
0
3DFACE
8
0
10
8.020000
20
5.312435
30
-2.074101
11
8.020000
21
5.612435
31
-2.074101
12
8.020000
22
5.612435
32
-5.574101
13
8.020000
23
5.612435
33
-5.574101
0
3DFACE
8
0
10
8.020000
20
5.612435
30
-5.574101
11
8.020000
21
5.312435
31
-5.574101
12
8.020000
22
5.312435
32
-2.074101
13
8.020000
23
5.312435
33
-2.074101
0
ENDSEC
0
EOF
