0
SECTION
2
ENTITIES
0
3DFACE
8
0
10
-7.753334
20
3.437435
30
-0.024101
11
-7.603333
21
3.312435
31
-0.024101
12
-9.103333
22
3.312435
32
-0.024101
13
-9.103333
23
3.312435
33
-0.024101
0
3DFACE
8
0
10
-9.103333
20
3.312435
30
-0.024101
11
-8.953334
21
3.437435
31
-0.024101
12
-7.753334
22
3.437435
32
-0.024101
13
-7.753334
23
3.437435
33
-0.024101
0
3DFACE
8
0
10
-7.753334
20
3.437435
30
-0.024101
11
-7.753334
21
3.812435
31
-0.024101
12
-7.603333
22
3.812435
32
-0.024101
13
-7.603333
23
3.812435
33
-0.024101
0
3DFACE
8
0
10
-7.603333
20
3.812435
30
-0.024101
11
-7.603333
21
3.312435
31
-0.024101
12
-7.753334
22
3.437435
32
-0.024101
13
-7.753334
23
3.437435
33
-0.024101
0
3DFACE
8
0
10
-9.103333
20
3.812435
30
-0.024101
11
-8.953334
21
3.812435
31
-0.024101
12
-8.953334
22
3.437435
32
-0.024101
13
-8.953334
23
3.437435
33
-0.024101
0
3DFACE
8
0
10
-8.953334
20
3.437435
30
-0.024101
11
-9.103333
21
3.312435
31
-0.024101
12
-9.103333
22
3.812435
32
-0.024101
13
-9.103333
23
3.812435
33
-0.024101
0
3DFACE
8
0
10
-7.603333
20
3.312435
30
-1.224101
11
-7.603333
21
3.312435
31
-0.024101
12
-7.603333
22
3.812435
32
-0.024101
13
-7.603333
23
3.812435
33
-0.024101
0
3DFACE
8
0
10
-7.603333
20
3.812435
30
-0.024101
11
-7.603333
21
3.812435
31
-1.224101
12
-7.603333
22
3.312435
32
-1.224101
13
-7.603333
23
3.312435
33
-1.224101
0
3DFACE
8
0
10
-9.103333
20
3.312435
30
-1.224101
11
-7.603333
21
3.312435
31
-1.224101
12
-7.603333
22
3.812435
32
-1.224101
13
-7.603333
23
3.812435
33
-1.224101
0
3DFACE
8
0
10
-7.603333
20
3.812435
30
-1.224101
11
-9.103333
21
3.812435
31
-1.224101
12
-9.103333
22
3.312435
32
-1.224101
13
-9.103333
23
3.312435
33
-1.224101
0
3DFACE
8
0
10
-9.103333
20
3.312435
30
-0.024101
11
-9.103333
21
3.312435
31
-1.224101
12
-9.103333
22
3.812435
32
-1.224101
13
-9.103333
23
3.812435
33
-1.224101
0
3DFACE
8
0
10
-9.103333
20
3.812435
30
-1.224101
11
-9.103333
21
3.812435
31
-0.024101
12
-9.103333
22
3.312435
32
-0.024101
13
-9.103333
23
3.312435
33
-0.024101
0
3DFACE
8
0
10
-8.132717
20
3.312435
30
-0.222585
11
-8.149690
21
3.312435
31
-0.208656
12
-8.166661
22
3.312435
32
-0.194728
13
-8.166661
23
3.312435
33
-0.194728
0
3DFACE
8
0
10
-8.166661
20
3.312435
30
-0.194728
11
-7.603333
21
3.312435
31
-0.024101
12
-8.132717
22
3.312435
32
-0.222585
13
-8.132717
23
3.312435
33
-0.222585
0
3DFACE
8
0
10
-7.603333
20
3.312435
30
-0.024101
11
-8.101817
21
3.312435
31
-0.253486
12
-8.115746
22
3.312435
32
-0.236514
13
-8.115746
23
3.312435
33
-0.236514
0
3DFACE
8
0
10
-8.073959
20
3.312435
30
-0.287430
11
-8.087888
21
3.312435
31
-0.270458
12
-8.101817
22
3.312435
32
-0.253486
13
-8.101817
23
3.312435
33
-0.253486
0
3DFACE
8
0
10
-8.101817
20
3.312435
30
-0.253486
11
-7.603333
21
3.312435
31
-0.024101
12
-8.073959
22
3.312435
32
-0.287430
13
-8.073959
23
3.312435
33
-0.287430
0
3DFACE
8
0
10
-8.023789
20
3.312435
30
-0.408551
11
-8.030163
21
3.312435
31
-0.387541
12
-8.042910
22
3.312435
32
-0.345520
13
-8.042910
23
3.312435
33
-0.345520
0
3DFACE
8
0
10
-8.042910
20
3.312435
30
-0.345520
11
-7.603333
21
3.312435
31
-0.024101
12
-8.023789
22
3.312435
32
-0.408551
13
-8.023789
23
3.312435
33
-0.408551
0
3DFACE
8
0
10
-8.021638
20
3.312435
30
-0.517801
11
-8.019485
21
3.312435
31
-0.495951
12
-8.017334
22
3.312435
32
-0.474101
13
-8.017334
23
3.312435
33
-0.474101
0
3DFACE
8
0
10
-8.017334
20
3.312435
30
-0.474101
11
-7.603333
21
3.312435
31
-0.024101
12
-8.021638
22
3.312435
32
-0.517801
13
-8.021638
23
3.312435
33
-0.517801
0
3DFACE
8
0
10
-7.603333
20
3.312435
30
-0.024101
11
-8.030163
21
3.312435
31
-0.560662
12
-8.023789
22
3.312435
32
-0.539652
13
-8.023789
23
3.312435
33
-0.539652
0
3DFACE
8
0
10
-8.042910
20
3.312435
30
-0.602683
11
-8.036536
21
3.312435
31
-0.581672
12
-8.030163
22
3.312435
32
-0.560662
13
-8.030163
23
3.312435
33
-0.560662
0
3DFACE
8
0
10
-8.030163
20
3.312435
30
-0.560662
11
-7.603333
21
3.312435
31
-0.024101
12
-8.042910
22
3.312435
32
-0.602683
13
-8.042910
23
3.312435
33
-0.602683
0
3DFACE
8
0
10
-7.603333
20
3.312435
30
-0.024101
11
-7.603333
21
3.312435
31
-1.224101
12
-8.073959
22
3.312435
32
-0.660773
13
-8.073959
23
3.312435
33
-0.660773
0
3DFACE
8
0
10
-8.073959
20
3.312435
30
-0.660773
11
-8.063610
21
3.312435
31
-0.641410
12
-7.603333
22
3.312435
32
-0.024101
13
-7.603333
23
3.312435
33
-0.024101
0
3DFACE
8
0
10
-8.166661
20
3.312435
30
-0.194728
11
-8.186025
21
3.312435
31
-0.184378
12
-7.603333
22
3.312435
32
-0.024101
13
-7.603333
23
3.312435
33
-0.024101
0
3DFACE
8
0
10
-7.603333
20
3.312435
30
-1.224101
11
-8.087889
21
3.312435
31
-0.677745
12
-8.073959
22
3.312435
32
-0.660773
13
-8.073959
23
3.312435
33
-0.660773
0
3DFACE
8
0
10
-8.115746
20
3.312435
30
-0.711689
11
-8.101817
21
3.312435
31
-0.694717
12
-8.087889
22
3.312435
32
-0.677745
13
-8.087889
23
3.312435
33
-0.677745
0
3DFACE
8
0
10
-8.087889
20
3.312435
30
-0.677745
11
-7.603333
21
3.312435
31
-1.224101
12
-8.115746
22
3.312435
32
-0.711689
13
-8.115746
23
3.312435
33
-0.711689
0
3DFACE
8
0
10
-7.603333
20
3.312435
30
-1.224101
11
-8.166662
21
3.312435
31
-0.753475
12
-8.149690
22
3.312435
32
-0.739546
13
-8.149690
23
3.312435
33
-0.739546
0
3DFACE
8
0
10
-7.603333
20
3.312435
30
-1.224101
11
-8.186026
21
3.312435
31
-0.763825
12
-8.166662
22
3.312435
32
-0.753475
13
-8.166662
23
3.312435
33
-0.753475
0
3DFACE
8
0
10
-8.224751
20
3.312435
30
-0.784525
11
-8.205388
21
3.312435
31
-0.774175
12
-8.186026
22
3.312435
32
-0.763825
13
-8.186026
23
3.312435
33
-0.763825
0
3DFACE
8
0
10
-8.186026
20
3.312435
30
-0.763825
11
-7.603333
21
3.312435
31
-1.224101
12
-8.224751
22
3.312435
32
-0.784525
13
-8.224751
23
3.312435
33
-0.784525
0
3DFACE
8
0
10
-8.331483
20
3.312435
30
-0.807949
11
-8.309633
21
3.312435
31
-0.805797
12
-8.287783
22
3.312435
32
-0.803645
13
-8.287783
23
3.312435
33
-0.803645
0
3DFACE
8
0
10
-8.287783
20
3.312435
30
-0.803645
11
-7.603333
21
3.312435
31
-1.224101
12
-8.331483
22
3.312435
32
-0.807949
13
-8.331483
23
3.312435
33
-0.807949
0
3DFACE
8
0
10
-7.603333
20
3.312435
30
-1.224101
11
-8.375183
21
3.312435
31
-0.807949
12
-8.353333
22
3.312435
32
-0.810101
13
-8.353333
23
3.312435
33
-0.810101
0
3DFACE
8
0
10
-8.418883
20
3.312435
30
-0.803645
11
-8.397034
21
3.312435
31
-0.805797
12
-8.375183
22
3.312435
32
-0.807949
13
-8.375183
23
3.312435
33
-0.807949
0
3DFACE
8
0
10
-8.375183
20
3.312435
30
-0.807949
11
-7.603333
21
3.312435
31
-1.224101
12
-8.418883
22
3.312435
32
-0.803645
13
-8.418883
23
3.312435
33
-0.803645
0
3DFACE
8
0
10
-8.186025
20
3.312435
30
-0.184378
11
-8.205388
21
3.312435
31
-0.174028
12
-7.603333
22
3.312435
32
-0.024101
13
-7.603333
23
3.312435
33
-0.024101
0
3DFACE
8
0
10
-7.603333
20
3.312435
30
-1.224101
11
-9.103333
21
3.312435
31
-1.224101
12
-8.481915
22
3.312435
32
-0.784525
13
-8.481915
23
3.312435
33
-0.784525
0
3DFACE
8
0
10
-8.481915
20
3.312435
30
-0.784525
11
-8.418883
21
3.312435
31
-0.803645
12
-7.603333
22
3.312435
32
-1.224101
13
-7.603333
23
3.312435
33
-1.224101
0
3DFACE
8
0
10
-9.103333
20
3.312435
30
-1.224101
11
-8.540005
21
3.312435
31
-0.753475
12
-8.520641
22
3.312435
32
-0.763825
13
-8.520641
23
3.312435
33
-0.763825
0
3DFACE
8
0
10
-9.103333
20
3.312435
30
-1.224101
11
-8.556977
21
3.312435
31
-0.739546
12
-8.540005
22
3.312435
32
-0.753475
13
-8.540005
23
3.312435
33
-0.753475
0
3DFACE
8
0
10
-8.590921
20
3.312435
30
-0.711689
11
-8.573949
21
3.312435
31
-0.725618
12
-8.556977
22
3.312435
32
-0.739546
13
-8.556977
23
3.312435
33
-0.739546
0
3DFACE
8
0
10
-8.556977
20
3.312435
30
-0.739546
11
-9.103333
21
3.312435
31
-1.224101
12
-8.590921
22
3.312435
32
-0.711689
13
-8.590921
23
3.312435
33
-0.711689
0
3DFACE
8
0
10
-9.103333
20
3.312435
30
-1.224101
11
-8.643057
21
3.312435
31
-0.641410
12
-8.632708
22
3.312435
32
-0.660773
13
-8.632708
23
3.312435
33
-0.660773
0
3DFACE
8
0
10
-8.663757
20
3.312435
30
-0.602683
11
-8.653407
21
3.312435
31
-0.622046
12
-8.643057
22
3.312435
32
-0.641410
13
-8.643057
23
3.312435
33
-0.641410
0
3DFACE
8
0
10
-8.643057
20
3.312435
30
-0.641410
11
-9.103333
21
3.312435
31
-1.224101
12
-8.663757
22
3.312435
32
-0.602683
13
-8.663757
23
3.312435
33
-0.602683
0
3DFACE
8
0
10
-8.682878
20
3.312435
30
-0.539652
11
-8.676504
21
3.312435
31
-0.560662
12
-8.670131
22
3.312435
32
-0.581672
13
-8.670131
23
3.312435
33
-0.581672
0
3DFACE
8
0
10
-8.670131
20
3.312435
30
-0.581672
11
-9.103333
21
3.312435
31
-1.224101
12
-8.682878
22
3.312435
32
-0.539652
13
-8.682878
23
3.312435
33
-0.539652
0
3DFACE
8
0
10
-8.682878
20
3.312435
30
-0.408551
11
-8.687181
21
3.312435
31
-0.452251
12
-8.689333
22
3.312435
32
-0.474101
13
-8.689333
23
3.312435
33
-0.474101
0
3DFACE
8
0
10
-8.689333
20
3.312435
30
-0.474101
11
-9.103333
21
3.312435
31
-1.224101
12
-8.682878
22
3.312435
32
-0.408551
13
-8.682878
23
3.312435
33
-0.408551
0
3DFACE
8
0
10
-8.205388
20
3.312435
30
-0.174028
11
-8.224751
21
3.312435
31
-0.163678
12
-7.603333
22
3.312435
32
-0.024101
13
-7.603333
23
3.312435
33
-0.024101
0
3DFACE
8
0
10
-9.103333
20
3.312435
30
-1.224101
11
-9.103333
21
3.312435
31
-0.024101
12
-8.663757
22
3.312435
32
-0.345520
13
-8.663757
23
3.312435
33
-0.345520
0
3DFACE
8
0
10
-8.663757
20
3.312435
30
-0.345520
11
-8.682878
21
3.312435
31
-0.408551
12
-9.103333
22
3.312435
32
-1.224101
13
-9.103333
23
3.312435
33
-1.224101
0
3DFACE
8
0
10
-8.632708
20
3.312435
30
-0.287430
11
-8.643057
21
3.312435
31
-0.306793
12
-8.653407
22
3.312435
32
-0.326156
13
-8.653407
23
3.312435
33
-0.326156
0
3DFACE
8
0
10
-8.653407
20
3.312435
30
-0.326156
11
-9.103333
21
3.312435
31
-0.024101
12
-8.632708
22
3.312435
32
-0.287430
13
-8.632708
23
3.312435
33
-0.287430
0
3DFACE
8
0
10
-8.590921
20
3.312435
30
-0.236513
11
-8.604850
21
3.312435
31
-0.253485
12
-8.618778
22
3.312435
32
-0.270457
13
-8.618778
23
3.312435
33
-0.270457
0
3DFACE
8
0
10
-8.618778
20
3.312435
30
-0.270457
11
-9.103333
21
3.312435
31
-0.024101
12
-8.590921
22
3.312435
32
-0.236513
13
-8.590921
23
3.312435
33
-0.236513
0
3DFACE
8
0
10
-9.103333
20
3.312435
30
-0.024101
11
-8.520641
21
3.312435
31
-0.184377
12
-8.540005
22
3.312435
32
-0.194727
13
-8.540005
23
3.312435
33
-0.194727
0
3DFACE
8
0
10
-8.481915
20
3.312435
30
-0.163678
11
-8.501278
21
3.312435
31
-0.174028
12
-8.520641
22
3.312435
32
-0.184377
13
-8.520641
23
3.312435
33
-0.184377
0
3DFACE
8
0
10
-8.520641
20
3.312435
30
-0.184377
11
-9.103333
21
3.312435
31
-0.024101
12
-8.481915
22
3.312435
32
-0.163678
13
-8.481915
23
3.312435
33
-0.163678
0
3DFACE
8
0
10
-8.224751
20
3.312435
30
-0.163678
11
-8.245762
21
3.312435
31
-0.157304
12
-8.266772
22
3.312435
32
-0.150931
13
-8.266772
23
3.312435
33
-0.150931
0
3DFACE
8
0
10
-8.266772
20
3.312435
30
-0.150931
11
-7.603333
21
3.312435
31
-0.024101
12
-8.224751
22
3.312435
32
-0.163678
13
-8.224751
23
3.312435
33
-0.163678
0
3DFACE
8
0
10
-8.418883
20
3.312435
30
-0.144557
11
-8.460904
21
3.312435
31
-0.157304
12
-8.481915
22
3.312435
32
-0.163678
13
-8.481915
23
3.312435
33
-0.163678
0
3DFACE
8
0
10
-8.481915
20
3.312435
30
-0.163678
11
-9.103333
21
3.312435
31
-0.024101
12
-8.418883
22
3.312435
32
-0.144557
13
-8.418883
23
3.312435
33
-0.144557
0
3DFACE
8
0
10
-8.017334
20
3.312435
30
-0.474101
11
-8.021638
21
3.312435
31
-0.430401
12
-8.023789
22
3.312435
32
-0.408551
13
-8.023789
23
3.312435
33
-0.408551
0
3DFACE
8
0
10
-8.023789
20
3.312435
30
-0.408551
11
-7.603333
21
3.312435
31
-0.024101
12
-8.017334
22
3.312435
32
-0.474101
13
-8.017334
23
3.312435
33
-0.474101
0
3DFACE
8
0
10
-8.540005
20
3.312435
30
-0.194727
11
-8.573949
21
3.312435
31
-0.222585
12
-8.590921
22
3.312435
32
-0.236513
13
-8.590921
23
3.312435
33
-0.236513
0
3DFACE
8
0
10
-8.590921
20
3.312435
30
-0.236513
11
-9.103333
21
3.312435
31
-0.024101
12
-8.540005
22
3.312435
32
-0.194727
13
-8.540005
23
3.312435
33
-0.194727
0
3DFACE
8
0
10
-8.287783
20
3.312435
30
-0.144558
11
-8.309633
21
3.312435
31
-0.142406
12
-7.603333
22
3.312435
32
-0.024101
13
-7.603333
23
3.312435
33
-0.024101
0
3DFACE
8
0
10
-8.042910
20
3.312435
30
-0.345520
11
-8.063610
21
3.312435
31
-0.306793
12
-8.073959
22
3.312435
32
-0.287430
13
-8.073959
23
3.312435
33
-0.287430
0
3DFACE
8
0
10
-8.073959
20
3.312435
30
-0.287430
11
-7.603333
21
3.312435
31
-0.024101
12
-8.042910
22
3.312435
32
-0.345520
13
-8.042910
23
3.312435
33
-0.345520
0
3DFACE
8
0
10
-8.670131
20
3.312435
30
-0.366530
11
-8.676504
21
3.312435
31
-0.387540
12
-8.682878
22
3.312435
32
-0.408551
13
-8.682878
23
3.312435
33
-0.408551
0
3DFACE
8
0
10
-8.682878
20
3.312435
30
-0.408551
11
-8.663757
21
3.312435
31
-0.345520
12
-8.670131
22
3.312435
32
-0.366530
13
-8.670131
23
3.312435
33
-0.366530
0
3DFACE
8
0
10
-8.632708
20
3.312435
30
-0.660773
11
-8.604850
21
3.312435
31
-0.694717
12
-8.590921
22
3.312435
32
-0.711689
13
-8.590921
23
3.312435
33
-0.711689
0
3DFACE
8
0
10
-8.590921
20
3.312435
30
-0.711689
11
-9.103333
21
3.312435
31
-1.224101
12
-8.632708
22
3.312435
32
-0.660773
13
-8.632708
23
3.312435
33
-0.660773
0
3DFACE
8
0
10
-8.063610
20
3.312435
30
-0.641410
11
-8.053260
21
3.312435
31
-0.622046
12
-8.042910
22
3.312435
32
-0.602683
13
-8.042910
23
3.312435
33
-0.602683
0
3DFACE
8
0
10
-8.042910
20
3.312435
30
-0.602683
11
-7.603333
21
3.312435
31
-0.024101
12
-8.063610
22
3.312435
32
-0.641410
13
-8.063610
23
3.312435
33
-0.641410
0
3DFACE
8
0
10
-8.149690
20
3.312435
30
-0.739546
11
-8.132718
21
3.312435
31
-0.725618
12
-8.115746
22
3.312435
32
-0.711689
13
-8.115746
23
3.312435
33
-0.711689
0
3DFACE
8
0
10
-8.115746
20
3.312435
30
-0.711689
11
-7.603333
21
3.312435
31
-1.224101
12
-8.149690
22
3.312435
32
-0.739546
13
-8.149690
23
3.312435
33
-0.739546
0
3DFACE
8
0
10
-8.287783
20
3.312435
30
-0.803645
11
-8.245762
21
3.312435
31
-0.790898
12
-8.224751
22
3.312435
32
-0.784525
13
-8.224751
23
3.312435
33
-0.784525
0
3DFACE
8
0
10
-8.224751
20
3.312435
30
-0.784525
11
-7.603333
21
3.312435
31
-1.224101
12
-8.287783
22
3.312435
32
-0.803645
13
-8.287783
23
3.312435
33
-0.803645
0
3DFACE
8
0
10
-7.603333
20
3.312435
30
-0.024101
11
-8.115746
21
3.312435
31
-0.236514
12
-8.132717
22
3.312435
32
-0.222585
13
-8.132717
23
3.312435
33
-0.222585
0
3DFACE
8
0
10
-8.689333
20
3.312435
30
-0.474101
11
-8.685029
21
3.312435
31
-0.517801
12
-8.682878
22
3.312435
32
-0.539652
13
-8.682878
23
3.312435
33
-0.539652
0
3DFACE
8
0
10
-8.682878
20
3.312435
30
-0.539652
11
-9.103333
21
3.312435
31
-1.224101
12
-8.689333
22
3.312435
32
-0.474101
13
-8.689333
23
3.312435
33
-0.474101
0
3DFACE
8
0
10
-9.103333
20
3.312435
30
-0.024101
11
-8.618778
21
3.312435
31
-0.270457
12
-8.632708
22
3.312435
32
-0.287430
13
-8.632708
23
3.312435
33
-0.287430
0
3DFACE
8
0
10
-8.266772
20
3.312435
30
-0.150931
11
-8.287783
21
3.312435
31
-0.144558
12
-7.603333
22
3.312435
32
-0.024101
13
-7.603333
23
3.312435
33
-0.024101
0
3DFACE
8
0
10
-7.603333
20
3.312435
30
-1.224101
11
-8.353333
21
3.312435
31
-0.810101
12
-8.331483
22
3.312435
32
-0.807949
13
-8.331483
23
3.312435
33
-0.807949
0
3DFACE
8
0
10
-8.520641
20
3.312435
30
-0.763825
11
-8.501278
21
3.312435
31
-0.774175
12
-8.481915
22
3.312435
32
-0.784525
13
-8.481915
23
3.312435
33
-0.784525
0
3DFACE
8
0
10
-8.481915
20
3.312435
30
-0.784525
11
-9.103333
21
3.312435
31
-1.224101
12
-8.520641
22
3.312435
32
-0.763825
13
-8.520641
23
3.312435
33
-0.763825
0
3DFACE
8
0
10
-9.103333
20
3.312435
30
-0.024101
11
-8.653407
21
3.312435
31
-0.326156
12
-8.663757
22
3.312435
32
-0.345520
13
-8.663757
23
3.312435
33
-0.345520
0
3DFACE
8
0
10
-9.103333
20
3.312435
30
-1.224101
11
-8.670131
21
3.312435
31
-0.581672
12
-8.663757
22
3.312435
32
-0.602683
13
-8.663757
23
3.312435
33
-0.602683
0
3DFACE
8
0
10
-8.418883
20
3.312435
30
-0.144557
11
-8.439894
21
3.312435
31
-0.150931
12
-8.460904
22
3.312435
32
-0.157304
13
-8.460904
23
3.312435
33
-0.157304
0
3DFACE
8
0
10
-8.689333
20
3.312435
30
-0.474101
11
-8.687181
21
3.312435
31
-0.495951
12
-8.685029
22
3.312435
32
-0.517801
13
-8.685029
23
3.312435
33
-0.517801
0
3DFACE
8
0
10
-8.017334
20
3.312435
30
-0.474101
11
-8.019485
21
3.312435
31
-0.452251
12
-8.021638
22
3.312435
32
-0.430401
13
-8.021638
23
3.312435
33
-0.430401
0
3DFACE
8
0
10
-7.603333
20
3.312435
30
-0.024101
11
-8.023789
21
3.312435
31
-0.539652
12
-8.021638
22
3.312435
32
-0.517801
13
-8.021638
23
3.312435
33
-0.517801
0
3DFACE
8
0
10
-9.103333
20
3.312435
30
-0.024101
11
-8.375183
21
3.312435
31
-0.140253
12
-8.397034
22
3.312435
32
-0.142405
13
-8.397034
23
3.312435
33
-0.142405
0
3DFACE
8
0
10
-8.397034
20
3.312435
30
-0.142405
11
-8.418883
21
3.312435
31
-0.144557
12
-9.103333
22
3.312435
32
-0.024101
13
-9.103333
23
3.312435
33
-0.024101
0
3DFACE
8
0
10
-8.287783
20
3.312435
30
-0.803645
11
-8.266772
21
3.312435
31
-0.797272
12
-8.245762
22
3.312435
32
-0.790898
13
-8.245762
23
3.312435
33
-0.790898
0
3DFACE
8
0
10
-8.042910
20
3.312435
30
-0.345520
11
-8.053260
21
3.312435
31
-0.326157
12
-8.063610
22
3.312435
32
-0.306793
13
-8.063610
23
3.312435
33
-0.306793
0
3DFACE
8
0
10
-8.030163
20
3.312435
30
-0.387541
11
-8.036536
21
3.312435
31
-0.366531
12
-8.042910
22
3.312435
32
-0.345520
13
-8.042910
23
3.312435
33
-0.345520
0
3DFACE
8
0
10
-8.682878
20
3.312435
30
-0.408551
11
-8.685029
21
3.312435
31
-0.430401
12
-8.687181
22
3.312435
32
-0.452251
13
-8.687181
23
3.312435
33
-0.452251
0
3DFACE
8
0
10
-8.481915
20
3.312435
30
-0.784525
11
-8.460904
21
3.312435
31
-0.790898
12
-8.418883
22
3.312435
32
-0.803645
13
-8.418883
23
3.312435
33
-0.803645
0
3DFACE
8
0
10
-8.632708
20
3.312435
30
-0.660773
11
-8.618778
21
3.312435
31
-0.677745
12
-8.604850
22
3.312435
32
-0.694717
13
-8.604850
23
3.312435
33
-0.694717
0
3DFACE
8
0
10
-8.460904
20
3.312435
30
-0.790898
11
-8.439894
21
3.312435
31
-0.797272
12
-8.418883
22
3.312435
32
-0.803645
13
-8.418883
23
3.312435
33
-0.803645
0
3DFACE
8
0
10
-8.540005
20
3.312435
30
-0.194727
11
-8.556977
21
3.312435
31
-0.208656
12
-8.573949
22
3.312435
32
-0.222585
13
-8.573949
23
3.312435
33
-0.222585
0
3DFACE
8
0
10
-8.331483
20
3.312435
30
-0.140253
11
-8.353333
21
3.312435
31
-0.138101
12
-7.603333
22
3.312435
32
-0.024101
13
-7.603333
23
3.312435
33
-0.024101
0
3DFACE
8
0
10
-7.603333
20
3.312435
30
-0.024101
11
-8.309633
21
3.312435
31
-0.142406
12
-8.331483
22
3.312435
32
-0.140253
13
-8.331483
23
3.312435
33
-0.140253
0
3DFACE
8
0
10
-9.103333
20
3.312435
30
-0.024101
11
-7.603333
21
3.312435
31
-0.024101
12
-8.353333
22
3.312435
32
-0.138101
13
-8.353333
23
3.312435
33
-0.138101
0
3DFACE
8
0
10
-8.353333
20
3.312435
30
-0.138101
11
-8.375183
21
3.312435
31
-0.140253
12
-9.103333
22
3.312435
32
-0.024101
13
-9.103333
23
3.312435
33
-0.024101
0
3DFACE
8
0
10
-8.598070
20
3.812435
30
-1.074101
11
-8.953334
21
3.812435
31
-1.074101
12
-9.103333
22
3.812435
32
-1.224101
13
-9.103333
23
3.812435
33
-1.224101
0
3DFACE
8
0
10
-9.103333
20
3.812435
30
-1.224101
11
-7.603333
21
3.812435
31
-1.224101
12
-8.598070
22
3.812435
32
-1.074101
13
-8.598070
23
3.812435
33
-1.074101
0
3DFACE
8
0
10
-7.603333
20
3.812435
30
-1.224101
11
-8.012138
21
3.812435
31
-1.074101
12
-8.046812
22
3.812435
32
-1.074101
13
-8.046812
23
3.812435
33
-1.074101
0
3DFACE
8
0
10
-8.046812
20
3.812435
30
-1.074101
11
-8.108597
21
3.812435
31
-1.074101
12
-7.603333
22
3.812435
32
-1.224101
13
-7.603333
23
3.812435
33
-1.224101
0
3DFACE
8
0
10
-7.603333
20
3.812435
30
-1.224101
11
-8.011177
21
3.812435
31
-1.074101
12
-8.011627
22
3.812435
32
-1.074101
13
-8.011627
23
3.812435
33
-1.074101
0
3DFACE
8
0
10
-8.011627
20
3.812435
30
-1.074101
11
-8.012138
21
3.812435
31
-1.074101
12
-7.603333
22
3.812435
32
-1.224101
13
-7.603333
23
3.812435
33
-1.224101
0
3DFACE
8
0
10
-7.603333
20
3.812435
30
-1.224101
11
-8.008516
21
3.812435
31
-1.074101
12
-8.009970
22
3.812435
32
-1.074101
13
-8.009970
23
3.812435
33
-1.074101
0
3DFACE
8
0
10
-8.009970
20
3.812435
30
-1.074101
11
-8.011177
21
3.812435
31
-1.074101
12
-7.603333
22
3.812435
32
-1.224101
13
-7.603333
23
3.812435
33
-1.224101
0
3DFACE
8
0
10
-7.603333
20
3.812435
30
-1.224101
11
-8.005830
21
3.812435
31
-1.074101
12
-8.007055
22
3.812435
32
-1.074101
13
-8.007055
23
3.812435
33
-1.074101
0
3DFACE
8
0
10
-8.007055
20
3.812435
30
-1.074101
11
-8.008516
21
3.812435
31
-1.074101
12
-7.603333
22
3.812435
32
-1.224101
13
-7.603333
23
3.812435
33
-1.224101
0
3DFACE
8
0
10
-7.603333
20
3.812435
30
-1.224101
11
-7.888876
21
3.812435
31
-1.074101
12
-7.896036
22
3.812435
32
-1.074101
13
-7.896036
23
3.812435
33
-1.074101
0
3DFACE
8
0
10
-7.896036
20
3.812435
30
-1.074101
11
-8.005830
21
3.812435
31
-1.074101
12
-7.603333
22
3.812435
32
-1.224101
13
-7.603333
23
3.812435
33
-1.224101
0
3DFACE
8
0
10
-7.603333
20
3.812435
30
-1.224101
11
-7.871848
21
3.812435
31
-1.074101
12
-7.880340
22
3.812435
32
-1.074101
13
-7.880340
23
3.812435
33
-1.074101
0
3DFACE
8
0
10
-7.880340
20
3.812435
30
-1.074101
11
-7.888876
21
3.812435
31
-1.074101
12
-7.603333
22
3.812435
32
-1.224101
13
-7.603333
23
3.812435
33
-1.224101
0
3DFACE
8
0
10
-7.603333
20
3.812435
30
-1.224101
11
-7.753334
21
3.812435
31
-1.074101
12
-7.871848
22
3.812435
32
-1.074101
13
-7.871848
23
3.812435
33
-1.074101
0
3DFACE
8
0
10
-7.603333
20
3.812435
30
-1.224101
11
-7.603333
21
3.812435
31
-0.024101
12
-7.753334
22
3.812435
32
-0.543332
13
-7.753334
23
3.812435
33
-0.543332
0
3DFACE
8
0
10
-7.753334
20
3.812435
30
-0.543332
11
-7.753334
21
3.812435
31
-1.074101
12
-7.603333
22
3.812435
32
-1.224101
13
-7.603333
23
3.812435
33
-1.224101
0
3DFACE
8
0
10
-8.953334
20
3.812435
30
-0.543332
11
-9.103333
21
3.812435
31
-0.024101
12
-9.103333
22
3.812435
32
-1.224101
13
-9.103333
23
3.812435
33
-1.224101
0
3DFACE
8
0
10
-9.103333
20
3.812435
30
-1.224101
11
-8.953334
21
3.812435
31
-1.074101
12
-8.953334
22
3.812435
32
-0.543332
13
-8.953334
23
3.812435
33
-0.543332
0
3DFACE
8
0
10
-7.603333
20
3.812435
30
-1.224101
11
-8.108597
21
3.812435
31
-1.074101
12
-8.598070
22
3.812435
32
-1.074101
13
-8.598070
23
3.812435
33
-1.074101
0
3DFACE
8
0
10
-7.603333
20
3.812435
30
-0.024101
11
-7.753334
21
3.812435
31
-0.024101
12
-7.753334
22
3.812435
32
-0.543332
13
-7.753334
23
3.812435
33
-0.543332
0
3DFACE
8
0
10
-8.953334
20
3.812435
30
-0.024101
11
-9.103333
21
3.812435
31
-0.024101
12
-8.953334
22
3.812435
32
-0.543332
13
-8.953334
23
3.812435
33
-0.543332
0
3DFACE
8
0
10
-7.753334
20
3.812435
30
-1.074101
11
-7.753334
21
3.812435
31
-0.543332
12
-7.753334
22
3.437435
32
-1.074101
13
-7.753334
23
3.437435
33
-1.074101
0
3DFACE
8
0
10
-7.753334
20
3.437435
30
-0.024101
11
-7.753334
21
3.437435
31
-1.074101
12
-7.753334
22
3.812435
32
-0.543332
13
-7.753334
23
3.812435
33
-0.543332
0
3DFACE
8
0
10
-7.753334
20
3.812435
30
-0.543332
11
-7.753334
21
3.812435
31
-0.024101
12
-7.753334
22
3.437435
32
-0.024101
13
-7.753334
23
3.437435
33
-0.024101
0
3DFACE
8
0
10
-8.012138
20
3.812435
30
-1.074101
11
-8.011627
21
3.812435
31
-1.074101
12
-7.753334
22
3.437435
32
-1.074101
13
-7.753334
23
3.437435
33
-1.074101
0
3DFACE
8
0
10
-8.011177
20
3.812435
30
-1.074101
11
-8.009970
21
3.812435
31
-1.074101
12
-7.753334
22
3.437435
32
-1.074101
13
-7.753334
23
3.437435
33
-1.074101
0
3DFACE
8
0
10
-8.009970
20
3.812435
30
-1.074101
11
-8.008516
21
3.812435
31
-1.074101
12
-7.753334
22
3.437435
32
-1.074101
13
-7.753334
23
3.437435
33
-1.074101
0
3DFACE
8
0
10
-8.008516
20
3.812435
30
-1.074101
11
-8.007055
21
3.812435
31
-1.074101
12
-7.753334
22
3.437435
32
-1.074101
13
-7.753334
23
3.437435
33
-1.074101
0
3DFACE
8
0
10
-8.007055
20
3.812435
30
-1.074101
11
-8.005830
21
3.812435
31
-1.074101
12
-7.753334
22
3.437435
32
-1.074101
13
-7.753334
23
3.437435
33
-1.074101
0
3DFACE
8
0
10
-8.005830
20
3.812435
30
-1.074101
11
-7.896036
21
3.812435
31
-1.074101
12
-7.753334
22
3.437435
32
-1.074101
13
-7.753334
23
3.437435
33
-1.074101
0
3DFACE
8
0
10
-7.896036
20
3.812435
30
-1.074101
11
-7.888876
21
3.812435
31
-1.074101
12
-7.753334
22
3.437435
32
-1.074101
13
-7.753334
23
3.437435
33
-1.074101
0
3DFACE
8
0
10
-7.888876
20
3.812435
30
-1.074101
11
-7.880340
21
3.812435
31
-1.074101
12
-7.753334
22
3.437435
32
-1.074101
13
-7.753334
23
3.437435
33
-1.074101
0
3DFACE
8
0
10
-7.880340
20
3.812435
30
-1.074101
11
-7.871848
21
3.812435
31
-1.074101
12
-7.753334
22
3.437435
32
-1.074101
13
-7.753334
23
3.437435
33
-1.074101
0
3DFACE
8
0
10
-8.011627
20
3.812435
30
-1.074101
11
-8.011177
21
3.812435
31
-1.074101
12
-7.753334
22
3.437435
32
-1.074101
13
-7.753334
23
3.437435
33
-1.074101
0
3DFACE
8
0
10
-8.046812
20
3.812435
30
-1.074101
11
-8.012138
21
3.812435
31
-1.074101
12
-7.753334
22
3.437435
32
-1.074101
13
-7.753334
23
3.437435
33
-1.074101
0
3DFACE
8
0
10
-8.108597
20
3.812435
30
-1.074101
11
-8.046812
21
3.812435
31
-1.074101
12
-7.753334
22
3.437435
32
-1.074101
13
-7.753334
23
3.437435
33
-1.074101
0
3DFACE
8
0
10
-8.108597
20
3.812435
30
-1.074101
11
-7.753334
21
3.437435
31
-1.074101
12
-8.953334
22
3.437435
32
-1.074101
13
-8.953334
23
3.437435
33
-1.074101
0
3DFACE
8
0
10
-8.953334
20
3.437435
30
-1.074101
11
-8.598070
21
3.812435
31
-1.074101
12
-8.108597
22
3.812435
32
-1.074101
13
-8.108597
23
3.812435
33
-1.074101
0
3DFACE
8
0
10
-8.953334
20
3.812435
30
-1.074101
11
-8.598070
21
3.812435
31
-1.074101
12
-8.953334
22
3.437435
32
-1.074101
13
-8.953334
23
3.437435
33
-1.074101
0
3DFACE
8
0
10
-7.871848
20
3.812435
30
-1.074101
11
-7.753334
21
3.812435
31
-1.074101
12
-7.753334
22
3.437435
32
-1.074101
13
-7.753334
23
3.437435
33
-1.074101
0
3DFACE
8
0
10
-8.953334
20
3.812435
30
-0.543332
11
-8.953334
21
3.812435
31
-1.074101
12
-8.953334
22
3.437435
32
-1.074101
13
-8.953334
23
3.437435
33
-1.074101
0
3DFACE
8
0
10
-8.953334
20
3.437435
30
-0.024101
11
-8.953334
21
3.812435
31
-0.024101
12
-8.953334
22
3.812435
32
-0.543332
13
-8.953334
23
3.812435
33
-0.543332
0
3DFACE
8
0
10
-8.953334
20
3.812435
30
-0.543332
11
-8.953334
21
3.437435
31
-1.074101
12
-8.953334
22
3.437435
32
-0.024101
13
-8.953334
23
3.437435
33
-0.024101
0
3DFACE
8
0
10
-7.753334
20
3.437435
30
-0.024101
11
-8.953334
21
3.437435
31
-0.024101
12
-8.953334
22
3.437435
32
-1.074101
13
-8.953334
23
3.437435
33
-1.074101
0
3DFACE
8
0
10
-8.953334
20
3.437435
30
-1.074101
11
-7.753334
21
3.437435
31
-1.074101
12
-7.753334
22
3.437435
32
-0.024101
13
-7.753334
23
3.437435
33
-0.024101
0
3DFACE
8
0
10
-8.023789
20
3.064435
30
-0.539652
11
-8.021638
21
3.064435
31
-0.517801
12
-8.021638
22
3.312435
32
-0.517801
13
-8.021638
23
3.312435
33
-0.517801
0
3DFACE
8
0
10
-8.021638
20
3.312435
30
-0.517801
11
-8.023789
21
3.312435
31
-0.539652
12
-8.023789
22
3.064435
32
-0.539652
13
-8.023789
23
3.064435
33
-0.539652
0
3DFACE
8
0
10
-8.042910
20
3.064435
30
-0.602683
11
-8.036536
21
3.064435
31
-0.581672
12
-8.036536
22
3.312435
32
-0.581672
13
-8.036536
23
3.312435
33
-0.581672
0
3DFACE
8
0
10
-8.036536
20
3.312435
30
-0.581672
11
-8.042910
21
3.312435
31
-0.602683
12
-8.042910
22
3.064435
32
-0.602683
13
-8.042910
23
3.064435
33
-0.602683
0
3DFACE
8
0
10
-8.073959
20
3.064435
30
-0.660773
11
-8.063610
21
3.064435
31
-0.641410
12
-8.063610
22
3.312435
32
-0.641410
13
-8.063610
23
3.312435
33
-0.641410
0
3DFACE
8
0
10
-8.063610
20
3.312435
30
-0.641410
11
-8.073959
21
3.312435
31
-0.660773
12
-8.073959
22
3.064435
32
-0.660773
13
-8.073959
23
3.064435
33
-0.660773
0
3DFACE
8
0
10
-8.115746
20
3.064435
30
-0.711689
11
-8.101817
21
3.064435
31
-0.694717
12
-8.101817
22
3.312435
32
-0.694717
13
-8.101817
23
3.312435
33
-0.694717
0
3DFACE
8
0
10
-8.101817
20
3.312435
30
-0.694717
11
-8.115746
21
3.312435
31
-0.711689
12
-8.115746
22
3.064435
32
-0.711689
13
-8.115746
23
3.064435
33
-0.711689
0
3DFACE
8
0
10
-8.166662
20
3.312435
30
-0.753475
11
-8.166662
21
3.064435
31
-0.753475
12
-8.149690
22
3.064435
32
-0.739546
13
-8.149690
23
3.064435
33
-0.739546
0
3DFACE
8
0
10
-8.149690
20
3.064435
30
-0.739546
11
-8.149690
21
3.312435
31
-0.739546
12
-8.166662
22
3.312435
32
-0.753475
13
-8.166662
23
3.312435
33
-0.753475
0
3DFACE
8
0
10
-8.224751
20
3.312435
30
-0.784525
11
-8.224751
21
3.064435
31
-0.784525
12
-8.205388
22
3.064435
32
-0.774175
13
-8.205388
23
3.064435
33
-0.774175
0
3DFACE
8
0
10
-8.205388
20
3.064435
30
-0.774175
11
-8.205388
21
3.312435
31
-0.774175
12
-8.224751
22
3.312435
32
-0.784525
13
-8.224751
23
3.312435
33
-0.784525
0
3DFACE
8
0
10
-8.287783
20
3.312435
30
-0.803645
11
-8.287783
21
3.064435
31
-0.803645
12
-8.266772
22
3.064435
32
-0.797272
13
-8.266772
23
3.064435
33
-0.797272
0
3DFACE
8
0
10
-8.266772
20
3.064435
30
-0.797272
11
-8.266772
21
3.312435
31
-0.797272
12
-8.287783
22
3.312435
32
-0.803645
13
-8.287783
23
3.312435
33
-0.803645
0
3DFACE
8
0
10
-8.353333
20
3.312435
30
-0.810101
11
-8.353333
21
3.064435
31
-0.810101
12
-8.331483
22
3.064435
32
-0.807949
13
-8.331483
23
3.064435
33
-0.807949
0
3DFACE
8
0
10
-8.331483
20
3.064435
30
-0.807949
11
-8.331483
21
3.312435
31
-0.807949
12
-8.353333
22
3.312435
32
-0.810101
13
-8.353333
23
3.312435
33
-0.810101
0
3DFACE
8
0
10
-8.418883
20
3.064435
30
-0.803645
11
-8.397034
21
3.064435
31
-0.805797
12
-8.397034
22
3.312435
32
-0.805797
13
-8.397034
23
3.312435
33
-0.805797
0
3DFACE
8
0
10
-8.397034
20
3.312435
30
-0.805797
11
-8.418883
21
3.312435
31
-0.803645
12
-8.418883
22
3.064435
32
-0.803645
13
-8.418883
23
3.064435
33
-0.803645
0
3DFACE
8
0
10
-8.481915
20
3.064435
30
-0.784525
11
-8.460904
21
3.064435
31
-0.790898
12
-8.460904
22
3.312435
32
-0.790898
13
-8.460904
23
3.312435
33
-0.790898
0
3DFACE
8
0
10
-8.460904
20
3.312435
30
-0.790898
11
-8.481915
21
3.312435
31
-0.784525
12
-8.481915
22
3.064435
32
-0.784525
13
-8.481915
23
3.064435
33
-0.784525
0
3DFACE
8
0
10
-8.540005
20
3.064435
30
-0.753475
11
-8.520641
21
3.064435
31
-0.763825
12
-8.520641
22
3.312435
32
-0.763825
13
-8.520641
23
3.312435
33
-0.763825
0
3DFACE
8
0
10
-8.520641
20
3.312435
30
-0.763825
11
-8.540005
21
3.312435
31
-0.753475
12
-8.540005
22
3.064435
32
-0.753475
13
-8.540005
23
3.064435
33
-0.753475
0
3DFACE
8
0
10
-8.590921
20
3.064435
30
-0.711689
11
-8.573949
21
3.064435
31
-0.725618
12
-8.573949
22
3.312435
32
-0.725618
13
-8.573949
23
3.312435
33
-0.725618
0
3DFACE
8
0
10
-8.573949
20
3.312435
30
-0.725618
11
-8.590921
21
3.312435
31
-0.711689
12
-8.590921
22
3.064435
32
-0.711689
13
-8.590921
23
3.064435
33
-0.711689
0
3DFACE
8
0
10
-8.632708
20
3.064435
30
-0.660773
11
-8.618778
21
3.064435
31
-0.677745
12
-8.618778
22
3.312435
32
-0.677745
13
-8.618778
23
3.312435
33
-0.677745
0
3DFACE
8
0
10
-8.618778
20
3.312435
30
-0.677745
11
-8.632708
21
3.312435
31
-0.660773
12
-8.632708
22
3.064435
32
-0.660773
13
-8.632708
23
3.064435
33
-0.660773
0
3DFACE
8
0
10
-8.663757
20
3.064435
30
-0.602683
11
-8.653407
21
3.064435
31
-0.622046
12
-8.653407
22
3.312435
32
-0.622046
13
-8.653407
23
3.312435
33
-0.622046
0
3DFACE
8
0
10
-8.653407
20
3.312435
30
-0.622046
11
-8.663757
21
3.312435
31
-0.602683
12
-8.663757
22
3.064435
32
-0.602683
13
-8.663757
23
3.064435
33
-0.602683
0
3DFACE
8
0
10
-8.682878
20
3.064435
30
-0.539652
11
-8.676504
21
3.064435
31
-0.560662
12
-8.676504
22
3.312435
32
-0.560662
13
-8.676504
23
3.312435
33
-0.560662
0
3DFACE
8
0
10
-8.676504
20
3.312435
30
-0.560662
11
-8.682878
21
3.312435
31
-0.539652
12
-8.682878
22
3.064435
32
-0.539652
13
-8.682878
23
3.064435
33
-0.539652
0
3DFACE
8
0
10
-8.689333
20
3.064435
30
-0.474101
11
-8.687181
21
3.064435
31
-0.495951
12
-8.687181
22
3.312435
32
-0.495951
13
-8.687181
23
3.312435
33
-0.495951
0
3DFACE
8
0
10
-8.687181
20
3.312435
30
-0.495951
11
-8.689333
21
3.312435
31
-0.474101
12
-8.689333
22
3.064435
32
-0.474101
13
-8.689333
23
3.064435
33
-0.474101
0
3DFACE
8
0
10
-8.682878
20
3.064435
30
-0.408551
11
-8.685029
21
3.064435
31
-0.430401
12
-8.685029
22
3.312435
32
-0.430401
13
-8.685029
23
3.312435
33
-0.430401
0
3DFACE
8
0
10
-8.685029
20
3.312435
30
-0.430401
11
-8.682878
21
3.312435
31
-0.408551
12
-8.682878
22
3.064435
32
-0.408551
13
-8.682878
23
3.064435
33
-0.408551
0
3DFACE
8
0
10
-8.663757
20
3.064435
30
-0.345520
11
-8.670131
21
3.064435
31
-0.366530
12
-8.670131
22
3.312435
32
-0.366530
13
-8.670131
23
3.312435
33
-0.366530
0
3DFACE
8
0
10
-8.670131
20
3.312435
30
-0.366530
11
-8.663757
21
3.312435
31
-0.345520
12
-8.663757
22
3.064435
32
-0.345520
13
-8.663757
23
3.064435
33
-0.345520
0
3DFACE
8
0
10
-8.632707
20
3.064435
30
-0.287430
11
-8.643057
21
3.064435
31
-0.306793
12
-8.643057
22
3.312435
32
-0.306793
13
-8.643057
23
3.312435
33
-0.306793
0
3DFACE
8
0
10
-8.643057
20
3.312435
30
-0.306793
11
-8.632708
21
3.312435
31
-0.287430
12
-8.632707
22
3.064435
32
-0.287430
13
-8.632707
23
3.064435
33
-0.287430
0
3DFACE
8
0
10
-8.590921
20
3.064435
30
-0.236513
11
-8.604850
21
3.064435
31
-0.253485
12
-8.604850
22
3.312435
32
-0.253485
13
-8.604850
23
3.312435
33
-0.253485
0
3DFACE
8
0
10
-8.604850
20
3.312435
30
-0.253485
11
-8.590921
21
3.312435
31
-0.236513
12
-8.590921
22
3.064435
32
-0.236513
13
-8.590921
23
3.064435
33
-0.236513
0
3DFACE
8
0
10
-8.540005
20
3.312435
30
-0.194727
11
-8.540005
21
3.064435
31
-0.194727
12
-8.556977
22
3.064435
32
-0.208656
13
-8.556977
23
3.064435
33
-0.208656
0
3DFACE
8
0
10
-8.556977
20
3.064435
30
-0.208656
11
-8.556977
21
3.312435
31
-0.208656
12
-8.540005
22
3.312435
32
-0.194727
13
-8.540005
23
3.312435
33
-0.194727
0
3DFACE
8
0
10
-8.481915
20
3.312435
30
-0.163678
11
-8.481915
21
3.064435
31
-0.163678
12
-8.501278
22
3.064435
32
-0.174028
13
-8.501278
23
3.064435
33
-0.174028
0
3DFACE
8
0
10
-8.501278
20
3.064435
30
-0.174028
11
-8.501278
21
3.312435
31
-0.174028
12
-8.481915
22
3.312435
32
-0.163678
13
-8.481915
23
3.312435
33
-0.163678
0
3DFACE
8
0
10
-8.418883
20
3.312435
30
-0.144557
11
-8.418883
21
3.064435
31
-0.144557
12
-8.439894
22
3.064435
32
-0.150931
13
-8.439894
23
3.064435
33
-0.150931
0
3DFACE
8
0
10
-8.439894
20
3.064435
30
-0.150931
11
-8.439894
21
3.312435
31
-0.150931
12
-8.418883
22
3.312435
32
-0.144557
13
-8.418883
23
3.312435
33
-0.144557
0
3DFACE
8
0
10
-8.353333
20
3.312435
30
-0.138101
11
-8.353333
21
3.064435
31
-0.138101
12
-8.375183
22
3.064435
32
-0.140253
13
-8.375183
23
3.064435
33
-0.140253
0
3DFACE
8
0
10
-8.375183
20
3.064435
30
-0.140253
11
-8.375183
21
3.312435
31
-0.140253
12
-8.353333
22
3.312435
32
-0.138101
13
-8.353333
23
3.312435
33
-0.138101
0
3DFACE
8
0
10
-8.287783
20
3.064435
30
-0.144558
11
-8.309633
21
3.064435
31
-0.142406
12
-8.309633
22
3.312435
32
-0.142406
13
-8.309633
23
3.312435
33
-0.142406
0
3DFACE
8
0
10
-8.309633
20
3.312435
30
-0.142406
11
-8.287783
21
3.312435
31
-0.144558
12
-8.287783
22
3.064435
32
-0.144558
13
-8.287783
23
3.064435
33
-0.144558
0
3DFACE
8
0
10
-8.224751
20
3.064435
30
-0.163678
11
-8.245762
21
3.064435
31
-0.157304
12
-8.245762
22
3.312435
32
-0.157304
13
-8.245762
23
3.312435
33
-0.157304
0
3DFACE
8
0
10
-8.245762
20
3.312435
30
-0.157304
11
-8.224751
21
3.312435
31
-0.163678
12
-8.224751
22
3.064435
32
-0.163678
13
-8.224751
23
3.064435
33
-0.163678
0
3DFACE
8
0
10
-8.166661
20
3.064435
30
-0.194728
11
-8.186025
21
3.064435
31
-0.184378
12
-8.186025
22
3.312435
32
-0.184378
13
-8.186025
23
3.312435
33
-0.184378
0
3DFACE
8
0
10
-8.186025
20
3.312435
30
-0.184378
11
-8.166661
21
3.312435
31
-0.194728
12
-8.166661
22
3.064435
32
-0.194728
13
-8.166661
23
3.064435
33
-0.194728
0
3DFACE
8
0
10
-8.115746
20
3.064435
30
-0.236514
11
-8.132717
21
3.064435
31
-0.222585
12
-8.132717
22
3.312435
32
-0.222585
13
-8.132717
23
3.312435
33
-0.222585
0
3DFACE
8
0
10
-8.132717
20
3.312435
30
-0.222585
11
-8.115746
21
3.312435
31
-0.236514
12
-8.115746
22
3.064435
32
-0.236514
13
-8.115746
23
3.064435
33
-0.236514
0
3DFACE
8
0
10
-8.073959
20
3.064435
30
-0.287430
11
-8.087888
21
3.064435
31
-0.270458
12
-8.087888
22
3.312435
32
-0.270458
13
-8.087888
23
3.312435
33
-0.270458
0
3DFACE
8
0
10
-8.087888
20
3.312435
30
-0.270458
11
-8.073959
21
3.312435
31
-0.287430
12
-8.073959
22
3.064435
32
-0.287430
13
-8.073959
23
3.064435
33
-0.287430
0
3DFACE
8
0
10
-8.042910
20
3.064435
30
-0.345520
11
-8.053260
21
3.064435
31
-0.326157
12
-8.053260
22
3.312435
32
-0.326157
13
-8.053260
23
3.312435
33
-0.326157
0
3DFACE
8
0
10
-8.053260
20
3.312435
30
-0.326157
11
-8.042910
21
3.312435
31
-0.345520
12
-8.042910
22
3.064435
32
-0.345520
13
-8.042910
23
3.064435
33
-0.345520
0
3DFACE
8
0
10
-8.017334
20
3.064435
30
-0.474101
11
-8.019485
21
3.064435
31
-0.452251
12
-8.019485
22
3.312435
32
-0.452251
13
-8.019485
23
3.312435
33
-0.452251
0
3DFACE
8
0
10
-8.019485
20
3.312435
30
-0.452251
11
-8.017334
21
3.312435
31
-0.474101
12
-8.017334
22
3.064435
32
-0.474101
13
-8.017334
23
3.064435
33
-0.474101
0
3DFACE
8
0
10
-8.023789
20
3.312435
30
-0.408551
11
-8.023789
21
3.064435
31
-0.408551
12
-8.030163
22
3.064435
32
-0.387541
13
-8.030163
23
3.064435
33
-0.387541
0
3DFACE
8
0
10
-8.030163
20
3.064435
30
-0.387541
11
-8.030163
21
3.312435
31
-0.387541
12
-8.023789
22
3.312435
32
-0.408551
13
-8.023789
23
3.312435
33
-0.408551
0
3DFACE
8
0
10
-8.118134
20
2.920435
30
-0.474101
11
-8.119640
21
2.920435
31
-0.489396
12
-8.119640
22
2.920435
32
-0.458806
13
-8.119640
23
2.920435
33
-0.458806
0
3DFACE
8
0
10
-8.119640
20
2.920435
30
-0.489396
11
-8.121146
21
2.920435
31
-0.443511
12
-8.119640
22
2.920435
32
-0.458806
13
-8.119640
23
2.920435
33
-0.458806
0
3DFACE
8
0
10
-8.119640
20
2.920435
30
-0.489396
11
-8.121146
21
2.920435
31
-0.504691
12
-8.121146
22
2.920435
32
-0.443511
13
-8.121146
23
2.920435
33
-0.443511
0
3DFACE
8
0
10
-8.121146
20
2.920435
30
-0.504691
11
-8.122653
21
2.920435
31
-0.428216
12
-8.121146
22
2.920435
32
-0.443511
13
-8.121146
23
2.920435
33
-0.443511
0
3DFACE
8
0
10
-8.121146
20
2.920435
30
-0.504691
11
-8.122653
21
2.920435
31
-0.519987
12
-8.122653
22
2.920435
32
-0.428216
13
-8.122653
23
2.920435
33
-0.428216
0
3DFACE
8
0
10
-8.122653
20
2.920435
30
-0.519987
11
-8.127114
21
2.920435
31
-0.413509
12
-8.122653
22
2.920435
32
-0.428216
13
-8.122653
23
2.920435
33
-0.428216
0
3DFACE
8
0
10
-8.122653
20
2.920435
30
-0.519987
11
-8.127114
21
2.920435
31
-0.534694
12
-8.127114
22
2.920435
32
-0.413509
13
-8.127114
23
2.920435
33
-0.413509
0
3DFACE
8
0
10
-8.127114
20
2.920435
30
-0.534694
11
-8.131576
21
2.920435
31
-0.398802
12
-8.127114
22
2.920435
32
-0.413509
13
-8.127114
23
2.920435
33
-0.413509
0
3DFACE
8
0
10
-8.127114
20
2.920435
30
-0.534694
11
-8.131576
21
2.920435
31
-0.549401
12
-8.131576
22
2.920435
32
-0.398802
13
-8.131576
23
2.920435
33
-0.398802
0
3DFACE
8
0
10
-8.131576
20
2.920435
30
-0.549401
11
-8.136037
21
2.920435
31
-0.384094
12
-8.131576
22
2.920435
32
-0.398802
13
-8.131576
23
2.920435
33
-0.398802
0
3DFACE
8
0
10
-8.131576
20
2.920435
30
-0.549401
11
-8.136037
21
2.920435
31
-0.564108
12
-8.136037
22
2.920435
32
-0.384094
13
-8.136037
23
2.920435
33
-0.384094
0
3DFACE
8
0
10
-8.136037
20
2.920435
30
-0.564108
11
-8.143282
21
2.920435
31
-0.370540
12
-8.136037
22
2.920435
32
-0.384094
13
-8.136037
23
2.920435
33
-0.384094
0
3DFACE
8
0
10
-8.136037
20
2.920435
30
-0.564108
11
-8.143282
21
2.920435
31
-0.577663
12
-8.143282
22
2.920435
32
-0.370540
13
-8.143282
23
2.920435
33
-0.370540
0
3DFACE
8
0
10
-8.143282
20
2.920435
30
-0.577663
11
-8.150527
21
2.920435
31
-0.356986
12
-8.143282
22
2.920435
32
-0.370540
13
-8.143282
23
2.920435
33
-0.370540
0
3DFACE
8
0
10
-8.143282
20
2.920435
30
-0.577663
11
-8.150527
21
2.920435
31
-0.591217
12
-8.150527
22
2.920435
32
-0.356986
13
-8.150527
23
2.920435
33
-0.356986
0
3DFACE
8
0
10
-8.150527
20
2.920435
30
-0.591217
11
-8.157772
21
2.920435
31
-0.343431
12
-8.150527
22
2.920435
32
-0.356986
13
-8.150527
23
2.920435
33
-0.356986
0
3DFACE
8
0
10
-8.150527
20
2.920435
30
-0.591217
11
-8.157772
21
2.920435
31
-0.604771
12
-8.157772
22
2.920435
32
-0.343431
13
-8.157772
23
2.920435
33
-0.343431
0
3DFACE
8
0
10
-8.157772
20
2.920435
30
-0.604771
11
-8.167521
21
2.920435
31
-0.331551
12
-8.157772
22
2.920435
32
-0.343431
13
-8.157772
23
2.920435
33
-0.343431
0
3DFACE
8
0
10
-8.157772
20
2.920435
30
-0.604771
11
-8.167521
21
2.920435
31
-0.616652
12
-8.167521
22
2.920435
32
-0.331551
13
-8.167521
23
2.920435
33
-0.331551
0
3DFACE
8
0
10
-8.167521
20
2.920435
30
-0.616652
11
-8.177272
21
2.920435
31
-0.319671
12
-8.167521
22
2.920435
32
-0.331551
13
-8.167521
23
2.920435
33
-0.331551
0
3DFACE
8
0
10
-8.167521
20
2.920435
30
-0.616652
11
-8.177272
21
2.920435
31
-0.628532
12
-8.177272
22
2.920435
32
-0.319671
13
-8.177272
23
2.920435
33
-0.319671
0
3DFACE
8
0
10
-8.177272
20
2.920435
30
-0.628532
11
-8.187021
21
2.920435
31
-0.307790
12
-8.177272
22
2.920435
32
-0.319671
13
-8.177272
23
2.920435
33
-0.319671
0
3DFACE
8
0
10
-8.177272
20
2.920435
30
-0.628532
11
-8.187022
21
2.920435
31
-0.640413
12
-8.187021
22
2.920435
32
-0.307790
13
-8.187021
23
2.920435
33
-0.307790
0
3DFACE
8
0
10
-8.187022
20
2.920435
30
-0.640413
11
-8.198902
21
2.920435
31
-0.298040
12
-8.187021
22
2.920435
32
-0.307790
13
-8.187021
23
2.920435
33
-0.307790
0
3DFACE
8
0
10
-8.187022
20
2.920435
30
-0.640413
11
-8.198902
21
2.920435
31
-0.650163
12
-8.198902
22
2.920435
32
-0.298040
13
-8.198902
23
2.920435
33
-0.298040
0
3DFACE
8
0
10
-8.198902
20
2.920435
30
-0.650163
11
-8.210783
21
2.920435
31
-0.288290
12
-8.198902
22
2.920435
32
-0.298040
13
-8.198902
23
2.920435
33
-0.298040
0
3DFACE
8
0
10
-8.198902
20
2.920435
30
-0.650163
11
-8.210783
21
2.920435
31
-0.659913
12
-8.210783
22
2.920435
32
-0.288290
13
-8.210783
23
2.920435
33
-0.288290
0
3DFACE
8
0
10
-8.210783
20
2.920435
30
-0.659913
11
-8.222663
21
2.920435
31
-0.278540
12
-8.210783
22
2.920435
32
-0.288290
13
-8.210783
23
2.920435
33
-0.288290
0
3DFACE
8
0
10
-8.210783
20
2.920435
30
-0.659913
11
-8.222663
21
2.920435
31
-0.669663
12
-8.222663
22
2.920435
32
-0.278540
13
-8.222663
23
2.920435
33
-0.278540
0
3DFACE
8
0
10
-8.222663
20
2.920435
30
-0.669663
11
-8.236217
21
2.920435
31
-0.271295
12
-8.222663
22
2.920435
32
-0.278540
13
-8.222663
23
2.920435
33
-0.278540
0
3DFACE
8
0
10
-8.222663
20
2.920435
30
-0.669663
11
-8.236217
21
2.920435
31
-0.676908
12
-8.236217
22
2.920435
32
-0.271295
13
-8.236217
23
2.920435
33
-0.271295
0
3DFACE
8
0
10
-8.236217
20
2.920435
30
-0.676908
11
-8.249772
21
2.920435
31
-0.264050
12
-8.236217
22
2.920435
32
-0.271295
13
-8.236217
23
2.920435
33
-0.271295
0
3DFACE
8
0
10
-8.236217
20
2.920435
30
-0.676908
11
-8.249772
21
2.920435
31
-0.684153
12
-8.249772
22
2.920435
32
-0.264050
13
-8.249772
23
2.920435
33
-0.264050
0
3DFACE
8
0
10
-8.249772
20
2.920435
30
-0.684153
11
-8.263326
21
2.920435
31
-0.256805
12
-8.249772
22
2.920435
32
-0.264050
13
-8.249772
23
2.920435
33
-0.264050
0
3DFACE
8
0
10
-8.249772
20
2.920435
30
-0.684153
11
-8.263327
21
2.920435
31
-0.691398
12
-8.263326
22
2.920435
32
-0.256805
13
-8.263326
23
2.920435
33
-0.256805
0
3DFACE
8
0
10
-8.263327
20
2.920435
30
-0.691398
11
-8.278033
21
2.920435
31
-0.252344
12
-8.263326
22
2.920435
32
-0.256805
13
-8.263326
23
2.920435
33
-0.256805
0
3DFACE
8
0
10
-8.263327
20
2.920435
30
-0.691398
11
-8.278033
21
2.920435
31
-0.695859
12
-8.278033
22
2.920435
32
-0.252344
13
-8.278033
23
2.920435
33
-0.252344
0
3DFACE
8
0
10
-8.278033
20
2.920435
30
-0.695859
11
-8.292741
21
2.920435
31
-0.247882
12
-8.278033
22
2.920435
32
-0.252344
13
-8.278033
23
2.920435
33
-0.252344
0
3DFACE
8
0
10
-8.278033
20
2.920435
30
-0.695859
11
-8.292741
21
2.920435
31
-0.700320
12
-8.292741
22
2.920435
32
-0.247882
13
-8.292741
23
2.920435
33
-0.247882
0
3DFACE
8
0
10
-8.292741
20
2.920435
30
-0.700320
11
-8.307448
21
2.920435
31
-0.243421
12
-8.292741
22
2.920435
32
-0.247882
13
-8.292741
23
2.920435
33
-0.247882
0
3DFACE
8
0
10
-8.292741
20
2.920435
30
-0.700320
11
-8.307448
21
2.920435
31
-0.704782
12
-8.307448
22
2.920435
32
-0.243421
13
-8.307448
23
2.920435
33
-0.243421
0
3DFACE
8
0
10
-8.307448
20
2.920435
30
-0.704782
11
-8.322743
21
2.920435
31
-0.241914
12
-8.307448
22
2.920435
32
-0.243421
13
-8.307448
23
2.920435
33
-0.243421
0
3DFACE
8
0
10
-8.307448
20
2.920435
30
-0.704782
11
-8.322743
21
2.920435
31
-0.706288
12
-8.322743
22
2.920435
32
-0.241914
13
-8.322743
23
2.920435
33
-0.241914
0
3DFACE
8
0
10
-8.322743
20
2.920435
30
-0.706288
11
-8.338038
21
2.920435
31
-0.240408
12
-8.322743
22
2.920435
32
-0.241914
13
-8.322743
23
2.920435
33
-0.241914
0
3DFACE
8
0
10
-8.322743
20
2.920435
30
-0.706288
11
-8.338038
21
2.920435
31
-0.707795
12
-8.338038
22
2.920435
32
-0.240408
13
-8.338038
23
2.920435
33
-0.240408
0
3DFACE
8
0
10
-8.338038
20
2.920435
30
-0.707795
11
-8.353333
21
2.920435
31
-0.238901
12
-8.338038
22
2.920435
32
-0.240408
13
-8.338038
23
2.920435
33
-0.240408
0
3DFACE
8
0
10
-8.338038
20
2.920435
30
-0.707795
11
-8.353333
21
2.920435
31
-0.709301
12
-8.353333
22
2.920435
32
-0.238901
13
-8.353333
23
2.920435
33
-0.238901
0
3DFACE
8
0
10
-8.353333
20
2.920435
30
-0.709301
11
-8.368629
21
2.920435
31
-0.240408
12
-8.353333
22
2.920435
32
-0.238901
13
-8.353333
23
2.920435
33
-0.238901
0
3DFACE
8
0
10
-8.353333
20
2.920435
30
-0.709301
11
-8.368629
21
2.920435
31
-0.707795
12
-8.368629
22
2.920435
32
-0.240408
13
-8.368629
23
2.920435
33
-0.240408
0
3DFACE
8
0
10
-8.368629
20
2.920435
30
-0.707795
11
-8.383924
21
2.920435
31
-0.241914
12
-8.368629
22
2.920435
32
-0.240408
13
-8.368629
23
2.920435
33
-0.240408
0
3DFACE
8
0
10
-8.368629
20
2.920435
30
-0.707795
11
-8.383924
21
2.920435
31
-0.706288
12
-8.383924
22
2.920435
32
-0.241914
13
-8.383924
23
2.920435
33
-0.241914
0
3DFACE
8
0
10
-8.383924
20
2.920435
30
-0.706288
11
-8.399219
21
2.920435
31
-0.243421
12
-8.383924
22
2.920435
32
-0.241914
13
-8.383924
23
2.920435
33
-0.241914
0
3DFACE
8
0
10
-8.383924
20
2.920435
30
-0.706288
11
-8.399219
21
2.920435
31
-0.704782
12
-8.399219
22
2.920435
32
-0.243421
13
-8.399219
23
2.920435
33
-0.243421
0
3DFACE
8
0
10
-8.399219
20
2.920435
30
-0.704782
11
-8.413926
21
2.920435
31
-0.247882
12
-8.399219
22
2.920435
32
-0.243421
13
-8.399219
23
2.920435
33
-0.243421
0
3DFACE
8
0
10
-8.399219
20
2.920435
30
-0.704782
11
-8.413926
21
2.920435
31
-0.700321
12
-8.413926
22
2.920435
32
-0.247882
13
-8.413926
23
2.920435
33
-0.247882
0
3DFACE
8
0
10
-8.413926
20
2.920435
30
-0.700321
11
-8.428633
21
2.920435
31
-0.252343
12
-8.413926
22
2.920435
32
-0.247882
13
-8.413926
23
2.920435
33
-0.247882
0
3DFACE
8
0
10
-8.413926
20
2.920435
30
-0.700321
11
-8.428633
21
2.920435
31
-0.695859
12
-8.428633
22
2.920435
32
-0.252343
13
-8.428633
23
2.920435
33
-0.252343
0
3DFACE
8
0
10
-8.428633
20
2.920435
30
-0.695859
11
-8.443340
21
2.920435
31
-0.256805
12
-8.428633
22
2.920435
32
-0.252343
13
-8.428633
23
2.920435
33
-0.252343
0
3DFACE
8
0
10
-8.428633
20
2.920435
30
-0.695859
11
-8.443340
21
2.920435
31
-0.691398
12
-8.443340
22
2.920435
32
-0.256805
13
-8.443340
23
2.920435
33
-0.256805
0
3DFACE
8
0
10
-8.443340
20
2.920435
30
-0.691398
11
-8.456895
21
2.920435
31
-0.264050
12
-8.443340
22
2.920435
32
-0.256805
13
-8.443340
23
2.920435
33
-0.256805
0
3DFACE
8
0
10
-8.443340
20
2.920435
30
-0.691398
11
-8.456895
21
2.920435
31
-0.684153
12
-8.456895
22
2.920435
32
-0.264050
13
-8.456895
23
2.920435
33
-0.264050
0
3DFACE
8
0
10
-8.456895
20
2.920435
30
-0.684153
11
-8.470449
21
2.920435
31
-0.271295
12
-8.456895
22
2.920435
32
-0.264050
13
-8.456895
23
2.920435
33
-0.264050
0
3DFACE
8
0
10
-8.456895
20
2.920435
30
-0.684153
11
-8.470449
21
2.920435
31
-0.676908
12
-8.470449
22
2.920435
32
-0.271295
13
-8.470449
23
2.920435
33
-0.271295
0
3DFACE
8
0
10
-8.470449
20
2.920435
30
-0.676908
11
-8.484003
21
2.920435
31
-0.278540
12
-8.470449
22
2.920435
32
-0.271295
13
-8.470449
23
2.920435
33
-0.271295
0
3DFACE
8
0
10
-8.470449
20
2.920435
30
-0.676908
11
-8.484003
21
2.920435
31
-0.669663
12
-8.484003
22
2.920435
32
-0.278540
13
-8.484003
23
2.920435
33
-0.278540
0
3DFACE
8
0
10
-8.484003
20
2.920435
30
-0.669663
11
-8.495884
21
2.920435
31
-0.288290
12
-8.484003
22
2.920435
32
-0.278540
13
-8.484003
23
2.920435
33
-0.278540
0
3DFACE
8
0
10
-8.484003
20
2.920435
30
-0.669663
11
-8.495884
21
2.920435
31
-0.659913
12
-8.495884
22
2.920435
32
-0.288290
13
-8.495884
23
2.920435
33
-0.288290
0
3DFACE
8
0
10
-8.495884
20
2.920435
30
-0.659913
11
-8.507764
21
2.920435
31
-0.298040
12
-8.495884
22
2.920435
32
-0.288290
13
-8.495884
23
2.920435
33
-0.288290
0
3DFACE
8
0
10
-8.495884
20
2.920435
30
-0.659913
11
-8.507765
21
2.920435
31
-0.650163
12
-8.507764
22
2.920435
32
-0.298040
13
-8.507764
23
2.920435
33
-0.298040
0
3DFACE
8
0
10
-8.507765
20
2.920435
30
-0.650163
11
-8.519645
21
2.920435
31
-0.307790
12
-8.507764
22
2.920435
32
-0.298040
13
-8.507764
23
2.920435
33
-0.298040
0
3DFACE
8
0
10
-8.507765
20
2.920435
30
-0.650163
11
-8.519645
21
2.920435
31
-0.640413
12
-8.519645
22
2.920435
32
-0.307790
13
-8.519645
23
2.920435
33
-0.307790
0
3DFACE
8
0
10
-8.519645
20
2.920435
30
-0.640413
11
-8.529395
21
2.920435
31
-0.319670
12
-8.519645
22
2.920435
32
-0.307790
13
-8.519645
23
2.920435
33
-0.307790
0
3DFACE
8
0
10
-8.519645
20
2.920435
30
-0.640413
11
-8.529395
21
2.920435
31
-0.628532
12
-8.529395
22
2.920435
32
-0.319670
13
-8.529395
23
2.920435
33
-0.319670
0
3DFACE
8
0
10
-8.529395
20
2.920435
30
-0.628532
11
-8.539145
21
2.920435
31
-0.331551
12
-8.529395
22
2.920435
32
-0.319670
13
-8.529395
23
2.920435
33
-0.319670
0
3DFACE
8
0
10
-8.529395
20
2.920435
30
-0.628532
11
-8.539145
21
2.920435
31
-0.616652
12
-8.539145
22
2.920435
32
-0.331551
13
-8.539145
23
2.920435
33
-0.331551
0
3DFACE
8
0
10
-8.539145
20
2.920435
30
-0.616652
11
-8.548895
21
2.920435
31
-0.343431
12
-8.539145
22
2.920435
32
-0.331551
13
-8.539145
23
2.920435
33
-0.331551
0
3DFACE
8
0
10
-8.539145
20
2.920435
30
-0.616652
11
-8.548895
21
2.920435
31
-0.604771
12
-8.548895
22
2.920435
32
-0.343431
13
-8.548895
23
2.920435
33
-0.343431
0
3DFACE
8
0
10
-8.548895
20
2.920435
30
-0.604771
11
-8.556140
21
2.920435
31
-0.356985
12
-8.548895
22
2.920435
32
-0.343431
13
-8.548895
23
2.920435
33
-0.343431
0
3DFACE
8
0
10
-8.548895
20
2.920435
30
-0.604771
11
-8.556140
21
2.920435
31
-0.591217
12
-8.556140
22
2.920435
32
-0.356985
13
-8.556140
23
2.920435
33
-0.356985
0
3DFACE
8
0
10
-8.556140
20
2.920435
30
-0.591217
11
-8.563385
21
2.920435
31
-0.370540
12
-8.556140
22
2.920435
32
-0.356985
13
-8.556140
23
2.920435
33
-0.356985
0
3DFACE
8
0
10
-8.556140
20
2.920435
30
-0.591217
11
-8.563385
21
2.920435
31
-0.577663
12
-8.563385
22
2.920435
32
-0.370540
13
-8.563385
23
2.920435
33
-0.370540
0
3DFACE
8
0
10
-8.563385
20
2.920435
30
-0.577663
11
-8.570630
21
2.920435
31
-0.384094
12
-8.563385
22
2.920435
32
-0.370540
13
-8.563385
23
2.920435
33
-0.370540
0
3DFACE
8
0
10
-8.563385
20
2.920435
30
-0.577663
11
-8.570630
21
2.920435
31
-0.564108
12
-8.570630
22
2.920435
32
-0.384094
13
-8.570630
23
2.920435
33
-0.384094
0
3DFACE
8
0
10
-8.570630
20
2.920435
30
-0.564108
11
-8.575091
21
2.920435
31
-0.398801
12
-8.570630
22
2.920435
32
-0.384094
13
-8.570630
23
2.920435
33
-0.384094
0
3DFACE
8
0
10
-8.570630
20
2.920435
30
-0.564108
11
-8.575091
21
2.920435
31
-0.549401
12
-8.575091
22
2.920435
32
-0.398801
13
-8.575091
23
2.920435
33
-0.398801
0
3DFACE
8
0
10
-8.575091
20
2.920435
30
-0.549401
11
-8.579553
21
2.920435
31
-0.413509
12
-8.575091
22
2.920435
32
-0.398801
13
-8.575091
23
2.920435
33
-0.398801
0
3DFACE
8
0
10
-8.575091
20
2.920435
30
-0.549401
11
-8.579553
21
2.920435
31
-0.534694
12
-8.579553
22
2.920435
32
-0.413509
13
-8.579553
23
2.920435
33
-0.413509
0
3DFACE
8
0
10
-8.579553
20
2.920435
30
-0.534694
11
-8.584014
21
2.920435
31
-0.428216
12
-8.579553
22
2.920435
32
-0.413509
13
-8.579553
23
2.920435
33
-0.413509
0
3DFACE
8
0
10
-8.579553
20
2.920435
30
-0.534694
11
-8.584014
21
2.920435
31
-0.519987
12
-8.584014
22
2.920435
32
-0.428216
13
-8.584014
23
2.920435
33
-0.428216
0
3DFACE
8
0
10
-8.584014
20
2.920435
30
-0.519987
11
-8.585521
21
2.920435
31
-0.443511
12
-8.584014
22
2.920435
32
-0.428216
13
-8.584014
23
2.920435
33
-0.428216
0
3DFACE
8
0
10
-8.584014
20
2.920435
30
-0.519987
11
-8.585521
21
2.920435
31
-0.504691
12
-8.585521
22
2.920435
32
-0.443511
13
-8.585521
23
2.920435
33
-0.443511
0
3DFACE
8
0
10
-8.585521
20
2.920435
30
-0.504691
11
-8.587027
21
2.920435
31
-0.458806
12
-8.585521
22
2.920435
32
-0.443511
13
-8.585521
23
2.920435
33
-0.443511
0
3DFACE
8
0
10
-8.585521
20
2.920435
30
-0.504691
11
-8.587027
21
2.920435
31
-0.489396
12
-8.587027
22
2.920435
32
-0.458806
13
-8.587027
23
2.920435
33
-0.458806
0
3DFACE
8
0
10
-8.587027
20
2.920435
30
-0.489396
11
-8.588533
21
2.920435
31
-0.474101
12
-8.587027
22
2.920435
32
-0.458806
13
-8.587027
23
2.920435
33
-0.458806
0
3DFACE
8
0
10
-8.121146
20
3.064435
30
-0.504691
11
-8.122653
21
3.064435
31
-0.519987
12
-8.122653
22
2.920435
32
-0.519987
13
-8.122653
23
2.920435
33
-0.519987
0
3DFACE
8
0
10
-8.122653
20
2.920435
30
-0.519987
11
-8.121146
21
2.920435
31
-0.504691
12
-8.121146
22
3.064435
32
-0.504691
13
-8.121146
23
3.064435
33
-0.504691
0
3DFACE
8
0
10
-8.021638
20
3.064435
30
-0.517801
11
-8.023789
21
3.064435
31
-0.539652
12
-8.122653
22
3.064435
32
-0.519987
13
-8.122653
23
3.064435
33
-0.519987
0
3DFACE
8
0
10
-8.122653
20
3.064435
30
-0.519987
11
-8.121146
21
3.064435
31
-0.504691
12
-8.021638
22
3.064435
32
-0.517801
13
-8.021638
23
3.064435
33
-0.517801
0
3DFACE
8
0
10
-8.118134
20
3.064435
30
-0.474101
11
-8.119640
21
3.064435
31
-0.489396
12
-8.119640
22
2.920435
32
-0.489396
13
-8.119640
23
2.920435
33
-0.489396
0
3DFACE
8
0
10
-8.119640
20
2.920435
30
-0.489396
11
-8.118134
21
2.920435
31
-0.474101
12
-8.118134
22
3.064435
32
-0.474101
13
-8.118134
23
3.064435
33
-0.474101
0
3DFACE
8
0
10
-8.119640
20
3.064435
30
-0.489396
11
-8.121146
21
3.064435
31
-0.504691
12
-8.121146
22
2.920435
32
-0.504691
13
-8.121146
23
2.920435
33
-0.504691
0
3DFACE
8
0
10
-8.121146
20
2.920435
30
-0.504691
11
-8.119640
21
2.920435
31
-0.489396
12
-8.119640
22
3.064435
32
-0.489396
13
-8.119640
23
3.064435
33
-0.489396
0
3DFACE
8
0
10
-8.118134
20
3.064435
30
-0.474101
11
-8.017334
21
3.064435
31
-0.474101
12
-8.019485
22
3.064435
32
-0.495951
13
-8.019485
23
3.064435
33
-0.495951
0
3DFACE
8
0
10
-8.019485
20
3.064435
30
-0.495951
11
-8.119640
21
3.064435
31
-0.489396
12
-8.118134
22
3.064435
32
-0.474101
13
-8.118134
23
3.064435
33
-0.474101
0
3DFACE
8
0
10
-8.119640
20
3.064435
30
-0.489396
11
-8.019485
21
3.064435
31
-0.495951
12
-8.021638
22
3.064435
32
-0.517801
13
-8.021638
23
3.064435
33
-0.517801
0
3DFACE
8
0
10
-8.021638
20
3.064435
30
-0.517801
11
-8.121146
21
3.064435
31
-0.504691
12
-8.119640
22
3.064435
32
-0.489396
13
-8.119640
23
3.064435
33
-0.489396
0
3DFACE
8
0
10
-8.019485
20
3.064435
30
-0.495951
11
-8.017334
21
3.064435
31
-0.474101
12
-8.017334
22
3.312435
32
-0.474101
13
-8.017334
23
3.312435
33
-0.474101
0
3DFACE
8
0
10
-8.017334
20
3.312435
30
-0.474101
11
-8.019485
21
3.312435
31
-0.495951
12
-8.019485
22
3.064435
32
-0.495951
13
-8.019485
23
3.064435
33
-0.495951
0
3DFACE
8
0
10
-8.021638
20
3.064435
30
-0.517801
11
-8.019485
21
3.064435
31
-0.495951
12
-8.019485
22
3.312435
32
-0.495951
13
-8.019485
23
3.312435
33
-0.495951
0
3DFACE
8
0
10
-8.019485
20
3.312435
30
-0.495951
11
-8.021638
21
3.312435
31
-0.517801
12
-8.021638
22
3.064435
32
-0.517801
13
-8.021638
23
3.064435
33
-0.517801
0
3DFACE
8
0
10
-8.131576
20
3.064435
30
-0.549401
11
-8.136037
21
3.064435
31
-0.564108
12
-8.136037
22
2.920435
32
-0.564108
13
-8.136037
23
2.920435
33
-0.564108
0
3DFACE
8
0
10
-8.136037
20
2.920435
30
-0.564108
11
-8.131576
21
2.920435
31
-0.549401
12
-8.131576
22
3.064435
32
-0.549401
13
-8.131576
23
3.064435
33
-0.549401
0
3DFACE
8
0
10
-8.036536
20
3.064435
30
-0.581672
11
-8.042910
21
3.064435
31
-0.602683
12
-8.136037
22
3.064435
32
-0.564108
13
-8.136037
23
3.064435
33
-0.564108
0
3DFACE
8
0
10
-8.136037
20
3.064435
30
-0.564108
11
-8.131576
21
3.064435
31
-0.549401
12
-8.036536
22
3.064435
32
-0.581672
13
-8.036536
23
3.064435
33
-0.581672
0
3DFACE
8
0
10
-8.122653
20
3.064435
30
-0.519987
11
-8.127114
21
3.064435
31
-0.534694
12
-8.127114
22
2.920435
32
-0.534694
13
-8.127114
23
2.920435
33
-0.534694
0
3DFACE
8
0
10
-8.127114
20
2.920435
30
-0.534694
11
-8.122653
21
2.920435
31
-0.519987
12
-8.122653
22
3.064435
32
-0.519987
13
-8.122653
23
3.064435
33
-0.519987
0
3DFACE
8
0
10
-8.127114
20
3.064435
30
-0.534694
11
-8.131576
21
3.064435
31
-0.549401
12
-8.131576
22
2.920435
32
-0.549401
13
-8.131576
23
2.920435
33
-0.549401
0
3DFACE
8
0
10
-8.131576
20
2.920435
30
-0.549401
11
-8.127114
21
2.920435
31
-0.534694
12
-8.127114
22
3.064435
32
-0.534694
13
-8.127114
23
3.064435
33
-0.534694
0
3DFACE
8
0
10
-8.122653
20
3.064435
30
-0.519987
11
-8.023789
21
3.064435
31
-0.539652
12
-8.030163
22
3.064435
32
-0.560662
13
-8.030163
23
3.064435
33
-0.560662
0
3DFACE
8
0
10
-8.030163
20
3.064435
30
-0.560662
11
-8.127114
21
3.064435
31
-0.534694
12
-8.122653
22
3.064435
32
-0.519987
13
-8.122653
23
3.064435
33
-0.519987
0
3DFACE
8
0
10
-8.127114
20
3.064435
30
-0.534694
11
-8.030163
21
3.064435
31
-0.560662
12
-8.036536
22
3.064435
32
-0.581672
13
-8.036536
23
3.064435
33
-0.581672
0
3DFACE
8
0
10
-8.036536
20
3.064435
30
-0.581672
11
-8.131576
21
3.064435
31
-0.549401
12
-8.127114
22
3.064435
32
-0.534694
13
-8.127114
23
3.064435
33
-0.534694
0
3DFACE
8
0
10
-8.030163
20
3.064435
30
-0.560662
11
-8.023789
21
3.064435
31
-0.539652
12
-8.023789
22
3.312435
32
-0.539652
13
-8.023789
23
3.312435
33
-0.539652
0
3DFACE
8
0
10
-8.023789
20
3.312435
30
-0.539652
11
-8.030163
21
3.312435
31
-0.560662
12
-8.030163
22
3.064435
32
-0.560662
13
-8.030163
23
3.064435
33
-0.560662
0
3DFACE
8
0
10
-8.036536
20
3.064435
30
-0.581672
11
-8.030163
21
3.064435
31
-0.560662
12
-8.030163
22
3.312435
32
-0.560662
13
-8.030163
23
3.312435
33
-0.560662
0
3DFACE
8
0
10
-8.030163
20
3.312435
30
-0.560662
11
-8.036536
21
3.312435
31
-0.581672
12
-8.036536
22
3.064435
32
-0.581672
13
-8.036536
23
3.064435
33
-0.581672
0
3DFACE
8
0
10
-8.150527
20
2.920435
30
-0.591217
11
-8.150527
21
3.064435
31
-0.591217
12
-8.157772
22
3.064435
32
-0.604771
13
-8.157772
23
3.064435
33
-0.604771
0
3DFACE
8
0
10
-8.157772
20
3.064435
30
-0.604771
11
-8.157772
21
2.920435
31
-0.604771
12
-8.150527
22
2.920435
32
-0.591217
13
-8.150527
23
2.920435
33
-0.591217
0
3DFACE
8
0
10
-8.063610
20
3.064435
30
-0.641410
11
-8.073959
21
3.064435
31
-0.660773
12
-8.157772
22
3.064435
32
-0.604771
13
-8.157772
23
3.064435
33
-0.604771
0
3DFACE
8
0
10
-8.157772
20
3.064435
30
-0.604771
11
-8.150527
21
3.064435
31
-0.591217
12
-8.063610
22
3.064435
32
-0.641410
13
-8.063610
23
3.064435
33
-0.641410
0
3DFACE
8
0
10
-8.136037
20
3.064435
30
-0.564108
11
-8.143282
21
3.064435
31
-0.577663
12
-8.143282
22
2.920435
32
-0.577663
13
-8.143282
23
2.920435
33
-0.577663
0
3DFACE
8
0
10
-8.143282
20
2.920435
30
-0.577663
11
-8.136037
21
2.920435
31
-0.564108
12
-8.136037
22
3.064435
32
-0.564108
13
-8.136037
23
3.064435
33
-0.564108
0
3DFACE
8
0
10
-8.143282
20
2.920435
30
-0.577663
11
-8.143282
21
3.064435
31
-0.577663
12
-8.150527
22
3.064435
32
-0.591217
13
-8.150527
23
3.064435
33
-0.591217
0
3DFACE
8
0
10
-8.150527
20
3.064435
30
-0.591217
11
-8.150527
21
2.920435
31
-0.591217
12
-8.143282
22
2.920435
32
-0.577663
13
-8.143282
23
2.920435
33
-0.577663
0
3DFACE
8
0
10
-8.136037
20
3.064435
30
-0.564108
11
-8.042910
21
3.064435
31
-0.602683
12
-8.053260
22
3.064435
32
-0.622046
13
-8.053260
23
3.064435
33
-0.622046
0
3DFACE
8
0
10
-8.053260
20
3.064435
30
-0.622046
11
-8.143282
21
3.064435
31
-0.577663
12
-8.136037
22
3.064435
32
-0.564108
13
-8.136037
23
3.064435
33
-0.564108
0
3DFACE
8
0
10
-8.053260
20
3.064435
30
-0.622046
11
-8.063610
21
3.064435
31
-0.641410
12
-8.150527
22
3.064435
32
-0.591217
13
-8.150527
23
3.064435
33
-0.591217
0
3DFACE
8
0
10
-8.150527
20
3.064435
30
-0.591217
11
-8.143282
21
3.064435
31
-0.577663
12
-8.053260
22
3.064435
32
-0.622046
13
-8.053260
23
3.064435
33
-0.622046
0
3DFACE
8
0
10
-8.053260
20
3.064435
30
-0.622046
11
-8.042910
21
3.064435
31
-0.602683
12
-8.042910
22
3.312435
32
-0.602683
13
-8.042910
23
3.312435
33
-0.602683
0
3DFACE
8
0
10
-8.042910
20
3.312435
30
-0.602683
11
-8.053260
21
3.312435
31
-0.622046
12
-8.053260
22
3.064435
32
-0.622046
13
-8.053260
23
3.064435
33
-0.622046
0
3DFACE
8
0
10
-8.063610
20
3.064435
30
-0.641410
11
-8.053260
21
3.064435
31
-0.622046
12
-8.053260
22
3.312435
32
-0.622046
13
-8.053260
23
3.312435
33
-0.622046
0
3DFACE
8
0
10
-8.053260
20
3.312435
30
-0.622046
11
-8.063610
21
3.312435
31
-0.641410
12
-8.063610
22
3.064435
32
-0.641410
13
-8.063610
23
3.064435
33
-0.641410
0
3DFACE
8
0
10
-8.177272
20
2.920435
30
-0.628532
11
-8.177272
21
3.064435
31
-0.628532
12
-8.187022
22
3.064435
32
-0.640413
13
-8.187022
23
3.064435
33
-0.640413
0
3DFACE
8
0
10
-8.187022
20
3.064435
30
-0.640413
11
-8.187022
21
2.920435
31
-0.640413
12
-8.177272
22
2.920435
32
-0.628532
13
-8.177272
23
2.920435
33
-0.628532
0
3DFACE
8
0
10
-8.101817
20
3.064435
30
-0.694717
11
-8.115746
21
3.064435
31
-0.711689
12
-8.187022
22
3.064435
32
-0.640413
13
-8.187022
23
3.064435
33
-0.640413
0
3DFACE
8
0
10
-8.187022
20
3.064435
30
-0.640413
11
-8.177272
21
3.064435
31
-0.628532
12
-8.101817
22
3.064435
32
-0.694717
13
-8.101817
23
3.064435
33
-0.694717
0
3DFACE
8
0
10
-8.157772
20
2.920435
30
-0.604771
11
-8.157772
21
3.064435
31
-0.604771
12
-8.167521
22
3.064435
32
-0.616652
13
-8.167521
23
3.064435
33
-0.616652
0
3DFACE
8
0
10
-8.167521
20
3.064435
30
-0.616652
11
-8.167521
21
2.920435
31
-0.616652
12
-8.157772
22
2.920435
32
-0.604771
13
-8.157772
23
2.920435
33
-0.604771
0
3DFACE
8
0
10
-8.167521
20
3.064435
30
-0.616652
11
-8.177272
21
3.064435
31
-0.628532
12
-8.177272
22
2.920435
32
-0.628532
13
-8.177272
23
2.920435
33
-0.628532
0
3DFACE
8
0
10
-8.177272
20
2.920435
30
-0.628532
11
-8.167521
21
2.920435
31
-0.616652
12
-8.167521
22
3.064435
32
-0.616652
13
-8.167521
23
3.064435
33
-0.616652
0
3DFACE
8
0
10
-8.157772
20
3.064435
30
-0.604771
11
-8.073959
21
3.064435
31
-0.660773
12
-8.087889
22
3.064435
32
-0.677745
13
-8.087889
23
3.064435
33
-0.677745
0
3DFACE
8
0
10
-8.087889
20
3.064435
30
-0.677745
11
-8.167521
21
3.064435
31
-0.616652
12
-8.157772
22
3.064435
32
-0.604771
13
-8.157772
23
3.064435
33
-0.604771
0
3DFACE
8
0
10
-8.087889
20
3.064435
30
-0.677745
11
-8.101817
21
3.064435
31
-0.694717
12
-8.177272
22
3.064435
32
-0.628532
13
-8.177272
23
3.064435
33
-0.628532
0
3DFACE
8
0
10
-8.177272
20
3.064435
30
-0.628532
11
-8.167521
21
3.064435
31
-0.616652
12
-8.087889
22
3.064435
32
-0.677745
13
-8.087889
23
3.064435
33
-0.677745
0
3DFACE
8
0
10
-8.087889
20
3.064435
30
-0.677745
11
-8.073959
21
3.064435
31
-0.660773
12
-8.073959
22
3.312435
32
-0.660773
13
-8.073959
23
3.312435
33
-0.660773
0
3DFACE
8
0
10
-8.073959
20
3.312435
30
-0.660773
11
-8.087889
21
3.312435
31
-0.677745
12
-8.087889
22
3.064435
32
-0.677745
13
-8.087889
23
3.064435
33
-0.677745
0
3DFACE
8
0
10
-8.101817
20
3.064435
30
-0.694717
11
-8.087889
21
3.064435
31
-0.677745
12
-8.087889
22
3.312435
32
-0.677745
13
-8.087889
23
3.312435
33
-0.677745
0
3DFACE
8
0
10
-8.087889
20
3.312435
30
-0.677745
11
-8.101817
21
3.312435
31
-0.694717
12
-8.101817
22
3.064435
32
-0.694717
13
-8.101817
23
3.064435
33
-0.694717
0
3DFACE
8
0
10
-8.210783
20
3.064435
30
-0.659913
11
-8.222663
21
3.064435
31
-0.669663
12
-8.222663
22
2.920435
32
-0.669663
13
-8.222663
23
2.920435
33
-0.669663
0
3DFACE
8
0
10
-8.222663
20
2.920435
30
-0.669663
11
-8.210783
21
2.920435
31
-0.659913
12
-8.210783
22
3.064435
32
-0.659913
13
-8.210783
23
3.064435
33
-0.659913
0
3DFACE
8
0
10
-8.149690
20
3.064435
30
-0.739546
11
-8.166662
21
3.064435
31
-0.753475
12
-8.222663
22
3.064435
32
-0.669663
13
-8.222663
23
3.064435
33
-0.669663
0
3DFACE
8
0
10
-8.222663
20
3.064435
30
-0.669663
11
-8.210783
21
3.064435
31
-0.659913
12
-8.149690
22
3.064435
32
-0.739546
13
-8.149690
23
3.064435
33
-0.739546
0
3DFACE
8
0
10
-8.187022
20
3.064435
30
-0.640413
11
-8.198902
21
3.064435
31
-0.650163
12
-8.198902
22
2.920435
32
-0.650163
13
-8.198902
23
2.920435
33
-0.650163
0
3DFACE
8
0
10
-8.198902
20
2.920435
30
-0.650163
11
-8.187022
21
2.920435
31
-0.640413
12
-8.187022
22
3.064435
32
-0.640413
13
-8.187022
23
3.064435
33
-0.640413
0
3DFACE
8
0
10
-8.198902
20
3.064435
30
-0.650163
11
-8.210783
21
3.064435
31
-0.659913
12
-8.210783
22
2.920435
32
-0.659913
13
-8.210783
23
2.920435
33
-0.659913
0
3DFACE
8
0
10
-8.210783
20
2.920435
30
-0.659913
11
-8.198902
21
2.920435
31
-0.650163
12
-8.198902
22
3.064435
32
-0.650163
13
-8.198902
23
3.064435
33
-0.650163
0
3DFACE
8
0
10
-8.187022
20
3.064435
30
-0.640413
11
-8.115746
21
3.064435
31
-0.711689
12
-8.132718
22
3.064435
32
-0.725618
13
-8.132718
23
3.064435
33
-0.725618
0
3DFACE
8
0
10
-8.132718
20
3.064435
30
-0.725618
11
-8.198902
21
3.064435
31
-0.650163
12
-8.187022
22
3.064435
32
-0.640413
13
-8.187022
23
3.064435
33
-0.640413
0
3DFACE
8
0
10
-8.132718
20
3.064435
30
-0.725618
11
-8.149690
21
3.064435
31
-0.739546
12
-8.210783
22
3.064435
32
-0.659913
13
-8.210783
23
3.064435
33
-0.659913
0
3DFACE
8
0
10
-8.210783
20
3.064435
30
-0.659913
11
-8.198902
21
3.064435
31
-0.650163
12
-8.132718
22
3.064435
32
-0.725618
13
-8.132718
23
3.064435
33
-0.725618
0
3DFACE
8
0
10
-8.132718
20
3.312435
30
-0.725618
11
-8.132718
21
3.064435
31
-0.725618
12
-8.115746
22
3.064435
32
-0.711689
13
-8.115746
23
3.064435
33
-0.711689
0
3DFACE
8
0
10
-8.115746
20
3.064435
30
-0.711689
11
-8.115746
21
3.312435
31
-0.711689
12
-8.132718
22
3.312435
32
-0.725618
13
-8.132718
23
3.312435
33
-0.725618
0
3DFACE
8
0
10
-8.149690
20
3.312435
30
-0.739546
11
-8.149690
21
3.064435
31
-0.739546
12
-8.132718
22
3.064435
32
-0.725618
13
-8.132718
23
3.064435
33
-0.725618
0
3DFACE
8
0
10
-8.132718
20
3.064435
30
-0.725618
11
-8.132718
21
3.312435
31
-0.725618
12
-8.149690
22
3.312435
32
-0.739546
13
-8.149690
23
3.312435
33
-0.739546
0
3DFACE
8
0
10
-8.249772
20
3.064435
30
-0.684153
11
-8.263327
21
3.064435
31
-0.691398
12
-8.263327
22
2.920435
32
-0.691398
13
-8.263327
23
2.920435
33
-0.691398
0
3DFACE
8
0
10
-8.263327
20
2.920435
30
-0.691398
11
-8.249772
21
2.920435
31
-0.684153
12
-8.249772
22
3.064435
32
-0.684153
13
-8.249772
23
3.064435
33
-0.684153
0
3DFACE
8
0
10
-8.205388
20
3.064435
30
-0.774175
11
-8.224751
21
3.064435
31
-0.784525
12
-8.263327
22
3.064435
32
-0.691398
13
-8.263327
23
3.064435
33
-0.691398
0
3DFACE
8
0
10
-8.263327
20
3.064435
30
-0.691398
11
-8.249772
21
3.064435
31
-0.684153
12
-8.205388
22
3.064435
32
-0.774175
13
-8.205388
23
3.064435
33
-0.774175
0
3DFACE
8
0
10
-8.222663
20
3.064435
30
-0.669663
11
-8.236217
21
3.064435
31
-0.676908
12
-8.236217
22
2.920435
32
-0.676908
13
-8.236217
23
2.920435
33
-0.676908
0
3DFACE
8
0
10
-8.236217
20
2.920435
30
-0.676908
11
-8.222663
21
2.920435
31
-0.669663
12
-8.222663
22
3.064435
32
-0.669663
13
-8.222663
23
3.064435
33
-0.669663
0
3DFACE
8
0
10
-8.236217
20
3.064435
30
-0.676908
11
-8.249772
21
3.064435
31
-0.684153
12
-8.249772
22
2.920435
32
-0.684153
13
-8.249772
23
2.920435
33
-0.684153
0
3DFACE
8
0
10
-8.249772
20
2.920435
30
-0.684153
11
-8.236217
21
2.920435
31
-0.676908
12
-8.236217
22
3.064435
32
-0.676908
13
-8.236217
23
3.064435
33
-0.676908
0
3DFACE
8
0
10
-8.222663
20
3.064435
30
-0.669663
11
-8.166662
21
3.064435
31
-0.753475
12
-8.186026
22
3.064435
32
-0.763825
13
-8.186026
23
3.064435
33
-0.763825
0
3DFACE
8
0
10
-8.186026
20
3.064435
30
-0.763825
11
-8.236217
21
3.064435
31
-0.676908
12
-8.222663
22
3.064435
32
-0.669663
13
-8.222663
23
3.064435
33
-0.669663
0
3DFACE
8
0
10
-8.186026
20
3.064435
30
-0.763825
11
-8.205388
21
3.064435
31
-0.774175
12
-8.249772
22
3.064435
32
-0.684153
13
-8.249772
23
3.064435
33
-0.684153
0
3DFACE
8
0
10
-8.249772
20
3.064435
30
-0.684153
11
-8.236217
21
3.064435
31
-0.676908
12
-8.186026
22
3.064435
32
-0.763825
13
-8.186026
23
3.064435
33
-0.763825
0
3DFACE
8
0
10
-8.186026
20
3.312435
30
-0.763825
11
-8.186026
21
3.064435
31
-0.763825
12
-8.166662
22
3.064435
32
-0.753475
13
-8.166662
23
3.064435
33
-0.753475
0
3DFACE
8
0
10
-8.166662
20
3.064435
30
-0.753475
11
-8.166662
21
3.312435
31
-0.753475
12
-8.186026
22
3.312435
32
-0.763825
13
-8.186026
23
3.312435
33
-0.763825
0
3DFACE
8
0
10
-8.205388
20
3.312435
30
-0.774175
11
-8.205388
21
3.064435
31
-0.774175
12
-8.186026
22
3.064435
32
-0.763825
13
-8.186026
23
3.064435
33
-0.763825
0
3DFACE
8
0
10
-8.186026
20
3.064435
30
-0.763825
11
-8.186026
21
3.312435
31
-0.763825
12
-8.205388
22
3.312435
32
-0.774175
13
-8.205388
23
3.312435
33
-0.774175
0
3DFACE
8
0
10
-8.292741
20
3.064435
30
-0.700320
11
-8.307448
21
3.064435
31
-0.704782
12
-8.307448
22
2.920435
32
-0.704782
13
-8.307448
23
2.920435
33
-0.704782
0
3DFACE
8
0
10
-8.307448
20
2.920435
30
-0.704782
11
-8.292741
21
2.920435
31
-0.700320
12
-8.292741
22
3.064435
32
-0.700320
13
-8.292741
23
3.064435
33
-0.700320
0
3DFACE
8
0
10
-8.266772
20
3.064435
30
-0.797272
11
-8.287783
21
3.064435
31
-0.803645
12
-8.307448
22
3.064435
32
-0.704782
13
-8.307448
23
3.064435
33
-0.704782
0
3DFACE
8
0
10
-8.307448
20
3.064435
30
-0.704782
11
-8.292741
21
3.064435
31
-0.700320
12
-8.266772
22
3.064435
32
-0.797272
13
-8.266772
23
3.064435
33
-0.797272
0
3DFACE
8
0
10
-8.263327
20
3.064435
30
-0.691398
11
-8.278033
21
3.064435
31
-0.695859
12
-8.278033
22
2.920435
32
-0.695859
13
-8.278033
23
2.920435
33
-0.695859
0
3DFACE
8
0
10
-8.278033
20
2.920435
30
-0.695859
11
-8.263327
21
2.920435
31
-0.691398
12
-8.263327
22
3.064435
32
-0.691398
13
-8.263327
23
3.064435
33
-0.691398
0
3DFACE
8
0
10
-8.278033
20
3.064435
30
-0.695859
11
-8.292741
21
3.064435
31
-0.700320
12
-8.292741
22
2.920435
32
-0.700320
13
-8.292741
23
2.920435
33
-0.700320
0
3DFACE
8
0
10
-8.292741
20
2.920435
30
-0.700320
11
-8.278033
21
2.920435
31
-0.695859
12
-8.278033
22
3.064435
32
-0.695859
13
-8.278033
23
3.064435
33
-0.695859
0
3DFACE
8
0
10
-8.263327
20
3.064435
30
-0.691398
11
-8.224751
21
3.064435
31
-0.784525
12
-8.245762
22
3.064435
32
-0.790898
13
-8.245762
23
3.064435
33
-0.790898
0
3DFACE
8
0
10
-8.245762
20
3.064435
30
-0.790898
11
-8.278033
21
3.064435
31
-0.695859
12
-8.263327
22
3.064435
32
-0.691398
13
-8.263327
23
3.064435
33
-0.691398
0
3DFACE
8
0
10
-8.278033
20
3.064435
30
-0.695859
11
-8.245762
21
3.064435
31
-0.790898
12
-8.266772
22
3.064435
32
-0.797272
13
-8.266772
23
3.064435
33
-0.797272
0
3DFACE
8
0
10
-8.266772
20
3.064435
30
-0.797272
11
-8.292741
21
3.064435
31
-0.700320
12
-8.278033
22
3.064435
32
-0.695859
13
-8.278033
23
3.064435
33
-0.695859
0
3DFACE
8
0
10
-8.245762
20
3.312435
30
-0.790898
11
-8.245762
21
3.064435
31
-0.790898
12
-8.224751
22
3.064435
32
-0.784525
13
-8.224751
23
3.064435
33
-0.784525
0
3DFACE
8
0
10
-8.224751
20
3.064435
30
-0.784525
11
-8.224751
21
3.312435
31
-0.784525
12
-8.245762
22
3.312435
32
-0.790898
13
-8.245762
23
3.312435
33
-0.790898
0
3DFACE
8
0
10
-8.266772
20
3.312435
30
-0.797272
11
-8.266772
21
3.064435
31
-0.797272
12
-8.245762
22
3.064435
32
-0.790898
13
-8.245762
23
3.064435
33
-0.790898
0
3DFACE
8
0
10
-8.245762
20
3.064435
30
-0.790898
11
-8.245762
21
3.312435
31
-0.790898
12
-8.266772
22
3.312435
32
-0.797272
13
-8.266772
23
3.312435
33
-0.797272
0
3DFACE
8
0
10
-8.338038
20
3.064435
30
-0.707795
11
-8.353333
21
3.064435
31
-0.709301
12
-8.353333
22
2.920435
32
-0.709301
13
-8.353333
23
2.920435
33
-0.709301
0
3DFACE
8
0
10
-8.353333
20
2.920435
30
-0.709301
11
-8.338038
21
2.920435
31
-0.707795
12
-8.338038
22
3.064435
32
-0.707795
13
-8.338038
23
3.064435
33
-0.707795
0
3DFACE
8
0
10
-8.331483
20
3.064435
30
-0.807949
11
-8.353333
21
3.064435
31
-0.810101
12
-8.353333
22
3.064435
32
-0.709301
13
-8.353333
23
3.064435
33
-0.709301
0
3DFACE
8
0
10
-8.353333
20
3.064435
30
-0.709301
11
-8.338038
21
3.064435
31
-0.707795
12
-8.331483
22
3.064435
32
-0.807949
13
-8.331483
23
3.064435
33
-0.807949
0
3DFACE
8
0
10
-8.307448
20
3.064435
30
-0.704782
11
-8.322743
21
3.064435
31
-0.706288
12
-8.322743
22
2.920435
32
-0.706288
13
-8.322743
23
2.920435
33
-0.706288
0
3DFACE
8
0
10
-8.322743
20
2.920435
30
-0.706288
11
-8.307448
21
2.920435
31
-0.704782
12
-8.307448
22
3.064435
32
-0.704782
13
-8.307448
23
3.064435
33
-0.704782
0
3DFACE
8
0
10
-8.322743
20
3.064435
30
-0.706288
11
-8.338038
21
3.064435
31
-0.707795
12
-8.338038
22
2.920435
32
-0.707795
13
-8.338038
23
2.920435
33
-0.707795
0
3DFACE
8
0
10
-8.338038
20
2.920435
30
-0.707795
11
-8.322743
21
2.920435
31
-0.706288
12
-8.322743
22
3.064435
32
-0.706288
13
-8.322743
23
3.064435
33
-0.706288
0
3DFACE
8
0
10
-8.307448
20
3.064435
30
-0.704782
11
-8.287783
21
3.064435
31
-0.803645
12
-8.309633
22
3.064435
32
-0.805797
13
-8.309633
23
3.064435
33
-0.805797
0
3DFACE
8
0
10
-8.309633
20
3.064435
30
-0.805797
11
-8.322743
21
3.064435
31
-0.706288
12
-8.307448
22
3.064435
32
-0.704782
13
-8.307448
23
3.064435
33
-0.704782
0
3DFACE
8
0
10
-8.309633
20
3.064435
30
-0.805797
11
-8.331483
21
3.064435
31
-0.807949
12
-8.338038
22
3.064435
32
-0.707795
13
-8.338038
23
3.064435
33
-0.707795
0
3DFACE
8
0
10
-8.338038
20
3.064435
30
-0.707795
11
-8.322743
21
3.064435
31
-0.706288
12
-8.309633
22
3.064435
32
-0.805797
13
-8.309633
23
3.064435
33
-0.805797
0
3DFACE
8
0
10
-8.309633
20
3.312435
30
-0.805797
11
-8.309633
21
3.064435
31
-0.805797
12
-8.287783
22
3.064435
32
-0.803645
13
-8.287783
23
3.064435
33
-0.803645
0
3DFACE
8
0
10
-8.287783
20
3.064435
30
-0.803645
11
-8.287783
21
3.312435
31
-0.803645
12
-8.309633
22
3.312435
32
-0.805797
13
-8.309633
23
3.312435
33
-0.805797
0
3DFACE
8
0
10
-8.331483
20
3.312435
30
-0.807949
11
-8.331483
21
3.064435
31
-0.807949
12
-8.309633
22
3.064435
32
-0.805797
13
-8.309633
23
3.064435
33
-0.805797
0
3DFACE
8
0
10
-8.309633
20
3.064435
30
-0.805797
11
-8.309633
21
3.312435
31
-0.805797
12
-8.331483
22
3.312435
32
-0.807949
13
-8.331483
23
3.312435
33
-0.807949
0
3DFACE
8
0
10
-8.383924
20
2.920435
30
-0.706288
11
-8.383924
21
3.064435
31
-0.706288
12
-8.399219
22
3.064435
32
-0.704782
13
-8.399219
23
3.064435
33
-0.704782
0
3DFACE
8
0
10
-8.399219
20
3.064435
30
-0.704782
11
-8.399219
21
2.920435
31
-0.704782
12
-8.383924
22
2.920435
32
-0.706288
13
-8.383924
23
2.920435
33
-0.706288
0
3DFACE
8
0
10
-8.397034
20
3.064435
30
-0.805797
11
-8.418883
21
3.064435
31
-0.803645
12
-8.399219
22
3.064435
32
-0.704782
13
-8.399219
23
3.064435
33
-0.704782
0
3DFACE
8
0
10
-8.399219
20
3.064435
30
-0.704782
11
-8.383924
21
3.064435
31
-0.706288
12
-8.397034
22
3.064435
32
-0.805797
13
-8.397034
23
3.064435
33
-0.805797
0
3DFACE
8
0
10
-8.353333
20
2.920435
30
-0.709301
11
-8.353333
21
3.064435
31
-0.709301
12
-8.368629
22
3.064435
32
-0.707795
13
-8.368629
23
3.064435
33
-0.707795
0
3DFACE
8
0
10
-8.368629
20
3.064435
30
-0.707795
11
-8.368629
21
2.920435
31
-0.707795
12
-8.353333
22
2.920435
32
-0.709301
13
-8.353333
23
2.920435
33
-0.709301
0
3DFACE
8
0
10
-8.368629
20
2.920435
30
-0.707795
11
-8.368629
21
3.064435
31
-0.707795
12
-8.383924
22
3.064435
32
-0.706288
13
-8.383924
23
3.064435
33
-0.706288
0
3DFACE
8
0
10
-8.383924
20
3.064435
30
-0.706288
11
-8.383924
21
2.920435
31
-0.706288
12
-8.368629
22
2.920435
32
-0.707795
13
-8.368629
23
2.920435
33
-0.707795
0
3DFACE
8
0
10
-8.353333
20
3.064435
30
-0.709301
11
-8.353333
21
3.064435
31
-0.810101
12
-8.375183
22
3.064435
32
-0.807949
13
-8.375183
23
3.064435
33
-0.807949
0
3DFACE
8
0
10
-8.375183
20
3.064435
30
-0.807949
11
-8.368629
21
3.064435
31
-0.707795
12
-8.353333
22
3.064435
32
-0.709301
13
-8.353333
23
3.064435
33
-0.709301
0
3DFACE
8
0
10
-8.368629
20
3.064435
30
-0.707795
11
-8.375183
21
3.064435
31
-0.807949
12
-8.397034
22
3.064435
32
-0.805797
13
-8.397034
23
3.064435
33
-0.805797
0
3DFACE
8
0
10
-8.397034
20
3.064435
30
-0.805797
11
-8.383924
21
3.064435
31
-0.706288
12
-8.368629
22
3.064435
32
-0.707795
13
-8.368629
23
3.064435
33
-0.707795
0
3DFACE
8
0
10
-8.375183
20
3.064435
30
-0.807949
11
-8.353333
21
3.064435
31
-0.810101
12
-8.353333
22
3.312435
32
-0.810101
13
-8.353333
23
3.312435
33
-0.810101
0
3DFACE
8
0
10
-8.353333
20
3.312435
30
-0.810101
11
-8.375183
21
3.312435
31
-0.807949
12
-8.375183
22
3.064435
32
-0.807949
13
-8.375183
23
3.064435
33
-0.807949
0
3DFACE
8
0
10
-8.397034
20
3.064435
30
-0.805797
11
-8.375183
21
3.064435
31
-0.807949
12
-8.375183
22
3.312435
32
-0.807949
13
-8.375183
23
3.312435
33
-0.807949
0
3DFACE
8
0
10
-8.375183
20
3.312435
30
-0.807949
11
-8.397034
21
3.312435
31
-0.805797
12
-8.397034
22
3.064435
32
-0.805797
13
-8.397034
23
3.064435
33
-0.805797
0
3DFACE
8
0
10
-8.428633
20
2.920435
30
-0.695859
11
-8.428633
21
3.064435
31
-0.695859
12
-8.443340
22
3.064435
32
-0.691398
13
-8.443340
23
3.064435
33
-0.691398
0
3DFACE
8
0
10
-8.443340
20
3.064435
30
-0.691398
11
-8.443340
21
2.920435
31
-0.691398
12
-8.428633
22
2.920435
32
-0.695859
13
-8.428633
23
2.920435
33
-0.695859
0
3DFACE
8
0
10
-8.460904
20
3.064435
30
-0.790898
11
-8.481915
21
3.064435
31
-0.784525
12
-8.443340
22
3.064435
32
-0.691398
13
-8.443340
23
3.064435
33
-0.691398
0
3DFACE
8
0
10
-8.443340
20
3.064435
30
-0.691398
11
-8.428633
21
3.064435
31
-0.695859
12
-8.460904
22
3.064435
32
-0.790898
13
-8.460904
23
3.064435
33
-0.790898
0
3DFACE
8
0
10
-8.399219
20
2.920435
30
-0.704782
11
-8.399219
21
3.064435
31
-0.704782
12
-8.413926
22
3.064435
32
-0.700321
13
-8.413926
23
3.064435
33
-0.700321
0
3DFACE
8
0
10
-8.413926
20
3.064435
30
-0.700321
11
-8.413926
21
2.920435
31
-0.700321
12
-8.399219
22
2.920435
32
-0.704782
13
-8.399219
23
2.920435
33
-0.704782
0
3DFACE
8
0
10
-8.413926
20
2.920435
30
-0.700321
11
-8.413926
21
3.064435
31
-0.700321
12
-8.428633
22
3.064435
32
-0.695859
13
-8.428633
23
3.064435
33
-0.695859
0
3DFACE
8
0
10
-8.428633
20
3.064435
30
-0.695859
11
-8.428633
21
2.920435
31
-0.695859
12
-8.413926
22
2.920435
32
-0.700321
13
-8.413926
23
2.920435
33
-0.700321
0
3DFACE
8
0
10
-8.399219
20
3.064435
30
-0.704782
11
-8.418883
21
3.064435
31
-0.803645
12
-8.439894
22
3.064435
32
-0.797272
13
-8.439894
23
3.064435
33
-0.797272
0
3DFACE
8
0
10
-8.439894
20
3.064435
30
-0.797272
11
-8.413926
21
3.064435
31
-0.700321
12
-8.399219
22
3.064435
32
-0.704782
13
-8.399219
23
3.064435
33
-0.704782
0
3DFACE
8
0
10
-8.439894
20
3.064435
30
-0.797272
11
-8.460904
21
3.064435
31
-0.790898
12
-8.428633
22
3.064435
32
-0.695859
13
-8.428633
23
3.064435
33
-0.695859
0
3DFACE
8
0
10
-8.428633
20
3.064435
30
-0.695859
11
-8.413926
21
3.064435
31
-0.700321
12
-8.439894
22
3.064435
32
-0.797272
13
-8.439894
23
3.064435
33
-0.797272
0
3DFACE
8
0
10
-8.439894
20
3.064435
30
-0.797272
11
-8.418883
21
3.064435
31
-0.803645
12
-8.418883
22
3.312435
32
-0.803645
13
-8.418883
23
3.312435
33
-0.803645
0
3DFACE
8
0
10
-8.418883
20
3.312435
30
-0.803645
11
-8.439894
21
3.312435
31
-0.797272
12
-8.439894
22
3.064435
32
-0.797272
13
-8.439894
23
3.064435
33
-0.797272
0
3DFACE
8
0
10
-8.460904
20
3.064435
30
-0.790898
11
-8.439894
21
3.064435
31
-0.797272
12
-8.439894
22
3.312435
32
-0.797272
13
-8.439894
23
3.312435
33
-0.797272
0
3DFACE
8
0
10
-8.439894
20
3.312435
30
-0.797272
11
-8.460904
21
3.312435
31
-0.790898
12
-8.460904
22
3.064435
32
-0.790898
13
-8.460904
23
3.064435
33
-0.790898
0
3DFACE
8
0
10
-8.470449
20
2.920435
30
-0.676908
11
-8.470449
21
3.064435
31
-0.676908
12
-8.484003
22
3.064435
32
-0.669663
13
-8.484003
23
3.064435
33
-0.669663
0
3DFACE
8
0
10
-8.484003
20
3.064435
30
-0.669663
11
-8.484003
21
2.920435
31
-0.669663
12
-8.470449
22
2.920435
32
-0.676908
13
-8.470449
23
2.920435
33
-0.676908
0
3DFACE
8
0
10
-8.520641
20
3.064435
30
-0.763825
11
-8.540005
21
3.064435
31
-0.753475
12
-8.484003
22
3.064435
32
-0.669663
13
-8.484003
23
3.064435
33
-0.669663
0
3DFACE
8
0
10
-8.484003
20
3.064435
30
-0.669663
11
-8.470449
21
3.064435
31
-0.676908
12
-8.520641
22
3.064435
32
-0.763825
13
-8.520641
23
3.064435
33
-0.763825
0
3DFACE
8
0
10
-8.443340
20
2.920435
30
-0.691398
11
-8.443340
21
3.064435
31
-0.691398
12
-8.456895
22
3.064435
32
-0.684153
13
-8.456895
23
3.064435
33
-0.684153
0
3DFACE
8
0
10
-8.456895
20
3.064435
30
-0.684153
11
-8.456895
21
2.920435
31
-0.684153
12
-8.443340
22
2.920435
32
-0.691398
13
-8.443340
23
2.920435
33
-0.691398
0
3DFACE
8
0
10
-8.456895
20
2.920435
30
-0.684153
11
-8.456895
21
3.064435
31
-0.684153
12
-8.470449
22
3.064435
32
-0.676908
13
-8.470449
23
3.064435
33
-0.676908
0
3DFACE
8
0
10
-8.470449
20
3.064435
30
-0.676908
11
-8.470449
21
2.920435
31
-0.676908
12
-8.456895
22
2.920435
32
-0.684153
13
-8.456895
23
2.920435
33
-0.684153
0
3DFACE
8
0
10
-8.443340
20
3.064435
30
-0.691398
11
-8.481915
21
3.064435
31
-0.784525
12
-8.501278
22
3.064435
32
-0.774175
13
-8.501278
23
3.064435
33
-0.774175
0
3DFACE
8
0
10
-8.501278
20
3.064435
30
-0.774175
11
-8.456895
21
3.064435
31
-0.684153
12
-8.443340
22
3.064435
32
-0.691398
13
-8.443340
23
3.064435
33
-0.691398
0
3DFACE
8
0
10
-8.501278
20
3.064435
30
-0.774175
11
-8.520641
21
3.064435
31
-0.763825
12
-8.470449
22
3.064435
32
-0.676908
13
-8.470449
23
3.064435
33
-0.676908
0
3DFACE
8
0
10
-8.470449
20
3.064435
30
-0.676908
11
-8.456895
21
3.064435
31
-0.684153
12
-8.501278
22
3.064435
32
-0.774175
13
-8.501278
23
3.064435
33
-0.774175
0
3DFACE
8
0
10
-8.501278
20
3.064435
30
-0.774175
11
-8.481915
21
3.064435
31
-0.784525
12
-8.481915
22
3.312435
32
-0.784525
13
-8.481915
23
3.312435
33
-0.784525
0
3DFACE
8
0
10
-8.481915
20
3.312435
30
-0.784525
11
-8.501278
21
3.312435
31
-0.774175
12
-8.501278
22
3.064435
32
-0.774175
13
-8.501278
23
3.064435
33
-0.774175
0
3DFACE
8
0
10
-8.520641
20
3.064435
30
-0.763825
11
-8.501278
21
3.064435
31
-0.774175
12
-8.501278
22
3.312435
32
-0.774175
13
-8.501278
23
3.312435
33
-0.774175
0
3DFACE
8
0
10
-8.501278
20
3.312435
30
-0.774175
11
-8.520641
21
3.312435
31
-0.763825
12
-8.520641
22
3.064435
32
-0.763825
13
-8.520641
23
3.064435
33
-0.763825
0
3DFACE
8
0
10
-8.507765
20
2.920435
30
-0.650163
11
-8.507765
21
3.064435
31
-0.650163
12
-8.519645
22
3.064435
32
-0.640413
13
-8.519645
23
3.064435
33
-0.640413
0
3DFACE
8
0
10
-8.519645
20
3.064435
30
-0.640413
11
-8.519645
21
2.920435
31
-0.640413
12
-8.507765
22
2.920435
32
-0.650163
13
-8.507765
23
2.920435
33
-0.650163
0
3DFACE
8
0
10
-8.573949
20
3.064435
30
-0.725618
11
-8.590921
21
3.064435
31
-0.711689
12
-8.519645
22
3.064435
32
-0.640413
13
-8.519645
23
3.064435
33
-0.640413
0
3DFACE
8
0
10
-8.519645
20
3.064435
30
-0.640413
11
-8.507765
21
3.064435
31
-0.650163
12
-8.573949
22
3.064435
32
-0.725618
13
-8.573949
23
3.064435
33
-0.725618
0
3DFACE
8
0
10
-8.484003
20
2.920435
30
-0.669663
11
-8.484003
21
3.064435
31
-0.669663
12
-8.495884
22
3.064435
32
-0.659913
13
-8.495884
23
3.064435
33
-0.659913
0
3DFACE
8
0
10
-8.495884
20
3.064435
30
-0.659913
11
-8.495884
21
2.920435
31
-0.659913
12
-8.484003
22
2.920435
32
-0.669663
13
-8.484003
23
2.920435
33
-0.669663
0
3DFACE
8
0
10
-8.495884
20
2.920435
30
-0.659913
11
-8.495884
21
3.064435
31
-0.659913
12
-8.507765
22
3.064435
32
-0.650163
13
-8.507765
23
3.064435
33
-0.650163
0
3DFACE
8
0
10
-8.507765
20
3.064435
30
-0.650163
11
-8.507765
21
2.920435
31
-0.650163
12
-8.495884
22
2.920435
32
-0.659913
13
-8.495884
23
2.920435
33
-0.659913
0
3DFACE
8
0
10
-8.484003
20
3.064435
30
-0.669663
11
-8.540005
21
3.064435
31
-0.753475
12
-8.556977
22
3.064435
32
-0.739546
13
-8.556977
23
3.064435
33
-0.739546
0
3DFACE
8
0
10
-8.556977
20
3.064435
30
-0.739546
11
-8.495884
21
3.064435
31
-0.659913
12
-8.484003
22
3.064435
32
-0.669663
13
-8.484003
23
3.064435
33
-0.669663
0
3DFACE
8
0
10
-8.556977
20
3.064435
30
-0.739546
11
-8.573949
21
3.064435
31
-0.725618
12
-8.507765
22
3.064435
32
-0.650163
13
-8.507765
23
3.064435
33
-0.650163
0
3DFACE
8
0
10
-8.507765
20
3.064435
30
-0.650163
11
-8.495884
21
3.064435
31
-0.659913
12
-8.556977
22
3.064435
32
-0.739546
13
-8.556977
23
3.064435
33
-0.739546
0
3DFACE
8
0
10
-8.556977
20
3.064435
30
-0.739546
11
-8.540005
21
3.064435
31
-0.753475
12
-8.540005
22
3.312435
32
-0.753475
13
-8.540005
23
3.312435
33
-0.753475
0
3DFACE
8
0
10
-8.540005
20
3.312435
30
-0.753475
11
-8.556977
21
3.312435
31
-0.739546
12
-8.556977
22
3.064435
32
-0.739546
13
-8.556977
23
3.064435
33
-0.739546
0
3DFACE
8
0
10
-8.573949
20
3.064435
30
-0.725618
11
-8.556977
21
3.064435
31
-0.739546
12
-8.556977
22
3.312435
32
-0.739546
13
-8.556977
23
3.312435
33
-0.739546
0
3DFACE
8
0
10
-8.556977
20
3.312435
30
-0.739546
11
-8.573949
21
3.312435
31
-0.725618
12
-8.573949
22
3.064435
32
-0.725618
13
-8.573949
23
3.064435
33
-0.725618
0
3DFACE
8
0
10
-8.539145
20
3.064435
30
-0.616652
11
-8.548895
21
3.064435
31
-0.604771
12
-8.548895
22
2.920435
32
-0.604771
13
-8.548895
23
2.920435
33
-0.604771
0
3DFACE
8
0
10
-8.548895
20
2.920435
30
-0.604771
11
-8.539145
21
2.920435
31
-0.616652
12
-8.539145
22
3.064435
32
-0.616652
13
-8.539145
23
3.064435
33
-0.616652
0
3DFACE
8
0
10
-8.618778
20
3.064435
30
-0.677745
11
-8.632708
21
3.064435
31
-0.660773
12
-8.548895
22
3.064435
32
-0.604771
13
-8.548895
23
3.064435
33
-0.604771
0
3DFACE
8
0
10
-8.548895
20
3.064435
30
-0.604771
11
-8.539145
21
3.064435
31
-0.616652
12
-8.618778
22
3.064435
32
-0.677745
13
-8.618778
23
3.064435
33
-0.677745
0
3DFACE
8
0
10
-8.519645
20
3.064435
30
-0.640413
11
-8.529395
21
3.064435
31
-0.628532
12
-8.529395
22
2.920435
32
-0.628532
13
-8.529395
23
2.920435
33
-0.628532
0
3DFACE
8
0
10
-8.529395
20
2.920435
30
-0.628532
11
-8.519645
21
2.920435
31
-0.640413
12
-8.519645
22
3.064435
32
-0.640413
13
-8.519645
23
3.064435
33
-0.640413
0
3DFACE
8
0
10
-8.529395
20
3.064435
30
-0.628532
11
-8.539145
21
3.064435
31
-0.616652
12
-8.539145
22
2.920435
32
-0.616652
13
-8.539145
23
2.920435
33
-0.616652
0
3DFACE
8
0
10
-8.539145
20
2.920435
30
-0.616652
11
-8.529395
21
2.920435
31
-0.628532
12
-8.529395
22
3.064435
32
-0.628532
13
-8.529395
23
3.064435
33
-0.628532
0
3DFACE
8
0
10
-8.519645
20
3.064435
30
-0.640413
11
-8.590921
21
3.064435
31
-0.711689
12
-8.604850
22
3.064435
32
-0.694717
13
-8.604850
23
3.064435
33
-0.694717
0
3DFACE
8
0
10
-8.604850
20
3.064435
30
-0.694717
11
-8.529395
21
3.064435
31
-0.628532
12
-8.519645
22
3.064435
32
-0.640413
13
-8.519645
23
3.064435
33
-0.640413
0
3DFACE
8
0
10
-8.529395
20
3.064435
30
-0.628532
11
-8.604850
21
3.064435
31
-0.694717
12
-8.618778
22
3.064435
32
-0.677745
13
-8.618778
23
3.064435
33
-0.677745
0
3DFACE
8
0
10
-8.618778
20
3.064435
30
-0.677745
11
-8.539145
21
3.064435
31
-0.616652
12
-8.529395
22
3.064435
32
-0.628532
13
-8.529395
23
3.064435
33
-0.628532
0
3DFACE
8
0
10
-8.604850
20
3.064435
30
-0.694717
11
-8.590921
21
3.064435
31
-0.711689
12
-8.590921
22
3.312435
32
-0.711689
13
-8.590921
23
3.312435
33
-0.711689
0
3DFACE
8
0
10
-8.590921
20
3.312435
30
-0.711689
11
-8.604850
21
3.312435
31
-0.694717
12
-8.604850
22
3.064435
32
-0.694717
13
-8.604850
23
3.064435
33
-0.694717
0
3DFACE
8
0
10
-8.618778
20
3.064435
30
-0.677745
11
-8.604850
21
3.064435
31
-0.694717
12
-8.604850
22
3.312435
32
-0.694717
13
-8.604850
23
3.312435
33
-0.694717
0
3DFACE
8
0
10
-8.604850
20
3.312435
30
-0.694717
11
-8.618778
21
3.312435
31
-0.677745
12
-8.618778
22
3.064435
32
-0.677745
13
-8.618778
23
3.064435
33
-0.677745
0
3DFACE
8
0
10
-8.563385
20
3.064435
30
-0.577663
11
-8.570630
21
3.064435
31
-0.564108
12
-8.570630
22
2.920435
32
-0.564108
13
-8.570630
23
2.920435
33
-0.564108
0
3DFACE
8
0
10
-8.570630
20
2.920435
30
-0.564108
11
-8.563385
21
2.920435
31
-0.577663
12
-8.563385
22
3.064435
32
-0.577663
13
-8.563385
23
3.064435
33
-0.577663
0
3DFACE
8
0
10
-8.653407
20
3.064435
30
-0.622046
11
-8.663757
21
3.064435
31
-0.602683
12
-8.570630
22
3.064435
32
-0.564108
13
-8.570630
23
3.064435
33
-0.564108
0
3DFACE
8
0
10
-8.570630
20
3.064435
30
-0.564108
11
-8.563385
21
3.064435
31
-0.577663
12
-8.653407
22
3.064435
32
-0.622046
13
-8.653407
23
3.064435
33
-0.622046
0
3DFACE
8
0
10
-8.548895
20
3.064435
30
-0.604771
11
-8.556140
21
3.064435
31
-0.591217
12
-8.556140
22
2.920435
32
-0.591217
13
-8.556140
23
2.920435
33
-0.591217
0
3DFACE
8
0
10
-8.556140
20
2.920435
30
-0.591217
11
-8.548895
21
2.920435
31
-0.604771
12
-8.548895
22
3.064435
32
-0.604771
13
-8.548895
23
3.064435
33
-0.604771
0
3DFACE
8
0
10
-8.556140
20
3.064435
30
-0.591217
11
-8.563385
21
3.064435
31
-0.577663
12
-8.563385
22
2.920435
32
-0.577663
13
-8.563385
23
2.920435
33
-0.577663
0
3DFACE
8
0
10
-8.563385
20
2.920435
30
-0.577663
11
-8.556140
21
2.920435
31
-0.591217
12
-8.556140
22
3.064435
32
-0.591217
13
-8.556140
23
3.064435
33
-0.591217
0
3DFACE
8
0
10
-8.548895
20
3.064435
30
-0.604771
11
-8.632708
21
3.064435
31
-0.660773
12
-8.643057
22
3.064435
32
-0.641410
13
-8.643057
23
3.064435
33
-0.641410
0
3DFACE
8
0
10
-8.643057
20
3.064435
30
-0.641410
11
-8.556140
21
3.064435
31
-0.591217
12
-8.548895
22
3.064435
32
-0.604771
13
-8.548895
23
3.064435
33
-0.604771
0
3DFACE
8
0
10
-8.556140
20
3.064435
30
-0.591217
11
-8.643057
21
3.064435
31
-0.641410
12
-8.653407
22
3.064435
32
-0.622046
13
-8.653407
23
3.064435
33
-0.622046
0
3DFACE
8
0
10
-8.653407
20
3.064435
30
-0.622046
11
-8.563385
21
3.064435
31
-0.577663
12
-8.556140
22
3.064435
32
-0.591217
13
-8.556140
23
3.064435
33
-0.591217
0
3DFACE
8
0
10
-8.643057
20
3.064435
30
-0.641410
11
-8.632708
21
3.064435
31
-0.660773
12
-8.632708
22
3.312435
32
-0.660773
13
-8.632708
23
3.312435
33
-0.660773
0
3DFACE
8
0
10
-8.632708
20
3.312435
30
-0.660773
11
-8.643057
21
3.312435
31
-0.641410
12
-8.643057
22
3.064435
32
-0.641410
13
-8.643057
23
3.064435
33
-0.641410
0
3DFACE
8
0
10
-8.653407
20
3.064435
30
-0.622046
11
-8.643057
21
3.064435
31
-0.641410
12
-8.643057
22
3.312435
32
-0.641410
13
-8.643057
23
3.312435
33
-0.641410
0
3DFACE
8
0
10
-8.643057
20
3.312435
30
-0.641410
11
-8.653407
21
3.312435
31
-0.622046
12
-8.653407
22
3.064435
32
-0.622046
13
-8.653407
23
3.064435
33
-0.622046
0
3DFACE
8
0
10
-8.579553
20
3.064435
30
-0.534694
11
-8.584014
21
3.064435
31
-0.519987
12
-8.584014
22
2.920435
32
-0.519987
13
-8.584014
23
2.920435
33
-0.519987
0
3DFACE
8
0
10
-8.584014
20
2.920435
30
-0.519987
11
-8.579553
21
2.920435
31
-0.534694
12
-8.579553
22
3.064435
32
-0.534694
13
-8.579553
23
3.064435
33
-0.534694
0
3DFACE
8
0
10
-8.676504
20
3.064435
30
-0.560662
11
-8.682878
21
3.064435
31
-0.539652
12
-8.584014
22
3.064435
32
-0.519987
13
-8.584014
23
3.064435
33
-0.519987
0
3DFACE
8
0
10
-8.584014
20
3.064435
30
-0.519987
11
-8.579553
21
3.064435
31
-0.534694
12
-8.676504
22
3.064435
32
-0.560662
13
-8.676504
23
3.064435
33
-0.560662
0
3DFACE
8
0
10
-8.570630
20
3.064435
30
-0.564108
11
-8.575091
21
3.064435
31
-0.549401
12
-8.575091
22
2.920435
32
-0.549401
13
-8.575091
23
2.920435
33
-0.549401
0
3DFACE
8
0
10
-8.575091
20
2.920435
30
-0.549401
11
-8.570630
21
2.920435
31
-0.564108
12
-8.570630
22
3.064435
32
-0.564108
13
-8.570630
23
3.064435
33
-0.564108
0
3DFACE
8
0
10
-8.575091
20
3.064435
30
-0.549401
11
-8.579553
21
3.064435
31
-0.534694
12
-8.579553
22
2.920435
32
-0.534694
13
-8.579553
23
2.920435
33
-0.534694
0
3DFACE
8
0
10
-8.579553
20
2.920435
30
-0.534694
11
-8.575091
21
2.920435
31
-0.549401
12
-8.575091
22
3.064435
32
-0.549401
13
-8.575091
23
3.064435
33
-0.549401
0
3DFACE
8
0
10
-8.570630
20
3.064435
30
-0.564108
11
-8.663757
21
3.064435
31
-0.602683
12
-8.670131
22
3.064435
32
-0.581672
13
-8.670131
23
3.064435
33
-0.581672
0
3DFACE
8
0
10
-8.670131
20
3.064435
30
-0.581672
11
-8.575091
21
3.064435
31
-0.549401
12
-8.570630
22
3.064435
32
-0.564108
13
-8.570630
23
3.064435
33
-0.564108
0
3DFACE
8
0
10
-8.575091
20
3.064435
30
-0.549401
11
-8.670131
21
3.064435
31
-0.581672
12
-8.676504
22
3.064435
32
-0.560662
13
-8.676504
23
3.064435
33
-0.560662
0
3DFACE
8
0
10
-8.676504
20
3.064435
30
-0.560662
11
-8.579553
21
3.064435
31
-0.534694
12
-8.575091
22
3.064435
32
-0.549401
13
-8.575091
23
3.064435
33
-0.549401
0
3DFACE
8
0
10
-8.670131
20
3.064435
30
-0.581672
11
-8.663757
21
3.064435
31
-0.602683
12
-8.663757
22
3.312435
32
-0.602683
13
-8.663757
23
3.312435
33
-0.602683
0
3DFACE
8
0
10
-8.663757
20
3.312435
30
-0.602683
11
-8.670131
21
3.312435
31
-0.581672
12
-8.670131
22
3.064435
32
-0.581672
13
-8.670131
23
3.064435
33
-0.581672
0
3DFACE
8
0
10
-8.676504
20
3.064435
30
-0.560662
11
-8.670131
21
3.064435
31
-0.581672
12
-8.670131
22
3.312435
32
-0.581672
13
-8.670131
23
3.312435
33
-0.581672
0
3DFACE
8
0
10
-8.670131
20
3.312435
30
-0.581672
11
-8.676504
21
3.312435
31
-0.560662
12
-8.676504
22
3.064435
32
-0.560662
13
-8.676504
23
3.064435
33
-0.560662
0
3DFACE
8
0
10
-8.587027
20
3.064435
30
-0.489396
11
-8.588533
21
3.064435
31
-0.474101
12
-8.588533
22
2.920435
32
-0.474101
13
-8.588533
23
2.920435
33
-0.474101
0
3DFACE
8
0
10
-8.588533
20
2.920435
30
-0.474101
11
-8.587027
21
2.920435
31
-0.489396
12
-8.587027
22
3.064435
32
-0.489396
13
-8.587027
23
3.064435
33
-0.489396
0
3DFACE
8
0
10
-8.687181
20
3.064435
30
-0.495951
11
-8.689333
21
3.064435
31
-0.474101
12
-8.588533
22
3.064435
32
-0.474101
13
-8.588533
23
3.064435
33
-0.474101
0
3DFACE
8
0
10
-8.588533
20
3.064435
30
-0.474101
11
-8.587027
21
3.064435
31
-0.489396
12
-8.687181
22
3.064435
32
-0.495951
13
-8.687181
23
3.064435
33
-0.495951
0
3DFACE
8
0
10
-8.584014
20
3.064435
30
-0.519987
11
-8.585521
21
3.064435
31
-0.504691
12
-8.585521
22
2.920435
32
-0.504691
13
-8.585521
23
2.920435
33
-0.504691
0
3DFACE
8
0
10
-8.585521
20
2.920435
30
-0.504691
11
-8.584014
21
2.920435
31
-0.519987
12
-8.584014
22
3.064435
32
-0.519987
13
-8.584014
23
3.064435
33
-0.519987
0
3DFACE
8
0
10
-8.585521
20
3.064435
30
-0.504691
11
-8.587027
21
3.064435
31
-0.489396
12
-8.587027
22
2.920435
32
-0.489396
13
-8.587027
23
2.920435
33
-0.489396
0
3DFACE
8
0
10
-8.587027
20
2.920435
30
-0.489396
11
-8.585521
21
2.920435
31
-0.504691
12
-8.585521
22
3.064435
32
-0.504691
13
-8.585521
23
3.064435
33
-0.504691
0
3DFACE
8
0
10
-8.584014
20
3.064435
30
-0.519987
11
-8.682878
21
3.064435
31
-0.539652
12
-8.685029
22
3.064435
32
-0.517801
13
-8.685029
23
3.064435
33
-0.517801
0
3DFACE
8
0
10
-8.685029
20
3.064435
30
-0.517801
11
-8.585521
21
3.064435
31
-0.504691
12
-8.584014
22
3.064435
32
-0.519987
13
-8.584014
23
3.064435
33
-0.519987
0
3DFACE
8
0
10
-8.685029
20
3.064435
30
-0.517801
11
-8.687181
21
3.064435
31
-0.495951
12
-8.587027
22
3.064435
32
-0.489396
13
-8.587027
23
3.064435
33
-0.489396
0
3DFACE
8
0
10
-8.587027
20
3.064435
30
-0.489396
11
-8.585521
21
3.064435
31
-0.504691
12
-8.685029
22
3.064435
32
-0.517801
13
-8.685029
23
3.064435
33
-0.517801
0
3DFACE
8
0
10
-8.685029
20
3.064435
30
-0.517801
11
-8.682878
21
3.064435
31
-0.539652
12
-8.682878
22
3.312435
32
-0.539652
13
-8.682878
23
3.312435
33
-0.539652
0
3DFACE
8
0
10
-8.682878
20
3.312435
30
-0.539652
11
-8.685029
21
3.312435
31
-0.517801
12
-8.685029
22
3.064435
32
-0.517801
13
-8.685029
23
3.064435
33
-0.517801
0
3DFACE
8
0
10
-8.687181
20
3.064435
30
-0.495951
11
-8.685029
21
3.064435
31
-0.517801
12
-8.685029
22
3.312435
32
-0.517801
13
-8.685029
23
3.312435
33
-0.517801
0
3DFACE
8
0
10
-8.685029
20
3.312435
30
-0.517801
11
-8.687181
21
3.312435
31
-0.495951
12
-8.687181
22
3.064435
32
-0.495951
13
-8.687181
23
3.064435
33
-0.495951
0
3DFACE
8
0
10
-8.585521
20
3.064435
30
-0.443511
11
-8.584014
21
3.064435
31
-0.428216
12
-8.584014
22
2.920435
32
-0.428216
13
-8.584014
23
2.920435
33
-0.428216
0
3DFACE
8
0
10
-8.584014
20
2.920435
30
-0.428216
11
-8.585521
21
2.920435
31
-0.443511
12
-8.585521
22
3.064435
32
-0.443511
13
-8.585521
23
3.064435
33
-0.443511
0
3DFACE
8
0
10
-8.685029
20
3.064435
30
-0.430401
11
-8.682878
21
3.064435
31
-0.408551
12
-8.584014
22
3.064435
32
-0.428216
13
-8.584014
23
3.064435
33
-0.428216
0
3DFACE
8
0
10
-8.584014
20
3.064435
30
-0.428216
11
-8.585521
21
3.064435
31
-0.443511
12
-8.685029
22
3.064435
32
-0.430401
13
-8.685029
23
3.064435
33
-0.430401
0
3DFACE
8
0
10
-8.588533
20
3.064435
30
-0.474101
11
-8.587027
21
3.064435
31
-0.458806
12
-8.587027
22
2.920435
32
-0.458806
13
-8.587027
23
2.920435
33
-0.458806
0
3DFACE
8
0
10
-8.587027
20
2.920435
30
-0.458806
11
-8.588533
21
2.920435
31
-0.474101
12
-8.588533
22
3.064435
32
-0.474101
13
-8.588533
23
3.064435
33
-0.474101
0
3DFACE
8
0
10
-8.587027
20
3.064435
30
-0.458806
11
-8.585521
21
3.064435
31
-0.443511
12
-8.585521
22
2.920435
32
-0.443511
13
-8.585521
23
2.920435
33
-0.443511
0
3DFACE
8
0
10
-8.585521
20
2.920435
30
-0.443511
11
-8.587027
21
2.920435
31
-0.458806
12
-8.587027
22
3.064435
32
-0.458806
13
-8.587027
23
3.064435
33
-0.458806
0
3DFACE
8
0
10
-8.588533
20
3.064435
30
-0.474101
11
-8.689333
21
3.064435
31
-0.474101
12
-8.687181
22
3.064435
32
-0.452251
13
-8.687181
23
3.064435
33
-0.452251
0
3DFACE
8
0
10
-8.687181
20
3.064435
30
-0.452251
11
-8.587027
21
3.064435
31
-0.458806
12
-8.588533
22
3.064435
32
-0.474101
13
-8.588533
23
3.064435
33
-0.474101
0
3DFACE
8
0
10
-8.687181
20
3.064435
30
-0.452251
11
-8.685029
21
3.064435
31
-0.430401
12
-8.585521
22
3.064435
32
-0.443511
13
-8.585521
23
3.064435
33
-0.443511
0
3DFACE
8
0
10
-8.585521
20
3.064435
30
-0.443511
11
-8.587027
21
3.064435
31
-0.458806
12
-8.687181
22
3.064435
32
-0.452251
13
-8.687181
23
3.064435
33
-0.452251
0
3DFACE
8
0
10
-8.687181
20
3.064435
30
-0.452251
11
-8.689333
21
3.064435
31
-0.474101
12
-8.689333
22
3.312435
32
-0.474101
13
-8.689333
23
3.312435
33
-0.474101
0
3DFACE
8
0
10
-8.689333
20
3.312435
30
-0.474101
11
-8.687181
21
3.312435
31
-0.452251
12
-8.687181
22
3.064435
32
-0.452251
13
-8.687181
23
3.064435
33
-0.452251
0
3DFACE
8
0
10
-8.685029
20
3.064435
30
-0.430401
11
-8.687181
21
3.064435
31
-0.452251
12
-8.687181
22
3.312435
32
-0.452251
13
-8.687181
23
3.312435
33
-0.452251
0
3DFACE
8
0
10
-8.687181
20
3.312435
30
-0.452251
11
-8.685029
21
3.312435
31
-0.430401
12
-8.685029
22
3.064435
32
-0.430401
13
-8.685029
23
3.064435
33
-0.430401
0
3DFACE
8
0
10
-8.575091
20
2.920435
30
-0.398801
11
-8.575091
21
3.064435
31
-0.398801
12
-8.570630
22
3.064435
32
-0.384094
13
-8.570630
23
3.064435
33
-0.384094
0
3DFACE
8
0
10
-8.570630
20
3.064435
30
-0.384094
11
-8.570630
21
2.920435
31
-0.384094
12
-8.575091
22
2.920435
32
-0.398801
13
-8.575091
23
2.920435
33
-0.398801
0
3DFACE
8
0
10
-8.670131
20
3.064435
30
-0.366530
11
-8.663757
21
3.064435
31
-0.345520
12
-8.570630
22
3.064435
32
-0.384094
13
-8.570630
23
3.064435
33
-0.384094
0
3DFACE
8
0
10
-8.570630
20
3.064435
30
-0.384094
11
-8.575091
21
3.064435
31
-0.398801
12
-8.670131
22
3.064435
32
-0.366530
13
-8.670131
23
3.064435
33
-0.366530
0
3DFACE
8
0
10
-8.584014
20
3.064435
30
-0.428216
11
-8.579553
21
3.064435
31
-0.413509
12
-8.579553
22
2.920435
32
-0.413509
13
-8.579553
23
2.920435
33
-0.413509
0
3DFACE
8
0
10
-8.579553
20
2.920435
30
-0.413509
11
-8.584014
21
2.920435
31
-0.428216
12
-8.584014
22
3.064435
32
-0.428216
13
-8.584014
23
3.064435
33
-0.428216
0
3DFACE
8
0
10
-8.579553
20
3.064435
30
-0.413509
11
-8.575091
21
3.064435
31
-0.398801
12
-8.575091
22
2.920435
32
-0.398801
13
-8.575091
23
2.920435
33
-0.398801
0
3DFACE
8
0
10
-8.575091
20
2.920435
30
-0.398801
11
-8.579553
21
2.920435
31
-0.413509
12
-8.579553
22
3.064435
32
-0.413509
13
-8.579553
23
3.064435
33
-0.413509
0
3DFACE
8
0
10
-8.584014
20
3.064435
30
-0.428216
11
-8.682878
21
3.064435
31
-0.408551
12
-8.676504
22
3.064435
32
-0.387540
13
-8.676504
23
3.064435
33
-0.387540
0
3DFACE
8
0
10
-8.676504
20
3.064435
30
-0.387540
11
-8.579553
21
3.064435
31
-0.413509
12
-8.584014
22
3.064435
32
-0.428216
13
-8.584014
23
3.064435
33
-0.428216
0
3DFACE
8
0
10
-8.676504
20
3.064435
30
-0.387540
11
-8.670131
21
3.064435
31
-0.366530
12
-8.575091
22
3.064435
32
-0.398801
13
-8.575091
23
3.064435
33
-0.398801
0
3DFACE
8
0
10
-8.575091
20
3.064435
30
-0.398801
11
-8.579553
21
3.064435
31
-0.413509
12
-8.676504
22
3.064435
32
-0.387540
13
-8.676504
23
3.064435
33
-0.387540
0
3DFACE
8
0
10
-8.676504
20
3.064435
30
-0.387540
11
-8.682878
21
3.064435
31
-0.408551
12
-8.682878
22
3.312435
32
-0.408551
13
-8.682878
23
3.312435
33
-0.408551
0
3DFACE
8
0
10
-8.682878
20
3.312435
30
-0.408551
11
-8.676504
21
3.312435
31
-0.387540
12
-8.676504
22
3.064435
32
-0.387540
13
-8.676504
23
3.064435
33
-0.387540
0
3DFACE
8
0
10
-8.670131
20
3.064435
30
-0.366530
11
-8.676504
21
3.064435
31
-0.387540
12
-8.676504
22
3.312435
32
-0.387540
13
-8.676504
23
3.312435
33
-0.387540
0
3DFACE
8
0
10
-8.676504
20
3.312435
30
-0.387540
11
-8.670131
21
3.312435
31
-0.366530
12
-8.670131
22
3.064435
32
-0.366530
13
-8.670131
23
3.064435
33
-0.366530
0
3DFACE
8
0
10
-8.556140
20
3.064435
30
-0.356985
11
-8.548895
21
3.064435
31
-0.343431
12
-8.548895
22
2.920435
32
-0.343431
13
-8.548895
23
2.920435
33
-0.343431
0
3DFACE
8
0
10
-8.548895
20
2.920435
30
-0.343431
11
-8.556140
21
2.920435
31
-0.356985
12
-8.556140
22
3.064435
32
-0.356985
13
-8.556140
23
3.064435
33
-0.356985
0
3DFACE
8
0
10
-8.643057
20
3.064435
30
-0.306793
11
-8.632707
21
3.064435
31
-0.287430
12
-8.548895
22
3.064435
32
-0.343431
13
-8.548895
23
3.064435
33
-0.343431
0
3DFACE
8
0
10
-8.548895
20
3.064435
30
-0.343431
11
-8.556140
21
3.064435
31
-0.356985
12
-8.643057
22
3.064435
32
-0.306793
13
-8.643057
23
3.064435
33
-0.306793
0
3DFACE
8
0
10
-8.570630
20
2.920435
30
-0.384094
11
-8.570630
21
3.064435
31
-0.384094
12
-8.563385
22
3.064435
32
-0.370540
13
-8.563385
23
3.064435
33
-0.370540
0
3DFACE
8
0
10
-8.563385
20
3.064435
30
-0.370540
11
-8.563385
21
2.920435
31
-0.370540
12
-8.570630
22
2.920435
32
-0.384094
13
-8.570630
23
2.920435
33
-0.384094
0
3DFACE
8
0
10
-8.563385
20
2.920435
30
-0.370540
11
-8.563385
21
3.064435
31
-0.370540
12
-8.556140
22
3.064435
32
-0.356985
13
-8.556140
23
3.064435
33
-0.356985
0
3DFACE
8
0
10
-8.556140
20
3.064435
30
-0.356985
11
-8.556140
21
2.920435
31
-0.356985
12
-8.563385
22
2.920435
32
-0.370540
13
-8.563385
23
2.920435
33
-0.370540
0
3DFACE
8
0
10
-8.570630
20
3.064435
30
-0.384094
11
-8.663757
21
3.064435
31
-0.345520
12
-8.653407
22
3.064435
32
-0.326156
13
-8.653407
23
3.064435
33
-0.326156
0
3DFACE
8
0
10
-8.653407
20
3.064435
30
-0.326156
11
-8.563385
21
3.064435
31
-0.370540
12
-8.570630
22
3.064435
32
-0.384094
13
-8.570630
23
3.064435
33
-0.384094
0
3DFACE
8
0
10
-8.563385
20
3.064435
30
-0.370540
11
-8.653407
21
3.064435
31
-0.326156
12
-8.643057
22
3.064435
32
-0.306793
13
-8.643057
23
3.064435
33
-0.306793
0
3DFACE
8
0
10
-8.643057
20
3.064435
30
-0.306793
11
-8.556140
21
3.064435
31
-0.356985
12
-8.563385
22
3.064435
32
-0.370540
13
-8.563385
23
3.064435
33
-0.370540
0
3DFACE
8
0
10
-8.653407
20
3.064435
30
-0.326156
11
-8.663757
21
3.064435
31
-0.345520
12
-8.663757
22
3.312435
32
-0.345520
13
-8.663757
23
3.312435
33
-0.345520
0
3DFACE
8
0
10
-8.663757
20
3.312435
30
-0.345520
11
-8.653407
21
3.312435
31
-0.326156
12
-8.653407
22
3.064435
32
-0.326156
13
-8.653407
23
3.064435
33
-0.326156
0
3DFACE
8
0
10
-8.643057
20
3.064435
30
-0.306793
11
-8.653407
21
3.064435
31
-0.326156
12
-8.653407
22
3.312435
32
-0.326156
13
-8.653407
23
3.312435
33
-0.326156
0
3DFACE
8
0
10
-8.653407
20
3.312435
30
-0.326156
11
-8.643057
21
3.312435
31
-0.306793
12
-8.643057
22
3.064435
32
-0.306793
13
-8.643057
23
3.064435
33
-0.306793
0
3DFACE
8
0
10
-8.529395
20
3.064435
30
-0.319670
11
-8.519645
21
3.064435
31
-0.307790
12
-8.519645
22
2.920435
32
-0.307790
13
-8.519645
23
2.920435
33
-0.307790
0
3DFACE
8
0
10
-8.519645
20
2.920435
30
-0.307790
11
-8.529395
21
2.920435
31
-0.319670
12
-8.529395
22
3.064435
32
-0.319670
13
-8.529395
23
3.064435
33
-0.319670
0
3DFACE
8
0
10
-8.604850
20
3.064435
30
-0.253485
11
-8.590921
21
3.064435
31
-0.236513
12
-8.519645
22
3.064435
32
-0.307790
13
-8.519645
23
3.064435
33
-0.307790
0
3DFACE
8
0
10
-8.519645
20
3.064435
30
-0.307790
11
-8.529395
21
3.064435
31
-0.319670
12
-8.604850
22
3.064435
32
-0.253485
13
-8.604850
23
3.064435
33
-0.253485
0
3DFACE
8
0
10
-8.548895
20
3.064435
30
-0.343431
11
-8.539145
21
3.064435
31
-0.331551
12
-8.539145
22
2.920435
32
-0.331551
13
-8.539145
23
2.920435
33
-0.331551
0
3DFACE
8
0
10
-8.539145
20
2.920435
30
-0.331551
11
-8.548895
21
2.920435
31
-0.343431
12
-8.548895
22
3.064435
32
-0.343431
13
-8.548895
23
3.064435
33
-0.343431
0
3DFACE
8
0
10
-8.539145
20
3.064435
30
-0.331551
11
-8.529395
21
3.064435
31
-0.319670
12
-8.529395
22
2.920435
32
-0.319670
13
-8.529395
23
2.920435
33
-0.319670
0
3DFACE
8
0
10
-8.529395
20
2.920435
30
-0.319670
11
-8.539145
21
2.920435
31
-0.331551
12
-8.539145
22
3.064435
32
-0.331551
13
-8.539145
23
3.064435
33
-0.331551
0
3DFACE
8
0
10
-8.548895
20
3.064435
30
-0.343431
11
-8.632707
21
3.064435
31
-0.287430
12
-8.618778
22
3.064435
32
-0.270457
13
-8.618778
23
3.064435
33
-0.270457
0
3DFACE
8
0
10
-8.618778
20
3.064435
30
-0.270457
11
-8.539145
21
3.064435
31
-0.331551
12
-8.548895
22
3.064435
32
-0.343431
13
-8.548895
23
3.064435
33
-0.343431
0
3DFACE
8
0
10
-8.618778
20
3.064435
30
-0.270457
11
-8.604850
21
3.064435
31
-0.253485
12
-8.529395
22
3.064435
32
-0.319670
13
-8.529395
23
3.064435
33
-0.319670
0
3DFACE
8
0
10
-8.529395
20
3.064435
30
-0.319670
11
-8.539145
21
3.064435
31
-0.331551
12
-8.618778
22
3.064435
32
-0.270457
13
-8.618778
23
3.064435
33
-0.270457
0
3DFACE
8
0
10
-8.618778
20
3.064435
30
-0.270457
11
-8.632707
21
3.064435
31
-0.287430
12
-8.632708
22
3.312435
32
-0.287430
13
-8.632708
23
3.312435
33
-0.287430
0
3DFACE
8
0
10
-8.632708
20
3.312435
30
-0.287430
11
-8.618778
21
3.312435
31
-0.270457
12
-8.618778
22
3.064435
32
-0.270457
13
-8.618778
23
3.064435
33
-0.270457
0
3DFACE
8
0
10
-8.604850
20
3.064435
30
-0.253485
11
-8.618778
21
3.064435
31
-0.270457
12
-8.618778
22
3.312435
32
-0.270457
13
-8.618778
23
3.312435
33
-0.270457
0
3DFACE
8
0
10
-8.618778
20
3.312435
30
-0.270457
11
-8.604850
21
3.312435
31
-0.253485
12
-8.604850
22
3.064435
32
-0.253485
13
-8.604850
23
3.064435
33
-0.253485
0
3DFACE
8
0
10
-8.495884
20
3.064435
30
-0.288290
11
-8.484003
21
3.064435
31
-0.278540
12
-8.484003
22
2.920435
32
-0.278540
13
-8.484003
23
2.920435
33
-0.278540
0
3DFACE
8
0
10
-8.484003
20
2.920435
30
-0.278540
11
-8.495884
21
2.920435
31
-0.288290
12
-8.495884
22
3.064435
32
-0.288290
13
-8.495884
23
3.064435
33
-0.288290
0
3DFACE
8
0
10
-8.556977
20
3.064435
30
-0.208656
11
-8.540005
21
3.064435
31
-0.194727
12
-8.484003
22
3.064435
32
-0.278540
13
-8.484003
23
3.064435
33
-0.278540
0
3DFACE
8
0
10
-8.484003
20
3.064435
30
-0.278540
11
-8.495884
21
3.064435
31
-0.288290
12
-8.556977
22
3.064435
32
-0.208656
13
-8.556977
23
3.064435
33
-0.208656
0
3DFACE
8
0
10
-8.519645
20
3.064435
30
-0.307790
11
-8.507764
21
3.064435
31
-0.298040
12
-8.507764
22
2.920435
32
-0.298040
13
-8.507764
23
2.920435
33
-0.298040
0
3DFACE
8
0
10
-8.507764
20
2.920435
30
-0.298040
11
-8.519645
21
2.920435
31
-0.307790
12
-8.519645
22
3.064435
32
-0.307790
13
-8.519645
23
3.064435
33
-0.307790
0
3DFACE
8
0
10
-8.507764
20
3.064435
30
-0.298040
11
-8.495884
21
3.064435
31
-0.288290
12
-8.495884
22
2.920435
32
-0.288290
13
-8.495884
23
2.920435
33
-0.288290
0
3DFACE
8
0
10
-8.495884
20
2.920435
30
-0.288290
11
-8.507764
21
2.920435
31
-0.298040
12
-8.507764
22
3.064435
32
-0.298040
13
-8.507764
23
3.064435
33
-0.298040
0
3DFACE
8
0
10
-8.519645
20
3.064435
30
-0.307790
11
-8.590921
21
3.064435
31
-0.236513
12
-8.573949
22
3.064435
32
-0.222585
13
-8.573949
23
3.064435
33
-0.222585
0
3DFACE
8
0
10
-8.573949
20
3.064435
30
-0.222585
11
-8.507764
21
3.064435
31
-0.298040
12
-8.519645
22
3.064435
32
-0.307790
13
-8.519645
23
3.064435
33
-0.307790
0
3DFACE
8
0
10
-8.507764
20
3.064435
30
-0.298040
11
-8.573949
21
3.064435
31
-0.222585
12
-8.556977
22
3.064435
32
-0.208656
13
-8.556977
23
3.064435
33
-0.208656
0
3DFACE
8
0
10
-8.556977
20
3.064435
30
-0.208656
11
-8.495884
21
3.064435
31
-0.288290
12
-8.507764
22
3.064435
32
-0.298040
13
-8.507764
23
3.064435
33
-0.298040
0
3DFACE
8
0
10
-8.573949
20
3.312435
30
-0.222585
11
-8.573949
21
3.064435
31
-0.222585
12
-8.590921
22
3.064435
32
-0.236513
13
-8.590921
23
3.064435
33
-0.236513
0
3DFACE
8
0
10
-8.590921
20
3.064435
30
-0.236513
11
-8.590921
21
3.312435
31
-0.236513
12
-8.573949
22
3.312435
32
-0.222585
13
-8.573949
23
3.312435
33
-0.222585
0
3DFACE
8
0
10
-8.556977
20
3.312435
30
-0.208656
11
-8.556977
21
3.064435
31
-0.208656
12
-8.573949
22
3.064435
32
-0.222585
13
-8.573949
23
3.064435
33
-0.222585
0
3DFACE
8
0
10
-8.573949
20
3.064435
30
-0.222585
11
-8.573949
21
3.312435
31
-0.222585
12
-8.556977
22
3.312435
32
-0.208656
13
-8.556977
23
3.312435
33
-0.208656
0
3DFACE
8
0
10
-8.456895
20
3.064435
30
-0.264050
11
-8.443340
21
3.064435
31
-0.256805
12
-8.443340
22
2.920435
32
-0.256805
13
-8.443340
23
2.920435
33
-0.256805
0
3DFACE
8
0
10
-8.443340
20
2.920435
30
-0.256805
11
-8.456895
21
2.920435
31
-0.264050
12
-8.456895
22
3.064435
32
-0.264050
13
-8.456895
23
3.064435
33
-0.264050
0
3DFACE
8
0
10
-8.501278
20
3.064435
30
-0.174028
11
-8.481915
21
3.064435
31
-0.163678
12
-8.443340
22
3.064435
32
-0.256805
13
-8.443340
23
3.064435
33
-0.256805
0
3DFACE
8
0
10
-8.443340
20
3.064435
30
-0.256805
11
-8.456895
21
3.064435
31
-0.264050
12
-8.501278
22
3.064435
32
-0.174028
13
-8.501278
23
3.064435
33
-0.174028
0
3DFACE
8
0
10
-8.484003
20
3.064435
30
-0.278540
11
-8.470449
21
3.064435
31
-0.271295
12
-8.470449
22
2.920435
32
-0.271295
13
-8.470449
23
2.920435
33
-0.271295
0
3DFACE
8
0
10
-8.470449
20
2.920435
30
-0.271295
11
-8.484003
21
2.920435
31
-0.278540
12
-8.484003
22
3.064435
32
-0.278540
13
-8.484003
23
3.064435
33
-0.278540
0
3DFACE
8
0
10
-8.470449
20
3.064435
30
-0.271295
11
-8.456895
21
3.064435
31
-0.264050
12
-8.456895
22
2.920435
32
-0.264050
13
-8.456895
23
2.920435
33
-0.264050
0
3DFACE
8
0
10
-8.456895
20
2.920435
30
-0.264050
11
-8.470449
21
2.920435
31
-0.271295
12
-8.470449
22
3.064435
32
-0.271295
13
-8.470449
23
3.064435
33
-0.271295
0
3DFACE
8
0
10
-8.484003
20
3.064435
30
-0.278540
11
-8.540005
21
3.064435
31
-0.194727
12
-8.520641
22
3.064435
32
-0.184377
13
-8.520641
23
3.064435
33
-0.184377
0
3DFACE
8
0
10
-8.520641
20
3.064435
30
-0.184377
11
-8.470449
21
3.064435
31
-0.271295
12
-8.484003
22
3.064435
32
-0.278540
13
-8.484003
23
3.064435
33
-0.278540
0
3DFACE
8
0
10
-8.470449
20
3.064435
30
-0.271295
11
-8.520641
21
3.064435
31
-0.184377
12
-8.501278
22
3.064435
32
-0.174028
13
-8.501278
23
3.064435
33
-0.174028
0
3DFACE
8
0
10
-8.501278
20
3.064435
30
-0.174028
11
-8.456895
21
3.064435
31
-0.264050
12
-8.470449
22
3.064435
32
-0.271295
13
-8.470449
23
3.064435
33
-0.271295
0
3DFACE
8
0
10
-8.520641
20
3.312435
30
-0.184377
11
-8.520641
21
3.064435
31
-0.184377
12
-8.540005
22
3.064435
32
-0.194727
13
-8.540005
23
3.064435
33
-0.194727
0
3DFACE
8
0
10
-8.540005
20
3.064435
30
-0.194727
11
-8.540005
21
3.312435
31
-0.194727
12
-8.520641
22
3.312435
32
-0.184377
13
-8.520641
23
3.312435
33
-0.184377
0
3DFACE
8
0
10
-8.501278
20
3.312435
30
-0.174028
11
-8.501278
21
3.064435
31
-0.174028
12
-8.520641
22
3.064435
32
-0.184377
13
-8.520641
23
3.064435
33
-0.184377
0
3DFACE
8
0
10
-8.520641
20
3.064435
30
-0.184377
11
-8.520641
21
3.312435
31
-0.184377
12
-8.501278
22
3.312435
32
-0.174028
13
-8.501278
23
3.312435
33
-0.174028
0
3DFACE
8
0
10
-8.413926
20
3.064435
30
-0.247882
11
-8.399219
21
3.064435
31
-0.243421
12
-8.399219
22
2.920435
32
-0.243421
13
-8.399219
23
2.920435
33
-0.243421
0
3DFACE
8
0
10
-8.399219
20
2.920435
30
-0.243421
11
-8.413926
21
2.920435
31
-0.247882
12
-8.413926
22
3.064435
32
-0.247882
13
-8.413926
23
3.064435
33
-0.247882
0
3DFACE
8
0
10
-8.439894
20
3.064435
30
-0.150931
11
-8.418883
21
3.064435
31
-0.144557
12
-8.399219
22
3.064435
32
-0.243421
13
-8.399219
23
3.064435
33
-0.243421
0
3DFACE
8
0
10
-8.399219
20
3.064435
30
-0.243421
11
-8.413926
21
3.064435
31
-0.247882
12
-8.439894
22
3.064435
32
-0.150931
13
-8.439894
23
3.064435
33
-0.150931
0
3DFACE
8
0
10
-8.443340
20
3.064435
30
-0.256805
11
-8.428633
21
3.064435
31
-0.252343
12
-8.428633
22
2.920435
32
-0.252343
13
-8.428633
23
2.920435
33
-0.252343
0
3DFACE
8
0
10
-8.428633
20
2.920435
30
-0.252343
11
-8.443340
21
2.920435
31
-0.256805
12
-8.443340
22
3.064435
32
-0.256805
13
-8.443340
23
3.064435
33
-0.256805
0
3DFACE
8
0
10
-8.428633
20
3.064435
30
-0.252343
11
-8.413926
21
3.064435
31
-0.247882
12
-8.413926
22
2.920435
32
-0.247882
13
-8.413926
23
2.920435
33
-0.247882
0
3DFACE
8
0
10
-8.413926
20
2.920435
30
-0.247882
11
-8.428633
21
2.920435
31
-0.252343
12
-8.428633
22
3.064435
32
-0.252343
13
-8.428633
23
3.064435
33
-0.252343
0
3DFACE
8
0
10
-8.443340
20
3.064435
30
-0.256805
11
-8.481915
21
3.064435
31
-0.163678
12
-8.460904
22
3.064435
32
-0.157304
13
-8.460904
23
3.064435
33
-0.157304
0
3DFACE
8
0
10
-8.460904
20
3.064435
30
-0.157304
11
-8.428633
21
3.064435
31
-0.252343
12
-8.443340
22
3.064435
32
-0.256805
13
-8.443340
23
3.064435
33
-0.256805
0
3DFACE
8
0
10
-8.428633
20
3.064435
30
-0.252343
11
-8.460904
21
3.064435
31
-0.157304
12
-8.439894
22
3.064435
32
-0.150931
13
-8.439894
23
3.064435
33
-0.150931
0
3DFACE
8
0
10
-8.439894
20
3.064435
30
-0.150931
11
-8.413926
21
3.064435
31
-0.247882
12
-8.428633
22
3.064435
32
-0.252343
13
-8.428633
23
3.064435
33
-0.252343
0
3DFACE
8
0
10
-8.460904
20
3.312435
30
-0.157304
11
-8.460904
21
3.064435
31
-0.157304
12
-8.481915
22
3.064435
32
-0.163678
13
-8.481915
23
3.064435
33
-0.163678
0
3DFACE
8
0
10
-8.481915
20
3.064435
30
-0.163678
11
-8.481915
21
3.312435
31
-0.163678
12
-8.460904
22
3.312435
32
-0.157304
13
-8.460904
23
3.312435
33
-0.157304
0
3DFACE
8
0
10
-8.439894
20
3.312435
30
-0.150931
11
-8.439894
21
3.064435
31
-0.150931
12
-8.460904
22
3.064435
32
-0.157304
13
-8.460904
23
3.064435
33
-0.157304
0
3DFACE
8
0
10
-8.460904
20
3.064435
30
-0.157304
11
-8.460904
21
3.312435
31
-0.157304
12
-8.439894
22
3.312435
32
-0.150931
13
-8.439894
23
3.312435
33
-0.150931
0
3DFACE
8
0
10
-8.368629
20
3.064435
30
-0.240408
11
-8.353333
21
3.064435
31
-0.238901
12
-8.353333
22
2.920435
32
-0.238901
13
-8.353333
23
2.920435
33
-0.238901
0
3DFACE
8
0
10
-8.353333
20
2.920435
30
-0.238901
11
-8.368629
21
2.920435
31
-0.240408
12
-8.368629
22
3.064435
32
-0.240408
13
-8.368629
23
3.064435
33
-0.240408
0
3DFACE
8
0
10
-8.375183
20
3.064435
30
-0.140253
11
-8.353333
21
3.064435
31
-0.138101
12
-8.353333
22
3.064435
32
-0.238901
13
-8.353333
23
3.064435
33
-0.238901
0
3DFACE
8
0
10
-8.353333
20
3.064435
30
-0.238901
11
-8.368629
21
3.064435
31
-0.240408
12
-8.375183
22
3.064435
32
-0.140253
13
-8.375183
23
3.064435
33
-0.140253
0
3DFACE
8
0
10
-8.399219
20
3.064435
30
-0.243421
11
-8.383924
21
3.064435
31
-0.241914
12
-8.383924
22
2.920435
32
-0.241914
13
-8.383924
23
2.920435
33
-0.241914
0
3DFACE
8
0
10
-8.383924
20
2.920435
30
-0.241914
11
-8.399219
21
2.920435
31
-0.243421
12
-8.399219
22
3.064435
32
-0.243421
13
-8.399219
23
3.064435
33
-0.243421
0
3DFACE
8
0
10
-8.383924
20
3.064435
30
-0.241914
11
-8.368629
21
3.064435
31
-0.240408
12
-8.368629
22
2.920435
32
-0.240408
13
-8.368629
23
2.920435
33
-0.240408
0
3DFACE
8
0
10
-8.368629
20
2.920435
30
-0.240408
11
-8.383924
21
2.920435
31
-0.241914
12
-8.383924
22
3.064435
32
-0.241914
13
-8.383924
23
3.064435
33
-0.241914
0
3DFACE
8
0
10
-8.399219
20
3.064435
30
-0.243421
11
-8.418883
21
3.064435
31
-0.144557
12
-8.397034
22
3.064435
32
-0.142405
13
-8.397034
23
3.064435
33
-0.142405
0
3DFACE
8
0
10
-8.397034
20
3.064435
30
-0.142405
11
-8.383924
21
3.064435
31
-0.241914
12
-8.399219
22
3.064435
32
-0.243421
13
-8.399219
23
3.064435
33
-0.243421
0
3DFACE
8
0
10
-8.383924
20
3.064435
30
-0.241914
11
-8.397034
21
3.064435
31
-0.142405
12
-8.375183
22
3.064435
32
-0.140253
13
-8.375183
23
3.064435
33
-0.140253
0
3DFACE
8
0
10
-8.375183
20
3.064435
30
-0.140253
11
-8.368629
21
3.064435
31
-0.240408
12
-8.383924
22
3.064435
32
-0.241914
13
-8.383924
23
3.064435
33
-0.241914
0
3DFACE
8
0
10
-8.397034
20
3.312435
30
-0.142405
11
-8.397034
21
3.064435
31
-0.142405
12
-8.418883
22
3.064435
32
-0.144557
13
-8.418883
23
3.064435
33
-0.144557
0
3DFACE
8
0
10
-8.418883
20
3.064435
30
-0.144557
11
-8.418883
21
3.312435
31
-0.144557
12
-8.397034
22
3.312435
32
-0.142405
13
-8.397034
23
3.312435
33
-0.142405
0
3DFACE
8
0
10
-8.375183
20
3.312435
30
-0.140253
11
-8.375183
21
3.064435
31
-0.140253
12
-8.397034
22
3.064435
32
-0.142405
13
-8.397034
23
3.064435
33
-0.142405
0
3DFACE
8
0
10
-8.397034
20
3.064435
30
-0.142405
11
-8.397034
21
3.312435
31
-0.142405
12
-8.375183
22
3.312435
32
-0.140253
13
-8.375183
23
3.312435
33
-0.140253
0
3DFACE
8
0
10
-8.322743
20
2.920435
30
-0.241914
11
-8.322743
21
3.064435
31
-0.241914
12
-8.307448
22
3.064435
32
-0.243421
13
-8.307448
23
3.064435
33
-0.243421
0
3DFACE
8
0
10
-8.307448
20
3.064435
30
-0.243421
11
-8.307448
21
2.920435
31
-0.243421
12
-8.322743
22
2.920435
32
-0.241914
13
-8.322743
23
2.920435
33
-0.241914
0
3DFACE
8
0
10
-8.309633
20
3.064435
30
-0.142406
11
-8.287783
21
3.064435
31
-0.144558
12
-8.307448
22
3.064435
32
-0.243421
13
-8.307448
23
3.064435
33
-0.243421
0
3DFACE
8
0
10
-8.307448
20
3.064435
30
-0.243421
11
-8.322743
21
3.064435
31
-0.241914
12
-8.309633
22
3.064435
32
-0.142406
13
-8.309633
23
3.064435
33
-0.142406
0
3DFACE
8
0
10
-8.353333
20
2.920435
30
-0.238901
11
-8.353333
21
3.064435
31
-0.238901
12
-8.338038
22
3.064435
32
-0.240408
13
-8.338038
23
3.064435
33
-0.240408
0
3DFACE
8
0
10
-8.338038
20
3.064435
30
-0.240408
11
-8.338038
21
2.920435
31
-0.240408
12
-8.353333
22
2.920435
32
-0.238901
13
-8.353333
23
2.920435
33
-0.238901
0
3DFACE
8
0
10
-8.338038
20
2.920435
30
-0.240408
11
-8.338038
21
3.064435
31
-0.240408
12
-8.322743
22
3.064435
32
-0.241914
13
-8.322743
23
3.064435
33
-0.241914
0
3DFACE
8
0
10
-8.322743
20
3.064435
30
-0.241914
11
-8.322743
21
2.920435
31
-0.241914
12
-8.338038
22
2.920435
32
-0.240408
13
-8.338038
23
2.920435
33
-0.240408
0
3DFACE
8
0
10
-8.353333
20
3.064435
30
-0.238901
11
-8.353333
21
3.064435
31
-0.138101
12
-8.331483
22
3.064435
32
-0.140253
13
-8.331483
23
3.064435
33
-0.140253
0
3DFACE
8
0
10
-8.331483
20
3.064435
30
-0.140253
11
-8.338038
21
3.064435
31
-0.240408
12
-8.353333
22
3.064435
32
-0.238901
13
-8.353333
23
3.064435
33
-0.238901
0
3DFACE
8
0
10
-8.338038
20
3.064435
30
-0.240408
11
-8.331483
21
3.064435
31
-0.140253
12
-8.309633
22
3.064435
32
-0.142406
13
-8.309633
23
3.064435
33
-0.142406
0
3DFACE
8
0
10
-8.309633
20
3.064435
30
-0.142406
11
-8.322743
21
3.064435
31
-0.241914
12
-8.338038
22
3.064435
32
-0.240408
13
-8.338038
23
3.064435
33
-0.240408
0
3DFACE
8
0
10
-8.331483
20
3.064435
30
-0.140253
11
-8.353333
21
3.064435
31
-0.138101
12
-8.353333
22
3.312435
32
-0.138101
13
-8.353333
23
3.312435
33
-0.138101
0
3DFACE
8
0
10
-8.353333
20
3.312435
30
-0.138101
11
-8.331483
21
3.312435
31
-0.140253
12
-8.331483
22
3.064435
32
-0.140253
13
-8.331483
23
3.064435
33
-0.140253
0
3DFACE
8
0
10
-8.309633
20
3.064435
30
-0.142406
11
-8.331483
21
3.064435
31
-0.140253
12
-8.331483
22
3.312435
32
-0.140253
13
-8.331483
23
3.312435
33
-0.140253
0
3DFACE
8
0
10
-8.331483
20
3.312435
30
-0.140253
11
-8.309633
21
3.312435
31
-0.142406
12
-8.309633
22
3.064435
32
-0.142406
13
-8.309633
23
3.064435
33
-0.142406
0
3DFACE
8
0
10
-8.278033
20
2.920435
30
-0.252344
11
-8.278033
21
3.064435
31
-0.252344
12
-8.263326
22
3.064435
32
-0.256805
13
-8.263326
23
3.064435
33
-0.256805
0
3DFACE
8
0
10
-8.263326
20
3.064435
30
-0.256805
11
-8.263326
21
2.920435
31
-0.256805
12
-8.278033
22
2.920435
32
-0.252344
13
-8.278033
23
2.920435
33
-0.252344
0
3DFACE
8
0
10
-8.245762
20
3.064435
30
-0.157304
11
-8.224751
21
3.064435
31
-0.163678
12
-8.263326
22
3.064435
32
-0.256805
13
-8.263326
23
3.064435
33
-0.256805
0
3DFACE
8
0
10
-8.263326
20
3.064435
30
-0.256805
11
-8.278033
21
3.064435
31
-0.252344
12
-8.245762
22
3.064435
32
-0.157304
13
-8.245762
23
3.064435
33
-0.157304
0
3DFACE
8
0
10
-8.307448
20
2.920435
30
-0.243421
11
-8.307448
21
3.064435
31
-0.243421
12
-8.292741
22
3.064435
32
-0.247882
13
-8.292741
23
3.064435
33
-0.247882
0
3DFACE
8
0
10
-8.292741
20
3.064435
30
-0.247882
11
-8.292741
21
2.920435
31
-0.247882
12
-8.307448
22
2.920435
32
-0.243421
13
-8.307448
23
2.920435
33
-0.243421
0
3DFACE
8
0
10
-8.292741
20
2.920435
30
-0.247882
11
-8.292741
21
3.064435
31
-0.247882
12
-8.278033
22
3.064435
32
-0.252344
13
-8.278033
23
3.064435
33
-0.252344
0
3DFACE
8
0
10
-8.278033
20
3.064435
30
-0.252344
11
-8.278033
21
2.920435
31
-0.252344
12
-8.292741
22
2.920435
32
-0.247882
13
-8.292741
23
2.920435
33
-0.247882
0
3DFACE
8
0
10
-8.307448
20
3.064435
30
-0.243421
11
-8.287783
21
3.064435
31
-0.144558
12
-8.266772
22
3.064435
32
-0.150931
13
-8.266772
23
3.064435
33
-0.150931
0
3DFACE
8
0
10
-8.266772
20
3.064435
30
-0.150931
11
-8.292741
21
3.064435
31
-0.247882
12
-8.307448
22
3.064435
32
-0.243421
13
-8.307448
23
3.064435
33
-0.243421
0
3DFACE
8
0
10
-8.292741
20
3.064435
30
-0.247882
11
-8.266772
21
3.064435
31
-0.150931
12
-8.245762
22
3.064435
32
-0.157304
13
-8.245762
23
3.064435
33
-0.157304
0
3DFACE
8
0
10
-8.245762
20
3.064435
30
-0.157304
11
-8.278033
21
3.064435
31
-0.252344
12
-8.292741
22
3.064435
32
-0.247882
13
-8.292741
23
3.064435
33
-0.247882
0
3DFACE
8
0
10
-8.266772
20
3.064435
30
-0.150931
11
-8.287783
21
3.064435
31
-0.144558
12
-8.287783
22
3.312435
32
-0.144558
13
-8.287783
23
3.312435
33
-0.144558
0
3DFACE
8
0
10
-8.287783
20
3.312435
30
-0.144558
11
-8.266772
21
3.312435
31
-0.150931
12
-8.266772
22
3.064435
32
-0.150931
13
-8.266772
23
3.064435
33
-0.150931
0
3DFACE
8
0
10
-8.245762
20
3.064435
30
-0.157304
11
-8.266772
21
3.064435
31
-0.150931
12
-8.266772
22
3.312435
32
-0.150931
13
-8.266772
23
3.312435
33
-0.150931
0
3DFACE
8
0
10
-8.266772
20
3.312435
30
-0.150931
11
-8.245762
21
3.312435
31
-0.157304
12
-8.245762
22
3.064435
32
-0.157304
13
-8.245762
23
3.064435
33
-0.157304
0
3DFACE
8
0
10
-8.236217
20
2.920435
30
-0.271295
11
-8.236217
21
3.064435
31
-0.271295
12
-8.222663
22
3.064435
32
-0.278540
13
-8.222663
23
3.064435
33
-0.278540
0
3DFACE
8
0
10
-8.222663
20
3.064435
30
-0.278540
11
-8.222663
21
2.920435
31
-0.278540
12
-8.236217
22
2.920435
32
-0.271295
13
-8.236217
23
2.920435
33
-0.271295
0
3DFACE
8
0
10
-8.186025
20
3.064435
30
-0.184378
11
-8.166661
21
3.064435
31
-0.194728
12
-8.222663
22
3.064435
32
-0.278540
13
-8.222663
23
3.064435
33
-0.278540
0
3DFACE
8
0
10
-8.222663
20
3.064435
30
-0.278540
11
-8.236217
21
3.064435
31
-0.271295
12
-8.186025
22
3.064435
32
-0.184378
13
-8.186025
23
3.064435
33
-0.184378
0
3DFACE
8
0
10
-8.263326
20
2.920435
30
-0.256805
11
-8.263326
21
3.064435
31
-0.256805
12
-8.249772
22
3.064435
32
-0.264050
13
-8.249772
23
3.064435
33
-0.264050
0
3DFACE
8
0
10
-8.249772
20
3.064435
30
-0.264050
11
-8.249772
21
2.920435
31
-0.264050
12
-8.263326
22
2.920435
32
-0.256805
13
-8.263326
23
2.920435
33
-0.256805
0
3DFACE
8
0
10
-8.249772
20
2.920435
30
-0.264050
11
-8.249772
21
3.064435
31
-0.264050
12
-8.236217
22
3.064435
32
-0.271295
13
-8.236217
23
3.064435
33
-0.271295
0
3DFACE
8
0
10
-8.236217
20
3.064435
30
-0.271295
11
-8.236217
21
2.920435
31
-0.271295
12
-8.249772
22
2.920435
32
-0.264050
13
-8.249772
23
2.920435
33
-0.264050
0
3DFACE
8
0
10
-8.263326
20
3.064435
30
-0.256805
11
-8.224751
21
3.064435
31
-0.163678
12
-8.205388
22
3.064435
32
-0.174028
13
-8.205388
23
3.064435
33
-0.174028
0
3DFACE
8
0
10
-8.205388
20
3.064435
30
-0.174028
11
-8.249772
21
3.064435
31
-0.264050
12
-8.263326
22
3.064435
32
-0.256805
13
-8.263326
23
3.064435
33
-0.256805
0
3DFACE
8
0
10
-8.249772
20
3.064435
30
-0.264050
11
-8.205388
21
3.064435
31
-0.174028
12
-8.186025
22
3.064435
32
-0.184378
13
-8.186025
23
3.064435
33
-0.184378
0
3DFACE
8
0
10
-8.186025
20
3.064435
30
-0.184378
11
-8.236217
21
3.064435
31
-0.271295
12
-8.249772
22
3.064435
32
-0.264050
13
-8.249772
23
3.064435
33
-0.264050
0
3DFACE
8
0
10
-8.205388
20
3.064435
30
-0.174028
11
-8.224751
21
3.064435
31
-0.163678
12
-8.224751
22
3.312435
32
-0.163678
13
-8.224751
23
3.312435
33
-0.163678
0
3DFACE
8
0
10
-8.224751
20
3.312435
30
-0.163678
11
-8.205388
21
3.312435
31
-0.174028
12
-8.205388
22
3.064435
32
-0.174028
13
-8.205388
23
3.064435
33
-0.174028
0
3DFACE
8
0
10
-8.186025
20
3.064435
30
-0.184378
11
-8.205388
21
3.064435
31
-0.174028
12
-8.205388
22
3.312435
32
-0.174028
13
-8.205388
23
3.312435
33
-0.174028
0
3DFACE
8
0
10
-8.205388
20
3.312435
30
-0.174028
11
-8.186025
21
3.312435
31
-0.184378
12
-8.186025
22
3.064435
32
-0.184378
13
-8.186025
23
3.064435
33
-0.184378
0
3DFACE
8
0
10
-8.198902
20
2.920435
30
-0.298040
11
-8.198902
21
3.064435
31
-0.298040
12
-8.187022
22
3.064435
32
-0.307790
13
-8.187022
23
3.064435
33
-0.307790
0
3DFACE
8
0
10
-8.187022
20
3.064435
30
-0.307790
11
-8.187021
21
2.920435
31
-0.307790
12
-8.198902
22
2.920435
32
-0.298040
13
-8.198902
23
2.920435
33
-0.298040
0
3DFACE
8
0
10
-8.132717
20
3.064435
30
-0.222585
11
-8.115746
21
3.064435
31
-0.236514
12
-8.187022
22
3.064435
32
-0.307790
13
-8.187022
23
3.064435
33
-0.307790
0
3DFACE
8
0
10
-8.187022
20
3.064435
30
-0.307790
11
-8.198902
21
3.064435
31
-0.298040
12
-8.132717
22
3.064435
32
-0.222585
13
-8.132717
23
3.064435
33
-0.222585
0
3DFACE
8
0
10
-8.222663
20
2.920435
30
-0.278540
11
-8.222663
21
3.064435
31
-0.278540
12
-8.210783
22
3.064435
32
-0.288290
13
-8.210783
23
3.064435
33
-0.288290
0
3DFACE
8
0
10
-8.210783
20
3.064435
30
-0.288290
11
-8.210783
21
2.920435
31
-0.288290
12
-8.222663
22
2.920435
32
-0.278540
13
-8.222663
23
2.920435
33
-0.278540
0
3DFACE
8
0
10
-8.210783
20
2.920435
30
-0.288290
11
-8.210783
21
3.064435
31
-0.288290
12
-8.198902
22
3.064435
32
-0.298040
13
-8.198902
23
3.064435
33
-0.298040
0
3DFACE
8
0
10
-8.198902
20
3.064435
30
-0.298040
11
-8.198902
21
2.920435
31
-0.298040
12
-8.210783
22
2.920435
32
-0.288290
13
-8.210783
23
2.920435
33
-0.288290
0
3DFACE
8
0
10
-8.222663
20
3.064435
30
-0.278540
11
-8.166661
21
3.064435
31
-0.194728
12
-8.149690
22
3.064435
32
-0.208656
13
-8.149690
23
3.064435
33
-0.208656
0
3DFACE
8
0
10
-8.149690
20
3.064435
30
-0.208656
11
-8.210783
21
3.064435
31
-0.288290
12
-8.222663
22
3.064435
32
-0.278540
13
-8.222663
23
3.064435
33
-0.278540
0
3DFACE
8
0
10
-8.149690
20
3.064435
30
-0.208656
11
-8.132717
21
3.064435
31
-0.222585
12
-8.198902
22
3.064435
32
-0.298040
13
-8.198902
23
3.064435
33
-0.298040
0
3DFACE
8
0
10
-8.198902
20
3.064435
30
-0.298040
11
-8.210783
21
3.064435
31
-0.288290
12
-8.149690
22
3.064435
32
-0.208656
13
-8.149690
23
3.064435
33
-0.208656
0
3DFACE
8
0
10
-8.149690
20
3.064435
30
-0.208656
11
-8.166661
21
3.064435
31
-0.194728
12
-8.166661
22
3.312435
32
-0.194728
13
-8.166661
23
3.312435
33
-0.194728
0
3DFACE
8
0
10
-8.166661
20
3.312435
30
-0.194728
11
-8.149690
21
3.312435
31
-0.208656
12
-8.149690
22
3.064435
32
-0.208656
13
-8.149690
23
3.064435
33
-0.208656
0
3DFACE
8
0
10
-8.132717
20
3.064435
30
-0.222585
11
-8.149690
21
3.064435
31
-0.208656
12
-8.149690
22
3.312435
32
-0.208656
13
-8.149690
23
3.312435
33
-0.208656
0
3DFACE
8
0
10
-8.149690
20
3.312435
30
-0.208656
11
-8.132717
21
3.312435
31
-0.222585
12
-8.132717
22
3.064435
32
-0.222585
13
-8.132717
23
3.064435
33
-0.222585
0
3DFACE
8
0
10
-8.167521
20
3.064435
30
-0.331551
11
-8.157772
21
3.064435
31
-0.343431
12
-8.157772
22
2.920435
32
-0.343431
13
-8.157772
23
2.920435
33
-0.343431
0
3DFACE
8
0
10
-8.157772
20
2.920435
30
-0.343431
11
-8.167521
21
2.920435
31
-0.331551
12
-8.167521
22
3.064435
32
-0.331551
13
-8.167521
23
3.064435
33
-0.331551
0
3DFACE
8
0
10
-8.087888
20
3.064435
30
-0.270458
11
-8.073959
21
3.064435
31
-0.287430
12
-8.157772
22
3.064435
32
-0.343431
13
-8.157772
23
3.064435
33
-0.343431
0
3DFACE
8
0
10
-8.157772
20
3.064435
30
-0.343431
11
-8.167521
21
3.064435
31
-0.331551
12
-8.087888
22
3.064435
32
-0.270458
13
-8.087888
23
3.064435
33
-0.270458
0
3DFACE
8
0
10
-8.187022
20
3.064435
30
-0.307790
11
-8.177272
21
3.064435
31
-0.319671
12
-8.177272
22
2.920435
32
-0.319671
13
-8.177272
23
2.920435
33
-0.319671
0
3DFACE
8
0
10
-8.177272
20
2.920435
30
-0.319671
11
-8.187021
21
2.920435
31
-0.307790
12
-8.187022
22
3.064435
32
-0.307790
13
-8.187022
23
3.064435
33
-0.307790
0
3DFACE
8
0
10
-8.177272
20
3.064435
30
-0.319671
11
-8.167521
21
3.064435
31
-0.331551
12
-8.167521
22
2.920435
32
-0.331551
13
-8.167521
23
2.920435
33
-0.331551
0
3DFACE
8
0
10
-8.167521
20
2.920435
30
-0.331551
11
-8.177272
21
2.920435
31
-0.319671
12
-8.177272
22
3.064435
32
-0.319671
13
-8.177272
23
3.064435
33
-0.319671
0
3DFACE
8
0
10
-8.187022
20
3.064435
30
-0.307790
11
-8.115746
21
3.064435
31
-0.236514
12
-8.101817
22
3.064435
32
-0.253486
13
-8.101817
23
3.064435
33
-0.253486
0
3DFACE
8
0
10
-8.101817
20
3.064435
30
-0.253486
11
-8.177272
21
3.064435
31
-0.319671
12
-8.187022
22
3.064435
32
-0.307790
13
-8.187022
23
3.064435
33
-0.307790
0
3DFACE
8
0
10
-8.101817
20
3.064435
30
-0.253486
11
-8.087888
21
3.064435
31
-0.270458
12
-8.167521
22
3.064435
32
-0.331551
13
-8.167521
23
3.064435
33
-0.331551
0
3DFACE
8
0
10
-8.167521
20
3.064435
30
-0.331551
11
-8.177272
21
3.064435
31
-0.319671
12
-8.101817
22
3.064435
32
-0.253486
13
-8.101817
23
3.064435
33
-0.253486
0
3DFACE
8
0
10
-8.101817
20
3.312435
30
-0.253486
11
-8.101817
21
3.064435
31
-0.253486
12
-8.115746
22
3.064435
32
-0.236514
13
-8.115746
23
3.064435
33
-0.236514
0
3DFACE
8
0
10
-8.115746
20
3.064435
30
-0.236514
11
-8.115746
21
3.312435
31
-0.236514
12
-8.101817
22
3.312435
32
-0.253486
13
-8.101817
23
3.312435
33
-0.253486
0
3DFACE
8
0
10
-8.087888
20
3.312435
30
-0.270458
11
-8.087888
21
3.064435
31
-0.270458
12
-8.101817
22
3.064435
32
-0.253486
13
-8.101817
23
3.064435
33
-0.253486
0
3DFACE
8
0
10
-8.101817
20
3.064435
30
-0.253486
11
-8.101817
21
3.312435
31
-0.253486
12
-8.087888
22
3.312435
32
-0.270458
13
-8.087888
23
3.312435
33
-0.270458
0
3DFACE
8
0
10
-8.143282
20
3.064435
30
-0.370540
11
-8.136037
21
3.064435
31
-0.384094
12
-8.136037
22
2.920435
32
-0.384094
13
-8.136037
23
2.920435
33
-0.384094
0
3DFACE
8
0
10
-8.136037
20
2.920435
30
-0.384094
11
-8.143282
21
2.920435
31
-0.370540
12
-8.143282
22
3.064435
32
-0.370540
13
-8.143282
23
3.064435
33
-0.370540
0
3DFACE
8
0
10
-8.053260
20
3.064435
30
-0.326157
11
-8.042910
21
3.064435
31
-0.345520
12
-8.136037
22
3.064435
32
-0.384094
13
-8.136037
23
3.064435
33
-0.384094
0
3DFACE
8
0
10
-8.136037
20
3.064435
30
-0.384094
11
-8.143282
21
3.064435
31
-0.370540
12
-8.053260
22
3.064435
32
-0.326157
13
-8.053260
23
3.064435
33
-0.326157
0
3DFACE
8
0
10
-8.157772
20
3.064435
30
-0.343431
11
-8.150527
21
3.064435
31
-0.356986
12
-8.150527
22
2.920435
32
-0.356986
13
-8.150527
23
2.920435
33
-0.356986
0
3DFACE
8
0
10
-8.150527
20
2.920435
30
-0.356986
11
-8.157772
21
2.920435
31
-0.343431
12
-8.157772
22
3.064435
32
-0.343431
13
-8.157772
23
3.064435
33
-0.343431
0
3DFACE
8
0
10
-8.150527
20
3.064435
30
-0.356986
11
-8.143282
21
3.064435
31
-0.370540
12
-8.143282
22
2.920435
32
-0.370540
13
-8.143282
23
2.920435
33
-0.370540
0
3DFACE
8
0
10
-8.143282
20
2.920435
30
-0.370540
11
-8.150527
21
2.920435
31
-0.356986
12
-8.150527
22
3.064435
32
-0.356986
13
-8.150527
23
3.064435
33
-0.356986
0
3DFACE
8
0
10
-8.157772
20
3.064435
30
-0.343431
11
-8.073959
21
3.064435
31
-0.287430
12
-8.063609
22
3.064435
32
-0.306793
13
-8.063609
23
3.064435
33
-0.306793
0
3DFACE
8
0
10
-8.063609
20
3.064435
30
-0.306793
11
-8.150527
21
3.064435
31
-0.356986
12
-8.157772
22
3.064435
32
-0.343431
13
-8.157772
23
3.064435
33
-0.343431
0
3DFACE
8
0
10
-8.150527
20
3.064435
30
-0.356986
11
-8.063609
21
3.064435
31
-0.306793
12
-8.053260
22
3.064435
32
-0.326157
13
-8.053260
23
3.064435
33
-0.326157
0
3DFACE
8
0
10
-8.053260
20
3.064435
30
-0.326157
11
-8.143282
21
3.064435
31
-0.370540
12
-8.150527
22
3.064435
32
-0.356986
13
-8.150527
23
3.064435
33
-0.356986
0
3DFACE
8
0
10
-8.063609
20
3.064435
30
-0.306793
11
-8.073959
21
3.064435
31
-0.287430
12
-8.073959
22
3.312435
32
-0.287430
13
-8.073959
23
3.312435
33
-0.287430
0
3DFACE
8
0
10
-8.073959
20
3.312435
30
-0.287430
11
-8.063610
21
3.312435
31
-0.306793
12
-8.063609
22
3.064435
32
-0.306793
13
-8.063609
23
3.064435
33
-0.306793
0
3DFACE
8
0
10
-8.053260
20
3.064435
30
-0.326157
11
-8.063609
21
3.064435
31
-0.306793
12
-8.063610
22
3.312435
32
-0.306793
13
-8.063610
23
3.312435
33
-0.306793
0
3DFACE
8
0
10
-8.063610
20
3.312435
30
-0.306793
11
-8.053260
21
3.312435
31
-0.326157
12
-8.053260
22
3.064435
32
-0.326157
13
-8.053260
23
3.064435
33
-0.326157
0
3DFACE
8
0
10
-8.118134
20
2.920435
30
-0.474101
11
-8.119640
21
2.920435
31
-0.458806
12
-8.119640
22
3.064435
32
-0.458806
13
-8.119640
23
3.064435
33
-0.458806
0
3DFACE
8
0
10
-8.119640
20
3.064435
30
-0.458806
11
-8.118134
21
3.064435
31
-0.474101
12
-8.118134
22
2.920435
32
-0.474101
13
-8.118134
23
2.920435
33
-0.474101
0
3DFACE
8
0
10
-8.019485
20
3.064435
30
-0.452251
11
-8.017334
21
3.064435
31
-0.474101
12
-8.118134
22
3.064435
32
-0.474101
13
-8.118134
23
3.064435
33
-0.474101
0
3DFACE
8
0
10
-8.118134
20
3.064435
30
-0.474101
11
-8.119640
21
3.064435
31
-0.458806
12
-8.019485
22
3.064435
32
-0.452251
13
-8.019485
23
3.064435
33
-0.452251
0
3DFACE
8
0
10
-8.122653
20
3.064435
30
-0.428216
11
-8.121146
21
3.064435
31
-0.443511
12
-8.121146
22
2.920435
32
-0.443511
13
-8.121146
23
2.920435
33
-0.443511
0
3DFACE
8
0
10
-8.121146
20
2.920435
30
-0.443511
11
-8.122653
21
2.920435
31
-0.428216
12
-8.122653
22
3.064435
32
-0.428216
13
-8.122653
23
3.064435
33
-0.428216
0
3DFACE
8
0
10
-8.121146
20
3.064435
30
-0.443511
11
-8.119640
21
3.064435
31
-0.458806
12
-8.119640
22
2.920435
32
-0.458806
13
-8.119640
23
2.920435
33
-0.458806
0
3DFACE
8
0
10
-8.119640
20
2.920435
30
-0.458806
11
-8.121146
21
2.920435
31
-0.443511
12
-8.121146
22
3.064435
32
-0.443511
13
-8.121146
23
3.064435
33
-0.443511
0
3DFACE
8
0
10
-8.122653
20
3.064435
30
-0.428216
11
-8.023789
21
3.064435
31
-0.408551
12
-8.021638
22
3.064435
32
-0.430401
13
-8.021638
23
3.064435
33
-0.430401
0
3DFACE
8
0
10
-8.021638
20
3.064435
30
-0.430401
11
-8.121146
21
3.064435
31
-0.443511
12
-8.122653
22
3.064435
32
-0.428216
13
-8.122653
23
3.064435
33
-0.428216
0
3DFACE
8
0
10
-8.121146
20
3.064435
30
-0.443511
11
-8.021638
21
3.064435
31
-0.430401
12
-8.019485
22
3.064435
32
-0.452251
13
-8.019485
23
3.064435
33
-0.452251
0
3DFACE
8
0
10
-8.019485
20
3.064435
30
-0.452251
11
-8.119640
21
3.064435
31
-0.458806
12
-8.121146
22
3.064435
32
-0.443511
13
-8.121146
23
3.064435
33
-0.443511
0
3DFACE
8
0
10
-8.021638
20
3.312435
30
-0.430401
11
-8.021638
21
3.064435
31
-0.430401
12
-8.023789
22
3.064435
32
-0.408551
13
-8.023789
23
3.064435
33
-0.408551
0
3DFACE
8
0
10
-8.023789
20
3.064435
30
-0.408551
11
-8.023789
21
3.312435
31
-0.408551
12
-8.021638
22
3.312435
32
-0.430401
13
-8.021638
23
3.312435
33
-0.430401
0
3DFACE
8
0
10
-8.019485
20
3.312435
30
-0.452251
11
-8.019485
21
3.064435
31
-0.452251
12
-8.021638
22
3.064435
32
-0.430401
13
-8.021638
23
3.064435
33
-0.430401
0
3DFACE
8
0
10
-8.021638
20
3.064435
30
-0.430401
11
-8.021638
21
3.312435
31
-0.430401
12
-8.019485
22
3.312435
32
-0.452251
13
-8.019485
23
3.312435
33
-0.452251
0
3DFACE
8
0
10
-8.127114
20
3.064435
30
-0.413509
11
-8.122653
21
3.064435
31
-0.428216
12
-8.122653
22
2.920435
32
-0.428216
13
-8.122653
23
2.920435
33
-0.428216
0
3DFACE
8
0
10
-8.122653
20
2.920435
30
-0.428216
11
-8.127114
21
2.920435
31
-0.413509
12
-8.127114
22
3.064435
32
-0.413509
13
-8.127114
23
3.064435
33
-0.413509
0
3DFACE
8
0
10
-8.030163
20
3.064435
30
-0.387541
11
-8.023789
21
3.064435
31
-0.408551
12
-8.122653
22
3.064435
32
-0.428216
13
-8.122653
23
3.064435
33
-0.428216
0
3DFACE
8
0
10
-8.122653
20
3.064435
30
-0.428216
11
-8.127114
21
3.064435
31
-0.413509
12
-8.030163
22
3.064435
32
-0.387541
13
-8.030163
23
3.064435
33
-0.387541
0
3DFACE
8
0
10
-8.136037
20
3.064435
30
-0.384094
11
-8.131576
21
3.064435
31
-0.398802
12
-8.131576
22
2.920435
32
-0.398802
13
-8.131576
23
2.920435
33
-0.398802
0
3DFACE
8
0
10
-8.131576
20
2.920435
30
-0.398802
11
-8.136037
21
2.920435
31
-0.384094
12
-8.136037
22
3.064435
32
-0.384094
13
-8.136037
23
3.064435
33
-0.384094
0
3DFACE
8
0
10
-8.131576
20
3.064435
30
-0.398802
11
-8.127114
21
3.064435
31
-0.413509
12
-8.127114
22
2.920435
32
-0.413509
13
-8.127114
23
2.920435
33
-0.413509
0
3DFACE
8
0
10
-8.127114
20
2.920435
30
-0.413509
11
-8.131576
21
2.920435
31
-0.398802
12
-8.131576
22
3.064435
32
-0.398802
13
-8.131576
23
3.064435
33
-0.398802
0
3DFACE
8
0
10
-8.136037
20
3.064435
30
-0.384094
11
-8.042910
21
3.064435
31
-0.345520
12
-8.036536
22
3.064435
32
-0.366531
13
-8.036536
23
3.064435
33
-0.366531
0
3DFACE
8
0
10
-8.036536
20
3.064435
30
-0.366531
11
-8.131576
21
3.064435
31
-0.398802
12
-8.136037
22
3.064435
32
-0.384094
13
-8.136037
23
3.064435
33
-0.384094
0
3DFACE
8
0
10
-8.036536
20
3.064435
30
-0.366531
11
-8.030163
21
3.064435
31
-0.387541
12
-8.127114
22
3.064435
32
-0.413509
13
-8.127114
23
3.064435
33
-0.413509
0
3DFACE
8
0
10
-8.127114
20
3.064435
30
-0.413509
11
-8.131576
21
3.064435
31
-0.398802
12
-8.036536
22
3.064435
32
-0.366531
13
-8.036536
23
3.064435
33
-0.366531
0
3DFACE
8
0
10
-8.036536
20
3.312435
30
-0.366531
11
-8.036536
21
3.064435
31
-0.366531
12
-8.042910
22
3.064435
32
-0.345520
13
-8.042910
23
3.064435
33
-0.345520
0
3DFACE
8
0
10
-8.042910
20
3.064435
30
-0.345520
11
-8.042910
21
3.312435
31
-0.345520
12
-8.036536
22
3.312435
32
-0.366531
13
-8.036536
23
3.312435
33
-0.366531
0
3DFACE
8
0
10
-8.030163
20
3.312435
30
-0.387541
11
-8.030163
21
3.064435
31
-0.387541
12
-8.036536
22
3.064435
32
-0.366531
13
-8.036536
23
3.064435
33
-0.366531
0
3DFACE
8
0
10
-8.036536
20
3.064435
30
-0.366531
11
-8.036536
21
3.312435
31
-0.366531
12
-8.030163
22
3.312435
32
-0.387541
13
-8.030163
23
3.312435
33
-0.387541
0
ENDSEC
0
EOF
