0
SECTION
2
ENTITIES
0
3DFACE
8
0
10
8.003333
20
-0.187565
30
-0.874101
11
7.863334
21
-0.587565
31
-1.014101
12
7.863334
22
-0.587565
32
-0.891601
13
7.863334
23
-0.587565
33
-0.891601
0
3DFACE
8
0
10
7.863334
20
-0.587565
30
-0.891601
11
8.003333
21
-0.187565
31
-0.786601
12
8.003333
22
-0.187565
32
-0.874101
13
8.003333
23
-0.187565
33
-0.874101
0
3DFACE
8
0
10
8.003333
20
-0.187565
30
-0.174101
11
8.090834
21
-0.187565
31
-0.174101
12
8.003333
22
-0.187565
32
-0.261601
13
8.003333
23
-0.187565
33
-0.261601
0
3DFACE
8
0
10
8.090834
20
-0.187565
30
-0.174101
11
8.353333
21
-0.187565
31
-0.419101
12
8.003333
22
-0.187565
32
-0.261601
13
8.003333
23
-0.187565
33
-0.261601
0
3DFACE
8
0
10
8.353333
20
-0.187565
30
-0.419101
11
8.615833
21
-0.187565
31
-0.174101
12
8.703334
22
-0.187565
32
-0.174101
13
8.703334
23
-0.187565
33
-0.174101
0
3DFACE
8
0
10
8.353333
20
-0.187565
30
-0.419101
11
8.703334
21
-0.187565
31
-0.174101
12
8.703334
22
-0.187565
32
-0.261601
13
8.703334
23
-0.187565
33
-0.261601
0
3DFACE
8
0
10
8.353333
20
-0.187565
30
-0.419101
11
8.248334
21
-0.187565
31
-0.524101
12
8.003333
22
-0.187565
32
-0.261601
13
8.003333
23
-0.187565
33
-0.261601
0
3DFACE
8
0
10
8.353333
20
-0.187565
30
-0.419101
11
8.703334
21
-0.187565
31
-0.261601
12
8.458333
22
-0.187565
32
-0.524101
13
8.458333
23
-0.187565
33
-0.524101
0
3DFACE
8
0
10
8.353333
20
-0.187565
30
-0.419101
11
8.458333
21
-0.187565
31
-0.524101
12
8.248334
22
-0.187565
32
-0.524101
13
8.248334
23
-0.187565
33
-0.524101
0
3DFACE
8
0
10
8.458333
20
-0.187565
30
-0.524101
11
8.003333
21
-0.187565
31
-0.786601
12
8.248334
22
-0.187565
32
-0.524101
13
8.248334
23
-0.187565
33
-0.524101
0
3DFACE
8
0
10
8.458333
20
-0.187565
30
-0.524101
11
8.353333
21
-0.187565
31
-0.629101
12
8.003333
22
-0.187565
32
-0.786601
13
8.003333
23
-0.187565
33
-0.786601
0
3DFACE
8
0
10
8.458333
20
-0.187565
30
-0.524101
11
8.703334
21
-0.187565
31
-0.786601
12
8.353333
22
-0.187565
32
-0.629101
13
8.353333
23
-0.187565
33
-0.629101
0
3DFACE
8
0
10
8.353333
20
-0.187565
30
-0.629101
11
8.090834
21
-0.187565
31
-0.874101
12
8.003333
22
-0.187565
32
-0.786601
13
8.003333
23
-0.187565
33
-0.786601
0
3DFACE
8
0
10
8.703334
20
-0.187565
30
-0.786601
11
8.615833
21
-0.187565
31
-0.874101
12
8.353333
22
-0.187565
32
-0.629101
13
8.353333
23
-0.187565
33
-0.629101
0
3DFACE
8
0
10
8.090834
20
-0.187565
30
-0.874101
11
8.003333
21
-0.187565
31
-0.874101
12
8.003333
22
-0.187565
32
-0.786601
13
8.003333
23
-0.187565
33
-0.786601
0
3DFACE
8
0
10
8.703334
20
-0.187565
30
-0.786601
11
8.703334
21
-0.187565
31
-0.874101
12
8.615833
22
-0.187565
32
-0.874101
13
8.615833
23
-0.187565
33
-0.874101
0
3DFACE
8
0
10
8.703334
20
-0.187565
30
-0.786601
11
8.843333
21
-0.587565
31
-0.891601
12
8.843333
22
-0.587565
32
-1.014101
13
8.843333
23
-0.587565
33
-1.014101
0
3DFACE
8
0
10
8.843333
20
-0.587565
30
-1.014101
11
8.703334
21
-0.187565
31
-0.874101
12
8.703334
22
-0.187565
32
-0.786601
13
8.703334
23
-0.187565
33
-0.786601
0
3DFACE
8
0
10
7.985834
20
-0.587565
30
-0.034101
11
7.863334
21
-0.587565
31
-0.034101
12
7.863334
22
-0.587565
32
-0.156601
13
7.863334
23
-0.587565
33
-0.156601
0
3DFACE
8
0
10
8.353333
20
-0.587565
30
-0.377101
11
7.985834
21
-0.587565
31
-0.034101
12
7.863334
22
-0.587565
32
-0.156601
13
7.863334
23
-0.587565
33
-0.156601
0
3DFACE
8
0
10
8.843333
20
-0.587565
30
-0.034101
11
8.720834
21
-0.587565
31
-0.034101
12
8.353333
22
-0.587565
32
-0.377101
13
8.353333
23
-0.587565
33
-0.377101
0
3DFACE
8
0
10
8.843333
20
-0.587565
30
-0.034101
11
8.353333
21
-0.587565
31
-0.377101
12
8.843333
22
-0.587565
32
-0.156601
13
8.843333
23
-0.587565
33
-0.156601
0
3DFACE
8
0
10
8.353333
20
-0.587565
30
-0.377101
11
7.863334
21
-0.587565
31
-0.156601
12
8.206333
22
-0.587565
32
-0.524101
13
8.206333
23
-0.587565
33
-0.524101
0
3DFACE
8
0
10
8.353333
20
-0.587565
30
-0.377101
11
8.500334
21
-0.587565
31
-0.524101
12
8.843333
22
-0.587565
32
-0.156601
13
8.843333
23
-0.587565
33
-0.156601
0
3DFACE
8
0
10
8.353333
20
-0.587565
30
-0.377101
11
8.206333
21
-0.587565
31
-0.524101
12
8.500334
22
-0.587565
32
-0.524101
13
8.500334
23
-0.587565
33
-0.524101
0
3DFACE
8
0
10
8.206333
20
-0.587565
30
-0.524101
11
7.863334
21
-0.587565
31
-0.891601
12
8.500334
22
-0.587565
32
-0.524101
13
8.500334
23
-0.587565
33
-0.524101
0
3DFACE
8
0
10
7.863334
20
-0.587565
30
-0.891601
11
8.353333
21
-0.587565
31
-0.671101
12
8.500334
22
-0.587565
32
-0.524101
13
8.500334
23
-0.587565
33
-0.524101
0
3DFACE
8
0
10
8.353333
20
-0.587565
30
-0.671101
11
8.843333
21
-0.587565
31
-0.891601
12
8.500334
22
-0.587565
32
-0.524101
13
8.500334
23
-0.587565
33
-0.524101
0
3DFACE
8
0
10
7.863334
20
-0.587565
30
-0.891601
11
7.985834
21
-0.587565
31
-1.014101
12
8.353333
22
-0.587565
32
-0.671101
13
8.353333
23
-0.587565
33
-0.671101
0
3DFACE
8
0
10
8.353333
20
-0.587565
30
-0.671101
11
8.720834
21
-0.587565
31
-1.014101
12
8.843333
22
-0.587565
32
-0.891601
13
8.843333
23
-0.587565
33
-0.891601
0
3DFACE
8
0
10
7.863334
20
-0.587565
30
-0.891601
11
7.863334
21
-0.587565
31
-1.014101
12
7.985834
22
-0.587565
32
-1.014101
13
7.985834
23
-0.587565
33
-1.014101
0
3DFACE
8
0
10
8.720834
20
-0.587565
30
-1.014101
11
8.843333
21
-0.587565
31
-1.014101
12
8.843333
22
-0.587565
32
-0.891601
13
8.843333
23
-0.587565
33
-0.891601
0
3DFACE
8
0
10
8.720834
20
-0.587565
30
-1.014101
11
8.615833
21
-0.187565
31
-0.874101
12
8.703334
22
-0.187565
32
-0.874101
13
8.703334
23
-0.187565
33
-0.874101
0
3DFACE
8
0
10
8.703334
20
-0.187565
30
-0.874101
11
8.843333
21
-0.587565
31
-1.014101
12
8.720834
22
-0.587565
32
-1.014101
13
8.720834
23
-0.587565
33
-1.014101
0
3DFACE
8
0
10
7.985834
20
-0.587565
30
-0.034101
11
8.090834
21
-0.187565
31
-0.174101
12
8.003333
22
-0.187565
32
-0.174101
13
8.003333
23
-0.187565
33
-0.174101
0
3DFACE
8
0
10
8.003333
20
-0.187565
30
-0.174101
11
7.863334
21
-0.587565
31
-0.034101
12
7.985834
22
-0.587565
32
-0.034101
13
7.985834
23
-0.587565
33
-0.034101
0
3DFACE
8
0
10
8.703334
20
-0.187565
30
-0.174101
11
8.843333
21
-0.587565
31
-0.034101
12
8.843333
22
-0.587565
32
-0.156601
13
8.843333
23
-0.587565
33
-0.156601
0
3DFACE
8
0
10
8.843333
20
-0.587565
30
-0.156601
11
8.703334
21
-0.187565
31
-0.261601
12
8.703334
22
-0.187565
32
-0.174101
13
8.703334
23
-0.187565
33
-0.174101
0
3DFACE
8
0
10
8.703334
20
-0.187565
30
-0.261601
11
8.843333
21
-0.587565
31
-0.156601
12
8.500334
22
-0.587565
32
-0.524101
13
8.500334
23
-0.587565
33
-0.524101
0
3DFACE
8
0
10
8.500334
20
-0.587565
30
-0.524101
11
8.458333
21
-0.187565
31
-0.524101
12
8.703334
22
-0.187565
32
-0.261601
13
8.703334
23
-0.187565
33
-0.261601
0
3DFACE
8
0
10
8.458333
20
-0.187565
30
-0.524101
11
8.500334
21
-0.587565
31
-0.524101
12
8.843333
22
-0.587565
32
-0.891601
13
8.843333
23
-0.587565
33
-0.891601
0
3DFACE
8
0
10
8.843333
20
-0.587565
30
-0.891601
11
8.703334
21
-0.187565
31
-0.786601
12
8.458333
22
-0.187565
32
-0.524101
13
8.458333
23
-0.187565
33
-0.524101
0
3DFACE
8
0
10
7.863334
20
-0.587565
30
-0.034101
11
8.003333
21
-0.187565
31
-0.174101
12
8.003333
22
-0.187565
32
-0.261601
13
8.003333
23
-0.187565
33
-0.261601
0
3DFACE
8
0
10
8.003333
20
-0.187565
30
-0.261601
11
7.863334
21
-0.587565
31
-0.156601
12
7.863334
22
-0.587565
32
-0.034101
13
7.863334
23
-0.587565
33
-0.034101
0
3DFACE
8
0
10
7.863334
20
-0.587565
30
-0.156601
11
8.003333
21
-0.187565
31
-0.261601
12
8.248334
22
-0.187565
32
-0.524101
13
8.248334
23
-0.187565
33
-0.524101
0
3DFACE
8
0
10
8.248334
20
-0.187565
30
-0.524101
11
8.206333
21
-0.587565
31
-0.524101
12
7.863334
22
-0.587565
32
-0.156601
13
7.863334
23
-0.587565
33
-0.156601
0
3DFACE
8
0
10
8.206333
20
-0.587565
30
-0.524101
11
8.248334
21
-0.187565
31
-0.524101
12
8.003333
22
-0.187565
32
-0.786601
13
8.003333
23
-0.187565
33
-0.786601
0
3DFACE
8
0
10
8.003333
20
-0.187565
30
-0.786601
11
7.863334
21
-0.587565
31
-0.891601
12
8.206333
22
-0.587565
32
-0.524101
13
8.206333
23
-0.587565
33
-0.524101
0
3DFACE
8
0
10
8.843333
20
-0.587565
30
-0.034101
11
8.703334
21
-0.187565
31
-0.174101
12
8.615833
22
-0.187565
32
-0.174101
13
8.615833
23
-0.187565
33
-0.174101
0
3DFACE
8
0
10
8.615833
20
-0.187565
30
-0.174101
11
8.720834
21
-0.587565
31
-0.034101
12
8.843333
22
-0.587565
32
-0.034101
13
8.843333
23
-0.587565
33
-0.034101
0
3DFACE
8
0
10
8.720834
20
-0.587565
30
-0.034101
11
8.615833
21
-0.187565
31
-0.174101
12
8.353333
22
-0.187565
32
-0.419101
13
8.353333
23
-0.187565
33
-0.419101
0
3DFACE
8
0
10
8.353333
20
-0.187565
30
-0.419101
11
8.353333
21
-0.587565
31
-0.377101
12
8.720834
22
-0.587565
32
-0.034101
13
8.720834
23
-0.587565
33
-0.034101
0
3DFACE
8
0
10
8.353333
20
-0.587565
30
-0.377101
11
8.353333
21
-0.187565
31
-0.419101
12
8.090834
22
-0.187565
32
-0.174101
13
8.090834
23
-0.187565
33
-0.174101
0
3DFACE
8
0
10
8.090834
20
-0.187565
30
-0.174101
11
7.985834
21
-0.587565
31
-0.034101
12
8.353333
22
-0.587565
32
-0.377101
13
8.353333
23
-0.587565
33
-0.377101
0
3DFACE
8
0
10
7.863334
20
-0.587565
30
-1.014101
11
8.003333
21
-0.187565
31
-0.874101
12
8.090834
22
-0.187565
32
-0.874101
13
8.090834
23
-0.187565
33
-0.874101
0
3DFACE
8
0
10
8.090834
20
-0.187565
30
-0.874101
11
7.985834
21
-0.587565
31
-1.014101
12
7.863334
22
-0.587565
32
-1.014101
13
7.863334
23
-0.587565
33
-1.014101
0
3DFACE
8
0
10
7.985834
20
-0.587565
30
-1.014101
11
8.090834
21
-0.187565
31
-0.874101
12
8.353333
22
-0.187565
32
-0.629101
13
8.353333
23
-0.187565
33
-0.629101
0
3DFACE
8
0
10
8.353333
20
-0.187565
30
-0.629101
11
8.353333
21
-0.587565
31
-0.671101
12
7.985834
22
-0.587565
32
-1.014101
13
7.985834
23
-0.587565
33
-1.014101
0
3DFACE
8
0
10
8.353333
20
-0.587565
30
-0.671101
11
8.353333
21
-0.187565
31
-0.629101
12
8.615833
22
-0.187565
32
-0.874101
13
8.615833
23
-0.187565
33
-0.874101
0
3DFACE
8
0
10
8.615833
20
-0.187565
30
-0.874101
11
8.720834
21
-0.587565
31
-1.014101
12
8.353333
22
-0.587565
32
-0.671101
13
8.353333
23
-0.587565
33
-0.671101
0
3DFACE
8
0
10
7.603333
20
-0.698058
30
-0.024101
11
9.103333
21
-0.698058
31
-0.024101
12
8.953334
22
-0.562565
32
-0.024101
13
8.953334
23
-0.562565
33
-0.024101
0
3DFACE
8
0
10
8.953334
20
-0.562565
30
-0.024101
11
7.753333
21
-0.562565
31
-0.024101
12
7.603333
22
-0.698058
32
-0.024101
13
7.603333
23
-0.698058
33
-0.024101
0
3DFACE
8
0
10
7.603333
20
-0.187565
30
-0.024101
11
7.603333
21
-0.698058
31
-0.024101
12
7.753333
22
-0.562565
32
-0.024101
13
7.753333
23
-0.562565
33
-0.024101
0
3DFACE
8
0
10
7.753333
20
-0.562565
30
-0.024101
11
7.753333
21
-0.187565
31
-0.024101
12
7.603333
22
-0.187565
32
-0.024101
13
7.603333
23
-0.187565
33
-0.024101
0
3DFACE
8
0
10
9.103333
20
-0.187565
30
-0.024101
11
8.953334
21
-0.187565
31
-0.024101
12
8.953334
22
-0.562565
32
-0.024101
13
8.953334
23
-0.562565
33
-0.024101
0
3DFACE
8
0
10
8.953334
20
-0.562565
30
-0.024101
11
9.103333
21
-0.698058
31
-0.024101
12
9.103333
22
-0.187565
32
-0.024101
13
9.103333
23
-0.187565
33
-0.024101
0
3DFACE
8
0
10
7.603333
20
-0.698058
30
-0.024101
11
7.603333
21
-0.187565
31
-0.024101
12
7.603333
22
-0.187565
32
-1.224101
13
7.603333
23
-0.187565
33
-1.224101
0
3DFACE
8
0
10
7.603333
20
-0.187565
30
-1.224101
11
7.603333
21
-0.698058
31
-1.224101
12
7.603333
22
-0.698058
32
-0.024101
13
7.603333
23
-0.698058
33
-0.024101
0
3DFACE
8
0
10
7.603333
20
-0.698058
30
-1.224101
11
7.603333
21
-0.187565
31
-1.224101
12
9.103333
22
-0.187565
32
-1.224101
13
9.103333
23
-0.187565
33
-1.224101
0
3DFACE
8
0
10
9.103333
20
-0.187565
30
-1.224101
11
9.103333
21
-0.698058
31
-1.224101
12
7.603333
22
-0.698058
32
-1.224101
13
7.603333
23
-0.698058
33
-1.224101
0
3DFACE
8
0
10
9.103333
20
-0.698058
30
-1.224101
11
9.103333
21
-0.187565
31
-1.224101
12
9.103333
22
-0.187565
32
-0.024101
13
9.103333
23
-0.187565
33
-0.024101
0
3DFACE
8
0
10
9.103333
20
-0.187565
30
-0.024101
11
9.103333
21
-0.698058
31
-0.024101
12
9.103333
22
-0.698058
32
-1.224101
13
9.103333
23
-0.698058
33
-1.224101
0
3DFACE
8
0
10
8.185328
20
-0.698058
30
-0.222665
11
7.603333
21
-0.698058
31
-0.024101
12
8.154778
22
-0.698058
32
-0.247737
13
8.154778
23
-0.698058
33
-0.247737
0
3DFACE
8
0
10
8.154778
20
-0.698058
30
-0.247737
11
8.170053
21
-0.698058
31
-0.235201
12
8.185328
22
-0.698058
32
-0.222665
13
8.185328
23
-0.698058
33
-0.222665
0
3DFACE
8
0
10
7.603333
20
-0.698058
30
-0.024101
11
8.126967
21
-0.698058
31
-0.275547
12
8.139504
22
-0.698058
32
-0.260273
13
8.139504
23
-0.698058
33
-0.260273
0
3DFACE
8
0
10
7.603333
20
-0.698058
30
-0.024101
11
8.101897
21
-0.698058
31
-0.306097
12
8.114432
22
-0.698058
32
-0.290822
13
8.114432
23
-0.698058
33
-0.290822
0
3DFACE
8
0
10
8.114432
20
-0.698058
30
-0.290822
11
8.126967
21
-0.698058
31
-0.275547
12
7.603333
22
-0.698058
32
-0.024101
13
7.603333
23
-0.698058
33
-0.024101
0
3DFACE
8
0
10
8.073952
20
-0.698058
30
-0.358378
11
7.603333
21
-0.698058
31
-0.024101
12
8.056744
22
-0.698058
32
-0.415106
13
8.056744
23
-0.698058
33
-0.415106
0
3DFACE
8
0
10
8.056744
20
-0.698058
30
-0.415106
11
8.062480
21
-0.698058
31
-0.396197
12
8.073952
22
-0.698058
32
-0.358378
13
8.073952
23
-0.698058
33
-0.358378
0
3DFACE
8
0
10
8.052871
20
-0.698058
30
-0.493766
11
7.603333
21
-0.698058
31
-0.024101
12
8.054808
22
-0.698058
32
-0.513432
13
8.054808
23
-0.698058
33
-0.513432
0
3DFACE
8
0
10
8.050934
20
-0.698058
30
-0.474101
11
7.603333
21
-0.698058
31
-0.024101
12
8.052871
22
-0.698058
32
-0.493766
13
8.052871
23
-0.698058
33
-0.493766
0
3DFACE
8
0
10
7.603333
20
-0.698058
30
-0.024101
11
8.062480
21
-0.698058
31
-0.552006
12
8.056744
22
-0.698058
32
-0.533097
13
8.056744
23
-0.698058
33
-0.533097
0
3DFACE
8
0
10
8.068215
20
-0.698058
30
-0.570915
11
7.603333
21
-0.698058
31
-0.024101
12
8.073952
22
-0.698058
32
-0.589825
13
8.073952
23
-0.698058
33
-0.589825
0
3DFACE
8
0
10
8.062480
20
-0.698058
30
-0.552006
11
7.603333
21
-0.698058
31
-0.024101
12
8.068215
22
-0.698058
32
-0.570915
13
8.068215
23
-0.698058
33
-0.570915
0
3DFACE
8
0
10
7.603333
20
-0.698058
30
-0.024101
11
7.603333
21
-0.698058
31
-1.224101
12
8.101897
22
-0.698058
32
-0.642106
13
8.101897
23
-0.698058
33
-0.642106
0
3DFACE
8
0
10
8.101897
20
-0.698058
30
-0.642106
11
8.092582
21
-0.698058
31
-0.624679
12
7.603333
22
-0.698058
32
-0.024101
13
7.603333
23
-0.698058
33
-0.024101
0
3DFACE
8
0
10
8.202755
20
-0.698058
30
-0.213350
11
7.603333
21
-0.698058
31
-0.024101
12
8.185328
22
-0.698058
32
-0.222665
13
8.185328
23
-0.698058
33
-0.222665
0
3DFACE
8
0
10
7.603333
20
-0.698058
30
-1.224101
11
8.114433
21
-0.698058
31
-0.657381
12
8.101897
22
-0.698058
32
-0.642106
13
8.101897
23
-0.698058
33
-0.642106
0
3DFACE
8
0
10
8.126969
20
-0.698058
30
-0.672656
11
8.114433
21
-0.698058
31
-0.657381
12
7.603333
22
-0.698058
32
-1.224101
13
7.603333
23
-0.698058
33
-1.224101
0
3DFACE
8
0
10
7.603333
20
-0.698058
30
-1.224101
11
8.139504
21
-0.698058
31
-0.687930
12
8.126969
22
-0.698058
32
-0.672656
13
8.126969
23
-0.698058
33
-0.672656
0
3DFACE
8
0
10
7.603333
20
-0.698058
30
-1.224101
11
8.185329
21
-0.698058
31
-0.725538
12
8.170053
22
-0.698058
32
-0.713002
13
8.170053
23
-0.698058
33
-0.713002
0
3DFACE
8
0
10
7.603333
20
-0.698058
30
-1.224101
11
8.202757
21
-0.698058
31
-0.734853
12
8.185329
22
-0.698058
32
-0.725538
13
8.185329
23
-0.698058
33
-0.725538
0
3DFACE
8
0
10
8.237610
20
-0.698058
30
-0.753482
11
8.220183
21
-0.698058
31
-0.744168
12
8.202757
22
-0.698058
32
-0.734853
13
8.202757
23
-0.698058
33
-0.734853
0
3DFACE
8
0
10
8.202757
20
-0.698058
30
-0.734853
11
7.603333
21
-0.698058
31
-1.224101
12
8.237610
22
-0.698058
32
-0.753482
13
8.237610
23
-0.698058
33
-0.753482
0
3DFACE
8
0
10
8.333668
20
-0.698058
30
-0.774565
11
8.314004
21
-0.698058
31
-0.772628
12
8.294337
22
-0.698058
32
-0.770691
13
8.294337
23
-0.698058
33
-0.770691
0
3DFACE
8
0
10
8.294337
20
-0.698058
30
-0.770691
11
7.603333
21
-0.698058
31
-1.224101
12
8.333668
22
-0.698058
32
-0.774565
13
8.333668
23
-0.698058
33
-0.774565
0
3DFACE
8
0
10
7.603333
20
-0.698058
30
-1.224101
11
8.372998
21
-0.698058
31
-0.774565
12
8.353333
22
-0.698058
32
-0.776501
13
8.353333
23
-0.698058
33
-0.776501
0
3DFACE
8
0
10
8.412328
20
-0.698058
30
-0.770691
11
8.392663
21
-0.698058
31
-0.772628
12
7.603333
22
-0.698058
32
-1.224101
13
7.603333
23
-0.698058
33
-1.224101
0
3DFACE
8
0
10
8.392663
20
-0.698058
30
-0.772628
11
8.372998
21
-0.698058
31
-0.774565
12
7.603333
22
-0.698058
32
-1.224101
13
7.603333
23
-0.698058
33
-1.224101
0
3DFACE
8
0
10
8.220182
20
-0.698058
30
-0.204035
11
7.603333
21
-0.698058
31
-0.024101
12
8.202755
22
-0.698058
32
-0.213350
13
8.202755
23
-0.698058
33
-0.213350
0
3DFACE
8
0
10
7.603333
20
-0.698058
30
-1.224101
11
9.103333
21
-0.698058
31
-1.224101
12
8.469057
22
-0.698058
32
-0.753483
13
8.469057
23
-0.698058
33
-0.753483
0
3DFACE
8
0
10
8.469057
20
-0.698058
30
-0.753483
11
8.412328
21
-0.698058
31
-0.770691
12
7.603333
22
-0.698058
32
-1.224101
13
7.603333
23
-0.698058
33
-1.224101
0
3DFACE
8
0
10
9.103333
20
-0.698058
30
-1.224101
11
8.521338
21
-0.698058
31
-0.725538
12
8.503910
22
-0.698058
32
-0.734853
13
8.503910
23
-0.698058
33
-0.734853
0
3DFACE
8
0
10
9.103333
20
-0.698058
30
-1.224101
11
8.536613
21
-0.698058
31
-0.713002
12
8.521338
22
-0.698058
32
-0.725538
13
8.521338
23
-0.698058
33
-0.725538
0
3DFACE
8
0
10
8.567163
20
-0.698058
30
-0.687930
11
8.551888
21
-0.698058
31
-0.700466
12
8.536613
22
-0.698058
32
-0.713002
13
8.536613
23
-0.698058
33
-0.713002
0
3DFACE
8
0
10
8.536613
20
-0.698058
30
-0.713002
11
9.103333
21
-0.698058
31
-1.224101
12
8.567163
22
-0.698058
32
-0.687930
13
8.567163
23
-0.698058
33
-0.687930
0
3DFACE
8
0
10
9.103333
20
-0.698058
30
-1.224101
11
8.614085
21
-0.698058
31
-0.624679
12
8.604770
22
-0.698058
32
-0.642106
13
8.604770
23
-0.698058
33
-0.642106
0
3DFACE
8
0
10
8.623400
20
-0.698058
30
-0.607252
11
8.614085
21
-0.698058
31
-0.624679
12
9.103333
22
-0.698058
32
-1.224101
13
9.103333
23
-0.698058
33
-1.224101
0
3DFACE
8
0
10
9.103333
20
-0.698058
30
-1.224101
11
8.632715
21
-0.698058
31
-0.589825
12
8.623400
22
-0.698058
32
-0.607252
13
8.623400
23
-0.698058
33
-0.607252
0
3DFACE
8
0
10
8.649923
20
-0.698058
30
-0.533097
11
8.644187
21
-0.698058
31
-0.552006
12
8.638452
22
-0.698058
32
-0.570915
13
8.638452
23
-0.698058
33
-0.570915
0
3DFACE
8
0
10
8.638452
20
-0.698058
30
-0.570915
11
9.103333
21
-0.698058
31
-1.224101
12
8.649923
22
-0.698058
32
-0.533097
13
8.649923
23
-0.698058
33
-0.533097
0
3DFACE
8
0
10
8.653796
20
-0.698058
30
-0.454436
11
8.655733
21
-0.698058
31
-0.474101
12
9.103333
22
-0.698058
32
-1.224101
13
9.103333
23
-0.698058
33
-1.224101
0
3DFACE
8
0
10
9.103333
20
-0.698058
30
-1.224101
11
8.649923
21
-0.698058
31
-0.415106
12
8.653796
22
-0.698058
32
-0.454436
13
8.653796
23
-0.698058
33
-0.454436
0
3DFACE
8
0
10
8.237610
20
-0.698058
30
-0.194720
11
7.603333
21
-0.698058
31
-0.024101
12
8.220182
22
-0.698058
32
-0.204035
13
8.220182
23
-0.698058
33
-0.204035
0
3DFACE
8
0
10
9.103333
20
-0.698058
30
-1.224101
11
9.103333
21
-0.698058
31
-0.024101
12
8.632715
22
-0.698058
32
-0.358378
13
8.632715
23
-0.698058
33
-0.358378
0
3DFACE
8
0
10
8.632715
20
-0.698058
30
-0.358378
11
8.649923
21
-0.698058
31
-0.415106
12
9.103333
22
-0.698058
32
-1.224101
13
9.103333
23
-0.698058
33
-1.224101
0
3DFACE
8
0
10
8.604770
20
-0.698058
30
-0.306097
11
8.614085
21
-0.698058
31
-0.323524
12
8.623400
22
-0.698058
32
-0.340951
13
8.623400
23
-0.698058
33
-0.340951
0
3DFACE
8
0
10
8.623400
20
-0.698058
30
-0.340951
11
9.103333
21
-0.698058
31
-0.024101
12
8.604770
22
-0.698058
32
-0.306097
13
8.604770
23
-0.698058
33
-0.306097
0
3DFACE
8
0
10
8.567163
20
-0.698058
30
-0.260272
11
8.579698
21
-0.698058
31
-0.275547
12
8.592234
22
-0.698058
32
-0.290822
13
8.592234
23
-0.698058
33
-0.290822
0
3DFACE
8
0
10
8.592234
20
-0.698058
30
-0.290822
11
9.103333
21
-0.698058
31
-0.024101
12
8.567163
22
-0.698058
32
-0.260272
13
8.567163
23
-0.698058
33
-0.260272
0
3DFACE
8
0
10
9.103333
20
-0.698058
30
-0.024101
11
8.503910
21
-0.698058
31
-0.213350
12
8.521338
22
-0.698058
32
-0.222665
13
8.521338
23
-0.698058
33
-0.222665
0
3DFACE
8
0
10
8.469056
20
-0.698058
30
-0.194720
11
8.486484
21
-0.698058
31
-0.204035
12
9.103333
22
-0.698058
32
-0.024101
13
9.103333
23
-0.698058
33
-0.024101
0
3DFACE
8
0
10
8.486484
20
-0.698058
30
-0.204035
11
8.503910
21
-0.698058
31
-0.213350
12
9.103333
22
-0.698058
32
-0.024101
13
9.103333
23
-0.698058
33
-0.024101
0
3DFACE
8
0
10
8.275429
20
-0.698058
30
-0.183248
11
7.603333
21
-0.698058
31
-0.024101
12
8.237610
22
-0.698058
32
-0.194720
13
8.237610
23
-0.698058
33
-0.194720
0
3DFACE
8
0
10
8.237610
20
-0.698058
30
-0.194720
11
8.256519
21
-0.698058
31
-0.188984
12
8.275429
22
-0.698058
32
-0.183248
13
8.275429
23
-0.698058
33
-0.183248
0
3DFACE
8
0
10
8.450148
20
-0.698058
30
-0.188984
11
8.469056
21
-0.698058
31
-0.194720
12
9.103333
22
-0.698058
32
-0.024101
13
9.103333
23
-0.698058
33
-0.024101
0
3DFACE
8
0
10
9.103333
20
-0.698058
30
-0.024101
11
8.412328
21
-0.698058
31
-0.177512
12
8.450148
22
-0.698058
32
-0.188984
13
8.450148
23
-0.698058
33
-0.188984
0
3DFACE
8
0
10
8.056744
20
-0.698058
30
-0.415106
11
7.603333
21
-0.698058
31
-0.024101
12
8.050934
22
-0.698058
32
-0.474101
13
8.050934
23
-0.698058
33
-0.474101
0
3DFACE
8
0
10
8.050934
20
-0.698058
30
-0.474101
11
8.054808
21
-0.698058
31
-0.434771
12
8.056744
22
-0.698058
32
-0.415106
13
8.056744
23
-0.698058
33
-0.415106
0
3DFACE
8
0
10
8.521338
20
-0.698058
30
-0.222665
11
8.551888
21
-0.698058
31
-0.247736
12
8.567163
22
-0.698058
32
-0.260272
13
8.567163
23
-0.698058
33
-0.260272
0
3DFACE
8
0
10
8.567163
20
-0.698058
30
-0.260272
11
9.103333
21
-0.698058
31
-0.024101
12
8.521338
22
-0.698058
32
-0.222665
13
8.521338
23
-0.698058
33
-0.222665
0
3DFACE
8
0
10
8.314003
20
-0.698058
30
-0.175575
11
7.603333
21
-0.698058
31
-0.024101
12
8.294337
22
-0.698058
32
-0.177512
13
8.294337
23
-0.698058
33
-0.177512
0
3DFACE
8
0
10
8.101897
20
-0.698058
30
-0.306097
11
7.603333
21
-0.698058
31
-0.024101
12
8.092582
22
-0.698058
32
-0.323524
13
8.092582
23
-0.698058
33
-0.323524
0
3DFACE
8
0
10
7.603333
20
-0.698058
30
-0.024101
11
8.073952
21
-0.698058
31
-0.358378
12
8.092582
22
-0.698058
32
-0.323524
13
8.092582
23
-0.698058
33
-0.323524
0
3DFACE
8
0
10
8.638452
20
-0.698058
30
-0.377287
11
8.644187
21
-0.698058
31
-0.396197
12
8.649923
22
-0.698058
32
-0.415106
13
8.649923
23
-0.698058
33
-0.415106
0
3DFACE
8
0
10
8.649923
20
-0.698058
30
-0.415106
11
8.632715
21
-0.698058
31
-0.358378
12
8.638452
22
-0.698058
32
-0.377287
13
8.638452
23
-0.698058
33
-0.377287
0
3DFACE
8
0
10
8.604770
20
-0.698058
30
-0.642106
11
8.579698
21
-0.698058
31
-0.672655
12
8.567163
22
-0.698058
32
-0.687930
13
8.567163
23
-0.698058
33
-0.687930
0
3DFACE
8
0
10
8.567163
20
-0.698058
30
-0.687930
11
9.103333
21
-0.698058
31
-1.224101
12
8.604770
22
-0.698058
32
-0.642106
13
8.604770
23
-0.698058
33
-0.642106
0
3DFACE
8
0
10
7.603333
20
-0.698058
30
-0.024101
11
8.092582
21
-0.698058
31
-0.624679
12
8.083267
22
-0.698058
32
-0.607252
13
8.083267
23
-0.698058
33
-0.607252
0
3DFACE
8
0
10
8.083267
20
-0.698058
30
-0.607252
11
8.073952
21
-0.698058
31
-0.589825
12
7.603333
22
-0.698058
32
-0.024101
13
7.603333
23
-0.698058
33
-0.024101
0
3DFACE
8
0
10
8.170053
20
-0.698058
30
-0.713002
11
8.154779
21
-0.698058
31
-0.700466
12
8.139504
22
-0.698058
32
-0.687930
13
8.139504
23
-0.698058
33
-0.687930
0
3DFACE
8
0
10
8.139504
20
-0.698058
30
-0.687930
11
7.603333
21
-0.698058
31
-1.224101
12
8.170053
22
-0.698058
32
-0.713002
13
8.170053
23
-0.698058
33
-0.713002
0
3DFACE
8
0
10
8.294337
20
-0.698058
30
-0.770691
11
8.256519
21
-0.698058
31
-0.759219
12
8.237610
22
-0.698058
32
-0.753482
13
8.237610
23
-0.698058
33
-0.753482
0
3DFACE
8
0
10
8.237610
20
-0.698058
30
-0.753482
11
7.603333
21
-0.698058
31
-1.224101
12
8.294337
22
-0.698058
32
-0.770691
13
8.294337
23
-0.698058
33
-0.770691
0
3DFACE
8
0
10
7.603333
20
-0.698058
30
-0.024101
11
8.139504
21
-0.698058
31
-0.260273
12
8.154778
22
-0.698058
32
-0.247737
13
8.154778
23
-0.698058
33
-0.247737
0
3DFACE
8
0
10
8.655733
20
-0.698058
30
-0.474101
11
8.651859
21
-0.698058
31
-0.513431
12
8.649923
22
-0.698058
32
-0.533097
13
8.649923
23
-0.698058
33
-0.533097
0
3DFACE
8
0
10
8.649923
20
-0.698058
30
-0.533097
11
9.103333
21
-0.698058
31
-1.224101
12
8.655733
22
-0.698058
32
-0.474101
13
8.655733
23
-0.698058
33
-0.474101
0
3DFACE
8
0
10
9.103333
20
-0.698058
30
-0.024101
11
8.592234
21
-0.698058
31
-0.290822
12
8.604770
22
-0.698058
32
-0.306097
13
8.604770
23
-0.698058
33
-0.306097
0
3DFACE
8
0
10
8.294337
20
-0.698058
30
-0.177512
11
7.603333
21
-0.698058
31
-0.024101
12
8.275429
22
-0.698058
32
-0.183248
13
8.275429
23
-0.698058
33
-0.183248
0
3DFACE
8
0
10
7.603333
20
-0.698058
30
-1.224101
11
8.353333
21
-0.698058
31
-0.776501
12
8.333668
22
-0.698058
32
-0.774565
13
8.333668
23
-0.698058
33
-0.774565
0
3DFACE
8
0
10
8.503910
20
-0.698058
30
-0.734853
11
8.486484
21
-0.698058
31
-0.744168
12
8.469057
22
-0.698058
32
-0.753483
13
8.469057
23
-0.698058
33
-0.753483
0
3DFACE
8
0
10
8.469057
20
-0.698058
30
-0.753483
11
9.103333
21
-0.698058
31
-1.224101
12
8.503910
22
-0.698058
32
-0.734853
13
8.503910
23
-0.698058
33
-0.734853
0
3DFACE
8
0
10
9.103333
20
-0.698058
30
-0.024101
11
8.623400
21
-0.698058
31
-0.340951
12
8.632715
22
-0.698058
32
-0.358378
13
8.632715
23
-0.698058
33
-0.358378
0
3DFACE
8
0
10
9.103333
20
-0.698058
30
-1.224101
11
8.638452
21
-0.698058
31
-0.570915
12
8.632715
22
-0.698058
32
-0.589825
13
8.632715
23
-0.698058
33
-0.589825
0
3DFACE
8
0
10
8.655733
20
-0.698058
30
-0.474101
11
8.653796
21
-0.698058
31
-0.493766
12
8.651859
22
-0.698058
32
-0.513431
13
8.651859
23
-0.698058
33
-0.513431
0
3DFACE
8
0
10
8.050934
20
-0.698058
30
-0.474101
11
8.052871
21
-0.698058
31
-0.454436
12
8.054808
22
-0.698058
32
-0.434771
13
8.054808
23
-0.698058
33
-0.434771
0
3DFACE
8
0
10
7.603333
20
-0.698058
30
-0.024101
11
8.056744
21
-0.698058
31
-0.533097
12
8.054808
22
-0.698058
32
-0.513432
13
8.054808
23
-0.698058
33
-0.513432
0
3DFACE
8
0
10
9.103333
20
-0.698058
30
-0.024101
11
8.372998
21
-0.698058
31
-0.173638
12
8.392663
22
-0.698058
32
-0.175575
13
8.392663
23
-0.698058
33
-0.175575
0
3DFACE
8
0
10
8.392663
20
-0.698058
30
-0.175575
11
8.412328
21
-0.698058
31
-0.177512
12
9.103333
22
-0.698058
32
-0.024101
13
9.103333
23
-0.698058
33
-0.024101
0
3DFACE
8
0
10
8.294337
20
-0.698058
30
-0.770691
11
8.275429
21
-0.698058
31
-0.764955
12
8.256519
22
-0.698058
32
-0.759219
13
8.256519
23
-0.698058
33
-0.759219
0
3DFACE
8
0
10
8.073952
20
-0.698058
30
-0.358378
11
8.083267
21
-0.698058
31
-0.340951
12
8.092582
22
-0.698058
32
-0.323524
13
8.092582
23
-0.698058
33
-0.323524
0
3DFACE
8
0
10
8.062480
20
-0.698058
30
-0.396197
11
8.068215
21
-0.698058
31
-0.377288
12
8.073952
22
-0.698058
32
-0.358378
13
8.073952
23
-0.698058
33
-0.358378
0
3DFACE
8
0
10
8.649923
20
-0.698058
30
-0.415106
11
8.651859
21
-0.698058
31
-0.434771
12
8.653796
22
-0.698058
32
-0.454436
13
8.653796
23
-0.698058
33
-0.454436
0
3DFACE
8
0
10
8.469057
20
-0.698058
30
-0.753483
11
8.450148
21
-0.698058
31
-0.759219
12
8.412328
22
-0.698058
32
-0.770691
13
8.412328
23
-0.698058
33
-0.770691
0
3DFACE
8
0
10
8.604770
20
-0.698058
30
-0.642106
11
8.592234
21
-0.698058
31
-0.657381
12
8.579698
22
-0.698058
32
-0.672655
13
8.579698
23
-0.698058
33
-0.672655
0
3DFACE
8
0
10
8.450148
20
-0.698058
30
-0.759219
11
8.431238
21
-0.698058
31
-0.764955
12
8.412328
22
-0.698058
32
-0.770691
13
8.412328
23
-0.698058
33
-0.770691
0
3DFACE
8
0
10
8.521338
20
-0.698058
30
-0.222665
11
8.536613
21
-0.698058
31
-0.235200
12
8.551888
22
-0.698058
32
-0.247736
13
8.551888
23
-0.698058
33
-0.247736
0
3DFACE
8
0
10
8.353333
20
-0.698058
30
-0.171701
11
7.603333
21
-0.698058
31
-0.024101
12
8.333668
22
-0.698058
32
-0.173638
13
8.333668
23
-0.698058
33
-0.173638
0
3DFACE
8
0
10
7.603333
20
-0.698058
30
-0.024101
11
8.314003
21
-0.698058
31
-0.175575
12
8.333668
22
-0.698058
32
-0.173638
13
8.333668
23
-0.698058
33
-0.173638
0
3DFACE
8
0
10
7.603333
20
-0.698058
30
-0.024101
11
8.353333
21
-0.698058
31
-0.171701
12
8.372998
22
-0.698058
32
-0.173638
13
8.372998
23
-0.698058
33
-0.173638
0
3DFACE
8
0
10
8.372998
20
-0.698058
30
-0.173638
11
9.103333
21
-0.698058
31
-0.024101
12
7.603333
22
-0.698058
32
-0.024101
13
7.603333
23
-0.698058
33
-0.024101
0
3DFACE
8
0
10
8.598070
20
-0.187565
30
-1.074101
11
8.953334
21
-0.187565
31
-1.074101
12
9.103333
22
-0.187565
32
-1.224101
13
9.103333
23
-0.187565
33
-1.224101
0
3DFACE
8
0
10
9.103333
20
-0.187565
30
-1.224101
11
7.603333
21
-0.187565
31
-1.224101
12
8.598070
22
-0.187565
32
-1.074101
13
8.598070
23
-0.187565
33
-1.074101
0
3DFACE
8
0
10
7.603333
20
-0.187565
30
-1.224101
11
8.012138
21
-0.187565
31
-1.074101
12
8.046812
22
-0.187565
32
-1.074101
13
8.046812
23
-0.187565
33
-1.074101
0
3DFACE
8
0
10
8.046812
20
-0.187565
30
-1.074101
11
8.108597
21
-0.187565
31
-1.074101
12
7.603333
22
-0.187565
32
-1.224101
13
7.603333
23
-0.187565
33
-1.224101
0
3DFACE
8
0
10
7.603333
20
-0.187565
30
-1.224101
11
8.011177
21
-0.187565
31
-1.074101
12
8.011627
22
-0.187565
32
-1.074101
13
8.011627
23
-0.187565
33
-1.074101
0
3DFACE
8
0
10
8.011627
20
-0.187565
30
-1.074101
11
8.012138
21
-0.187565
31
-1.074101
12
7.603333
22
-0.187565
32
-1.224101
13
7.603333
23
-0.187565
33
-1.224101
0
3DFACE
8
0
10
7.603333
20
-0.187565
30
-1.224101
11
8.008516
21
-0.187565
31
-1.074101
12
8.009971
22
-0.187565
32
-1.074101
13
8.009971
23
-0.187565
33
-1.074101
0
3DFACE
8
0
10
8.009971
20
-0.187565
30
-1.074101
11
8.011177
21
-0.187565
31
-1.074101
12
7.603333
22
-0.187565
32
-1.224101
13
7.603333
23
-0.187565
33
-1.224101
0
3DFACE
8
0
10
7.603333
20
-0.187565
30
-1.224101
11
8.005830
21
-0.187565
31
-1.074101
12
8.007055
22
-0.187565
32
-1.074101
13
8.007055
23
-0.187565
33
-1.074101
0
3DFACE
8
0
10
8.007055
20
-0.187565
30
-1.074101
11
8.008516
21
-0.187565
31
-1.074101
12
7.603333
22
-0.187565
32
-1.224101
13
7.603333
23
-0.187565
33
-1.224101
0
3DFACE
8
0
10
7.603333
20
-0.187565
30
-1.224101
11
7.888876
21
-0.187565
31
-1.074101
12
7.896036
22
-0.187565
32
-1.074101
13
7.896036
23
-0.187565
33
-1.074101
0
3DFACE
8
0
10
7.896036
20
-0.187565
30
-1.074101
11
8.005830
21
-0.187565
31
-1.074101
12
7.603333
22
-0.187565
32
-1.224101
13
7.603333
23
-0.187565
33
-1.224101
0
3DFACE
8
0
10
7.603333
20
-0.187565
30
-1.224101
11
7.871849
21
-0.187565
31
-1.074101
12
7.880340
22
-0.187565
32
-1.074101
13
7.880340
23
-0.187565
33
-1.074101
0
3DFACE
8
0
10
7.880340
20
-0.187565
30
-1.074101
11
7.888876
21
-0.187565
31
-1.074101
12
7.603333
22
-0.187565
32
-1.224101
13
7.603333
23
-0.187565
33
-1.224101
0
3DFACE
8
0
10
7.603333
20
-0.187565
30
-1.224101
11
7.753333
21
-0.187565
31
-1.074101
12
7.871849
22
-0.187565
32
-1.074101
13
7.871849
23
-0.187565
33
-1.074101
0
3DFACE
8
0
10
7.603333
20
-0.187565
30
-1.224101
11
7.603333
21
-0.187565
31
-0.024101
12
7.753333
22
-0.187565
32
-0.543332
13
7.753333
23
-0.187565
33
-0.543332
0
3DFACE
8
0
10
7.753333
20
-0.187565
30
-0.543332
11
7.753333
21
-0.187565
31
-1.074101
12
7.603333
22
-0.187565
32
-1.224101
13
7.603333
23
-0.187565
33
-1.224101
0
3DFACE
8
0
10
8.953334
20
-0.187565
30
-0.543332
11
9.103333
21
-0.187565
31
-0.024101
12
9.103333
22
-0.187565
32
-1.224101
13
9.103333
23
-0.187565
33
-1.224101
0
3DFACE
8
0
10
9.103333
20
-0.187565
30
-1.224101
11
8.953334
21
-0.187565
31
-1.074101
12
8.953334
22
-0.187565
32
-0.543332
13
8.953334
23
-0.187565
33
-0.543332
0
3DFACE
8
0
10
7.603333
20
-0.187565
30
-1.224101
11
8.108597
21
-0.187565
31
-1.074101
12
8.598070
22
-0.187565
32
-1.074101
13
8.598070
23
-0.187565
33
-1.074101
0
3DFACE
8
0
10
7.603333
20
-0.187565
30
-0.024101
11
7.753333
21
-0.187565
31
-0.024101
12
7.753333
22
-0.187565
32
-0.543332
13
7.753333
23
-0.187565
33
-0.543332
0
3DFACE
8
0
10
8.953334
20
-0.187565
30
-0.024101
11
9.103333
21
-0.187565
31
-0.024101
12
8.953334
22
-0.187565
32
-0.543332
13
8.953334
23
-0.187565
33
-0.543332
0
3DFACE
8
0
10
7.753333
20
-0.187565
30
-1.074101
11
7.753333
21
-0.187565
31
-0.543332
12
7.753333
22
-0.562565
32
-1.074101
13
7.753333
23
-0.562565
33
-1.074101
0
3DFACE
8
0
10
7.753333
20
-0.562565
30
-0.024101
11
7.753333
21
-0.562565
31
-1.074101
12
7.753333
22
-0.187565
32
-0.543332
13
7.753333
23
-0.187565
33
-0.543332
0
3DFACE
8
0
10
7.753333
20
-0.187565
30
-0.543332
11
7.753333
21
-0.187565
31
-0.024101
12
7.753333
22
-0.562565
32
-0.024101
13
7.753333
23
-0.562565
33
-0.024101
0
3DFACE
8
0
10
8.012138
20
-0.187565
30
-1.074101
11
8.011627
21
-0.187565
31
-1.074101
12
7.753333
22
-0.562565
32
-1.074101
13
7.753333
23
-0.562565
33
-1.074101
0
3DFACE
8
0
10
8.011177
20
-0.187565
30
-1.074101
11
8.009971
21
-0.187565
31
-1.074101
12
7.753333
22
-0.562565
32
-1.074101
13
7.753333
23
-0.562565
33
-1.074101
0
3DFACE
8
0
10
8.009971
20
-0.187565
30
-1.074101
11
8.008516
21
-0.187565
31
-1.074101
12
7.753333
22
-0.562565
32
-1.074101
13
7.753333
23
-0.562565
33
-1.074101
0
3DFACE
8
0
10
8.008516
20
-0.187565
30
-1.074101
11
8.007055
21
-0.187565
31
-1.074101
12
7.753333
22
-0.562565
32
-1.074101
13
7.753333
23
-0.562565
33
-1.074101
0
3DFACE
8
0
10
8.007055
20
-0.187565
30
-1.074101
11
8.005830
21
-0.187565
31
-1.074101
12
7.753333
22
-0.562565
32
-1.074101
13
7.753333
23
-0.562565
33
-1.074101
0
3DFACE
8
0
10
8.005830
20
-0.187565
30
-1.074101
11
7.896036
21
-0.187565
31
-1.074101
12
7.753333
22
-0.562565
32
-1.074101
13
7.753333
23
-0.562565
33
-1.074101
0
3DFACE
8
0
10
7.896036
20
-0.187565
30
-1.074101
11
7.888876
21
-0.187565
31
-1.074101
12
7.753333
22
-0.562565
32
-1.074101
13
7.753333
23
-0.562565
33
-1.074101
0
3DFACE
8
0
10
7.888876
20
-0.187565
30
-1.074101
11
7.880340
21
-0.187565
31
-1.074101
12
7.753333
22
-0.562565
32
-1.074101
13
7.753333
23
-0.562565
33
-1.074101
0
3DFACE
8
0
10
7.880340
20
-0.187565
30
-1.074101
11
7.871849
21
-0.187565
31
-1.074101
12
7.753333
22
-0.562565
32
-1.074101
13
7.753333
23
-0.562565
33
-1.074101
0
3DFACE
8
0
10
8.011627
20
-0.187565
30
-1.074101
11
8.011177
21
-0.187565
31
-1.074101
12
7.753333
22
-0.562565
32
-1.074101
13
7.753333
23
-0.562565
33
-1.074101
0
3DFACE
8
0
10
8.046812
20
-0.187565
30
-1.074101
11
8.012138
21
-0.187565
31
-1.074101
12
7.753333
22
-0.562565
32
-1.074101
13
7.753333
23
-0.562565
33
-1.074101
0
3DFACE
8
0
10
8.108597
20
-0.187565
30
-1.074101
11
8.046812
21
-0.187565
31
-1.074101
12
7.753333
22
-0.562565
32
-1.074101
13
7.753333
23
-0.562565
33
-1.074101
0
3DFACE
8
0
10
8.108597
20
-0.187565
30
-1.074101
11
7.753333
21
-0.562565
31
-1.074101
12
8.953334
22
-0.562565
32
-1.074101
13
8.953334
23
-0.562565
33
-1.074101
0
3DFACE
8
0
10
8.953334
20
-0.562565
30
-1.074101
11
8.598070
21
-0.187565
31
-1.074101
12
8.108597
22
-0.187565
32
-1.074101
13
8.108597
23
-0.187565
33
-1.074101
0
3DFACE
8
0
10
8.953334
20
-0.187565
30
-1.074101
11
8.598070
21
-0.187565
31
-1.074101
12
8.953334
22
-0.562565
32
-1.074101
13
8.953334
23
-0.562565
33
-1.074101
0
3DFACE
8
0
10
7.871849
20
-0.187565
30
-1.074101
11
7.753333
21
-0.187565
31
-1.074101
12
7.753333
22
-0.562565
32
-1.074101
13
7.753333
23
-0.562565
33
-1.074101
0
3DFACE
8
0
10
8.953334
20
-0.187565
30
-0.543332
11
8.953334
21
-0.187565
31
-1.074101
12
8.953334
22
-0.562565
32
-1.074101
13
8.953334
23
-0.562565
33
-1.074101
0
3DFACE
8
0
10
8.953334
20
-0.562565
30
-0.024101
11
8.953334
21
-0.187565
31
-0.024101
12
8.953334
22
-0.187565
32
-0.543332
13
8.953334
23
-0.187565
33
-0.543332
0
3DFACE
8
0
10
8.953334
20
-0.187565
30
-0.543332
11
8.953334
21
-0.562565
31
-1.074101
12
8.953334
22
-0.562565
32
-0.024101
13
8.953334
23
-0.562565
33
-0.024101
0
3DFACE
8
0
10
7.753333
20
-0.562565
30
-0.024101
11
8.953334
21
-0.562565
31
-0.024101
12
8.953334
22
-0.562565
32
-1.074101
13
8.953334
23
-0.562565
33
-1.074101
0
3DFACE
8
0
10
8.953334
20
-0.562565
30
-1.074101
11
7.753333
21
-0.562565
31
-1.074101
12
7.753333
22
-0.562565
32
-0.024101
13
7.753333
23
-0.562565
33
-0.024101
0
3DFACE
8
0
10
8.054808
20
-0.930625
30
-0.513432
11
8.054808
21
-0.698058
31
-0.513432
12
8.056744
22
-0.698058
32
-0.533097
13
8.056744
23
-0.698058
33
-0.533097
0
3DFACE
8
0
10
8.056744
20
-0.698058
30
-0.533097
11
8.056744
21
-0.930625
31
-0.533097
12
8.054808
22
-0.930625
32
-0.513432
13
8.054808
23
-0.930625
33
-0.513432
0
3DFACE
8
0
10
8.073952
20
-0.930625
30
-0.589825
11
8.068215
21
-0.930625
31
-0.570915
12
8.068215
22
-0.698058
32
-0.570915
13
8.068215
23
-0.698058
33
-0.570915
0
3DFACE
8
0
10
8.068215
20
-0.698058
30
-0.570915
11
8.073952
21
-0.698058
31
-0.589825
12
8.073952
22
-0.930625
32
-0.589825
13
8.073952
23
-0.930625
33
-0.589825
0
3DFACE
8
0
10
8.092582
20
-0.930625
30
-0.624679
11
8.092582
21
-0.698058
31
-0.624679
12
8.101897
22
-0.698058
32
-0.642106
13
8.101897
23
-0.698058
33
-0.642106
0
3DFACE
8
0
10
8.101897
20
-0.698058
30
-0.642106
11
8.101897
21
-0.930625
31
-0.642106
12
8.092582
22
-0.930625
32
-0.624679
13
8.092582
23
-0.930625
33
-0.624679
0
3DFACE
8
0
10
8.139504
20
-0.930625
30
-0.687930
11
8.126969
21
-0.930625
31
-0.672655
12
8.126969
22
-0.698058
32
-0.672656
13
8.126969
23
-0.698058
33
-0.672656
0
3DFACE
8
0
10
8.126969
20
-0.698058
30
-0.672656
11
8.139504
21
-0.698058
31
-0.687930
12
8.139504
22
-0.930625
32
-0.687930
13
8.139504
23
-0.930625
33
-0.687930
0
3DFACE
8
0
10
8.185329
20
-0.930625
30
-0.725538
11
8.170053
21
-0.930625
31
-0.713002
12
8.170053
22
-0.698058
32
-0.713002
13
8.170053
23
-0.698058
33
-0.713002
0
3DFACE
8
0
10
8.170053
20
-0.698058
30
-0.713002
11
8.185329
21
-0.698058
31
-0.725538
12
8.185329
22
-0.930625
32
-0.725538
13
8.185329
23
-0.930625
33
-0.725538
0
3DFACE
8
0
10
8.237610
20
-0.930625
30
-0.753482
11
8.220183
21
-0.930625
31
-0.744168
12
8.220183
22
-0.698058
32
-0.744168
13
8.220183
23
-0.698058
33
-0.744168
0
3DFACE
8
0
10
8.220183
20
-0.698058
30
-0.744168
11
8.237610
21
-0.698058
31
-0.753482
12
8.237610
22
-0.930625
32
-0.753482
13
8.237610
23
-0.930625
33
-0.753482
0
3DFACE
8
0
10
8.294337
20
-0.698058
30
-0.770691
11
8.294339
21
-0.930625
31
-0.770691
12
8.275429
22
-0.930625
32
-0.764955
13
8.275429
23
-0.930625
33
-0.764955
0
3DFACE
8
0
10
8.275429
20
-0.930625
30
-0.764955
11
8.275429
21
-0.698058
31
-0.764955
12
8.294337
22
-0.698058
32
-0.770691
13
8.294337
23
-0.698058
33
-0.770691
0
3DFACE
8
0
10
8.353333
20
-0.698058
30
-0.776501
11
8.353333
21
-0.930625
31
-0.776501
12
8.333669
22
-0.930625
32
-0.774565
13
8.333669
23
-0.930625
33
-0.774565
0
3DFACE
8
0
10
8.333669
20
-0.930625
30
-0.774565
11
8.333668
21
-0.698058
31
-0.774565
12
8.353333
22
-0.698058
32
-0.776501
13
8.353333
23
-0.698058
33
-0.776501
0
3DFACE
8
0
10
8.392664
20
-0.930625
30
-0.772628
11
8.392663
21
-0.698058
31
-0.772628
12
8.412328
22
-0.698058
32
-0.770691
13
8.412328
23
-0.698058
33
-0.770691
0
3DFACE
8
0
10
8.412328
20
-0.698058
30
-0.770691
11
8.412330
21
-0.930625
31
-0.770691
12
8.392664
22
-0.930625
32
-0.772628
13
8.392664
23
-0.930625
33
-0.772628
0
3DFACE
8
0
10
8.450148
20
-0.930625
30
-0.759219
11
8.450148
21
-0.698058
31
-0.759219
12
8.469057
22
-0.698058
32
-0.753483
13
8.469057
23
-0.698058
33
-0.753483
0
3DFACE
8
0
10
8.469057
20
-0.698058
30
-0.753483
11
8.469057
21
-0.930625
31
-0.753482
12
8.450148
22
-0.930625
32
-0.759219
13
8.450148
23
-0.930625
33
-0.759219
0
3DFACE
8
0
10
8.503910
20
-0.930625
30
-0.734853
11
8.503910
21
-0.698058
31
-0.734853
12
8.521338
22
-0.698058
32
-0.725538
13
8.521338
23
-0.698058
33
-0.725538
0
3DFACE
8
0
10
8.521338
20
-0.698058
30
-0.725538
11
8.521338
21
-0.930625
31
-0.725538
12
8.503910
22
-0.930625
32
-0.734853
13
8.503910
23
-0.930625
33
-0.734853
0
3DFACE
8
0
10
8.551888
20
-0.930625
30
-0.700466
11
8.551888
21
-0.698058
31
-0.700466
12
8.567163
22
-0.698058
32
-0.687930
13
8.567163
23
-0.698058
33
-0.687930
0
3DFACE
8
0
10
8.567163
20
-0.698058
30
-0.687930
11
8.567163
21
-0.930625
31
-0.687930
12
8.551888
22
-0.930625
32
-0.700466
13
8.551888
23
-0.930625
33
-0.700466
0
3DFACE
8
0
10
8.592234
20
-0.930625
30
-0.657381
11
8.592234
21
-0.698058
31
-0.657381
12
8.604770
22
-0.698058
32
-0.642106
13
8.604770
23
-0.698058
33
-0.642106
0
3DFACE
8
0
10
8.604770
20
-0.698058
30
-0.642106
11
8.604770
21
-0.930625
31
-0.642106
12
8.592234
22
-0.930625
32
-0.657381
13
8.592234
23
-0.930625
33
-0.657381
0
3DFACE
8
0
10
8.623400
20
-0.930625
30
-0.607252
11
8.623400
21
-0.698058
31
-0.607252
12
8.632715
22
-0.698058
32
-0.589825
13
8.632715
23
-0.698058
33
-0.589825
0
3DFACE
8
0
10
8.632715
20
-0.698058
30
-0.589825
11
8.632715
21
-0.930625
31
-0.589825
12
8.623400
22
-0.930625
32
-0.607252
13
8.623400
23
-0.930625
33
-0.607252
0
3DFACE
8
0
10
8.644187
20
-0.930625
30
-0.552006
11
8.644187
21
-0.698058
31
-0.552006
12
8.649923
22
-0.698058
32
-0.533097
13
8.649923
23
-0.698058
33
-0.533097
0
3DFACE
8
0
10
8.649923
20
-0.698058
30
-0.533097
11
8.649923
21
-0.930625
31
-0.533097
12
8.644187
22
-0.930625
32
-0.552006
13
8.644187
23
-0.930625
33
-0.552006
0
3DFACE
8
0
10
8.653796
20
-0.930625
30
-0.493766
11
8.653796
21
-0.698058
31
-0.493766
12
8.655733
22
-0.698058
32
-0.474101
13
8.655733
23
-0.698058
33
-0.474101
0
3DFACE
8
0
10
8.655733
20
-0.698058
30
-0.474101
11
8.655733
21
-0.930625
31
-0.474101
12
8.653796
22
-0.930625
32
-0.493766
13
8.653796
23
-0.930625
33
-0.493766
0
3DFACE
8
0
10
8.651859
20
-0.930625
30
-0.434771
11
8.651859
21
-0.698058
31
-0.434771
12
8.649923
22
-0.698058
32
-0.415106
13
8.649923
23
-0.698058
33
-0.415106
0
3DFACE
8
0
10
8.649923
20
-0.698058
30
-0.415106
11
8.649923
21
-0.930625
31
-0.415106
12
8.651859
22
-0.930625
32
-0.434771
13
8.651859
23
-0.930625
33
-0.434771
0
3DFACE
8
0
10
8.638452
20
-0.930625
30
-0.377287
11
8.638452
21
-0.698058
31
-0.377287
12
8.632715
22
-0.698058
32
-0.358378
13
8.632715
23
-0.698058
33
-0.358378
0
3DFACE
8
0
10
8.632715
20
-0.698058
30
-0.358378
11
8.632715
21
-0.930625
31
-0.358378
12
8.638452
22
-0.930625
32
-0.377287
13
8.638452
23
-0.930625
33
-0.377287
0
3DFACE
8
0
10
8.614085
20
-0.930625
30
-0.323524
11
8.614085
21
-0.698058
31
-0.323524
12
8.604770
22
-0.698058
32
-0.306097
13
8.604770
23
-0.698058
33
-0.306097
0
3DFACE
8
0
10
8.604770
20
-0.698058
30
-0.306097
11
8.604770
21
-0.930625
31
-0.306097
12
8.614085
22
-0.930625
32
-0.323524
13
8.614085
23
-0.930625
33
-0.323524
0
3DFACE
8
0
10
8.579698
20
-0.930625
30
-0.275547
11
8.579698
21
-0.698058
31
-0.275547
12
8.567163
22
-0.698058
32
-0.260272
13
8.567163
23
-0.698058
33
-0.260272
0
3DFACE
8
0
10
8.567163
20
-0.698058
30
-0.260272
11
8.567163
21
-0.930625
31
-0.260272
12
8.579698
22
-0.930625
32
-0.275547
13
8.579698
23
-0.930625
33
-0.275547
0
3DFACE
8
0
10
8.521338
20
-0.930625
30
-0.222665
11
8.536613
21
-0.930625
31
-0.235201
12
8.536613
22
-0.698058
32
-0.235200
13
8.536613
23
-0.698058
33
-0.235200
0
3DFACE
8
0
10
8.536613
20
-0.698058
30
-0.235200
11
8.521338
21
-0.698058
31
-0.222665
12
8.521338
22
-0.930625
32
-0.222665
13
8.521338
23
-0.930625
33
-0.222665
0
3DFACE
8
0
10
8.469056
20
-0.930625
30
-0.194720
11
8.486484
21
-0.930625
31
-0.204035
12
8.486484
22
-0.698058
32
-0.204035
13
8.486484
23
-0.698058
33
-0.204035
0
3DFACE
8
0
10
8.486484
20
-0.698058
30
-0.204035
11
8.469056
21
-0.698058
31
-0.194720
12
8.469056
22
-0.930625
32
-0.194720
13
8.469056
23
-0.930625
33
-0.194720
0
3DFACE
8
0
10
8.412328
20
-0.930625
30
-0.177512
11
8.431237
21
-0.930625
31
-0.183248
12
8.431237
22
-0.698058
32
-0.183248
13
8.431237
23
-0.698058
33
-0.183248
0
3DFACE
8
0
10
8.431237
20
-0.698058
30
-0.183248
11
8.412328
21
-0.698058
31
-0.177512
12
8.412328
22
-0.930625
32
-0.177512
13
8.412328
23
-0.930625
33
-0.177512
0
3DFACE
8
0
10
8.353333
20
-0.930625
30
-0.171701
11
8.372998
21
-0.930625
31
-0.173638
12
8.372998
22
-0.698058
32
-0.173638
13
8.372998
23
-0.698058
33
-0.173638
0
3DFACE
8
0
10
8.372998
20
-0.698058
30
-0.173638
11
8.353333
21
-0.698058
31
-0.171701
12
8.353333
22
-0.930625
32
-0.171701
13
8.353333
23
-0.930625
33
-0.171701
0
3DFACE
8
0
10
8.314003
20
-0.930625
30
-0.175575
11
8.314003
21
-0.698058
31
-0.175575
12
8.294337
22
-0.698058
32
-0.177512
13
8.294337
23
-0.698058
33
-0.177512
0
3DFACE
8
0
10
8.294337
20
-0.698058
30
-0.177512
11
8.294337
21
-0.930625
31
-0.177512
12
8.314003
22
-0.930625
32
-0.175575
13
8.314003
23
-0.930625
33
-0.175575
0
3DFACE
8
0
10
8.256519
20
-0.930625
30
-0.188984
11
8.256519
21
-0.698058
31
-0.188984
12
8.237610
22
-0.698058
32
-0.194720
13
8.237610
23
-0.698058
33
-0.194720
0
3DFACE
8
0
10
8.237610
20
-0.698058
30
-0.194720
11
8.237610
21
-0.930625
31
-0.194720
12
8.256519
22
-0.930625
32
-0.188984
13
8.256519
23
-0.930625
33
-0.188984
0
3DFACE
8
0
10
8.202755
20
-0.930625
30
-0.213350
11
8.202755
21
-0.698058
31
-0.213350
12
8.185328
22
-0.698058
32
-0.222665
13
8.185328
23
-0.698058
33
-0.222665
0
3DFACE
8
0
10
8.185328
20
-0.698058
30
-0.222665
11
8.185328
21
-0.930625
31
-0.222665
12
8.202755
22
-0.930625
32
-0.213350
13
8.202755
23
-0.930625
33
-0.213350
0
3DFACE
8
0
10
8.154778
20
-0.930625
30
-0.247737
11
8.154778
21
-0.698058
31
-0.247737
12
8.139504
22
-0.698058
32
-0.260273
13
8.139504
23
-0.698058
33
-0.260273
0
3DFACE
8
0
10
8.139504
20
-0.698058
30
-0.260273
11
8.139504
21
-0.930625
31
-0.260273
12
8.154778
22
-0.930625
32
-0.247737
13
8.154778
23
-0.930625
33
-0.247737
0
3DFACE
8
0
10
8.114432
20
-0.930625
30
-0.290822
11
8.114432
21
-0.698058
31
-0.290822
12
8.101897
22
-0.698058
32
-0.306097
13
8.101897
23
-0.698058
33
-0.306097
0
3DFACE
8
0
10
8.101897
20
-0.698058
30
-0.306097
11
8.101897
21
-0.930625
31
-0.306097
12
8.114432
22
-0.930625
32
-0.290822
13
8.114432
23
-0.930625
33
-0.290822
0
3DFACE
8
0
10
8.083267
20
-0.930625
30
-0.340951
11
8.083267
21
-0.698058
31
-0.340951
12
8.073952
22
-0.698058
32
-0.358378
13
8.073952
23
-0.698058
33
-0.358378
0
3DFACE
8
0
10
8.073952
20
-0.698058
30
-0.358378
11
8.073952
21
-0.930625
31
-0.358378
12
8.083267
22
-0.930625
32
-0.340951
13
8.083267
23
-0.930625
33
-0.340951
0
3DFACE
8
0
10
8.052871
20
-0.930625
30
-0.454436
11
8.052871
21
-0.698058
31
-0.454436
12
8.050934
22
-0.698058
32
-0.474101
13
8.050934
23
-0.698058
33
-0.474101
0
3DFACE
8
0
10
8.050934
20
-0.698058
30
-0.474101
11
8.050934
21
-0.930625
31
-0.474101
12
8.052871
22
-0.930625
32
-0.454436
13
8.052871
23
-0.930625
33
-0.454436
0
3DFACE
8
0
10
8.056744
20
-0.698058
30
-0.415106
11
8.056744
21
-0.930625
31
-0.415107
12
8.062480
22
-0.930625
32
-0.396197
13
8.062480
23
-0.930625
33
-0.396197
0
3DFACE
8
0
10
8.062480
20
-0.930625
30
-0.396197
11
8.062480
21
-0.698058
31
-0.396197
12
8.056744
22
-0.698058
32
-0.415106
13
8.056744
23
-0.698058
33
-0.415106
0
3DFACE
8
0
10
8.141654
20
-1.047265
30
-0.474101
11
8.143009
21
-1.047265
31
-0.487867
12
8.143009
22
-1.047265
32
-0.460336
13
8.143009
23
-1.047265
33
-0.460336
0
3DFACE
8
0
10
8.143009
20
-1.047265
30
-0.487867
11
8.144365
21
-1.047265
31
-0.446570
12
8.143009
22
-1.047265
32
-0.460336
13
8.143009
23
-1.047265
33
-0.460336
0
3DFACE
8
0
10
8.143009
20
-1.047265
30
-0.487867
11
8.144365
21
-1.047265
31
-0.501633
12
8.144365
22
-1.047265
32
-0.446570
13
8.144365
23
-1.047265
33
-0.446570
0
3DFACE
8
0
10
8.144365
20
-1.047265
30
-0.501633
11
8.145720
21
-1.047265
31
-0.432805
12
8.144365
22
-1.047265
32
-0.446570
13
8.144365
23
-1.047265
33
-0.446570
0
3DFACE
8
0
10
8.144365
20
-1.047265
30
-0.501633
11
8.145720
21
-1.047265
31
-0.515398
12
8.145720
22
-1.047265
32
-0.432805
13
8.145720
23
-1.047265
33
-0.432805
0
3DFACE
8
0
10
8.145720
20
-1.047265
30
-0.515398
11
8.149736
21
-1.047265
31
-0.419568
12
8.145720
22
-1.047265
32
-0.432805
13
8.145720
23
-1.047265
33
-0.432805
0
3DFACE
8
0
10
8.145720
20
-1.047265
30
-0.515398
11
8.149736
21
-1.047265
31
-0.528635
12
8.149736
22
-1.047265
32
-0.419568
13
8.149736
23
-1.047265
33
-0.419568
0
3DFACE
8
0
10
8.149736
20
-1.047265
30
-0.528635
11
8.153751
21
-1.047265
31
-0.406332
12
8.149736
22
-1.047265
32
-0.419568
13
8.149736
23
-1.047265
33
-0.419568
0
3DFACE
8
0
10
8.149736
20
-1.047265
30
-0.528635
11
8.153751
21
-1.047265
31
-0.541871
12
8.153751
22
-1.047265
32
-0.406332
13
8.153751
23
-1.047265
33
-0.406332
0
3DFACE
8
0
10
8.153751
20
-1.047265
30
-0.541871
11
8.157766
21
-1.047265
31
-0.393095
12
8.153751
22
-1.047265
32
-0.406332
13
8.153751
23
-1.047265
33
-0.406332
0
3DFACE
8
0
10
8.153751
20
-1.047265
30
-0.541871
11
8.157766
21
-1.047265
31
-0.555108
12
8.157766
22
-1.047265
32
-0.393095
13
8.157766
23
-1.047265
33
-0.393095
0
3DFACE
8
0
10
8.157766
20
-1.047265
30
-0.555108
11
8.164288
21
-1.047265
31
-0.380896
12
8.157766
22
-1.047265
32
-0.393095
13
8.157766
23
-1.047265
33
-0.393095
0
3DFACE
8
0
10
8.157766
20
-1.047265
30
-0.555108
11
8.164288
21
-1.047265
31
-0.567307
12
8.164288
22
-1.047265
32
-0.380896
13
8.164288
23
-1.047265
33
-0.380896
0
3DFACE
8
0
10
8.164288
20
-1.047265
30
-0.567307
11
8.170808
21
-1.047265
31
-0.368697
12
8.164288
22
-1.047265
32
-0.380896
13
8.164288
23
-1.047265
33
-0.380896
0
3DFACE
8
0
10
8.164288
20
-1.047265
30
-0.567307
11
8.170808
21
-1.047265
31
-0.579506
12
8.170808
22
-1.047265
32
-0.368697
13
8.170808
23
-1.047265
33
-0.368697
0
3DFACE
8
0
10
8.170808
20
-1.047265
30
-0.579506
11
8.177328
21
-1.047265
31
-0.356499
12
8.170808
22
-1.047265
32
-0.368697
13
8.170808
23
-1.047265
33
-0.368697
0
3DFACE
8
0
10
8.170808
20
-1.047265
30
-0.579506
11
8.177328
21
-1.047265
31
-0.591704
12
8.177328
22
-1.047265
32
-0.356499
13
8.177328
23
-1.047265
33
-0.356499
0
3DFACE
8
0
10
8.177328
20
-1.047265
30
-0.591704
11
8.186103
21
-1.047265
31
-0.345806
12
8.177328
22
-1.047265
32
-0.356499
13
8.177328
23
-1.047265
33
-0.356499
0
3DFACE
8
0
10
8.177328
20
-1.047265
30
-0.591704
11
8.186103
21
-1.047265
31
-0.602397
12
8.186103
22
-1.047265
32
-0.345806
13
8.186103
23
-1.047265
33
-0.345806
0
3DFACE
8
0
10
8.186103
20
-1.047265
30
-0.602397
11
8.194878
21
-1.047265
31
-0.335114
12
8.186103
22
-1.047265
32
-0.345806
13
8.186103
23
-1.047265
33
-0.345806
0
3DFACE
8
0
10
8.186103
20
-1.047265
30
-0.602397
11
8.194878
21
-1.047265
31
-0.613089
12
8.194878
22
-1.047265
32
-0.335114
13
8.194878
23
-1.047265
33
-0.335114
0
3DFACE
8
0
10
8.194878
20
-1.047265
30
-0.613089
11
8.203652
21
-1.047265
31
-0.324421
12
8.194878
22
-1.047265
32
-0.335114
13
8.194878
23
-1.047265
33
-0.335114
0
3DFACE
8
0
10
8.194878
20
-1.047265
30
-0.613089
11
8.203653
21
-1.047265
31
-0.623782
12
8.203652
22
-1.047265
32
-0.324421
13
8.203652
23
-1.047265
33
-0.324421
0
3DFACE
8
0
10
8.203653
20
-1.047265
30
-0.623782
11
8.214345
21
-1.047265
31
-0.315646
12
8.203652
22
-1.047265
32
-0.324421
13
8.203652
23
-1.047265
33
-0.324421
0
3DFACE
8
0
10
8.203653
20
-1.047265
30
-0.623782
11
8.214345
21
-1.047265
31
-0.632557
12
8.214345
22
-1.047265
32
-0.315646
13
8.214345
23
-1.047265
33
-0.315646
0
3DFACE
8
0
10
8.214345
20
-1.047265
30
-0.632557
11
8.225038
21
-1.047265
31
-0.306871
12
8.214345
22
-1.047265
32
-0.315646
13
8.214345
23
-1.047265
33
-0.315646
0
3DFACE
8
0
10
8.214345
20
-1.047265
30
-0.632557
11
8.225039
21
-1.047265
31
-0.641332
12
8.225038
22
-1.047265
32
-0.306871
13
8.225038
23
-1.047265
33
-0.306871
0
3DFACE
8
0
10
8.225039
20
-1.047265
30
-0.641332
11
8.235730
21
-1.047265
31
-0.298096
12
8.225038
22
-1.047265
32
-0.306871
13
8.225038
23
-1.047265
33
-0.306871
0
3DFACE
8
0
10
8.225039
20
-1.047265
30
-0.641332
11
8.235730
21
-1.047265
31
-0.650107
12
8.235730
22
-1.047265
32
-0.298096
13
8.235730
23
-1.047265
33
-0.298096
0
3DFACE
8
0
10
8.235730
20
-1.047265
30
-0.650107
11
8.247929
21
-1.047265
31
-0.291576
12
8.235730
22
-1.047265
32
-0.298096
13
8.235730
23
-1.047265
33
-0.298096
0
3DFACE
8
0
10
8.235730
20
-1.047265
30
-0.650107
11
8.247929
21
-1.047265
31
-0.656627
12
8.247929
22
-1.047265
32
-0.291576
13
8.247929
23
-1.047265
33
-0.291576
0
3DFACE
8
0
10
8.247929
20
-1.047265
30
-0.656627
11
8.260128
21
-1.047265
31
-0.285055
12
8.247929
22
-1.047265
32
-0.291576
13
8.247929
23
-1.047265
33
-0.291576
0
3DFACE
8
0
10
8.247929
20
-1.047265
30
-0.656627
11
8.260128
21
-1.047265
31
-0.663148
12
8.260128
22
-1.047265
32
-0.285055
13
8.260128
23
-1.047265
33
-0.285055
0
3DFACE
8
0
10
8.260128
20
-1.047265
30
-0.663148
11
8.272326
21
-1.047265
31
-0.278535
12
8.260128
22
-1.047265
32
-0.285055
13
8.260128
23
-1.047265
33
-0.285055
0
3DFACE
8
0
10
8.260128
20
-1.047265
30
-0.663148
11
8.272327
21
-1.047265
31
-0.669668
12
8.272326
22
-1.047265
32
-0.278535
13
8.272326
23
-1.047265
33
-0.278535
0
3DFACE
8
0
10
8.272327
20
-1.047265
30
-0.669668
11
8.285563
21
-1.047265
31
-0.274519
12
8.272326
22
-1.047265
32
-0.278535
13
8.272326
23
-1.047265
33
-0.278535
0
3DFACE
8
0
10
8.272327
20
-1.047265
30
-0.669668
11
8.285563
21
-1.047265
31
-0.673683
12
8.285563
22
-1.047265
32
-0.274519
13
8.285563
23
-1.047265
33
-0.274519
0
3DFACE
8
0
10
8.285563
20
-1.047265
30
-0.673683
11
8.298800
21
-1.047265
31
-0.270504
12
8.285563
22
-1.047265
32
-0.274519
13
8.285563
23
-1.047265
33
-0.274519
0
3DFACE
8
0
10
8.285563
20
-1.047265
30
-0.673683
11
8.298800
21
-1.047265
31
-0.677699
12
8.298800
22
-1.047265
32
-0.270504
13
8.298800
23
-1.047265
33
-0.270504
0
3DFACE
8
0
10
8.298800
20
-1.047265
30
-0.677699
11
8.312037
21
-1.047265
31
-0.266489
12
8.298800
22
-1.047265
32
-0.270504
13
8.298800
23
-1.047265
33
-0.270504
0
3DFACE
8
0
10
8.298800
20
-1.047265
30
-0.677699
11
8.312037
21
-1.047265
31
-0.681714
12
8.312037
22
-1.047265
32
-0.266489
13
8.312037
23
-1.047265
33
-0.266489
0
3DFACE
8
0
10
8.312037
20
-1.047265
30
-0.681714
11
8.325803
21
-1.047265
31
-0.265133
12
8.312037
22
-1.047265
32
-0.266489
13
8.312037
23
-1.047265
33
-0.266489
0
3DFACE
8
0
10
8.312037
20
-1.047265
30
-0.681714
11
8.325803
21
-1.047265
31
-0.683070
12
8.325803
22
-1.047265
32
-0.265133
13
8.325803
23
-1.047265
33
-0.265133
0
3DFACE
8
0
10
8.325803
20
-1.047265
30
-0.683070
11
8.339568
21
-1.047265
31
-0.263777
12
8.325803
22
-1.047265
32
-0.265133
13
8.325803
23
-1.047265
33
-0.265133
0
3DFACE
8
0
10
8.325803
20
-1.047265
30
-0.683070
11
8.339568
21
-1.047265
31
-0.684426
12
8.339568
22
-1.047265
32
-0.263777
13
8.339568
23
-1.047265
33
-0.263777
0
3DFACE
8
0
10
8.339568
20
-1.047265
30
-0.684426
11
8.353333
21
-1.047265
31
-0.262421
12
8.339568
22
-1.047265
32
-0.263777
13
8.339568
23
-1.047265
33
-0.263777
0
3DFACE
8
0
10
8.339568
20
-1.047265
30
-0.684426
11
8.353333
21
-1.047265
31
-0.685781
12
8.353333
22
-1.047265
32
-0.262421
13
8.353333
23
-1.047265
33
-0.262421
0
3DFACE
8
0
10
8.353333
20
-1.047265
30
-0.685781
11
8.367099
21
-1.047265
31
-0.263777
12
8.353333
22
-1.047265
32
-0.262421
13
8.353333
23
-1.047265
33
-0.262421
0
3DFACE
8
0
10
8.353333
20
-1.047265
30
-0.685781
11
8.367099
21
-1.047265
31
-0.684426
12
8.367099
22
-1.047265
32
-0.263777
13
8.367099
23
-1.047265
33
-0.263777
0
3DFACE
8
0
10
8.367099
20
-1.047265
30
-0.684426
11
8.380864
21
-1.047265
31
-0.265133
12
8.367099
22
-1.047265
32
-0.263777
13
8.367099
23
-1.047265
33
-0.263777
0
3DFACE
8
0
10
8.367099
20
-1.047265
30
-0.684426
11
8.380864
21
-1.047265
31
-0.683070
12
8.380864
22
-1.047265
32
-0.265133
13
8.380864
23
-1.047265
33
-0.265133
0
3DFACE
8
0
10
8.380864
20
-1.047265
30
-0.683070
11
8.394630
21
-1.047265
31
-0.266489
12
8.380864
22
-1.047265
32
-0.265133
13
8.380864
23
-1.047265
33
-0.265133
0
3DFACE
8
0
10
8.380864
20
-1.047265
30
-0.683070
11
8.394630
21
-1.047265
31
-0.681714
12
8.394630
22
-1.047265
32
-0.266489
13
8.394630
23
-1.047265
33
-0.266489
0
3DFACE
8
0
10
8.394630
20
-1.047265
30
-0.681714
11
8.407867
21
-1.047265
31
-0.270504
12
8.394630
22
-1.047265
32
-0.266489
13
8.394630
23
-1.047265
33
-0.266489
0
3DFACE
8
0
10
8.394630
20
-1.047265
30
-0.681714
11
8.407867
21
-1.047265
31
-0.677699
12
8.407867
22
-1.047265
32
-0.270504
13
8.407867
23
-1.047265
33
-0.270504
0
3DFACE
8
0
10
8.407867
20
-1.047265
30
-0.677699
11
8.421103
21
-1.047265
31
-0.274519
12
8.407867
22
-1.047265
32
-0.270504
13
8.407867
23
-1.047265
33
-0.270504
0
3DFACE
8
0
10
8.407867
20
-1.047265
30
-0.677699
11
8.421103
21
-1.047265
31
-0.673683
12
8.421103
22
-1.047265
32
-0.274519
13
8.421103
23
-1.047265
33
-0.274519
0
3DFACE
8
0
10
8.421103
20
-1.047265
30
-0.673683
11
8.434340
21
-1.047265
31
-0.278535
12
8.421103
22
-1.047265
32
-0.274519
13
8.421103
23
-1.047265
33
-0.274519
0
3DFACE
8
0
10
8.421103
20
-1.047265
30
-0.673683
11
8.434340
21
-1.047265
31
-0.669668
12
8.434340
22
-1.047265
32
-0.278535
13
8.434340
23
-1.047265
33
-0.278535
0
3DFACE
8
0
10
8.434340
20
-1.047265
30
-0.669668
11
8.446539
21
-1.047265
31
-0.285055
12
8.434340
22
-1.047265
32
-0.278535
13
8.434340
23
-1.047265
33
-0.278535
0
3DFACE
8
0
10
8.434340
20
-1.047265
30
-0.669668
11
8.446539
21
-1.047265
31
-0.663148
12
8.446539
22
-1.047265
32
-0.285055
13
8.446539
23
-1.047265
33
-0.285055
0
3DFACE
8
0
10
8.446539
20
-1.047265
30
-0.663148
11
8.458738
21
-1.047265
31
-0.291575
12
8.446539
22
-1.047265
32
-0.285055
13
8.446539
23
-1.047265
33
-0.285055
0
3DFACE
8
0
10
8.446539
20
-1.047265
30
-0.663148
11
8.458738
21
-1.047265
31
-0.656627
12
8.458738
22
-1.047265
32
-0.291575
13
8.458738
23
-1.047265
33
-0.291575
0
3DFACE
8
0
10
8.458738
20
-1.047265
30
-0.656627
11
8.470936
21
-1.047265
31
-0.298096
12
8.458738
22
-1.047265
32
-0.291575
13
8.458738
23
-1.047265
33
-0.291575
0
3DFACE
8
0
10
8.458738
20
-1.047265
30
-0.656627
11
8.470936
21
-1.047265
31
-0.650107
12
8.470936
22
-1.047265
32
-0.298096
13
8.470936
23
-1.047265
33
-0.298096
0
3DFACE
8
0
10
8.470936
20
-1.047265
30
-0.650107
11
8.481629
21
-1.047265
31
-0.306871
12
8.470936
22
-1.047265
32
-0.298096
13
8.470936
23
-1.047265
33
-0.298096
0
3DFACE
8
0
10
8.470936
20
-1.047265
30
-0.650107
11
8.481629
21
-1.047265
31
-0.641332
12
8.481629
22
-1.047265
32
-0.306871
13
8.481629
23
-1.047265
33
-0.306871
0
3DFACE
8
0
10
8.481629
20
-1.047265
30
-0.641332
11
8.492321
21
-1.047265
31
-0.315646
12
8.481629
22
-1.047265
32
-0.306871
13
8.481629
23
-1.047265
33
-0.306871
0
3DFACE
8
0
10
8.481629
20
-1.047265
30
-0.641332
11
8.492322
21
-1.047265
31
-0.632557
12
8.492321
22
-1.047265
32
-0.315646
13
8.492321
23
-1.047265
33
-0.315646
0
3DFACE
8
0
10
8.492322
20
-1.047265
30
-0.632557
11
8.503014
21
-1.047265
31
-0.324421
12
8.492321
22
-1.047265
32
-0.315646
13
8.492321
23
-1.047265
33
-0.315646
0
3DFACE
8
0
10
8.492322
20
-1.047265
30
-0.632557
11
8.503014
21
-1.047265
31
-0.623782
12
8.503014
22
-1.047265
32
-0.324421
13
8.503014
23
-1.047265
33
-0.324421
0
3DFACE
8
0
10
8.503014
20
-1.047265
30
-0.623782
11
8.511789
21
-1.047265
31
-0.335113
12
8.503014
22
-1.047265
32
-0.324421
13
8.503014
23
-1.047265
33
-0.324421
0
3DFACE
8
0
10
8.503014
20
-1.047265
30
-0.623782
11
8.511789
21
-1.047265
31
-0.613089
12
8.511789
22
-1.047265
32
-0.335113
13
8.511789
23
-1.047265
33
-0.335113
0
3DFACE
8
0
10
8.511789
20
-1.047265
30
-0.613089
11
8.520564
21
-1.047265
31
-0.345806
12
8.511789
22
-1.047265
32
-0.335113
13
8.511789
23
-1.047265
33
-0.335113
0
3DFACE
8
0
10
8.511789
20
-1.047265
30
-0.613089
11
8.520564
21
-1.047265
31
-0.602397
12
8.520564
22
-1.047265
32
-0.345806
13
8.520564
23
-1.047265
33
-0.345806
0
3DFACE
8
0
10
8.520564
20
-1.047265
30
-0.602397
11
8.529339
21
-1.047265
31
-0.356498
12
8.520564
22
-1.047265
32
-0.345806
13
8.520564
23
-1.047265
33
-0.345806
0
3DFACE
8
0
10
8.520564
20
-1.047265
30
-0.602397
11
8.529339
21
-1.047265
31
-0.591704
12
8.529339
22
-1.047265
32
-0.356498
13
8.529339
23
-1.047265
33
-0.356498
0
3DFACE
8
0
10
8.529339
20
-1.047265
30
-0.591704
11
8.535859
21
-1.047265
31
-0.368697
12
8.529339
22
-1.047265
32
-0.356498
13
8.529339
23
-1.047265
33
-0.356498
0
3DFACE
8
0
10
8.529339
20
-1.047265
30
-0.591704
11
8.535859
21
-1.047265
31
-0.579506
12
8.535859
22
-1.047265
32
-0.368697
13
8.535859
23
-1.047265
33
-0.368697
0
3DFACE
8
0
10
8.535859
20
-1.047265
30
-0.579506
11
8.542379
21
-1.047265
31
-0.380896
12
8.535859
22
-1.047265
32
-0.368697
13
8.535859
23
-1.047265
33
-0.368697
0
3DFACE
8
0
10
8.535859
20
-1.047265
30
-0.579506
11
8.542379
21
-1.047265
31
-0.567307
12
8.542379
22
-1.047265
32
-0.380896
13
8.542379
23
-1.047265
33
-0.380896
0
3DFACE
8
0
10
8.542379
20
-1.047265
30
-0.567307
11
8.548901
21
-1.047265
31
-0.393095
12
8.542379
22
-1.047265
32
-0.380896
13
8.542379
23
-1.047265
33
-0.380896
0
3DFACE
8
0
10
8.542379
20
-1.047265
30
-0.567307
11
8.548901
21
-1.047265
31
-0.555108
12
8.548901
22
-1.047265
32
-0.393095
13
8.548901
23
-1.047265
33
-0.393095
0
3DFACE
8
0
10
8.548901
20
-1.047265
30
-0.555108
11
8.552916
21
-1.047265
31
-0.406331
12
8.548901
22
-1.047265
32
-0.393095
13
8.548901
23
-1.047265
33
-0.393095
0
3DFACE
8
0
10
8.548901
20
-1.047265
30
-0.555108
11
8.552916
21
-1.047265
31
-0.541871
12
8.552916
22
-1.047265
32
-0.406331
13
8.552916
23
-1.047265
33
-0.406331
0
3DFACE
8
0
10
8.552916
20
-1.047265
30
-0.541871
11
8.556931
21
-1.047265
31
-0.419568
12
8.552916
22
-1.047265
32
-0.406331
13
8.552916
23
-1.047265
33
-0.406331
0
3DFACE
8
0
10
8.552916
20
-1.047265
30
-0.541871
11
8.556931
21
-1.047265
31
-0.528635
12
8.556931
22
-1.047265
32
-0.419568
13
8.556931
23
-1.047265
33
-0.419568
0
3DFACE
8
0
10
8.556931
20
-1.047265
30
-0.528635
11
8.560946
21
-1.047265
31
-0.432805
12
8.556931
22
-1.047265
32
-0.419568
13
8.556931
23
-1.047265
33
-0.419568
0
3DFACE
8
0
10
8.556931
20
-1.047265
30
-0.528635
11
8.560946
21
-1.047265
31
-0.515398
12
8.560946
22
-1.047265
32
-0.432805
13
8.560946
23
-1.047265
33
-0.432805
0
3DFACE
8
0
10
8.560946
20
-1.047265
30
-0.515398
11
8.562302
21
-1.047265
31
-0.446570
12
8.560946
22
-1.047265
32
-0.432805
13
8.560946
23
-1.047265
33
-0.432805
0
3DFACE
8
0
10
8.560946
20
-1.047265
30
-0.515398
11
8.562302
21
-1.047265
31
-0.501632
12
8.562302
22
-1.047265
32
-0.446570
13
8.562302
23
-1.047265
33
-0.446570
0
3DFACE
8
0
10
8.562302
20
-1.047265
30
-0.501632
11
8.563658
21
-1.047265
31
-0.460336
12
8.562302
22
-1.047265
32
-0.446570
13
8.562302
23
-1.047265
33
-0.446570
0
3DFACE
8
0
10
8.562302
20
-1.047265
30
-0.501632
11
8.563658
21
-1.047265
31
-0.487867
12
8.563658
22
-1.047265
32
-0.460336
13
8.563658
23
-1.047265
33
-0.460336
0
3DFACE
8
0
10
8.563658
20
-1.047265
30
-0.487867
11
8.565013
21
-1.047265
31
-0.474101
12
8.563658
22
-1.047265
32
-0.460336
13
8.563658
23
-1.047265
33
-0.460336
0
3DFACE
8
0
10
8.145720
20
-0.930625
30
-0.515398
11
8.145720
21
-1.047265
31
-0.515398
12
8.144365
22
-1.047265
32
-0.501633
13
8.144365
23
-1.047265
33
-0.501633
0
3DFACE
8
0
10
8.144365
20
-1.047265
30
-0.501633
11
8.144365
21
-0.930625
31
-0.501633
12
8.145720
22
-0.930625
32
-0.515398
13
8.145720
23
-0.930625
33
-0.515398
0
3DFACE
8
0
10
8.054808
20
-0.930625
30
-0.513432
11
8.056744
21
-0.930625
31
-0.533097
12
8.145720
22
-0.930625
32
-0.515398
13
8.145720
23
-0.930625
33
-0.515398
0
3DFACE
8
0
10
8.145720
20
-0.930625
30
-0.515398
11
8.144365
21
-0.930625
31
-0.501633
12
8.054808
22
-0.930625
32
-0.513432
13
8.054808
23
-0.930625
33
-0.513432
0
3DFACE
8
0
10
8.143009
20
-0.930625
30
-0.487867
11
8.143009
21
-1.047265
31
-0.487867
12
8.141654
22
-1.047265
32
-0.474101
13
8.141654
23
-1.047265
33
-0.474101
0
3DFACE
8
0
10
8.141654
20
-1.047265
30
-0.474101
11
8.141654
21
-0.930625
31
-0.474101
12
8.143009
22
-0.930625
32
-0.487867
13
8.143009
23
-0.930625
33
-0.487867
0
3DFACE
8
0
10
8.144365
20
-0.930625
30
-0.501633
11
8.144365
21
-1.047265
31
-0.501633
12
8.143009
22
-1.047265
32
-0.487867
13
8.143009
23
-1.047265
33
-0.487867
0
3DFACE
8
0
10
8.143009
20
-1.047265
30
-0.487867
11
8.143009
21
-0.930625
31
-0.487867
12
8.144365
22
-0.930625
32
-0.501633
13
8.144365
23
-0.930625
33
-0.501633
0
3DFACE
8
0
10
8.141654
20
-0.930625
30
-0.474101
11
8.050934
21
-0.930625
31
-0.474101
12
8.052871
22
-0.930625
32
-0.493766
13
8.052871
23
-0.930625
33
-0.493766
0
3DFACE
8
0
10
8.052871
20
-0.930625
30
-0.493766
11
8.143009
21
-0.930625
31
-0.487867
12
8.141654
22
-0.930625
32
-0.474101
13
8.141654
23
-0.930625
33
-0.474101
0
3DFACE
8
0
10
8.143009
20
-0.930625
30
-0.487867
11
8.052871
21
-0.930625
31
-0.493766
12
8.054808
22
-0.930625
32
-0.513432
13
8.054808
23
-0.930625
33
-0.513432
0
3DFACE
8
0
10
8.054808
20
-0.930625
30
-0.513432
11
8.144365
21
-0.930625
31
-0.501633
12
8.143009
22
-0.930625
32
-0.487867
13
8.143009
23
-0.930625
33
-0.487867
0
3DFACE
8
0
10
8.050934
20
-0.930625
30
-0.474101
11
8.050934
21
-0.698058
31
-0.474101
12
8.052871
22
-0.698058
32
-0.493766
13
8.052871
23
-0.698058
33
-0.493766
0
3DFACE
8
0
10
8.052871
20
-0.698058
30
-0.493766
11
8.052871
21
-0.930625
31
-0.493766
12
8.050934
22
-0.930625
32
-0.474101
13
8.050934
23
-0.930625
33
-0.474101
0
3DFACE
8
0
10
8.052871
20
-0.930625
30
-0.493766
11
8.052871
21
-0.698058
31
-0.493766
12
8.054808
22
-0.698058
32
-0.513432
13
8.054808
23
-0.698058
33
-0.513432
0
3DFACE
8
0
10
8.054808
20
-0.698058
30
-0.513432
11
8.054808
21
-0.930625
31
-0.513432
12
8.052871
22
-0.930625
32
-0.493766
13
8.052871
23
-0.930625
33
-0.493766
0
3DFACE
8
0
10
8.157766
20
-0.930625
30
-0.555108
11
8.157766
21
-1.047265
31
-0.555108
12
8.153751
22
-1.047265
32
-0.541871
13
8.153751
23
-1.047265
33
-0.541871
0
3DFACE
8
0
10
8.153751
20
-1.047265
30
-0.541871
11
8.153751
21
-0.930625
31
-0.541871
12
8.157766
22
-0.930625
32
-0.555108
13
8.157766
23
-0.930625
33
-0.555108
0
3DFACE
8
0
10
8.068215
20
-0.930625
30
-0.570915
11
8.073952
21
-0.930625
31
-0.589825
12
8.157766
22
-0.930625
32
-0.555108
13
8.157766
23
-0.930625
33
-0.555108
0
3DFACE
8
0
10
8.157766
20
-0.930625
30
-0.555108
11
8.153751
21
-0.930625
31
-0.541871
12
8.068215
22
-0.930625
32
-0.570915
13
8.068215
23
-0.930625
33
-0.570915
0
3DFACE
8
0
10
8.149736
20
-0.930625
30
-0.528635
11
8.149736
21
-1.047265
31
-0.528635
12
8.145720
22
-1.047265
32
-0.515398
13
8.145720
23
-1.047265
33
-0.515398
0
3DFACE
8
0
10
8.145720
20
-1.047265
30
-0.515398
11
8.145720
21
-0.930625
31
-0.515398
12
8.149736
22
-0.930625
32
-0.528635
13
8.149736
23
-0.930625
33
-0.528635
0
3DFACE
8
0
10
8.153751
20
-0.930625
30
-0.541871
11
8.153751
21
-1.047265
31
-0.541871
12
8.149736
22
-1.047265
32
-0.528635
13
8.149736
23
-1.047265
33
-0.528635
0
3DFACE
8
0
10
8.149736
20
-1.047265
30
-0.528635
11
8.149736
21
-0.930625
31
-0.528635
12
8.153751
22
-0.930625
32
-0.541871
13
8.153751
23
-0.930625
33
-0.541871
0
3DFACE
8
0
10
8.145720
20
-0.930625
30
-0.515398
11
8.056744
21
-0.930625
31
-0.533097
12
8.062480
22
-0.930625
32
-0.552006
13
8.062480
23
-0.930625
33
-0.552006
0
3DFACE
8
0
10
8.062480
20
-0.930625
30
-0.552006
11
8.149736
21
-0.930625
31
-0.528635
12
8.145720
22
-0.930625
32
-0.515398
13
8.145720
23
-0.930625
33
-0.515398
0
3DFACE
8
0
10
8.062480
20
-0.930625
30
-0.552006
11
8.068215
21
-0.930625
31
-0.570915
12
8.153751
22
-0.930625
32
-0.541871
13
8.153751
23
-0.930625
33
-0.541871
0
3DFACE
8
0
10
8.153751
20
-0.930625
30
-0.541871
11
8.149736
21
-0.930625
31
-0.528635
12
8.062480
22
-0.930625
32
-0.552006
13
8.062480
23
-0.930625
33
-0.552006
0
3DFACE
8
0
10
8.056744
20
-0.930625
30
-0.533097
11
8.056744
21
-0.698058
31
-0.533097
12
8.062480
22
-0.698058
32
-0.552006
13
8.062480
23
-0.698058
33
-0.552006
0
3DFACE
8
0
10
8.062480
20
-0.698058
30
-0.552006
11
8.062480
21
-0.930625
31
-0.552006
12
8.056744
22
-0.930625
32
-0.533097
13
8.056744
23
-0.930625
33
-0.533097
0
3DFACE
8
0
10
8.062480
20
-0.930625
30
-0.552006
11
8.062480
21
-0.698058
31
-0.552006
12
8.068215
22
-0.698058
32
-0.570915
13
8.068215
23
-0.698058
33
-0.570915
0
3DFACE
8
0
10
8.068215
20
-0.698058
30
-0.570915
11
8.068215
21
-0.930625
31
-0.570915
12
8.062480
22
-0.930625
32
-0.552006
13
8.062480
23
-0.930625
33
-0.552006
0
3DFACE
8
0
10
8.170808
20
-1.047265
30
-0.579506
11
8.170808
21
-0.930625
31
-0.579506
12
8.177328
22
-0.930625
32
-0.591704
13
8.177328
23
-0.930625
33
-0.591704
0
3DFACE
8
0
10
8.177328
20
-0.930625
30
-0.591704
11
8.177328
21
-1.047265
31
-0.591704
12
8.170808
22
-1.047265
32
-0.579506
13
8.170808
23
-1.047265
33
-0.579506
0
3DFACE
8
0
10
8.092582
20
-0.930625
30
-0.624679
11
8.101897
21
-0.930625
31
-0.642106
12
8.177328
22
-0.930625
32
-0.591704
13
8.177328
23
-0.930625
33
-0.591704
0
3DFACE
8
0
10
8.177328
20
-0.930625
30
-0.591704
11
8.170808
21
-0.930625
31
-0.579506
12
8.092582
22
-0.930625
32
-0.624679
13
8.092582
23
-0.930625
33
-0.624679
0
3DFACE
8
0
10
8.164288
20
-0.930625
30
-0.567307
11
8.164288
21
-1.047265
31
-0.567307
12
8.157766
22
-1.047265
32
-0.555108
13
8.157766
23
-1.047265
33
-0.555108
0
3DFACE
8
0
10
8.157766
20
-1.047265
30
-0.555108
11
8.157766
21
-0.930625
31
-0.555108
12
8.164288
22
-0.930625
32
-0.567307
13
8.164288
23
-0.930625
33
-0.567307
0
3DFACE
8
0
10
8.164288
20
-1.047265
30
-0.567307
11
8.164288
21
-0.930625
31
-0.567307
12
8.170808
22
-0.930625
32
-0.579506
13
8.170808
23
-0.930625
33
-0.579506
0
3DFACE
8
0
10
8.170808
20
-0.930625
30
-0.579506
11
8.170808
21
-1.047265
31
-0.579506
12
8.164288
22
-1.047265
32
-0.567307
13
8.164288
23
-1.047265
33
-0.567307
0
3DFACE
8
0
10
8.157766
20
-0.930625
30
-0.555108
11
8.073952
21
-0.930625
31
-0.589825
12
8.083267
22
-0.930625
32
-0.607252
13
8.083267
23
-0.930625
33
-0.607252
0
3DFACE
8
0
10
8.083267
20
-0.930625
30
-0.607252
11
8.164288
21
-0.930625
31
-0.567307
12
8.157766
22
-0.930625
32
-0.555108
13
8.157766
23
-0.930625
33
-0.555108
0
3DFACE
8
0
10
8.092582
20
-0.930625
30
-0.624679
11
8.170808
21
-0.930625
31
-0.579506
12
8.164288
22
-0.930625
32
-0.567307
13
8.164288
23
-0.930625
33
-0.567307
0
3DFACE
8
0
10
8.164288
20
-0.930625
30
-0.567307
11
8.083267
21
-0.930625
31
-0.607252
12
8.092582
22
-0.930625
32
-0.624679
13
8.092582
23
-0.930625
33
-0.624679
0
3DFACE
8
0
10
8.083267
20
-0.930625
30
-0.607252
11
8.073952
21
-0.930625
31
-0.589825
12
8.073952
22
-0.698058
32
-0.589825
13
8.073952
23
-0.698058
33
-0.589825
0
3DFACE
8
0
10
8.073952
20
-0.698058
30
-0.589825
11
8.083267
21
-0.698058
31
-0.607252
12
8.083267
22
-0.930625
32
-0.607252
13
8.083267
23
-0.930625
33
-0.607252
0
3DFACE
8
0
10
8.083267
20
-0.930625
30
-0.607252
11
8.083267
21
-0.698058
31
-0.607252
12
8.092582
22
-0.698058
32
-0.624679
13
8.092582
23
-0.698058
33
-0.624679
0
3DFACE
8
0
10
8.092582
20
-0.698058
30
-0.624679
11
8.092582
21
-0.930625
31
-0.624679
12
8.083267
22
-0.930625
32
-0.607252
13
8.083267
23
-0.930625
33
-0.607252
0
3DFACE
8
0
10
8.194878
20
-1.047265
30
-0.613089
11
8.194878
21
-0.930625
31
-0.613089
12
8.203653
22
-0.930625
32
-0.623782
13
8.203653
23
-0.930625
33
-0.623782
0
3DFACE
8
0
10
8.203653
20
-0.930625
30
-0.623782
11
8.203653
21
-1.047265
31
-0.623782
12
8.194878
22
-1.047265
32
-0.613089
13
8.194878
23
-1.047265
33
-0.613089
0
3DFACE
8
0
10
8.126969
20
-0.930625
30
-0.672655
11
8.139504
21
-0.930625
31
-0.687930
12
8.203653
22
-0.930625
32
-0.623782
13
8.203653
23
-0.930625
33
-0.623782
0
3DFACE
8
0
10
8.203653
20
-0.930625
30
-0.623782
11
8.194878
21
-0.930625
31
-0.613089
12
8.126969
22
-0.930625
32
-0.672655
13
8.126969
23
-0.930625
33
-0.672655
0
3DFACE
8
0
10
8.177328
20
-0.930625
30
-0.591704
11
8.186103
21
-0.930625
31
-0.602397
12
8.186103
22
-1.047265
32
-0.602397
13
8.186103
23
-1.047265
33
-0.602397
0
3DFACE
8
0
10
8.186103
20
-1.047265
30
-0.602397
11
8.177328
21
-1.047265
31
-0.591704
12
8.177328
22
-0.930625
32
-0.591704
13
8.177328
23
-0.930625
33
-0.591704
0
3DFACE
8
0
10
8.194878
20
-0.930625
30
-0.613089
11
8.194878
21
-1.047265
31
-0.613089
12
8.186103
22
-1.047265
32
-0.602397
13
8.186103
23
-1.047265
33
-0.602397
0
3DFACE
8
0
10
8.186103
20
-1.047265
30
-0.602397
11
8.186103
21
-0.930625
31
-0.602397
12
8.194878
22
-0.930625
32
-0.613089
13
8.194878
23
-0.930625
33
-0.613089
0
3DFACE
8
0
10
8.177328
20
-0.930625
30
-0.591704
11
8.101897
21
-0.930625
31
-0.642106
12
8.114433
22
-0.930625
32
-0.657381
13
8.114433
23
-0.930625
33
-0.657381
0
3DFACE
8
0
10
8.114433
20
-0.930625
30
-0.657381
11
8.186103
21
-0.930625
31
-0.602397
12
8.177328
22
-0.930625
32
-0.591704
13
8.177328
23
-0.930625
33
-0.591704
0
3DFACE
8
0
10
8.114433
20
-0.930625
30
-0.657381
11
8.126969
21
-0.930625
31
-0.672655
12
8.194878
22
-0.930625
32
-0.613089
13
8.194878
23
-0.930625
33
-0.613089
0
3DFACE
8
0
10
8.194878
20
-0.930625
30
-0.613089
11
8.186103
21
-0.930625
31
-0.602397
12
8.114433
22
-0.930625
32
-0.657381
13
8.114433
23
-0.930625
33
-0.657381
0
3DFACE
8
0
10
8.101897
20
-0.930625
30
-0.642106
11
8.101897
21
-0.698058
31
-0.642106
12
8.114433
22
-0.698058
32
-0.657381
13
8.114433
23
-0.698058
33
-0.657381
0
3DFACE
8
0
10
8.114433
20
-0.698058
30
-0.657381
11
8.114433
21
-0.930625
31
-0.657381
12
8.101897
22
-0.930625
32
-0.642106
13
8.101897
23
-0.930625
33
-0.642106
0
3DFACE
8
0
10
8.126969
20
-0.930625
30
-0.672655
11
8.114433
21
-0.930625
31
-0.657381
12
8.114433
22
-0.698058
32
-0.657381
13
8.114433
23
-0.698058
33
-0.657381
0
3DFACE
8
0
10
8.114433
20
-0.698058
30
-0.657381
11
8.126969
21
-0.698058
31
-0.672656
12
8.126969
22
-0.930625
32
-0.672655
13
8.126969
23
-0.930625
33
-0.672655
0
3DFACE
8
0
10
8.235730
20
-0.930625
30
-0.650107
11
8.235730
21
-1.047265
31
-0.650107
12
8.225039
22
-1.047265
32
-0.641332
13
8.225039
23
-1.047265
33
-0.641332
0
3DFACE
8
0
10
8.225039
20
-1.047265
30
-0.641332
11
8.225039
21
-0.930625
31
-0.641332
12
8.235730
22
-0.930625
32
-0.650107
13
8.235730
23
-0.930625
33
-0.650107
0
3DFACE
8
0
10
8.170053
20
-0.930625
30
-0.713002
11
8.185329
21
-0.930625
31
-0.725538
12
8.235730
22
-0.930625
32
-0.650107
13
8.235730
23
-0.930625
33
-0.650107
0
3DFACE
8
0
10
8.235730
20
-0.930625
30
-0.650107
11
8.225039
21
-0.930625
31
-0.641332
12
8.170053
22
-0.930625
32
-0.713002
13
8.170053
23
-0.930625
33
-0.713002
0
3DFACE
8
0
10
8.214345
20
-0.930625
30
-0.632557
11
8.214345
21
-1.047265
31
-0.632557
12
8.203653
22
-1.047265
32
-0.623782
13
8.203653
23
-1.047265
33
-0.623782
0
3DFACE
8
0
10
8.203653
20
-1.047265
30
-0.623782
11
8.203653
21
-0.930625
31
-0.623782
12
8.214345
22
-0.930625
32
-0.632557
13
8.214345
23
-0.930625
33
-0.632557
0
3DFACE
8
0
10
8.225039
20
-0.930625
30
-0.641332
11
8.225039
21
-1.047265
31
-0.641332
12
8.214345
22
-1.047265
32
-0.632557
13
8.214345
23
-1.047265
33
-0.632557
0
3DFACE
8
0
10
8.214345
20
-1.047265
30
-0.632557
11
8.214345
21
-0.930625
31
-0.632557
12
8.225039
22
-0.930625
32
-0.641332
13
8.225039
23
-0.930625
33
-0.641332
0
3DFACE
8
0
10
8.203653
20
-0.930625
30
-0.623782
11
8.139504
21
-0.930625
31
-0.687930
12
8.154779
22
-0.930625
32
-0.700466
13
8.154779
23
-0.930625
33
-0.700466
0
3DFACE
8
0
10
8.154779
20
-0.930625
30
-0.700466
11
8.214345
21
-0.930625
31
-0.632557
12
8.203653
22
-0.930625
32
-0.623782
13
8.203653
23
-0.930625
33
-0.623782
0
3DFACE
8
0
10
8.154779
20
-0.930625
30
-0.700466
11
8.170053
21
-0.930625
31
-0.713002
12
8.225039
22
-0.930625
32
-0.641332
13
8.225039
23
-0.930625
33
-0.641332
0
3DFACE
8
0
10
8.225039
20
-0.930625
30
-0.641332
11
8.214345
21
-0.930625
31
-0.632557
12
8.154779
22
-0.930625
32
-0.700466
13
8.154779
23
-0.930625
33
-0.700466
0
3DFACE
8
0
10
8.154779
20
-0.930625
30
-0.700466
11
8.139504
21
-0.930625
31
-0.687930
12
8.139504
22
-0.698058
32
-0.687930
13
8.139504
23
-0.698058
33
-0.687930
0
3DFACE
8
0
10
8.139504
20
-0.698058
30
-0.687930
11
8.154779
21
-0.698058
31
-0.700466
12
8.154779
22
-0.930625
32
-0.700466
13
8.154779
23
-0.930625
33
-0.700466
0
3DFACE
8
0
10
8.170053
20
-0.930625
30
-0.713002
11
8.154779
21
-0.930625
31
-0.700466
12
8.154779
22
-0.698058
32
-0.700466
13
8.154779
23
-0.698058
33
-0.700466
0
3DFACE
8
0
10
8.154779
20
-0.698058
30
-0.700466
11
8.170053
21
-0.698058
31
-0.713002
12
8.170053
22
-0.930625
32
-0.713002
13
8.170053
23
-0.930625
33
-0.713002
0
3DFACE
8
0
10
8.272327
20
-0.930625
30
-0.669668
11
8.272327
21
-1.047265
31
-0.669668
12
8.260128
22
-1.047265
32
-0.663148
13
8.260128
23
-1.047265
33
-0.663148
0
3DFACE
8
0
10
8.260128
20
-1.047265
30
-0.663148
11
8.260128
21
-0.930625
31
-0.663148
12
8.272327
22
-0.930625
32
-0.669668
13
8.272327
23
-0.930625
33
-0.669668
0
3DFACE
8
0
10
8.220183
20
-0.930625
30
-0.744168
11
8.237610
21
-0.930625
31
-0.753482
12
8.272327
22
-0.930625
32
-0.669668
13
8.272327
23
-0.930625
33
-0.669668
0
3DFACE
8
0
10
8.272327
20
-0.930625
30
-0.669668
11
8.260128
21
-0.930625
31
-0.663148
12
8.220183
22
-0.930625
32
-0.744168
13
8.220183
23
-0.930625
33
-0.744168
0
3DFACE
8
0
10
8.247929
20
-0.930625
30
-0.656627
11
8.247929
21
-1.047265
31
-0.656627
12
8.235730
22
-1.047265
32
-0.650107
13
8.235730
23
-1.047265
33
-0.650107
0
3DFACE
8
0
10
8.235730
20
-1.047265
30
-0.650107
11
8.235730
21
-0.930625
31
-0.650107
12
8.247929
22
-0.930625
32
-0.656627
13
8.247929
23
-0.930625
33
-0.656627
0
3DFACE
8
0
10
8.260128
20
-0.930625
30
-0.663148
11
8.260128
21
-1.047265
31
-0.663148
12
8.247929
22
-1.047265
32
-0.656627
13
8.247929
23
-1.047265
33
-0.656627
0
3DFACE
8
0
10
8.247929
20
-1.047265
30
-0.656627
11
8.247929
21
-0.930625
31
-0.656627
12
8.260128
22
-0.930625
32
-0.663148
13
8.260128
23
-0.930625
33
-0.663148
0
3DFACE
8
0
10
8.235730
20
-0.930625
30
-0.650107
11
8.185329
21
-0.930625
31
-0.725538
12
8.202757
22
-0.930625
32
-0.734853
13
8.202757
23
-0.930625
33
-0.734853
0
3DFACE
8
0
10
8.202757
20
-0.930625
30
-0.734853
11
8.247929
21
-0.930625
31
-0.656627
12
8.235730
22
-0.930625
32
-0.650107
13
8.235730
23
-0.930625
33
-0.650107
0
3DFACE
8
0
10
8.202757
20
-0.930625
30
-0.734853
11
8.220183
21
-0.930625
31
-0.744168
12
8.260128
22
-0.930625
32
-0.663148
13
8.260128
23
-0.930625
33
-0.663148
0
3DFACE
8
0
10
8.260128
20
-0.930625
30
-0.663148
11
8.247929
21
-0.930625
31
-0.656627
12
8.202757
22
-0.930625
32
-0.734853
13
8.202757
23
-0.930625
33
-0.734853
0
3DFACE
8
0
10
8.202757
20
-0.930625
30
-0.734853
11
8.185329
21
-0.930625
31
-0.725538
12
8.185329
22
-0.698058
32
-0.725538
13
8.185329
23
-0.698058
33
-0.725538
0
3DFACE
8
0
10
8.185329
20
-0.698058
30
-0.725538
11
8.202757
21
-0.698058
31
-0.734853
12
8.202757
22
-0.930625
32
-0.734853
13
8.202757
23
-0.930625
33
-0.734853
0
3DFACE
8
0
10
8.220183
20
-0.930625
30
-0.744168
11
8.202757
21
-0.930625
31
-0.734853
12
8.202757
22
-0.698058
32
-0.734853
13
8.202757
23
-0.698058
33
-0.734853
0
3DFACE
8
0
10
8.202757
20
-0.698058
30
-0.734853
11
8.220183
21
-0.698058
31
-0.744168
12
8.220183
22
-0.930625
32
-0.744168
13
8.220183
23
-0.930625
33
-0.744168
0
3DFACE
8
0
10
8.312037
20
-0.930625
30
-0.681714
11
8.312037
21
-1.047265
31
-0.681714
12
8.298800
22
-1.047265
32
-0.677699
13
8.298800
23
-1.047265
33
-0.677699
0
3DFACE
8
0
10
8.298800
20
-1.047265
30
-0.677699
11
8.298800
21
-0.930625
31
-0.677699
12
8.312037
22
-0.930625
32
-0.681714
13
8.312037
23
-0.930625
33
-0.681714
0
3DFACE
8
0
10
8.275429
20
-0.930625
30
-0.764955
11
8.294339
21
-0.930625
31
-0.770691
12
8.312037
22
-0.930625
32
-0.681714
13
8.312037
23
-0.930625
33
-0.681714
0
3DFACE
8
0
10
8.312037
20
-0.930625
30
-0.681714
11
8.298800
21
-0.930625
31
-0.677699
12
8.275429
22
-0.930625
32
-0.764955
13
8.275429
23
-0.930625
33
-0.764955
0
3DFACE
8
0
10
8.285563
20
-0.930625
30
-0.673683
11
8.285563
21
-1.047265
31
-0.673683
12
8.272327
22
-1.047265
32
-0.669668
13
8.272327
23
-1.047265
33
-0.669668
0
3DFACE
8
0
10
8.272327
20
-1.047265
30
-0.669668
11
8.272327
21
-0.930625
31
-0.669668
12
8.285563
22
-0.930625
32
-0.673683
13
8.285563
23
-0.930625
33
-0.673683
0
3DFACE
8
0
10
8.298800
20
-0.930625
30
-0.677699
11
8.298800
21
-1.047265
31
-0.677699
12
8.285563
22
-1.047265
32
-0.673683
13
8.285563
23
-1.047265
33
-0.673683
0
3DFACE
8
0
10
8.285563
20
-1.047265
30
-0.673683
11
8.285563
21
-0.930625
31
-0.673683
12
8.298800
22
-0.930625
32
-0.677699
13
8.298800
23
-0.930625
33
-0.677699
0
3DFACE
8
0
10
8.272327
20
-0.930625
30
-0.669668
11
8.237610
21
-0.930625
31
-0.753482
12
8.256519
22
-0.930625
32
-0.759219
13
8.256519
23
-0.930625
33
-0.759219
0
3DFACE
8
0
10
8.256519
20
-0.930625
30
-0.759219
11
8.285563
21
-0.930625
31
-0.673683
12
8.272327
22
-0.930625
32
-0.669668
13
8.272327
23
-0.930625
33
-0.669668
0
3DFACE
8
0
10
8.285563
20
-0.930625
30
-0.673683
11
8.256519
21
-0.930625
31
-0.759219
12
8.275429
22
-0.930625
32
-0.764955
13
8.275429
23
-0.930625
33
-0.764955
0
3DFACE
8
0
10
8.275429
20
-0.930625
30
-0.764955
11
8.298800
21
-0.930625
31
-0.677699
12
8.285563
22
-0.930625
32
-0.673683
13
8.285563
23
-0.930625
33
-0.673683
0
3DFACE
8
0
10
8.256519
20
-0.930625
30
-0.759219
11
8.237610
21
-0.930625
31
-0.753482
12
8.237610
22
-0.698058
32
-0.753482
13
8.237610
23
-0.698058
33
-0.753482
0
3DFACE
8
0
10
8.237610
20
-0.698058
30
-0.753482
11
8.256519
21
-0.698058
31
-0.759219
12
8.256519
22
-0.930625
32
-0.759219
13
8.256519
23
-0.930625
33
-0.759219
0
3DFACE
8
0
10
8.275429
20
-0.930625
30
-0.764955
11
8.256519
21
-0.930625
31
-0.759219
12
8.256519
22
-0.698058
32
-0.759219
13
8.256519
23
-0.698058
33
-0.759219
0
3DFACE
8
0
10
8.256519
20
-0.698058
30
-0.759219
11
8.275429
21
-0.698058
31
-0.764955
12
8.275429
22
-0.930625
32
-0.764955
13
8.275429
23
-0.930625
33
-0.764955
0
3DFACE
8
0
10
8.353333
20
-0.930625
30
-0.685781
11
8.353333
21
-1.047265
31
-0.685781
12
8.339568
22
-1.047265
32
-0.684426
13
8.339568
23
-1.047265
33
-0.684426
0
3DFACE
8
0
10
8.339568
20
-1.047265
30
-0.684426
11
8.339568
21
-0.930625
31
-0.684425
12
8.353333
22
-0.930625
32
-0.685781
13
8.353333
23
-0.930625
33
-0.685781
0
3DFACE
8
0
10
8.333669
20
-0.930625
30
-0.774565
11
8.353333
21
-0.930625
31
-0.776501
12
8.353333
22
-0.930625
32
-0.685781
13
8.353333
23
-0.930625
33
-0.685781
0
3DFACE
8
0
10
8.353333
20
-0.930625
30
-0.685781
11
8.339568
21
-0.930625
31
-0.684425
12
8.333669
22
-0.930625
32
-0.774565
13
8.333669
23
-0.930625
33
-0.774565
0
3DFACE
8
0
10
8.325803
20
-0.930625
30
-0.683070
11
8.325803
21
-1.047265
31
-0.683070
12
8.312037
22
-1.047265
32
-0.681714
13
8.312037
23
-1.047265
33
-0.681714
0
3DFACE
8
0
10
8.312037
20
-1.047265
30
-0.681714
11
8.312037
21
-0.930625
31
-0.681714
12
8.325803
22
-0.930625
32
-0.683070
13
8.325803
23
-0.930625
33
-0.683070
0
3DFACE
8
0
10
8.339568
20
-0.930625
30
-0.684425
11
8.339568
21
-1.047265
31
-0.684426
12
8.325803
22
-1.047265
32
-0.683070
13
8.325803
23
-1.047265
33
-0.683070
0
3DFACE
8
0
10
8.325803
20
-1.047265
30
-0.683070
11
8.325803
21
-0.930625
31
-0.683070
12
8.339568
22
-0.930625
32
-0.684425
13
8.339568
23
-0.930625
33
-0.684425
0
3DFACE
8
0
10
8.312037
20
-0.930625
30
-0.681714
11
8.294339
21
-0.930625
31
-0.770691
12
8.314004
22
-0.930625
32
-0.772628
13
8.314004
23
-0.930625
33
-0.772628
0
3DFACE
8
0
10
8.314004
20
-0.930625
30
-0.772628
11
8.325803
21
-0.930625
31
-0.683070
12
8.312037
22
-0.930625
32
-0.681714
13
8.312037
23
-0.930625
33
-0.681714
0
3DFACE
8
0
10
8.314004
20
-0.930625
30
-0.772628
11
8.333669
21
-0.930625
31
-0.774565
12
8.339568
22
-0.930625
32
-0.684425
13
8.339568
23
-0.930625
33
-0.684425
0
3DFACE
8
0
10
8.339568
20
-0.930625
30
-0.684425
11
8.325803
21
-0.930625
31
-0.683070
12
8.314004
22
-0.930625
32
-0.772628
13
8.314004
23
-0.930625
33
-0.772628
0
3DFACE
8
0
10
8.314004
20
-0.698058
30
-0.772628
11
8.314004
21
-0.930625
31
-0.772628
12
8.294339
22
-0.930625
32
-0.770691
13
8.294339
23
-0.930625
33
-0.770691
0
3DFACE
8
0
10
8.294339
20
-0.930625
30
-0.770691
11
8.294337
21
-0.698058
31
-0.770691
12
8.314004
22
-0.698058
32
-0.772628
13
8.314004
23
-0.698058
33
-0.772628
0
3DFACE
8
0
10
8.333668
20
-0.698058
30
-0.774565
11
8.333669
21
-0.930625
31
-0.774565
12
8.314004
22
-0.930625
32
-0.772628
13
8.314004
23
-0.930625
33
-0.772628
0
3DFACE
8
0
10
8.314004
20
-0.930625
30
-0.772628
11
8.314004
21
-0.698058
31
-0.772628
12
8.333668
22
-0.698058
32
-0.774565
13
8.333668
23
-0.698058
33
-0.774565
0
3DFACE
8
0
10
8.380864
20
-0.930625
30
-0.683070
11
8.394630
21
-0.930625
31
-0.681714
12
8.394630
22
-1.047265
32
-0.681714
13
8.394630
23
-1.047265
33
-0.681714
0
3DFACE
8
0
10
8.394630
20
-1.047265
30
-0.681714
11
8.380864
21
-1.047265
31
-0.683070
12
8.380864
22
-0.930625
32
-0.683070
13
8.380864
23
-0.930625
33
-0.683070
0
3DFACE
8
0
10
8.392664
20
-0.930625
30
-0.772628
11
8.412330
21
-0.930625
31
-0.770691
12
8.394630
22
-0.930625
32
-0.681714
13
8.394630
23
-0.930625
33
-0.681714
0
3DFACE
8
0
10
8.394630
20
-0.930625
30
-0.681714
11
8.380864
21
-0.930625
31
-0.683070
12
8.392664
22
-0.930625
32
-0.772628
13
8.392664
23
-0.930625
33
-0.772628
0
3DFACE
8
0
10
8.353333
20
-0.930625
30
-0.685781
11
8.367099
21
-0.930625
31
-0.684425
12
8.367099
22
-1.047265
32
-0.684426
13
8.367099
23
-1.047265
33
-0.684426
0
3DFACE
8
0
10
8.367099
20
-1.047265
30
-0.684426
11
8.353333
21
-1.047265
31
-0.685781
12
8.353333
22
-0.930625
32
-0.685781
13
8.353333
23
-0.930625
33
-0.685781
0
3DFACE
8
0
10
8.367099
20
-0.930625
30
-0.684425
11
8.380864
21
-0.930625
31
-0.683070
12
8.380864
22
-1.047265
32
-0.683070
13
8.380864
23
-1.047265
33
-0.683070
0
3DFACE
8
0
10
8.380864
20
-1.047265
30
-0.683070
11
8.367099
21
-1.047265
31
-0.684426
12
8.367099
22
-0.930625
32
-0.684425
13
8.367099
23
-0.930625
33
-0.684425
0
3DFACE
8
0
10
8.353333
20
-0.930625
30
-0.685781
11
8.353333
21
-0.930625
31
-0.776501
12
8.372999
22
-0.930625
32
-0.774565
13
8.372999
23
-0.930625
33
-0.774565
0
3DFACE
8
0
10
8.372999
20
-0.930625
30
-0.774565
11
8.367099
21
-0.930625
31
-0.684425
12
8.353333
22
-0.930625
32
-0.685781
13
8.353333
23
-0.930625
33
-0.685781
0
3DFACE
8
0
10
8.372999
20
-0.930625
30
-0.774565
11
8.392664
21
-0.930625
31
-0.772628
12
8.380864
22
-0.930625
32
-0.683070
13
8.380864
23
-0.930625
33
-0.683070
0
3DFACE
8
0
10
8.380864
20
-0.930625
30
-0.683070
11
8.367099
21
-0.930625
31
-0.684425
12
8.372999
22
-0.930625
32
-0.774565
13
8.372999
23
-0.930625
33
-0.774565
0
3DFACE
8
0
10
8.353333
20
-0.930625
30
-0.776501
11
8.353333
21
-0.698058
31
-0.776501
12
8.372998
22
-0.698058
32
-0.774565
13
8.372998
23
-0.698058
33
-0.774565
0
3DFACE
8
0
10
8.372998
20
-0.698058
30
-0.774565
11
8.372999
21
-0.930625
31
-0.774565
12
8.353333
22
-0.930625
32
-0.776501
13
8.353333
23
-0.930625
33
-0.776501
0
3DFACE
8
0
10
8.372999
20
-0.930625
30
-0.774565
11
8.372998
21
-0.698058
31
-0.774565
12
8.392663
22
-0.698058
32
-0.772628
13
8.392663
23
-0.698058
33
-0.772628
0
3DFACE
8
0
10
8.392663
20
-0.698058
30
-0.772628
11
8.392664
21
-0.930625
31
-0.772628
12
8.372999
22
-0.930625
32
-0.774565
13
8.372999
23
-0.930625
33
-0.774565
0
3DFACE
8
0
10
8.421103
20
-0.930625
30
-0.673683
11
8.434340
21
-0.930625
31
-0.669668
12
8.434340
22
-1.047265
32
-0.669668
13
8.434340
23
-1.047265
33
-0.669668
0
3DFACE
8
0
10
8.434340
20
-1.047265
30
-0.669668
11
8.421103
21
-1.047265
31
-0.673683
12
8.421103
22
-0.930625
32
-0.673683
13
8.421103
23
-0.930625
33
-0.673683
0
3DFACE
8
0
10
8.450148
20
-0.930625
30
-0.759219
11
8.469057
21
-0.930625
31
-0.753482
12
8.434340
22
-0.930625
32
-0.669668
13
8.434340
23
-0.930625
33
-0.669668
0
3DFACE
8
0
10
8.434340
20
-0.930625
30
-0.669668
11
8.421103
21
-0.930625
31
-0.673683
12
8.450148
22
-0.930625
32
-0.759219
13
8.450148
23
-0.930625
33
-0.759219
0
3DFACE
8
0
10
8.394630
20
-0.930625
30
-0.681714
11
8.407867
21
-0.930625
31
-0.677699
12
8.407867
22
-1.047265
32
-0.677699
13
8.407867
23
-1.047265
33
-0.677699
0
3DFACE
8
0
10
8.407867
20
-1.047265
30
-0.677699
11
8.394630
21
-1.047265
31
-0.681714
12
8.394630
22
-0.930625
32
-0.681714
13
8.394630
23
-0.930625
33
-0.681714
0
3DFACE
8
0
10
8.407867
20
-0.930625
30
-0.677699
11
8.421103
21
-0.930625
31
-0.673683
12
8.421103
22
-1.047265
32
-0.673683
13
8.421103
23
-1.047265
33
-0.673683
0
3DFACE
8
0
10
8.421103
20
-1.047265
30
-0.673683
11
8.407867
21
-1.047265
31
-0.677699
12
8.407867
22
-0.930625
32
-0.677699
13
8.407867
23
-0.930625
33
-0.677699
0
3DFACE
8
0
10
8.394630
20
-0.930625
30
-0.681714
11
8.412330
21
-0.930625
31
-0.770691
12
8.431238
22
-0.930625
32
-0.764955
13
8.431238
23
-0.930625
33
-0.764955
0
3DFACE
8
0
10
8.431238
20
-0.930625
30
-0.764955
11
8.407867
21
-0.930625
31
-0.677699
12
8.394630
22
-0.930625
32
-0.681714
13
8.394630
23
-0.930625
33
-0.681714
0
3DFACE
8
0
10
8.431238
20
-0.930625
30
-0.764955
11
8.450148
21
-0.930625
31
-0.759219
12
8.421103
22
-0.930625
32
-0.673683
13
8.421103
23
-0.930625
33
-0.673683
0
3DFACE
8
0
10
8.421103
20
-0.930625
30
-0.673683
11
8.407867
21
-0.930625
31
-0.677699
12
8.431238
22
-0.930625
32
-0.764955
13
8.431238
23
-0.930625
33
-0.764955
0
3DFACE
8
0
10
8.412330
20
-0.930625
30
-0.770691
11
8.412328
21
-0.698058
31
-0.770691
12
8.431238
22
-0.698058
32
-0.764955
13
8.431238
23
-0.698058
33
-0.764955
0
3DFACE
8
0
10
8.431238
20
-0.698058
30
-0.764955
11
8.431238
21
-0.930625
31
-0.764955
12
8.412330
22
-0.930625
32
-0.770691
13
8.412330
23
-0.930625
33
-0.770691
0
3DFACE
8
0
10
8.431238
20
-0.930625
30
-0.764955
11
8.431238
21
-0.698058
31
-0.764955
12
8.450148
22
-0.698058
32
-0.759219
13
8.450148
23
-0.698058
33
-0.759219
0
3DFACE
8
0
10
8.450148
20
-0.698058
30
-0.759219
11
8.450148
21
-0.930625
31
-0.759219
12
8.431238
22
-0.930625
32
-0.764955
13
8.431238
23
-0.930625
33
-0.764955
0
3DFACE
8
0
10
8.458738
20
-0.930625
30
-0.656627
11
8.470936
21
-0.930625
31
-0.650107
12
8.470936
22
-1.047265
32
-0.650107
13
8.470936
23
-1.047265
33
-0.650107
0
3DFACE
8
0
10
8.470936
20
-1.047265
30
-0.650107
11
8.458738
21
-1.047265
31
-0.656627
12
8.458738
22
-0.930625
32
-0.656627
13
8.458738
23
-0.930625
33
-0.656627
0
3DFACE
8
0
10
8.503910
20
-0.930625
30
-0.734853
11
8.521338
21
-0.930625
31
-0.725538
12
8.470936
22
-0.930625
32
-0.650107
13
8.470936
23
-0.930625
33
-0.650107
0
3DFACE
8
0
10
8.470936
20
-0.930625
30
-0.650107
11
8.458738
21
-0.930625
31
-0.656627
12
8.503910
22
-0.930625
32
-0.734853
13
8.503910
23
-0.930625
33
-0.734853
0
3DFACE
8
0
10
8.434340
20
-0.930625
30
-0.669668
11
8.446539
21
-0.930625
31
-0.663148
12
8.446539
22
-1.047265
32
-0.663148
13
8.446539
23
-1.047265
33
-0.663148
0
3DFACE
8
0
10
8.446539
20
-1.047265
30
-0.663148
11
8.434340
21
-1.047265
31
-0.669668
12
8.434340
22
-0.930625
32
-0.669668
13
8.434340
23
-0.930625
33
-0.669668
0
3DFACE
8
0
10
8.446539
20
-0.930625
30
-0.663148
11
8.458738
21
-0.930625
31
-0.656627
12
8.458738
22
-1.047265
32
-0.656627
13
8.458738
23
-1.047265
33
-0.656627
0
3DFACE
8
0
10
8.458738
20
-1.047265
30
-0.656627
11
8.446539
21
-1.047265
31
-0.663148
12
8.446539
22
-0.930625
32
-0.663148
13
8.446539
23
-0.930625
33
-0.663148
0
3DFACE
8
0
10
8.434340
20
-0.930625
30
-0.669668
11
8.469057
21
-0.930625
31
-0.753482
12
8.486484
22
-0.930625
32
-0.744168
13
8.486484
23
-0.930625
33
-0.744168
0
3DFACE
8
0
10
8.486484
20
-0.930625
30
-0.744168
11
8.446539
21
-0.930625
31
-0.663148
12
8.434340
22
-0.930625
32
-0.669668
13
8.434340
23
-0.930625
33
-0.669668
0
3DFACE
8
0
10
8.503910
20
-0.930625
30
-0.734853
11
8.458738
21
-0.930625
31
-0.656627
12
8.446539
22
-0.930625
32
-0.663148
13
8.446539
23
-0.930625
33
-0.663148
0
3DFACE
8
0
10
8.446539
20
-0.930625
30
-0.663148
11
8.486484
21
-0.930625
31
-0.744168
12
8.503910
22
-0.930625
32
-0.734853
13
8.503910
23
-0.930625
33
-0.734853
0
3DFACE
8
0
10
8.469057
20
-0.930625
30
-0.753482
11
8.469057
21
-0.698058
31
-0.753483
12
8.486484
22
-0.698058
32
-0.744168
13
8.486484
23
-0.698058
33
-0.744168
0
3DFACE
8
0
10
8.486484
20
-0.698058
30
-0.744168
11
8.486484
21
-0.930625
31
-0.744168
12
8.469057
22
-0.930625
32
-0.753482
13
8.469057
23
-0.930625
33
-0.753482
0
3DFACE
8
0
10
8.486484
20
-0.930625
30
-0.744168
11
8.486484
21
-0.698058
31
-0.744168
12
8.503910
22
-0.698058
32
-0.734853
13
8.503910
23
-0.698058
33
-0.734853
0
3DFACE
8
0
10
8.503910
20
-0.698058
30
-0.734853
11
8.503910
21
-0.930625
31
-0.734853
12
8.486484
22
-0.930625
32
-0.744168
13
8.486484
23
-0.930625
33
-0.744168
0
3DFACE
8
0
10
8.492322
20
-0.930625
30
-0.632557
11
8.503014
21
-0.930625
31
-0.623782
12
8.503014
22
-1.047265
32
-0.623782
13
8.503014
23
-1.047265
33
-0.623782
0
3DFACE
8
0
10
8.503014
20
-1.047265
30
-0.623782
11
8.492322
21
-1.047265
31
-0.632557
12
8.492322
22
-0.930625
32
-0.632557
13
8.492322
23
-0.930625
33
-0.632557
0
3DFACE
8
0
10
8.551888
20
-0.930625
30
-0.700466
11
8.567163
21
-0.930625
31
-0.687930
12
8.503014
22
-0.930625
32
-0.623782
13
8.503014
23
-0.930625
33
-0.623782
0
3DFACE
8
0
10
8.503014
20
-0.930625
30
-0.623782
11
8.492322
21
-0.930625
31
-0.632557
12
8.551888
22
-0.930625
32
-0.700466
13
8.551888
23
-0.930625
33
-0.700466
0
3DFACE
8
0
10
8.470936
20
-0.930625
30
-0.650107
11
8.481629
21
-0.930625
31
-0.641332
12
8.481629
22
-1.047265
32
-0.641332
13
8.481629
23
-1.047265
33
-0.641332
0
3DFACE
8
0
10
8.481629
20
-1.047265
30
-0.641332
11
8.470936
21
-1.047265
31
-0.650107
12
8.470936
22
-0.930625
32
-0.650107
13
8.470936
23
-0.930625
33
-0.650107
0
3DFACE
8
0
10
8.481629
20
-0.930625
30
-0.641332
11
8.492322
21
-0.930625
31
-0.632557
12
8.492322
22
-1.047265
32
-0.632557
13
8.492322
23
-1.047265
33
-0.632557
0
3DFACE
8
0
10
8.492322
20
-1.047265
30
-0.632557
11
8.481629
21
-1.047265
31
-0.641332
12
8.481629
22
-0.930625
32
-0.641332
13
8.481629
23
-0.930625
33
-0.641332
0
3DFACE
8
0
10
8.470936
20
-0.930625
30
-0.650107
11
8.521338
21
-0.930625
31
-0.725538
12
8.536613
22
-0.930625
32
-0.713002
13
8.536613
23
-0.930625
33
-0.713002
0
3DFACE
8
0
10
8.536613
20
-0.930625
30
-0.713002
11
8.481629
21
-0.930625
31
-0.641332
12
8.470936
22
-0.930625
32
-0.650107
13
8.470936
23
-0.930625
33
-0.650107
0
3DFACE
8
0
10
8.551888
20
-0.930625
30
-0.700466
11
8.492322
21
-0.930625
31
-0.632557
12
8.481629
22
-0.930625
32
-0.641332
13
8.481629
23
-0.930625
33
-0.641332
0
3DFACE
8
0
10
8.481629
20
-0.930625
30
-0.641332
11
8.536613
21
-0.930625
31
-0.713002
12
8.551888
22
-0.930625
32
-0.700466
13
8.551888
23
-0.930625
33
-0.700466
0
3DFACE
8
0
10
8.521338
20
-0.930625
30
-0.725538
11
8.521338
21
-0.698058
31
-0.725538
12
8.536613
22
-0.698058
32
-0.713002
13
8.536613
23
-0.698058
33
-0.713002
0
3DFACE
8
0
10
8.536613
20
-0.698058
30
-0.713002
11
8.536613
21
-0.930625
31
-0.713002
12
8.521338
22
-0.930625
32
-0.725538
13
8.521338
23
-0.930625
33
-0.725538
0
3DFACE
8
0
10
8.536613
20
-0.930625
30
-0.713002
11
8.536613
21
-0.698058
31
-0.713002
12
8.551888
22
-0.698058
32
-0.700466
13
8.551888
23
-0.698058
33
-0.700466
0
3DFACE
8
0
10
8.551888
20
-0.698058
30
-0.700466
11
8.551888
21
-0.930625
31
-0.700466
12
8.536613
22
-0.930625
32
-0.713002
13
8.536613
23
-0.930625
33
-0.713002
0
3DFACE
8
0
10
8.529339
20
-0.930625
30
-0.591704
11
8.529339
21
-1.047265
31
-0.591704
12
8.520564
22
-1.047265
32
-0.602397
13
8.520564
23
-1.047265
33
-0.602397
0
3DFACE
8
0
10
8.520564
20
-1.047265
30
-0.602397
11
8.520564
21
-0.930625
31
-0.602397
12
8.529339
22
-0.930625
32
-0.591704
13
8.529339
23
-0.930625
33
-0.591704
0
3DFACE
8
0
10
8.592234
20
-0.930625
30
-0.657381
11
8.604770
21
-0.930625
31
-0.642106
12
8.529339
22
-0.930625
32
-0.591704
13
8.529339
23
-0.930625
33
-0.591704
0
3DFACE
8
0
10
8.529339
20
-0.930625
30
-0.591704
11
8.520564
21
-0.930625
31
-0.602397
12
8.592234
22
-0.930625
32
-0.657381
13
8.592234
23
-0.930625
33
-0.657381
0
3DFACE
8
0
10
8.503014
20
-0.930625
30
-0.623782
11
8.511789
21
-0.930625
31
-0.613089
12
8.511789
22
-1.047265
32
-0.613089
13
8.511789
23
-1.047265
33
-0.613089
0
3DFACE
8
0
10
8.511789
20
-1.047265
30
-0.613089
11
8.503014
21
-1.047265
31
-0.623782
12
8.503014
22
-0.930625
32
-0.623782
13
8.503014
23
-0.930625
33
-0.623782
0
3DFACE
8
0
10
8.511789
20
-0.930625
30
-0.613089
11
8.520564
21
-0.930625
31
-0.602397
12
8.520564
22
-1.047265
32
-0.602397
13
8.520564
23
-1.047265
33
-0.602397
0
3DFACE
8
0
10
8.520564
20
-1.047265
30
-0.602397
11
8.511789
21
-1.047265
31
-0.613089
12
8.511789
22
-0.930625
32
-0.613089
13
8.511789
23
-0.930625
33
-0.613089
0
3DFACE
8
0
10
8.503014
20
-0.930625
30
-0.623782
11
8.567163
21
-0.930625
31
-0.687930
12
8.579698
22
-0.930625
32
-0.672655
13
8.579698
23
-0.930625
33
-0.672655
0
3DFACE
8
0
10
8.579698
20
-0.930625
30
-0.672655
11
8.511789
21
-0.930625
31
-0.613089
12
8.503014
22
-0.930625
32
-0.623782
13
8.503014
23
-0.930625
33
-0.623782
0
3DFACE
8
0
10
8.511789
20
-0.930625
30
-0.613089
11
8.579698
21
-0.930625
31
-0.672655
12
8.592234
22
-0.930625
32
-0.657381
13
8.592234
23
-0.930625
33
-0.657381
0
3DFACE
8
0
10
8.592234
20
-0.930625
30
-0.657381
11
8.520564
21
-0.930625
31
-0.602397
12
8.511789
22
-0.930625
32
-0.613089
13
8.511789
23
-0.930625
33
-0.613089
0
3DFACE
8
0
10
8.567163
20
-0.930625
30
-0.687930
11
8.567163
21
-0.698058
31
-0.687930
12
8.579698
22
-0.698058
32
-0.672655
13
8.579698
23
-0.698058
33
-0.672655
0
3DFACE
8
0
10
8.579698
20
-0.698058
30
-0.672655
11
8.579698
21
-0.930625
31
-0.672655
12
8.567163
22
-0.930625
32
-0.687930
13
8.567163
23
-0.930625
33
-0.687930
0
3DFACE
8
0
10
8.579698
20
-0.930625
30
-0.672655
11
8.579698
21
-0.698058
31
-0.672655
12
8.592234
22
-0.698058
32
-0.657381
13
8.592234
23
-0.698058
33
-0.657381
0
3DFACE
8
0
10
8.592234
20
-0.698058
30
-0.657381
11
8.592234
21
-0.930625
31
-0.657381
12
8.579698
22
-0.930625
32
-0.672655
13
8.579698
23
-0.930625
33
-0.672655
0
3DFACE
8
0
10
8.548901
20
-0.930625
30
-0.555108
11
8.548901
21
-1.047265
31
-0.555108
12
8.542379
22
-1.047265
32
-0.567307
13
8.542379
23
-1.047265
33
-0.567307
0
3DFACE
8
0
10
8.542379
20
-1.047265
30
-0.567307
11
8.542379
21
-0.930625
31
-0.567307
12
8.548901
22
-0.930625
32
-0.555108
13
8.548901
23
-0.930625
33
-0.555108
0
3DFACE
8
0
10
8.623400
20
-0.930625
30
-0.607252
11
8.632715
21
-0.930625
31
-0.589825
12
8.548901
22
-0.930625
32
-0.555108
13
8.548901
23
-0.930625
33
-0.555108
0
3DFACE
8
0
10
8.548901
20
-0.930625
30
-0.555108
11
8.542379
21
-0.930625
31
-0.567307
12
8.623400
22
-0.930625
32
-0.607252
13
8.623400
23
-0.930625
33
-0.607252
0
3DFACE
8
0
10
8.535859
20
-0.930625
30
-0.579506
11
8.535859
21
-1.047265
31
-0.579506
12
8.529339
22
-1.047265
32
-0.591704
13
8.529339
23
-1.047265
33
-0.591704
0
3DFACE
8
0
10
8.529339
20
-1.047265
30
-0.591704
11
8.529339
21
-0.930625
31
-0.591704
12
8.535859
22
-0.930625
32
-0.579506
13
8.535859
23
-0.930625
33
-0.579506
0
3DFACE
8
0
10
8.542379
20
-0.930625
30
-0.567307
11
8.542379
21
-1.047265
31
-0.567307
12
8.535859
22
-1.047265
32
-0.579506
13
8.535859
23
-1.047265
33
-0.579506
0
3DFACE
8
0
10
8.535859
20
-1.047265
30
-0.579506
11
8.535859
21
-0.930625
31
-0.579506
12
8.542379
22
-0.930625
32
-0.567307
13
8.542379
23
-0.930625
33
-0.567307
0
3DFACE
8
0
10
8.529339
20
-0.930625
30
-0.591704
11
8.604770
21
-0.930625
31
-0.642106
12
8.614085
22
-0.930625
32
-0.624679
13
8.614085
23
-0.930625
33
-0.624679
0
3DFACE
8
0
10
8.614085
20
-0.930625
30
-0.624679
11
8.535859
21
-0.930625
31
-0.579506
12
8.529339
22
-0.930625
32
-0.591704
13
8.529339
23
-0.930625
33
-0.591704
0
3DFACE
8
0
10
8.614085
20
-0.930625
30
-0.624679
11
8.623400
21
-0.930625
31
-0.607252
12
8.542379
22
-0.930625
32
-0.567307
13
8.542379
23
-0.930625
33
-0.567307
0
3DFACE
8
0
10
8.542379
20
-0.930625
30
-0.567307
11
8.535859
21
-0.930625
31
-0.579506
12
8.614085
22
-0.930625
32
-0.624679
13
8.614085
23
-0.930625
33
-0.624679
0
3DFACE
8
0
10
8.604770
20
-0.930625
30
-0.642106
11
8.604770
21
-0.698058
31
-0.642106
12
8.614085
22
-0.698058
32
-0.624679
13
8.614085
23
-0.698058
33
-0.624679
0
3DFACE
8
0
10
8.614085
20
-0.698058
30
-0.624679
11
8.614085
21
-0.930625
31
-0.624679
12
8.604770
22
-0.930625
32
-0.642106
13
8.604770
23
-0.930625
33
-0.642106
0
3DFACE
8
0
10
8.614085
20
-0.930625
30
-0.624679
11
8.614085
21
-0.698058
31
-0.624679
12
8.623400
22
-0.698058
32
-0.607252
13
8.623400
23
-0.698058
33
-0.607252
0
3DFACE
8
0
10
8.623400
20
-0.698058
30
-0.607252
11
8.623400
21
-0.930625
31
-0.607252
12
8.614085
22
-0.930625
32
-0.624679
13
8.614085
23
-0.930625
33
-0.624679
0
3DFACE
8
0
10
8.560946
20
-0.930625
30
-0.515398
11
8.560946
21
-1.047265
31
-0.515398
12
8.556931
22
-1.047265
32
-0.528635
13
8.556931
23
-1.047265
33
-0.528635
0
3DFACE
8
0
10
8.556931
20
-1.047265
30
-0.528635
11
8.556931
21
-0.930625
31
-0.528635
12
8.560946
22
-0.930625
32
-0.515398
13
8.560946
23
-0.930625
33
-0.515398
0
3DFACE
8
0
10
8.644187
20
-0.930625
30
-0.552006
11
8.649923
21
-0.930625
31
-0.533097
12
8.560946
22
-0.930625
32
-0.515398
13
8.560946
23
-0.930625
33
-0.515398
0
3DFACE
8
0
10
8.560946
20
-0.930625
30
-0.515398
11
8.556931
21
-0.930625
31
-0.528635
12
8.644187
22
-0.930625
32
-0.552006
13
8.644187
23
-0.930625
33
-0.552006
0
3DFACE
8
0
10
8.552916
20
-0.930625
30
-0.541871
11
8.552916
21
-1.047265
31
-0.541871
12
8.548901
22
-1.047265
32
-0.555108
13
8.548901
23
-1.047265
33
-0.555108
0
3DFACE
8
0
10
8.548901
20
-1.047265
30
-0.555108
11
8.548901
21
-0.930625
31
-0.555108
12
8.552916
22
-0.930625
32
-0.541871
13
8.552916
23
-0.930625
33
-0.541871
0
3DFACE
8
0
10
8.556931
20
-0.930625
30
-0.528635
11
8.556931
21
-1.047265
31
-0.528635
12
8.552916
22
-1.047265
32
-0.541871
13
8.552916
23
-1.047265
33
-0.541871
0
3DFACE
8
0
10
8.552916
20
-1.047265
30
-0.541871
11
8.552916
21
-0.930625
31
-0.541871
12
8.556931
22
-0.930625
32
-0.528635
13
8.556931
23
-0.930625
33
-0.528635
0
3DFACE
8
0
10
8.548901
20
-0.930625
30
-0.555108
11
8.632715
21
-0.930625
31
-0.589825
12
8.638452
22
-0.930625
32
-0.570915
13
8.638452
23
-0.930625
33
-0.570915
0
3DFACE
8
0
10
8.638452
20
-0.930625
30
-0.570915
11
8.552916
21
-0.930625
31
-0.541871
12
8.548901
22
-0.930625
32
-0.555108
13
8.548901
23
-0.930625
33
-0.555108
0
3DFACE
8
0
10
8.552916
20
-0.930625
30
-0.541871
11
8.638452
21
-0.930625
31
-0.570915
12
8.644187
22
-0.930625
32
-0.552006
13
8.644187
23
-0.930625
33
-0.552006
0
3DFACE
8
0
10
8.644187
20
-0.930625
30
-0.552006
11
8.556931
21
-0.930625
31
-0.528635
12
8.552916
22
-0.930625
32
-0.541871
13
8.552916
23
-0.930625
33
-0.541871
0
3DFACE
8
0
10
8.632715
20
-0.930625
30
-0.589825
11
8.632715
21
-0.698058
31
-0.589825
12
8.638452
22
-0.698058
32
-0.570915
13
8.638452
23
-0.698058
33
-0.570915
0
3DFACE
8
0
10
8.638452
20
-0.698058
30
-0.570915
11
8.638452
21
-0.930625
31
-0.570915
12
8.632715
22
-0.930625
32
-0.589825
13
8.632715
23
-0.930625
33
-0.589825
0
3DFACE
8
0
10
8.638452
20
-0.930625
30
-0.570915
11
8.638452
21
-0.698058
31
-0.570915
12
8.644187
22
-0.698058
32
-0.552006
13
8.644187
23
-0.698058
33
-0.552006
0
3DFACE
8
0
10
8.644187
20
-0.698058
30
-0.552006
11
8.644187
21
-0.930625
31
-0.552006
12
8.638452
22
-0.930625
32
-0.570915
13
8.638452
23
-0.930625
33
-0.570915
0
3DFACE
8
0
10
8.565013
20
-0.930625
30
-0.474101
11
8.565013
21
-1.047265
31
-0.474101
12
8.563658
22
-1.047265
32
-0.487867
13
8.563658
23
-1.047265
33
-0.487867
0
3DFACE
8
0
10
8.563658
20
-1.047265
30
-0.487867
11
8.563658
21
-0.930625
31
-0.487867
12
8.565013
22
-0.930625
32
-0.474101
13
8.565013
23
-0.930625
33
-0.474101
0
3DFACE
8
0
10
8.653796
20
-0.930625
30
-0.493766
11
8.655733
21
-0.930625
31
-0.474101
12
8.565013
22
-0.930625
32
-0.474101
13
8.565013
23
-0.930625
33
-0.474101
0
3DFACE
8
0
10
8.565013
20
-0.930625
30
-0.474101
11
8.563658
21
-0.930625
31
-0.487867
12
8.653796
22
-0.930625
32
-0.493766
13
8.653796
23
-0.930625
33
-0.493766
0
3DFACE
8
0
10
8.562302
20
-0.930625
30
-0.501632
11
8.562302
21
-1.047265
31
-0.501632
12
8.560946
22
-1.047265
32
-0.515398
13
8.560946
23
-1.047265
33
-0.515398
0
3DFACE
8
0
10
8.560946
20
-1.047265
30
-0.515398
11
8.560946
21
-0.930625
31
-0.515398
12
8.562302
22
-0.930625
32
-0.501632
13
8.562302
23
-0.930625
33
-0.501632
0
3DFACE
8
0
10
8.563658
20
-0.930625
30
-0.487867
11
8.563658
21
-1.047265
31
-0.487867
12
8.562302
22
-1.047265
32
-0.501632
13
8.562302
23
-1.047265
33
-0.501632
0
3DFACE
8
0
10
8.562302
20
-1.047265
30
-0.501632
11
8.562302
21
-0.930625
31
-0.501632
12
8.563658
22
-0.930625
32
-0.487867
13
8.563658
23
-0.930625
33
-0.487867
0
3DFACE
8
0
10
8.560946
20
-0.930625
30
-0.515398
11
8.649923
21
-0.930625
31
-0.533097
12
8.651859
22
-0.930625
32
-0.513431
13
8.651859
23
-0.930625
33
-0.513431
0
3DFACE
8
0
10
8.651859
20
-0.930625
30
-0.513431
11
8.562302
21
-0.930625
31
-0.501632
12
8.560946
22
-0.930625
32
-0.515398
13
8.560946
23
-0.930625
33
-0.515398
0
3DFACE
8
0
10
8.651859
20
-0.930625
30
-0.513431
11
8.653796
21
-0.930625
31
-0.493766
12
8.563658
22
-0.930625
32
-0.487867
13
8.563658
23
-0.930625
33
-0.487867
0
3DFACE
8
0
10
8.563658
20
-0.930625
30
-0.487867
11
8.562302
21
-0.930625
31
-0.501632
12
8.651859
22
-0.930625
32
-0.513431
13
8.651859
23
-0.930625
33
-0.513431
0
3DFACE
8
0
10
8.649923
20
-0.930625
30
-0.533097
11
8.649923
21
-0.698058
31
-0.533097
12
8.651859
22
-0.698058
32
-0.513431
13
8.651859
23
-0.698058
33
-0.513431
0
3DFACE
8
0
10
8.651859
20
-0.698058
30
-0.513431
11
8.651859
21
-0.930625
31
-0.513431
12
8.649923
22
-0.930625
32
-0.533097
13
8.649923
23
-0.930625
33
-0.533097
0
3DFACE
8
0
10
8.651859
20
-0.930625
30
-0.513431
11
8.651859
21
-0.698058
31
-0.513431
12
8.653796
22
-0.698058
32
-0.493766
13
8.653796
23
-0.698058
33
-0.493766
0
3DFACE
8
0
10
8.653796
20
-0.698058
30
-0.493766
11
8.653796
21
-0.930625
31
-0.493766
12
8.651859
22
-0.930625
32
-0.513431
13
8.651859
23
-0.930625
33
-0.513431
0
3DFACE
8
0
10
8.560946
20
-0.930625
30
-0.432805
11
8.560946
21
-1.047265
31
-0.432805
12
8.562302
22
-1.047265
32
-0.446570
13
8.562302
23
-1.047265
33
-0.446570
0
3DFACE
8
0
10
8.562302
20
-1.047265
30
-0.446570
11
8.562302
21
-0.930625
31
-0.446570
12
8.560946
22
-0.930625
32
-0.432805
13
8.560946
23
-0.930625
33
-0.432805
0
3DFACE
8
0
10
8.651859
20
-0.930625
30
-0.434771
11
8.649923
21
-0.930625
31
-0.415106
12
8.560946
22
-0.930625
32
-0.432805
13
8.560946
23
-0.930625
33
-0.432805
0
3DFACE
8
0
10
8.560946
20
-0.930625
30
-0.432805
11
8.562302
21
-0.930625
31
-0.446570
12
8.651859
22
-0.930625
32
-0.434771
13
8.651859
23
-0.930625
33
-0.434771
0
3DFACE
8
0
10
8.563658
20
-0.930625
30
-0.460336
11
8.563658
21
-1.047265
31
-0.460336
12
8.565013
22
-1.047265
32
-0.474101
13
8.565013
23
-1.047265
33
-0.474101
0
3DFACE
8
0
10
8.565013
20
-1.047265
30
-0.474101
11
8.565013
21
-0.930625
31
-0.474101
12
8.563658
22
-0.930625
32
-0.460336
13
8.563658
23
-0.930625
33
-0.460336
0
3DFACE
8
0
10
8.562302
20
-0.930625
30
-0.446570
11
8.562302
21
-1.047265
31
-0.446570
12
8.563658
22
-1.047265
32
-0.460336
13
8.563658
23
-1.047265
33
-0.460336
0
3DFACE
8
0
10
8.563658
20
-1.047265
30
-0.460336
11
8.563658
21
-0.930625
31
-0.460336
12
8.562302
22
-0.930625
32
-0.446570
13
8.562302
23
-0.930625
33
-0.446570
0
3DFACE
8
0
10
8.565013
20
-0.930625
30
-0.474101
11
8.655733
21
-0.930625
31
-0.474101
12
8.653796
22
-0.930625
32
-0.454436
13
8.653796
23
-0.930625
33
-0.454436
0
3DFACE
8
0
10
8.653796
20
-0.930625
30
-0.454436
11
8.563658
21
-0.930625
31
-0.460336
12
8.565013
22
-0.930625
32
-0.474101
13
8.565013
23
-0.930625
33
-0.474101
0
3DFACE
8
0
10
8.651859
20
-0.930625
30
-0.434771
11
8.562302
21
-0.930625
31
-0.446570
12
8.563658
22
-0.930625
32
-0.460336
13
8.563658
23
-0.930625
33
-0.460336
0
3DFACE
8
0
10
8.563658
20
-0.930625
30
-0.460336
11
8.653796
21
-0.930625
31
-0.454436
12
8.651859
22
-0.930625
32
-0.434771
13
8.651859
23
-0.930625
33
-0.434771
0
3DFACE
8
0
10
8.655733
20
-0.930625
30
-0.474101
11
8.655733
21
-0.698058
31
-0.474101
12
8.653796
22
-0.698058
32
-0.454436
13
8.653796
23
-0.698058
33
-0.454436
0
3DFACE
8
0
10
8.653796
20
-0.698058
30
-0.454436
11
8.653796
21
-0.930625
31
-0.454436
12
8.655733
22
-0.930625
32
-0.474101
13
8.655733
23
-0.930625
33
-0.474101
0
3DFACE
8
0
10
8.653796
20
-0.930625
30
-0.454436
11
8.653796
21
-0.698058
31
-0.454436
12
8.651859
22
-0.698058
32
-0.434771
13
8.651859
23
-0.698058
33
-0.434771
0
3DFACE
8
0
10
8.651859
20
-0.698058
30
-0.434771
11
8.651859
21
-0.930625
31
-0.434771
12
8.653796
22
-0.930625
32
-0.454436
13
8.653796
23
-0.930625
33
-0.454436
0
3DFACE
8
0
10
8.552916
20
-0.930625
30
-0.406331
11
8.548901
21
-0.930625
31
-0.393095
12
8.548901
22
-1.047265
32
-0.393095
13
8.548901
23
-1.047265
33
-0.393095
0
3DFACE
8
0
10
8.548901
20
-1.047265
30
-0.393095
11
8.552916
21
-1.047265
31
-0.406331
12
8.552916
22
-0.930625
32
-0.406331
13
8.552916
23
-0.930625
33
-0.406331
0
3DFACE
8
0
10
8.638452
20
-0.930625
30
-0.377287
11
8.632715
21
-0.930625
31
-0.358378
12
8.548901
22
-0.930625
32
-0.393095
13
8.548901
23
-0.930625
33
-0.393095
0
3DFACE
8
0
10
8.548901
20
-0.930625
30
-0.393095
11
8.552916
21
-0.930625
31
-0.406331
12
8.638452
22
-0.930625
32
-0.377287
13
8.638452
23
-0.930625
33
-0.377287
0
3DFACE
8
0
10
8.556931
20
-0.930625
30
-0.419568
11
8.556931
21
-1.047265
31
-0.419568
12
8.560946
22
-1.047265
32
-0.432805
13
8.560946
23
-1.047265
33
-0.432805
0
3DFACE
8
0
10
8.560946
20
-1.047265
30
-0.432805
11
8.560946
21
-0.930625
31
-0.432805
12
8.556931
22
-0.930625
32
-0.419568
13
8.556931
23
-0.930625
33
-0.419568
0
3DFACE
8
0
10
8.552916
20
-0.930625
30
-0.406331
11
8.552916
21
-1.047265
31
-0.406331
12
8.556931
22
-1.047265
32
-0.419568
13
8.556931
23
-1.047265
33
-0.419568
0
3DFACE
8
0
10
8.556931
20
-1.047265
30
-0.419568
11
8.556931
21
-0.930625
31
-0.419568
12
8.552916
22
-0.930625
32
-0.406331
13
8.552916
23
-0.930625
33
-0.406331
0
3DFACE
8
0
10
8.560946
20
-0.930625
30
-0.432805
11
8.649923
21
-0.930625
31
-0.415106
12
8.644187
22
-0.930625
32
-0.396197
13
8.644187
23
-0.930625
33
-0.396197
0
3DFACE
8
0
10
8.644187
20
-0.930625
30
-0.396197
11
8.556931
21
-0.930625
31
-0.419568
12
8.560946
22
-0.930625
32
-0.432805
13
8.560946
23
-0.930625
33
-0.432805
0
3DFACE
8
0
10
8.644187
20
-0.930625
30
-0.396197
11
8.638452
21
-0.930625
31
-0.377287
12
8.552916
22
-0.930625
32
-0.406331
13
8.552916
23
-0.930625
33
-0.406331
0
3DFACE
8
0
10
8.552916
20
-0.930625
30
-0.406331
11
8.556931
21
-0.930625
31
-0.419568
12
8.644187
22
-0.930625
32
-0.396197
13
8.644187
23
-0.930625
33
-0.396197
0
3DFACE
8
0
10
8.649923
20
-0.930625
30
-0.415106
11
8.649923
21
-0.698058
31
-0.415106
12
8.644187
22
-0.698058
32
-0.396197
13
8.644187
23
-0.698058
33
-0.396197
0
3DFACE
8
0
10
8.644187
20
-0.698058
30
-0.396197
11
8.644187
21
-0.930625
31
-0.396197
12
8.649923
22
-0.930625
32
-0.415106
13
8.649923
23
-0.930625
33
-0.415106
0
3DFACE
8
0
10
8.644187
20
-0.930625
30
-0.396197
11
8.644187
21
-0.698058
31
-0.396197
12
8.638452
22
-0.698058
32
-0.377287
13
8.638452
23
-0.698058
33
-0.377287
0
3DFACE
8
0
10
8.638452
20
-0.698058
30
-0.377287
11
8.638452
21
-0.930625
31
-0.377287
12
8.644187
22
-0.930625
32
-0.396197
13
8.644187
23
-0.930625
33
-0.396197
0
3DFACE
8
0
10
8.529339
20
-0.930625
30
-0.356498
11
8.529339
21
-1.047265
31
-0.356498
12
8.535859
22
-1.047265
32
-0.368697
13
8.535859
23
-1.047265
33
-0.368697
0
3DFACE
8
0
10
8.535859
20
-1.047265
30
-0.368697
11
8.535859
21
-0.930625
31
-0.368697
12
8.529339
22
-0.930625
32
-0.356498
13
8.529339
23
-0.930625
33
-0.356498
0
3DFACE
8
0
10
8.614085
20
-0.930625
30
-0.323524
11
8.604770
21
-0.930625
31
-0.306097
12
8.529339
22
-0.930625
32
-0.356498
13
8.529339
23
-0.930625
33
-0.356498
0
3DFACE
8
0
10
8.529339
20
-0.930625
30
-0.356498
11
8.535859
21
-0.930625
31
-0.368697
12
8.614085
22
-0.930625
32
-0.323524
13
8.614085
23
-0.930625
33
-0.323524
0
3DFACE
8
0
10
8.548901
20
-1.047265
30
-0.393095
11
8.548901
21
-0.930625
31
-0.393095
12
8.542379
22
-0.930625
32
-0.380896
13
8.542379
23
-0.930625
33
-0.380896
0
3DFACE
8
0
10
8.542379
20
-0.930625
30
-0.380896
11
8.542379
21
-1.047265
31
-0.380896
12
8.548901
22
-1.047265
32
-0.393095
13
8.548901
23
-1.047265
33
-0.393095
0
3DFACE
8
0
10
8.542379
20
-1.047265
30
-0.380896
11
8.542379
21
-0.930625
31
-0.380896
12
8.535859
22
-0.930625
32
-0.368697
13
8.535859
23
-0.930625
33
-0.368697
0
3DFACE
8
0
10
8.535859
20
-0.930625
30
-0.368697
11
8.535859
21
-1.047265
31
-0.368697
12
8.542379
22
-1.047265
32
-0.380896
13
8.542379
23
-1.047265
33
-0.380896
0
3DFACE
8
0
10
8.548901
20
-0.930625
30
-0.393095
11
8.632715
21
-0.930625
31
-0.358378
12
8.623400
22
-0.930625
32
-0.340951
13
8.623400
23
-0.930625
33
-0.340951
0
3DFACE
8
0
10
8.623400
20
-0.930625
30
-0.340951
11
8.542379
21
-0.930625
31
-0.380896
12
8.548901
22
-0.930625
32
-0.393095
13
8.548901
23
-0.930625
33
-0.393095
0
3DFACE
8
0
10
8.542379
20
-0.930625
30
-0.380896
11
8.623400
21
-0.930625
31
-0.340951
12
8.614085
22
-0.930625
32
-0.323524
13
8.614085
23
-0.930625
33
-0.323524
0
3DFACE
8
0
10
8.614085
20
-0.930625
30
-0.323524
11
8.535859
21
-0.930625
31
-0.368697
12
8.542379
22
-0.930625
32
-0.380896
13
8.542379
23
-0.930625
33
-0.380896
0
3DFACE
8
0
10
8.632715
20
-0.930625
30
-0.358378
11
8.632715
21
-0.698058
31
-0.358378
12
8.623400
22
-0.698058
32
-0.340951
13
8.623400
23
-0.698058
33
-0.340951
0
3DFACE
8
0
10
8.623400
20
-0.698058
30
-0.340951
11
8.623400
21
-0.930625
31
-0.340951
12
8.632715
22
-0.930625
32
-0.358378
13
8.632715
23
-0.930625
33
-0.358378
0
3DFACE
8
0
10
8.623400
20
-0.930625
30
-0.340951
11
8.623400
21
-0.698058
31
-0.340951
12
8.614085
22
-0.698058
32
-0.323524
13
8.614085
23
-0.698058
33
-0.323524
0
3DFACE
8
0
10
8.614085
20
-0.698058
30
-0.323524
11
8.614085
21
-0.930625
31
-0.323524
12
8.623400
22
-0.930625
32
-0.340951
13
8.623400
23
-0.930625
33
-0.340951
0
3DFACE
8
0
10
8.503014
20
-0.930625
30
-0.324421
11
8.503014
21
-1.047265
31
-0.324421
12
8.511789
22
-1.047265
32
-0.335113
13
8.511789
23
-1.047265
33
-0.335113
0
3DFACE
8
0
10
8.511789
20
-1.047265
30
-0.335113
11
8.511789
21
-0.930625
31
-0.335113
12
8.503014
22
-0.930625
32
-0.324421
13
8.503014
23
-0.930625
33
-0.324421
0
3DFACE
8
0
10
8.579698
20
-0.930625
30
-0.275547
11
8.567163
21
-0.930625
31
-0.260272
12
8.503014
22
-0.930625
32
-0.324421
13
8.503014
23
-0.930625
33
-0.324421
0
3DFACE
8
0
10
8.503014
20
-0.930625
30
-0.324421
11
8.511789
21
-0.930625
31
-0.335113
12
8.579698
22
-0.930625
32
-0.275547
13
8.579698
23
-0.930625
33
-0.275547
0
3DFACE
8
0
10
8.520564
20
-0.930625
30
-0.345806
11
8.520564
21
-1.047265
31
-0.345806
12
8.529339
22
-1.047265
32
-0.356498
13
8.529339
23
-1.047265
33
-0.356498
0
3DFACE
8
0
10
8.529339
20
-1.047265
30
-0.356498
11
8.529339
21
-0.930625
31
-0.356498
12
8.520564
22
-0.930625
32
-0.345806
13
8.520564
23
-0.930625
33
-0.345806
0
3DFACE
8
0
10
8.511789
20
-0.930625
30
-0.335113
11
8.511789
21
-1.047265
31
-0.335113
12
8.520564
22
-1.047265
32
-0.345806
13
8.520564
23
-1.047265
33
-0.345806
0
3DFACE
8
0
10
8.520564
20
-1.047265
30
-0.345806
11
8.520564
21
-0.930625
31
-0.345806
12
8.511789
22
-0.930625
32
-0.335113
13
8.511789
23
-0.930625
33
-0.335113
0
3DFACE
8
0
10
8.529339
20
-0.930625
30
-0.356498
11
8.604770
21
-0.930625
31
-0.306097
12
8.592234
22
-0.930625
32
-0.290822
13
8.592234
23
-0.930625
33
-0.290822
0
3DFACE
8
0
10
8.592234
20
-0.930625
30
-0.290822
11
8.520564
21
-0.930625
31
-0.345806
12
8.529339
22
-0.930625
32
-0.356498
13
8.529339
23
-0.930625
33
-0.356498
0
3DFACE
8
0
10
8.592234
20
-0.930625
30
-0.290822
11
8.579698
21
-0.930625
31
-0.275547
12
8.511789
22
-0.930625
32
-0.335113
13
8.511789
23
-0.930625
33
-0.335113
0
3DFACE
8
0
10
8.511789
20
-0.930625
30
-0.335113
11
8.520564
21
-0.930625
31
-0.345806
12
8.592234
22
-0.930625
32
-0.290822
13
8.592234
23
-0.930625
33
-0.290822
0
3DFACE
8
0
10
8.592234
20
-0.930625
30
-0.290822
11
8.604770
21
-0.930625
31
-0.306097
12
8.604770
22
-0.698058
32
-0.306097
13
8.604770
23
-0.698058
33
-0.306097
0
3DFACE
8
0
10
8.604770
20
-0.698058
30
-0.306097
11
8.592234
21
-0.698058
31
-0.290822
12
8.592234
22
-0.930625
32
-0.290822
13
8.592234
23
-0.930625
33
-0.290822
0
3DFACE
8
0
10
8.579698
20
-0.930625
30
-0.275547
11
8.592234
21
-0.930625
31
-0.290822
12
8.592234
22
-0.698058
32
-0.290822
13
8.592234
23
-0.698058
33
-0.290822
0
3DFACE
8
0
10
8.592234
20
-0.698058
30
-0.290822
11
8.579698
21
-0.698058
31
-0.275547
12
8.579698
22
-0.930625
32
-0.275547
13
8.579698
23
-0.930625
33
-0.275547
0
3DFACE
8
0
10
8.470936
20
-0.930625
30
-0.298096
11
8.470936
21
-1.047265
31
-0.298096
12
8.481629
22
-1.047265
32
-0.306871
13
8.481629
23
-1.047265
33
-0.306871
0
3DFACE
8
0
10
8.481629
20
-1.047265
30
-0.306871
11
8.481628
21
-0.930625
31
-0.306871
12
8.470936
22
-0.930625
32
-0.298096
13
8.470936
23
-0.930625
33
-0.298096
0
3DFACE
8
0
10
8.536613
20
-0.930625
30
-0.235201
11
8.521338
21
-0.930625
31
-0.222665
12
8.470936
22
-0.930625
32
-0.298096
13
8.470936
23
-0.930625
33
-0.298096
0
3DFACE
8
0
10
8.470936
20
-0.930625
30
-0.298096
11
8.481628
21
-0.930625
31
-0.306871
12
8.536613
22
-0.930625
32
-0.235201
13
8.536613
23
-0.930625
33
-0.235201
0
3DFACE
8
0
10
8.492321
20
-0.930625
30
-0.315646
11
8.492321
21
-1.047265
31
-0.315646
12
8.503014
22
-1.047265
32
-0.324421
13
8.503014
23
-1.047265
33
-0.324421
0
3DFACE
8
0
10
8.503014
20
-1.047265
30
-0.324421
11
8.503014
21
-0.930625
31
-0.324421
12
8.492321
22
-0.930625
32
-0.315646
13
8.492321
23
-0.930625
33
-0.315646
0
3DFACE
8
0
10
8.481628
20
-0.930625
30
-0.306871
11
8.481629
21
-1.047265
31
-0.306871
12
8.492321
22
-1.047265
32
-0.315646
13
8.492321
23
-1.047265
33
-0.315646
0
3DFACE
8
0
10
8.492321
20
-1.047265
30
-0.315646
11
8.492321
21
-0.930625
31
-0.315646
12
8.481628
22
-0.930625
32
-0.306871
13
8.481628
23
-0.930625
33
-0.306871
0
3DFACE
8
0
10
8.503014
20
-0.930625
30
-0.324421
11
8.567163
21
-0.930625
31
-0.260272
12
8.551888
22
-0.930625
32
-0.247736
13
8.551888
23
-0.930625
33
-0.247736
0
3DFACE
8
0
10
8.551888
20
-0.930625
30
-0.247736
11
8.492321
21
-0.930625
31
-0.315646
12
8.503014
22
-0.930625
32
-0.324421
13
8.503014
23
-0.930625
33
-0.324421
0
3DFACE
8
0
10
8.551888
20
-0.930625
30
-0.247736
11
8.536613
21
-0.930625
31
-0.235201
12
8.481628
22
-0.930625
32
-0.306871
13
8.481628
23
-0.930625
33
-0.306871
0
3DFACE
8
0
10
8.481628
20
-0.930625
30
-0.306871
11
8.492321
21
-0.930625
31
-0.315646
12
8.551888
22
-0.930625
32
-0.247736
13
8.551888
23
-0.930625
33
-0.247736
0
3DFACE
8
0
10
8.551888
20
-0.930625
30
-0.247736
11
8.567163
21
-0.930625
31
-0.260272
12
8.567163
22
-0.698058
32
-0.260272
13
8.567163
23
-0.698058
33
-0.260272
0
3DFACE
8
0
10
8.567163
20
-0.698058
30
-0.260272
11
8.551888
21
-0.698058
31
-0.247736
12
8.551888
22
-0.930625
32
-0.247736
13
8.551888
23
-0.930625
33
-0.247736
0
3DFACE
8
0
10
8.536613
20
-0.930625
30
-0.235201
11
8.551888
21
-0.930625
31
-0.247736
12
8.551888
22
-0.698058
32
-0.247736
13
8.551888
23
-0.698058
33
-0.247736
0
3DFACE
8
0
10
8.551888
20
-0.698058
30
-0.247736
11
8.536613
21
-0.698058
31
-0.235200
12
8.536613
22
-0.930625
32
-0.235201
13
8.536613
23
-0.930625
33
-0.235201
0
3DFACE
8
0
10
8.434340
20
-0.930625
30
-0.278535
11
8.434340
21
-1.047265
31
-0.278535
12
8.446539
22
-1.047265
32
-0.285055
13
8.446539
23
-1.047265
33
-0.285055
0
3DFACE
8
0
10
8.446539
20
-1.047265
30
-0.285055
11
8.446539
21
-0.930625
31
-0.285055
12
8.434340
22
-0.930625
32
-0.278535
13
8.434340
23
-0.930625
33
-0.278535
0
3DFACE
8
0
10
8.486484
20
-0.930625
30
-0.204035
11
8.469056
21
-0.930625
31
-0.194720
12
8.434340
22
-0.930625
32
-0.278535
13
8.434340
23
-0.930625
33
-0.278535
0
3DFACE
8
0
10
8.434340
20
-0.930625
30
-0.278535
11
8.446539
21
-0.930625
31
-0.285055
12
8.486484
22
-0.930625
32
-0.204035
13
8.486484
23
-0.930625
33
-0.204035
0
3DFACE
8
0
10
8.458738
20
-0.930625
30
-0.291575
11
8.458738
21
-1.047265
31
-0.291575
12
8.470936
22
-1.047265
32
-0.298096
13
8.470936
23
-1.047265
33
-0.298096
0
3DFACE
8
0
10
8.470936
20
-1.047265
30
-0.298096
11
8.470936
21
-0.930625
31
-0.298096
12
8.458738
22
-0.930625
32
-0.291575
13
8.458738
23
-0.930625
33
-0.291575
0
3DFACE
8
0
10
8.446539
20
-0.930625
30
-0.285055
11
8.446539
21
-1.047265
31
-0.285055
12
8.458738
22
-1.047265
32
-0.291575
13
8.458738
23
-1.047265
33
-0.291575
0
3DFACE
8
0
10
8.458738
20
-1.047265
30
-0.291575
11
8.458738
21
-0.930625
31
-0.291575
12
8.446539
22
-0.930625
32
-0.285055
13
8.446539
23
-0.930625
33
-0.285055
0
3DFACE
8
0
10
8.470936
20
-0.930625
30
-0.298096
11
8.521338
21
-0.930625
31
-0.222665
12
8.503910
22
-0.930625
32
-0.213350
13
8.503910
23
-0.930625
33
-0.213350
0
3DFACE
8
0
10
8.503910
20
-0.930625
30
-0.213350
11
8.458738
21
-0.930625
31
-0.291575
12
8.470936
22
-0.930625
32
-0.298096
13
8.470936
23
-0.930625
33
-0.298096
0
3DFACE
8
0
10
8.458738
20
-0.930625
30
-0.291575
11
8.503910
21
-0.930625
31
-0.213350
12
8.486484
22
-0.930625
32
-0.204035
13
8.486484
23
-0.930625
33
-0.204035
0
3DFACE
8
0
10
8.486484
20
-0.930625
30
-0.204035
11
8.446539
21
-0.930625
31
-0.285055
12
8.458738
22
-0.930625
32
-0.291575
13
8.458738
23
-0.930625
33
-0.291575
0
3DFACE
8
0
10
8.503910
20
-0.930625
30
-0.213350
11
8.521338
21
-0.930625
31
-0.222665
12
8.521338
22
-0.698058
32
-0.222665
13
8.521338
23
-0.698058
33
-0.222665
0
3DFACE
8
0
10
8.521338
20
-0.698058
30
-0.222665
11
8.503910
21
-0.698058
31
-0.213350
12
8.503910
22
-0.930625
32
-0.213350
13
8.503910
23
-0.930625
33
-0.213350
0
3DFACE
8
0
10
8.486484
20
-0.930625
30
-0.204035
11
8.503910
21
-0.930625
31
-0.213350
12
8.503910
22
-0.698058
32
-0.213350
13
8.503910
23
-0.698058
33
-0.213350
0
3DFACE
8
0
10
8.503910
20
-0.698058
30
-0.213350
11
8.486484
21
-0.698058
31
-0.204035
12
8.486484
22
-0.930625
32
-0.204035
13
8.486484
23
-0.930625
33
-0.204035
0
3DFACE
8
0
10
8.394630
20
-0.930625
30
-0.266489
11
8.394630
21
-1.047265
31
-0.266489
12
8.407867
22
-1.047265
32
-0.270504
13
8.407867
23
-1.047265
33
-0.270504
0
3DFACE
8
0
10
8.407867
20
-1.047265
30
-0.270504
11
8.407867
21
-0.930625
31
-0.270504
12
8.394630
22
-0.930625
32
-0.266489
13
8.394630
23
-0.930625
33
-0.266489
0
3DFACE
8
0
10
8.431237
20
-0.930625
30
-0.183248
11
8.412328
21
-0.930625
31
-0.177512
12
8.394630
22
-0.930625
32
-0.266489
13
8.394630
23
-0.930625
33
-0.266489
0
3DFACE
8
0
10
8.394630
20
-0.930625
30
-0.266489
11
8.407867
21
-0.930625
31
-0.270504
12
8.431237
22
-0.930625
32
-0.183248
13
8.431237
23
-0.930625
33
-0.183248
0
3DFACE
8
0
10
8.421103
20
-0.930625
30
-0.274519
11
8.421103
21
-1.047265
31
-0.274519
12
8.434340
22
-1.047265
32
-0.278535
13
8.434340
23
-1.047265
33
-0.278535
0
3DFACE
8
0
10
8.434340
20
-1.047265
30
-0.278535
11
8.434340
21
-0.930625
31
-0.278535
12
8.421103
22
-0.930625
32
-0.274519
13
8.421103
23
-0.930625
33
-0.274519
0
3DFACE
8
0
10
8.407867
20
-0.930625
30
-0.270504
11
8.407867
21
-1.047265
31
-0.270504
12
8.421103
22
-1.047265
32
-0.274519
13
8.421103
23
-1.047265
33
-0.274519
0
3DFACE
8
0
10
8.421103
20
-1.047265
30
-0.274519
11
8.421103
21
-0.930625
31
-0.274519
12
8.407867
22
-0.930625
32
-0.270504
13
8.407867
23
-0.930625
33
-0.270504
0
3DFACE
8
0
10
8.434340
20
-0.930625
30
-0.278535
11
8.469056
21
-0.930625
31
-0.194720
12
8.450148
22
-0.930625
32
-0.188984
13
8.450148
23
-0.930625
33
-0.188984
0
3DFACE
8
0
10
8.450148
20
-0.930625
30
-0.188984
11
8.421103
21
-0.930625
31
-0.274519
12
8.434340
22
-0.930625
32
-0.278535
13
8.434340
23
-0.930625
33
-0.278535
0
3DFACE
8
0
10
8.450148
20
-0.930625
30
-0.188984
11
8.431237
21
-0.930625
31
-0.183248
12
8.407867
22
-0.930625
32
-0.270504
13
8.407867
23
-0.930625
33
-0.270504
0
3DFACE
8
0
10
8.407867
20
-0.930625
30
-0.270504
11
8.421103
21
-0.930625
31
-0.274519
12
8.450148
22
-0.930625
32
-0.188984
13
8.450148
23
-0.930625
33
-0.188984
0
3DFACE
8
0
10
8.450148
20
-0.930625
30
-0.188984
11
8.469056
21
-0.930625
31
-0.194720
12
8.469056
22
-0.698058
32
-0.194720
13
8.469056
23
-0.698058
33
-0.194720
0
3DFACE
8
0
10
8.469056
20
-0.698058
30
-0.194720
11
8.450148
21
-0.698058
31
-0.188984
12
8.450148
22
-0.930625
32
-0.188984
13
8.450148
23
-0.930625
33
-0.188984
0
3DFACE
8
0
10
8.431237
20
-0.930625
30
-0.183248
11
8.450148
21
-0.930625
31
-0.188984
12
8.450148
22
-0.698058
32
-0.188984
13
8.450148
23
-0.698058
33
-0.188984
0
3DFACE
8
0
10
8.450148
20
-0.698058
30
-0.188984
11
8.431237
21
-0.698058
31
-0.183248
12
8.431237
22
-0.930625
32
-0.183248
13
8.431237
23
-0.930625
33
-0.183248
0
3DFACE
8
0
10
8.353333
20
-0.930625
30
-0.262421
11
8.353333
21
-1.047265
31
-0.262421
12
8.367099
22
-1.047265
32
-0.263777
13
8.367099
23
-1.047265
33
-0.263777
0
3DFACE
8
0
10
8.367099
20
-1.047265
30
-0.263777
11
8.367099
21
-0.930625
31
-0.263777
12
8.353333
22
-0.930625
32
-0.262421
13
8.353333
23
-0.930625
33
-0.262421
0
3DFACE
8
0
10
8.372998
20
-0.930625
30
-0.173638
11
8.353333
21
-0.930625
31
-0.171701
12
8.353333
22
-0.930625
32
-0.262421
13
8.353333
23
-0.930625
33
-0.262421
0
3DFACE
8
0
10
8.353333
20
-0.930625
30
-0.262421
11
8.367099
21
-0.930625
31
-0.263777
12
8.372998
22
-0.930625
32
-0.173638
13
8.372998
23
-0.930625
33
-0.173638
0
3DFACE
8
0
10
8.380864
20
-0.930625
30
-0.265133
11
8.380864
21
-1.047265
31
-0.265133
12
8.394630
22
-1.047265
32
-0.266489
13
8.394630
23
-1.047265
33
-0.266489
0
3DFACE
8
0
10
8.394630
20
-1.047265
30
-0.266489
11
8.394630
21
-0.930625
31
-0.266489
12
8.380864
22
-0.930625
32
-0.265133
13
8.380864
23
-0.930625
33
-0.265133
0
3DFACE
8
0
10
8.367099
20
-0.930625
30
-0.263777
11
8.367099
21
-1.047265
31
-0.263777
12
8.380864
22
-1.047265
32
-0.265133
13
8.380864
23
-1.047265
33
-0.265133
0
3DFACE
8
0
10
8.380864
20
-1.047265
30
-0.265133
11
8.380864
21
-0.930625
31
-0.265133
12
8.367099
22
-0.930625
32
-0.263777
13
8.367099
23
-0.930625
33
-0.263777
0
3DFACE
8
0
10
8.394630
20
-0.930625
30
-0.266489
11
8.412328
21
-0.930625
31
-0.177512
12
8.392663
22
-0.930625
32
-0.175575
13
8.392663
23
-0.930625
33
-0.175575
0
3DFACE
8
0
10
8.392663
20
-0.930625
30
-0.175575
11
8.380864
21
-0.930625
31
-0.265133
12
8.394630
22
-0.930625
32
-0.266489
13
8.394630
23
-0.930625
33
-0.266489
0
3DFACE
8
0
10
8.380864
20
-0.930625
30
-0.265133
11
8.392663
21
-0.930625
31
-0.175575
12
8.372998
22
-0.930625
32
-0.173638
13
8.372998
23
-0.930625
33
-0.173638
0
3DFACE
8
0
10
8.372998
20
-0.930625
30
-0.173638
11
8.367099
21
-0.930625
31
-0.263777
12
8.380864
22
-0.930625
32
-0.265133
13
8.380864
23
-0.930625
33
-0.265133
0
3DFACE
8
0
10
8.392663
20
-0.930625
30
-0.175575
11
8.412328
21
-0.930625
31
-0.177512
12
8.412328
22
-0.698058
32
-0.177512
13
8.412328
23
-0.698058
33
-0.177512
0
3DFACE
8
0
10
8.412328
20
-0.698058
30
-0.177512
11
8.392663
21
-0.698058
31
-0.175575
12
8.392663
22
-0.930625
32
-0.175575
13
8.392663
23
-0.930625
33
-0.175575
0
3DFACE
8
0
10
8.372998
20
-0.930625
30
-0.173638
11
8.392663
21
-0.930625
31
-0.175575
12
8.392663
22
-0.698058
32
-0.175575
13
8.392663
23
-0.698058
33
-0.175575
0
3DFACE
8
0
10
8.392663
20
-0.698058
30
-0.175575
11
8.372998
21
-0.698058
31
-0.173638
12
8.372998
22
-0.930625
32
-0.173638
13
8.372998
23
-0.930625
33
-0.173638
0
3DFACE
8
0
10
8.325803
20
-0.930625
30
-0.265133
11
8.312037
21
-0.930625
31
-0.266489
12
8.312037
22
-1.047265
32
-0.266489
13
8.312037
23
-1.047265
33
-0.266489
0
3DFACE
8
0
10
8.312037
20
-1.047265
30
-0.266489
11
8.325803
21
-1.047265
31
-0.265133
12
8.325803
22
-0.930625
32
-0.265133
13
8.325803
23
-0.930625
33
-0.265133
0
3DFACE
8
0
10
8.314003
20
-0.930625
30
-0.175575
11
8.294337
21
-0.930625
31
-0.177512
12
8.312037
22
-0.930625
32
-0.266489
13
8.312037
23
-0.930625
33
-0.266489
0
3DFACE
8
0
10
8.312037
20
-0.930625
30
-0.266489
11
8.325803
21
-0.930625
31
-0.265133
12
8.314003
22
-0.930625
32
-0.175575
13
8.314003
23
-0.930625
33
-0.175575
0
3DFACE
8
0
10
8.353333
20
-0.930625
30
-0.262421
11
8.339568
21
-0.930625
31
-0.263777
12
8.339568
22
-1.047265
32
-0.263777
13
8.339568
23
-1.047265
33
-0.263777
0
3DFACE
8
0
10
8.339568
20
-1.047265
30
-0.263777
11
8.353333
21
-1.047265
31
-0.262421
12
8.353333
22
-0.930625
32
-0.262421
13
8.353333
23
-0.930625
33
-0.262421
0
3DFACE
8
0
10
8.339568
20
-0.930625
30
-0.263777
11
8.325803
21
-0.930625
31
-0.265133
12
8.325803
22
-1.047265
32
-0.265133
13
8.325803
23
-1.047265
33
-0.265133
0
3DFACE
8
0
10
8.325803
20
-1.047265
30
-0.265133
11
8.339568
21
-1.047265
31
-0.263777
12
8.339568
22
-0.930625
32
-0.263777
13
8.339568
23
-0.930625
33
-0.263777
0
3DFACE
8
0
10
8.353333
20
-0.930625
30
-0.262421
11
8.353333
21
-0.930625
31
-0.171701
12
8.333668
22
-0.930625
32
-0.173638
13
8.333668
23
-0.930625
33
-0.173638
0
3DFACE
8
0
10
8.333668
20
-0.930625
30
-0.173638
11
8.339568
21
-0.930625
31
-0.263777
12
8.353333
22
-0.930625
32
-0.262421
13
8.353333
23
-0.930625
33
-0.262421
0
3DFACE
8
0
10
8.333668
20
-0.930625
30
-0.173638
11
8.314003
21
-0.930625
31
-0.175575
12
8.325803
22
-0.930625
32
-0.265133
13
8.325803
23
-0.930625
33
-0.265133
0
3DFACE
8
0
10
8.325803
20
-0.930625
30
-0.265133
11
8.339568
21
-0.930625
31
-0.263777
12
8.333668
22
-0.930625
32
-0.173638
13
8.333668
23
-0.930625
33
-0.173638
0
3DFACE
8
0
10
8.353333
20
-0.930625
30
-0.171701
11
8.353333
21
-0.698058
31
-0.171701
12
8.333668
22
-0.698058
32
-0.173638
13
8.333668
23
-0.698058
33
-0.173638
0
3DFACE
8
0
10
8.333668
20
-0.698058
30
-0.173638
11
8.333668
21
-0.930625
31
-0.173638
12
8.353333
22
-0.930625
32
-0.171701
13
8.353333
23
-0.930625
33
-0.171701
0
3DFACE
8
0
10
8.333668
20
-0.930625
30
-0.173638
11
8.333668
21
-0.698058
31
-0.173638
12
8.314003
22
-0.698058
32
-0.175575
13
8.314003
23
-0.698058
33
-0.175575
0
3DFACE
8
0
10
8.314003
20
-0.698058
30
-0.175575
11
8.314003
21
-0.930625
31
-0.175575
12
8.333668
22
-0.930625
32
-0.173638
13
8.333668
23
-0.930625
33
-0.173638
0
3DFACE
8
0
10
8.285563
20
-0.930625
30
-0.274519
11
8.272326
21
-0.930625
31
-0.278535
12
8.272326
22
-1.047265
32
-0.278535
13
8.272326
23
-1.047265
33
-0.278535
0
3DFACE
8
0
10
8.272326
20
-1.047265
30
-0.278535
11
8.285563
21
-1.047265
31
-0.274519
12
8.285563
22
-0.930625
32
-0.274519
13
8.285563
23
-0.930625
33
-0.274519
0
3DFACE
8
0
10
8.256519
20
-0.930625
30
-0.188984
11
8.237610
21
-0.930625
31
-0.194720
12
8.272326
22
-0.930625
32
-0.278535
13
8.272326
23
-0.930625
33
-0.278535
0
3DFACE
8
0
10
8.272326
20
-0.930625
30
-0.278535
11
8.285563
21
-0.930625
31
-0.274519
12
8.256519
22
-0.930625
32
-0.188984
13
8.256519
23
-0.930625
33
-0.188984
0
3DFACE
8
0
10
8.312037
20
-0.930625
30
-0.266489
11
8.298800
21
-0.930625
31
-0.270504
12
8.298800
22
-1.047265
32
-0.270504
13
8.298800
23
-1.047265
33
-0.270504
0
3DFACE
8
0
10
8.298800
20
-1.047265
30
-0.270504
11
8.312037
21
-1.047265
31
-0.266489
12
8.312037
22
-0.930625
32
-0.266489
13
8.312037
23
-0.930625
33
-0.266489
0
3DFACE
8
0
10
8.298800
20
-0.930625
30
-0.270504
11
8.285563
21
-0.930625
31
-0.274519
12
8.285563
22
-1.047265
32
-0.274519
13
8.285563
23
-1.047265
33
-0.274519
0
3DFACE
8
0
10
8.285563
20
-1.047265
30
-0.274519
11
8.298800
21
-1.047265
31
-0.270504
12
8.298800
22
-0.930625
32
-0.270504
13
8.298800
23
-0.930625
33
-0.270504
0
3DFACE
8
0
10
8.312037
20
-0.930625
30
-0.266489
11
8.294337
21
-0.930625
31
-0.177512
12
8.275429
22
-0.930625
32
-0.183248
13
8.275429
23
-0.930625
33
-0.183248
0
3DFACE
8
0
10
8.275429
20
-0.930625
30
-0.183248
11
8.298800
21
-0.930625
31
-0.270504
12
8.312037
22
-0.930625
32
-0.266489
13
8.312037
23
-0.930625
33
-0.266489
0
3DFACE
8
0
10
8.298800
20
-0.930625
30
-0.270504
11
8.275429
21
-0.930625
31
-0.183248
12
8.256519
22
-0.930625
32
-0.188984
13
8.256519
23
-0.930625
33
-0.188984
0
3DFACE
8
0
10
8.256519
20
-0.930625
30
-0.188984
11
8.285563
21
-0.930625
31
-0.274519
12
8.298800
22
-0.930625
32
-0.270504
13
8.298800
23
-0.930625
33
-0.270504
0
3DFACE
8
0
10
8.294337
20
-0.930625
30
-0.177512
11
8.294337
21
-0.698058
31
-0.177512
12
8.275429
22
-0.698058
32
-0.183248
13
8.275429
23
-0.698058
33
-0.183248
0
3DFACE
8
0
10
8.275429
20
-0.698058
30
-0.183248
11
8.275429
21
-0.930625
31
-0.183248
12
8.294337
22
-0.930625
32
-0.177512
13
8.294337
23
-0.930625
33
-0.177512
0
3DFACE
8
0
10
8.275429
20
-0.930625
30
-0.183248
11
8.275429
21
-0.698058
31
-0.183248
12
8.256519
22
-0.698058
32
-0.188984
13
8.256519
23
-0.698058
33
-0.188984
0
3DFACE
8
0
10
8.256519
20
-0.698058
30
-0.188984
11
8.256519
21
-0.930625
31
-0.188984
12
8.275429
22
-0.930625
32
-0.183248
13
8.275429
23
-0.930625
33
-0.183248
0
3DFACE
8
0
10
8.247929
20
-0.930625
30
-0.291576
11
8.235730
21
-0.930625
31
-0.298096
12
8.235730
22
-1.047265
32
-0.298096
13
8.235730
23
-1.047265
33
-0.298096
0
3DFACE
8
0
10
8.235730
20
-1.047265
30
-0.298096
11
8.247929
21
-1.047265
31
-0.291576
12
8.247929
22
-0.930625
32
-0.291576
13
8.247929
23
-0.930625
33
-0.291576
0
3DFACE
8
0
10
8.202755
20
-0.930625
30
-0.213350
11
8.185328
21
-0.930625
31
-0.222665
12
8.235730
22
-0.930625
32
-0.298096
13
8.235730
23
-0.930625
33
-0.298096
0
3DFACE
8
0
10
8.235730
20
-0.930625
30
-0.298096
11
8.247929
21
-0.930625
31
-0.291576
12
8.202755
22
-0.930625
32
-0.213350
13
8.202755
23
-0.930625
33
-0.213350
0
3DFACE
8
0
10
8.272326
20
-0.930625
30
-0.278535
11
8.260128
21
-0.930625
31
-0.285055
12
8.260128
22
-1.047265
32
-0.285055
13
8.260128
23
-1.047265
33
-0.285055
0
3DFACE
8
0
10
8.260128
20
-1.047265
30
-0.285055
11
8.272326
21
-1.047265
31
-0.278535
12
8.272326
22
-0.930625
32
-0.278535
13
8.272326
23
-0.930625
33
-0.278535
0
3DFACE
8
0
10
8.260128
20
-0.930625
30
-0.285055
11
8.247929
21
-0.930625
31
-0.291576
12
8.247929
22
-1.047265
32
-0.291576
13
8.247929
23
-1.047265
33
-0.291576
0
3DFACE
8
0
10
8.247929
20
-1.047265
30
-0.291576
11
8.260128
21
-1.047265
31
-0.285055
12
8.260128
22
-0.930625
32
-0.285055
13
8.260128
23
-0.930625
33
-0.285055
0
3DFACE
8
0
10
8.272326
20
-0.930625
30
-0.278535
11
8.237610
21
-0.930625
31
-0.194720
12
8.220182
22
-0.930625
32
-0.204035
13
8.220182
23
-0.930625
33
-0.204035
0
3DFACE
8
0
10
8.220182
20
-0.930625
30
-0.204035
11
8.260128
21
-0.930625
31
-0.285055
12
8.272326
22
-0.930625
32
-0.278535
13
8.272326
23
-0.930625
33
-0.278535
0
3DFACE
8
0
10
8.220182
20
-0.930625
30
-0.204035
11
8.202755
21
-0.930625
31
-0.213350
12
8.247929
22
-0.930625
32
-0.291576
13
8.247929
23
-0.930625
33
-0.291576
0
3DFACE
8
0
10
8.247929
20
-0.930625
30
-0.291576
11
8.260128
21
-0.930625
31
-0.285055
12
8.220182
22
-0.930625
32
-0.204035
13
8.220182
23
-0.930625
33
-0.204035
0
3DFACE
8
0
10
8.237610
20
-0.930625
30
-0.194720
11
8.237610
21
-0.698058
31
-0.194720
12
8.220182
22
-0.698058
32
-0.204035
13
8.220182
23
-0.698058
33
-0.204035
0
3DFACE
8
0
10
8.220182
20
-0.698058
30
-0.204035
11
8.220182
21
-0.930625
31
-0.204035
12
8.237610
22
-0.930625
32
-0.194720
13
8.237610
23
-0.930625
33
-0.194720
0
3DFACE
8
0
10
8.220182
20
-0.930625
30
-0.204035
11
8.220182
21
-0.698058
31
-0.204035
12
8.202755
22
-0.698058
32
-0.213350
13
8.202755
23
-0.698058
33
-0.213350
0
3DFACE
8
0
10
8.202755
20
-0.698058
30
-0.213350
11
8.202755
21
-0.930625
31
-0.213350
12
8.220182
22
-0.930625
32
-0.204035
13
8.220182
23
-0.930625
33
-0.204035
0
3DFACE
8
0
10
8.214345
20
-0.930625
30
-0.315646
11
8.203652
21
-0.930625
31
-0.324421
12
8.203652
22
-1.047265
32
-0.324421
13
8.203652
23
-1.047265
33
-0.324421
0
3DFACE
8
0
10
8.203652
20
-1.047265
30
-0.324421
11
8.214345
21
-1.047265
31
-0.315646
12
8.214345
22
-0.930625
32
-0.315646
13
8.214345
23
-0.930625
33
-0.315646
0
3DFACE
8
0
10
8.154778
20
-0.930625
30
-0.247737
11
8.139504
21
-0.930625
31
-0.260273
12
8.203652
22
-0.930625
32
-0.324421
13
8.203652
23
-0.930625
33
-0.324421
0
3DFACE
8
0
10
8.203652
20
-0.930625
30
-0.324421
11
8.214345
21
-0.930625
31
-0.315646
12
8.154778
22
-0.930625
32
-0.247737
13
8.154778
23
-0.930625
33
-0.247737
0
3DFACE
8
0
10
8.235730
20
-0.930625
30
-0.298096
11
8.225038
21
-0.930625
31
-0.306871
12
8.225038
22
-1.047265
32
-0.306871
13
8.225038
23
-1.047265
33
-0.306871
0
3DFACE
8
0
10
8.225038
20
-1.047265
30
-0.306871
11
8.235730
21
-1.047265
31
-0.298096
12
8.235730
22
-0.930625
32
-0.298096
13
8.235730
23
-0.930625
33
-0.298096
0
3DFACE
8
0
10
8.225038
20
-0.930625
30
-0.306871
11
8.214345
21
-0.930625
31
-0.315646
12
8.214345
22
-1.047265
32
-0.315646
13
8.214345
23
-1.047265
33
-0.315646
0
3DFACE
8
0
10
8.214345
20
-1.047265
30
-0.315646
11
8.225038
21
-1.047265
31
-0.306871
12
8.225038
22
-0.930625
32
-0.306871
13
8.225038
23
-0.930625
33
-0.306871
0
3DFACE
8
0
10
8.235730
20
-0.930625
30
-0.298096
11
8.185328
21
-0.930625
31
-0.222665
12
8.170053
22
-0.930625
32
-0.235201
13
8.170053
23
-0.930625
33
-0.235201
0
3DFACE
8
0
10
8.170053
20
-0.930625
30
-0.235201
11
8.225038
21
-0.930625
31
-0.306871
12
8.235730
22
-0.930625
32
-0.298096
13
8.235730
23
-0.930625
33
-0.298096
0
3DFACE
8
0
10
8.170053
20
-0.930625
30
-0.235201
11
8.154778
21
-0.930625
31
-0.247737
12
8.214345
22
-0.930625
32
-0.315646
13
8.214345
23
-0.930625
33
-0.315646
0
3DFACE
8
0
10
8.214345
20
-0.930625
30
-0.315646
11
8.225038
21
-0.930625
31
-0.306871
12
8.170053
22
-0.930625
32
-0.235201
13
8.170053
23
-0.930625
33
-0.235201
0
3DFACE
8
0
10
8.185328
20
-0.930625
30
-0.222665
11
8.185328
21
-0.698058
31
-0.222665
12
8.170053
22
-0.698058
32
-0.235201
13
8.170053
23
-0.698058
33
-0.235201
0
3DFACE
8
0
10
8.170053
20
-0.698058
30
-0.235201
11
8.170053
21
-0.930625
31
-0.235201
12
8.185328
22
-0.930625
32
-0.222665
13
8.185328
23
-0.930625
33
-0.222665
0
3DFACE
8
0
10
8.170053
20
-0.930625
30
-0.235201
11
8.170053
21
-0.698058
31
-0.235201
12
8.154778
22
-0.698058
32
-0.247737
13
8.154778
23
-0.698058
33
-0.247737
0
3DFACE
8
0
10
8.154778
20
-0.698058
30
-0.247737
11
8.154778
21
-0.930625
31
-0.247737
12
8.170053
22
-0.930625
32
-0.235201
13
8.170053
23
-0.930625
33
-0.235201
0
3DFACE
8
0
10
8.177328
20
-0.930625
30
-0.356499
11
8.177328
21
-1.047265
31
-0.356499
12
8.186103
22
-1.047265
32
-0.345806
13
8.186103
23
-1.047265
33
-0.345806
0
3DFACE
8
0
10
8.186103
20
-1.047265
30
-0.345806
11
8.186103
21
-0.930625
31
-0.345806
12
8.177328
22
-0.930625
32
-0.356499
13
8.177328
23
-0.930625
33
-0.356499
0
3DFACE
8
0
10
8.114432
20
-0.930625
30
-0.290822
11
8.101897
21
-0.930625
31
-0.306097
12
8.177328
22
-0.930625
32
-0.356499
13
8.177328
23
-0.930625
33
-0.356499
0
3DFACE
8
0
10
8.177328
20
-0.930625
30
-0.356499
11
8.186103
21
-0.930625
31
-0.345806
12
8.114432
22
-0.930625
32
-0.290822
13
8.114432
23
-0.930625
33
-0.290822
0
3DFACE
8
0
10
8.194878
20
-0.930625
30
-0.335114
11
8.194878
21
-1.047265
31
-0.335114
12
8.203652
22
-1.047265
32
-0.324421
13
8.203652
23
-1.047265
33
-0.324421
0
3DFACE
8
0
10
8.203652
20
-1.047265
30
-0.324421
11
8.203652
21
-0.930625
31
-0.324421
12
8.194878
22
-0.930625
32
-0.335114
13
8.194878
23
-0.930625
33
-0.335114
0
3DFACE
8
0
10
8.186103
20
-0.930625
30
-0.345806
11
8.186103
21
-1.047265
31
-0.345806
12
8.194878
22
-1.047265
32
-0.335114
13
8.194878
23
-1.047265
33
-0.335114
0
3DFACE
8
0
10
8.194878
20
-1.047265
30
-0.335114
11
8.194878
21
-0.930625
31
-0.335114
12
8.186103
22
-0.930625
32
-0.345806
13
8.186103
23
-0.930625
33
-0.345806
0
3DFACE
8
0
10
8.203652
20
-0.930625
30
-0.324421
11
8.139504
21
-0.930625
31
-0.260273
12
8.126969
22
-0.930625
32
-0.275548
13
8.126969
23
-0.930625
33
-0.275548
0
3DFACE
8
0
10
8.126969
20
-0.930625
30
-0.275548
11
8.194878
21
-0.930625
31
-0.335114
12
8.203652
22
-0.930625
32
-0.324421
13
8.203652
23
-0.930625
33
-0.324421
0
3DFACE
8
0
10
8.126969
20
-0.930625
30
-0.275548
11
8.114432
21
-0.930625
31
-0.290822
12
8.186103
22
-0.930625
32
-0.345806
13
8.186103
23
-0.930625
33
-0.345806
0
3DFACE
8
0
10
8.186103
20
-0.930625
30
-0.345806
11
8.194878
21
-0.930625
31
-0.335114
12
8.126969
22
-0.930625
32
-0.275548
13
8.126969
23
-0.930625
33
-0.275548
0
3DFACE
8
0
10
8.126967
20
-0.698058
30
-0.275547
11
8.126969
21
-0.930625
31
-0.275548
12
8.139504
22
-0.930625
32
-0.260273
13
8.139504
23
-0.930625
33
-0.260273
0
3DFACE
8
0
10
8.139504
20
-0.930625
30
-0.260273
11
8.139504
21
-0.698058
31
-0.260273
12
8.126967
22
-0.698058
32
-0.275547
13
8.126967
23
-0.698058
33
-0.275547
0
3DFACE
8
0
10
8.114432
20
-0.698058
30
-0.290822
11
8.114432
21
-0.930625
31
-0.290822
12
8.126969
22
-0.930625
32
-0.275548
13
8.126969
23
-0.930625
33
-0.275548
0
3DFACE
8
0
10
8.126969
20
-0.930625
30
-0.275548
11
8.126967
21
-0.698058
31
-0.275547
12
8.114432
22
-0.698058
32
-0.290822
13
8.114432
23
-0.698058
33
-0.290822
0
3DFACE
8
0
10
8.157766
20
-0.930625
30
-0.393095
11
8.157766
21
-1.047265
31
-0.393095
12
8.164288
22
-1.047265
32
-0.380896
13
8.164288
23
-1.047265
33
-0.380896
0
3DFACE
8
0
10
8.164288
20
-1.047265
30
-0.380896
11
8.164288
21
-0.930625
31
-0.380896
12
8.157766
22
-0.930625
32
-0.393095
13
8.157766
23
-0.930625
33
-0.393095
0
3DFACE
8
0
10
8.083267
20
-0.930625
30
-0.340951
11
8.073952
21
-0.930625
31
-0.358378
12
8.157766
22
-0.930625
32
-0.393095
13
8.157766
23
-0.930625
33
-0.393095
0
3DFACE
8
0
10
8.157766
20
-0.930625
30
-0.393095
11
8.164288
21
-0.930625
31
-0.380896
12
8.083267
22
-0.930625
32
-0.340951
13
8.083267
23
-0.930625
33
-0.340951
0
3DFACE
8
0
10
8.177328
20
-0.930625
30
-0.356499
11
8.170808
21
-0.930625
31
-0.368697
12
8.170808
22
-1.047265
32
-0.368697
13
8.170808
23
-1.047265
33
-0.368697
0
3DFACE
8
0
10
8.170808
20
-1.047265
30
-0.368697
11
8.177328
21
-1.047265
31
-0.356499
12
8.177328
22
-0.930625
32
-0.356499
13
8.177328
23
-0.930625
33
-0.356499
0
3DFACE
8
0
10
8.170808
20
-0.930625
30
-0.368697
11
8.164288
21
-0.930625
31
-0.380896
12
8.164288
22
-1.047265
32
-0.380896
13
8.164288
23
-1.047265
33
-0.380896
0
3DFACE
8
0
10
8.164288
20
-1.047265
30
-0.380896
11
8.170808
21
-1.047265
31
-0.368697
12
8.170808
22
-0.930625
32
-0.368697
13
8.170808
23
-0.930625
33
-0.368697
0
3DFACE
8
0
10
8.177328
20
-0.930625
30
-0.356499
11
8.101897
21
-0.930625
31
-0.306097
12
8.092582
22
-0.930625
32
-0.323524
13
8.092582
23
-0.930625
33
-0.323524
0
3DFACE
8
0
10
8.092582
20
-0.930625
30
-0.323524
11
8.170808
21
-0.930625
31
-0.368697
12
8.177328
22
-0.930625
32
-0.356499
13
8.177328
23
-0.930625
33
-0.356499
0
3DFACE
8
0
10
8.170808
20
-0.930625
30
-0.368697
11
8.092582
21
-0.930625
31
-0.323524
12
8.083267
22
-0.930625
32
-0.340951
13
8.083267
23
-0.930625
33
-0.340951
0
3DFACE
8
0
10
8.083267
20
-0.930625
30
-0.340951
11
8.164288
21
-0.930625
31
-0.380896
12
8.170808
22
-0.930625
32
-0.368697
13
8.170808
23
-0.930625
33
-0.368697
0
3DFACE
8
0
10
8.101897
20
-0.930625
30
-0.306097
11
8.101897
21
-0.698058
31
-0.306097
12
8.092582
22
-0.698058
32
-0.323524
13
8.092582
23
-0.698058
33
-0.323524
0
3DFACE
8
0
10
8.092582
20
-0.698058
30
-0.323524
11
8.092582
21
-0.930625
31
-0.323524
12
8.101897
22
-0.930625
32
-0.306097
13
8.101897
23
-0.930625
33
-0.306097
0
3DFACE
8
0
10
8.092582
20
-0.930625
30
-0.323524
11
8.092582
21
-0.698058
31
-0.323524
12
8.083267
22
-0.698058
32
-0.340951
13
8.083267
23
-0.698058
33
-0.340951
0
3DFACE
8
0
10
8.083267
20
-0.698058
30
-0.340951
11
8.083267
21
-0.930625
31
-0.340951
12
8.092582
22
-0.930625
32
-0.323524
13
8.092582
23
-0.930625
33
-0.323524
0
3DFACE
8
0
10
8.143009
20
-1.047265
30
-0.460336
11
8.143009
21
-0.930625
31
-0.460336
12
8.141654
22
-0.930625
32
-0.474101
13
8.141654
23
-0.930625
33
-0.474101
0
3DFACE
8
0
10
8.141654
20
-0.930625
30
-0.474101
11
8.141654
21
-1.047265
31
-0.474101
12
8.143009
22
-1.047265
32
-0.460336
13
8.143009
23
-1.047265
33
-0.460336
0
3DFACE
8
0
10
8.052871
20
-0.930625
30
-0.454436
11
8.050934
21
-0.930625
31
-0.474101
12
8.141654
22
-0.930625
32
-0.474101
13
8.141654
23
-0.930625
33
-0.474101
0
3DFACE
8
0
10
8.141654
20
-0.930625
30
-0.474101
11
8.143009
21
-0.930625
31
-0.460336
12
8.052871
22
-0.930625
32
-0.454436
13
8.052871
23
-0.930625
33
-0.454436
0
3DFACE
8
0
10
8.145720
20
-0.930625
30
-0.432805
11
8.144365
21
-0.930625
31
-0.446570
12
8.144365
22
-1.047265
32
-0.446570
13
8.144365
23
-1.047265
33
-0.446570
0
3DFACE
8
0
10
8.144365
20
-1.047265
30
-0.446570
11
8.145720
21
-1.047265
31
-0.432805
12
8.145720
22
-0.930625
32
-0.432805
13
8.145720
23
-0.930625
33
-0.432805
0
3DFACE
8
0
10
8.144365
20
-0.930625
30
-0.446570
11
8.143009
21
-0.930625
31
-0.460336
12
8.143009
22
-1.047265
32
-0.460336
13
8.143009
23
-1.047265
33
-0.460336
0
3DFACE
8
0
10
8.143009
20
-1.047265
30
-0.460336
11
8.144365
21
-1.047265
31
-0.446570
12
8.144365
22
-0.930625
32
-0.446570
13
8.144365
23
-0.930625
33
-0.446570
0
3DFACE
8
0
10
8.145720
20
-0.930625
30
-0.432805
11
8.056744
21
-0.930625
31
-0.415107
12
8.054808
22
-0.930625
32
-0.434771
13
8.054808
23
-0.930625
33
-0.434771
0
3DFACE
8
0
10
8.054808
20
-0.930625
30
-0.434771
11
8.144365
21
-0.930625
31
-0.446570
12
8.145720
22
-0.930625
32
-0.432805
13
8.145720
23
-0.930625
33
-0.432805
0
3DFACE
8
0
10
8.054808
20
-0.930625
30
-0.434771
11
8.052871
21
-0.930625
31
-0.454436
12
8.143009
22
-0.930625
32
-0.460336
13
8.143009
23
-0.930625
33
-0.460336
0
3DFACE
8
0
10
8.143009
20
-0.930625
30
-0.460336
11
8.144365
21
-0.930625
31
-0.446570
12
8.054808
22
-0.930625
32
-0.434771
13
8.054808
23
-0.930625
33
-0.434771
0
3DFACE
8
0
10
8.054808
20
-0.698058
30
-0.434771
11
8.054808
21
-0.930625
31
-0.434771
12
8.056744
22
-0.930625
32
-0.415107
13
8.056744
23
-0.930625
33
-0.415107
0
3DFACE
8
0
10
8.056744
20
-0.930625
30
-0.415107
11
8.056744
21
-0.698058
31
-0.415106
12
8.054808
22
-0.698058
32
-0.434771
13
8.054808
23
-0.698058
33
-0.434771
0
3DFACE
8
0
10
8.052871
20
-0.698058
30
-0.454436
11
8.052871
21
-0.930625
31
-0.454436
12
8.054808
22
-0.930625
32
-0.434771
13
8.054808
23
-0.930625
33
-0.434771
0
3DFACE
8
0
10
8.054808
20
-0.930625
30
-0.434771
11
8.054808
21
-0.698058
31
-0.434771
12
8.052871
22
-0.698058
32
-0.454436
13
8.052871
23
-0.698058
33
-0.454436
0
3DFACE
8
0
10
8.145720
20
-0.930625
30
-0.432805
11
8.145720
21
-1.047265
31
-0.432805
12
8.149736
22
-1.047265
32
-0.419568
13
8.149736
23
-1.047265
33
-0.419568
0
3DFACE
8
0
10
8.149736
20
-1.047265
30
-0.419568
11
8.149736
21
-0.930625
31
-0.419568
12
8.145720
22
-0.930625
32
-0.432805
13
8.145720
23
-0.930625
33
-0.432805
0
3DFACE
8
0
10
8.062480
20
-0.930625
30
-0.396197
11
8.056744
21
-0.930625
31
-0.415107
12
8.145720
22
-0.930625
32
-0.432805
13
8.145720
23
-0.930625
33
-0.432805
0
3DFACE
8
0
10
8.145720
20
-0.930625
30
-0.432805
11
8.149736
21
-0.930625
31
-0.419568
12
8.062480
22
-0.930625
32
-0.396197
13
8.062480
23
-0.930625
33
-0.396197
0
3DFACE
8
0
10
8.153751
20
-0.930625
30
-0.406332
11
8.153751
21
-1.047265
31
-0.406332
12
8.157766
22
-1.047265
32
-0.393095
13
8.157766
23
-1.047265
33
-0.393095
0
3DFACE
8
0
10
8.157766
20
-1.047265
30
-0.393095
11
8.157766
21
-0.930625
31
-0.393095
12
8.153751
22
-0.930625
32
-0.406332
13
8.153751
23
-0.930625
33
-0.406332
0
3DFACE
8
0
10
8.149736
20
-0.930625
30
-0.419568
11
8.149736
21
-1.047265
31
-0.419568
12
8.153751
22
-1.047265
32
-0.406332
13
8.153751
23
-1.047265
33
-0.406332
0
3DFACE
8
0
10
8.153751
20
-1.047265
30
-0.406332
11
8.153751
21
-0.930625
31
-0.406332
12
8.149736
22
-0.930625
32
-0.419568
13
8.149736
23
-0.930625
33
-0.419568
0
3DFACE
8
0
10
8.157766
20
-0.930625
30
-0.393095
11
8.073952
21
-0.930625
31
-0.358378
12
8.068215
22
-0.930625
32
-0.377288
13
8.068215
23
-0.930625
33
-0.377288
0
3DFACE
8
0
10
8.068215
20
-0.930625
30
-0.377288
11
8.153751
21
-0.930625
31
-0.406332
12
8.157766
22
-0.930625
32
-0.393095
13
8.157766
23
-0.930625
33
-0.393095
0
3DFACE
8
0
10
8.062480
20
-0.930625
30
-0.396197
11
8.149736
21
-0.930625
31
-0.419568
12
8.153751
22
-0.930625
32
-0.406332
13
8.153751
23
-0.930625
33
-0.406332
0
3DFACE
8
0
10
8.153751
20
-0.930625
30
-0.406332
11
8.068215
21
-0.930625
31
-0.377288
12
8.062480
22
-0.930625
32
-0.396197
13
8.062480
23
-0.930625
33
-0.396197
0
3DFACE
8
0
10
8.068215
20
-0.698058
30
-0.377288
11
8.068215
21
-0.930625
31
-0.377288
12
8.073952
22
-0.930625
32
-0.358378
13
8.073952
23
-0.930625
33
-0.358378
0
3DFACE
8
0
10
8.073952
20
-0.930625
30
-0.358378
11
8.073952
21
-0.698058
31
-0.358378
12
8.068215
22
-0.698058
32
-0.377288
13
8.068215
23
-0.698058
33
-0.377288
0
3DFACE
8
0
10
8.062480
20
-0.698058
30
-0.396197
11
8.062480
21
-0.930625
31
-0.396197
12
8.068215
22
-0.930625
32
-0.377288
13
8.068215
23
-0.930625
33
-0.377288
0
3DFACE
8
0
10
8.068215
20
-0.930625
30
-0.377288
11
8.068215
21
-0.698058
31
-0.377288
12
8.062480
22
-0.698058
32
-0.396197
13
8.062480
23
-0.698058
33
-0.396197
0
ENDSEC
0
EOF
