0
SECTION
2
ENTITIES
0
3DFACE
8
0
10
7.603333
20
3.312435
30
-0.024101
11
7.603333
21
3.812435
31
-0.024101
12
7.603333
22
3.812435
32
-1.224101
13
7.603333
23
3.812435
33
-1.224101
0
3DFACE
8
0
10
7.603333
20
3.812435
30
-1.224101
11
7.603333
21
3.312435
31
-1.224101
12
7.603333
22
3.312435
32
-0.024101
13
7.603333
23
3.312435
33
-0.024101
0
3DFACE
8
0
10
8.598071
20
3.812435
30
-1.074101
11
8.953334
21
3.812435
31
-1.074101
12
9.103333
22
3.812435
32
-1.224101
13
9.103333
23
3.812435
33
-1.224101
0
3DFACE
8
0
10
9.103333
20
3.812435
30
-1.224101
11
8.108597
21
3.812435
31
-1.074101
12
8.598071
22
3.812435
32
-1.074101
13
8.598071
23
3.812435
33
-1.074101
0
3DFACE
8
0
10
9.103333
20
3.812435
30
-1.224101
11
8.012138
21
3.812435
31
-1.074101
12
8.046812
22
3.812435
32
-1.074101
13
8.046812
23
3.812435
33
-1.074101
0
3DFACE
8
0
10
8.046812
20
3.812435
30
-1.074101
11
8.108597
21
3.812435
31
-1.074101
12
9.103333
22
3.812435
32
-1.224101
13
9.103333
23
3.812435
33
-1.224101
0
3DFACE
8
0
10
9.103333
20
3.812435
30
-1.224101
11
8.011177
21
3.812435
31
-1.074101
12
8.011626
22
3.812435
32
-1.074101
13
8.011626
23
3.812435
33
-1.074101
0
3DFACE
8
0
10
8.011626
20
3.812435
30
-1.074101
11
8.012138
21
3.812435
31
-1.074101
12
9.103333
22
3.812435
32
-1.224101
13
9.103333
23
3.812435
33
-1.224101
0
3DFACE
8
0
10
9.103333
20
3.812435
30
-1.224101
11
8.008516
21
3.812435
31
-1.074101
12
8.009970
22
3.812435
32
-1.074101
13
8.009970
23
3.812435
33
-1.074101
0
3DFACE
8
0
10
8.009970
20
3.812435
30
-1.074101
11
8.011177
21
3.812435
31
-1.074101
12
9.103333
22
3.812435
32
-1.224101
13
9.103333
23
3.812435
33
-1.224101
0
3DFACE
8
0
10
9.103333
20
3.812435
30
-1.224101
11
8.005830
21
3.812435
31
-1.074101
12
8.007055
22
3.812435
32
-1.074101
13
8.007055
23
3.812435
33
-1.074101
0
3DFACE
8
0
10
8.007055
20
3.812435
30
-1.074101
11
8.008516
21
3.812435
31
-1.074101
12
9.103333
22
3.812435
32
-1.224101
13
9.103333
23
3.812435
33
-1.224101
0
3DFACE
8
0
10
9.103333
20
3.812435
30
-1.224101
11
7.888876
21
3.812435
31
-1.074101
12
7.896035
22
3.812435
32
-1.074101
13
7.896035
23
3.812435
33
-1.074101
0
3DFACE
8
0
10
7.896035
20
3.812435
30
-1.074101
11
8.005830
21
3.812435
31
-1.074101
12
9.103333
22
3.812435
32
-1.224101
13
9.103333
23
3.812435
33
-1.224101
0
3DFACE
8
0
10
9.103333
20
3.812435
30
-1.224101
11
7.871848
21
3.812435
31
-1.074101
12
7.880340
22
3.812435
32
-1.074101
13
7.880340
23
3.812435
33
-1.074101
0
3DFACE
8
0
10
7.880340
20
3.812435
30
-1.074101
11
7.888876
21
3.812435
31
-1.074101
12
9.103333
22
3.812435
32
-1.224101
13
9.103333
23
3.812435
33
-1.224101
0
3DFACE
8
0
10
7.603333
20
3.812435
30
-1.224101
11
7.753333
21
3.812435
31
-1.074101
12
7.871848
22
3.812435
32
-1.074101
13
7.871848
23
3.812435
33
-1.074101
0
3DFACE
8
0
10
7.871848
20
3.812435
30
-1.074101
11
9.103333
21
3.812435
31
-1.224101
12
7.603333
22
3.812435
32
-1.224101
13
7.603333
23
3.812435
33
-1.224101
0
3DFACE
8
0
10
8.953334
20
3.812435
30
-0.543332
11
9.103333
21
3.812435
31
-0.024101
12
9.103333
22
3.812435
32
-1.224101
13
9.103333
23
3.812435
33
-1.224101
0
3DFACE
8
0
10
9.103333
20
3.812435
30
-1.224101
11
8.953334
21
3.812435
31
-1.074101
12
8.953334
22
3.812435
32
-0.543332
13
8.953334
23
3.812435
33
-0.543332
0
3DFACE
8
0
10
7.603333
20
3.812435
30
-1.224101
11
7.603333
21
3.812435
31
-0.024101
12
7.753333
22
3.812435
32
-0.543332
13
7.753333
23
3.812435
33
-0.543332
0
3DFACE
8
0
10
7.753333
20
3.812435
30
-0.543332
11
7.753333
21
3.812435
31
-1.074101
12
7.603333
22
3.812435
32
-1.224101
13
7.603333
23
3.812435
33
-1.224101
0
3DFACE
8
0
10
8.953334
20
3.812435
30
-0.543332
11
8.953334
21
3.812435
31
-0.024101
12
9.103333
22
3.812435
32
-0.024101
13
9.103333
23
3.812435
33
-0.024101
0
3DFACE
8
0
10
7.603333
20
3.812435
30
-0.024101
11
7.753333
21
3.812435
31
-0.024101
12
7.753333
22
3.812435
32
-0.543332
13
7.753333
23
3.812435
33
-0.543332
0
3DFACE
8
0
10
9.103333
20
3.312435
30
-1.224101
11
9.103333
21
3.812435
31
-1.224101
12
9.103333
22
3.812435
32
-0.024101
13
9.103333
23
3.812435
33
-0.024101
0
3DFACE
8
0
10
9.103333
20
3.812435
30
-0.024101
11
9.103333
21
3.312435
31
-0.024101
12
9.103333
22
3.312435
32
-1.224101
13
9.103333
23
3.312435
33
-1.224101
0
3DFACE
8
0
10
8.233715
20
3.306185
30
-0.782315
11
8.176663
21
3.306185
31
-0.751819
12
7.603333
22
3.312435
32
-1.224101
13
7.603333
23
3.312435
33
-1.224101
0
3DFACE
8
0
10
7.603333
20
3.312435
30
-1.224101
11
8.295621
21
3.306185
31
-0.801094
12
8.233715
22
3.306185
32
-0.782315
13
8.233715
23
3.306185
33
-0.782315
0
3DFACE
8
0
10
7.603333
20
3.312435
30
-1.224101
11
8.360001
21
3.306185
31
-0.807435
12
8.295621
22
3.306185
32
-0.801094
13
8.295621
23
3.306185
33
-0.801094
0
3DFACE
8
0
10
7.603333
20
3.312435
30
-1.224101
11
8.424380
21
3.306185
31
-0.801094
12
8.360001
22
3.306185
32
-0.807435
13
8.360001
23
3.306185
33
-0.807435
0
3DFACE
8
0
10
7.603333
20
3.312435
30
-1.224101
11
8.486286
21
3.306185
31
-0.782315
12
8.424380
22
3.306185
32
-0.801094
13
8.424380
23
3.306185
33
-0.801094
0
3DFACE
8
0
10
7.603333
20
3.312435
30
-1.224101
11
9.103333
21
3.312435
31
-1.224101
12
8.543339
22
3.306185
32
-0.751820
13
8.543339
23
3.306185
33
-0.751820
0
3DFACE
8
0
10
8.543339
20
3.306185
30
-0.751820
11
8.486286
21
3.306185
31
-0.782315
12
7.603333
22
3.312435
32
-1.224101
13
7.603333
23
3.312435
33
-1.224101
0
3DFACE
8
0
10
8.176663
20
3.306185
30
-0.751819
11
8.126656
21
3.306185
31
-0.710780
12
7.603333
22
3.312435
32
-1.224101
13
7.603333
23
3.312435
33
-1.224101
0
3DFACE
8
0
10
9.103333
20
3.312435
30
-1.224101
11
8.593347
21
3.306185
31
-0.710780
12
8.543339
22
3.306185
32
-0.751820
13
8.543339
23
3.306185
33
-0.751820
0
3DFACE
8
0
10
9.103333
20
3.312435
30
-1.224101
11
8.634386
21
3.306185
31
-0.660773
12
8.593347
22
3.306185
32
-0.710780
13
8.593347
23
3.306185
33
-0.710780
0
3DFACE
8
0
10
9.103333
20
3.312435
30
-1.224101
11
8.664881
21
3.306185
31
-0.603720
12
8.634386
22
3.306185
32
-0.660773
13
8.634386
23
3.306185
33
-0.660773
0
3DFACE
8
0
10
9.103333
20
3.312435
30
-1.224101
11
8.683660
21
3.306185
31
-0.541814
12
8.664881
22
3.306185
32
-0.603720
13
8.664881
23
3.306185
33
-0.603720
0
3DFACE
8
0
10
9.103333
20
3.312435
30
-1.224101
11
8.690001
21
3.306185
31
-0.477435
12
8.683660
22
3.306185
32
-0.541814
13
8.683660
23
3.306185
33
-0.541814
0
3DFACE
8
0
10
9.103333
20
3.312435
30
-1.224101
11
8.683660
21
3.306185
31
-0.413055
12
8.690001
22
3.306185
32
-0.477435
13
8.690001
23
3.306185
33
-0.477435
0
3DFACE
8
0
10
9.103333
20
3.312435
30
-1.224101
11
8.664881
21
3.306185
31
-0.351149
12
8.683660
22
3.306185
32
-0.413055
13
8.683660
23
3.306185
33
-0.413055
0
3DFACE
8
0
10
9.103333
20
3.312435
30
-1.224101
11
9.103333
21
3.312435
31
-0.024101
12
8.634386
22
3.306185
32
-0.294096
13
8.634386
23
3.306185
33
-0.294096
0
3DFACE
8
0
10
8.634386
20
3.306185
30
-0.294096
11
8.664881
21
3.306185
31
-0.351149
12
9.103333
22
3.312435
32
-1.224101
13
9.103333
23
3.312435
33
-1.224101
0
3DFACE
8
0
10
8.126656
20
3.306185
30
-0.710780
11
8.085615
21
3.306185
31
-0.660773
12
7.603333
22
3.312435
32
-1.224101
13
7.603333
23
3.312435
33
-1.224101
0
3DFACE
8
0
10
9.103333
20
3.312435
30
-0.024101
11
8.593347
21
3.306185
31
-0.244089
12
8.634386
22
3.306185
32
-0.294096
13
8.634386
23
3.306185
33
-0.294096
0
3DFACE
8
0
10
9.103333
20
3.312435
30
-0.024101
11
8.543339
21
3.306185
31
-0.203050
12
8.593347
22
3.306185
32
-0.244089
13
8.593347
23
3.306185
33
-0.244089
0
3DFACE
8
0
10
9.103333
20
3.312435
30
-0.024101
11
8.486286
21
3.306185
31
-0.172554
12
8.543339
22
3.306185
32
-0.203050
13
8.543339
23
3.306185
33
-0.203050
0
3DFACE
8
0
10
9.103333
20
3.312435
30
-0.024101
11
8.424380
21
3.306185
31
-0.153775
12
8.486286
22
3.306185
32
-0.172554
13
8.486286
23
3.306185
33
-0.172554
0
3DFACE
8
0
10
9.103333
20
3.312435
30
-0.024101
11
8.360001
21
3.306185
31
-0.147435
12
8.424380
22
3.306185
32
-0.153775
13
8.424380
23
3.306185
33
-0.153775
0
3DFACE
8
0
10
9.103333
20
3.312435
30
-0.024101
11
7.603333
21
3.312435
31
-0.024101
12
8.295621
22
3.306185
32
-0.153775
13
8.295621
23
3.306185
33
-0.153775
0
3DFACE
8
0
10
8.295621
20
3.306185
30
-0.153775
11
8.360001
21
3.306185
31
-0.147435
12
9.103333
22
3.312435
32
-0.024101
13
9.103333
23
3.312435
33
-0.024101
0
3DFACE
8
0
10
8.085615
20
3.306185
30
-0.660773
11
8.055120
21
3.306185
31
-0.603720
12
7.603333
22
3.312435
32
-1.224101
13
7.603333
23
3.312435
33
-1.224101
0
3DFACE
8
0
10
7.603333
20
3.312435
30
-0.024101
11
8.233716
21
3.306185
31
-0.172554
12
8.295621
22
3.306185
32
-0.153775
13
8.295621
23
3.306185
33
-0.153775
0
3DFACE
8
0
10
7.603333
20
3.312435
30
-0.024101
11
8.176663
21
3.306185
31
-0.203049
12
8.233716
22
3.306185
32
-0.172554
13
8.233716
23
3.306185
33
-0.172554
0
3DFACE
8
0
10
7.603333
20
3.312435
30
-0.024101
11
8.126656
21
3.306185
31
-0.244089
12
8.176663
22
3.306185
32
-0.203049
13
8.176663
23
3.306185
33
-0.203049
0
3DFACE
8
0
10
7.603333
20
3.312435
30
-0.024101
11
8.085615
21
3.306185
31
-0.294096
12
8.126656
22
3.306185
32
-0.244089
13
8.126656
23
3.306185
33
-0.244089
0
3DFACE
8
0
10
7.603333
20
3.312435
30
-0.024101
11
8.055121
21
3.306185
31
-0.351149
12
8.085615
22
3.306185
32
-0.294096
13
8.085615
23
3.306185
33
-0.294096
0
3DFACE
8
0
10
8.055120
20
3.306185
30
-0.603720
11
8.036342
21
3.306185
31
-0.541814
12
7.603333
22
3.312435
32
-1.224101
13
7.603333
23
3.312435
33
-1.224101
0
3DFACE
8
0
10
7.603333
20
3.312435
30
-0.024101
11
8.036342
21
3.306185
31
-0.413054
12
8.055121
22
3.306185
32
-0.351149
13
8.055121
23
3.306185
33
-0.351149
0
3DFACE
8
0
10
7.603333
20
3.312435
30
-0.024101
11
7.603333
21
3.312435
31
-1.224101
12
8.030001
22
3.306185
32
-0.477434
13
8.030001
23
3.306185
33
-0.477434
0
3DFACE
8
0
10
8.030001
20
3.306185
30
-0.477434
11
8.036342
21
3.306185
31
-0.413054
12
7.603333
22
3.312435
32
-0.024101
13
7.603333
23
3.312435
33
-0.024101
0
3DFACE
8
0
10
8.036342
20
3.306185
30
-0.541814
11
8.030001
21
3.306185
31
-0.477434
12
7.603333
22
3.312435
32
-1.224101
13
7.603333
23
3.312435
33
-1.224101
0
3DFACE
8
0
10
9.103333
20
3.812435
30
-1.224101
11
9.103333
21
3.312435
31
-1.224101
12
7.603333
22
3.312435
32
-1.224101
13
7.603333
23
3.312435
33
-1.224101
0
3DFACE
8
0
10
7.603333
20
3.312435
30
-1.224101
11
7.603333
21
3.812435
31
-1.224101
12
9.103333
22
3.812435
32
-1.224101
13
9.103333
23
3.812435
33
-1.224101
0
3DFACE
8
0
10
7.603333
20
3.312435
30
-0.024101
11
9.103333
21
3.312435
31
-0.024101
12
8.953334
22
3.437435
32
-0.024101
13
8.953334
23
3.437435
33
-0.024101
0
3DFACE
8
0
10
8.953334
20
3.437435
30
-0.024101
11
7.753333
21
3.437435
31
-0.024101
12
7.603333
22
3.312435
32
-0.024101
13
7.603333
23
3.312435
33
-0.024101
0
3DFACE
8
0
10
9.103333
20
3.812435
30
-0.024101
11
8.953334
21
3.812435
31
-0.024101
12
8.953334
22
3.437435
32
-0.024101
13
8.953334
23
3.437435
33
-0.024101
0
3DFACE
8
0
10
8.953334
20
3.437435
30
-0.024101
11
9.103333
21
3.312435
31
-0.024101
12
9.103333
22
3.812435
32
-0.024101
13
9.103333
23
3.812435
33
-0.024101
0
3DFACE
8
0
10
7.603333
20
3.812435
30
-0.024101
11
7.603333
21
3.312435
31
-0.024101
12
7.753333
22
3.437435
32
-0.024101
13
7.753333
23
3.437435
33
-0.024101
0
3DFACE
8
0
10
7.753333
20
3.437435
30
-0.024101
11
7.753333
21
3.812435
31
-0.024101
12
7.603333
22
3.812435
32
-0.024101
13
7.603333
23
3.812435
33
-0.024101
0
3DFACE
8
0
10
7.753333
20
3.812435
30
-1.074101
11
7.753333
21
3.812435
31
-0.543332
12
7.753333
22
3.437435
32
-1.074101
13
7.753333
23
3.437435
33
-1.074101
0
3DFACE
8
0
10
7.753333
20
3.812435
30
-0.543332
11
7.753333
21
3.812435
31
-0.024101
12
7.753333
22
3.437435
32
-0.024101
13
7.753333
23
3.437435
33
-0.024101
0
3DFACE
8
0
10
7.753333
20
3.437435
30
-0.024101
11
7.753333
21
3.437435
31
-1.074101
12
7.753333
22
3.812435
32
-0.543332
13
7.753333
23
3.812435
33
-0.543332
0
3DFACE
8
0
10
8.012138
20
3.812435
30
-1.074101
11
8.011626
21
3.812435
31
-1.074101
12
7.753333
22
3.437435
32
-1.074101
13
7.753333
23
3.437435
33
-1.074101
0
3DFACE
8
0
10
8.011177
20
3.812435
30
-1.074101
11
8.009970
21
3.812435
31
-1.074101
12
7.753333
22
3.437435
32
-1.074101
13
7.753333
23
3.437435
33
-1.074101
0
3DFACE
8
0
10
8.009970
20
3.812435
30
-1.074101
11
8.008516
21
3.812435
31
-1.074101
12
7.753333
22
3.437435
32
-1.074101
13
7.753333
23
3.437435
33
-1.074101
0
3DFACE
8
0
10
8.008516
20
3.812435
30
-1.074101
11
8.007055
21
3.812435
31
-1.074101
12
7.753333
22
3.437435
32
-1.074101
13
7.753333
23
3.437435
33
-1.074101
0
3DFACE
8
0
10
8.007055
20
3.812435
30
-1.074101
11
8.005830
21
3.812435
31
-1.074101
12
7.753333
22
3.437435
32
-1.074101
13
7.753333
23
3.437435
33
-1.074101
0
3DFACE
8
0
10
8.005830
20
3.812435
30
-1.074101
11
7.896035
21
3.812435
31
-1.074101
12
7.753333
22
3.437435
32
-1.074101
13
7.753333
23
3.437435
33
-1.074101
0
3DFACE
8
0
10
7.896035
20
3.812435
30
-1.074101
11
7.888876
21
3.812435
31
-1.074101
12
7.753333
22
3.437435
32
-1.074101
13
7.753333
23
3.437435
33
-1.074101
0
3DFACE
8
0
10
7.888876
20
3.812435
30
-1.074101
11
7.880340
21
3.812435
31
-1.074101
12
7.753333
22
3.437435
32
-1.074101
13
7.753333
23
3.437435
33
-1.074101
0
3DFACE
8
0
10
7.880340
20
3.812435
30
-1.074101
11
7.871848
21
3.812435
31
-1.074101
12
7.753333
22
3.437435
32
-1.074101
13
7.753333
23
3.437435
33
-1.074101
0
3DFACE
8
0
10
8.011626
20
3.812435
30
-1.074101
11
8.011177
21
3.812435
31
-1.074101
12
7.753333
22
3.437435
32
-1.074101
13
7.753333
23
3.437435
33
-1.074101
0
3DFACE
8
0
10
8.046812
20
3.812435
30
-1.074101
11
8.012138
21
3.812435
31
-1.074101
12
7.753333
22
3.437435
32
-1.074101
13
7.753333
23
3.437435
33
-1.074101
0
3DFACE
8
0
10
8.108597
20
3.812435
30
-1.074101
11
8.046812
21
3.812435
31
-1.074101
12
7.753333
22
3.437435
32
-1.074101
13
7.753333
23
3.437435
33
-1.074101
0
3DFACE
8
0
10
8.598071
20
3.812435
30
-1.074101
11
8.108597
21
3.812435
31
-1.074101
12
7.753333
22
3.437435
32
-1.074101
13
7.753333
23
3.437435
33
-1.074101
0
3DFACE
8
0
10
7.753333
20
3.437435
30
-1.074101
11
8.953334
21
3.437435
31
-1.074101
12
8.598071
22
3.812435
32
-1.074101
13
8.598071
23
3.812435
33
-1.074101
0
3DFACE
8
0
10
8.953334
20
3.812435
30
-1.074101
11
8.598071
21
3.812435
31
-1.074101
12
8.953334
22
3.437435
32
-1.074101
13
8.953334
23
3.437435
33
-1.074101
0
3DFACE
8
0
10
7.871848
20
3.812435
30
-1.074101
11
7.753333
21
3.812435
31
-1.074101
12
7.753333
22
3.437435
32
-1.074101
13
7.753333
23
3.437435
33
-1.074101
0
3DFACE
8
0
10
8.953334
20
3.812435
30
-0.543332
11
8.953334
21
3.812435
31
-1.074101
12
8.953334
22
3.437435
32
-1.074101
13
8.953334
23
3.437435
33
-1.074101
0
3DFACE
8
0
10
8.953334
20
3.437435
30
-0.024101
11
8.953334
21
3.812435
31
-0.024101
12
8.953334
22
3.812435
32
-0.543332
13
8.953334
23
3.812435
33
-0.543332
0
3DFACE
8
0
10
8.953334
20
3.812435
30
-0.543332
11
8.953334
21
3.437435
31
-1.074101
12
8.953334
22
3.437435
32
-0.024101
13
8.953334
23
3.437435
33
-0.024101
0
3DFACE
8
0
10
8.233716
20
3.443685
30
-0.172554
11
8.176663
21
3.443685
31
-0.203049
12
7.753333
22
3.437435
32
-0.024101
13
7.753333
23
3.437435
33
-0.024101
0
3DFACE
8
0
10
7.753333
20
3.437435
30
-0.024101
11
8.295621
21
3.443685
31
-0.153775
12
8.233716
22
3.443685
32
-0.172554
13
8.233716
23
3.443685
33
-0.172554
0
3DFACE
8
0
10
7.753333
20
3.437435
30
-0.024101
11
8.360001
21
3.443685
31
-0.147435
12
8.295621
22
3.443685
32
-0.153775
13
8.295621
23
3.443685
33
-0.153775
0
3DFACE
8
0
10
7.753333
20
3.437435
30
-0.024101
11
8.953334
21
3.437435
31
-0.024101
12
8.424380
22
3.443685
32
-0.153776
13
8.424380
23
3.443685
33
-0.153776
0
3DFACE
8
0
10
8.424380
20
3.443685
30
-0.153776
11
8.360001
21
3.443685
31
-0.147435
12
7.753333
22
3.437435
32
-0.024101
13
7.753333
23
3.437435
33
-0.024101
0
3DFACE
8
0
10
8.176663
20
3.443685
30
-0.203049
11
8.126656
21
3.443685
31
-0.244089
12
7.753333
22
3.437435
32
-0.024101
13
7.753333
23
3.437435
33
-0.024101
0
3DFACE
8
0
10
8.953334
20
3.437435
30
-0.024101
11
8.486286
21
3.443685
31
-0.172554
12
8.424380
22
3.443685
32
-0.153776
13
8.424380
23
3.443685
33
-0.153776
0
3DFACE
8
0
10
8.953334
20
3.437435
30
-0.024101
11
8.543339
21
3.443685
31
-0.203050
12
8.486286
22
3.443685
32
-0.172554
13
8.486286
23
3.443685
33
-0.172554
0
3DFACE
8
0
10
8.953334
20
3.437435
30
-0.024101
11
8.593347
21
3.443685
31
-0.244089
12
8.543339
22
3.443685
32
-0.203050
13
8.543339
23
3.443685
33
-0.203050
0
3DFACE
8
0
10
8.953334
20
3.437435
30
-0.024101
11
8.634386
21
3.443685
31
-0.294096
12
8.593347
22
3.443685
32
-0.244089
13
8.593347
23
3.443685
33
-0.244089
0
3DFACE
8
0
10
8.953334
20
3.437435
30
-0.024101
11
8.664881
21
3.443685
31
-0.351149
12
8.634386
22
3.443685
32
-0.294096
13
8.634386
23
3.443685
33
-0.294096
0
3DFACE
8
0
10
8.953334
20
3.437435
30
-0.024101
11
8.683660
21
3.443685
31
-0.413055
12
8.664881
22
3.443685
32
-0.351149
13
8.664881
23
3.443685
33
-0.351149
0
3DFACE
8
0
10
8.953334
20
3.437435
30
-0.024101
11
8.690001
21
3.443685
31
-0.477435
12
8.683660
22
3.443685
32
-0.413055
13
8.683660
23
3.443685
33
-0.413055
0
3DFACE
8
0
10
8.953334
20
3.437435
30
-0.024101
11
8.683660
21
3.443685
31
-0.541814
12
8.690001
22
3.443685
32
-0.477435
13
8.690001
23
3.443685
33
-0.477435
0
3DFACE
8
0
10
8.953334
20
3.437435
30
-0.024101
11
8.664881
21
3.443685
31
-0.603720
12
8.683660
22
3.443685
32
-0.541814
13
8.683660
23
3.443685
33
-0.541814
0
3DFACE
8
0
10
8.953334
20
3.437435
30
-0.024101
11
8.953334
21
3.437435
31
-1.074101
12
8.634386
22
3.443685
32
-0.660773
13
8.634386
23
3.443685
33
-0.660773
0
3DFACE
8
0
10
8.634386
20
3.443685
30
-0.660773
11
8.664881
21
3.443685
31
-0.603720
12
8.953334
22
3.437435
32
-0.024101
13
8.953334
23
3.437435
33
-0.024101
0
3DFACE
8
0
10
8.126656
20
3.443685
30
-0.244089
11
8.085615
21
3.443685
31
-0.294096
12
7.753333
22
3.437435
32
-0.024101
13
7.753333
23
3.437435
33
-0.024101
0
3DFACE
8
0
10
8.953334
20
3.437435
30
-1.074101
11
8.593347
21
3.443685
31
-0.710780
12
8.634386
22
3.443685
32
-0.660773
13
8.634386
23
3.443685
33
-0.660773
0
3DFACE
8
0
10
8.953334
20
3.437435
30
-1.074101
11
8.543339
21
3.443685
31
-0.751820
12
8.593347
22
3.443685
32
-0.710780
13
8.593347
23
3.443685
33
-0.710780
0
3DFACE
8
0
10
8.953334
20
3.437435
30
-1.074101
11
8.486286
21
3.443685
31
-0.782315
12
8.543339
22
3.443685
32
-0.751820
13
8.543339
23
3.443685
33
-0.751820
0
3DFACE
8
0
10
8.953334
20
3.437435
30
-1.074101
11
8.424380
21
3.443685
31
-0.801094
12
8.486286
22
3.443685
32
-0.782315
13
8.486286
23
3.443685
33
-0.782315
0
3DFACE
8
0
10
8.953334
20
3.437435
30
-1.074101
11
8.360001
21
3.443685
31
-0.807435
12
8.424380
22
3.443685
32
-0.801094
13
8.424380
23
3.443685
33
-0.801094
0
3DFACE
8
0
10
8.953334
20
3.437435
30
-1.074101
11
8.295621
21
3.443685
31
-0.801094
12
8.360001
22
3.443685
32
-0.807435
13
8.360001
23
3.443685
33
-0.807435
0
3DFACE
8
0
10
8.953334
20
3.437435
30
-1.074101
11
7.753333
21
3.437435
31
-1.074101
12
8.233715
22
3.443685
32
-0.782315
13
8.233715
23
3.443685
33
-0.782315
0
3DFACE
8
0
10
8.233715
20
3.443685
30
-0.782315
11
8.295621
21
3.443685
31
-0.801094
12
8.953334
22
3.437435
32
-1.074101
13
8.953334
23
3.437435
33
-1.074101
0
3DFACE
8
0
10
8.085615
20
3.443685
30
-0.294096
11
8.055121
21
3.443685
31
-0.351149
12
7.753333
22
3.437435
32
-0.024101
13
7.753333
23
3.437435
33
-0.024101
0
3DFACE
8
0
10
7.753333
20
3.437435
30
-1.074101
11
8.176663
21
3.443685
31
-0.751820
12
8.233715
22
3.443685
32
-0.782315
13
8.233715
23
3.443685
33
-0.782315
0
3DFACE
8
0
10
7.753333
20
3.437435
30
-1.074101
11
8.126656
21
3.443685
31
-0.710780
12
8.176663
22
3.443685
32
-0.751820
13
8.176663
23
3.443685
33
-0.751820
0
3DFACE
8
0
10
7.753333
20
3.437435
30
-1.074101
11
8.085615
21
3.443685
31
-0.660773
12
8.126656
22
3.443685
32
-0.710780
13
8.126656
23
3.443685
33
-0.710780
0
3DFACE
8
0
10
7.753333
20
3.437435
30
-1.074101
11
8.055120
21
3.443685
31
-0.603720
12
8.085615
22
3.443685
32
-0.660773
13
8.085615
23
3.443685
33
-0.660773
0
3DFACE
8
0
10
7.753333
20
3.437435
30
-1.074101
11
8.036342
21
3.443685
31
-0.541814
12
8.055120
22
3.443685
32
-0.603720
13
8.055120
23
3.443685
33
-0.603720
0
3DFACE
8
0
10
8.055121
20
3.443685
30
-0.351149
11
8.036342
21
3.443685
31
-0.413054
12
7.753333
22
3.437435
32
-0.024101
13
7.753333
23
3.437435
33
-0.024101
0
3DFACE
8
0
10
7.753333
20
3.437435
30
-1.074101
11
7.753333
21
3.437435
31
-0.024101
12
8.030001
22
3.443685
32
-0.477434
13
8.030001
23
3.443685
33
-0.477434
0
3DFACE
8
0
10
8.030001
20
3.443685
30
-0.477434
11
8.036342
21
3.443685
31
-0.541814
12
7.753333
22
3.437435
32
-1.074101
13
7.753333
23
3.437435
33
-1.074101
0
3DFACE
8
0
10
8.036342
20
3.443685
30
-0.413054
11
8.030001
21
3.443685
31
-0.477434
12
7.753333
22
3.437435
32
-0.024101
13
7.753333
23
3.437435
33
-0.024101
0
3DFACE
8
0
10
8.424380
20
3.443685
30
-0.153776
11
8.424380
21
3.306185
31
-0.153775
12
8.360001
22
3.306185
32
-0.147435
13
8.360001
23
3.306185
33
-0.147435
0
3DFACE
8
0
10
8.360001
20
3.306185
30
-0.147435
11
8.360001
21
3.443685
31
-0.147435
12
8.424380
22
3.443685
32
-0.153776
13
8.424380
23
3.443685
33
-0.153776
0
3DFACE
8
0
10
8.486286
20
3.443685
30
-0.172554
11
8.486286
21
3.306185
31
-0.172554
12
8.424380
22
3.306185
32
-0.153775
13
8.424380
23
3.306185
33
-0.153775
0
3DFACE
8
0
10
8.424380
20
3.306185
30
-0.153775
11
8.424380
21
3.443685
31
-0.153776
12
8.486286
22
3.443685
32
-0.172554
13
8.486286
23
3.443685
33
-0.172554
0
3DFACE
8
0
10
8.543339
20
3.443685
30
-0.203050
11
8.543339
21
3.306185
31
-0.203050
12
8.486286
22
3.306185
32
-0.172554
13
8.486286
23
3.306185
33
-0.172554
0
3DFACE
8
0
10
8.486286
20
3.306185
30
-0.172554
11
8.486286
21
3.443685
31
-0.172554
12
8.543339
22
3.443685
32
-0.203050
13
8.543339
23
3.443685
33
-0.203050
0
3DFACE
8
0
10
8.593347
20
3.443685
30
-0.244089
11
8.593347
21
3.306185
31
-0.244089
12
8.543339
22
3.306185
32
-0.203050
13
8.543339
23
3.306185
33
-0.203050
0
3DFACE
8
0
10
8.543339
20
3.306185
30
-0.203050
11
8.543339
21
3.443685
31
-0.203050
12
8.593347
22
3.443685
32
-0.244089
13
8.593347
23
3.443685
33
-0.244089
0
3DFACE
8
0
10
8.593347
20
3.443685
30
-0.244089
11
8.634386
21
3.443685
31
-0.294096
12
8.634386
22
3.306185
32
-0.294096
13
8.634386
23
3.306185
33
-0.294096
0
3DFACE
8
0
10
8.634386
20
3.306185
30
-0.294096
11
8.593347
21
3.306185
31
-0.244089
12
8.593347
22
3.443685
32
-0.244089
13
8.593347
23
3.443685
33
-0.244089
0
3DFACE
8
0
10
8.634386
20
3.443685
30
-0.294096
11
8.664881
21
3.443685
31
-0.351149
12
8.664881
22
3.306185
32
-0.351149
13
8.664881
23
3.306185
33
-0.351149
0
3DFACE
8
0
10
8.664881
20
3.306185
30
-0.351149
11
8.634386
21
3.306185
31
-0.294096
12
8.634386
22
3.443685
32
-0.294096
13
8.634386
23
3.443685
33
-0.294096
0
3DFACE
8
0
10
8.664881
20
3.443685
30
-0.351149
11
8.683660
21
3.443685
31
-0.413055
12
8.683660
22
3.306185
32
-0.413055
13
8.683660
23
3.306185
33
-0.413055
0
3DFACE
8
0
10
8.683660
20
3.306185
30
-0.413055
11
8.664881
21
3.306185
31
-0.351149
12
8.664881
22
3.443685
32
-0.351149
13
8.664881
23
3.443685
33
-0.351149
0
3DFACE
8
0
10
8.683660
20
3.443685
30
-0.413055
11
8.690001
21
3.443685
31
-0.477435
12
8.690001
22
3.306185
32
-0.477435
13
8.690001
23
3.306185
33
-0.477435
0
3DFACE
8
0
10
8.690001
20
3.306185
30
-0.477435
11
8.683660
21
3.306185
31
-0.413055
12
8.683660
22
3.443685
32
-0.413055
13
8.683660
23
3.443685
33
-0.413055
0
3DFACE
8
0
10
8.690001
20
3.443685
30
-0.477435
11
8.683660
21
3.443685
31
-0.541814
12
8.683660
22
3.306185
32
-0.541814
13
8.683660
23
3.306185
33
-0.541814
0
3DFACE
8
0
10
8.683660
20
3.306185
30
-0.541814
11
8.690001
21
3.306185
31
-0.477435
12
8.690001
22
3.443685
32
-0.477435
13
8.690001
23
3.443685
33
-0.477435
0
3DFACE
8
0
10
8.664881
20
3.443685
30
-0.603720
11
8.664881
21
3.306185
31
-0.603720
12
8.683660
22
3.306185
32
-0.541814
13
8.683660
23
3.306185
33
-0.541814
0
3DFACE
8
0
10
8.683660
20
3.306185
30
-0.541814
11
8.683660
21
3.443685
31
-0.541814
12
8.664881
22
3.443685
32
-0.603720
13
8.664881
23
3.443685
33
-0.603720
0
3DFACE
8
0
10
8.664881
20
3.443685
30
-0.603720
11
8.634386
21
3.443685
31
-0.660773
12
8.634386
22
3.306185
32
-0.660773
13
8.634386
23
3.306185
33
-0.660773
0
3DFACE
8
0
10
8.634386
20
3.306185
30
-0.660773
11
8.664881
21
3.306185
31
-0.603720
12
8.664881
22
3.443685
32
-0.603720
13
8.664881
23
3.443685
33
-0.603720
0
3DFACE
8
0
10
8.634386
20
3.443685
30
-0.660773
11
8.593347
21
3.443685
31
-0.710780
12
8.593347
22
3.306185
32
-0.710780
13
8.593347
23
3.306185
33
-0.710780
0
3DFACE
8
0
10
8.593347
20
3.306185
30
-0.710780
11
8.634386
21
3.306185
31
-0.660773
12
8.634386
22
3.443685
32
-0.660773
13
8.634386
23
3.443685
33
-0.660773
0
3DFACE
8
0
10
8.543339
20
3.443685
30
-0.751820
11
8.543339
21
3.306185
31
-0.751820
12
8.593347
22
3.306185
32
-0.710780
13
8.593347
23
3.306185
33
-0.710780
0
3DFACE
8
0
10
8.593347
20
3.306185
30
-0.710780
11
8.593347
21
3.443685
31
-0.710780
12
8.543339
22
3.443685
32
-0.751820
13
8.543339
23
3.443685
33
-0.751820
0
3DFACE
8
0
10
8.486286
20
3.443685
30
-0.782315
11
8.486286
21
3.306185
31
-0.782315
12
8.543339
22
3.306185
32
-0.751820
13
8.543339
23
3.306185
33
-0.751820
0
3DFACE
8
0
10
8.543339
20
3.306185
30
-0.751820
11
8.543339
21
3.443685
31
-0.751820
12
8.486286
22
3.443685
32
-0.782315
13
8.486286
23
3.443685
33
-0.782315
0
3DFACE
8
0
10
8.424380
20
3.443685
30
-0.801094
11
8.424380
21
3.306185
31
-0.801094
12
8.486286
22
3.306185
32
-0.782315
13
8.486286
23
3.306185
33
-0.782315
0
3DFACE
8
0
10
8.486286
20
3.306185
30
-0.782315
11
8.486286
21
3.443685
31
-0.782315
12
8.424380
22
3.443685
32
-0.801094
13
8.424380
23
3.443685
33
-0.801094
0
3DFACE
8
0
10
8.360001
20
3.443685
30
-0.807435
11
8.360001
21
3.306185
31
-0.807435
12
8.424380
22
3.306185
32
-0.801094
13
8.424380
23
3.306185
33
-0.801094
0
3DFACE
8
0
10
8.424380
20
3.306185
30
-0.801094
11
8.424380
21
3.443685
31
-0.801094
12
8.360001
22
3.443685
32
-0.807435
13
8.360001
23
3.443685
33
-0.807435
0
3DFACE
8
0
10
8.295621
20
3.443685
30
-0.801094
11
8.295621
21
3.306185
31
-0.801094
12
8.360001
22
3.306185
32
-0.807435
13
8.360001
23
3.306185
33
-0.807435
0
3DFACE
8
0
10
8.360001
20
3.306185
30
-0.807435
11
8.360001
21
3.443685
31
-0.807435
12
8.295621
22
3.443685
32
-0.801094
13
8.295621
23
3.443685
33
-0.801094
0
3DFACE
8
0
10
8.233715
20
3.443685
30
-0.782315
11
8.233715
21
3.306185
31
-0.782315
12
8.295621
22
3.306185
32
-0.801094
13
8.295621
23
3.306185
33
-0.801094
0
3DFACE
8
0
10
8.295621
20
3.306185
30
-0.801094
11
8.295621
21
3.443685
31
-0.801094
12
8.233715
22
3.443685
32
-0.782315
13
8.233715
23
3.443685
33
-0.782315
0
3DFACE
8
0
10
8.176663
20
3.443685
30
-0.751820
11
8.176663
21
3.306185
31
-0.751819
12
8.233715
22
3.306185
32
-0.782315
13
8.233715
23
3.306185
33
-0.782315
0
3DFACE
8
0
10
8.233715
20
3.306185
30
-0.782315
11
8.233715
21
3.443685
31
-0.782315
12
8.176663
22
3.443685
32
-0.751820
13
8.176663
23
3.443685
33
-0.751820
0
3DFACE
8
0
10
8.126656
20
3.443685
30
-0.710780
11
8.126656
21
3.306185
31
-0.710780
12
8.176663
22
3.306185
32
-0.751819
13
8.176663
23
3.306185
33
-0.751819
0
3DFACE
8
0
10
8.176663
20
3.306185
30
-0.751819
11
8.176663
21
3.443685
31
-0.751820
12
8.126656
22
3.443685
32
-0.710780
13
8.126656
23
3.443685
33
-0.710780
0
3DFACE
8
0
10
8.085615
20
3.443685
30
-0.660773
11
8.085615
21
3.306185
31
-0.660773
12
8.126656
22
3.306185
32
-0.710780
13
8.126656
23
3.306185
33
-0.710780
0
3DFACE
8
0
10
8.126656
20
3.306185
30
-0.710780
11
8.126656
21
3.443685
31
-0.710780
12
8.085615
22
3.443685
32
-0.660773
13
8.085615
23
3.443685
33
-0.660773
0
3DFACE
8
0
10
8.055120
20
3.443685
30
-0.603720
11
8.055120
21
3.306185
31
-0.603720
12
8.085615
22
3.306185
32
-0.660773
13
8.085615
23
3.306185
33
-0.660773
0
3DFACE
8
0
10
8.085615
20
3.306185
30
-0.660773
11
8.085615
21
3.443685
31
-0.660773
12
8.055120
22
3.443685
32
-0.603720
13
8.055120
23
3.443685
33
-0.603720
0
3DFACE
8
0
10
8.036342
20
3.443685
30
-0.541814
11
8.036342
21
3.306185
31
-0.541814
12
8.055120
22
3.306185
32
-0.603720
13
8.055120
23
3.306185
33
-0.603720
0
3DFACE
8
0
10
8.055120
20
3.306185
30
-0.603720
11
8.055120
21
3.443685
31
-0.603720
12
8.036342
22
3.443685
32
-0.541814
13
8.036342
23
3.443685
33
-0.541814
0
3DFACE
8
0
10
8.030001
20
3.443685
30
-0.477434
11
8.030001
21
3.306185
31
-0.477434
12
8.036342
22
3.306185
32
-0.541814
13
8.036342
23
3.306185
33
-0.541814
0
3DFACE
8
0
10
8.036342
20
3.306185
30
-0.541814
11
8.036342
21
3.443685
31
-0.541814
12
8.030001
22
3.443685
32
-0.477434
13
8.030001
23
3.443685
33
-0.477434
0
3DFACE
8
0
10
8.036342
20
3.443685
30
-0.413054
11
8.036342
21
3.306185
31
-0.413054
12
8.030001
22
3.306185
32
-0.477434
13
8.030001
23
3.306185
33
-0.477434
0
3DFACE
8
0
10
8.030001
20
3.306185
30
-0.477434
11
8.030001
21
3.443685
31
-0.477434
12
8.036342
22
3.443685
32
-0.413054
13
8.036342
23
3.443685
33
-0.413054
0
3DFACE
8
0
10
8.055121
20
3.443685
30
-0.351149
11
8.055121
21
3.306185
31
-0.351149
12
8.036342
22
3.306185
32
-0.413054
13
8.036342
23
3.306185
33
-0.413054
0
3DFACE
8
0
10
8.036342
20
3.306185
30
-0.413054
11
8.036342
21
3.443685
31
-0.413054
12
8.055121
22
3.443685
32
-0.351149
13
8.055121
23
3.443685
33
-0.351149
0
3DFACE
8
0
10
8.085615
20
3.443685
30
-0.294096
11
8.085615
21
3.306185
31
-0.294096
12
8.055121
22
3.306185
32
-0.351149
13
8.055121
23
3.306185
33
-0.351149
0
3DFACE
8
0
10
8.055121
20
3.306185
30
-0.351149
11
8.055121
21
3.443685
31
-0.351149
12
8.085615
22
3.443685
32
-0.294096
13
8.085615
23
3.443685
33
-0.294096
0
3DFACE
8
0
10
8.126656
20
3.443685
30
-0.244089
11
8.126656
21
3.306185
31
-0.244089
12
8.085615
22
3.306185
32
-0.294096
13
8.085615
23
3.306185
33
-0.294096
0
3DFACE
8
0
10
8.085615
20
3.306185
30
-0.294096
11
8.085615
21
3.443685
31
-0.294096
12
8.126656
22
3.443685
32
-0.244089
13
8.126656
23
3.443685
33
-0.244089
0
3DFACE
8
0
10
8.176663
20
3.443685
30
-0.203049
11
8.176663
21
3.306185
31
-0.203049
12
8.126656
22
3.306185
32
-0.244089
13
8.126656
23
3.306185
33
-0.244089
0
3DFACE
8
0
10
8.126656
20
3.306185
30
-0.244089
11
8.126656
21
3.443685
31
-0.244089
12
8.176663
22
3.443685
32
-0.203049
13
8.176663
23
3.443685
33
-0.203049
0
3DFACE
8
0
10
8.233716
20
3.443685
30
-0.172554
11
8.233716
21
3.306185
31
-0.172554
12
8.176663
22
3.306185
32
-0.203049
13
8.176663
23
3.306185
33
-0.203049
0
3DFACE
8
0
10
8.176663
20
3.306185
30
-0.203049
11
8.176663
21
3.443685
31
-0.203049
12
8.233716
22
3.443685
32
-0.172554
13
8.233716
23
3.443685
33
-0.172554
0
3DFACE
8
0
10
8.295621
20
3.306185
30
-0.153775
11
8.295621
21
3.443685
31
-0.153775
12
8.360001
22
3.443685
32
-0.147435
13
8.360001
23
3.443685
33
-0.147435
0
3DFACE
8
0
10
8.360001
20
3.443685
30
-0.147435
11
8.360001
21
3.306185
31
-0.147435
12
8.295621
22
3.306185
32
-0.153775
13
8.295621
23
3.306185
33
-0.153775
0
3DFACE
8
0
10
8.295621
20
3.443685
30
-0.153775
11
8.295621
21
3.306185
31
-0.153775
12
8.233716
22
3.306185
32
-0.172554
13
8.233716
23
3.306185
33
-0.172554
0
3DFACE
8
0
10
8.233716
20
3.306185
30
-0.172554
11
8.233716
21
3.443685
31
-0.172554
12
8.295621
22
3.443685
32
-0.153775
13
8.295621
23
3.443685
33
-0.153775
0
ENDSEC
0
EOF
