0
SECTION
2
ENTITIES
0
3DFACE
8
0
10
8.360001
20
3.385435
30
-0.177435
11
8.360001
21
2.899435
31
-0.177435
12
8.418528
22
2.899435
32
-0.183199
13
8.418528
23
2.899435
33
-0.183199
0
3DFACE
8
0
10
8.418528
20
2.899435
30
-0.183199
11
8.418528
21
3.385435
31
-0.183199
12
8.360001
22
3.385435
32
-0.177435
13
8.360001
23
3.385435
33
-0.177435
0
3DFACE
8
0
10
8.418528
20
3.385435
30
-0.183199
11
8.418528
21
2.899435
31
-0.183199
12
8.474806
22
2.899435
32
-0.200271
13
8.474806
23
2.899435
33
-0.200271
0
3DFACE
8
0
10
8.474806
20
2.899435
30
-0.200271
11
8.474806
21
3.385435
31
-0.200271
12
8.418528
22
3.385435
32
-0.183199
13
8.418528
23
3.385435
33
-0.183199
0
3DFACE
8
0
10
8.474806
20
3.385435
30
-0.200271
11
8.474806
21
2.899435
31
-0.200271
12
8.526671
22
2.899435
32
-0.227994
13
8.526671
23
2.899435
33
-0.227994
0
3DFACE
8
0
10
8.526671
20
2.899435
30
-0.227994
11
8.526671
21
3.385435
31
-0.227994
12
8.474806
22
3.385435
32
-0.200271
13
8.474806
23
3.385435
33
-0.200271
0
3DFACE
8
0
10
8.526671
20
3.385435
30
-0.227994
11
8.526671
21
2.899435
31
-0.227994
12
8.572132
22
2.899435
32
-0.265303
13
8.572132
23
2.899435
33
-0.265303
0
3DFACE
8
0
10
8.572132
20
2.899435
30
-0.265303
11
8.572132
21
3.385435
31
-0.265303
12
8.526671
22
3.385435
32
-0.227994
13
8.526671
23
3.385435
33
-0.227994
0
3DFACE
8
0
10
8.572132
20
3.385435
30
-0.265303
11
8.572132
21
2.899435
31
-0.265303
12
8.609442
22
2.899435
32
-0.310764
13
8.609442
23
2.899435
33
-0.310764
0
3DFACE
8
0
10
8.609442
20
2.899435
30
-0.310764
11
8.609442
21
3.385435
31
-0.310764
12
8.572132
22
3.385435
32
-0.265303
13
8.572132
23
3.385435
33
-0.265303
0
3DFACE
8
0
10
8.609442
20
3.385435
30
-0.310764
11
8.609442
21
2.899435
31
-0.310764
12
8.637164
22
2.899435
32
-0.362630
13
8.637164
23
2.899435
33
-0.362630
0
3DFACE
8
0
10
8.637164
20
2.899435
30
-0.362630
11
8.637164
21
3.385435
31
-0.362630
12
8.609442
22
3.385435
32
-0.310764
13
8.609442
23
3.385435
33
-0.310764
0
3DFACE
8
0
10
8.637164
20
3.385435
30
-0.362630
11
8.637164
21
2.899435
31
-0.362630
12
8.654236
22
2.899435
32
-0.418907
13
8.654236
23
2.899435
33
-0.418907
0
3DFACE
8
0
10
8.654236
20
2.899435
30
-0.418907
11
8.654236
21
3.385435
31
-0.418907
12
8.637164
22
3.385435
32
-0.362630
13
8.637164
23
3.385435
33
-0.362630
0
3DFACE
8
0
10
8.654236
20
3.385435
30
-0.418907
11
8.654236
21
2.899435
31
-0.418907
12
8.660000
22
2.899435
32
-0.477435
13
8.660000
23
2.899435
33
-0.477435
0
3DFACE
8
0
10
8.660000
20
2.899435
30
-0.477435
11
8.660000
21
3.385435
31
-0.477435
12
8.654236
22
3.385435
32
-0.418907
13
8.654236
23
3.385435
33
-0.418907
0
3DFACE
8
0
10
8.660000
20
3.385435
30
-0.477435
11
8.660000
21
2.899435
31
-0.477435
12
8.654236
22
2.899435
32
-0.535962
13
8.654236
23
2.899435
33
-0.535962
0
3DFACE
8
0
10
8.654236
20
2.899435
30
-0.535962
11
8.654236
21
3.385435
31
-0.535962
12
8.660000
22
3.385435
32
-0.477435
13
8.660000
23
3.385435
33
-0.477435
0
3DFACE
8
0
10
8.654236
20
3.385435
30
-0.535962
11
8.654236
21
2.899435
31
-0.535962
12
8.637164
22
2.899435
32
-0.592240
13
8.637164
23
2.899435
33
-0.592240
0
3DFACE
8
0
10
8.637164
20
2.899435
30
-0.592240
11
8.637164
21
3.385435
31
-0.592240
12
8.654236
22
3.385435
32
-0.535962
13
8.654236
23
3.385435
33
-0.535962
0
3DFACE
8
0
10
8.637164
20
3.385435
30
-0.592240
11
8.637164
21
2.899435
31
-0.592240
12
8.609442
22
2.899435
32
-0.644106
13
8.609442
23
2.899435
33
-0.644106
0
3DFACE
8
0
10
8.609442
20
2.899435
30
-0.644106
11
8.609442
21
3.385435
31
-0.644106
12
8.637164
22
3.385435
32
-0.592240
13
8.637164
23
3.385435
33
-0.592240
0
3DFACE
8
0
10
8.609442
20
3.385435
30
-0.644106
11
8.609442
21
2.899435
31
-0.644106
12
8.572132
22
2.899435
32
-0.689567
13
8.572132
23
2.899435
33
-0.689567
0
3DFACE
8
0
10
8.572132
20
2.899435
30
-0.689567
11
8.572132
21
3.385435
31
-0.689567
12
8.609442
22
3.385435
32
-0.644106
13
8.609442
23
3.385435
33
-0.644106
0
3DFACE
8
0
10
8.572132
20
3.385435
30
-0.689567
11
8.572132
21
2.899435
31
-0.689567
12
8.526671
22
2.899435
32
-0.726875
13
8.526671
23
2.899435
33
-0.726875
0
3DFACE
8
0
10
8.526671
20
2.899435
30
-0.726875
11
8.526671
21
3.385435
31
-0.726876
12
8.572132
22
3.385435
32
-0.689567
13
8.572132
23
3.385435
33
-0.689567
0
3DFACE
8
0
10
8.526671
20
3.385435
30
-0.726876
11
8.526671
21
2.899435
31
-0.726875
12
8.474806
22
2.899435
32
-0.754598
13
8.474806
23
2.899435
33
-0.754598
0
3DFACE
8
0
10
8.474806
20
2.899435
30
-0.754598
11
8.474806
21
3.385435
31
-0.754598
12
8.526671
22
3.385435
32
-0.726876
13
8.526671
23
3.385435
33
-0.726876
0
3DFACE
8
0
10
8.474806
20
3.385435
30
-0.754598
11
8.474806
21
2.899435
31
-0.754598
12
8.418528
22
2.899435
32
-0.771670
13
8.418528
23
2.899435
33
-0.771670
0
3DFACE
8
0
10
8.418528
20
2.899435
30
-0.771670
11
8.418528
21
3.385435
31
-0.771670
12
8.474806
22
3.385435
32
-0.754598
13
8.474806
23
3.385435
33
-0.754598
0
3DFACE
8
0
10
8.418528
20
3.385435
30
-0.771670
11
8.418528
21
2.899435
31
-0.771670
12
8.360001
22
2.899435
32
-0.777435
13
8.360001
23
2.899435
33
-0.777435
0
3DFACE
8
0
10
8.360001
20
2.899435
30
-0.777435
11
8.360001
21
3.385435
31
-0.777435
12
8.418528
22
3.385435
32
-0.771670
13
8.418528
23
3.385435
33
-0.771670
0
3DFACE
8
0
10
8.360001
20
3.385435
30
-0.777435
11
8.360001
21
2.899435
31
-0.777435
12
8.301474
22
2.899435
32
-0.771670
13
8.301474
23
2.899435
33
-0.771670
0
3DFACE
8
0
10
8.301474
20
2.899435
30
-0.771670
11
8.301474
21
3.385435
31
-0.771670
12
8.360001
22
3.385435
32
-0.777435
13
8.360001
23
3.385435
33
-0.777435
0
3DFACE
8
0
10
8.301474
20
3.385435
30
-0.771670
11
8.301474
21
2.899435
31
-0.771670
12
8.245195
22
2.899435
32
-0.754598
13
8.245195
23
2.899435
33
-0.754598
0
3DFACE
8
0
10
8.245195
20
2.899435
30
-0.754598
11
8.245195
21
3.385435
31
-0.754598
12
8.301474
22
3.385435
32
-0.771670
13
8.301474
23
3.385435
33
-0.771670
0
3DFACE
8
0
10
8.245195
20
3.385435
30
-0.754598
11
8.245195
21
2.899435
31
-0.754598
12
8.193329
22
2.899435
32
-0.726875
13
8.193329
23
2.899435
33
-0.726875
0
3DFACE
8
0
10
8.193329
20
2.899435
30
-0.726875
11
8.193329
21
3.385435
31
-0.726875
12
8.245195
22
3.385435
32
-0.754598
13
8.245195
23
3.385435
33
-0.754598
0
3DFACE
8
0
10
8.193329
20
3.385435
30
-0.726875
11
8.193329
21
2.899435
31
-0.726875
12
8.147868
22
2.899435
32
-0.689566
13
8.147868
23
2.899435
33
-0.689566
0
3DFACE
8
0
10
8.147868
20
2.899435
30
-0.689566
11
8.147868
21
3.385435
31
-0.689566
12
8.193329
22
3.385435
32
-0.726875
13
8.193329
23
3.385435
33
-0.726875
0
3DFACE
8
0
10
8.147868
20
3.385435
30
-0.689566
11
8.147868
21
2.899435
31
-0.689566
12
8.110559
22
2.899435
32
-0.644105
13
8.110559
23
2.899435
33
-0.644105
0
3DFACE
8
0
10
8.110559
20
2.899435
30
-0.644105
11
8.110559
21
3.385435
31
-0.644106
12
8.147868
22
3.385435
32
-0.689566
13
8.147868
23
3.385435
33
-0.689566
0
3DFACE
8
0
10
8.110559
20
3.385435
30
-0.644106
11
8.110559
21
2.899435
31
-0.644105
12
8.082836
22
2.899435
32
-0.592239
13
8.082836
23
2.899435
33
-0.592239
0
3DFACE
8
0
10
8.082836
20
2.899435
30
-0.592239
11
8.082836
21
3.385435
31
-0.592239
12
8.110559
22
3.385435
32
-0.644106
13
8.110559
23
3.385435
33
-0.644106
0
3DFACE
8
0
10
8.082836
20
3.385435
30
-0.592239
11
8.082836
21
2.899435
31
-0.592239
12
8.065764
22
2.899435
32
-0.535961
13
8.065764
23
2.899435
33
-0.535961
0
3DFACE
8
0
10
8.065764
20
2.899435
30
-0.535961
11
8.065764
21
3.385435
31
-0.535961
12
8.082836
22
3.385435
32
-0.592239
13
8.082836
23
3.385435
33
-0.592239
0
3DFACE
8
0
10
8.065764
20
3.385435
30
-0.535961
11
8.065764
21
2.899435
31
-0.535961
12
8.060000
22
2.899435
32
-0.477434
13
8.060000
23
2.899435
33
-0.477434
0
3DFACE
8
0
10
8.060000
20
2.899435
30
-0.477434
11
8.060000
21
3.385435
31
-0.477434
12
8.065764
22
3.385435
32
-0.535961
13
8.065764
23
3.385435
33
-0.535961
0
3DFACE
8
0
10
8.060000
20
3.385435
30
-0.477434
11
8.060000
21
2.899435
31
-0.477434
12
8.065764
22
2.899435
32
-0.418907
13
8.065764
23
2.899435
33
-0.418907
0
3DFACE
8
0
10
8.065764
20
2.899435
30
-0.418907
11
8.065764
21
3.385435
31
-0.418907
12
8.060000
22
3.385435
32
-0.477434
13
8.060000
23
3.385435
33
-0.477434
0
3DFACE
8
0
10
8.065764
20
3.385435
30
-0.418907
11
8.065764
21
2.899435
31
-0.418907
12
8.082836
22
2.899435
32
-0.362629
13
8.082836
23
2.899435
33
-0.362629
0
3DFACE
8
0
10
8.082836
20
2.899435
30
-0.362629
11
8.082836
21
3.385435
31
-0.362629
12
8.065764
22
3.385435
32
-0.418907
13
8.065764
23
3.385435
33
-0.418907
0
3DFACE
8
0
10
8.082836
20
3.385435
30
-0.362629
11
8.082836
21
2.899435
31
-0.362629
12
8.110559
22
2.899435
32
-0.310763
13
8.110559
23
2.899435
33
-0.310763
0
3DFACE
8
0
10
8.110559
20
2.899435
30
-0.310763
11
8.110559
21
3.385435
31
-0.310763
12
8.082836
22
3.385435
32
-0.362629
13
8.082836
23
3.385435
33
-0.362629
0
3DFACE
8
0
10
8.110559
20
3.385435
30
-0.310763
11
8.110559
21
2.899435
31
-0.310763
12
8.147869
22
2.899435
32
-0.265302
13
8.147869
23
2.899435
33
-0.265302
0
3DFACE
8
0
10
8.147869
20
2.899435
30
-0.265302
11
8.147869
21
3.385435
31
-0.265302
12
8.110559
22
3.385435
32
-0.310763
13
8.110559
23
3.385435
33
-0.310763
0
3DFACE
8
0
10
8.147869
20
3.385435
30
-0.265302
11
8.147869
21
2.899435
31
-0.265302
12
8.193330
22
2.899435
32
-0.227993
13
8.193330
23
2.899435
33
-0.227993
0
3DFACE
8
0
10
8.193330
20
2.899435
30
-0.227993
11
8.193330
21
3.385435
31
-0.227994
12
8.147869
22
3.385435
32
-0.265302
13
8.147869
23
3.385435
33
-0.265302
0
3DFACE
8
0
10
8.193330
20
3.385435
30
-0.227994
11
8.193330
21
2.899435
31
-0.227993
12
8.245195
22
2.899435
32
-0.200271
13
8.245195
23
2.899435
33
-0.200271
0
3DFACE
8
0
10
8.245195
20
2.899435
30
-0.200271
11
8.245195
21
3.385435
31
-0.200271
12
8.193330
22
3.385435
32
-0.227994
13
8.193330
23
3.385435
33
-0.227994
0
3DFACE
8
0
10
8.301474
20
2.899435
30
-0.771670
11
8.360001
21
2.899435
31
-0.777435
12
8.418528
22
2.899435
32
-0.771670
13
8.418528
23
2.899435
33
-0.771670
0
3DFACE
8
0
10
8.301474
20
2.899435
30
-0.771670
11
8.418528
21
2.899435
31
-0.771670
12
8.474806
22
2.899435
32
-0.754598
13
8.474806
23
2.899435
33
-0.754598
0
3DFACE
8
0
10
8.245195
20
2.899435
30
-0.754598
11
8.301474
21
2.899435
31
-0.771670
12
8.474806
22
2.899435
32
-0.754598
13
8.474806
23
2.899435
33
-0.754598
0
3DFACE
8
0
10
8.245195
20
2.899435
30
-0.754598
11
8.474806
21
2.899435
31
-0.754598
12
8.526671
22
2.899435
32
-0.726875
13
8.526671
23
2.899435
33
-0.726875
0
3DFACE
8
0
10
8.193329
20
2.899435
30
-0.726875
11
8.245195
21
2.899435
31
-0.754598
12
8.526671
22
2.899435
32
-0.726875
13
8.526671
23
2.899435
33
-0.726875
0
3DFACE
8
0
10
8.193329
20
2.899435
30
-0.726875
11
8.526671
21
2.899435
31
-0.726875
12
8.572132
22
2.899435
32
-0.689567
13
8.572132
23
2.899435
33
-0.689567
0
3DFACE
8
0
10
8.147868
20
2.899435
30
-0.689566
11
8.193329
21
2.899435
31
-0.726875
12
8.572132
22
2.899435
32
-0.689567
13
8.572132
23
2.899435
33
-0.689567
0
3DFACE
8
0
10
8.147868
20
2.899435
30
-0.689566
11
8.572132
21
2.899435
31
-0.689567
12
8.609442
22
2.899435
32
-0.644106
13
8.609442
23
2.899435
33
-0.644106
0
3DFACE
8
0
10
8.110559
20
2.899435
30
-0.644105
11
8.147868
21
2.899435
31
-0.689566
12
8.609442
22
2.899435
32
-0.644106
13
8.609442
23
2.899435
33
-0.644106
0
3DFACE
8
0
10
8.110559
20
2.899435
30
-0.644105
11
8.609442
21
2.899435
31
-0.644106
12
8.637164
22
2.899435
32
-0.592240
13
8.637164
23
2.899435
33
-0.592240
0
3DFACE
8
0
10
8.082836
20
2.899435
30
-0.592239
11
8.110559
21
2.899435
31
-0.644105
12
8.637164
22
2.899435
32
-0.592240
13
8.637164
23
2.899435
33
-0.592240
0
3DFACE
8
0
10
8.082836
20
2.899435
30
-0.592239
11
8.637164
21
2.899435
31
-0.592240
12
8.654236
22
2.899435
32
-0.535962
13
8.654236
23
2.899435
33
-0.535962
0
3DFACE
8
0
10
8.065764
20
2.899435
30
-0.535961
11
8.082836
21
2.899435
31
-0.592239
12
8.654236
22
2.899435
32
-0.535962
13
8.654236
23
2.899435
33
-0.535962
0
3DFACE
8
0
10
8.065764
20
2.899435
30
-0.535961
11
8.654236
21
2.899435
31
-0.535962
12
8.660000
22
2.899435
32
-0.477435
13
8.660000
23
2.899435
33
-0.477435
0
3DFACE
8
0
10
8.060000
20
2.899435
30
-0.477434
11
8.065764
21
2.899435
31
-0.535961
12
8.660000
22
2.899435
32
-0.477435
13
8.660000
23
2.899435
33
-0.477435
0
3DFACE
8
0
10
8.060000
20
2.899435
30
-0.477434
11
8.660000
21
2.899435
31
-0.477435
12
8.654236
22
2.899435
32
-0.418907
13
8.654236
23
2.899435
33
-0.418907
0
3DFACE
8
0
10
8.065764
20
2.899435
30
-0.418907
11
8.060000
21
2.899435
31
-0.477434
12
8.654236
22
2.899435
32
-0.418907
13
8.654236
23
2.899435
33
-0.418907
0
3DFACE
8
0
10
8.065764
20
2.899435
30
-0.418907
11
8.654236
21
2.899435
31
-0.418907
12
8.637164
22
2.899435
32
-0.362630
13
8.637164
23
2.899435
33
-0.362630
0
3DFACE
8
0
10
8.082836
20
2.899435
30
-0.362629
11
8.065764
21
2.899435
31
-0.418907
12
8.637164
22
2.899435
32
-0.362630
13
8.637164
23
2.899435
33
-0.362630
0
3DFACE
8
0
10
8.082836
20
2.899435
30
-0.362629
11
8.637164
21
2.899435
31
-0.362630
12
8.609442
22
2.899435
32
-0.310764
13
8.609442
23
2.899435
33
-0.310764
0
3DFACE
8
0
10
8.110559
20
2.899435
30
-0.310763
11
8.082836
21
2.899435
31
-0.362629
12
8.609442
22
2.899435
32
-0.310764
13
8.609442
23
2.899435
33
-0.310764
0
3DFACE
8
0
10
8.110559
20
2.899435
30
-0.310763
11
8.609442
21
2.899435
31
-0.310764
12
8.572132
22
2.899435
32
-0.265303
13
8.572132
23
2.899435
33
-0.265303
0
3DFACE
8
0
10
8.147869
20
2.899435
30
-0.265302
11
8.110559
21
2.899435
31
-0.310763
12
8.572132
22
2.899435
32
-0.265303
13
8.572132
23
2.899435
33
-0.265303
0
3DFACE
8
0
10
8.147869
20
2.899435
30
-0.265302
11
8.572132
21
2.899435
31
-0.265303
12
8.526671
22
2.899435
32
-0.227994
13
8.526671
23
2.899435
33
-0.227994
0
3DFACE
8
0
10
8.193330
20
2.899435
30
-0.227993
11
8.147869
21
2.899435
31
-0.265302
12
8.526671
22
2.899435
32
-0.227994
13
8.526671
23
2.899435
33
-0.227994
0
3DFACE
8
0
10
8.193330
20
2.899435
30
-0.227993
11
8.526671
21
2.899435
31
-0.227994
12
8.474806
22
2.899435
32
-0.200271
13
8.474806
23
2.899435
33
-0.200271
0
3DFACE
8
0
10
8.245195
20
2.899435
30
-0.200271
11
8.193330
21
2.899435
31
-0.227993
12
8.474806
22
2.899435
32
-0.200271
13
8.474806
23
2.899435
33
-0.200271
0
3DFACE
8
0
10
8.418528
20
2.899435
30
-0.183199
11
8.245195
21
2.899435
31
-0.200271
12
8.474806
22
2.899435
32
-0.200271
13
8.474806
23
2.899435
33
-0.200271
0
3DFACE
8
0
10
8.418528
20
2.899435
30
-0.183199
11
8.301474
21
2.899435
31
-0.183199
12
8.245195
22
2.899435
32
-0.200271
13
8.245195
23
2.899435
33
-0.200271
0
3DFACE
8
0
10
8.418528
20
2.899435
30
-0.183199
11
8.360001
21
2.899435
31
-0.177435
12
8.301474
22
2.899435
32
-0.183199
13
8.301474
23
2.899435
33
-0.183199
0
3DFACE
8
0
10
8.360001
20
2.899435
30
-0.177435
11
8.360001
21
3.385435
31
-0.177435
12
8.301474
22
3.385435
32
-0.183199
13
8.301474
23
3.385435
33
-0.183199
0
3DFACE
8
0
10
8.301474
20
3.385435
30
-0.183199
11
8.301474
21
2.899435
31
-0.183199
12
8.360001
22
2.899435
32
-0.177435
13
8.360001
23
2.899435
33
-0.177435
0
3DFACE
8
0
10
8.245195
20
3.385435
30
-0.200271
11
8.245195
21
2.899435
31
-0.200271
12
8.301474
22
2.899435
32
-0.183199
13
8.301474
23
2.899435
33
-0.183199
0
3DFACE
8
0
10
8.301474
20
2.899435
30
-0.183199
11
8.301474
21
3.385435
31
-0.183199
12
8.245195
22
3.385435
32
-0.200271
13
8.245195
23
3.385435
33
-0.200271
0
3DFACE
8
0
10
8.418528
20
3.385435
30
-0.771670
11
8.360001
21
3.385435
31
-0.777435
12
8.301474
22
3.385435
32
-0.771670
13
8.301474
23
3.385435
33
-0.771670
0
3DFACE
8
0
10
8.474806
20
3.385435
30
-0.754598
11
8.418528
21
3.385435
31
-0.771670
12
8.301474
22
3.385435
32
-0.771670
13
8.301474
23
3.385435
33
-0.771670
0
3DFACE
8
0
10
8.474806
20
3.385435
30
-0.754598
11
8.301474
21
3.385435
31
-0.771670
12
8.245195
22
3.385435
32
-0.754598
13
8.245195
23
3.385435
33
-0.754598
0
3DFACE
8
0
10
8.526671
20
3.385435
30
-0.726876
11
8.474806
21
3.385435
31
-0.754598
12
8.245195
22
3.385435
32
-0.754598
13
8.245195
23
3.385435
33
-0.754598
0
3DFACE
8
0
10
8.526671
20
3.385435
30
-0.726876
11
8.245195
21
3.385435
31
-0.754598
12
8.193329
22
3.385435
32
-0.726875
13
8.193329
23
3.385435
33
-0.726875
0
3DFACE
8
0
10
8.572132
20
3.385435
30
-0.689567
11
8.526671
21
3.385435
31
-0.726876
12
8.193329
22
3.385435
32
-0.726875
13
8.193329
23
3.385435
33
-0.726875
0
3DFACE
8
0
10
8.572132
20
3.385435
30
-0.689567
11
8.193329
21
3.385435
31
-0.726875
12
8.147868
22
3.385435
32
-0.689566
13
8.147868
23
3.385435
33
-0.689566
0
3DFACE
8
0
10
8.609442
20
3.385435
30
-0.644106
11
8.572132
21
3.385435
31
-0.689567
12
8.147868
22
3.385435
32
-0.689566
13
8.147868
23
3.385435
33
-0.689566
0
3DFACE
8
0
10
8.609442
20
3.385435
30
-0.644106
11
8.147868
21
3.385435
31
-0.689566
12
8.110559
22
3.385435
32
-0.644106
13
8.110559
23
3.385435
33
-0.644106
0
3DFACE
8
0
10
8.637164
20
3.385435
30
-0.592240
11
8.609442
21
3.385435
31
-0.644106
12
8.110559
22
3.385435
32
-0.644106
13
8.110559
23
3.385435
33
-0.644106
0
3DFACE
8
0
10
8.637164
20
3.385435
30
-0.592240
11
8.110559
21
3.385435
31
-0.644106
12
8.082836
22
3.385435
32
-0.592239
13
8.082836
23
3.385435
33
-0.592239
0
3DFACE
8
0
10
8.654236
20
3.385435
30
-0.535962
11
8.637164
21
3.385435
31
-0.592240
12
8.082836
22
3.385435
32
-0.592239
13
8.082836
23
3.385435
33
-0.592239
0
3DFACE
8
0
10
8.654236
20
3.385435
30
-0.535962
11
8.082836
21
3.385435
31
-0.592239
12
8.065764
22
3.385435
32
-0.535961
13
8.065764
23
3.385435
33
-0.535961
0
3DFACE
8
0
10
8.660000
20
3.385435
30
-0.477435
11
8.654236
21
3.385435
31
-0.535962
12
8.065764
22
3.385435
32
-0.535961
13
8.065764
23
3.385435
33
-0.535961
0
3DFACE
8
0
10
8.660000
20
3.385435
30
-0.477435
11
8.065764
21
3.385435
31
-0.535961
12
8.060000
22
3.385435
32
-0.477434
13
8.060000
23
3.385435
33
-0.477434
0
3DFACE
8
0
10
8.654236
20
3.385435
30
-0.418907
11
8.660000
21
3.385435
31
-0.477435
12
8.060000
22
3.385435
32
-0.477434
13
8.060000
23
3.385435
33
-0.477434
0
3DFACE
8
0
10
8.654236
20
3.385435
30
-0.418907
11
8.060000
21
3.385435
31
-0.477434
12
8.065764
22
3.385435
32
-0.418907
13
8.065764
23
3.385435
33
-0.418907
0
3DFACE
8
0
10
8.637164
20
3.385435
30
-0.362630
11
8.654236
21
3.385435
31
-0.418907
12
8.065764
22
3.385435
32
-0.418907
13
8.065764
23
3.385435
33
-0.418907
0
3DFACE
8
0
10
8.637164
20
3.385435
30
-0.362630
11
8.065764
21
3.385435
31
-0.418907
12
8.082836
22
3.385435
32
-0.362629
13
8.082836
23
3.385435
33
-0.362629
0
3DFACE
8
0
10
8.609442
20
3.385435
30
-0.310764
11
8.637164
21
3.385435
31
-0.362630
12
8.082836
22
3.385435
32
-0.362629
13
8.082836
23
3.385435
33
-0.362629
0
3DFACE
8
0
10
8.609442
20
3.385435
30
-0.310764
11
8.082836
21
3.385435
31
-0.362629
12
8.110559
22
3.385435
32
-0.310763
13
8.110559
23
3.385435
33
-0.310763
0
3DFACE
8
0
10
8.572132
20
3.385435
30
-0.265303
11
8.609442
21
3.385435
31
-0.310764
12
8.110559
22
3.385435
32
-0.310763
13
8.110559
23
3.385435
33
-0.310763
0
3DFACE
8
0
10
8.572132
20
3.385435
30
-0.265303
11
8.110559
21
3.385435
31
-0.310763
12
8.147869
22
3.385435
32
-0.265302
13
8.147869
23
3.385435
33
-0.265302
0
3DFACE
8
0
10
8.526671
20
3.385435
30
-0.227994
11
8.572132
21
3.385435
31
-0.265303
12
8.147869
22
3.385435
32
-0.265302
13
8.147869
23
3.385435
33
-0.265302
0
3DFACE
8
0
10
8.526671
20
3.385435
30
-0.227994
11
8.147869
21
3.385435
31
-0.265302
12
8.193330
22
3.385435
32
-0.227994
13
8.193330
23
3.385435
33
-0.227994
0
3DFACE
8
0
10
8.474806
20
3.385435
30
-0.200271
11
8.526671
21
3.385435
31
-0.227994
12
8.193330
22
3.385435
32
-0.227994
13
8.193330
23
3.385435
33
-0.227994
0
3DFACE
8
0
10
8.474806
20
3.385435
30
-0.200271
11
8.193330
21
3.385435
31
-0.227994
12
8.245195
22
3.385435
32
-0.200271
13
8.245195
23
3.385435
33
-0.200271
0
3DFACE
8
0
10
8.418528
20
3.385435
30
-0.183199
11
8.474806
21
3.385435
31
-0.200271
12
8.245195
22
3.385435
32
-0.200271
13
8.245195
23
3.385435
33
-0.200271
0
3DFACE
8
0
10
8.418528
20
3.385435
30
-0.183199
11
8.245195
21
3.385435
31
-0.200271
12
8.301474
22
3.385435
32
-0.183199
13
8.301474
23
3.385435
33
-0.183199
0
3DFACE
8
0
10
8.360001
20
3.385435
30
-0.177435
11
8.418528
21
3.385435
31
-0.183199
12
8.301474
22
3.385435
32
-0.183199
13
8.301474
23
3.385435
33
-0.183199
0
3DFACE
8
0
10
5.800001
20
2.862435
30
0.022566
11
5.800001
21
3.262435
31
0.022565
12
5.800001
22
3.262435
32
-0.977435
13
5.800001
23
3.262435
33
-0.977435
0
3DFACE
8
0
10
5.800001
20
3.262435
30
-0.977435
11
5.800001
21
2.862435
31
-0.977434
12
5.800001
22
2.862435
32
0.022566
13
5.800001
23
2.862435
33
0.022566
0
3DFACE
8
0
10
5.800001
20
2.862435
30
0.022566
11
8.800000
21
2.862435
31
0.022566
12
8.800000
22
3.262435
32
0.022565
13
8.800000
23
3.262435
33
0.022565
0
3DFACE
8
0
10
8.800000
20
3.262435
30
0.022565
11
5.800001
21
3.262435
31
0.022565
12
5.800001
22
2.862435
32
0.022566
13
5.800001
23
2.862435
33
0.022566
0
3DFACE
8
0
10
8.800000
20
3.262435
30
-0.977435
11
8.800000
21
3.262435
31
0.022565
12
8.800000
22
2.862435
32
0.022566
13
8.800000
23
2.862435
33
0.022566
0
3DFACE
8
0
10
8.800000
20
2.862435
30
0.022566
11
8.800000
21
2.862435
31
-0.977434
12
8.800000
22
3.262435
32
-0.977435
13
8.800000
23
3.262435
33
-0.977435
0
3DFACE
8
0
10
8.800000
20
2.862435
30
-0.977434
11
5.800001
21
2.862435
31
-0.977434
12
5.800001
22
3.262435
32
-0.977435
13
5.800001
23
3.262435
33
-0.977435
0
3DFACE
8
0
10
5.800001
20
3.262435
30
-0.977435
11
8.800000
21
3.262435
31
-0.977435
12
8.800000
22
2.862435
32
-0.977434
13
8.800000
23
2.862435
33
-0.977434
0
3DFACE
8
0
10
8.800000
20
2.862435
30
0.022566
11
5.800001
21
2.862435
31
0.022566
12
5.800001
22
2.862435
32
-0.977434
13
5.800001
23
2.862435
33
-0.977434
0
3DFACE
8
0
10
5.800001
20
2.862435
30
-0.977434
11
8.800000
21
2.862435
31
-0.977434
12
8.800000
22
2.862435
32
0.022566
13
8.800000
23
2.862435
33
0.022566
0
3DFACE
8
0
10
5.800001
20
3.262435
30
0.022565
11
8.800000
21
3.262435
31
0.022565
12
8.800000
22
3.262435
32
-0.977435
13
8.800000
23
3.262435
33
-0.977435
0
3DFACE
8
0
10
8.800000
20
3.262435
30
-0.977435
11
5.800001
21
3.262435
31
-0.977435
12
5.800001
22
3.262435
32
0.022565
13
5.800001
23
3.262435
33
0.022565
0
3DFACE
8
0
10
5.410000
20
5.095582
30
-0.121878
11
5.410000
21
5.083146
31
-0.106724
12
5.410000
22
6.562435
32
0.022565
13
5.410000
23
6.562435
33
0.022565
0
3DFACE
8
0
10
5.410000
20
6.562435
30
0.022565
11
5.410000
21
5.104823
31
-0.139166
12
5.410000
22
5.095582
32
-0.121878
13
5.410000
23
5.095582
33
-0.121878
0
3DFACE
8
0
10
5.410000
20
6.562435
30
0.022565
11
5.410000
21
5.110514
31
-0.157926
12
5.410000
22
5.104823
32
-0.139166
13
5.410000
23
5.104823
33
-0.139166
0
3DFACE
8
0
10
5.410000
20
6.562435
30
0.022565
11
5.410000
21
5.112435
31
-0.177435
12
5.410000
22
5.110514
32
-0.157926
13
5.410000
23
5.110514
33
-0.157926
0
3DFACE
8
0
10
5.410000
20
6.562435
30
0.022565
11
5.410000
21
5.110514
31
-0.196944
12
5.410000
22
5.112435
32
-0.177435
13
5.410000
23
5.112435
33
-0.177435
0
3DFACE
8
0
10
5.410000
20
6.562435
30
0.022565
11
5.410000
21
5.112435
31
-0.777435
12
5.410000
22
5.104823
32
-0.215703
13
5.410000
23
5.104823
33
-0.215703
0
3DFACE
8
0
10
5.410000
20
5.104823
30
-0.215703
11
5.410000
21
5.110514
31
-0.196944
12
5.410000
22
6.562435
32
0.022565
13
5.410000
23
6.562435
33
0.022565
0
3DFACE
8
0
10
5.410000
20
5.083146
30
-0.106724
11
5.410000
21
5.067992
31
-0.094288
12
5.410000
22
6.562435
32
0.022565
13
5.410000
23
6.562435
33
0.022565
0
3DFACE
8
0
10
5.410000
20
6.562435
30
0.022565
11
5.410000
21
5.110514
31
-0.796944
12
5.410000
22
5.112435
32
-0.777435
13
5.410000
23
5.112435
33
-0.777435
0
3DFACE
8
0
10
5.410000
20
6.562435
30
0.022565
11
5.410000
21
5.104823
31
-0.815703
12
5.410000
22
5.110514
32
-0.796944
13
5.410000
23
5.110514
33
-0.796944
0
3DFACE
8
0
10
5.410000
20
6.562435
30
0.022565
11
5.410000
21
5.095582
31
-0.832992
12
5.410000
22
5.104823
32
-0.815703
13
5.410000
23
5.104823
33
-0.815703
0
3DFACE
8
0
10
5.410000
20
6.562435
30
0.022565
11
5.410000
21
5.083146
31
-0.848145
12
5.410000
22
5.095582
32
-0.832992
13
5.410000
23
5.095582
33
-0.832992
0
3DFACE
8
0
10
5.410000
20
6.562435
30
0.022565
11
5.410000
21
6.562435
31
-0.977435
12
5.410000
22
5.067992
32
-0.860582
13
5.410000
23
5.067992
33
-0.860582
0
3DFACE
8
0
10
5.410000
20
5.067992
30
-0.860582
11
5.410000
21
5.083146
31
-0.848145
12
5.410000
22
6.562435
32
0.022565
13
5.410000
23
6.562435
33
0.022565
0
3DFACE
8
0
10
5.410000
20
5.067992
30
-0.094288
11
5.410000
21
5.050704
31
-0.085047
12
5.410000
22
6.562435
32
0.022565
13
5.410000
23
6.562435
33
0.022565
0
3DFACE
8
0
10
5.410000
20
6.562435
30
-0.977435
11
5.410000
21
5.050703
31
-0.869823
12
5.410000
22
5.067992
32
-0.860582
13
5.410000
23
5.067992
33
-0.860582
0
3DFACE
8
0
10
5.410000
20
6.562435
30
-0.977435
11
5.410000
21
5.031944
31
-0.875513
12
5.410000
22
5.050703
32
-0.869823
13
5.410000
23
5.050703
33
-0.869823
0
3DFACE
8
0
10
5.410000
20
6.562435
30
-0.977435
11
5.410000
21
5.012435
31
-0.877435
12
5.410000
22
5.031944
32
-0.875513
13
5.410000
23
5.031944
33
-0.875513
0
3DFACE
8
0
10
5.410000
20
6.562435
30
-0.977435
11
5.410000
21
4.412435
31
-0.877435
12
5.410000
22
4.431944
32
-0.875513
13
5.410000
23
4.431944
33
-0.875513
0
3DFACE
8
0
10
5.410000
20
4.431944
30
-0.875513
11
5.410000
21
5.012435
31
-0.877435
12
5.410000
22
6.562435
32
-0.977435
13
5.410000
23
6.562435
33
-0.977435
0
3DFACE
8
0
10
5.410000
20
5.112435
30
-0.777435
11
5.410000
21
5.095582
31
-0.232992
12
5.410000
22
5.104823
32
-0.215703
13
5.410000
23
5.104823
33
-0.215703
0
3DFACE
8
0
10
5.410000
20
4.431944
30
-0.875513
11
5.410000
21
4.992926
31
-0.875513
12
5.410000
22
5.012435
32
-0.877435
13
5.410000
23
5.012435
33
-0.877435
0
3DFACE
8
0
10
5.410000
20
5.031944
30
-0.079356
11
5.410000
21
5.012435
31
-0.077435
12
5.410000
22
6.562435
32
0.022565
13
5.410000
23
6.562435
33
0.022565
0
3DFACE
8
0
10
5.410000
20
5.112435
30
-0.777435
11
5.410000
21
5.110514
31
-0.757926
12
5.410000
22
5.083146
32
-0.248145
13
5.410000
23
5.083146
33
-0.248145
0
3DFACE
8
0
10
5.410000
20
5.083146
30
-0.248145
11
5.410000
21
5.095582
31
-0.232992
12
5.410000
22
5.112435
32
-0.777435
13
5.410000
23
5.112435
33
-0.777435
0
3DFACE
8
0
10
5.410000
20
5.110514
30
-0.757926
11
5.410000
21
5.104823
31
-0.739166
12
5.410000
22
5.067992
32
-0.260582
13
5.410000
23
5.067992
33
-0.260582
0
3DFACE
8
0
10
5.410000
20
5.067992
30
-0.260582
11
5.410000
21
5.083146
31
-0.248145
12
5.410000
22
5.110514
32
-0.757926
13
5.410000
23
5.110514
33
-0.757926
0
3DFACE
8
0
10
5.410000
20
4.431944
30
-0.875513
11
5.410000
21
4.974166
31
-0.869823
12
5.410000
22
4.992926
32
-0.875513
13
5.410000
23
4.992926
33
-0.875513
0
3DFACE
8
0
10
5.410000
20
5.104823
30
-0.739166
11
5.410000
21
5.095582
31
-0.721878
12
5.410000
22
5.050703
32
-0.269823
13
5.410000
23
5.050703
33
-0.269823
0
3DFACE
8
0
10
5.410000
20
5.050703
30
-0.269823
11
5.410000
21
5.067992
31
-0.260582
12
5.410000
22
5.104823
32
-0.739166
13
5.410000
23
5.104823
33
-0.739166
0
3DFACE
8
0
10
5.410000
20
5.095582
30
-0.721878
11
5.410000
21
5.083146
31
-0.706724
12
5.410000
22
5.031944
32
-0.275513
13
5.410000
23
5.031944
33
-0.275513
0
3DFACE
8
0
10
5.410000
20
5.031944
30
-0.275513
11
5.410000
21
5.050703
31
-0.269823
12
5.410000
22
5.095582
32
-0.721878
13
5.410000
23
5.095582
33
-0.721878
0
3DFACE
8
0
10
5.410000
20
4.431944
30
-0.875513
11
5.410000
21
4.956878
31
-0.860582
12
5.410000
22
4.974166
32
-0.869823
13
5.410000
23
4.974166
33
-0.869823
0
3DFACE
8
0
10
5.410000
20
5.083146
30
-0.706724
11
5.410000
21
5.067992
31
-0.694288
12
5.410000
22
5.012435
32
-0.277435
13
5.410000
23
5.012435
33
-0.277435
0
3DFACE
8
0
10
5.410000
20
5.012435
30
-0.277435
11
5.410000
21
5.031944
31
-0.275513
12
5.410000
22
5.083146
32
-0.706724
13
5.410000
23
5.083146
33
-0.706724
0
3DFACE
8
0
10
5.410000
20
5.067992
30
-0.694288
11
5.410000
21
5.050704
31
-0.685047
12
5.410000
22
4.992926
32
-0.275513
13
5.410000
23
4.992926
33
-0.275513
0
3DFACE
8
0
10
5.410000
20
4.992926
30
-0.275513
11
5.410000
21
5.012435
31
-0.277435
12
5.410000
22
5.067992
32
-0.694288
13
5.410000
23
5.067992
33
-0.694288
0
3DFACE
8
0
10
5.410000
20
4.431944
30
-0.875513
11
5.410000
21
4.941724
31
-0.848145
12
5.410000
22
4.956878
32
-0.860582
13
5.410000
23
4.956878
33
-0.860582
0
3DFACE
8
0
10
5.410000
20
5.050704
30
-0.685047
11
5.410000
21
5.031944
31
-0.679356
12
5.410000
22
4.974166
32
-0.269822
13
5.410000
23
4.974166
33
-0.269822
0
3DFACE
8
0
10
5.410000
20
4.974166
30
-0.269822
11
5.410000
21
4.992926
31
-0.275513
12
5.410000
22
5.050704
32
-0.685047
13
5.410000
23
5.050704
33
-0.685047
0
3DFACE
8
0
10
5.410000
20
5.031944
30
-0.679356
11
5.410000
21
5.012435
31
-0.677435
12
5.410000
22
4.956878
32
-0.260581
13
5.410000
23
4.956878
33
-0.260581
0
3DFACE
8
0
10
5.410000
20
4.956878
30
-0.260581
11
5.410000
21
4.974166
31
-0.269822
12
5.410000
22
5.031944
32
-0.679356
13
5.410000
23
5.031944
33
-0.679356
0
3DFACE
8
0
10
5.410000
20
4.431944
30
-0.875513
11
5.410000
21
4.929288
31
-0.832992
12
5.410000
22
4.941724
32
-0.848145
13
5.410000
23
4.941724
33
-0.848145
0
3DFACE
8
0
10
5.410000
20
5.050704
30
-0.085047
11
5.410000
21
5.031944
31
-0.079356
12
5.410000
22
6.562435
32
0.022565
13
5.410000
23
6.562435
33
0.022565
0
3DFACE
8
0
10
5.410000
20
5.012435
30
-0.677435
11
5.410000
21
4.992926
31
-0.679356
12
5.410000
22
4.956878
32
-0.260581
13
5.410000
23
4.956878
33
-0.260581
0
3DFACE
8
0
10
5.410000
20
4.431944
30
-0.875513
11
5.410000
21
4.450703
31
-0.869823
12
5.410000
22
4.920047
32
-0.815703
13
5.410000
23
4.920047
33
-0.815703
0
3DFACE
8
0
10
5.410000
20
4.920047
30
-0.815703
11
5.410000
21
4.929288
31
-0.832992
12
5.410000
22
4.431944
32
-0.875513
13
5.410000
23
4.431944
33
-0.875513
0
3DFACE
8
0
10
5.410000
20
2.862435
30
-0.977435
11
5.410000
21
4.392926
31
-0.875513
12
5.410000
22
4.412435
32
-0.877435
13
5.410000
23
4.412435
33
-0.877435
0
3DFACE
8
0
10
5.410000
20
4.483146
30
-0.106724
11
5.410000
21
4.467992
31
-0.094288
12
5.410000
22
6.562435
32
0.022565
13
5.410000
23
6.562435
33
0.022565
0
3DFACE
8
0
10
5.410000
20
6.562435
30
0.022565
11
5.410000
21
5.012435
31
-0.077435
12
5.410000
22
4.483146
32
-0.106724
13
5.410000
23
4.483146
33
-0.106724
0
3DFACE
8
0
10
5.410000
20
4.992926
30
-0.679356
11
5.410000
21
4.974166
31
-0.685047
12
5.410000
22
4.956878
32
-0.260581
13
5.410000
23
4.956878
33
-0.260581
0
3DFACE
8
0
10
5.410000
20
5.012435
30
-0.077435
11
5.410000
21
4.992926
31
-0.079356
12
5.410000
22
4.483146
32
-0.106724
13
5.410000
23
4.483146
33
-0.106724
0
3DFACE
8
0
10
5.410000
20
4.956878
30
-0.694288
11
5.410000
21
4.412435
31
-0.277435
12
5.410000
22
4.956878
32
-0.260581
13
5.410000
23
4.956878
33
-0.260581
0
3DFACE
8
0
10
5.410000
20
4.956878
30
-0.260581
11
5.410000
21
4.974166
31
-0.685047
12
5.410000
22
4.956878
32
-0.694288
13
5.410000
23
4.956878
33
-0.694288
0
3DFACE
8
0
10
5.410000
20
4.992926
30
-0.079356
11
5.410000
21
4.974167
31
-0.085047
12
5.410000
22
4.483146
32
-0.106724
13
5.410000
23
4.483146
33
-0.106724
0
3DFACE
8
0
10
5.410000
20
4.941724
30
-0.706724
11
5.410000
21
4.392926
31
-0.275513
12
5.410000
22
4.412435
32
-0.277435
13
5.410000
23
4.412435
33
-0.277435
0
3DFACE
8
0
10
5.410000
20
4.412435
30
-0.277435
11
5.410000
21
4.956878
31
-0.694288
12
5.410000
22
4.941724
32
-0.706724
13
5.410000
23
4.941724
33
-0.706724
0
3DFACE
8
0
10
5.410000
20
4.974167
30
-0.085047
11
5.410000
21
4.956878
31
-0.094288
12
5.410000
22
4.483146
32
-0.106724
13
5.410000
23
4.483146
33
-0.106724
0
3DFACE
8
0
10
5.410000
20
4.929288
30
-0.721878
11
5.410000
21
4.374166
31
-0.269822
12
5.410000
22
4.392926
32
-0.275513
13
5.410000
23
4.392926
33
-0.275513
0
3DFACE
8
0
10
5.410000
20
4.392926
30
-0.275513
11
5.410000
21
4.941724
31
-0.706724
12
5.410000
22
4.929288
32
-0.721878
13
5.410000
23
4.929288
33
-0.721878
0
3DFACE
8
0
10
5.410000
20
4.941724
30
-0.106724
11
5.410000
21
4.495582
31
-0.121878
12
5.410000
22
4.483146
32
-0.106724
13
5.410000
23
4.483146
33
-0.106724
0
3DFACE
8
0
10
5.410000
20
4.483146
30
-0.106724
11
5.410000
21
4.956878
31
-0.094288
12
5.410000
22
4.941724
32
-0.106724
13
5.410000
23
4.941724
33
-0.106724
0
3DFACE
8
0
10
5.410000
20
4.920047
30
-0.739166
11
5.410000
21
4.356878
31
-0.260581
12
5.410000
22
4.374166
32
-0.269822
13
5.410000
23
4.374166
33
-0.269822
0
3DFACE
8
0
10
5.410000
20
4.374166
30
-0.269822
11
5.410000
21
4.929288
31
-0.721878
12
5.410000
22
4.920047
32
-0.739166
13
5.410000
23
4.920047
33
-0.739166
0
3DFACE
8
0
10
5.410000
20
4.929288
30
-0.121877
11
5.410000
21
4.504823
31
-0.139166
12
5.410000
22
4.495582
32
-0.121878
13
5.410000
23
4.495582
33
-0.121878
0
3DFACE
8
0
10
5.410000
20
4.495582
30
-0.121878
11
5.410000
21
4.941724
31
-0.106724
12
5.410000
22
4.929288
32
-0.121877
13
5.410000
23
4.929288
33
-0.121877
0
3DFACE
8
0
10
5.410000
20
4.920047
30
-0.739166
11
5.410000
21
4.431944
31
-0.679356
12
5.410000
22
4.341724
32
-0.248145
13
5.410000
23
4.341724
33
-0.248145
0
3DFACE
8
0
10
5.410000
20
4.341724
30
-0.248145
11
5.410000
21
4.356878
31
-0.260581
12
5.410000
22
4.920047
32
-0.739166
13
5.410000
23
4.920047
33
-0.739166
0
3DFACE
8
0
10
5.410000
20
6.562435
30
-0.977435
11
5.410000
21
2.862435
31
-0.977435
12
5.410000
22
4.412435
32
-0.877435
13
5.410000
23
4.412435
33
-0.877435
0
3DFACE
8
0
10
5.410000
20
4.929288
30
-0.121877
11
5.410000
21
4.920047
31
-0.139166
12
5.410000
22
4.504823
32
-0.139166
13
5.410000
23
4.504823
33
-0.139166
0
3DFACE
8
0
10
5.410000
20
4.431944
30
-0.275513
11
5.410000
21
4.450703
31
-0.269823
12
5.410000
22
4.956878
32
-0.260581
13
5.410000
23
4.956878
33
-0.260581
0
3DFACE
8
0
10
5.410000
20
4.450703
30
-0.869823
11
5.410000
21
4.467992
31
-0.860582
12
5.410000
22
4.920047
32
-0.815703
13
5.410000
23
4.920047
33
-0.815703
0
3DFACE
8
0
10
5.410000
20
2.862435
30
-0.977435
11
5.410000
21
4.374166
31
-0.869823
12
5.410000
22
4.392926
32
-0.875513
13
5.410000
23
4.392926
33
-0.875513
0
3DFACE
8
0
10
5.410000
20
4.450703
30
-0.269823
11
5.410000
21
4.467992
31
-0.260582
12
5.410000
22
4.956878
32
-0.260581
13
5.410000
23
4.956878
33
-0.260581
0
3DFACE
8
0
10
5.410000
20
4.467992
30
-0.860582
11
5.410000
21
4.483145
31
-0.848145
12
5.410000
22
4.920047
32
-0.815703
13
5.410000
23
4.920047
33
-0.815703
0
3DFACE
8
0
10
5.410000
20
4.467992
30
-0.094288
11
5.410000
21
4.450703
31
-0.085047
12
5.410000
22
6.562435
32
0.022565
13
5.410000
23
6.562435
33
0.022565
0
3DFACE
8
0
10
5.410000
20
4.467992
30
-0.260582
11
5.410000
21
4.483145
31
-0.248145
12
5.410000
22
4.956878
32
-0.260581
13
5.410000
23
4.956878
33
-0.260581
0
3DFACE
8
0
10
5.410000
20
4.483145
30
-0.848145
11
5.410000
21
4.495582
31
-0.832992
12
5.410000
22
4.920047
32
-0.815703
13
5.410000
23
4.920047
33
-0.815703
0
3DFACE
8
0
10
5.410000
20
4.450703
30
-0.085047
11
5.410000
21
4.431944
31
-0.079356
12
5.410000
22
6.562435
32
0.022565
13
5.410000
23
6.562435
33
0.022565
0
3DFACE
8
0
10
5.410000
20
4.483145
30
-0.248145
11
5.410000
21
4.495582
31
-0.232992
12
5.410000
22
4.956878
32
-0.260581
13
5.410000
23
4.956878
33
-0.260581
0
3DFACE
8
0
10
5.410000
20
4.495582
30
-0.832992
11
5.410000
21
4.504823
31
-0.815703
12
5.410000
22
4.920047
32
-0.815703
13
5.410000
23
4.920047
33
-0.815703
0
3DFACE
8
0
10
5.410000
20
4.431944
30
-0.079356
11
5.410000
21
4.412435
31
-0.077435
12
5.410000
22
6.562435
32
0.022565
13
5.410000
23
6.562435
33
0.022565
0
3DFACE
8
0
10
5.410000
20
4.504823
30
-0.215703
11
5.410000
21
4.941724
31
-0.248145
12
5.410000
22
4.956878
32
-0.260581
13
5.410000
23
4.956878
33
-0.260581
0
3DFACE
8
0
10
5.410000
20
4.956878
30
-0.260581
11
5.410000
21
4.495582
31
-0.232992
12
5.410000
22
4.504823
32
-0.215703
13
5.410000
23
4.504823
33
-0.215703
0
3DFACE
8
0
10
5.410000
20
4.412435
30
-0.077435
11
5.410000
21
4.392926
31
-0.079356
12
5.410000
22
2.862435
32
0.022565
13
5.410000
23
2.862435
33
0.022565
0
3DFACE
8
0
10
5.410000
20
4.412435
30
-0.277435
11
5.410000
21
4.431944
31
-0.275513
12
5.410000
22
4.956878
32
-0.260581
13
5.410000
23
4.956878
33
-0.260581
0
3DFACE
8
0
10
5.410000
20
4.412435
30
-0.077435
11
5.410000
21
2.862435
31
0.022565
12
5.410000
22
6.562435
32
0.022565
13
5.410000
23
6.562435
33
0.022565
0
3DFACE
8
0
10
5.410000
20
4.392926
30
-0.079356
11
5.410000
21
4.374166
31
-0.085047
12
5.410000
22
2.862435
32
0.022565
13
5.410000
23
2.862435
33
0.022565
0
3DFACE
8
0
10
5.410000
20
4.431944
30
-0.679356
11
5.410000
21
4.412435
31
-0.677435
12
5.410000
22
4.341724
32
-0.248145
13
5.410000
23
4.341724
33
-0.248145
0
3DFACE
8
0
10
5.410000
20
4.504823
30
-0.215703
11
5.410000
21
4.929288
31
-0.232992
12
5.410000
22
4.941724
32
-0.248145
13
5.410000
23
4.941724
33
-0.248145
0
3DFACE
8
0
10
5.410000
20
4.374166
30
-0.085047
11
5.410000
21
4.356878
31
-0.094288
12
5.410000
22
2.862435
32
0.022565
13
5.410000
23
2.862435
33
0.022565
0
3DFACE
8
0
10
5.410000
20
4.412435
30
-0.677435
11
5.410000
21
4.392926
31
-0.679356
12
5.410000
22
4.341724
32
-0.248145
13
5.410000
23
4.341724
33
-0.248145
0
3DFACE
8
0
10
5.410000
20
4.504823
30
-0.215703
11
5.410000
21
4.510513
31
-0.196944
12
5.410000
22
4.920047
32
-0.215703
13
5.410000
23
4.920047
33
-0.215703
0
3DFACE
8
0
10
5.410000
20
4.920047
30
-0.215703
11
5.410000
21
4.929288
31
-0.232992
12
5.410000
22
4.504823
32
-0.215703
13
5.410000
23
4.504823
33
-0.215703
0
3DFACE
8
0
10
5.410000
20
4.392926
30
-0.679356
11
5.410000
21
4.374166
31
-0.685047
12
5.410000
22
4.341724
32
-0.248145
13
5.410000
23
4.341724
33
-0.248145
0
3DFACE
8
0
10
5.410000
20
4.920047
30
-0.739166
11
5.410000
21
4.450703
31
-0.685047
12
5.410000
22
4.431944
32
-0.679356
13
5.410000
23
4.431944
33
-0.679356
0
3DFACE
8
0
10
5.410000
20
2.862435
30
-0.977435
11
5.410000
21
4.356878
31
-0.860582
12
5.410000
22
4.374166
32
-0.869823
13
5.410000
23
4.374166
33
-0.869823
0
3DFACE
8
0
10
5.410000
20
4.356878
30
-0.694288
11
5.410000
21
4.329288
31
-0.232992
12
5.410000
22
4.341724
32
-0.248145
13
5.410000
23
4.341724
33
-0.248145
0
3DFACE
8
0
10
5.410000
20
4.341724
30
-0.248145
11
5.410000
21
4.374166
31
-0.685047
12
5.410000
22
4.356878
32
-0.694288
13
5.410000
23
4.356878
33
-0.694288
0
3DFACE
8
0
10
5.410000
20
4.920047
30
-0.739166
11
5.410000
21
4.467992
31
-0.694288
12
5.410000
22
4.450703
32
-0.685047
13
5.410000
23
4.450703
33
-0.685047
0
3DFACE
8
0
10
5.410000
20
2.862435
30
-0.977435
11
5.410000
21
4.341724
31
-0.848145
12
5.410000
22
4.356878
32
-0.860582
13
5.410000
23
4.356878
33
-0.860582
0
3DFACE
8
0
10
5.410000
20
4.341724
30
-0.106724
11
5.410000
21
4.329288
31
-0.121877
12
5.410000
22
2.862435
32
0.022565
13
5.410000
23
2.862435
33
0.022565
0
3DFACE
8
0
10
5.410000
20
4.920047
30
-0.739166
11
5.410000
21
4.483146
31
-0.706724
12
5.410000
22
4.467992
32
-0.694288
13
5.410000
23
4.467992
33
-0.694288
0
3DFACE
8
0
10
5.410000
20
4.341724
30
-0.706724
11
5.410000
21
4.320047
31
-0.215703
12
5.410000
22
4.329288
32
-0.232992
13
5.410000
23
4.329288
33
-0.232992
0
3DFACE
8
0
10
5.410000
20
4.329288
30
-0.232992
11
5.410000
21
4.356878
31
-0.694288
12
5.410000
22
4.341724
32
-0.706724
13
5.410000
23
4.341724
33
-0.706724
0
3DFACE
8
0
10
5.410000
20
4.920047
30
-0.739166
11
5.410000
21
4.495582
31
-0.721878
12
5.410000
22
4.483146
32
-0.706724
13
5.410000
23
4.483146
33
-0.706724
0
3DFACE
8
0
10
5.410000
20
2.862435
30
-0.977435
11
5.410000
21
4.329288
31
-0.832992
12
5.410000
22
4.341724
32
-0.848145
13
5.410000
23
4.341724
33
-0.848145
0
3DFACE
8
0
10
5.410000
20
4.341724
30
-0.706724
11
5.410000
21
4.329288
31
-0.721878
12
5.410000
22
4.320047
32
-0.215703
13
5.410000
23
4.320047
33
-0.215703
0
3DFACE
8
0
10
5.410000
20
2.862435
30
-0.977435
11
5.410000
21
4.320047
31
-0.815703
12
5.410000
22
4.329288
32
-0.832992
13
5.410000
23
4.329288
33
-0.832992
0
3DFACE
8
0
10
5.410000
20
4.329288
30
-0.121877
11
5.410000
21
4.320047
31
-0.139166
12
5.410000
22
2.862435
32
0.022565
13
5.410000
23
2.862435
33
0.022565
0
3DFACE
8
0
10
5.410000
20
4.329288
30
-0.721878
11
5.410000
21
4.320047
31
-0.739166
12
5.410000
22
4.320047
32
-0.215703
13
5.410000
23
4.320047
33
-0.215703
0
3DFACE
8
0
10
5.410000
20
4.920047
30
-0.739166
11
5.410000
21
4.504823
31
-0.739166
12
5.410000
22
4.495582
32
-0.721878
13
5.410000
23
4.495582
33
-0.721878
0
3DFACE
8
0
10
5.410000
20
2.862435
30
-0.977435
11
5.410000
21
4.314356
31
-0.796944
12
5.410000
22
4.320047
32
-0.815703
13
5.410000
23
4.320047
33
-0.815703
0
3DFACE
8
0
10
5.410000
20
4.314356
30
-0.757926
11
5.410000
21
4.314356
31
-0.196944
12
5.410000
22
4.320047
32
-0.215703
13
5.410000
23
4.320047
33
-0.215703
0
3DFACE
8
0
10
5.410000
20
4.320047
30
-0.215703
11
5.410000
21
4.320047
31
-0.739166
12
5.410000
22
4.314356
32
-0.757926
13
5.410000
23
4.314356
33
-0.757926
0
3DFACE
8
0
10
5.410000
20
4.312435
30
-0.777435
11
5.410000
21
4.312435
31
-0.177434
12
5.410000
22
4.314356
32
-0.196944
13
5.410000
23
4.314356
33
-0.196944
0
3DFACE
8
0
10
5.410000
20
4.314356
30
-0.196944
11
5.410000
21
4.314356
31
-0.757926
12
5.410000
22
4.312435
32
-0.777435
13
5.410000
23
4.312435
33
-0.777435
0
3DFACE
8
0
10
5.410000
20
4.320047
30
-0.139166
11
5.410000
21
4.314356
31
-0.157925
12
5.410000
22
2.862435
32
0.022565
13
5.410000
23
2.862435
33
0.022565
0
3DFACE
8
0
10
5.410000
20
4.510513
30
-0.796944
11
5.410000
21
4.914356
31
-0.796944
12
5.410000
22
4.920047
32
-0.815703
13
5.410000
23
4.920047
33
-0.815703
0
3DFACE
8
0
10
5.410000
20
4.920047
30
-0.815703
11
5.410000
21
4.504823
31
-0.815703
12
5.410000
22
4.510513
32
-0.796944
13
5.410000
23
4.510513
33
-0.796944
0
3DFACE
8
0
10
5.410000
20
4.356878
30
-0.094288
11
5.410000
21
4.341724
31
-0.106724
12
5.410000
22
2.862435
32
0.022565
13
5.410000
23
2.862435
33
0.022565
0
3DFACE
8
0
10
5.410000
20
4.914356
30
-0.157925
11
5.410000
21
4.510513
31
-0.157926
12
5.410000
22
4.504823
32
-0.139166
13
5.410000
23
4.504823
33
-0.139166
0
3DFACE
8
0
10
5.410000
20
4.504823
30
-0.139166
11
5.410000
21
4.920047
31
-0.139166
12
5.410000
22
4.914356
32
-0.157925
13
5.410000
23
4.914356
33
-0.157925
0
3DFACE
8
0
10
5.410000
20
4.920047
30
-0.739166
11
5.410000
21
4.914356
31
-0.757926
12
5.410000
22
4.510513
32
-0.757926
13
5.410000
23
4.510513
33
-0.757926
0
3DFACE
8
0
10
5.410000
20
4.510513
30
-0.757926
11
5.410000
21
4.504823
31
-0.739166
12
5.410000
22
4.920047
32
-0.739166
13
5.410000
23
4.920047
33
-0.739166
0
3DFACE
8
0
10
5.410000
20
4.510513
30
-0.196944
11
5.410000
21
4.512435
31
-0.177435
12
5.410000
22
4.914356
32
-0.196944
13
5.410000
23
4.914356
33
-0.196944
0
3DFACE
8
0
10
5.410000
20
4.914356
30
-0.196944
11
5.410000
21
4.920047
31
-0.215703
12
5.410000
22
4.510513
32
-0.196944
13
5.410000
23
4.510513
33
-0.196944
0
3DFACE
8
0
10
5.410000
20
2.862435
30
-0.977435
11
5.410000
21
4.312435
31
-0.777435
12
5.410000
22
4.314356
32
-0.796944
13
5.410000
23
4.314356
33
-0.796944
0
3DFACE
8
0
10
5.410000
20
4.312435
30
-0.177434
11
5.410000
21
2.862435
31
-0.977435
12
5.410000
22
2.862435
32
0.022565
13
5.410000
23
2.862435
33
0.022565
0
3DFACE
8
0
10
5.410000
20
2.862435
30
0.022565
11
5.410000
21
4.314356
31
-0.157925
12
5.410000
22
4.312435
32
-0.177434
13
5.410000
23
4.312435
33
-0.177434
0
3DFACE
8
0
10
5.410000
20
4.512435
30
-0.777435
11
5.410000
21
4.912435
31
-0.777435
12
5.410000
22
4.914356
32
-0.796944
13
5.410000
23
4.914356
33
-0.796944
0
3DFACE
8
0
10
5.410000
20
4.914356
30
-0.796944
11
5.410000
21
4.510513
31
-0.796944
12
5.410000
22
4.512435
32
-0.777435
13
5.410000
23
4.512435
33
-0.777435
0
3DFACE
8
0
10
5.410000
20
4.914356
30
-0.157925
11
5.410000
21
4.912435
31
-0.177435
12
5.410000
22
4.512435
32
-0.177435
13
5.410000
23
4.512435
33
-0.177435
0
3DFACE
8
0
10
5.410000
20
4.512435
30
-0.177435
11
5.410000
21
4.510513
31
-0.157926
12
5.410000
22
4.914356
32
-0.157925
13
5.410000
23
4.914356
33
-0.157925
0
3DFACE
8
0
10
5.410000
20
4.914356
30
-0.757926
11
5.410000
21
4.912435
31
-0.777435
12
5.410000
22
4.512435
32
-0.777435
13
5.410000
23
4.512435
33
-0.777435
0
3DFACE
8
0
10
5.410000
20
4.512435
30
-0.777435
11
5.410000
21
4.510513
31
-0.757926
12
5.410000
22
4.914356
32
-0.757926
13
5.410000
23
4.914356
33
-0.757926
0
3DFACE
8
0
10
5.410000
20
2.862435
30
-0.977435
11
5.410000
21
4.312435
31
-0.177434
12
5.410000
22
4.312435
32
-0.777435
13
5.410000
23
4.312435
33
-0.777435
0
3DFACE
8
0
10
5.410000
20
4.512435
30
-0.177435
11
5.410000
21
4.912435
31
-0.177435
12
5.410000
22
4.914356
32
-0.196944
13
5.410000
23
4.914356
33
-0.196944
0
3DFACE
8
0
10
5.810000
20
6.162435
30
-0.977435
11
5.800001
21
6.162435
31
-0.977435
12
5.800001
22
6.562435
32
-0.977435
13
5.800001
23
6.562435
33
-0.977435
0
3DFACE
8
0
10
5.800001
20
6.562435
30
-0.977435
11
5.810000
21
6.562435
31
-0.977435
12
5.810000
22
6.162435
32
-0.977435
13
5.810000
23
6.162435
33
-0.977435
0
3DFACE
8
0
10
5.810000
20
2.862435
30
-0.977435
11
5.410000
21
2.862435
31
-0.977435
12
5.800001
22
6.162435
32
-0.977435
13
5.800001
23
6.162435
33
-0.977435
0
3DFACE
8
0
10
5.800001
20
6.162435
30
-0.977435
11
5.810000
21
6.162435
31
-0.977435
12
5.810000
22
2.862435
32
-0.977435
13
5.810000
23
2.862435
33
-0.977435
0
3DFACE
8
0
10
5.800001
20
6.162435
30
-0.977435
11
5.410000
21
2.862435
31
-0.977435
12
5.410000
22
6.562435
32
-0.977435
13
5.410000
23
6.562435
33
-0.977435
0
3DFACE
8
0
10
5.410000
20
6.562435
30
-0.977435
11
5.800001
21
6.562435
31
-0.977435
12
5.800001
22
6.162435
32
-0.977435
13
5.800001
23
6.162435
33
-0.977435
0
3DFACE
8
0
10
5.810000
20
5.050703
30
-0.869823
11
5.810000
21
5.031944
31
-0.875513
12
5.810000
22
6.162435
32
-0.974077
13
5.810000
23
6.162435
33
-0.974077
0
3DFACE
8
0
10
5.810000
20
6.162435
30
-0.974077
11
5.810000
21
5.067992
31
-0.860582
12
5.810000
22
5.050703
32
-0.869823
13
5.810000
23
5.050703
33
-0.869823
0
3DFACE
8
0
10
5.810000
20
6.162435
30
-0.974077
11
5.810000
21
5.083146
31
-0.848145
12
5.810000
22
5.067992
32
-0.860582
13
5.810000
23
5.067992
33
-0.860582
0
3DFACE
8
0
10
5.810000
20
6.162435
30
-0.974077
11
5.810000
21
5.095582
31
-0.832992
12
5.810000
22
5.083146
32
-0.848145
13
5.810000
23
5.083146
33
-0.848145
0
3DFACE
8
0
10
5.810000
20
6.162435
30
-0.974077
11
5.810000
21
5.104823
31
-0.815703
12
5.810000
22
5.095582
32
-0.832992
13
5.810000
23
5.095582
33
-0.832992
0
3DFACE
8
0
10
5.810000
20
6.162435
30
-0.974077
11
5.810000
21
5.110514
31
-0.796944
12
5.810000
22
5.104823
32
-0.815703
13
5.810000
23
5.104823
33
-0.815703
0
3DFACE
8
0
10
5.810000
20
6.162435
30
-0.974077
11
5.810000
21
5.112435
31
-0.777435
12
5.810000
22
5.110514
32
-0.796944
13
5.810000
23
5.110514
33
-0.796944
0
3DFACE
8
0
10
5.810000
20
6.162435
30
-0.974077
11
5.810000
21
5.110514
31
-0.757926
12
5.810000
22
5.112435
32
-0.777435
13
5.810000
23
5.112435
33
-0.777435
0
3DFACE
8
0
10
5.810000
20
6.162435
30
-0.974077
11
5.810000
21
5.104823
31
-0.739166
12
5.810000
22
5.110514
32
-0.757926
13
5.810000
23
5.110514
33
-0.757926
0
3DFACE
8
0
10
5.810000
20
6.162435
30
-0.974077
11
5.810000
21
5.095582
31
-0.721878
12
5.810000
22
5.104823
32
-0.739166
13
5.810000
23
5.104823
33
-0.739166
0
3DFACE
8
0
10
5.810000
20
6.162435
30
-0.974077
11
5.810000
21
5.083146
31
-0.706724
12
5.810000
22
5.095582
32
-0.721878
13
5.810000
23
5.095582
33
-0.721878
0
3DFACE
8
0
10
5.810000
20
6.162435
30
-0.974077
11
5.810000
21
5.067992
31
-0.694288
12
5.810000
22
5.083146
32
-0.706724
13
5.810000
23
5.083146
33
-0.706724
0
3DFACE
8
0
10
5.810000
20
6.162435
30
-0.974077
11
5.810000
21
5.050704
31
-0.685047
12
5.810000
22
5.067992
32
-0.694288
13
5.810000
23
5.067992
33
-0.694288
0
3DFACE
8
0
10
5.810000
20
6.162435
30
-0.974077
11
5.810000
21
6.162435
31
0.021834
12
5.810000
22
5.031944
32
-0.679356
13
5.810000
23
5.031944
33
-0.679356
0
3DFACE
8
0
10
5.810000
20
5.031944
30
-0.679356
11
5.810000
21
5.050704
31
-0.685047
12
5.810000
22
6.162435
32
-0.974077
13
5.810000
23
6.162435
33
-0.974077
0
3DFACE
8
0
10
5.810000
20
5.031944
30
-0.875513
11
5.810000
21
5.012435
31
-0.877435
12
5.810000
22
6.162435
32
-0.974077
13
5.810000
23
6.162435
33
-0.974077
0
3DFACE
8
0
10
5.810000
20
6.162435
30
0.021834
11
5.810000
21
5.012435
31
-0.677435
12
5.810000
22
5.031944
32
-0.679356
13
5.810000
23
5.031944
33
-0.679356
0
3DFACE
8
0
10
5.810000
20
6.162435
30
0.021834
11
5.810000
21
4.992926
31
-0.679356
12
5.810000
22
5.012435
32
-0.677435
13
5.810000
23
5.012435
33
-0.677435
0
3DFACE
8
0
10
5.810000
20
6.162435
30
0.021834
11
5.810000
21
4.431944
31
-0.679356
12
5.810000
22
4.974167
32
-0.685047
13
5.810000
23
4.974167
33
-0.685047
0
3DFACE
8
0
10
5.810000
20
4.974167
30
-0.685047
11
5.810000
21
4.992926
31
-0.679356
12
5.810000
22
6.162435
32
0.021834
13
5.810000
23
6.162435
33
0.021834
0
3DFACE
8
0
10
5.810000
20
5.012435
30
-0.877435
11
5.810000
21
4.992926
31
-0.875513
12
5.810000
22
4.467992
32
-0.860582
13
5.810000
23
4.467992
33
-0.860582
0
3DFACE
8
0
10
5.810000
20
4.467992
30
-0.860582
11
5.810000
21
4.450703
31
-0.869823
12
5.810000
22
6.162435
32
-0.974077
13
5.810000
23
6.162435
33
-0.974077
0
3DFACE
8
0
10
5.810000
20
6.162435
30
-0.974077
11
5.810000
21
5.012435
31
-0.877435
12
5.810000
22
4.467992
32
-0.860582
13
5.810000
23
4.467992
33
-0.860582
0
3DFACE
8
0
10
5.810000
20
4.431944
30
-0.679356
11
5.810000
21
4.956878
31
-0.694288
12
5.810000
22
4.974167
32
-0.685047
13
5.810000
23
4.974167
33
-0.685047
0
3DFACE
8
0
10
5.810000
20
4.974166
30
-0.869823
11
5.810000
21
4.956878
31
-0.860582
12
5.810000
22
4.467992
32
-0.860582
13
5.810000
23
4.467992
33
-0.860582
0
3DFACE
8
0
10
5.810000
20
4.431944
30
-0.679356
11
5.810000
21
4.941724
31
-0.706724
12
5.810000
22
4.956878
32
-0.694288
13
5.810000
23
4.956878
33
-0.694288
0
3DFACE
8
0
10
5.810000
20
4.956878
30
-0.860582
11
5.810000
21
4.941724
31
-0.848145
12
5.810000
22
4.467992
32
-0.860582
13
5.810000
23
4.467992
33
-0.860582
0
3DFACE
8
0
10
5.810000
20
4.431944
30
-0.679356
11
5.810000
21
4.929288
31
-0.721878
12
5.810000
22
4.941724
32
-0.706724
13
5.810000
23
4.941724
33
-0.706724
0
3DFACE
8
0
10
5.810000
20
4.929288
30
-0.832992
11
5.810000
21
4.483145
31
-0.848145
12
5.810000
22
4.467992
32
-0.860582
13
5.810000
23
4.467992
33
-0.860582
0
3DFACE
8
0
10
5.810000
20
4.467992
30
-0.860582
11
5.810000
21
4.941724
31
-0.848145
12
5.810000
22
4.929288
32
-0.832992
13
5.810000
23
4.929288
33
-0.832992
0
3DFACE
8
0
10
5.810000
20
4.992926
30
-0.875513
11
5.810000
21
4.974166
31
-0.869823
12
5.810000
22
4.467992
32
-0.860582
13
5.810000
23
4.467992
33
-0.860582
0
3DFACE
8
0
10
5.810000
20
4.431944
30
-0.679356
11
5.810000
21
4.450703
31
-0.685047
12
5.810000
22
4.920047
32
-0.739166
13
5.810000
23
4.920047
33
-0.739166
0
3DFACE
8
0
10
5.810000
20
4.920047
30
-0.739166
11
5.810000
21
4.929288
31
-0.721878
12
5.810000
22
4.431944
32
-0.679356
13
5.810000
23
4.431944
33
-0.679356
0
3DFACE
8
0
10
5.810000
20
4.929288
30
-0.832992
11
5.810000
21
4.495582
31
-0.832992
12
5.810000
22
4.483145
32
-0.848145
13
5.810000
23
4.483145
33
-0.848145
0
3DFACE
8
0
10
5.810000
20
4.431944
30
-0.875513
11
5.810000
21
4.412435
31
-0.877435
12
5.810000
22
6.162435
32
-0.974077
13
5.810000
23
6.162435
33
-0.974077
0
3DFACE
8
0
10
5.810000
20
4.929288
30
-0.832992
11
5.810000
21
4.920047
31
-0.815703
12
5.810000
22
4.504823
32
-0.815703
13
5.810000
23
4.504823
33
-0.815703
0
3DFACE
8
0
10
5.810000
20
4.504823
30
-0.815703
11
5.810000
21
4.495582
31
-0.832992
12
5.810000
22
4.929288
32
-0.832992
13
5.810000
23
4.929288
33
-0.832992
0
3DFACE
8
0
10
5.810000
20
4.412435
30
-0.877435
11
5.810000
21
4.392926
31
-0.875513
12
5.810000
22
2.862435
32
-0.977435
13
5.810000
23
2.862435
33
-0.977435
0
3DFACE
8
0
10
5.810000
20
4.412435
30
-0.877435
11
5.810000
21
2.862435
31
-0.977435
12
5.810000
22
6.162435
32
-0.974077
13
5.810000
23
6.162435
33
-0.974077
0
3DFACE
8
0
10
5.810000
20
4.392926
30
-0.875513
11
5.810000
21
4.374166
31
-0.869823
12
5.810000
22
2.862435
32
-0.977435
13
5.810000
23
2.862435
33
-0.977435
0
3DFACE
8
0
10
5.810000
20
4.450703
30
-0.869823
11
5.810000
21
4.431944
31
-0.875513
12
5.810000
22
6.162435
32
-0.974077
13
5.810000
23
6.162435
33
-0.974077
0
3DFACE
8
0
10
5.810000
20
6.162435
30
0.021834
11
5.810000
21
4.412435
31
-0.677435
12
5.810000
22
4.431944
32
-0.679356
13
5.810000
23
4.431944
33
-0.679356
0
3DFACE
8
0
10
5.810000
20
4.374166
30
-0.869823
11
5.810000
21
4.356878
31
-0.860582
12
5.810000
22
2.862435
32
-0.977435
13
5.810000
23
2.862435
33
-0.977435
0
3DFACE
8
0
10
5.810000
20
6.162435
30
0.021834
11
5.810000
21
4.392926
31
-0.679356
12
5.810000
22
4.412435
32
-0.677435
13
5.810000
23
4.412435
33
-0.677435
0
3DFACE
8
0
10
5.810000
20
4.450703
30
-0.685047
11
5.810000
21
4.467992
31
-0.694288
12
5.810000
22
4.920047
32
-0.739166
13
5.810000
23
4.920047
33
-0.739166
0
3DFACE
8
0
10
5.810000
20
6.162435
30
0.021834
11
5.810000
21
2.862435
31
-0.977435
12
5.810000
22
4.374166
32
-0.685047
13
5.810000
23
4.374166
33
-0.685047
0
3DFACE
8
0
10
5.810000
20
4.374166
30
-0.685047
11
5.810000
21
4.392926
31
-0.679356
12
5.810000
22
6.162435
32
0.021834
13
5.810000
23
6.162435
33
0.021834
0
3DFACE
8
0
10
5.810000
20
4.467992
30
-0.694288
11
5.810000
21
4.483146
31
-0.706724
12
5.810000
22
4.920047
32
-0.739166
13
5.810000
23
4.920047
33
-0.739166
0
3DFACE
8
0
10
5.810000
20
4.356878
30
-0.860582
11
5.810000
21
4.341724
31
-0.848145
12
5.810000
22
2.862435
32
-0.977435
13
5.810000
23
2.862435
33
-0.977435
0
3DFACE
8
0
10
5.810000
20
2.862435
30
-0.977435
11
5.810000
21
4.356878
31
-0.694288
12
5.810000
22
4.374166
32
-0.685047
13
5.810000
23
4.374166
33
-0.685047
0
3DFACE
8
0
10
5.810000
20
4.341724
30
-0.848145
11
5.810000
21
4.329288
31
-0.832992
12
5.810000
22
2.862435
32
-0.977435
13
5.810000
23
2.862435
33
-0.977435
0
3DFACE
8
0
10
5.810000
20
2.862435
30
-0.977435
11
5.810000
21
4.341724
31
-0.706724
12
5.810000
22
4.356878
32
-0.694288
13
5.810000
23
4.356878
33
-0.694288
0
3DFACE
8
0
10
5.810000
20
4.483146
30
-0.706724
11
5.810000
21
4.495582
31
-0.721878
12
5.810000
22
4.920047
32
-0.739166
13
5.810000
23
4.920047
33
-0.739166
0
3DFACE
8
0
10
5.810000
20
2.862435
30
-0.977435
11
5.810000
21
4.329288
31
-0.721878
12
5.810000
22
4.341724
32
-0.706724
13
5.810000
23
4.341724
33
-0.706724
0
3DFACE
8
0
10
5.810000
20
4.329288
30
-0.832992
11
5.810000
21
4.320047
31
-0.815703
12
5.810000
22
2.862435
32
-0.977435
13
5.810000
23
2.862435
33
-0.977435
0
3DFACE
8
0
10
5.810000
20
2.862435
30
-0.977435
11
5.810000
21
4.320047
31
-0.739166
12
5.810000
22
4.329288
32
-0.721878
13
5.810000
23
4.329288
33
-0.721878
0
3DFACE
8
0
10
5.810000
20
4.495582
30
-0.721878
11
5.810000
21
4.504823
31
-0.739166
12
5.810000
22
4.920047
32
-0.739166
13
5.810000
23
4.920047
33
-0.739166
0
3DFACE
8
0
10
5.810000
20
2.862435
30
-0.977435
11
5.810000
21
4.314356
31
-0.757926
12
5.810000
22
4.320047
32
-0.739166
13
5.810000
23
4.320047
33
-0.739166
0
3DFACE
8
0
10
5.810000
20
4.320047
30
-0.815703
11
5.810000
21
4.314356
31
-0.796944
12
5.810000
22
2.862435
32
-0.977435
13
5.810000
23
2.862435
33
-0.977435
0
3DFACE
8
0
10
5.810000
20
2.862435
30
-0.977435
11
5.810000
21
4.312435
31
-0.777435
12
5.810000
22
4.314356
32
-0.757926
13
5.810000
23
4.314356
33
-0.757926
0
3DFACE
8
0
10
5.810000
20
4.920047
30
-0.815703
11
5.810000
21
4.914356
31
-0.796944
12
5.810000
22
4.510513
32
-0.796944
13
5.810000
23
4.510513
33
-0.796944
0
3DFACE
8
0
10
5.810000
20
4.510513
30
-0.796944
11
5.810000
21
4.504823
31
-0.815703
12
5.810000
22
4.920047
32
-0.815703
13
5.810000
23
4.920047
33
-0.815703
0
3DFACE
8
0
10
5.810000
20
4.510513
30
-0.757926
11
5.810000
21
4.512435
31
-0.777435
12
5.810000
22
4.914356
32
-0.757926
13
5.810000
23
4.914356
33
-0.757926
0
3DFACE
8
0
10
5.810000
20
4.914356
30
-0.757926
11
5.810000
21
4.920047
31
-0.739166
12
5.810000
22
4.510513
32
-0.757926
13
5.810000
23
4.510513
33
-0.757926
0
3DFACE
8
0
10
5.810000
20
4.314356
30
-0.796944
11
5.810000
21
4.312435
31
-0.777435
12
5.810000
22
2.862435
32
-0.977435
13
5.810000
23
2.862435
33
-0.977435
0
3DFACE
8
0
10
5.810000
20
6.162435
30
0.021834
11
5.810000
21
6.162435
31
0.021934
12
5.810000
22
2.862435
32
-0.977435
13
5.810000
23
2.862435
33
-0.977435
0
3DFACE
8
0
10
5.810000
20
4.914356
30
-0.796944
11
5.810000
21
4.912435
31
-0.777435
12
5.810000
22
4.512435
32
-0.777435
13
5.810000
23
4.512435
33
-0.777435
0
3DFACE
8
0
10
5.810000
20
4.512435
30
-0.777435
11
5.810000
21
4.510513
31
-0.796944
12
5.810000
22
4.914356
32
-0.796944
13
5.810000
23
4.914356
33
-0.796944
0
3DFACE
8
0
10
5.810000
20
4.512435
30
-0.777435
11
5.810000
21
4.912435
31
-0.777435
12
5.810000
22
4.914356
32
-0.757926
13
5.810000
23
4.914356
33
-0.757926
0
3DFACE
8
0
10
5.810000
20
4.504823
30
-0.739166
11
5.810000
21
4.510513
31
-0.757926
12
5.810000
22
4.920047
32
-0.739166
13
5.810000
23
4.920047
33
-0.739166
0
3DFACE
8
0
10
5.810000
20
2.862435
30
-0.977435
11
5.810000
21
6.162435
31
-0.974588
12
5.810000
22
6.162435
32
-0.974360
13
5.810000
23
6.162435
33
-0.974360
0
3DFACE
8
0
10
5.810000
20
6.162435
30
-0.974360
11
5.810000
21
6.162435
31
-0.974188
12
5.810000
22
2.862435
32
-0.977435
13
5.810000
23
2.862435
33
-0.977435
0
3DFACE
8
0
10
5.810000
20
2.862435
30
-0.977435
11
5.810000
21
6.162435
31
-0.975162
12
5.810000
22
6.162435
32
-0.974859
13
5.810000
23
6.162435
33
-0.974859
0
3DFACE
8
0
10
5.810000
20
6.162435
30
-0.974859
11
5.810000
21
6.162435
31
-0.974588
12
5.810000
22
2.862435
32
-0.977435
13
5.810000
23
2.862435
33
-0.977435
0
3DFACE
8
0
10
5.810000
20
2.862435
30
-0.977435
11
5.810000
21
6.162435
31
-0.975791
12
5.810000
22
6.162435
32
-0.975478
13
5.810000
23
6.162435
33
-0.975478
0
3DFACE
8
0
10
5.810000
20
6.162435
30
-0.975478
11
5.810000
21
6.162435
31
-0.975162
12
5.810000
22
2.862435
32
-0.977435
13
5.810000
23
2.862435
33
-0.977435
0
3DFACE
8
0
10
5.810000
20
2.862435
30
-0.977435
11
5.810000
21
6.162435
31
-0.976338
12
5.810000
22
6.162435
32
-0.976082
13
5.810000
23
6.162435
33
-0.976082
0
3DFACE
8
0
10
5.810000
20
6.162435
30
-0.976082
11
5.810000
21
6.162435
31
-0.975791
12
5.810000
22
2.862435
32
-0.977435
13
5.810000
23
2.862435
33
-0.977435
0
3DFACE
8
0
10
5.810000
20
2.862435
30
-0.977435
11
5.810000
21
6.162435
31
-0.976704
12
5.810000
22
6.162435
32
-0.976547
13
5.810000
23
6.162435
33
-0.976547
0
3DFACE
8
0
10
5.810000
20
6.162435
30
-0.976547
11
5.810000
21
6.162435
31
-0.976338
12
5.810000
22
2.862435
32
-0.977435
13
5.810000
23
2.862435
33
-0.977435
0
3DFACE
8
0
10
5.810000
20
2.862435
30
-0.977435
11
5.810000
21
6.162435
31
-0.977435
12
5.810000
22
6.162435
32
-0.976803
13
5.810000
23
6.162435
33
-0.976803
0
3DFACE
8
0
10
5.810000
20
6.162435
30
-0.976803
11
5.810000
21
6.162435
31
-0.976704
12
5.810000
22
2.862435
32
-0.977435
13
5.810000
23
2.862435
33
-0.977435
0
3DFACE
8
0
10
5.810000
20
2.862435
30
-0.977435
11
5.810000
21
6.162435
31
-0.974188
12
5.810000
22
6.162435
32
-0.974077
13
5.810000
23
6.162435
33
-0.974077
0
3DFACE
8
0
10
5.810000
20
4.974167
30
-0.269822
11
5.810000
21
4.956878
31
-0.260581
12
5.810000
22
4.467992
32
-0.260582
13
5.810000
23
4.467992
33
-0.260582
0
3DFACE
8
0
10
5.810000
20
4.941724
30
-0.248145
11
5.810000
21
4.483145
31
-0.248145
12
5.810000
22
4.467992
32
-0.260582
13
5.810000
23
4.467992
33
-0.260582
0
3DFACE
8
0
10
5.810000
20
4.467992
30
-0.260582
11
5.810000
21
4.956878
31
-0.260581
12
5.810000
22
4.941724
32
-0.248145
13
5.810000
23
4.941724
33
-0.248145
0
3DFACE
8
0
10
5.810000
20
4.467992
30
-0.260582
11
5.810000
21
4.450703
31
-0.269823
12
5.810000
22
4.992926
32
-0.275513
13
5.810000
23
4.992926
33
-0.275513
0
3DFACE
8
0
10
5.810000
20
4.992926
30
-0.275513
11
5.810000
21
4.974167
31
-0.269822
12
5.810000
22
4.467992
32
-0.260582
13
5.810000
23
4.467992
33
-0.260582
0
3DFACE
8
0
10
5.810000
20
4.450703
30
-0.269823
11
5.810000
21
2.862435
31
-0.977435
12
5.810000
22
5.012435
32
-0.277435
13
5.810000
23
5.012435
33
-0.277435
0
3DFACE
8
0
10
5.810000
20
5.012435
30
-0.277435
11
5.810000
21
4.992926
31
-0.275513
12
5.810000
22
4.450703
32
-0.269823
13
5.810000
23
4.450703
33
-0.269823
0
3DFACE
8
0
10
5.810000
20
2.862435
30
-0.977435
11
5.810000
21
5.031944
31
-0.275513
12
5.810000
22
5.012435
32
-0.277435
13
5.810000
23
5.012435
33
-0.277435
0
3DFACE
8
0
10
5.810000
20
2.862435
30
-0.977435
11
5.810000
21
6.162435
31
0.021934
12
5.810000
22
5.050703
32
-0.269823
13
5.810000
23
5.050703
33
-0.269823
0
3DFACE
8
0
10
5.810000
20
5.050703
30
-0.269823
11
5.810000
21
5.031944
31
-0.275513
12
5.810000
22
2.862435
32
-0.977435
13
5.810000
23
2.862435
33
-0.977435
0
3DFACE
8
0
10
5.810000
20
4.941724
30
-0.248145
11
5.810000
21
4.495582
31
-0.232992
12
5.810000
22
4.483145
32
-0.248145
13
5.810000
23
4.483145
33
-0.248145
0
3DFACE
8
0
10
5.810000
20
6.162435
30
0.021934
11
5.810000
21
5.067992
31
-0.260582
12
5.810000
22
5.050703
32
-0.269823
13
5.810000
23
5.050703
33
-0.269823
0
3DFACE
8
0
10
5.810000
20
6.162435
30
0.021934
11
5.810000
21
5.083146
31
-0.248145
12
5.810000
22
5.067992
32
-0.260582
13
5.810000
23
5.067992
33
-0.260582
0
3DFACE
8
0
10
5.810000
20
6.162435
30
0.021934
11
5.810000
21
5.095582
31
-0.232992
12
5.810000
22
5.083146
32
-0.248145
13
5.810000
23
5.083146
33
-0.248145
0
3DFACE
8
0
10
5.810000
20
6.162435
30
0.021934
11
5.810000
21
5.104823
31
-0.215703
12
5.810000
22
5.095582
32
-0.232992
13
5.810000
23
5.095582
33
-0.232992
0
3DFACE
8
0
10
5.810000
20
6.162435
30
0.021934
11
5.810000
21
5.110514
31
-0.196944
12
5.810000
22
5.104823
32
-0.215703
13
5.810000
23
5.104823
33
-0.215703
0
3DFACE
8
0
10
5.810000
20
6.162435
30
0.021934
11
5.810000
21
5.112435
31
-0.177435
12
5.810000
22
5.110514
32
-0.196944
13
5.810000
23
5.110514
33
-0.196944
0
3DFACE
8
0
10
5.810000
20
6.162435
30
0.021934
11
5.810000
21
5.110514
31
-0.157926
12
5.810000
22
5.112435
32
-0.177435
13
5.810000
23
5.112435
33
-0.177435
0
3DFACE
8
0
10
5.810000
20
6.162435
30
0.021934
11
5.810000
21
5.104823
31
-0.139166
12
5.810000
22
5.110514
32
-0.157926
13
5.810000
23
5.110514
33
-0.157926
0
3DFACE
8
0
10
5.810000
20
6.162435
30
0.021934
11
5.810000
21
5.095582
31
-0.121878
12
5.810000
22
5.104823
32
-0.139166
13
5.810000
23
5.104823
33
-0.139166
0
3DFACE
8
0
10
5.810000
20
6.162435
30
0.021934
11
5.810000
21
5.083146
31
-0.106724
12
5.810000
22
5.095582
32
-0.121878
13
5.810000
23
5.095582
33
-0.121878
0
3DFACE
8
0
10
5.810000
20
6.162435
30
0.021934
11
5.810000
21
5.067992
31
-0.094288
12
5.810000
22
5.083146
32
-0.106724
13
5.810000
23
5.083146
33
-0.106724
0
3DFACE
8
0
10
5.810000
20
6.162435
30
0.021934
11
5.810000
21
5.050704
31
-0.085047
12
5.810000
22
5.067992
32
-0.094288
13
5.810000
23
5.067992
33
-0.094288
0
3DFACE
8
0
10
5.810000
20
6.162435
30
0.021934
11
5.810000
21
5.031944
31
-0.079356
12
5.810000
22
5.050704
32
-0.085047
13
5.810000
23
5.050704
33
-0.085047
0
3DFACE
8
0
10
5.810000
20
6.162435
30
0.021934
11
5.810000
21
5.012435
31
-0.077435
12
5.810000
22
5.031944
32
-0.079356
13
5.810000
23
5.031944
33
-0.079356
0
3DFACE
8
0
10
5.810000
20
6.162435
30
0.021934
11
5.810000
21
4.483146
31
-0.106724
12
5.810000
22
4.495582
32
-0.121878
13
5.810000
23
4.495582
33
-0.121878
0
3DFACE
8
0
10
5.810000
20
4.495582
30
-0.121878
11
5.810000
21
5.012435
31
-0.077435
12
5.810000
22
6.162435
32
0.021934
13
5.810000
23
6.162435
33
0.021934
0
3DFACE
8
0
10
5.810000
20
4.941724
30
-0.248145
11
5.810000
21
4.929288
31
-0.232992
12
5.810000
22
4.504823
32
-0.215703
13
5.810000
23
4.504823
33
-0.215703
0
3DFACE
8
0
10
5.810000
20
4.504823
30
-0.215703
11
5.810000
21
4.495582
31
-0.232992
12
5.810000
22
4.941724
32
-0.248145
13
5.810000
23
4.941724
33
-0.248145
0
3DFACE
8
0
10
5.810000
20
4.504823
30
-0.139166
11
5.810000
21
4.974167
31
-0.085047
12
5.810000
22
4.992926
32
-0.079356
13
5.810000
23
4.992926
33
-0.079356
0
3DFACE
8
0
10
5.810000
20
4.992926
30
-0.079356
11
5.810000
21
4.495582
31
-0.121878
12
5.810000
22
4.504823
32
-0.139166
13
5.810000
23
4.504823
33
-0.139166
0
3DFACE
8
0
10
5.810000
20
4.920047
30
-0.215703
11
5.810000
21
4.510513
31
-0.196944
12
5.810000
22
4.504823
32
-0.215703
13
5.810000
23
4.504823
33
-0.215703
0
3DFACE
8
0
10
5.810000
20
4.504823
30
-0.215703
11
5.810000
21
4.929288
31
-0.232992
12
5.810000
22
4.920047
32
-0.215703
13
5.810000
23
4.920047
33
-0.215703
0
3DFACE
8
0
10
5.810000
20
4.412435
30
-0.277435
11
5.810000
21
4.392926
31
-0.275513
12
5.810000
22
2.862435
32
-0.977435
13
5.810000
23
2.862435
33
-0.977435
0
3DFACE
8
0
10
5.810000
20
4.495582
30
-0.121878
11
5.810000
21
4.992926
31
-0.079356
12
5.810000
22
5.012435
32
-0.077435
13
5.810000
23
5.012435
33
-0.077435
0
3DFACE
8
0
10
5.810000
20
4.392926
30
-0.275513
11
5.810000
21
4.374166
31
-0.269822
12
5.810000
22
2.862435
32
-0.977435
13
5.810000
23
2.862435
33
-0.977435
0
3DFACE
8
0
10
5.810000
20
6.162435
30
0.021934
11
5.810000
21
4.467992
31
-0.094288
12
5.810000
22
4.483146
32
-0.106724
13
5.810000
23
4.483146
33
-0.106724
0
3DFACE
8
0
10
5.810000
20
4.450703
30
-0.269823
11
5.810000
21
4.431944
31
-0.275513
12
5.810000
22
2.862435
32
-0.977435
13
5.810000
23
2.862435
33
-0.977435
0
3DFACE
8
0
10
5.810000
20
6.162435
30
0.021934
11
5.810000
21
4.450703
31
-0.085047
12
5.810000
22
4.467992
32
-0.094288
13
5.810000
23
4.467992
33
-0.094288
0
3DFACE
8
0
10
5.810000
20
4.374166
30
-0.269822
11
5.810000
21
4.356878
31
-0.260581
12
5.810000
22
2.862435
32
-0.977435
13
5.810000
23
2.862435
33
-0.977435
0
3DFACE
8
0
10
5.810000
20
6.162435
30
0.021934
11
5.810000
21
4.431944
31
-0.079356
12
5.810000
22
4.450703
32
-0.085047
13
5.810000
23
4.450703
33
-0.085047
0
3DFACE
8
0
10
5.810000
20
4.504823
30
-0.139166
11
5.810000
21
4.956878
31
-0.094288
12
5.810000
22
4.974167
32
-0.085047
13
5.810000
23
4.974167
33
-0.085047
0
3DFACE
8
0
10
5.810000
20
6.162435
30
0.021934
11
5.810000
21
4.412435
31
-0.077435
12
5.810000
22
4.431944
32
-0.079356
13
5.810000
23
4.431944
33
-0.079356
0
3DFACE
8
0
10
5.810000
20
4.356878
30
-0.260581
11
5.810000
21
4.341724
31
-0.248145
12
5.810000
22
2.862435
32
-0.977435
13
5.810000
23
2.862435
33
-0.977435
0
3DFACE
8
0
10
5.810000
20
6.162435
30
0.021934
11
5.810000
21
6.162435
31
0.022565
12
5.810000
22
2.862435
32
0.022565
13
5.810000
23
2.862435
33
0.022565
0
3DFACE
8
0
10
5.810000
20
2.862435
30
0.022565
11
5.810000
21
4.412435
31
-0.077435
12
5.810000
22
6.162435
32
0.021934
13
5.810000
23
6.162435
33
0.021934
0
3DFACE
8
0
10
5.810000
20
4.504823
30
-0.139166
11
5.810000
21
4.941724
31
-0.106724
12
5.810000
22
4.956878
32
-0.094288
13
5.810000
23
4.956878
33
-0.094288
0
3DFACE
8
0
10
5.810000
20
2.862435
30
0.022565
11
5.810000
21
4.374166
31
-0.085047
12
5.810000
22
4.392926
32
-0.079356
13
5.810000
23
4.392926
33
-0.079356
0
3DFACE
8
0
10
5.810000
20
4.341724
30
-0.248145
11
5.810000
21
4.329288
31
-0.232992
12
5.810000
22
2.862435
32
-0.977435
13
5.810000
23
2.862435
33
-0.977435
0
3DFACE
8
0
10
5.810000
20
2.862435
30
0.022565
11
5.810000
21
4.356878
31
-0.094288
12
5.810000
22
4.374166
32
-0.085047
13
5.810000
23
4.374166
33
-0.085047
0
3DFACE
8
0
10
5.810000
20
4.504823
30
-0.139166
11
5.810000
21
4.929288
31
-0.121877
12
5.810000
22
4.941724
32
-0.106724
13
5.810000
23
4.941724
33
-0.106724
0
3DFACE
8
0
10
5.810000
20
2.862435
30
0.022565
11
5.810000
21
4.341724
31
-0.106724
12
5.810000
22
4.356878
32
-0.094288
13
5.810000
23
4.356878
33
-0.094288
0
3DFACE
8
0
10
5.810000
20
4.329288
30
-0.232992
11
5.810000
21
4.320047
31
-0.215703
12
5.810000
22
2.862435
32
-0.977435
13
5.810000
23
2.862435
33
-0.977435
0
3DFACE
8
0
10
5.810000
20
2.862435
30
0.022565
11
5.810000
21
4.329288
31
-0.121877
12
5.810000
22
4.341724
32
-0.106724
13
5.810000
23
4.341724
33
-0.106724
0
3DFACE
8
0
10
5.810000
20
4.504823
30
-0.139166
11
5.810000
21
4.920047
31
-0.139166
12
5.810000
22
4.929288
32
-0.121877
13
5.810000
23
4.929288
33
-0.121877
0
3DFACE
8
0
10
5.810000
20
2.862435
30
0.022565
11
5.810000
21
4.320047
31
-0.139166
12
5.810000
22
4.329288
32
-0.121877
13
5.810000
23
4.329288
33
-0.121877
0
3DFACE
8
0
10
5.810000
20
4.320047
30
-0.215703
11
5.810000
21
4.314356
31
-0.196944
12
5.810000
22
2.862435
32
-0.977435
13
5.810000
23
2.862435
33
-0.977435
0
3DFACE
8
0
10
5.810000
20
2.862435
30
0.022565
11
5.810000
21
4.314356
31
-0.157925
12
5.810000
22
4.320047
32
-0.139166
13
5.810000
23
4.320047
33
-0.139166
0
3DFACE
8
0
10
5.810000
20
4.431944
30
-0.275513
11
5.810000
21
4.412435
31
-0.277435
12
5.810000
22
2.862435
32
-0.977435
13
5.810000
23
2.862435
33
-0.977435
0
3DFACE
8
0
10
5.810000
20
4.504823
30
-0.139166
11
5.810000
21
4.510513
31
-0.157926
12
5.810000
22
4.914356
32
-0.157925
13
5.810000
23
4.914356
33
-0.157925
0
3DFACE
8
0
10
5.810000
20
4.914356
30
-0.157925
11
5.810000
21
4.920047
31
-0.139166
12
5.810000
22
4.504823
32
-0.139166
13
5.810000
23
4.504823
33
-0.139166
0
3DFACE
8
0
10
5.810000
20
4.914356
30
-0.196944
11
5.810000
21
4.512435
31
-0.177435
12
5.810000
22
4.510513
32
-0.196944
13
5.810000
23
4.510513
33
-0.196944
0
3DFACE
8
0
10
5.810000
20
4.510513
30
-0.196944
11
5.810000
21
4.920047
31
-0.215703
12
5.810000
22
4.914356
32
-0.196944
13
5.810000
23
4.914356
33
-0.196944
0
3DFACE
8
0
10
5.810000
20
2.862435
30
0.022565
11
5.810000
21
4.392926
31
-0.079356
12
5.810000
22
4.412435
32
-0.077435
13
5.810000
23
4.412435
33
-0.077435
0
3DFACE
8
0
10
5.810000
20
4.512435
30
-0.177435
11
5.810000
21
4.912435
31
-0.177435
12
5.810000
22
4.914356
32
-0.157925
13
5.810000
23
4.914356
33
-0.157925
0
3DFACE
8
0
10
5.810000
20
4.914356
30
-0.157925
11
5.810000
21
4.510513
31
-0.157926
12
5.810000
22
4.512435
32
-0.177435
13
5.810000
23
4.512435
33
-0.177435
0
3DFACE
8
0
10
5.810000
20
2.862435
30
0.022565
11
5.810000
21
2.862435
31
-0.977435
12
5.810000
22
4.312435
32
-0.177434
13
5.810000
23
4.312435
33
-0.177434
0
3DFACE
8
0
10
5.810000
20
4.312435
30
-0.177434
11
5.810000
21
4.314356
31
-0.157925
12
5.810000
22
2.862435
32
0.022565
13
5.810000
23
2.862435
33
0.022565
0
3DFACE
8
0
10
5.810000
20
4.314356
30
-0.196944
11
5.810000
21
4.312435
31
-0.177434
12
5.810000
22
2.862435
32
-0.977435
13
5.810000
23
2.862435
33
-0.977435
0
3DFACE
8
0
10
5.810000
20
4.914356
30
-0.196944
11
5.810000
21
4.912435
31
-0.177435
12
5.810000
22
4.512435
32
-0.177435
13
5.810000
23
4.512435
33
-0.177435
0
3DFACE
8
0
10
5.800001
20
6.562435
30
0.022565
11
5.800001
21
6.162435
31
0.022565
12
5.810000
22
6.162435
32
0.022565
13
5.810000
23
6.162435
33
0.022565
0
3DFACE
8
0
10
5.810000
20
6.162435
30
0.022565
11
5.810000
21
6.562435
31
0.022565
12
5.800001
22
6.562435
32
0.022565
13
5.800001
23
6.562435
33
0.022565
0
3DFACE
8
0
10
5.810000
20
2.862435
30
0.022565
11
5.810000
21
6.162435
31
0.022565
12
5.800001
22
6.162435
32
0.022565
13
5.800001
23
6.162435
33
0.022565
0
3DFACE
8
0
10
5.800001
20
6.162435
30
0.022565
11
5.410000
21
2.862435
31
0.022565
12
5.810000
22
2.862435
32
0.022565
13
5.810000
23
2.862435
33
0.022565
0
3DFACE
8
0
10
5.800001
20
6.162435
30
0.022565
11
5.800001
21
6.562435
31
0.022565
12
5.410000
22
6.562435
32
0.022565
13
5.410000
23
6.562435
33
0.022565
0
3DFACE
8
0
10
5.410000
20
6.562435
30
0.022565
11
5.410000
21
2.862435
31
0.022565
12
5.800001
22
6.162435
32
0.022565
13
5.800001
23
6.162435
33
0.022565
0
3DFACE
8
0
10
5.410000
20
2.862435
30
0.022565
11
5.410000
21
2.862435
31
-0.977435
12
5.810000
22
2.862435
32
-0.977435
13
5.810000
23
2.862435
33
-0.977435
0
3DFACE
8
0
10
5.810000
20
2.862435
30
-0.977435
11
5.810000
21
2.862435
31
0.022565
12
5.410000
22
2.862435
32
0.022565
13
5.410000
23
2.862435
33
0.022565
0
3DFACE
8
0
10
5.410000
20
6.562435
30
0.022565
11
5.800001
21
6.562435
31
0.022565
12
5.800001
22
6.562435
32
-0.977435
13
5.800001
23
6.562435
33
-0.977435
0
3DFACE
8
0
10
5.800001
20
6.562435
30
-0.977435
11
5.410000
21
6.562435
31
-0.977435
12
5.410000
22
6.562435
32
0.022565
13
5.410000
23
6.562435
33
0.022565
0
3DFACE
8
0
10
5.800001
20
6.562436
30
-0.977435
11
5.800001
21
6.562435
31
-0.977435
12
5.800001
22
6.562435
32
0.022565
13
5.800001
23
6.562435
33
0.022565
0
3DFACE
8
0
10
5.800001
20
6.562435
30
0.022565
11
5.800001
21
6.562436
31
0.022565
12
5.800001
22
6.562436
32
-0.977435
13
5.800001
23
6.562436
33
-0.977435
0
3DFACE
8
0
10
5.800001
20
6.562436
30
-0.977435
11
8.800000
21
6.562436
31
-0.977435
12
5.810000
22
6.562435
32
-0.977435
13
5.810000
23
6.562435
33
-0.977435
0
3DFACE
8
0
10
5.810000
20
6.562435
30
-0.977435
11
5.800001
21
6.562435
31
-0.977435
12
5.800001
22
6.562436
32
-0.977435
13
5.800001
23
6.562436
33
-0.977435
0
3DFACE
8
0
10
8.800000
20
6.162435
30
-0.977435
11
5.810000
21
6.162435
31
-0.977435
12
5.810000
22
6.562435
32
-0.977435
13
5.810000
23
6.562435
33
-0.977435
0
3DFACE
8
0
10
5.810000
20
6.562435
30
-0.977435
11
8.800000
21
6.562436
31
-0.977435
12
8.800000
22
6.162435
32
-0.977435
13
8.800000
23
6.162435
33
-0.977435
0
3DFACE
8
0
10
8.800000
20
6.562436
30
-0.977435
11
8.800000
21
6.562436
31
0.022565
12
8.800000
22
6.162435
32
0.022565
13
8.800000
23
6.162435
33
0.022565
0
3DFACE
8
0
10
8.800000
20
6.162435
30
0.022565
11
8.800000
21
6.162435
31
-0.977435
12
8.800000
22
6.562436
32
-0.977435
13
8.800000
23
6.562436
33
-0.977435
0
3DFACE
8
0
10
5.800001
20
6.562436
30
0.022565
11
5.800001
21
6.562435
31
0.022565
12
5.810000
22
6.562435
32
0.022565
13
5.810000
23
6.562435
33
0.022565
0
3DFACE
8
0
10
5.810000
20
6.562435
30
0.022565
11
8.800000
21
6.562436
31
0.022565
12
5.800001
22
6.562436
32
0.022565
13
5.800001
23
6.562436
33
0.022565
0
3DFACE
8
0
10
8.800000
20
6.162435
30
0.022565
11
8.800000
21
6.562436
31
0.022565
12
5.810000
22
6.562435
32
0.022565
13
5.810000
23
6.562435
33
0.022565
0
3DFACE
8
0
10
5.810000
20
6.562435
30
0.022565
11
5.810000
21
6.162435
31
0.022565
12
8.800000
22
6.162435
32
0.022565
13
8.800000
23
6.162435
33
0.022565
0
3DFACE
8
0
10
8.026642
20
6.162435
30
-0.343496
11
8.058986
21
6.162435
31
-0.282985
12
5.810000
22
6.162435
32
-0.974360
13
5.810000
23
6.162435
33
-0.974360
0
3DFACE
8
0
10
5.810000
20
6.162435
30
-0.974360
11
5.810000
21
6.162435
31
-0.974588
12
8.026642
22
6.162435
32
-0.343496
13
8.026642
23
6.162435
33
-0.343496
0
3DFACE
8
0
10
8.006725
20
6.162435
30
-0.409153
11
8.026642
21
6.162435
31
-0.343496
12
5.810000
22
6.162435
32
-0.974588
13
5.810000
23
6.162435
33
-0.974588
0
3DFACE
8
0
10
5.810000
20
6.162435
30
-0.974588
11
5.810000
21
6.162435
31
-0.974859
12
8.006725
22
6.162435
32
-0.409153
13
8.006725
23
6.162435
33
-0.409153
0
3DFACE
8
0
10
8.000000
20
6.162435
30
-0.477435
11
8.006725
21
6.162435
31
-0.409153
12
5.810000
22
6.162435
32
-0.974859
13
5.810000
23
6.162435
33
-0.974859
0
3DFACE
8
0
10
5.810000
20
6.162435
30
-0.974859
11
5.810000
21
6.162435
31
-0.975162
12
8.000000
22
6.162435
32
-0.477435
13
8.000000
23
6.162435
33
-0.477435
0
3DFACE
8
0
10
8.006725
20
6.162435
30
-0.545717
11
8.000000
21
6.162435
31
-0.477435
12
5.810000
22
6.162435
32
-0.975162
13
5.810000
23
6.162435
33
-0.975162
0
3DFACE
8
0
10
5.810000
20
6.162435
30
-0.975162
11
5.810000
21
6.162435
31
-0.975478
12
8.006725
22
6.162435
32
-0.545717
13
8.006725
23
6.162435
33
-0.545717
0
3DFACE
8
0
10
5.810000
20
6.162435
30
-0.975791
11
8.026643
21
6.162435
31
-0.611374
12
8.006725
22
6.162435
32
-0.545717
13
8.006725
23
6.162435
33
-0.545717
0
3DFACE
8
0
10
8.006725
20
6.162435
30
-0.545717
11
5.810000
21
6.162435
31
-0.975478
12
5.810000
22
6.162435
32
-0.975791
13
5.810000
23
6.162435
33
-0.975791
0
3DFACE
8
0
10
5.810000
20
6.162435
30
-0.976082
11
8.058986
21
6.162435
31
-0.671885
12
8.026643
22
6.162435
32
-0.611374
13
8.026643
23
6.162435
33
-0.611374
0
3DFACE
8
0
10
8.026643
20
6.162435
30
-0.611374
11
5.810000
21
6.162435
31
-0.975791
12
5.810000
22
6.162435
32
-0.976082
13
5.810000
23
6.162435
33
-0.976082
0
3DFACE
8
0
10
5.810000
20
6.162435
30
-0.976338
11
8.102513
21
6.162435
31
-0.724922
12
8.058986
22
6.162435
32
-0.671885
13
8.058986
23
6.162435
33
-0.671885
0
3DFACE
8
0
10
8.058986
20
6.162435
30
-0.671885
11
5.810000
21
6.162435
31
-0.976082
12
5.810000
22
6.162435
32
-0.976338
13
5.810000
23
6.162435
33
-0.976338
0
3DFACE
8
0
10
5.810000
20
6.162435
30
-0.976547
11
8.155551
21
6.162435
31
-0.768449
12
8.102513
22
6.162435
32
-0.724922
13
8.102513
23
6.162435
33
-0.724922
0
3DFACE
8
0
10
8.102513
20
6.162435
30
-0.724922
11
5.810000
21
6.162435
31
-0.976338
12
5.810000
22
6.162435
32
-0.976547
13
5.810000
23
6.162435
33
-0.976547
0
3DFACE
8
0
10
5.810000
20
6.162435
30
-0.976704
11
8.216062
21
6.162435
31
-0.800793
12
8.155551
22
6.162435
32
-0.768449
13
8.155551
23
6.162435
33
-0.768449
0
3DFACE
8
0
10
8.155551
20
6.162435
30
-0.768449
11
5.810000
21
6.162435
31
-0.976547
12
5.810000
22
6.162435
32
-0.976704
13
5.810000
23
6.162435
33
-0.976704
0
3DFACE
8
0
10
5.810000
20
6.162435
30
-0.976803
11
8.281719
21
6.162435
31
-0.820710
12
8.216062
22
6.162435
32
-0.800793
13
8.216062
23
6.162435
33
-0.800793
0
3DFACE
8
0
10
8.216062
20
6.162435
30
-0.800793
11
5.810000
21
6.162435
31
-0.976704
12
5.810000
22
6.162435
32
-0.976803
13
5.810000
23
6.162435
33
-0.976803
0
3DFACE
8
0
10
5.810000
20
6.162435
30
-0.977435
11
8.350000
21
6.162435
31
-0.827435
12
8.281719
22
6.162435
32
-0.820710
13
8.281719
23
6.162435
33
-0.820710
0
3DFACE
8
0
10
8.281719
20
6.162435
30
-0.820710
11
5.810000
21
6.162435
31
-0.976803
12
5.810000
22
6.162435
32
-0.977435
13
5.810000
23
6.162435
33
-0.977435
0
3DFACE
8
0
10
5.810000
20
6.162435
30
-0.977435
11
8.800000
21
6.162435
31
-0.977435
12
8.350000
22
6.162435
32
-0.827435
13
8.350000
23
6.162435
33
-0.827435
0
3DFACE
8
0
10
8.058986
20
6.162435
30
-0.282985
11
8.102512
21
6.162435
31
-0.229947
12
5.810000
22
6.162435
32
-0.974188
13
5.810000
23
6.162435
33
-0.974188
0
3DFACE
8
0
10
5.810000
20
6.162435
30
-0.974188
11
5.810000
21
6.162435
31
-0.974360
12
8.058986
22
6.162435
32
-0.282985
13
8.058986
23
6.162435
33
-0.282985
0
3DFACE
8
0
10
8.800000
20
6.162435
30
-0.977435
11
8.418282
21
6.162435
31
-0.820709
12
8.350000
22
6.162435
32
-0.827435
13
8.350000
23
6.162435
33
-0.827435
0
3DFACE
8
0
10
8.800000
20
6.162435
30
-0.977435
11
8.483939
21
6.162435
31
-0.800792
12
8.418282
22
6.162435
32
-0.820709
13
8.418282
23
6.162435
33
-0.820709
0
3DFACE
8
0
10
8.800000
20
6.162435
30
-0.977435
11
8.544450
21
6.162435
31
-0.768449
12
8.483939
22
6.162435
32
-0.800792
13
8.483939
23
6.162435
33
-0.800792
0
3DFACE
8
0
10
8.800000
20
6.162435
30
-0.977435
11
8.597487
21
6.162435
31
-0.724922
12
8.544450
22
6.162435
32
-0.768449
13
8.544450
23
6.162435
33
-0.768449
0
3DFACE
8
0
10
8.800000
20
6.162435
30
-0.977435
11
8.641014
21
6.162435
31
-0.671884
12
8.597487
22
6.162435
32
-0.724922
13
8.597487
23
6.162435
33
-0.724922
0
3DFACE
8
0
10
8.800000
20
6.162435
30
-0.977435
11
8.673358
21
6.162435
31
-0.611374
12
8.641014
22
6.162435
32
-0.671884
13
8.641014
23
6.162435
33
-0.671884
0
3DFACE
8
0
10
8.800000
20
6.162435
30
-0.977435
11
8.693274
21
6.162435
31
-0.545716
12
8.673358
22
6.162435
32
-0.611374
13
8.673358
23
6.162435
33
-0.611374
0
3DFACE
8
0
10
8.800000
20
6.162435
30
-0.977435
11
8.700000
21
6.162435
31
-0.477435
12
8.693274
22
6.162435
32
-0.545716
13
8.693274
23
6.162435
33
-0.545716
0
3DFACE
8
0
10
8.800000
20
6.162435
30
-0.977435
11
8.800000
21
6.162435
31
0.022565
12
8.693274
22
6.162435
32
-0.409153
13
8.693274
23
6.162435
33
-0.409153
0
3DFACE
8
0
10
8.693274
20
6.162435
30
-0.409153
11
8.700000
21
6.162435
31
-0.477435
12
8.800000
22
6.162435
32
-0.977435
13
8.800000
23
6.162435
33
-0.977435
0
3DFACE
8
0
10
8.102512
20
6.162435
30
-0.229947
11
8.155550
21
6.162435
31
-0.186420
12
5.810000
22
6.162435
32
-0.974077
13
5.810000
23
6.162435
33
-0.974077
0
3DFACE
8
0
10
5.810000
20
6.162435
30
-0.974077
11
5.810000
21
6.162435
31
-0.974188
12
8.102512
22
6.162435
32
-0.229947
13
8.102512
23
6.162435
33
-0.229947
0
3DFACE
8
0
10
8.800000
20
6.162435
30
0.022565
11
8.673358
21
6.162435
31
-0.343495
12
8.693274
22
6.162435
32
-0.409153
13
8.693274
23
6.162435
33
-0.409153
0
3DFACE
8
0
10
8.800000
20
6.162435
30
0.022565
11
8.641014
21
6.162435
31
-0.282985
12
8.673358
22
6.162435
32
-0.343495
13
8.673358
23
6.162435
33
-0.343495
0
3DFACE
8
0
10
8.800000
20
6.162435
30
0.022565
11
8.597487
21
6.162435
31
-0.229947
12
8.641014
22
6.162435
32
-0.282985
13
8.641014
23
6.162435
33
-0.282985
0
3DFACE
8
0
10
8.800000
20
6.162435
30
0.022565
11
8.544450
21
6.162435
31
-0.186420
12
8.597487
22
6.162435
32
-0.229947
13
8.597487
23
6.162435
33
-0.229947
0
3DFACE
8
0
10
8.800000
20
6.162435
30
0.022565
11
8.483939
21
6.162435
31
-0.154077
12
8.544450
22
6.162435
32
-0.186420
13
8.544450
23
6.162435
33
-0.186420
0
3DFACE
8
0
10
8.155550
20
6.162435
30
-0.186420
11
8.216061
21
6.162435
31
-0.154077
12
5.810000
22
6.162435
32
0.021834
13
5.810000
23
6.162435
33
0.021834
0
3DFACE
8
0
10
5.810000
20
6.162435
30
0.021834
11
5.810000
21
6.162435
31
-0.974077
12
8.155550
22
6.162435
32
-0.186420
13
8.155550
23
6.162435
33
-0.186420
0
3DFACE
8
0
10
8.216061
20
6.162435
30
-0.154077
11
8.281718
21
6.162435
31
-0.134160
12
5.810000
22
6.162435
32
0.021934
13
5.810000
23
6.162435
33
0.021934
0
3DFACE
8
0
10
5.810000
20
6.162435
30
0.021934
11
5.810000
21
6.162435
31
0.021834
12
8.216061
22
6.162435
32
-0.154077
13
8.216061
23
6.162435
33
-0.154077
0
3DFACE
8
0
10
8.281718
20
6.162435
30
-0.134160
11
8.350000
21
6.162435
31
-0.127435
12
5.810000
22
6.162435
32
0.022565
13
5.810000
23
6.162435
33
0.022565
0
3DFACE
8
0
10
5.810000
20
6.162435
30
0.022565
11
5.810000
21
6.162435
31
0.021934
12
8.281718
22
6.162435
32
-0.134160
13
8.281718
23
6.162435
33
-0.134160
0
3DFACE
8
0
10
8.350000
20
6.162435
30
-0.127435
11
8.800000
21
6.162435
31
0.022565
12
5.810000
22
6.162435
32
0.022565
13
5.810000
23
6.162435
33
0.022565
0
3DFACE
8
0
10
8.800000
20
6.162435
30
0.022565
11
8.418282
21
6.162435
31
-0.134160
12
8.483939
22
6.162435
32
-0.154077
13
8.483939
23
6.162435
33
-0.154077
0
3DFACE
8
0
10
8.800000
20
6.162435
30
0.022565
11
8.350000
21
6.162435
31
-0.127435
12
8.418282
22
6.162435
32
-0.134160
13
8.418282
23
6.162435
33
-0.134160
0
3DFACE
8
0
10
8.673358
20
6.562436
30
-0.343495
11
8.641014
21
6.562436
31
-0.282985
12
8.800000
22
6.562436
32
0.022565
13
8.800000
23
6.562436
33
0.022565
0
3DFACE
8
0
10
8.800000
20
6.562436
30
0.022565
11
8.693274
21
6.562436
31
-0.409153
12
8.673358
22
6.562436
32
-0.343495
13
8.673358
23
6.562436
33
-0.343495
0
3DFACE
8
0
10
8.800000
20
6.562436
30
0.022565
11
8.700000
21
6.562436
31
-0.477435
12
8.693274
22
6.562436
32
-0.409153
13
8.693274
23
6.562436
33
-0.409153
0
3DFACE
8
0
10
8.800000
20
6.562436
30
0.022565
11
8.800000
21
6.562436
31
-0.977435
12
8.693274
22
6.562436
32
-0.545716
13
8.693274
23
6.562436
33
-0.545716
0
3DFACE
8
0
10
8.693274
20
6.562436
30
-0.545716
11
8.700000
21
6.562436
31
-0.477435
12
8.800000
22
6.562436
32
0.022565
13
8.800000
23
6.562436
33
0.022565
0
3DFACE
8
0
10
8.641014
20
6.562436
30
-0.282985
11
8.597487
21
6.562436
31
-0.229947
12
8.800000
22
6.562436
32
0.022565
13
8.800000
23
6.562436
33
0.022565
0
3DFACE
8
0
10
8.800000
20
6.562436
30
-0.977435
11
8.673358
21
6.562436
31
-0.611374
12
8.693274
22
6.562436
32
-0.545716
13
8.693274
23
6.562436
33
-0.545716
0
3DFACE
8
0
10
8.800000
20
6.562436
30
-0.977435
11
8.641014
21
6.562436
31
-0.671884
12
8.673358
22
6.562436
32
-0.611374
13
8.673358
23
6.562436
33
-0.611374
0
3DFACE
8
0
10
8.800000
20
6.562436
30
-0.977435
11
8.597487
21
6.562436
31
-0.724922
12
8.641014
22
6.562436
32
-0.671884
13
8.641014
23
6.562436
33
-0.671884
0
3DFACE
8
0
10
8.800000
20
6.562436
30
-0.977435
11
8.544450
21
6.562436
31
-0.768449
12
8.597487
22
6.562436
32
-0.724922
13
8.597487
23
6.562436
33
-0.724922
0
3DFACE
8
0
10
8.800000
20
6.562436
30
-0.977435
11
8.483939
21
6.562436
31
-0.800793
12
8.544450
22
6.562436
32
-0.768449
13
8.544450
23
6.562436
33
-0.768449
0
3DFACE
8
0
10
8.800000
20
6.562436
30
-0.977435
11
8.418282
21
6.562436
31
-0.820709
12
8.483939
22
6.562436
32
-0.800793
13
8.483939
23
6.562436
33
-0.800793
0
3DFACE
8
0
10
8.800000
20
6.562436
30
-0.977435
11
8.350000
21
6.562436
31
-0.827435
12
8.418282
22
6.562436
32
-0.820709
13
8.418282
23
6.562436
33
-0.820709
0
3DFACE
8
0
10
8.800000
20
6.562436
30
-0.977435
11
5.800001
21
6.562436
31
-0.977435
12
8.281719
22
6.562436
32
-0.820710
13
8.281719
23
6.562436
33
-0.820710
0
3DFACE
8
0
10
8.281719
20
6.562436
30
-0.820710
11
8.350000
21
6.562436
31
-0.827435
12
8.800000
22
6.562436
32
-0.977435
13
8.800000
23
6.562436
33
-0.977435
0
3DFACE
8
0
10
8.597487
20
6.562436
30
-0.229947
11
8.544450
21
6.562436
31
-0.186420
12
8.800000
22
6.562436
32
0.022565
13
8.800000
23
6.562436
33
0.022565
0
3DFACE
8
0
10
5.800001
20
6.562436
30
-0.977435
11
8.216062
21
6.562436
31
-0.800793
12
8.281719
22
6.562436
32
-0.820710
13
8.281719
23
6.562436
33
-0.820710
0
3DFACE
8
0
10
5.800001
20
6.562436
30
-0.977435
11
8.155551
21
6.562436
31
-0.768449
12
8.216062
22
6.562436
32
-0.800793
13
8.216062
23
6.562436
33
-0.800793
0
3DFACE
8
0
10
8.155551
20
6.562436
30
-0.768449
11
5.800001
21
6.562436
31
-0.977435
12
8.079605
22
6.562436
32
-0.727435
13
8.079605
23
6.562436
33
-0.727435
0
3DFACE
8
0
10
8.079605
20
6.562436
30
-0.727435
11
8.105575
21
6.562436
31
-0.727435
12
8.155551
22
6.562436
32
-0.768449
13
8.155551
23
6.562436
33
-0.768449
0
3DFACE
8
0
10
8.079605
20
6.562436
30
-0.727435
11
5.800001
21
6.562436
31
-0.977435
12
7.648294
22
6.562436
32
-0.727435
13
7.648294
23
6.562436
33
-0.727435
0
3DFACE
8
0
10
7.648294
20
6.562436
30
-0.727435
11
5.800001
21
6.562436
31
-0.977435
12
7.320680
22
6.562436
32
-0.727435
13
7.320680
23
6.562436
33
-0.727435
0
3DFACE
8
0
10
7.320680
20
6.562436
30
-0.727435
11
5.800001
21
6.562436
31
-0.977435
12
7.077874
22
6.562436
32
-0.727435
13
7.077874
23
6.562436
33
-0.727435
0
3DFACE
8
0
10
7.077874
20
6.562436
30
-0.727435
11
5.800001
21
6.562436
31
-0.977435
12
6.900001
22
6.562436
32
-0.727435
13
6.900001
23
6.562436
33
-0.727435
0
3DFACE
8
0
10
6.900001
20
6.562436
30
-0.727435
11
5.800001
21
6.562436
31
-0.977435
12
6.770789
22
6.562436
32
-0.727435
13
6.770789
23
6.562436
33
-0.727435
0
3DFACE
8
0
10
5.800001
20
6.562436
30
-0.977435
11
6.762500
21
6.562436
31
-0.727435
12
6.770789
22
6.562436
32
-0.727435
13
6.770789
23
6.562436
33
-0.727435
0
3DFACE
8
0
10
5.800001
20
6.562436
30
-0.977435
11
6.762500
21
6.562436
31
-0.703405
12
6.762500
22
6.562436
32
-0.727435
13
6.762500
23
6.562436
33
-0.727435
0
3DFACE
8
0
10
6.762500
20
6.562436
30
-0.703405
11
5.800001
21
6.562436
31
-0.977435
12
6.762500
22
6.562436
32
-0.681546
13
6.762500
23
6.562436
33
-0.681546
0
3DFACE
8
0
10
6.762500
20
6.562436
30
-0.681546
11
5.800001
21
6.562436
31
-0.977435
12
6.762500
22
6.562436
32
-0.664969
13
6.762500
23
6.562436
33
-0.664969
0
3DFACE
8
0
10
8.033415
20
6.562436
30
-0.227435
11
8.155550
21
6.562436
31
-0.186420
12
8.105575
22
6.562436
32
-0.227435
13
8.105575
23
6.562436
33
-0.227435
0
3DFACE
8
0
10
5.800001
20
6.562436
30
-0.977435
11
6.762500
21
6.562436
31
-0.654219
12
6.762500
22
6.562436
32
-0.664969
13
6.762500
23
6.562436
33
-0.664969
0
3DFACE
8
0
10
8.033415
20
6.562436
30
-0.227435
11
6.762500
21
6.562436
31
-0.227435
12
8.216061
22
6.562436
32
-0.154077
13
8.216061
23
6.562436
33
-0.154077
0
3DFACE
8
0
10
8.216061
20
6.562436
30
-0.154077
11
8.155550
21
6.562436
31
-0.186420
12
8.033415
22
6.562436
32
-0.227435
13
8.033415
23
6.562436
33
-0.227435
0
3DFACE
8
0
10
6.762500
20
6.562436
30
-0.227435
11
5.800001
21
6.562436
31
0.022565
12
8.216061
22
6.562436
32
-0.154077
13
8.216061
23
6.562436
33
-0.154077
0
3DFACE
8
0
10
5.800001
20
6.562436
30
0.022565
11
6.762500
21
6.562436
31
-0.227435
12
6.762500
22
6.562436
32
-0.654219
13
6.762500
23
6.562436
33
-0.654219
0
3DFACE
8
0
10
6.762500
20
6.562436
30
-0.654219
11
5.800001
21
6.562436
31
-0.977435
12
5.800001
22
6.562436
32
0.022565
13
5.800001
23
6.562436
33
0.022565
0
3DFACE
8
0
10
8.544450
20
6.562436
30
-0.186420
11
8.483939
21
6.562436
31
-0.154077
12
8.800000
22
6.562436
32
0.022565
13
8.800000
23
6.562436
33
0.022565
0
3DFACE
8
0
10
5.800001
20
6.562436
30
0.022565
11
8.281718
21
6.562436
31
-0.134160
12
8.216061
22
6.562436
32
-0.154077
13
8.216061
23
6.562436
33
-0.154077
0
3DFACE
8
0
10
8.281718
20
6.562436
30
-0.134160
11
5.800001
21
6.562436
31
0.022565
12
8.800000
22
6.562436
32
0.022565
13
8.800000
23
6.562436
33
0.022565
0
3DFACE
8
0
10
8.800000
20
6.562436
30
0.022565
11
8.350000
21
6.562436
31
-0.127435
12
8.281718
22
6.562436
32
-0.134160
13
8.281718
23
6.562436
33
-0.134160
0
3DFACE
8
0
10
8.483939
20
6.562436
30
-0.154077
11
8.418282
21
6.562436
31
-0.134160
12
8.800000
22
6.562436
32
0.022565
13
8.800000
23
6.562436
33
0.022565
0
3DFACE
8
0
10
8.418282
20
6.562436
30
-0.134160
11
8.350000
21
6.562436
31
-0.127435
12
8.800000
22
6.562436
32
0.022565
13
8.800000
23
6.562436
33
0.022565
0
3DFACE
8
0
10
8.350000
20
6.162435
30
-0.827435
11
8.418282
21
6.162435
31
-0.820709
12
8.418282
22
6.562436
32
-0.820709
13
8.418282
23
6.562436
33
-0.820709
0
3DFACE
8
0
10
8.418282
20
6.562436
30
-0.820709
11
8.350000
21
6.562436
31
-0.827435
12
8.350000
22
6.162435
32
-0.827435
13
8.350000
23
6.162435
33
-0.827435
0
3DFACE
8
0
10
8.418282
20
6.162435
30
-0.820709
11
8.483939
21
6.162435
31
-0.800792
12
8.483939
22
6.562436
32
-0.800793
13
8.483939
23
6.562436
33
-0.800793
0
3DFACE
8
0
10
8.483939
20
6.562436
30
-0.800793
11
8.418282
21
6.562436
31
-0.820709
12
8.418282
22
6.162435
32
-0.820709
13
8.418282
23
6.162435
33
-0.820709
0
3DFACE
8
0
10
8.483939
20
6.162435
30
-0.800792
11
8.544450
21
6.162435
31
-0.768449
12
8.544450
22
6.562436
32
-0.768449
13
8.544450
23
6.562436
33
-0.768449
0
3DFACE
8
0
10
8.544450
20
6.562436
30
-0.768449
11
8.483939
21
6.562436
31
-0.800793
12
8.483939
22
6.162435
32
-0.800792
13
8.483939
23
6.162435
33
-0.800792
0
3DFACE
8
0
10
8.544450
20
6.162435
30
-0.768449
11
8.597487
21
6.162435
31
-0.724922
12
8.597487
22
6.562436
32
-0.724922
13
8.597487
23
6.562436
33
-0.724922
0
3DFACE
8
0
10
8.597487
20
6.562436
30
-0.724922
11
8.544450
21
6.562436
31
-0.768449
12
8.544450
22
6.162435
32
-0.768449
13
8.544450
23
6.162435
33
-0.768449
0
3DFACE
8
0
10
8.597487
20
6.162435
30
-0.724922
11
8.641014
21
6.162435
31
-0.671884
12
8.641014
22
6.562436
32
-0.671884
13
8.641014
23
6.562436
33
-0.671884
0
3DFACE
8
0
10
8.641014
20
6.562436
30
-0.671884
11
8.597487
21
6.562436
31
-0.724922
12
8.597487
22
6.162435
32
-0.724922
13
8.597487
23
6.162435
33
-0.724922
0
3DFACE
8
0
10
8.641014
20
6.162435
30
-0.671884
11
8.673358
21
6.162435
31
-0.611374
12
8.673358
22
6.562436
32
-0.611374
13
8.673358
23
6.562436
33
-0.611374
0
3DFACE
8
0
10
8.673358
20
6.562436
30
-0.611374
11
8.641014
21
6.562436
31
-0.671884
12
8.641014
22
6.162435
32
-0.671884
13
8.641014
23
6.162435
33
-0.671884
0
3DFACE
8
0
10
8.673358
20
6.162435
30
-0.611374
11
8.693274
21
6.162435
31
-0.545716
12
8.693274
22
6.562436
32
-0.545716
13
8.693274
23
6.562436
33
-0.545716
0
3DFACE
8
0
10
8.693274
20
6.562436
30
-0.545716
11
8.673358
21
6.562436
31
-0.611374
12
8.673358
22
6.162435
32
-0.611374
13
8.673358
23
6.162435
33
-0.611374
0
3DFACE
8
0
10
8.693274
20
6.162435
30
-0.545716
11
8.700000
21
6.162435
31
-0.477435
12
8.700000
22
6.562436
32
-0.477435
13
8.700000
23
6.562436
33
-0.477435
0
3DFACE
8
0
10
8.700000
20
6.562436
30
-0.477435
11
8.693274
21
6.562436
31
-0.545716
12
8.693274
22
6.162435
32
-0.545716
13
8.693274
23
6.162435
33
-0.545716
0
3DFACE
8
0
10
8.700000
20
6.162435
30
-0.477435
11
8.693274
21
6.162435
31
-0.409153
12
8.693274
22
6.562436
32
-0.409153
13
8.693274
23
6.562436
33
-0.409153
0
3DFACE
8
0
10
8.693274
20
6.562436
30
-0.409153
11
8.700000
21
6.562436
31
-0.477435
12
8.700000
22
6.162435
32
-0.477435
13
8.700000
23
6.162435
33
-0.477435
0
3DFACE
8
0
10
8.693274
20
6.162435
30
-0.409153
11
8.673358
21
6.162435
31
-0.343495
12
8.673358
22
6.562436
32
-0.343495
13
8.673358
23
6.562436
33
-0.343495
0
3DFACE
8
0
10
8.673358
20
6.562436
30
-0.343495
11
8.693274
21
6.562436
31
-0.409153
12
8.693274
22
6.162435
32
-0.409153
13
8.693274
23
6.162435
33
-0.409153
0
3DFACE
8
0
10
8.673358
20
6.162435
30
-0.343495
11
8.641014
21
6.162435
31
-0.282985
12
8.641014
22
6.562436
32
-0.282985
13
8.641014
23
6.562436
33
-0.282985
0
3DFACE
8
0
10
8.641014
20
6.562436
30
-0.282985
11
8.673358
21
6.562436
31
-0.343495
12
8.673358
22
6.162435
32
-0.343495
13
8.673358
23
6.162435
33
-0.343495
0
3DFACE
8
0
10
8.641014
20
6.162435
30
-0.282985
11
8.597487
21
6.162435
31
-0.229947
12
8.597487
22
6.562436
32
-0.229947
13
8.597487
23
6.562436
33
-0.229947
0
3DFACE
8
0
10
8.597487
20
6.562436
30
-0.229947
11
8.641014
21
6.562436
31
-0.282985
12
8.641014
22
6.162435
32
-0.282985
13
8.641014
23
6.162435
33
-0.282985
0
3DFACE
8
0
10
8.597487
20
6.162435
30
-0.229947
11
8.544450
21
6.162435
31
-0.186420
12
8.544450
22
6.562436
32
-0.186420
13
8.544450
23
6.562436
33
-0.186420
0
3DFACE
8
0
10
8.544450
20
6.562436
30
-0.186420
11
8.597487
21
6.562436
31
-0.229947
12
8.597487
22
6.162435
32
-0.229947
13
8.597487
23
6.162435
33
-0.229947
0
3DFACE
8
0
10
8.544450
20
6.162435
30
-0.186420
11
8.483939
21
6.162435
31
-0.154077
12
8.483939
22
6.562436
32
-0.154077
13
8.483939
23
6.562436
33
-0.154077
0
3DFACE
8
0
10
8.483939
20
6.562436
30
-0.154077
11
8.544450
21
6.562436
31
-0.186420
12
8.544450
22
6.162435
32
-0.186420
13
8.544450
23
6.162435
33
-0.186420
0
3DFACE
8
0
10
8.483939
20
6.162435
30
-0.154077
11
8.418282
21
6.162435
31
-0.134160
12
8.418282
22
6.562436
32
-0.134160
13
8.418282
23
6.562436
33
-0.134160
0
3DFACE
8
0
10
8.418282
20
6.562436
30
-0.134160
11
8.483939
21
6.562436
31
-0.154077
12
8.483939
22
6.162435
32
-0.154077
13
8.483939
23
6.162435
33
-0.154077
0
3DFACE
8
0
10
8.418282
20
6.162435
30
-0.134160
11
8.350000
21
6.162435
31
-0.127435
12
8.350000
22
6.562436
32
-0.127435
13
8.350000
23
6.562436
33
-0.127435
0
3DFACE
8
0
10
8.350000
20
6.562436
30
-0.127435
11
8.418282
21
6.562436
31
-0.134160
12
8.418282
22
6.162435
32
-0.134160
13
8.418282
23
6.162435
33
-0.134160
0
3DFACE
8
0
10
8.350000
20
6.162435
30
-0.127435
11
8.281718
21
6.162435
31
-0.134160
12
8.281718
22
6.562436
32
-0.134160
13
8.281718
23
6.562436
33
-0.134160
0
3DFACE
8
0
10
8.281718
20
6.562436
30
-0.134160
11
8.350000
21
6.562436
31
-0.127435
12
8.350000
22
6.162435
32
-0.127435
13
8.350000
23
6.162435
33
-0.127435
0
3DFACE
8
0
10
8.281718
20
6.162435
30
-0.134160
11
8.216061
21
6.162435
31
-0.154077
12
8.216061
22
6.562436
32
-0.154077
13
8.216061
23
6.562436
33
-0.154077
0
3DFACE
8
0
10
8.216061
20
6.562436
30
-0.154077
11
8.281718
21
6.562436
31
-0.134160
12
8.281718
22
6.162435
32
-0.134160
13
8.281718
23
6.162435
33
-0.134160
0
3DFACE
8
0
10
8.216061
20
6.162435
30
-0.154077
11
8.155550
21
6.162435
31
-0.186420
12
8.155550
22
6.562436
32
-0.186420
13
8.155550
23
6.562436
33
-0.186420
0
3DFACE
8
0
10
8.155550
20
6.562436
30
-0.186420
11
8.216061
21
6.562436
31
-0.154077
12
8.216061
22
6.162435
32
-0.154077
13
8.216061
23
6.162435
33
-0.154077
0
3DFACE
8
0
10
8.105575
20
6.412435
30
-0.227435
11
8.155550
21
6.162435
31
-0.186420
12
8.102512
22
6.162435
32
-0.229947
13
8.102512
23
6.162435
33
-0.229947
0
3DFACE
8
0
10
8.102512
20
6.162435
30
-0.229947
11
8.102512
21
6.412435
31
-0.229947
12
8.105575
22
6.412435
32
-0.227435
13
8.105575
23
6.412435
33
-0.227435
0
3DFACE
8
0
10
8.105575
20
6.412435
30
-0.227435
11
8.105575
21
6.562436
31
-0.227435
12
8.155550
22
6.562436
32
-0.186420
13
8.155550
23
6.562436
33
-0.186420
0
3DFACE
8
0
10
8.155550
20
6.562436
30
-0.186420
11
8.155550
21
6.162435
31
-0.186420
12
8.105575
22
6.412435
32
-0.227435
13
8.105575
23
6.412435
33
-0.227435
0
3DFACE
8
0
10
8.058986
20
6.412435
30
-0.282985
11
8.102512
21
6.412435
31
-0.229947
12
8.102512
22
6.162435
32
-0.229947
13
8.102512
23
6.162435
33
-0.229947
0
3DFACE
8
0
10
8.102512
20
6.162435
30
-0.229947
11
8.058986
21
6.162435
31
-0.282985
12
8.058986
22
6.412435
32
-0.282985
13
8.058986
23
6.412435
33
-0.282985
0
3DFACE
8
0
10
8.026642
20
6.412435
30
-0.343496
11
8.058986
21
6.412435
31
-0.282985
12
8.058986
22
6.162435
32
-0.282985
13
8.058986
23
6.162435
33
-0.282985
0
3DFACE
8
0
10
8.058986
20
6.162435
30
-0.282985
11
8.026642
21
6.162435
31
-0.343496
12
8.026642
22
6.412435
32
-0.343496
13
8.026642
23
6.412435
33
-0.343496
0
3DFACE
8
0
10
8.006725
20
6.412435
30
-0.409153
11
8.026642
21
6.412435
31
-0.343496
12
8.026642
22
6.162435
32
-0.343496
13
8.026642
23
6.162435
33
-0.343496
0
3DFACE
8
0
10
8.026642
20
6.162435
30
-0.343496
11
8.006725
21
6.162435
31
-0.409153
12
8.006725
22
6.412435
32
-0.409153
13
8.006725
23
6.412435
33
-0.409153
0
3DFACE
8
0
10
8.000000
20
6.412435
30
-0.477435
11
8.006725
21
6.412435
31
-0.409153
12
8.006725
22
6.162435
32
-0.409153
13
8.006725
23
6.162435
33
-0.409153
0
3DFACE
8
0
10
8.006725
20
6.162435
30
-0.409153
11
8.000000
21
6.162435
31
-0.477435
12
8.000000
22
6.412435
32
-0.477435
13
8.000000
23
6.412435
33
-0.477435
0
3DFACE
8
0
10
8.006725
20
6.412435
30
-0.545717
11
8.000000
21
6.412435
31
-0.477435
12
8.000000
22
6.162435
32
-0.477435
13
8.000000
23
6.162435
33
-0.477435
0
3DFACE
8
0
10
8.000000
20
6.162435
30
-0.477435
11
8.006725
21
6.162435
31
-0.545717
12
8.006725
22
6.412435
32
-0.545717
13
8.006725
23
6.412435
33
-0.545717
0
3DFACE
8
0
10
8.026643
20
6.412435
30
-0.611374
11
8.006725
21
6.412435
31
-0.545717
12
8.006725
22
6.162435
32
-0.545717
13
8.006725
23
6.162435
33
-0.545717
0
3DFACE
8
0
10
8.006725
20
6.162435
30
-0.545717
11
8.026643
21
6.162435
31
-0.611374
12
8.026643
22
6.412435
32
-0.611374
13
8.026643
23
6.412435
33
-0.611374
0
3DFACE
8
0
10
8.058986
20
6.412435
30
-0.671885
11
8.026643
21
6.412435
31
-0.611374
12
8.026643
22
6.162435
32
-0.611374
13
8.026643
23
6.162435
33
-0.611374
0
3DFACE
8
0
10
8.026643
20
6.162435
30
-0.611374
11
8.058986
21
6.162435
31
-0.671885
12
8.058986
22
6.412435
32
-0.671885
13
8.058986
23
6.412435
33
-0.671885
0
3DFACE
8
0
10
8.102513
20
6.412435
30
-0.724922
11
8.058986
21
6.412435
31
-0.671885
12
8.058986
22
6.162435
32
-0.671885
13
8.058986
23
6.162435
33
-0.671885
0
3DFACE
8
0
10
8.058986
20
6.162435
30
-0.671885
11
8.102513
21
6.162435
31
-0.724922
12
8.102513
22
6.412435
32
-0.724922
13
8.102513
23
6.412435
33
-0.724922
0
3DFACE
8
0
10
8.105575
20
6.412435
30
-0.727435
11
8.102513
21
6.412435
31
-0.724922
12
8.102513
22
6.162435
32
-0.724922
13
8.102513
23
6.162435
33
-0.724922
0
3DFACE
8
0
10
8.102513
20
6.162435
30
-0.724922
11
8.155551
21
6.162435
31
-0.768449
12
8.105575
22
6.412435
32
-0.727435
13
8.105575
23
6.412435
33
-0.727435
0
3DFACE
8
0
10
8.155551
20
6.562436
30
-0.768449
11
8.105575
21
6.562436
31
-0.727435
12
8.105575
22
6.412435
32
-0.727435
13
8.105575
23
6.412435
33
-0.727435
0
3DFACE
8
0
10
8.105575
20
6.412435
30
-0.727435
11
8.155551
21
6.162435
31
-0.768449
12
8.155551
22
6.562436
32
-0.768449
13
8.155551
23
6.562436
33
-0.768449
0
3DFACE
8
0
10
8.155551
20
6.162435
30
-0.768449
11
8.216062
21
6.162435
31
-0.800793
12
8.216062
22
6.562436
32
-0.800793
13
8.216062
23
6.562436
33
-0.800793
0
3DFACE
8
0
10
8.216062
20
6.562436
30
-0.800793
11
8.155551
21
6.562436
31
-0.768449
12
8.155551
22
6.162435
32
-0.768449
13
8.155551
23
6.162435
33
-0.768449
0
3DFACE
8
0
10
8.350000
20
6.562436
30
-0.827435
11
8.281719
21
6.562436
31
-0.820710
12
8.281719
22
6.162435
32
-0.820710
13
8.281719
23
6.162435
33
-0.820710
0
3DFACE
8
0
10
8.281719
20
6.162435
30
-0.820710
11
8.350000
21
6.162435
31
-0.827435
12
8.350000
22
6.562436
32
-0.827435
13
8.350000
23
6.562436
33
-0.827435
0
3DFACE
8
0
10
8.216062
20
6.162435
30
-0.800793
11
8.281719
21
6.162435
31
-0.820710
12
8.281719
22
6.562436
32
-0.820710
13
8.281719
23
6.562436
33
-0.820710
0
3DFACE
8
0
10
8.281719
20
6.562436
30
-0.820710
11
8.216062
21
6.562436
31
-0.800793
12
8.216062
22
6.162435
32
-0.800793
13
8.216062
23
6.162435
33
-0.800793
0
3DFACE
8
0
10
6.762500
20
6.412435
30
-0.727435
11
6.762500
21
6.562436
31
-0.681546
12
6.762500
22
6.562436
32
-0.664969
13
6.762500
23
6.562436
33
-0.664969
0
3DFACE
8
0
10
6.762500
20
6.562436
30
-0.664969
11
6.762500
21
6.562436
31
-0.654219
12
6.762500
22
6.412435
32
-0.727435
13
6.762500
23
6.412435
33
-0.727435
0
3DFACE
8
0
10
6.762500
20
6.412435
30
-0.727435
11
6.762500
21
6.562436
31
-0.727435
12
6.762500
22
6.562436
32
-0.703405
13
6.762500
23
6.562436
33
-0.703405
0
3DFACE
8
0
10
6.762500
20
6.562436
30
-0.703405
11
6.762500
21
6.562436
31
-0.681546
12
6.762500
22
6.412435
32
-0.727435
13
6.762500
23
6.412435
33
-0.727435
0
3DFACE
8
0
10
6.762500
20
6.562436
30
-0.654219
11
6.762500
21
6.562436
31
-0.227435
12
6.762500
22
6.412435
32
-0.227435
13
6.762500
23
6.412435
33
-0.227435
0
3DFACE
8
0
10
6.762500
20
6.412435
30
-0.227435
11
6.762500
21
6.412435
31
-0.727435
12
6.762500
22
6.562436
32
-0.654219
13
6.762500
23
6.562436
33
-0.654219
0
3DFACE
8
0
10
8.105575
20
6.412435
30
-0.727435
11
7.077874
21
6.562436
31
-0.727435
12
6.900001
22
6.562436
32
-0.727435
13
6.900001
23
6.562436
33
-0.727435
0
3DFACE
8
0
10
6.900001
20
6.562436
30
-0.727435
11
6.770789
21
6.562436
31
-0.727435
12
8.105575
22
6.412435
32
-0.727435
13
8.105575
23
6.412435
33
-0.727435
0
3DFACE
8
0
10
8.105575
20
6.412435
30
-0.727435
11
8.079605
21
6.562436
31
-0.727435
12
7.648294
22
6.562436
32
-0.727435
13
7.648294
23
6.562436
33
-0.727435
0
3DFACE
8
0
10
7.648294
20
6.562436
30
-0.727435
11
7.320680
21
6.562436
31
-0.727435
12
8.105575
22
6.412435
32
-0.727435
13
8.105575
23
6.412435
33
-0.727435
0
3DFACE
8
0
10
8.105575
20
6.412435
30
-0.727435
11
7.320680
21
6.562436
31
-0.727435
12
7.077874
22
6.562436
32
-0.727435
13
7.077874
23
6.562436
33
-0.727435
0
3DFACE
8
0
10
6.770789
20
6.562436
30
-0.727435
11
6.762500
21
6.562436
31
-0.727435
12
6.762500
22
6.412435
32
-0.727435
13
6.762500
23
6.412435
33
-0.727435
0
3DFACE
8
0
10
6.762500
20
6.412435
30
-0.727435
11
8.105575
21
6.412435
31
-0.727435
12
6.770789
22
6.562436
32
-0.727435
13
6.770789
23
6.562436
33
-0.727435
0
3DFACE
8
0
10
8.105575
20
6.412435
30
-0.727435
11
8.105575
21
6.562436
31
-0.727435
12
8.079605
22
6.562436
32
-0.727435
13
8.079605
23
6.562436
33
-0.727435
0
3DFACE
8
0
10
8.033415
20
6.562436
30
-0.227435
11
8.105575
21
6.412435
31
-0.227435
12
6.762500
22
6.412435
32
-0.227435
13
6.762500
23
6.412435
33
-0.227435
0
3DFACE
8
0
10
6.762500
20
6.412435
30
-0.227435
11
6.762500
21
6.562436
31
-0.227435
12
8.033415
22
6.562436
32
-0.227435
13
8.033415
23
6.562436
33
-0.227435
0
3DFACE
8
0
10
8.033415
20
6.562436
30
-0.227435
11
8.105575
21
6.562436
31
-0.227435
12
8.105575
22
6.412435
32
-0.227435
13
8.105575
23
6.412435
33
-0.227435
0
3DFACE
8
0
10
6.762500
20
6.412435
30
-0.227435
11
8.026643
21
6.412435
31
-0.611374
12
8.058986
22
6.412435
32
-0.671885
13
8.058986
23
6.412435
33
-0.671885
0
3DFACE
8
0
10
6.762500
20
6.412435
30
-0.227435
11
8.006725
21
6.412435
31
-0.545717
12
8.026643
22
6.412435
32
-0.611374
13
8.026643
23
6.412435
33
-0.611374
0
3DFACE
8
0
10
6.762500
20
6.412435
30
-0.227435
11
8.000000
21
6.412435
31
-0.477435
12
8.006725
22
6.412435
32
-0.545717
13
8.006725
23
6.412435
33
-0.545717
0
3DFACE
8
0
10
6.762500
20
6.412435
30
-0.227435
11
8.006725
21
6.412435
31
-0.409153
12
8.000000
22
6.412435
32
-0.477435
13
8.000000
23
6.412435
33
-0.477435
0
3DFACE
8
0
10
6.762500
20
6.412435
30
-0.227435
11
8.026642
21
6.412435
31
-0.343496
12
8.006725
22
6.412435
32
-0.409153
13
8.006725
23
6.412435
33
-0.409153
0
3DFACE
8
0
10
6.762500
20
6.412435
30
-0.227435
11
8.058986
21
6.412435
31
-0.282985
12
8.026642
22
6.412435
32
-0.343496
13
8.026642
23
6.412435
33
-0.343496
0
3DFACE
8
0
10
8.058986
20
6.412435
30
-0.671885
11
8.102513
21
6.412435
31
-0.724922
12
6.762500
22
6.412435
32
-0.227435
13
6.762500
23
6.412435
33
-0.227435
0
3DFACE
8
0
10
6.762500
20
6.412435
30
-0.227435
11
8.102512
21
6.412435
31
-0.229947
12
8.058986
22
6.412435
32
-0.282985
13
8.058986
23
6.412435
33
-0.282985
0
3DFACE
8
0
10
6.762500
20
6.412435
30
-0.727435
11
6.762500
21
6.412435
31
-0.227435
12
8.102513
22
6.412435
32
-0.724922
13
8.102513
23
6.412435
33
-0.724922
0
3DFACE
8
0
10
8.102513
20
6.412435
30
-0.724922
11
8.105575
21
6.412435
31
-0.727435
12
6.762500
22
6.412435
32
-0.727435
13
6.762500
23
6.412435
33
-0.727435
0
3DFACE
8
0
10
6.762500
20
6.412435
30
-0.227435
11
8.105575
21
6.412435
31
-0.227435
12
8.102512
22
6.412435
32
-0.229947
13
8.102512
23
6.412435
33
-0.229947
0
3DFACE
8
0
10
5.410000
20
4.412435
30
-0.877435
11
5.410000
21
4.392926
31
-0.875513
12
5.810000
22
4.392926
32
-0.875513
13
5.810000
23
4.392926
33
-0.875513
0
3DFACE
8
0
10
5.810000
20
4.392926
30
-0.875513
11
5.810000
21
4.412435
31
-0.877435
12
5.410000
22
4.412435
32
-0.877435
13
5.410000
23
4.412435
33
-0.877435
0
3DFACE
8
0
10
5.410000
20
4.392926
30
-0.875513
11
5.410000
21
4.374166
31
-0.869823
12
5.810000
22
4.374166
32
-0.869823
13
5.810000
23
4.374166
33
-0.869823
0
3DFACE
8
0
10
5.810000
20
4.374166
30
-0.869823
11
5.810000
21
4.392926
31
-0.875513
12
5.410000
22
4.392926
32
-0.875513
13
5.410000
23
4.392926
33
-0.875513
0
3DFACE
8
0
10
5.410000
20
4.374166
30
-0.869823
11
5.410000
21
4.356878
31
-0.860582
12
5.810000
22
4.356878
32
-0.860582
13
5.810000
23
4.356878
33
-0.860582
0
3DFACE
8
0
10
5.810000
20
4.356878
30
-0.860582
11
5.810000
21
4.374166
31
-0.869823
12
5.410000
22
4.374166
32
-0.869823
13
5.410000
23
4.374166
33
-0.869823
0
3DFACE
8
0
10
5.410000
20
4.356878
30
-0.860582
11
5.410000
21
4.341724
31
-0.848145
12
5.810000
22
4.341724
32
-0.848145
13
5.810000
23
4.341724
33
-0.848145
0
3DFACE
8
0
10
5.810000
20
4.341724
30
-0.848145
11
5.810000
21
4.356878
31
-0.860582
12
5.410000
22
4.356878
32
-0.860582
13
5.410000
23
4.356878
33
-0.860582
0
3DFACE
8
0
10
5.410000
20
4.329288
30
-0.832992
11
5.810000
21
4.329288
31
-0.832992
12
5.810000
22
4.341724
32
-0.848145
13
5.810000
23
4.341724
33
-0.848145
0
3DFACE
8
0
10
5.810000
20
4.341724
30
-0.848145
11
5.410000
21
4.341724
31
-0.848145
12
5.410000
22
4.329288
32
-0.832992
13
5.410000
23
4.329288
33
-0.832992
0
3DFACE
8
0
10
5.410000
20
4.320047
30
-0.815703
11
5.810000
21
4.320047
31
-0.815703
12
5.810000
22
4.329288
32
-0.832992
13
5.810000
23
4.329288
33
-0.832992
0
3DFACE
8
0
10
5.810000
20
4.329288
30
-0.832992
11
5.410000
21
4.329288
31
-0.832992
12
5.410000
22
4.320047
32
-0.815703
13
5.410000
23
4.320047
33
-0.815703
0
3DFACE
8
0
10
5.410000
20
4.314356
30
-0.796944
11
5.810000
21
4.314356
31
-0.796944
12
5.810000
22
4.320047
32
-0.815703
13
5.810000
23
4.320047
33
-0.815703
0
3DFACE
8
0
10
5.810000
20
4.320047
30
-0.815703
11
5.410000
21
4.320047
31
-0.815703
12
5.410000
22
4.314356
32
-0.796944
13
5.410000
23
4.314356
33
-0.796944
0
3DFACE
8
0
10
5.410000
20
4.312435
30
-0.777435
11
5.810000
21
4.312435
31
-0.777435
12
5.810000
22
4.314356
32
-0.796944
13
5.810000
23
4.314356
33
-0.796944
0
3DFACE
8
0
10
5.810000
20
4.314356
30
-0.796944
11
5.410000
21
4.314356
31
-0.796944
12
5.410000
22
4.312435
32
-0.777435
13
5.410000
23
4.312435
33
-0.777435
0
3DFACE
8
0
10
5.410000
20
4.314356
30
-0.757926
11
5.810000
21
4.314356
31
-0.757926
12
5.810000
22
4.312435
32
-0.777435
13
5.810000
23
4.312435
33
-0.777435
0
3DFACE
8
0
10
5.810000
20
4.312435
30
-0.777435
11
5.410000
21
4.312435
31
-0.777435
12
5.410000
22
4.314356
32
-0.757926
13
5.410000
23
4.314356
33
-0.757926
0
3DFACE
8
0
10
5.410000
20
4.320047
30
-0.739166
11
5.810000
21
4.320047
31
-0.739166
12
5.810000
22
4.314356
32
-0.757926
13
5.810000
23
4.314356
33
-0.757926
0
3DFACE
8
0
10
5.810000
20
4.314356
30
-0.757926
11
5.410000
21
4.314356
31
-0.757926
12
5.410000
22
4.320047
32
-0.739166
13
5.410000
23
4.320047
33
-0.739166
0
3DFACE
8
0
10
5.410000
20
4.329288
30
-0.721878
11
5.810000
21
4.329288
31
-0.721878
12
5.810000
22
4.320047
32
-0.739166
13
5.810000
23
4.320047
33
-0.739166
0
3DFACE
8
0
10
5.810000
20
4.320047
30
-0.739166
11
5.410000
21
4.320047
31
-0.739166
12
5.410000
22
4.329288
32
-0.721878
13
5.410000
23
4.329288
33
-0.721878
0
3DFACE
8
0
10
5.410000
20
4.341724
30
-0.706724
11
5.810000
21
4.341724
31
-0.706724
12
5.810000
22
4.329288
32
-0.721878
13
5.810000
23
4.329288
33
-0.721878
0
3DFACE
8
0
10
5.810000
20
4.329288
30
-0.721878
11
5.410000
21
4.329288
31
-0.721878
12
5.410000
22
4.341724
32
-0.706724
13
5.410000
23
4.341724
33
-0.706724
0
3DFACE
8
0
10
5.410000
20
4.356878
30
-0.694288
11
5.810000
21
4.356878
31
-0.694288
12
5.810000
22
4.341724
32
-0.706724
13
5.810000
23
4.341724
33
-0.706724
0
3DFACE
8
0
10
5.810000
20
4.341724
30
-0.706724
11
5.410000
21
4.341724
31
-0.706724
12
5.410000
22
4.356878
32
-0.694288
13
5.410000
23
4.356878
33
-0.694288
0
3DFACE
8
0
10
5.410000
20
4.374166
30
-0.685047
11
5.810000
21
4.374166
31
-0.685047
12
5.810000
22
4.356878
32
-0.694288
13
5.810000
23
4.356878
33
-0.694288
0
3DFACE
8
0
10
5.810000
20
4.356878
30
-0.694288
11
5.410000
21
4.356878
31
-0.694288
12
5.410000
22
4.374166
32
-0.685047
13
5.410000
23
4.374166
33
-0.685047
0
3DFACE
8
0
10
5.410000
20
4.392926
30
-0.679356
11
5.810000
21
4.392926
31
-0.679356
12
5.810000
22
4.374166
32
-0.685047
13
5.810000
23
4.374166
33
-0.685047
0
3DFACE
8
0
10
5.810000
20
4.374166
30
-0.685047
11
5.410000
21
4.374166
31
-0.685047
12
5.410000
22
4.392926
32
-0.679356
13
5.410000
23
4.392926
33
-0.679356
0
3DFACE
8
0
10
5.410000
20
4.412435
30
-0.677435
11
5.810000
21
4.412435
31
-0.677435
12
5.810000
22
4.392926
32
-0.679356
13
5.810000
23
4.392926
33
-0.679356
0
3DFACE
8
0
10
5.810000
20
4.392926
30
-0.679356
11
5.410000
21
4.392926
31
-0.679356
12
5.410000
22
4.412435
32
-0.677435
13
5.410000
23
4.412435
33
-0.677435
0
3DFACE
8
0
10
5.410000
20
4.431944
30
-0.679356
11
5.810000
21
4.431944
31
-0.679356
12
5.810000
22
4.412435
32
-0.677435
13
5.810000
23
4.412435
33
-0.677435
0
3DFACE
8
0
10
5.810000
20
4.412435
30
-0.677435
11
5.410000
21
4.412435
31
-0.677435
12
5.410000
22
4.431944
32
-0.679356
13
5.410000
23
4.431944
33
-0.679356
0
3DFACE
8
0
10
5.410000
20
4.450703
30
-0.685047
11
5.810000
21
4.450703
31
-0.685047
12
5.810000
22
4.431944
32
-0.679356
13
5.810000
23
4.431944
33
-0.679356
0
3DFACE
8
0
10
5.810000
20
4.431944
30
-0.679356
11
5.410000
21
4.431944
31
-0.679356
12
5.410000
22
4.450703
32
-0.685047
13
5.410000
23
4.450703
33
-0.685047
0
3DFACE
8
0
10
5.410000
20
4.467992
30
-0.694288
11
5.810000
21
4.467992
31
-0.694288
12
5.810000
22
4.450703
32
-0.685047
13
5.810000
23
4.450703
33
-0.685047
0
3DFACE
8
0
10
5.810000
20
4.450703
30
-0.685047
11
5.410000
21
4.450703
31
-0.685047
12
5.410000
22
4.467992
32
-0.694288
13
5.410000
23
4.467992
33
-0.694288
0
3DFACE
8
0
10
5.410000
20
4.483146
30
-0.706724
11
5.810000
21
4.483146
31
-0.706724
12
5.810000
22
4.467992
32
-0.694288
13
5.810000
23
4.467992
33
-0.694288
0
3DFACE
8
0
10
5.810000
20
4.467992
30
-0.694288
11
5.410000
21
4.467992
31
-0.694288
12
5.410000
22
4.483146
32
-0.706724
13
5.410000
23
4.483146
33
-0.706724
0
3DFACE
8
0
10
5.410000
20
4.495582
30
-0.721878
11
5.810000
21
4.495582
31
-0.721878
12
5.810000
22
4.483146
32
-0.706724
13
5.810000
23
4.483146
33
-0.706724
0
3DFACE
8
0
10
5.810000
20
4.483146
30
-0.706724
11
5.410000
21
4.483146
31
-0.706724
12
5.410000
22
4.495582
32
-0.721878
13
5.410000
23
4.495582
33
-0.721878
0
3DFACE
8
0
10
5.410000
20
4.504823
30
-0.739166
11
5.810000
21
4.504823
31
-0.739166
12
5.810000
22
4.495582
32
-0.721878
13
5.810000
23
4.495582
33
-0.721878
0
3DFACE
8
0
10
5.810000
20
4.495582
30
-0.721878
11
5.410000
21
4.495582
31
-0.721878
12
5.410000
22
4.504823
32
-0.739166
13
5.410000
23
4.504823
33
-0.739166
0
3DFACE
8
0
10
5.410000
20
4.510513
30
-0.757926
11
5.810000
21
4.510513
31
-0.757926
12
5.810000
22
4.504823
32
-0.739166
13
5.810000
23
4.504823
33
-0.739166
0
3DFACE
8
0
10
5.810000
20
4.504823
30
-0.739166
11
5.410000
21
4.504823
31
-0.739166
12
5.410000
22
4.510513
32
-0.757926
13
5.410000
23
4.510513
33
-0.757926
0
3DFACE
8
0
10
5.410000
20
4.512435
30
-0.777435
11
5.810000
21
4.512435
31
-0.777435
12
5.810000
22
4.510513
32
-0.757926
13
5.810000
23
4.510513
33
-0.757926
0
3DFACE
8
0
10
5.810000
20
4.510513
30
-0.757926
11
5.410000
21
4.510513
31
-0.757926
12
5.410000
22
4.512435
32
-0.777435
13
5.410000
23
4.512435
33
-0.777435
0
3DFACE
8
0
10
5.410000
20
4.510513
30
-0.796944
11
5.810000
21
4.510513
31
-0.796944
12
5.810000
22
4.512435
32
-0.777435
13
5.810000
23
4.512435
33
-0.777435
0
3DFACE
8
0
10
5.810000
20
4.512435
30
-0.777435
11
5.410000
21
4.512435
31
-0.777435
12
5.410000
22
4.510513
32
-0.796944
13
5.410000
23
4.510513
33
-0.796944
0
3DFACE
8
0
10
5.410000
20
4.504823
30
-0.815703
11
5.810000
21
4.504823
31
-0.815703
12
5.810000
22
4.510513
32
-0.796944
13
5.810000
23
4.510513
33
-0.796944
0
3DFACE
8
0
10
5.810000
20
4.510513
30
-0.796944
11
5.410000
21
4.510513
31
-0.796944
12
5.410000
22
4.504823
32
-0.815703
13
5.410000
23
4.504823
33
-0.815703
0
3DFACE
8
0
10
5.410000
20
4.495582
30
-0.832992
11
5.810000
21
4.495582
31
-0.832992
12
5.810000
22
4.504823
32
-0.815703
13
5.810000
23
4.504823
33
-0.815703
0
3DFACE
8
0
10
5.810000
20
4.504823
30
-0.815703
11
5.410000
21
4.504823
31
-0.815703
12
5.410000
22
4.495582
32
-0.832992
13
5.410000
23
4.495582
33
-0.832992
0
3DFACE
8
0
10
5.410000
20
4.483145
30
-0.848145
11
5.810000
21
4.483145
31
-0.848145
12
5.810000
22
4.495582
32
-0.832992
13
5.810000
23
4.495582
33
-0.832992
0
3DFACE
8
0
10
5.810000
20
4.495582
30
-0.832992
11
5.410000
21
4.495582
31
-0.832992
12
5.410000
22
4.483145
32
-0.848145
13
5.410000
23
4.483145
33
-0.848145
0
3DFACE
8
0
10
5.410000
20
4.483145
30
-0.848145
11
5.410000
21
4.467992
31
-0.860582
12
5.810000
22
4.467992
32
-0.860582
13
5.810000
23
4.467992
33
-0.860582
0
3DFACE
8
0
10
5.810000
20
4.467992
30
-0.860582
11
5.810000
21
4.483145
31
-0.848145
12
5.410000
22
4.483145
32
-0.848145
13
5.410000
23
4.483145
33
-0.848145
0
3DFACE
8
0
10
5.410000
20
4.467992
30
-0.860582
11
5.410000
21
4.450703
31
-0.869823
12
5.810000
22
4.450703
32
-0.869823
13
5.810000
23
4.450703
33
-0.869823
0
3DFACE
8
0
10
5.810000
20
4.450703
30
-0.869823
11
5.810000
21
4.467992
31
-0.860582
12
5.410000
22
4.467992
32
-0.860582
13
5.410000
23
4.467992
33
-0.860582
0
3DFACE
8
0
10
5.810000
20
4.412435
30
-0.877435
11
5.810000
21
4.431944
31
-0.875513
12
5.410000
22
4.431944
32
-0.875513
13
5.410000
23
4.431944
33
-0.875513
0
3DFACE
8
0
10
5.410000
20
4.431944
30
-0.875513
11
5.410000
21
4.412435
31
-0.877435
12
5.810000
22
4.412435
32
-0.877435
13
5.810000
23
4.412435
33
-0.877435
0
3DFACE
8
0
10
5.410000
20
4.450703
30
-0.869823
11
5.410000
21
4.431944
31
-0.875513
12
5.810000
22
4.431944
32
-0.875513
13
5.810000
23
4.431944
33
-0.875513
0
3DFACE
8
0
10
5.810000
20
4.431944
30
-0.875513
11
5.810000
21
4.450703
31
-0.869823
12
5.410000
22
4.450703
32
-0.869823
13
5.410000
23
4.450703
33
-0.869823
0
3DFACE
8
0
10
5.410000
20
4.412435
30
-0.277435
11
5.410000
21
4.392926
31
-0.275513
12
5.810000
22
4.392926
32
-0.275513
13
5.810000
23
4.392926
33
-0.275513
0
3DFACE
8
0
10
5.810000
20
4.392926
30
-0.275513
11
5.810000
21
4.412435
31
-0.277435
12
5.410000
22
4.412435
32
-0.277435
13
5.410000
23
4.412435
33
-0.277435
0
3DFACE
8
0
10
5.410000
20
4.392926
30
-0.275513
11
5.410000
21
4.374166
31
-0.269822
12
5.810000
22
4.374166
32
-0.269822
13
5.810000
23
4.374166
33
-0.269822
0
3DFACE
8
0
10
5.810000
20
4.374166
30
-0.269822
11
5.810000
21
4.392926
31
-0.275513
12
5.410000
22
4.392926
32
-0.275513
13
5.410000
23
4.392926
33
-0.275513
0
3DFACE
8
0
10
5.410000
20
4.374166
30
-0.269822
11
5.410000
21
4.356878
31
-0.260581
12
5.810000
22
4.356878
32
-0.260581
13
5.810000
23
4.356878
33
-0.260581
0
3DFACE
8
0
10
5.810000
20
4.356878
30
-0.260581
11
5.810000
21
4.374166
31
-0.269822
12
5.410000
22
4.374166
32
-0.269822
13
5.410000
23
4.374166
33
-0.269822
0
3DFACE
8
0
10
5.410000
20
4.356878
30
-0.260581
11
5.410000
21
4.341724
31
-0.248145
12
5.810000
22
4.341724
32
-0.248145
13
5.810000
23
4.341724
33
-0.248145
0
3DFACE
8
0
10
5.810000
20
4.341724
30
-0.248145
11
5.810000
21
4.356878
31
-0.260581
12
5.410000
22
4.356878
32
-0.260581
13
5.410000
23
4.356878
33
-0.260581
0
3DFACE
8
0
10
5.410000
20
4.329288
30
-0.232992
11
5.810000
21
4.329288
31
-0.232992
12
5.810000
22
4.341724
32
-0.248145
13
5.810000
23
4.341724
33
-0.248145
0
3DFACE
8
0
10
5.810000
20
4.341724
30
-0.248145
11
5.410000
21
4.341724
31
-0.248145
12
5.410000
22
4.329288
32
-0.232992
13
5.410000
23
4.329288
33
-0.232992
0
3DFACE
8
0
10
5.410000
20
4.320047
30
-0.215703
11
5.810000
21
4.320047
31
-0.215703
12
5.810000
22
4.329288
32
-0.232992
13
5.810000
23
4.329288
33
-0.232992
0
3DFACE
8
0
10
5.810000
20
4.329288
30
-0.232992
11
5.410000
21
4.329288
31
-0.232992
12
5.410000
22
4.320047
32
-0.215703
13
5.410000
23
4.320047
33
-0.215703
0
3DFACE
8
0
10
5.410000
20
4.314356
30
-0.196944
11
5.810000
21
4.314356
31
-0.196944
12
5.810000
22
4.320047
32
-0.215703
13
5.810000
23
4.320047
33
-0.215703
0
3DFACE
8
0
10
5.810000
20
4.320047
30
-0.215703
11
5.410000
21
4.320047
31
-0.215703
12
5.410000
22
4.314356
32
-0.196944
13
5.410000
23
4.314356
33
-0.196944
0
3DFACE
8
0
10
5.410000
20
4.312435
30
-0.177434
11
5.810000
21
4.312435
31
-0.177434
12
5.810000
22
4.314356
32
-0.196944
13
5.810000
23
4.314356
33
-0.196944
0
3DFACE
8
0
10
5.810000
20
4.314356
30
-0.196944
11
5.410000
21
4.314356
31
-0.196944
12
5.410000
22
4.312435
32
-0.177434
13
5.410000
23
4.312435
33
-0.177434
0
3DFACE
8
0
10
5.410000
20
4.314356
30
-0.157925
11
5.810000
21
4.314356
31
-0.157925
12
5.810000
22
4.312435
32
-0.177434
13
5.810000
23
4.312435
33
-0.177434
0
3DFACE
8
0
10
5.810000
20
4.312435
30
-0.177434
11
5.410000
21
4.312435
31
-0.177434
12
5.410000
22
4.314356
32
-0.157925
13
5.410000
23
4.314356
33
-0.157925
0
3DFACE
8
0
10
5.410000
20
4.320047
30
-0.139166
11
5.810000
21
4.320047
31
-0.139166
12
5.810000
22
4.314356
32
-0.157925
13
5.810000
23
4.314356
33
-0.157925
0
3DFACE
8
0
10
5.810000
20
4.314356
30
-0.157925
11
5.410000
21
4.314356
31
-0.157925
12
5.410000
22
4.320047
32
-0.139166
13
5.410000
23
4.320047
33
-0.139166
0
3DFACE
8
0
10
5.410000
20
4.329288
30
-0.121877
11
5.810000
21
4.329288
31
-0.121877
12
5.810000
22
4.320047
32
-0.139166
13
5.810000
23
4.320047
33
-0.139166
0
3DFACE
8
0
10
5.810000
20
4.320047
30
-0.139166
11
5.410000
21
4.320047
31
-0.139166
12
5.410000
22
4.329288
32
-0.121877
13
5.410000
23
4.329288
33
-0.121877
0
3DFACE
8
0
10
5.410000
20
4.341724
30
-0.106724
11
5.810000
21
4.341724
31
-0.106724
12
5.810000
22
4.329288
32
-0.121877
13
5.810000
23
4.329288
33
-0.121877
0
3DFACE
8
0
10
5.810000
20
4.329288
30
-0.121877
11
5.410000
21
4.329288
31
-0.121877
12
5.410000
22
4.341724
32
-0.106724
13
5.410000
23
4.341724
33
-0.106724
0
3DFACE
8
0
10
5.410000
20
4.356878
30
-0.094288
11
5.810000
21
4.356878
31
-0.094288
12
5.810000
22
4.341724
32
-0.106724
13
5.810000
23
4.341724
33
-0.106724
0
3DFACE
8
0
10
5.810000
20
4.341724
30
-0.106724
11
5.410000
21
4.341724
31
-0.106724
12
5.410000
22
4.356878
32
-0.094288
13
5.410000
23
4.356878
33
-0.094288
0
3DFACE
8
0
10
5.410000
20
4.374166
30
-0.085047
11
5.810000
21
4.374166
31
-0.085047
12
5.810000
22
4.356878
32
-0.094288
13
5.810000
23
4.356878
33
-0.094288
0
3DFACE
8
0
10
5.810000
20
4.356878
30
-0.094288
11
5.410000
21
4.356878
31
-0.094288
12
5.410000
22
4.374166
32
-0.085047
13
5.410000
23
4.374166
33
-0.085047
0
3DFACE
8
0
10
5.410000
20
4.392926
30
-0.079356
11
5.810000
21
4.392926
31
-0.079356
12
5.810000
22
4.374166
32
-0.085047
13
5.810000
23
4.374166
33
-0.085047
0
3DFACE
8
0
10
5.810000
20
4.374166
30
-0.085047
11
5.410000
21
4.374166
31
-0.085047
12
5.410000
22
4.392926
32
-0.079356
13
5.410000
23
4.392926
33
-0.079356
0
3DFACE
8
0
10
5.410000
20
4.412435
30
-0.077435
11
5.810000
21
4.412435
31
-0.077435
12
5.810000
22
4.392926
32
-0.079356
13
5.810000
23
4.392926
33
-0.079356
0
3DFACE
8
0
10
5.810000
20
4.392926
30
-0.079356
11
5.410000
21
4.392926
31
-0.079356
12
5.410000
22
4.412435
32
-0.077435
13
5.410000
23
4.412435
33
-0.077435
0
3DFACE
8
0
10
5.410000
20
4.431944
30
-0.079356
11
5.810000
21
4.431944
31
-0.079356
12
5.810000
22
4.412435
32
-0.077435
13
5.810000
23
4.412435
33
-0.077435
0
3DFACE
8
0
10
5.810000
20
4.412435
30
-0.077435
11
5.410000
21
4.412435
31
-0.077435
12
5.410000
22
4.431944
32
-0.079356
13
5.410000
23
4.431944
33
-0.079356
0
3DFACE
8
0
10
5.410000
20
4.450703
30
-0.085047
11
5.810000
21
4.450703
31
-0.085047
12
5.810000
22
4.431944
32
-0.079356
13
5.810000
23
4.431944
33
-0.079356
0
3DFACE
8
0
10
5.810000
20
4.431944
30
-0.079356
11
5.410000
21
4.431944
31
-0.079356
12
5.410000
22
4.450703
32
-0.085047
13
5.410000
23
4.450703
33
-0.085047
0
3DFACE
8
0
10
5.410000
20
4.467992
30
-0.094288
11
5.810000
21
4.467992
31
-0.094288
12
5.810000
22
4.450703
32
-0.085047
13
5.810000
23
4.450703
33
-0.085047
0
3DFACE
8
0
10
5.810000
20
4.450703
30
-0.085047
11
5.410000
21
4.450703
31
-0.085047
12
5.410000
22
4.467992
32
-0.094288
13
5.410000
23
4.467992
33
-0.094288
0
3DFACE
8
0
10
5.410000
20
4.483146
30
-0.106724
11
5.810000
21
4.483146
31
-0.106724
12
5.810000
22
4.467992
32
-0.094288
13
5.810000
23
4.467992
33
-0.094288
0
3DFACE
8
0
10
5.810000
20
4.467992
30
-0.094288
11
5.410000
21
4.467992
31
-0.094288
12
5.410000
22
4.483146
32
-0.106724
13
5.410000
23
4.483146
33
-0.106724
0
3DFACE
8
0
10
5.410000
20
4.495582
30
-0.121878
11
5.810000
21
4.495582
31
-0.121878
12
5.810000
22
4.483146
32
-0.106724
13
5.810000
23
4.483146
33
-0.106724
0
3DFACE
8
0
10
5.810000
20
4.483146
30
-0.106724
11
5.410000
21
4.483146
31
-0.106724
12
5.410000
22
4.495582
32
-0.121878
13
5.410000
23
4.495582
33
-0.121878
0
3DFACE
8
0
10
5.410000
20
4.504823
30
-0.139166
11
5.810000
21
4.504823
31
-0.139166
12
5.810000
22
4.495582
32
-0.121878
13
5.810000
23
4.495582
33
-0.121878
0
3DFACE
8
0
10
5.810000
20
4.495582
30
-0.121878
11
5.410000
21
4.495582
31
-0.121878
12
5.410000
22
4.504823
32
-0.139166
13
5.410000
23
4.504823
33
-0.139166
0
3DFACE
8
0
10
5.410000
20
4.510513
30
-0.157926
11
5.810000
21
4.510513
31
-0.157926
12
5.810000
22
4.504823
32
-0.139166
13
5.810000
23
4.504823
33
-0.139166
0
3DFACE
8
0
10
5.810000
20
4.504823
30
-0.139166
11
5.410000
21
4.504823
31
-0.139166
12
5.410000
22
4.510513
32
-0.157926
13
5.410000
23
4.510513
33
-0.157926
0
3DFACE
8
0
10
5.410000
20
4.512435
30
-0.177435
11
5.810000
21
4.512435
31
-0.177435
12
5.810000
22
4.510513
32
-0.157926
13
5.810000
23
4.510513
33
-0.157926
0
3DFACE
8
0
10
5.810000
20
4.510513
30
-0.157926
11
5.410000
21
4.510513
31
-0.157926
12
5.410000
22
4.512435
32
-0.177435
13
5.410000
23
4.512435
33
-0.177435
0
3DFACE
8
0
10
5.410000
20
4.510513
30
-0.196944
11
5.810000
21
4.510513
31
-0.196944
12
5.810000
22
4.512435
32
-0.177435
13
5.810000
23
4.512435
33
-0.177435
0
3DFACE
8
0
10
5.810000
20
4.512435
30
-0.177435
11
5.410000
21
4.512435
31
-0.177435
12
5.410000
22
4.510513
32
-0.196944
13
5.410000
23
4.510513
33
-0.196944
0
3DFACE
8
0
10
5.410000
20
4.504823
30
-0.215703
11
5.810000
21
4.504823
31
-0.215703
12
5.810000
22
4.510513
32
-0.196944
13
5.810000
23
4.510513
33
-0.196944
0
3DFACE
8
0
10
5.810000
20
4.510513
30
-0.196944
11
5.410000
21
4.510513
31
-0.196944
12
5.410000
22
4.504823
32
-0.215703
13
5.410000
23
4.504823
33
-0.215703
0
3DFACE
8
0
10
5.410000
20
4.495582
30
-0.232992
11
5.810000
21
4.495582
31
-0.232992
12
5.810000
22
4.504823
32
-0.215703
13
5.810000
23
4.504823
33
-0.215703
0
3DFACE
8
0
10
5.810000
20
4.504823
30
-0.215703
11
5.410000
21
4.504823
31
-0.215703
12
5.410000
22
4.495582
32
-0.232992
13
5.410000
23
4.495582
33
-0.232992
0
3DFACE
8
0
10
5.410000
20
4.483145
30
-0.248145
11
5.810000
21
4.483145
31
-0.248145
12
5.810000
22
4.495582
32
-0.232992
13
5.810000
23
4.495582
33
-0.232992
0
3DFACE
8
0
10
5.810000
20
4.495582
30
-0.232992
11
5.410000
21
4.495582
31
-0.232992
12
5.410000
22
4.483145
32
-0.248145
13
5.410000
23
4.483145
33
-0.248145
0
3DFACE
8
0
10
5.410000
20
4.483145
30
-0.248145
11
5.410000
21
4.467992
31
-0.260582
12
5.810000
22
4.467992
32
-0.260582
13
5.810000
23
4.467992
33
-0.260582
0
3DFACE
8
0
10
5.810000
20
4.467992
30
-0.260582
11
5.810000
21
4.483145
31
-0.248145
12
5.410000
22
4.483145
32
-0.248145
13
5.410000
23
4.483145
33
-0.248145
0
3DFACE
8
0
10
5.410000
20
4.467992
30
-0.260582
11
5.410000
21
4.450703
31
-0.269823
12
5.810000
22
4.450703
32
-0.269823
13
5.810000
23
4.450703
33
-0.269823
0
3DFACE
8
0
10
5.810000
20
4.450703
30
-0.269823
11
5.810000
21
4.467992
31
-0.260582
12
5.410000
22
4.467992
32
-0.260582
13
5.410000
23
4.467992
33
-0.260582
0
3DFACE
8
0
10
5.410000
20
4.431944
30
-0.275513
11
5.410000
21
4.412435
31
-0.277435
12
5.810000
22
4.412435
32
-0.277435
13
5.810000
23
4.412435
33
-0.277435
0
3DFACE
8
0
10
5.810000
20
4.412435
30
-0.277435
11
5.810000
21
4.431944
31
-0.275513
12
5.410000
22
4.431944
32
-0.275513
13
5.410000
23
4.431944
33
-0.275513
0
3DFACE
8
0
10
5.410000
20
4.450703
30
-0.269823
11
5.410000
21
4.431944
31
-0.275513
12
5.810000
22
4.431944
32
-0.275513
13
5.810000
23
4.431944
33
-0.275513
0
3DFACE
8
0
10
5.810000
20
4.431944
30
-0.275513
11
5.810000
21
4.450703
31
-0.269823
12
5.410000
22
4.450703
32
-0.269823
13
5.410000
23
4.450703
33
-0.269823
0
3DFACE
8
0
10
5.410000
20
5.012435
30
-0.277435
11
5.410000
21
4.992926
31
-0.275513
12
5.810000
22
4.992926
32
-0.275513
13
5.810000
23
4.992926
33
-0.275513
0
3DFACE
8
0
10
5.810000
20
4.992926
30
-0.275513
11
5.810000
21
5.012435
31
-0.277435
12
5.410000
22
5.012435
32
-0.277435
13
5.410000
23
5.012435
33
-0.277435
0
3DFACE
8
0
10
5.410000
20
4.992926
30
-0.275513
11
5.410000
21
4.974166
31
-0.269822
12
5.810000
22
4.974167
32
-0.269822
13
5.810000
23
4.974167
33
-0.269822
0
3DFACE
8
0
10
5.810000
20
4.974167
30
-0.269822
11
5.810000
21
4.992926
31
-0.275513
12
5.410000
22
4.992926
32
-0.275513
13
5.410000
23
4.992926
33
-0.275513
0
3DFACE
8
0
10
5.410000
20
4.974166
30
-0.269822
11
5.410000
21
4.956878
31
-0.260581
12
5.810000
22
4.956878
32
-0.260581
13
5.810000
23
4.956878
33
-0.260581
0
3DFACE
8
0
10
5.810000
20
4.956878
30
-0.260581
11
5.810000
21
4.974167
31
-0.269822
12
5.410000
22
4.974166
32
-0.269822
13
5.410000
23
4.974166
33
-0.269822
0
3DFACE
8
0
10
5.410000
20
4.956878
30
-0.260581
11
5.410000
21
4.941724
31
-0.248145
12
5.810000
22
4.941724
32
-0.248145
13
5.810000
23
4.941724
33
-0.248145
0
3DFACE
8
0
10
5.810000
20
4.941724
30
-0.248145
11
5.810000
21
4.956878
31
-0.260581
12
5.410000
22
4.956878
32
-0.260581
13
5.410000
23
4.956878
33
-0.260581
0
3DFACE
8
0
10
5.410000
20
4.929288
30
-0.232992
11
5.810000
21
4.929288
31
-0.232992
12
5.810000
22
4.941724
32
-0.248145
13
5.810000
23
4.941724
33
-0.248145
0
3DFACE
8
0
10
5.810000
20
4.941724
30
-0.248145
11
5.410000
21
4.941724
31
-0.248145
12
5.410000
22
4.929288
32
-0.232992
13
5.410000
23
4.929288
33
-0.232992
0
3DFACE
8
0
10
5.410000
20
4.920047
30
-0.215703
11
5.810000
21
4.920047
31
-0.215703
12
5.810000
22
4.929288
32
-0.232992
13
5.810000
23
4.929288
33
-0.232992
0
3DFACE
8
0
10
5.810000
20
4.929288
30
-0.232992
11
5.410000
21
4.929288
31
-0.232992
12
5.410000
22
4.920047
32
-0.215703
13
5.410000
23
4.920047
33
-0.215703
0
3DFACE
8
0
10
5.410000
20
4.914356
30
-0.196944
11
5.810000
21
4.914356
31
-0.196944
12
5.810000
22
4.920047
32
-0.215703
13
5.810000
23
4.920047
33
-0.215703
0
3DFACE
8
0
10
5.810000
20
4.920047
30
-0.215703
11
5.410000
21
4.920047
31
-0.215703
12
5.410000
22
4.914356
32
-0.196944
13
5.410000
23
4.914356
33
-0.196944
0
3DFACE
8
0
10
5.410000
20
4.912435
30
-0.177435
11
5.810000
21
4.912435
31
-0.177435
12
5.810000
22
4.914356
32
-0.196944
13
5.810000
23
4.914356
33
-0.196944
0
3DFACE
8
0
10
5.810000
20
4.914356
30
-0.196944
11
5.410000
21
4.914356
31
-0.196944
12
5.410000
22
4.912435
32
-0.177435
13
5.410000
23
4.912435
33
-0.177435
0
3DFACE
8
0
10
5.410000
20
4.914356
30
-0.157925
11
5.810000
21
4.914356
31
-0.157925
12
5.810000
22
4.912435
32
-0.177435
13
5.810000
23
4.912435
33
-0.177435
0
3DFACE
8
0
10
5.810000
20
4.912435
30
-0.177435
11
5.410000
21
4.912435
31
-0.177435
12
5.410000
22
4.914356
32
-0.157925
13
5.410000
23
4.914356
33
-0.157925
0
3DFACE
8
0
10
5.410000
20
4.920047
30
-0.139166
11
5.810000
21
4.920047
31
-0.139166
12
5.810000
22
4.914356
32
-0.157925
13
5.810000
23
4.914356
33
-0.157925
0
3DFACE
8
0
10
5.810000
20
4.914356
30
-0.157925
11
5.410000
21
4.914356
31
-0.157925
12
5.410000
22
4.920047
32
-0.139166
13
5.410000
23
4.920047
33
-0.139166
0
3DFACE
8
0
10
5.410000
20
4.929288
30
-0.121877
11
5.810000
21
4.929288
31
-0.121877
12
5.810000
22
4.920047
32
-0.139166
13
5.810000
23
4.920047
33
-0.139166
0
3DFACE
8
0
10
5.810000
20
4.920047
30
-0.139166
11
5.410000
21
4.920047
31
-0.139166
12
5.410000
22
4.929288
32
-0.121877
13
5.410000
23
4.929288
33
-0.121877
0
3DFACE
8
0
10
5.410000
20
4.941724
30
-0.106724
11
5.810000
21
4.941724
31
-0.106724
12
5.810000
22
4.929288
32
-0.121877
13
5.810000
23
4.929288
33
-0.121877
0
3DFACE
8
0
10
5.810000
20
4.929288
30
-0.121877
11
5.410000
21
4.929288
31
-0.121877
12
5.410000
22
4.941724
32
-0.106724
13
5.410000
23
4.941724
33
-0.106724
0
3DFACE
8
0
10
5.410000
20
4.956878
30
-0.094288
11
5.810000
21
4.956878
31
-0.094288
12
5.810000
22
4.941724
32
-0.106724
13
5.810000
23
4.941724
33
-0.106724
0
3DFACE
8
0
10
5.810000
20
4.941724
30
-0.106724
11
5.410000
21
4.941724
31
-0.106724
12
5.410000
22
4.956878
32
-0.094288
13
5.410000
23
4.956878
33
-0.094288
0
3DFACE
8
0
10
5.410000
20
4.974167
30
-0.085047
11
5.810000
21
4.974167
31
-0.085047
12
5.810000
22
4.956878
32
-0.094288
13
5.810000
23
4.956878
33
-0.094288
0
3DFACE
8
0
10
5.810000
20
4.956878
30
-0.094288
11
5.410000
21
4.956878
31
-0.094288
12
5.410000
22
4.974167
32
-0.085047
13
5.410000
23
4.974167
33
-0.085047
0
3DFACE
8
0
10
5.410000
20
4.992926
30
-0.079356
11
5.810000
21
4.992926
31
-0.079356
12
5.810000
22
4.974167
32
-0.085047
13
5.810000
23
4.974167
33
-0.085047
0
3DFACE
8
0
10
5.810000
20
4.974167
30
-0.085047
11
5.410000
21
4.974167
31
-0.085047
12
5.410000
22
4.992926
32
-0.079356
13
5.410000
23
4.992926
33
-0.079356
0
3DFACE
8
0
10
5.410000
20
5.012435
30
-0.077435
11
5.810000
21
5.012435
31
-0.077435
12
5.810000
22
4.992926
32
-0.079356
13
5.810000
23
4.992926
33
-0.079356
0
3DFACE
8
0
10
5.810000
20
4.992926
30
-0.079356
11
5.410000
21
4.992926
31
-0.079356
12
5.410000
22
5.012435
32
-0.077435
13
5.410000
23
5.012435
33
-0.077435
0
3DFACE
8
0
10
5.410000
20
5.031944
30
-0.079356
11
5.810000
21
5.031944
31
-0.079356
12
5.810000
22
5.012435
32
-0.077435
13
5.810000
23
5.012435
33
-0.077435
0
3DFACE
8
0
10
5.810000
20
5.012435
30
-0.077435
11
5.410000
21
5.012435
31
-0.077435
12
5.410000
22
5.031944
32
-0.079356
13
5.410000
23
5.031944
33
-0.079356
0
3DFACE
8
0
10
5.410000
20
5.050704
30
-0.085047
11
5.810000
21
5.050704
31
-0.085047
12
5.810000
22
5.031944
32
-0.079356
13
5.810000
23
5.031944
33
-0.079356
0
3DFACE
8
0
10
5.810000
20
5.031944
30
-0.079356
11
5.410000
21
5.031944
31
-0.079356
12
5.410000
22
5.050704
32
-0.085047
13
5.410000
23
5.050704
33
-0.085047
0
3DFACE
8
0
10
5.410000
20
5.067992
30
-0.094288
11
5.810000
21
5.067992
31
-0.094288
12
5.810000
22
5.050704
32
-0.085047
13
5.810000
23
5.050704
33
-0.085047
0
3DFACE
8
0
10
5.810000
20
5.050704
30
-0.085047
11
5.410000
21
5.050704
31
-0.085047
12
5.410000
22
5.067992
32
-0.094288
13
5.410000
23
5.067992
33
-0.094288
0
3DFACE
8
0
10
5.410000
20
5.083146
30
-0.106724
11
5.810000
21
5.083146
31
-0.106724
12
5.810000
22
5.067992
32
-0.094288
13
5.810000
23
5.067992
33
-0.094288
0
3DFACE
8
0
10
5.810000
20
5.067992
30
-0.094288
11
5.410000
21
5.067992
31
-0.094288
12
5.410000
22
5.083146
32
-0.106724
13
5.410000
23
5.083146
33
-0.106724
0
3DFACE
8
0
10
5.410000
20
5.095582
30
-0.121878
11
5.810000
21
5.095582
31
-0.121878
12
5.810000
22
5.083146
32
-0.106724
13
5.810000
23
5.083146
33
-0.106724
0
3DFACE
8
0
10
5.810000
20
5.083146
30
-0.106724
11
5.410000
21
5.083146
31
-0.106724
12
5.410000
22
5.095582
32
-0.121878
13
5.410000
23
5.095582
33
-0.121878
0
3DFACE
8
0
10
5.410000
20
5.104823
30
-0.139166
11
5.810000
21
5.104823
31
-0.139166
12
5.810000
22
5.095582
32
-0.121878
13
5.810000
23
5.095582
33
-0.121878
0
3DFACE
8
0
10
5.810000
20
5.095582
30
-0.121878
11
5.410000
21
5.095582
31
-0.121878
12
5.410000
22
5.104823
32
-0.139166
13
5.410000
23
5.104823
33
-0.139166
0
3DFACE
8
0
10
5.410000
20
5.110514
30
-0.157926
11
5.810000
21
5.110514
31
-0.157926
12
5.810000
22
5.104823
32
-0.139166
13
5.810000
23
5.104823
33
-0.139166
0
3DFACE
8
0
10
5.810000
20
5.104823
30
-0.139166
11
5.410000
21
5.104823
31
-0.139166
12
5.410000
22
5.110514
32
-0.157926
13
5.410000
23
5.110514
33
-0.157926
0
3DFACE
8
0
10
5.410000
20
5.112435
30
-0.177435
11
5.810000
21
5.112435
31
-0.177435
12
5.810000
22
5.110514
32
-0.157926
13
5.810000
23
5.110514
33
-0.157926
0
3DFACE
8
0
10
5.810000
20
5.110514
30
-0.157926
11
5.410000
21
5.110514
31
-0.157926
12
5.410000
22
5.112435
32
-0.177435
13
5.410000
23
5.112435
33
-0.177435
0
3DFACE
8
0
10
5.410000
20
5.110514
30
-0.196944
11
5.810000
21
5.110514
31
-0.196944
12
5.810000
22
5.112435
32
-0.177435
13
5.810000
23
5.112435
33
-0.177435
0
3DFACE
8
0
10
5.810000
20
5.112435
30
-0.177435
11
5.410000
21
5.112435
31
-0.177435
12
5.410000
22
5.110514
32
-0.196944
13
5.410000
23
5.110514
33
-0.196944
0
3DFACE
8
0
10
5.410000
20
5.104823
30
-0.215703
11
5.810000
21
5.104823
31
-0.215703
12
5.810000
22
5.110514
32
-0.196944
13
5.810000
23
5.110514
33
-0.196944
0
3DFACE
8
0
10
5.810000
20
5.110514
30
-0.196944
11
5.410000
21
5.110514
31
-0.196944
12
5.410000
22
5.104823
32
-0.215703
13
5.410000
23
5.104823
33
-0.215703
0
3DFACE
8
0
10
5.410000
20
5.095582
30
-0.232992
11
5.810000
21
5.095582
31
-0.232992
12
5.810000
22
5.104823
32
-0.215703
13
5.810000
23
5.104823
33
-0.215703
0
3DFACE
8
0
10
5.810000
20
5.104823
30
-0.215703
11
5.410000
21
5.104823
31
-0.215703
12
5.410000
22
5.095582
32
-0.232992
13
5.410000
23
5.095582
33
-0.232992
0
3DFACE
8
0
10
5.410000
20
5.083146
30
-0.248145
11
5.810000
21
5.083146
31
-0.248145
12
5.810000
22
5.095582
32
-0.232992
13
5.810000
23
5.095582
33
-0.232992
0
3DFACE
8
0
10
5.810000
20
5.095582
30
-0.232992
11
5.410000
21
5.095582
31
-0.232992
12
5.410000
22
5.083146
32
-0.248145
13
5.410000
23
5.083146
33
-0.248145
0
3DFACE
8
0
10
5.410000
20
5.083146
30
-0.248145
11
5.410000
21
5.067992
31
-0.260582
12
5.810000
22
5.067992
32
-0.260582
13
5.810000
23
5.067992
33
-0.260582
0
3DFACE
8
0
10
5.810000
20
5.067992
30
-0.260582
11
5.810000
21
5.083146
31
-0.248145
12
5.410000
22
5.083146
32
-0.248145
13
5.410000
23
5.083146
33
-0.248145
0
3DFACE
8
0
10
5.410000
20
5.067992
30
-0.260582
11
5.410000
21
5.050703
31
-0.269823
12
5.810000
22
5.050703
32
-0.269823
13
5.810000
23
5.050703
33
-0.269823
0
3DFACE
8
0
10
5.810000
20
5.050703
30
-0.269823
11
5.810000
21
5.067992
31
-0.260582
12
5.410000
22
5.067992
32
-0.260582
13
5.410000
23
5.067992
33
-0.260582
0
3DFACE
8
0
10
5.410000
20
5.031944
30
-0.275513
11
5.410000
21
5.012435
31
-0.277435
12
5.810000
22
5.012435
32
-0.277435
13
5.810000
23
5.012435
33
-0.277435
0
3DFACE
8
0
10
5.810000
20
5.012435
30
-0.277435
11
5.810000
21
5.031944
31
-0.275513
12
5.410000
22
5.031944
32
-0.275513
13
5.410000
23
5.031944
33
-0.275513
0
3DFACE
8
0
10
5.410000
20
5.050703
30
-0.269823
11
5.410000
21
5.031944
31
-0.275513
12
5.810000
22
5.031944
32
-0.275513
13
5.810000
23
5.031944
33
-0.275513
0
3DFACE
8
0
10
5.810000
20
5.031944
30
-0.275513
11
5.810000
21
5.050703
31
-0.269823
12
5.410000
22
5.050703
32
-0.269823
13
5.410000
23
5.050703
33
-0.269823
0
3DFACE
8
0
10
5.410000
20
5.012435
30
-0.877435
11
5.410000
21
4.992926
31
-0.875513
12
5.810000
22
4.992926
32
-0.875513
13
5.810000
23
4.992926
33
-0.875513
0
3DFACE
8
0
10
5.810000
20
4.992926
30
-0.875513
11
5.810000
21
5.012435
31
-0.877435
12
5.410000
22
5.012435
32
-0.877435
13
5.410000
23
5.012435
33
-0.877435
0
3DFACE
8
0
10
5.410000
20
4.992926
30
-0.875513
11
5.410000
21
4.974166
31
-0.869823
12
5.810000
22
4.974166
32
-0.869823
13
5.810000
23
4.974166
33
-0.869823
0
3DFACE
8
0
10
5.810000
20
4.974166
30
-0.869823
11
5.810000
21
4.992926
31
-0.875513
12
5.410000
22
4.992926
32
-0.875513
13
5.410000
23
4.992926
33
-0.875513
0
3DFACE
8
0
10
5.410000
20
4.974166
30
-0.869823
11
5.410000
21
4.956878
31
-0.860582
12
5.810000
22
4.956878
32
-0.860582
13
5.810000
23
4.956878
33
-0.860582
0
3DFACE
8
0
10
5.810000
20
4.956878
30
-0.860582
11
5.810000
21
4.974166
31
-0.869823
12
5.410000
22
4.974166
32
-0.869823
13
5.410000
23
4.974166
33
-0.869823
0
3DFACE
8
0
10
5.410000
20
4.956878
30
-0.860582
11
5.410000
21
4.941724
31
-0.848145
12
5.810000
22
4.941724
32
-0.848145
13
5.810000
23
4.941724
33
-0.848145
0
3DFACE
8
0
10
5.810000
20
4.941724
30
-0.848145
11
5.810000
21
4.956878
31
-0.860582
12
5.410000
22
4.956878
32
-0.860582
13
5.410000
23
4.956878
33
-0.860582
0
3DFACE
8
0
10
5.410000
20
4.929288
30
-0.832992
11
5.810000
21
4.929288
31
-0.832992
12
5.810000
22
4.941724
32
-0.848145
13
5.810000
23
4.941724
33
-0.848145
0
3DFACE
8
0
10
5.810000
20
4.941724
30
-0.848145
11
5.410000
21
4.941724
31
-0.848145
12
5.410000
22
4.929288
32
-0.832992
13
5.410000
23
4.929288
33
-0.832992
0
3DFACE
8
0
10
5.410000
20
4.920047
30
-0.815703
11
5.810000
21
4.920047
31
-0.815703
12
5.810000
22
4.929288
32
-0.832992
13
5.810000
23
4.929288
33
-0.832992
0
3DFACE
8
0
10
5.810000
20
4.929288
30
-0.832992
11
5.410000
21
4.929288
31
-0.832992
12
5.410000
22
4.920047
32
-0.815703
13
5.410000
23
4.920047
33
-0.815703
0
3DFACE
8
0
10
5.410000
20
4.914356
30
-0.796944
11
5.810000
21
4.914356
31
-0.796944
12
5.810000
22
4.920047
32
-0.815703
13
5.810000
23
4.920047
33
-0.815703
0
3DFACE
8
0
10
5.810000
20
4.920047
30
-0.815703
11
5.410000
21
4.920047
31
-0.815703
12
5.410000
22
4.914356
32
-0.796944
13
5.410000
23
4.914356
33
-0.796944
0
3DFACE
8
0
10
5.410000
20
4.912435
30
-0.777435
11
5.810000
21
4.912435
31
-0.777435
12
5.810000
22
4.914356
32
-0.796944
13
5.810000
23
4.914356
33
-0.796944
0
3DFACE
8
0
10
5.810000
20
4.914356
30
-0.796944
11
5.410000
21
4.914356
31
-0.796944
12
5.410000
22
4.912435
32
-0.777435
13
5.410000
23
4.912435
33
-0.777435
0
3DFACE
8
0
10
5.410000
20
4.914356
30
-0.757926
11
5.810000
21
4.914356
31
-0.757926
12
5.810000
22
4.912435
32
-0.777435
13
5.810000
23
4.912435
33
-0.777435
0
3DFACE
8
0
10
5.810000
20
4.912435
30
-0.777435
11
5.410000
21
4.912435
31
-0.777435
12
5.410000
22
4.914356
32
-0.757926
13
5.410000
23
4.914356
33
-0.757926
0
3DFACE
8
0
10
5.410000
20
4.920047
30
-0.739166
11
5.810000
21
4.920047
31
-0.739166
12
5.810000
22
4.914356
32
-0.757926
13
5.810000
23
4.914356
33
-0.757926
0
3DFACE
8
0
10
5.810000
20
4.914356
30
-0.757926
11
5.410000
21
4.914356
31
-0.757926
12
5.410000
22
4.920047
32
-0.739166
13
5.410000
23
4.920047
33
-0.739166
0
3DFACE
8
0
10
5.410000
20
4.929288
30
-0.721878
11
5.810000
21
4.929288
31
-0.721878
12
5.810000
22
4.920047
32
-0.739166
13
5.810000
23
4.920047
33
-0.739166
0
3DFACE
8
0
10
5.810000
20
4.920047
30
-0.739166
11
5.410000
21
4.920047
31
-0.739166
12
5.410000
22
4.929288
32
-0.721878
13
5.410000
23
4.929288
33
-0.721878
0
3DFACE
8
0
10
5.410000
20
4.941724
30
-0.706724
11
5.810000
21
4.941724
31
-0.706724
12
5.810000
22
4.929288
32
-0.721878
13
5.810000
23
4.929288
33
-0.721878
0
3DFACE
8
0
10
5.810000
20
4.929288
30
-0.721878
11
5.410000
21
4.929288
31
-0.721878
12
5.410000
22
4.941724
32
-0.706724
13
5.410000
23
4.941724
33
-0.706724
0
3DFACE
8
0
10
5.410000
20
4.956878
30
-0.694288
11
5.810000
21
4.956878
31
-0.694288
12
5.810000
22
4.941724
32
-0.706724
13
5.810000
23
4.941724
33
-0.706724
0
3DFACE
8
0
10
5.810000
20
4.941724
30
-0.706724
11
5.410000
21
4.941724
31
-0.706724
12
5.410000
22
4.956878
32
-0.694288
13
5.410000
23
4.956878
33
-0.694288
0
3DFACE
8
0
10
5.410000
20
4.974166
30
-0.685047
11
5.810000
21
4.974167
31
-0.685047
12
5.810000
22
4.956878
32
-0.694288
13
5.810000
23
4.956878
33
-0.694288
0
3DFACE
8
0
10
5.810000
20
4.956878
30
-0.694288
11
5.410000
21
4.956878
31
-0.694288
12
5.410000
22
4.974166
32
-0.685047
13
5.410000
23
4.974166
33
-0.685047
0
3DFACE
8
0
10
5.410000
20
4.992926
30
-0.679356
11
5.810000
21
4.992926
31
-0.679356
12
5.810000
22
4.974167
32
-0.685047
13
5.810000
23
4.974167
33
-0.685047
0
3DFACE
8
0
10
5.810000
20
4.974167
30
-0.685047
11
5.410000
21
4.974166
31
-0.685047
12
5.410000
22
4.992926
32
-0.679356
13
5.410000
23
4.992926
33
-0.679356
0
3DFACE
8
0
10
5.410000
20
5.012435
30
-0.677435
11
5.810000
21
5.012435
31
-0.677435
12
5.810000
22
4.992926
32
-0.679356
13
5.810000
23
4.992926
33
-0.679356
0
3DFACE
8
0
10
5.810000
20
4.992926
30
-0.679356
11
5.410000
21
4.992926
31
-0.679356
12
5.410000
22
5.012435
32
-0.677435
13
5.410000
23
5.012435
33
-0.677435
0
3DFACE
8
0
10
5.410000
20
5.031944
30
-0.679356
11
5.810000
21
5.031944
31
-0.679356
12
5.810000
22
5.012435
32
-0.677435
13
5.810000
23
5.012435
33
-0.677435
0
3DFACE
8
0
10
5.810000
20
5.012435
30
-0.677435
11
5.410000
21
5.012435
31
-0.677435
12
5.410000
22
5.031944
32
-0.679356
13
5.410000
23
5.031944
33
-0.679356
0
3DFACE
8
0
10
5.410000
20
5.050704
30
-0.685047
11
5.810000
21
5.050704
31
-0.685047
12
5.810000
22
5.031944
32
-0.679356
13
5.810000
23
5.031944
33
-0.679356
0
3DFACE
8
0
10
5.810000
20
5.031944
30
-0.679356
11
5.410000
21
5.031944
31
-0.679356
12
5.410000
22
5.050704
32
-0.685047
13
5.410000
23
5.050704
33
-0.685047
0
3DFACE
8
0
10
5.410000
20
5.067992
30
-0.694288
11
5.810000
21
5.067992
31
-0.694288
12
5.810000
22
5.050704
32
-0.685047
13
5.810000
23
5.050704
33
-0.685047
0
3DFACE
8
0
10
5.810000
20
5.050704
30
-0.685047
11
5.410000
21
5.050704
31
-0.685047
12
5.410000
22
5.067992
32
-0.694288
13
5.410000
23
5.067992
33
-0.694288
0
3DFACE
8
0
10
5.410000
20
5.083146
30
-0.706724
11
5.810000
21
5.083146
31
-0.706724
12
5.810000
22
5.067992
32
-0.694288
13
5.810000
23
5.067992
33
-0.694288
0
3DFACE
8
0
10
5.810000
20
5.067992
30
-0.694288
11
5.410000
21
5.067992
31
-0.694288
12
5.410000
22
5.083146
32
-0.706724
13
5.410000
23
5.083146
33
-0.706724
0
3DFACE
8
0
10
5.410000
20
5.095582
30
-0.721878
11
5.810000
21
5.095582
31
-0.721878
12
5.810000
22
5.083146
32
-0.706724
13
5.810000
23
5.083146
33
-0.706724
0
3DFACE
8
0
10
5.810000
20
5.083146
30
-0.706724
11
5.410000
21
5.083146
31
-0.706724
12
5.410000
22
5.095582
32
-0.721878
13
5.410000
23
5.095582
33
-0.721878
0
3DFACE
8
0
10
5.410000
20
5.104823
30
-0.739166
11
5.810000
21
5.104823
31
-0.739166
12
5.810000
22
5.095582
32
-0.721878
13
5.810000
23
5.095582
33
-0.721878
0
3DFACE
8
0
10
5.810000
20
5.095582
30
-0.721878
11
5.410000
21
5.095582
31
-0.721878
12
5.410000
22
5.104823
32
-0.739166
13
5.410000
23
5.104823
33
-0.739166
0
3DFACE
8
0
10
5.410000
20
5.110514
30
-0.757926
11
5.810000
21
5.110514
31
-0.757926
12
5.810000
22
5.104823
32
-0.739166
13
5.810000
23
5.104823
33
-0.739166
0
3DFACE
8
0
10
5.810000
20
5.104823
30
-0.739166
11
5.410000
21
5.104823
31
-0.739166
12
5.410000
22
5.110514
32
-0.757926
13
5.410000
23
5.110514
33
-0.757926
0
3DFACE
8
0
10
5.410000
20
5.112435
30
-0.777435
11
5.810000
21
5.112435
31
-0.777435
12
5.810000
22
5.110514
32
-0.757926
13
5.810000
23
5.110514
33
-0.757926
0
3DFACE
8
0
10
5.810000
20
5.110514
30
-0.757926
11
5.410000
21
5.110514
31
-0.757926
12
5.410000
22
5.112435
32
-0.777435
13
5.410000
23
5.112435
33
-0.777435
0
3DFACE
8
0
10
5.410000
20
5.110514
30
-0.796944
11
5.810000
21
5.110514
31
-0.796944
12
5.810000
22
5.112435
32
-0.777435
13
5.810000
23
5.112435
33
-0.777435
0
3DFACE
8
0
10
5.810000
20
5.112435
30
-0.777435
11
5.410000
21
5.112435
31
-0.777435
12
5.410000
22
5.110514
32
-0.796944
13
5.410000
23
5.110514
33
-0.796944
0
3DFACE
8
0
10
5.410000
20
5.104823
30
-0.815703
11
5.810000
21
5.104823
31
-0.815703
12
5.810000
22
5.110514
32
-0.796944
13
5.810000
23
5.110514
33
-0.796944
0
3DFACE
8
0
10
5.810000
20
5.110514
30
-0.796944
11
5.410000
21
5.110514
31
-0.796944
12
5.410000
22
5.104823
32
-0.815703
13
5.410000
23
5.104823
33
-0.815703
0
3DFACE
8
0
10
5.410000
20
5.095582
30
-0.832992
11
5.810000
21
5.095582
31
-0.832992
12
5.810000
22
5.104823
32
-0.815703
13
5.810000
23
5.104823
33
-0.815703
0
3DFACE
8
0
10
5.810000
20
5.104823
30
-0.815703
11
5.410000
21
5.104823
31
-0.815703
12
5.410000
22
5.095582
32
-0.832992
13
5.410000
23
5.095582
33
-0.832992
0
3DFACE
8
0
10
5.410000
20
5.083146
30
-0.848145
11
5.810000
21
5.083146
31
-0.848145
12
5.810000
22
5.095582
32
-0.832992
13
5.810000
23
5.095582
33
-0.832992
0
3DFACE
8
0
10
5.810000
20
5.095582
30
-0.832992
11
5.410000
21
5.095582
31
-0.832992
12
5.410000
22
5.083146
32
-0.848145
13
5.410000
23
5.083146
33
-0.848145
0
3DFACE
8
0
10
5.410000
20
5.083146
30
-0.848145
11
5.410000
21
5.067992
31
-0.860582
12
5.810000
22
5.067992
32
-0.860582
13
5.810000
23
5.067992
33
-0.860582
0
3DFACE
8
0
10
5.810000
20
5.067992
30
-0.860582
11
5.810000
21
5.083146
31
-0.848145
12
5.410000
22
5.083146
32
-0.848145
13
5.410000
23
5.083146
33
-0.848145
0
3DFACE
8
0
10
5.410000
20
5.067992
30
-0.860582
11
5.410000
21
5.050703
31
-0.869823
12
5.810000
22
5.050703
32
-0.869823
13
5.810000
23
5.050703
33
-0.869823
0
3DFACE
8
0
10
5.810000
20
5.050703
30
-0.869823
11
5.810000
21
5.067992
31
-0.860582
12
5.410000
22
5.067992
32
-0.860582
13
5.410000
23
5.067992
33
-0.860582
0
3DFACE
8
0
10
5.410000
20
5.031944
30
-0.875513
11
5.410000
21
5.012435
31
-0.877435
12
5.810000
22
5.012435
32
-0.877435
13
5.810000
23
5.012435
33
-0.877435
0
3DFACE
8
0
10
5.810000
20
5.012435
30
-0.877435
11
5.810000
21
5.031944
31
-0.875513
12
5.410000
22
5.031944
32
-0.875513
13
5.410000
23
5.031944
33
-0.875513
0
3DFACE
8
0
10
5.410000
20
5.050703
30
-0.869823
11
5.410000
21
5.031944
31
-0.875513
12
5.810000
22
5.031944
32
-0.875513
13
5.810000
23
5.031944
33
-0.875513
0
3DFACE
8
0
10
5.810000
20
5.031944
30
-0.875513
11
5.810000
21
5.050703
31
-0.869823
12
5.410000
22
5.050703
32
-0.869823
13
5.410000
23
5.050703
33
-0.869823
0
ENDSEC
0
EOF
