0
SECTION
2
ENTITIES
0
3DFACE
8
0
10
-4.352352
20
-4.237377
30
0.400000
11
-4.150000
21
-4.750001
31
0.400000
12
-4.349091
22
-4.235634
32
0.400000
13
-4.349091
23
-4.235634
33
0.400000
0
3DFACE
8
0
10
-4.150000
20
-4.750001
30
0.400000
11
-4.348769
21
-4.235462
31
0.400000
12
-4.349091
22
-4.235634
32
0.400000
13
-4.349091
23
-4.235634
33
0.400000
0
3DFACE
8
0
10
-4.150000
20
-4.750001
30
0.400000
11
-4.331715
21
-4.222703
31
0.400000
12
-4.344443
22
-4.233150
32
0.400000
13
-4.344443
23
-4.233150
33
0.400000
0
3DFACE
8
0
10
-4.150000
20
-4.750001
30
0.400000
11
-4.344443
21
-4.233150
31
0.400000
12
-4.348769
22
-4.235462
32
0.400000
13
-4.348769
23
-4.235462
33
0.400000
0
3DFACE
8
0
10
4.150000
20
-4.750001
30
0.400000
11
4.650000
21
-4.816668
31
0.400000
12
4.361732
22
-4.242391
32
0.400000
13
4.361732
23
-4.242391
33
0.400000
0
3DFACE
8
0
10
4.361732
20
-4.242391
30
0.400000
11
4.352352
21
-4.237377
31
0.400000
12
4.150000
22
-4.750001
32
0.400000
13
4.150000
23
-4.750001
33
0.400000
0
3DFACE
8
0
10
4.150000
20
-4.750001
30
0.400000
11
4.352352
21
-4.237377
31
0.400000
12
4.344443
22
-4.233150
32
0.400000
13
4.344443
23
-4.233150
33
0.400000
0
3DFACE
8
0
10
-4.329289
20
-4.220713
30
0.400000
11
-4.331715
21
-4.222703
31
0.400000
12
-4.150000
22
-4.750001
32
0.400000
13
-4.150000
23
-4.750001
33
0.400000
0
3DFACE
8
0
10
4.150000
20
-4.750001
30
0.400000
11
4.344443
21
-4.233150
31
0.400000
12
4.329289
22
-4.220713
32
0.400000
13
4.329289
23
-4.220713
33
0.400000
0
3DFACE
8
0
10
4.150000
20
-4.750001
30
0.400000
11
4.329289
21
-4.220713
31
0.400000
12
4.316853
22
-4.205560
32
0.400000
13
4.316853
23
-4.205560
33
0.400000
0
3DFACE
8
0
10
-4.150000
20
-4.750001
30
0.400000
11
-4.329126
21
-4.220514
31
0.400000
12
-4.329289
22
-4.220713
32
0.400000
13
-4.329289
23
-4.220713
33
0.400000
0
3DFACE
8
0
10
-4.329126
20
-4.220514
30
0.400000
11
-4.150000
21
-4.750001
31
0.400000
12
-4.327184
22
-4.218148
32
0.400000
13
-4.327184
23
-4.218148
33
0.400000
0
3DFACE
8
0
10
-4.316853
20
-4.205560
30
0.400000
11
-4.327184
21
-4.218148
31
0.400000
12
-4.150000
22
-4.750001
32
0.400000
13
-4.150000
23
-4.750001
33
0.400000
0
3DFACE
8
0
10
-4.316853
20
-4.205560
30
0.400000
11
-4.150000
21
-4.750001
31
0.400000
12
-4.307612
22
-4.188271
32
0.400000
13
-4.307612
23
-4.188271
33
0.400000
0
3DFACE
8
0
10
-4.301921
20
-4.169512
30
0.400000
11
-4.307612
21
-4.188271
31
0.400000
12
-4.150000
22
-4.750001
32
0.400000
13
-4.150000
23
-4.750001
33
0.400000
0
3DFACE
8
0
10
-4.150000
20
-4.750001
30
0.400000
11
-4.150000
21
-3.550002
31
0.400000
12
-4.307612
22
-4.111734
32
0.400000
13
-4.307612
23
-4.111734
33
0.400000
0
3DFACE
8
0
10
-4.307612
20
-4.111734
30
0.400000
11
-4.301921
21
-4.130493
31
0.400000
12
-4.150000
22
-4.750001
32
0.400000
13
-4.150000
23
-4.750001
33
0.400000
0
3DFACE
8
0
10
-4.150000
20
-4.750001
30
0.400000
11
-4.301921
21
-4.130493
31
0.400000
12
-4.300000
22
-4.150002
32
0.400000
13
-4.300000
23
-4.150002
33
0.400000
0
3DFACE
8
0
10
-1.350000
20
-5.816668
30
0.400000
11
-1.580491
21
-4.248081
31
0.400000
12
-1.600000
22
-4.250002
32
0.400000
13
-1.600000
23
-4.250002
33
0.400000
0
3DFACE
8
0
10
-1.350000
20
-5.816668
30
0.400000
11
-1.561732
21
-4.242391
31
0.400000
12
-1.580491
22
-4.248081
32
0.400000
13
-1.580491
23
-4.248081
33
0.400000
0
3DFACE
8
0
10
-1.350000
20
-5.816668
30
0.400000
11
-1.544443
21
-4.233150
31
0.400000
12
-1.561732
22
-4.242391
32
0.400000
13
-1.561732
23
-4.242391
33
0.400000
0
3DFACE
8
0
10
-1.350000
20
-5.816668
30
0.400000
11
-1.529289
21
-4.220713
31
0.400000
12
-1.544443
22
-4.233150
32
0.400000
13
-1.544443
23
-4.233150
33
0.400000
0
3DFACE
8
0
10
-1.350000
20
-5.816668
30
0.400000
11
-1.516853
21
-4.205560
31
0.400000
12
-1.529289
22
-4.220713
32
0.400000
13
-1.529289
23
-4.220713
33
0.400000
0
3DFACE
8
0
10
-1.350000
20
-5.816668
30
0.400000
11
-1.507612
21
-4.188271
31
0.400000
12
-1.516853
22
-4.205560
32
0.400000
13
-1.516853
23
-4.205560
33
0.400000
0
3DFACE
8
0
10
-1.350000
20
-5.816668
30
0.400000
11
-1.501922
21
-4.169512
31
0.400000
12
-1.507612
22
-4.188271
32
0.400000
13
-1.507612
23
-4.188271
33
0.400000
0
3DFACE
8
0
10
-1.350000
20
-5.816668
30
0.400000
11
-1.500000
21
-4.150002
31
0.400000
12
-1.501922
22
-4.169512
32
0.400000
13
-1.501922
23
-4.169512
33
0.400000
0
3DFACE
8
0
10
-1.350000
20
-3.548336
30
0.400000
11
-1.501922
21
-4.130493
31
0.400000
12
-1.500000
22
-4.150002
32
0.400000
13
-1.500000
23
-4.150002
33
0.400000
0
3DFACE
8
0
10
-1.500000
20
-4.150002
30
0.400000
11
-1.350000
21
-5.816668
31
0.400000
12
-1.350000
22
-3.548336
32
0.400000
13
-1.350000
23
-3.548336
33
0.400000
0
3DFACE
8
0
10
-1.600000
20
-4.250002
30
0.400000
11
-1.619509
21
-4.248081
31
0.400000
12
-1.350000
22
-5.816668
32
0.400000
13
-1.350000
23
-5.816668
33
0.400000
0
3DFACE
8
0
10
-1.350000
20
-3.548336
30
0.400000
11
-1.507612
21
-4.111734
31
0.400000
12
-1.501922
22
-4.130493
32
0.400000
13
-1.501922
23
-4.130493
33
0.400000
0
3DFACE
8
0
10
-1.350000
20
-3.548336
30
0.400000
11
-1.516853
21
-4.094445
31
0.400000
12
-1.507612
22
-4.111734
32
0.400000
13
-1.507612
23
-4.111734
33
0.400000
0
3DFACE
8
0
10
-1.350000
20
-3.548336
30
0.400000
11
-1.529289
21
-4.079291
31
0.400000
12
-1.516853
22
-4.094445
32
0.400000
13
-1.516853
23
-4.094445
33
0.400000
0
3DFACE
8
0
10
-1.350000
20
-3.548336
30
0.400000
11
-1.544443
21
-4.066855
31
0.400000
12
-1.529289
22
-4.079291
32
0.400000
13
-1.529289
23
-4.079291
33
0.400000
0
3DFACE
8
0
10
-1.350000
20
-3.548336
30
0.400000
11
-1.561732
21
-4.057614
31
0.400000
12
-1.544443
22
-4.066855
32
0.400000
13
-1.544443
23
-4.066855
33
0.400000
0
3DFACE
8
0
10
-1.619509
20
-4.248081
30
0.400000
11
-1.638268
21
-4.242391
31
0.400000
12
-1.350000
22
-5.816668
32
0.400000
13
-1.350000
23
-5.816668
33
0.400000
0
3DFACE
8
0
10
-1.350000
20
-3.548336
30
0.400000
11
-1.575089
21
-4.053562
31
0.400000
12
-1.561732
22
-4.057614
32
0.400000
13
-1.561732
23
-4.057614
33
0.400000
0
3DFACE
8
0
10
4.150000
20
-4.750001
30
0.400000
11
4.316853
21
-4.205560
31
0.400000
12
4.307612
22
-4.188271
32
0.400000
13
4.307612
23
-4.188271
33
0.400000
0
3DFACE
8
0
10
-1.850000
20
-4.750001
30
0.400000
11
-1.683147
21
-4.205560
31
0.400000
12
-1.692388
22
-4.188271
32
0.400000
13
-1.692388
23
-4.188271
33
0.400000
0
3DFACE
8
0
10
-4.150000
20
-3.550002
30
0.400000
11
-4.316853
21
-4.094445
31
0.400000
12
-4.307612
22
-4.111734
32
0.400000
13
-4.307612
23
-4.111734
33
0.400000
0
3DFACE
8
0
10
-4.150000
20
-3.550002
30
0.400000
11
-4.329289
21
-4.079291
31
0.400000
12
-4.316853
22
-4.094445
32
0.400000
13
-4.316853
23
-4.094445
33
0.400000
0
3DFACE
8
0
10
-4.150000
20
-3.550002
30
0.400000
11
-4.344443
21
-4.066855
31
0.400000
12
-4.329289
22
-4.079291
32
0.400000
13
-4.329289
23
-4.079291
33
0.400000
0
3DFACE
8
0
10
-4.150000
20
-3.550002
30
0.400000
11
-4.361732
21
-4.057614
31
0.400000
12
-4.344443
22
-4.066855
32
0.400000
13
-4.344443
23
-4.066855
33
0.400000
0
3DFACE
8
0
10
-4.150000
20
-3.550002
30
0.400000
11
-4.380491
21
-4.051924
31
0.400000
12
-4.361732
22
-4.057614
32
0.400000
13
-4.361732
23
-4.057614
33
0.400000
0
3DFACE
8
0
10
-4.150000
20
-3.550002
30
0.400000
11
-4.400000
21
-4.050002
31
0.400000
12
-4.380491
22
-4.051924
32
0.400000
13
-4.380491
23
-4.051924
33
0.400000
0
3DFACE
8
0
10
-4.150000
20
-3.550002
30
0.400000
11
-4.650000
21
-3.483336
31
0.400000
12
-4.401010
22
-4.050102
32
0.400000
13
-4.401010
23
-4.050102
33
0.400000
0
3DFACE
8
0
10
-4.401010
20
-4.050102
30
0.400000
11
-4.400000
21
-4.050002
31
0.400000
12
-4.150000
22
-3.550002
32
0.400000
13
-4.150000
23
-3.550002
33
0.400000
0
3DFACE
8
0
10
-4.650000
20
-3.483336
30
0.400000
11
-4.403208
21
-4.050319
31
0.400000
12
-4.401010
22
-4.050102
32
0.400000
13
-4.401010
23
-4.050102
33
0.400000
0
3DFACE
8
0
10
-4.650000
20
-3.483336
30
0.400000
11
-4.405813
21
-4.050575
31
0.400000
12
-4.403208
22
-4.050319
32
0.400000
13
-4.403208
23
-4.050319
33
0.400000
0
3DFACE
8
0
10
-1.850000
20
-3.550002
30
0.400000
11
-1.850000
21
-4.750001
31
0.400000
12
-1.692388
22
-4.188271
32
0.400000
13
-1.692388
23
-4.188271
33
0.400000
0
3DFACE
8
0
10
-1.692388
20
-4.188271
30
0.400000
11
-1.698079
21
-4.169511
31
0.400000
12
-1.850000
22
-3.550002
32
0.400000
13
-1.850000
23
-3.550002
33
0.400000
0
3DFACE
8
0
10
-4.650000
20
-3.483336
30
0.400000
11
-4.421978
21
-4.052672
31
0.400000
12
-4.419509
22
-4.051924
32
0.400000
13
-4.419509
23
-4.051924
33
0.400000
0
3DFACE
8
0
10
-4.405813
20
-4.050575
30
0.400000
11
-4.650000
21
-3.483336
31
0.400000
12
-4.419509
22
-4.051924
32
0.400000
13
-4.419509
23
-4.051924
33
0.400000
0
3DFACE
8
0
10
-1.850000
20
-4.750001
30
0.400000
11
-1.350000
21
-5.816668
31
0.400000
12
-1.638268
22
-4.242391
32
0.400000
13
-1.638268
23
-4.242391
33
0.400000
0
3DFACE
8
0
10
-1.638268
20
-4.242391
30
0.400000
11
-1.647648
21
-4.237377
31
0.400000
12
-1.850000
22
-4.750001
32
0.400000
13
-1.850000
23
-4.750001
33
0.400000
0
3DFACE
8
0
10
-1.850000
20
-4.750001
30
0.400000
11
-1.647648
21
-4.237377
31
0.400000
12
-1.655557
22
-4.233150
32
0.400000
13
-1.655557
23
-4.233150
33
0.400000
0
3DFACE
8
0
10
-4.650000
20
-3.483336
30
0.400000
11
-4.422241
21
-4.052752
31
0.400000
12
-4.421978
22
-4.052672
32
0.400000
13
-4.421978
23
-4.052672
33
0.400000
0
3DFACE
8
0
10
-4.300000
20
-4.150002
30
0.400000
11
-4.301921
21
-4.169512
31
0.400000
12
-4.150000
22
-4.750001
32
0.400000
13
-4.150000
23
-4.750001
33
0.400000
0
3DFACE
8
0
10
-4.650000
20
-4.816668
30
0.400000
11
-1.350000
21
-5.816668
31
0.400000
12
-1.850000
22
-4.750001
32
0.400000
13
-1.850000
23
-4.750001
33
0.400000
0
3DFACE
8
0
10
-1.850000
20
-4.750001
30
0.400000
11
-4.150000
21
-4.750001
31
0.400000
12
-4.650000
22
-4.816668
32
0.400000
13
-4.650000
23
-4.816668
33
0.400000
0
3DFACE
8
0
10
-1.850000
20
-4.750001
30
0.400000
11
-1.655557
21
-4.233150
31
0.400000
12
-1.670711
22
-4.220713
32
0.400000
13
-1.670711
23
-4.220713
33
0.400000
0
3DFACE
8
0
10
-1.850000
20
-4.750001
30
0.400000
11
-1.670711
21
-4.220713
31
0.400000
12
-1.683147
22
-4.205560
32
0.400000
13
-1.683147
23
-4.205560
33
0.400000
0
3DFACE
8
0
10
-4.650000
20
-3.483336
30
0.400000
11
-4.424911
21
-4.053562
31
0.400000
12
-4.422241
22
-4.052752
32
0.400000
13
-4.422241
23
-4.052752
33
0.400000
0
3DFACE
8
0
10
-4.650000
20
-3.483336
30
0.400000
11
-4.483147
21
-4.094445
31
0.400000
12
-4.470711
22
-4.079291
32
0.400000
13
-4.470711
23
-4.079291
33
0.400000
0
3DFACE
8
0
10
-4.650000
20
-3.483336
30
0.400000
11
-4.492388
21
-4.111734
31
0.400000
12
-4.483147
22
-4.094445
32
0.400000
13
-4.483147
23
-4.094445
33
0.400000
0
3DFACE
8
0
10
-4.650000
20
-3.483336
30
0.400000
11
-4.498078
21
-4.130493
31
0.400000
12
-4.492388
22
-4.111734
32
0.400000
13
-4.492388
23
-4.111734
33
0.400000
0
3DFACE
8
0
10
-4.650000
20
-3.483336
30
0.400000
11
-4.500000
21
-4.150002
31
0.400000
12
-4.498078
22
-4.130493
32
0.400000
13
-4.498078
23
-4.130493
33
0.400000
0
3DFACE
8
0
10
-4.650000
20
-3.483336
30
0.400000
11
-4.650000
21
-4.816668
31
0.400000
12
-4.498078
22
-4.169511
32
0.400000
13
-4.498078
23
-4.169511
33
0.400000
0
3DFACE
8
0
10
-4.498078
20
-4.169511
30
0.400000
11
-4.500000
21
-4.150002
31
0.400000
12
-4.650000
22
-3.483336
32
0.400000
13
-4.650000
23
-3.483336
33
0.400000
0
3DFACE
8
0
10
-4.455557
20
-4.066855
30
0.400000
11
-4.650000
21
-3.483336
31
0.400000
12
-4.470711
22
-4.079291
32
0.400000
13
-4.470711
23
-4.079291
33
0.400000
0
3DFACE
8
0
10
-4.650000
20
-4.816668
30
0.400000
11
-4.492388
21
-4.188271
31
0.400000
12
-4.498078
22
-4.169511
32
0.400000
13
-4.498078
23
-4.169511
33
0.400000
0
3DFACE
8
0
10
-4.650000
20
-4.816668
30
0.400000
11
-4.483147
21
-4.205560
31
0.400000
12
-4.492388
22
-4.188271
32
0.400000
13
-4.492388
23
-4.188271
33
0.400000
0
3DFACE
8
0
10
-4.650000
20
-4.816668
30
0.400000
11
-4.470711
21
-4.220713
31
0.400000
12
-4.483147
22
-4.205560
32
0.400000
13
-4.483147
23
-4.205560
33
0.400000
0
3DFACE
8
0
10
-4.650000
20
-4.816668
30
0.400000
11
-4.455557
21
-4.233150
31
0.400000
12
-4.470711
22
-4.220713
32
0.400000
13
-4.470711
23
-4.220713
33
0.400000
0
3DFACE
8
0
10
-4.650000
20
-4.816668
30
0.400000
11
-4.438268
21
-4.242391
31
0.400000
12
-4.455557
22
-4.233150
32
0.400000
13
-4.455557
23
-4.233150
33
0.400000
0
3DFACE
8
0
10
-4.650000
20
-4.816668
30
0.400000
11
-4.419509
21
-4.248081
31
0.400000
12
-4.438268
22
-4.242391
32
0.400000
13
-4.438268
23
-4.242391
33
0.400000
0
3DFACE
8
0
10
-4.650000
20
-4.816668
30
0.400000
11
-4.400000
21
-4.250002
31
0.400000
12
-4.419509
22
-4.248081
32
0.400000
13
-4.419509
23
-4.248081
33
0.400000
0
3DFACE
8
0
10
-4.650000
20
-4.816668
30
0.400000
11
-4.380491
21
-4.248081
31
0.400000
12
-4.400000
22
-4.250002
32
0.400000
13
-4.400000
23
-4.250002
33
0.400000
0
3DFACE
8
0
10
-4.438268
20
-4.057614
30
0.400000
11
-4.650000
21
-3.483336
31
0.400000
12
-4.455557
22
-4.066855
32
0.400000
13
-4.455557
23
-4.066855
33
0.400000
0
3DFACE
8
0
10
-4.650000
20
-4.816668
30
0.400000
11
-4.361732
21
-4.242391
31
0.400000
12
-4.380491
22
-4.248081
32
0.400000
13
-4.380491
23
-4.248081
33
0.400000
0
3DFACE
8
0
10
-4.424911
20
-4.053562
30
0.400000
11
-4.650000
21
-3.483336
31
0.400000
12
-4.438268
22
-4.057614
32
0.400000
13
-4.438268
23
-4.057614
33
0.400000
0
3DFACE
8
0
10
-4.150000
20
-4.750001
30
0.400000
11
-4.352352
21
-4.237377
31
0.400000
12
-4.361732
22
-4.242391
32
0.400000
13
-4.361732
23
-4.242391
33
0.400000
0
3DFACE
8
0
10
-4.361732
20
-4.242391
30
0.400000
11
-4.650000
21
-4.816668
31
0.400000
12
-4.150000
22
-4.750001
32
0.400000
13
-4.150000
23
-4.750001
33
0.400000
0
3DFACE
8
0
10
1.647648
20
-4.237377
30
0.400000
11
1.850000
21
-4.750001
31
0.400000
12
1.650909
22
-4.235634
32
0.400000
13
1.650909
23
-4.235634
33
0.400000
0
3DFACE
8
0
10
1.850000
20
-4.750001
30
0.400000
11
1.651231
21
-4.235462
31
0.400000
12
1.650909
22
-4.235634
32
0.400000
13
1.650909
23
-4.235634
33
0.400000
0
3DFACE
8
0
10
1.850000
20
-4.750001
30
0.400000
11
1.668286
21
-4.222703
31
0.400000
12
1.655557
22
-4.233150
32
0.400000
13
1.655557
23
-4.233150
33
0.400000
0
3DFACE
8
0
10
1.850000
20
-4.750001
30
0.400000
11
1.655557
21
-4.233150
31
0.400000
12
1.651231
22
-4.235462
32
0.400000
13
1.651231
23
-4.235462
33
0.400000
0
3DFACE
8
0
10
1.670711
20
-4.220713
30
0.400000
11
1.668286
21
-4.222703
31
0.400000
12
1.850000
22
-4.750001
32
0.400000
13
1.850000
23
-4.750001
33
0.400000
0
3DFACE
8
0
10
1.850000
20
-4.750001
30
0.400000
11
1.670874
21
-4.220514
31
0.400000
12
1.670711
22
-4.220713
32
0.400000
13
1.670711
23
-4.220713
33
0.400000
0
3DFACE
8
0
10
1.670874
20
-4.220514
30
0.400000
11
1.850000
21
-4.750001
31
0.400000
12
1.672816
22
-4.218148
32
0.400000
13
1.672816
23
-4.218148
33
0.400000
0
3DFACE
8
0
10
1.683147
20
-4.205560
30
0.400000
11
1.672816
21
-4.218148
31
0.400000
12
1.850000
22
-4.750001
32
0.400000
13
1.850000
23
-4.750001
33
0.400000
0
3DFACE
8
0
10
1.683147
20
-4.205560
30
0.400000
11
1.850000
21
-4.750001
31
0.400000
12
1.692388
22
-4.188271
32
0.400000
13
1.692388
23
-4.188271
33
0.400000
0
3DFACE
8
0
10
1.698079
20
-4.169512
30
0.400000
11
1.692388
21
-4.188271
31
0.400000
12
1.850000
22
-4.750001
32
0.400000
13
1.850000
23
-4.750001
33
0.400000
0
3DFACE
8
0
10
1.850000
20
-4.750001
30
0.400000
11
1.850000
21
-3.550002
31
0.400000
12
1.692388
22
-4.111734
32
0.400000
13
1.692388
23
-4.111734
33
0.400000
0
3DFACE
8
0
10
1.692388
20
-4.111734
30
0.400000
11
1.698079
21
-4.130493
31
0.400000
12
1.850000
22
-4.750001
32
0.400000
13
1.850000
23
-4.750001
33
0.400000
0
3DFACE
8
0
10
4.650000
20
-3.483336
30
0.400000
11
-4.650000
21
-3.483336
31
0.400000
12
-4.150000
22
-3.550002
32
0.400000
13
-4.150000
23
-3.550002
33
0.400000
0
3DFACE
8
0
10
-4.150000
20
-3.550002
30
0.400000
11
4.150000
21
-3.550002
31
0.400000
12
4.650000
22
-3.483336
32
0.400000
13
4.650000
23
-3.483336
33
0.400000
0
3DFACE
8
0
10
4.650000
20
-4.816668
30
0.400000
11
4.419509
21
-4.248081
31
0.400000
12
4.400000
22
-4.250002
32
0.400000
13
4.400000
23
-4.250002
33
0.400000
0
3DFACE
8
0
10
4.650000
20
-4.816668
30
0.400000
11
4.438268
21
-4.242391
31
0.400000
12
4.419509
22
-4.248081
32
0.400000
13
4.419509
23
-4.248081
33
0.400000
0
3DFACE
8
0
10
4.650000
20
-4.816668
30
0.400000
11
4.455557
21
-4.233150
31
0.400000
12
4.438268
22
-4.242391
32
0.400000
13
4.438268
23
-4.242391
33
0.400000
0
3DFACE
8
0
10
4.650000
20
-4.816668
30
0.400000
11
4.470711
21
-4.220713
31
0.400000
12
4.455557
22
-4.233150
32
0.400000
13
4.455557
23
-4.233150
33
0.400000
0
3DFACE
8
0
10
4.650000
20
-4.816668
30
0.400000
11
4.483147
21
-4.205560
31
0.400000
12
4.470711
22
-4.220713
32
0.400000
13
4.470711
23
-4.220713
33
0.400000
0
3DFACE
8
0
10
4.650000
20
-4.816668
30
0.400000
11
4.492388
21
-4.188271
31
0.400000
12
4.483147
22
-4.205560
32
0.400000
13
4.483147
23
-4.205560
33
0.400000
0
3DFACE
8
0
10
4.650000
20
-4.816668
30
0.400000
11
4.498078
21
-4.169512
31
0.400000
12
4.492388
22
-4.188271
32
0.400000
13
4.492388
23
-4.188271
33
0.400000
0
3DFACE
8
0
10
4.650000
20
-4.816668
30
0.400000
11
4.500000
21
-4.150002
31
0.400000
12
4.498078
22
-4.169512
32
0.400000
13
4.498078
23
-4.169512
33
0.400000
0
3DFACE
8
0
10
4.650000
20
-4.816668
30
0.400000
11
4.650000
21
-3.483336
31
0.400000
12
4.498078
22
-4.130493
32
0.400000
13
4.498078
23
-4.130493
33
0.400000
0
3DFACE
8
0
10
4.498078
20
-4.130493
30
0.400000
11
4.500000
21
-4.150002
31
0.400000
12
4.650000
22
-4.816668
32
0.400000
13
4.650000
23
-4.816668
33
0.400000
0
3DFACE
8
0
10
4.400000
20
-4.250002
30
0.400000
11
4.380491
21
-4.248081
31
0.400000
12
4.650000
22
-4.816668
32
0.400000
13
4.650000
23
-4.816668
33
0.400000
0
3DFACE
8
0
10
4.650000
20
-3.483336
30
0.400000
11
4.492388
21
-4.111734
31
0.400000
12
4.498078
22
-4.130493
32
0.400000
13
4.498078
23
-4.130493
33
0.400000
0
3DFACE
8
0
10
4.650000
20
-3.483336
30
0.400000
11
4.483147
21
-4.094445
31
0.400000
12
4.492388
22
-4.111734
32
0.400000
13
4.492388
23
-4.111734
33
0.400000
0
3DFACE
8
0
10
4.650000
20
-3.483336
30
0.400000
11
4.470711
21
-4.079291
31
0.400000
12
4.483147
22
-4.094445
32
0.400000
13
4.483147
23
-4.094445
33
0.400000
0
3DFACE
8
0
10
4.650000
20
-3.483336
30
0.400000
11
4.455557
21
-4.066855
31
0.400000
12
4.470711
22
-4.079291
32
0.400000
13
4.470711
23
-4.079291
33
0.400000
0
3DFACE
8
0
10
4.650000
20
-3.483336
30
0.400000
11
4.438268
21
-4.057614
31
0.400000
12
4.455557
22
-4.066855
32
0.400000
13
4.455557
23
-4.066855
33
0.400000
0
3DFACE
8
0
10
4.380491
20
-4.248081
30
0.400000
11
4.361732
21
-4.242391
31
0.400000
12
4.650000
22
-4.816668
32
0.400000
13
4.650000
23
-4.816668
33
0.400000
0
3DFACE
8
0
10
4.650000
20
-3.483336
30
0.400000
11
4.424911
21
-4.053562
31
0.400000
12
4.438268
22
-4.057614
32
0.400000
13
4.438268
23
-4.057614
33
0.400000
0
3DFACE
8
0
10
1.850000
20
-3.550002
30
0.400000
11
1.683147
21
-4.094445
31
0.400000
12
1.692388
22
-4.111734
32
0.400000
13
1.692388
23
-4.111734
33
0.400000
0
3DFACE
8
0
10
1.850000
20
-3.550002
30
0.400000
11
1.670711
21
-4.079291
31
0.400000
12
1.683147
22
-4.094445
32
0.400000
13
1.683147
23
-4.094445
33
0.400000
0
3DFACE
8
0
10
1.850000
20
-3.550002
30
0.400000
11
1.655557
21
-4.066855
31
0.400000
12
1.670711
22
-4.079291
32
0.400000
13
1.670711
23
-4.079291
33
0.400000
0
3DFACE
8
0
10
1.850000
20
-3.550002
30
0.400000
11
1.638268
21
-4.057614
31
0.400000
12
1.655557
22
-4.066855
32
0.400000
13
1.655557
23
-4.066855
33
0.400000
0
3DFACE
8
0
10
1.850000
20
-3.550002
30
0.400000
11
1.619510
21
-4.051924
31
0.400000
12
1.638268
22
-4.057614
32
0.400000
13
1.638268
23
-4.057614
33
0.400000
0
3DFACE
8
0
10
1.850000
20
-3.550002
30
0.400000
11
1.600000
21
-4.050002
31
0.400000
12
1.619510
22
-4.051924
32
0.400000
13
1.619510
23
-4.051924
33
0.400000
0
3DFACE
8
0
10
1.850000
20
-3.550002
30
0.400000
11
1.350000
21
-3.548336
31
0.400000
12
1.598990
22
-4.050102
32
0.400000
13
1.598990
23
-4.050102
33
0.400000
0
3DFACE
8
0
10
1.598990
20
-4.050102
30
0.400000
11
1.600000
21
-4.050002
31
0.400000
12
1.850000
22
-3.550002
32
0.400000
13
1.850000
23
-3.550002
33
0.400000
0
3DFACE
8
0
10
1.350000
20
-3.548336
30
0.400000
11
1.596793
21
-4.050319
31
0.400000
12
1.598990
22
-4.050102
32
0.400000
13
1.598990
23
-4.050102
33
0.400000
0
3DFACE
8
0
10
1.350000
20
-3.548336
30
0.400000
11
1.594187
21
-4.050575
31
0.400000
12
1.596793
22
-4.050319
32
0.400000
13
1.596793
23
-4.050319
33
0.400000
0
3DFACE
8
0
10
1.350000
20
-3.548336
30
0.400000
11
1.578022
21
-4.052672
31
0.400000
12
1.580491
22
-4.051924
32
0.400000
13
1.580491
23
-4.051924
33
0.400000
0
3DFACE
8
0
10
1.580491
20
-4.051924
30
0.400000
11
1.594187
21
-4.050575
31
0.400000
12
1.350000
22
-3.548336
32
0.400000
13
1.350000
23
-3.548336
33
0.400000
0
3DFACE
8
0
10
1.350000
20
-3.548336
30
0.400000
11
1.577759
21
-4.052752
31
0.400000
12
1.578022
22
-4.052672
32
0.400000
13
1.578022
23
-4.052672
33
0.400000
0
3DFACE
8
0
10
1.850000
20
-4.750001
30
0.400000
11
1.698079
21
-4.130493
31
0.400000
12
1.700000
22
-4.150002
32
0.400000
13
1.700000
23
-4.150002
33
0.400000
0
3DFACE
8
0
10
1.350000
20
-5.816668
30
0.400000
11
4.650000
21
-4.816668
31
0.400000
12
4.150000
22
-4.750001
32
0.400000
13
4.150000
23
-4.750001
33
0.400000
0
3DFACE
8
0
10
4.150000
20
-4.750001
30
0.400000
11
1.850000
21
-4.750001
31
0.400000
12
1.350000
22
-5.816668
32
0.400000
13
1.350000
23
-5.816668
33
0.400000
0
3DFACE
8
0
10
1.350000
20
-3.548336
30
0.400000
11
1.575089
21
-4.053562
31
0.400000
12
1.577759
22
-4.052752
32
0.400000
13
1.577759
23
-4.052752
33
0.400000
0
3DFACE
8
0
10
1.350000
20
-3.548336
30
0.400000
11
1.516853
21
-4.094445
31
0.400000
12
1.529290
22
-4.079291
32
0.400000
13
1.529290
23
-4.079291
33
0.400000
0
3DFACE
8
0
10
1.350000
20
-3.548336
30
0.400000
11
1.507612
21
-4.111734
31
0.400000
12
1.516853
22
-4.094445
32
0.400000
13
1.516853
23
-4.094445
33
0.400000
0
3DFACE
8
0
10
1.350000
20
-3.548336
30
0.400000
11
1.501922
21
-4.130493
31
0.400000
12
1.507612
22
-4.111734
32
0.400000
13
1.507612
23
-4.111734
33
0.400000
0
3DFACE
8
0
10
1.350000
20
-3.548336
30
0.400000
11
1.500000
21
-4.150002
31
0.400000
12
1.501922
22
-4.130493
32
0.400000
13
1.501922
23
-4.130493
33
0.400000
0
3DFACE
8
0
10
1.350000
20
-3.548336
30
0.400000
11
1.350000
21
-5.816668
31
0.400000
12
1.501922
22
-4.169511
32
0.400000
13
1.501922
23
-4.169511
33
0.400000
0
3DFACE
8
0
10
1.501922
20
-4.169511
30
0.400000
11
1.500000
21
-4.150002
31
0.400000
12
1.350000
22
-3.548336
32
0.400000
13
1.350000
23
-3.548336
33
0.400000
0
3DFACE
8
0
10
1.529290
20
-4.079291
30
0.400000
11
1.544443
21
-4.066855
31
0.400000
12
1.350000
22
-3.548336
32
0.400000
13
1.350000
23
-3.548336
33
0.400000
0
3DFACE
8
0
10
1.350000
20
-5.816668
30
0.400000
11
1.507612
21
-4.188271
31
0.400000
12
1.501922
22
-4.169511
32
0.400000
13
1.501922
23
-4.169511
33
0.400000
0
3DFACE
8
0
10
1.350000
20
-5.816668
30
0.400000
11
1.516853
21
-4.205560
31
0.400000
12
1.507612
22
-4.188271
32
0.400000
13
1.507612
23
-4.188271
33
0.400000
0
3DFACE
8
0
10
1.350000
20
-5.816668
30
0.400000
11
1.529289
21
-4.220713
31
0.400000
12
1.516853
22
-4.205560
32
0.400000
13
1.516853
23
-4.205560
33
0.400000
0
3DFACE
8
0
10
1.350000
20
-5.816668
30
0.400000
11
1.544443
21
-4.233150
31
0.400000
12
1.529289
22
-4.220713
32
0.400000
13
1.529289
23
-4.220713
33
0.400000
0
3DFACE
8
0
10
1.350000
20
-5.816668
30
0.400000
11
1.561732
21
-4.242391
31
0.400000
12
1.544443
22
-4.233150
32
0.400000
13
1.544443
23
-4.233150
33
0.400000
0
3DFACE
8
0
10
1.350000
20
-5.816668
30
0.400000
11
1.580491
21
-4.248081
31
0.400000
12
1.561732
22
-4.242391
32
0.400000
13
1.561732
23
-4.242391
33
0.400000
0
3DFACE
8
0
10
1.350000
20
-5.816668
30
0.400000
11
1.600000
21
-4.250002
31
0.400000
12
1.580491
22
-4.248081
32
0.400000
13
1.580491
23
-4.248081
33
0.400000
0
3DFACE
8
0
10
1.350000
20
-5.816668
30
0.400000
11
1.619510
21
-4.248081
31
0.400000
12
1.600000
22
-4.250002
32
0.400000
13
1.600000
23
-4.250002
33
0.400000
0
3DFACE
8
0
10
1.544443
20
-4.066855
30
0.400000
11
1.561732
21
-4.057614
31
0.400000
12
1.350000
22
-3.548336
32
0.400000
13
1.350000
23
-3.548336
33
0.400000
0
3DFACE
8
0
10
1.350000
20
-5.816668
30
0.400000
11
1.638268
21
-4.242391
31
0.400000
12
1.619510
22
-4.248081
32
0.400000
13
1.619510
23
-4.248081
33
0.400000
0
3DFACE
8
0
10
1.561732
20
-4.057614
30
0.400000
11
1.575089
21
-4.053562
31
0.400000
12
1.350000
22
-3.548336
32
0.400000
13
1.350000
23
-3.548336
33
0.400000
0
3DFACE
8
0
10
1.850000
20
-4.750001
30
0.400000
11
1.647648
21
-4.237377
31
0.400000
12
1.638268
22
-4.242391
32
0.400000
13
1.638268
23
-4.242391
33
0.400000
0
3DFACE
8
0
10
1.638268
20
-4.242391
30
0.400000
11
1.350000
21
-5.816668
31
0.400000
12
1.850000
22
-4.750001
32
0.400000
13
1.850000
23
-4.750001
33
0.400000
0
3DFACE
8
0
10
-4.150000
20
3.750000
30
0.400000
11
4.650000
21
4.083333
31
0.400000
12
-4.650000
22
4.083333
32
0.400000
13
-4.650000
23
4.083333
33
0.400000
0
3DFACE
8
0
10
-4.150000
20
3.750000
30
0.400000
11
4.150000
21
3.750000
31
0.400000
12
4.650000
22
4.083333
32
0.400000
13
4.650000
23
4.083333
33
0.400000
0
3DFACE
8
0
10
-4.150000
20
3.750000
30
0.400000
11
-2.983333
21
3.750000
31
0.400000
12
4.150000
22
3.750000
32
0.400000
13
4.150000
23
3.750000
33
0.400000
0
3DFACE
8
0
10
-2.983333
20
3.750000
30
0.400000
11
2.983333
21
3.750000
31
0.400000
12
4.150000
22
3.750000
32
0.400000
13
4.150000
23
3.750000
33
0.400000
0
3DFACE
8
0
10
4.150000
20
5.350000
30
0.400000
11
4.150000
21
4.153000
31
0.400000
12
4.307612
22
4.711732
32
0.400000
13
4.307612
23
4.711732
33
0.400000
0
3DFACE
8
0
10
4.307612
20
4.711732
30
0.400000
11
4.301921
21
4.730491
31
0.400000
12
4.150000
22
5.350000
32
0.400000
13
4.150000
23
5.350000
33
0.400000
0
3DFACE
8
0
10
4.424911
20
4.846440
30
0.400000
11
4.650000
21
5.416667
31
0.400000
12
4.150000
22
5.350000
32
0.400000
13
4.150000
23
5.350000
33
0.400000
0
3DFACE
8
0
10
4.424911
20
4.846440
30
0.400000
11
4.150000
21
5.350000
31
0.400000
12
4.419509
22
4.848079
32
0.400000
13
4.419509
23
4.848079
33
0.400000
0
3DFACE
8
0
10
4.400000
20
4.849999
30
0.400000
11
4.419509
21
4.848079
31
0.400000
12
4.150000
22
5.350000
32
0.400000
13
4.150000
23
5.350000
33
0.400000
0
3DFACE
8
0
10
4.380492
20
4.848079
30
0.400000
11
4.400000
21
4.849999
31
0.400000
12
4.150000
22
5.350000
32
0.400000
13
4.150000
23
5.350000
33
0.400000
0
3DFACE
8
0
10
4.150000
20
5.350000
30
0.400000
11
4.301921
21
4.730491
31
0.400000
12
4.300000
22
4.750000
32
0.400000
13
4.300000
23
4.750000
33
0.400000
0
3DFACE
8
0
10
4.150000
20
5.350000
30
0.400000
11
4.300000
21
4.750000
31
0.400000
12
4.301921
22
4.769509
32
0.400000
13
4.301921
23
4.769509
33
0.400000
0
3DFACE
8
0
10
4.150000
20
5.350000
30
0.400000
11
4.301921
21
4.769509
31
0.400000
12
4.307612
22
4.788268
32
0.400000
13
4.307612
23
4.788268
33
0.400000
0
3DFACE
8
0
10
-1.670711
20
4.679289
30
0.400000
11
-1.683147
21
4.694443
31
0.400000
12
-1.850000
22
4.150513
32
0.400000
13
-1.850000
23
4.150513
33
0.400000
0
3DFACE
8
0
10
-1.655557
20
4.666853
30
0.400000
11
-1.670711
21
4.679289
31
0.400000
12
-1.850000
22
4.150513
32
0.400000
13
-1.850000
23
4.150513
33
0.400000
0
3DFACE
8
0
10
4.150000
20
5.350000
30
0.400000
11
4.307612
21
4.788268
31
0.400000
12
4.316853
22
4.805557
32
0.400000
13
4.316853
23
4.805557
33
0.400000
0
3DFACE
8
0
10
-1.647648
20
4.662625
30
0.400000
11
-1.655557
21
4.666853
31
0.400000
12
-1.850000
22
4.150513
32
0.400000
13
-1.850000
23
4.150513
33
0.400000
0
3DFACE
8
0
10
-1.638268
20
4.657612
30
0.400000
11
-1.647648
21
4.662625
31
0.400000
12
-1.850000
22
4.150513
32
0.400000
13
-1.850000
23
4.150513
33
0.400000
0
3DFACE
8
0
10
-1.850000
20
4.150513
30
0.400000
11
-1.350000
21
4.150513
31
0.400000
12
-1.638268
22
4.657612
32
0.400000
13
-1.638268
23
4.657612
33
0.400000
0
3DFACE
8
0
10
4.150000
20
5.350000
30
0.400000
11
4.316853
21
4.805557
31
0.400000
12
4.329289
22
4.820710
32
0.400000
13
4.329289
23
4.820710
33
0.400000
0
3DFACE
8
0
10
-4.650000
20
5.416667
30
0.400000
11
-4.150000
21
5.348073
31
0.400000
12
-1.850000
22
5.348073
32
0.400000
13
-1.850000
23
5.348073
33
0.400000
0
3DFACE
8
0
10
-1.850000
20
5.348073
30
0.400000
11
-1.350000
21
5.416667
31
0.400000
12
-4.650000
22
5.416667
32
0.400000
13
-4.650000
23
5.416667
33
0.400000
0
3DFACE
8
0
10
-1.575089
20
4.846440
30
0.400000
11
-1.350000
21
5.416667
31
0.400000
12
-1.850000
22
5.348073
32
0.400000
13
-1.850000
23
5.348073
33
0.400000
0
3DFACE
8
0
10
-1.575089
20
4.846440
30
0.400000
11
-1.850000
21
5.348073
31
0.400000
12
-1.580491
22
4.848079
32
0.400000
13
-1.580491
23
4.848079
33
0.400000
0
3DFACE
8
0
10
-1.600000
20
4.849999
30
0.400000
11
-1.580491
21
4.848079
31
0.400000
12
-1.850000
22
5.348073
32
0.400000
13
-1.850000
23
5.348073
33
0.400000
0
3DFACE
8
0
10
-1.619509
20
4.848079
30
0.400000
11
-1.600000
21
4.849999
31
0.400000
12
-1.850000
22
5.348073
32
0.400000
13
-1.850000
23
5.348073
33
0.400000
0
3DFACE
8
0
10
-1.850000
20
-3.550002
30
0.400000
11
-1.655557
21
-4.066855
31
0.400000
12
-1.638268
22
-4.057614
32
0.400000
13
-1.638268
23
-4.057614
33
0.400000
0
3DFACE
8
0
10
-1.683147
20
4.694443
30
0.400000
11
-1.692388
21
4.711732
31
0.400000
12
-1.850000
22
4.150513
32
0.400000
13
-1.850000
23
4.150513
33
0.400000
0
3DFACE
8
0
10
-1.350000
20
4.150513
30
0.400000
11
-1.500000
21
4.750000
31
0.400000
12
-1.501922
22
4.730491
32
0.400000
13
-1.501922
23
4.730491
33
0.400000
0
3DFACE
8
0
10
-1.850000
20
5.348073
30
0.400000
11
-1.698079
21
4.730491
31
0.400000
12
-1.700000
22
4.750000
32
0.400000
13
-1.700000
23
4.750000
33
0.400000
0
3DFACE
8
0
10
-1.350000
20
4.150513
30
0.400000
11
-1.350000
21
5.416667
31
0.400000
12
-1.501922
22
4.769509
32
0.400000
13
-1.501922
23
4.769509
33
0.400000
0
3DFACE
8
0
10
-1.850000
20
5.348073
30
0.400000
11
-1.700000
21
4.750000
31
0.400000
12
-1.698079
22
4.769509
32
0.400000
13
-1.698079
23
4.769509
33
0.400000
0
3DFACE
8
0
10
-1.350000
20
5.416667
30
0.400000
11
-1.507612
21
4.788268
31
0.400000
12
-1.501922
22
4.769509
32
0.400000
13
-1.501922
23
4.769509
33
0.400000
0
3DFACE
8
0
10
-1.350000
20
5.416667
30
0.400000
11
-1.516853
21
4.805557
31
0.400000
12
-1.507612
22
4.788268
32
0.400000
13
-1.507612
23
4.788268
33
0.400000
0
3DFACE
8
0
10
-1.350000
20
5.416667
30
0.400000
11
-1.529289
21
4.820710
31
0.400000
12
-1.516853
22
4.805557
32
0.400000
13
-1.516853
23
4.805557
33
0.400000
0
3DFACE
8
0
10
-1.350000
20
5.416667
30
0.400000
11
-1.544443
21
4.833147
31
0.400000
12
-1.529289
22
4.820710
32
0.400000
13
-1.529289
23
4.820710
33
0.400000
0
3DFACE
8
0
10
-1.350000
20
5.416667
30
0.400000
11
-1.561732
21
4.842388
31
0.400000
12
-1.544443
22
4.833147
32
0.400000
13
-1.544443
23
4.833147
33
0.400000
0
3DFACE
8
0
10
-1.850000
20
5.348073
30
0.400000
11
-1.698079
21
4.769509
31
0.400000
12
-1.692388
22
4.788268
32
0.400000
13
-1.692388
23
4.788268
33
0.400000
0
3DFACE
8
0
10
-1.350000
20
5.416667
30
0.400000
11
-1.575089
21
4.846440
31
0.400000
12
-1.561732
22
4.842388
32
0.400000
13
-1.561732
23
4.842388
33
0.400000
0
3DFACE
8
0
10
-1.850000
20
5.348073
30
0.400000
11
-1.692388
21
4.788268
31
0.400000
12
-1.683147
22
4.805557
32
0.400000
13
-1.683147
23
4.805557
33
0.400000
0
3DFACE
8
0
10
-4.300000
20
4.750000
30
0.400000
11
-4.301921
21
4.730491
31
0.400000
12
-4.150000
22
4.153000
32
0.400000
13
-4.150000
23
4.153000
33
0.400000
0
3DFACE
8
0
10
-4.150000
20
4.153000
30
0.400000
11
-4.348769
21
4.664540
31
0.400000
12
-4.349091
22
4.664369
32
0.400000
13
-4.349091
23
4.664369
33
0.400000
0
3DFACE
8
0
10
-4.150000
20
4.153000
30
0.400000
11
-4.301921
21
4.769509
31
0.400000
12
-4.300000
22
4.750000
32
0.400000
13
-4.300000
23
4.750000
33
0.400000
0
3DFACE
8
0
10
-4.150000
20
5.348073
30
0.400000
11
-4.316853
21
4.805557
31
0.400000
12
-4.307612
22
4.788268
32
0.400000
13
-4.307612
23
4.788268
33
0.400000
0
3DFACE
8
0
10
-4.150000
20
5.348073
30
0.400000
11
-4.329289
21
4.820710
31
0.400000
12
-4.316853
22
4.805557
32
0.400000
13
-4.316853
23
4.805557
33
0.400000
0
3DFACE
8
0
10
-4.150000
20
5.348073
30
0.400000
11
-4.344443
21
4.833147
31
0.400000
12
-4.329289
22
4.820710
32
0.400000
13
-4.329289
23
4.820710
33
0.400000
0
3DFACE
8
0
10
-4.150000
20
5.348073
30
0.400000
11
-4.361732
21
4.842388
31
0.400000
12
-4.344443
22
4.833147
32
0.400000
13
-4.344443
23
4.833147
33
0.400000
0
3DFACE
8
0
10
-4.150000
20
5.348073
30
0.400000
11
-4.380491
21
4.848079
31
0.400000
12
-4.361732
22
4.842388
32
0.400000
13
-4.361732
23
4.842388
33
0.400000
0
3DFACE
8
0
10
-4.150000
20
5.348073
30
0.400000
11
-4.400000
21
4.849999
31
0.400000
12
-4.380491
22
4.848079
32
0.400000
13
-4.380491
23
4.848079
33
0.400000
0
3DFACE
8
0
10
-4.301921
20
4.730491
30
0.400000
11
-4.307612
21
4.711732
31
0.400000
12
-4.150000
22
4.153000
32
0.400000
13
-4.150000
23
4.153000
33
0.400000
0
3DFACE
8
0
10
-4.150000
20
4.153000
30
0.400000
11
-4.150000
21
5.348073
31
0.400000
12
-4.307612
22
4.788268
32
0.400000
13
-4.307612
23
4.788268
33
0.400000
0
3DFACE
8
0
10
-4.307612
20
4.788268
30
0.400000
11
-4.301921
21
4.769509
31
0.400000
12
-4.150000
22
4.153000
32
0.400000
13
-4.150000
23
4.153000
33
0.400000
0
3DFACE
8
0
10
-4.150000
20
5.348073
30
0.400000
11
-4.650000
21
5.416667
31
0.400000
12
-4.401010
22
4.849900
32
0.400000
13
-4.401010
23
4.849900
33
0.400000
0
3DFACE
8
0
10
-4.401010
20
4.849900
30
0.400000
11
-4.400000
21
4.849999
31
0.400000
12
-4.150000
22
5.348073
32
0.400000
13
-4.150000
23
5.348073
33
0.400000
0
3DFACE
8
0
10
-4.316853
20
4.694443
30
0.400000
11
-4.150000
21
4.153000
31
0.400000
12
-4.307612
22
4.711732
32
0.400000
13
-4.307612
23
4.711732
33
0.400000
0
3DFACE
8
0
10
-4.329126
20
4.679488
30
0.400000
11
-4.150000
21
4.153000
31
0.400000
12
-4.327184
22
4.681854
32
0.400000
13
-4.327184
23
4.681854
33
0.400000
0
3DFACE
8
0
10
-4.650000
20
5.416667
30
0.400000
11
-4.403208
21
4.849684
31
0.400000
12
-4.401010
22
4.849900
32
0.400000
13
-4.401010
23
4.849900
33
0.400000
0
3DFACE
8
0
10
-4.150000
20
4.153000
30
0.400000
11
-4.329126
21
4.679488
31
0.400000
12
-4.329289
22
4.679289
32
0.400000
13
-4.329289
23
4.679289
33
0.400000
0
3DFACE
8
0
10
-4.329289
20
4.679289
30
0.400000
11
-4.331715
21
4.677299
31
0.400000
12
-4.150000
22
4.153000
32
0.400000
13
-4.150000
23
4.153000
33
0.400000
0
3DFACE
8
0
10
-1.850000
20
5.348073
30
0.400000
11
-1.670710
21
4.820710
31
0.400000
12
-1.655557
22
4.833147
32
0.400000
13
-1.655557
23
4.833147
33
0.400000
0
3DFACE
8
0
10
-4.650000
20
5.416667
30
0.400000
11
-4.405813
21
4.849427
31
0.400000
12
-4.403208
22
4.849684
32
0.400000
13
-4.403208
23
4.849684
33
0.400000
0
3DFACE
8
0
10
-4.150000
20
4.153000
30
0.400000
11
-4.331715
21
4.677299
31
0.400000
12
-4.344443
22
4.666853
32
0.400000
13
-4.344443
23
4.666853
33
0.400000
0
3DFACE
8
0
10
-4.316853
20
4.694443
30
0.400000
11
-4.327184
21
4.681854
31
0.400000
12
-4.150000
22
4.153000
32
0.400000
13
-4.150000
23
4.153000
33
0.400000
0
3DFACE
8
0
10
-4.650000
20
5.416667
30
0.400000
11
-4.421978
21
4.847329
31
0.400000
12
-4.419509
22
4.848079
32
0.400000
13
-4.419509
23
4.848079
33
0.400000
0
3DFACE
8
0
10
-4.405813
20
4.849427
30
0.400000
11
-4.650000
21
5.416667
31
0.400000
12
-4.419509
22
4.848079
32
0.400000
13
-4.419509
23
4.848079
33
0.400000
0
3DFACE
8
0
10
-1.850000
20
5.348073
30
0.400000
11
-1.655557
21
4.833147
31
0.400000
12
-1.638268
22
4.842388
32
0.400000
13
-1.638268
23
4.842388
33
0.400000
0
3DFACE
8
0
10
-1.850000
20
5.348073
30
0.400000
11
-1.638268
21
4.842388
31
0.400000
12
-1.619509
22
4.848079
32
0.400000
13
-1.619509
23
4.848079
33
0.400000
0
3DFACE
8
0
10
-4.650000
20
5.416667
30
0.400000
11
-4.422241
21
4.847250
31
0.400000
12
-4.421978
22
4.847329
32
0.400000
13
-4.421978
23
4.847329
33
0.400000
0
3DFACE
8
0
10
-1.850000
20
5.348073
30
0.400000
11
-1.683147
21
4.805557
31
0.400000
12
-1.670710
22
4.820710
32
0.400000
13
-1.670710
23
4.820710
33
0.400000
0
3DFACE
8
0
10
-4.150000
20
4.153000
30
0.400000
11
-4.344443
21
4.666853
31
0.400000
12
-4.348769
22
4.664540
32
0.400000
13
-4.348769
23
4.664540
33
0.400000
0
3DFACE
8
0
10
-4.650000
20
5.416667
30
0.400000
11
-4.424911
21
4.846440
31
0.400000
12
-4.422241
22
4.847250
32
0.400000
13
-4.422241
23
4.847250
33
0.400000
0
3DFACE
8
0
10
-4.650000
20
5.416667
30
0.400000
11
-4.483147
21
4.805557
31
0.400000
12
-4.470711
22
4.820710
32
0.400000
13
-4.470711
23
4.820710
33
0.400000
0
3DFACE
8
0
10
-4.650000
20
5.416667
30
0.400000
11
-4.492388
21
4.788268
31
0.400000
12
-4.483147
22
4.805557
32
0.400000
13
-4.483147
23
4.805557
33
0.400000
0
3DFACE
8
0
10
-4.650000
20
5.416667
30
0.400000
11
-4.498078
21
4.769509
31
0.400000
12
-4.492388
22
4.788268
32
0.400000
13
-4.492388
23
4.788268
33
0.400000
0
3DFACE
8
0
10
-4.650000
20
5.416667
30
0.400000
11
-4.500000
21
4.750000
31
0.400000
12
-4.498078
22
4.769509
32
0.400000
13
-4.498078
23
4.769509
33
0.400000
0
3DFACE
8
0
10
-4.650000
20
5.416667
30
0.400000
11
-4.650000
21
4.083333
31
0.400000
12
-4.498078
22
4.730491
32
0.400000
13
-4.498078
23
4.730491
33
0.400000
0
3DFACE
8
0
10
-4.498078
20
4.730491
30
0.400000
11
-4.500000
21
4.750000
31
0.400000
12
-4.650000
22
5.416667
32
0.400000
13
-4.650000
23
5.416667
33
0.400000
0
3DFACE
8
0
10
-4.455557
20
4.833147
30
0.400000
11
-4.650000
21
5.416667
31
0.400000
12
-4.470711
22
4.820710
32
0.400000
13
-4.470711
23
4.820710
33
0.400000
0
3DFACE
8
0
10
-4.650000
20
4.083333
30
0.400000
11
-4.492388
21
4.711732
31
0.400000
12
-4.498078
22
4.730491
32
0.400000
13
-4.498078
23
4.730491
33
0.400000
0
3DFACE
8
0
10
-4.650000
20
4.083333
30
0.400000
11
-4.483147
21
4.694443
31
0.400000
12
-4.492388
22
4.711732
32
0.400000
13
-4.492388
23
4.711732
33
0.400000
0
3DFACE
8
0
10
-4.650000
20
4.083333
30
0.400000
11
-4.470711
21
4.679289
31
0.400000
12
-4.483147
22
4.694443
32
0.400000
13
-4.483147
23
4.694443
33
0.400000
0
3DFACE
8
0
10
-4.650000
20
4.083333
30
0.400000
11
-4.455557
21
4.666853
31
0.400000
12
-4.470711
22
4.679289
32
0.400000
13
-4.470711
23
4.679289
33
0.400000
0
3DFACE
8
0
10
-4.650000
20
4.083333
30
0.400000
11
-4.438268
21
4.657612
31
0.400000
12
-4.455557
22
4.666853
32
0.400000
13
-4.455557
23
4.666853
33
0.400000
0
3DFACE
8
0
10
-4.650000
20
4.083333
30
0.400000
11
-4.419509
21
4.651921
31
0.400000
12
-4.438268
22
4.657612
32
0.400000
13
-4.438268
23
4.657612
33
0.400000
0
3DFACE
8
0
10
-4.650000
20
4.083333
30
0.400000
11
-4.400000
21
4.650000
31
0.400000
12
-4.419509
22
4.651921
32
0.400000
13
-4.419509
23
4.651921
33
0.400000
0
3DFACE
8
0
10
-4.650000
20
4.083333
30
0.400000
11
-4.380491
21
4.651921
31
0.400000
12
-4.400000
22
4.650000
32
0.400000
13
-4.400000
23
4.650000
33
0.400000
0
3DFACE
8
0
10
-4.438268
20
4.842388
30
0.400000
11
-4.650000
21
5.416667
31
0.400000
12
-4.455557
22
4.833147
32
0.400000
13
-4.455557
23
4.833147
33
0.400000
0
3DFACE
8
0
10
-4.650000
20
4.083333
30
0.400000
11
-4.361732
21
4.657612
31
0.400000
12
-4.380491
22
4.651921
32
0.400000
13
-4.380491
23
4.651921
33
0.400000
0
3DFACE
8
0
10
-4.424911
20
4.846440
30
0.400000
11
-4.650000
21
5.416667
31
0.400000
12
-4.438268
22
4.842388
32
0.400000
13
-4.438268
23
4.842388
33
0.400000
0
3DFACE
8
0
10
-4.150000
20
4.153000
30
0.400000
11
-4.352352
21
4.662625
31
0.400000
12
-4.361732
22
4.657612
32
0.400000
13
-4.361732
23
4.657612
33
0.400000
0
3DFACE
8
0
10
-4.361732
20
4.657612
30
0.400000
11
-4.650000
21
4.083333
31
0.400000
12
-4.150000
22
4.153000
32
0.400000
13
-4.150000
23
4.153000
33
0.400000
0
3DFACE
8
0
10
2.983333
20
3.750000
30
0.400000
11
-2.983333
21
3.750000
31
0.400000
12
-2.983333
22
-3.150002
32
0.400000
13
-2.983333
23
-3.150002
33
0.400000
0
3DFACE
8
0
10
-2.983333
20
-3.150002
30
0.400000
11
2.983333
21
-3.150002
31
0.400000
12
2.983333
22
3.750000
32
0.400000
13
2.983333
23
3.750000
33
0.400000
0
3DFACE
8
0
10
-4.150000
20
5.750000
30
0.400000
11
4.150000
21
5.750000
31
0.400000
12
4.650000
22
5.416667
32
0.400000
13
4.650000
23
5.416667
33
0.400000
0
3DFACE
8
0
10
4.650000
20
5.416667
30
0.400000
11
-4.650000
21
5.416667
31
0.400000
12
-4.150000
22
5.750000
32
0.400000
13
-4.150000
23
5.750000
33
0.400000
0
3DFACE
8
0
10
4.150000
20
5.350000
30
0.400000
11
4.361732
21
4.842388
31
0.400000
12
4.380492
22
4.848079
32
0.400000
13
4.380492
23
4.848079
33
0.400000
0
3DFACE
8
0
10
1.350000
20
5.416667
30
0.400000
11
1.850000
21
5.350000
31
0.400000
12
4.150000
22
5.350000
32
0.400000
13
4.150000
23
5.350000
33
0.400000
0
3DFACE
8
0
10
4.150000
20
5.350000
30
0.400000
11
4.650000
21
5.416667
31
0.400000
12
1.350000
22
5.416667
32
0.400000
13
1.350000
23
5.416667
33
0.400000
0
3DFACE
8
0
10
4.650000
20
4.083333
30
0.400000
11
4.419509
21
4.651921
31
0.400000
12
4.400000
22
4.650000
32
0.400000
13
4.400000
23
4.650000
33
0.400000
0
3DFACE
8
0
10
4.650000
20
4.083333
30
0.400000
11
4.438268
21
4.657612
31
0.400000
12
4.419509
22
4.651921
32
0.400000
13
4.419509
23
4.651921
33
0.400000
0
3DFACE
8
0
10
4.650000
20
4.083333
30
0.400000
11
4.455557
21
4.666853
31
0.400000
12
4.438268
22
4.657612
32
0.400000
13
4.438268
23
4.657612
33
0.400000
0
3DFACE
8
0
10
4.650000
20
4.083333
30
0.400000
11
4.470711
21
4.679289
31
0.400000
12
4.455557
22
4.666853
32
0.400000
13
4.455557
23
4.666853
33
0.400000
0
3DFACE
8
0
10
4.650000
20
4.083333
30
0.400000
11
4.483147
21
4.694443
31
0.400000
12
4.470711
22
4.679289
32
0.400000
13
4.470711
23
4.679289
33
0.400000
0
3DFACE
8
0
10
4.650000
20
4.083333
30
0.400000
11
4.492388
21
4.711732
31
0.400000
12
4.483147
22
4.694443
32
0.400000
13
4.483147
23
4.694443
33
0.400000
0
3DFACE
8
0
10
4.650000
20
4.083333
30
0.400000
11
4.498078
21
4.730491
31
0.400000
12
4.492388
22
4.711732
32
0.400000
13
4.492388
23
4.711732
33
0.400000
0
3DFACE
8
0
10
4.650000
20
4.083333
30
0.400000
11
4.500000
21
4.750000
31
0.400000
12
4.498078
22
4.730491
32
0.400000
13
4.498078
23
4.730491
33
0.400000
0
3DFACE
8
0
10
4.650000
20
4.083333
30
0.400000
11
4.650000
21
5.416667
31
0.400000
12
4.498078
22
4.769509
32
0.400000
13
4.498078
23
4.769509
33
0.400000
0
3DFACE
8
0
10
4.498078
20
4.769509
30
0.400000
11
4.500000
21
4.750000
31
0.400000
12
4.650000
22
4.083333
32
0.400000
13
4.650000
23
4.083333
33
0.400000
0
3DFACE
8
0
10
4.400000
20
4.650000
30
0.400000
11
4.380491
21
4.651921
31
0.400000
12
4.650000
22
4.083333
32
0.400000
13
4.650000
23
4.083333
33
0.400000
0
3DFACE
8
0
10
4.650000
20
5.416667
30
0.400000
11
4.492388
21
4.788268
31
0.400000
12
4.498078
22
4.769509
32
0.400000
13
4.498078
23
4.769509
33
0.400000
0
3DFACE
8
0
10
4.650000
20
5.416667
30
0.400000
11
4.483147
21
4.805557
31
0.400000
12
4.492388
22
4.788268
32
0.400000
13
4.492388
23
4.788268
33
0.400000
0
3DFACE
8
0
10
4.650000
20
5.416667
30
0.400000
11
4.470711
21
4.820710
31
0.400000
12
4.483147
22
4.805557
32
0.400000
13
4.483147
23
4.805557
33
0.400000
0
3DFACE
8
0
10
4.650000
20
5.416667
30
0.400000
11
4.455557
21
4.833147
31
0.400000
12
4.470711
22
4.820710
32
0.400000
13
4.470711
23
4.820710
33
0.400000
0
3DFACE
8
0
10
4.650000
20
5.416667
30
0.400000
11
4.438268
21
4.842388
31
0.400000
12
4.455557
22
4.833147
32
0.400000
13
4.455557
23
4.833147
33
0.400000
0
3DFACE
8
0
10
4.380491
20
4.651921
30
0.400000
11
4.361732
21
4.657612
31
0.400000
12
4.650000
22
4.083333
32
0.400000
13
4.650000
23
4.083333
33
0.400000
0
3DFACE
8
0
10
4.650000
20
5.416667
30
0.400000
11
4.424911
21
4.846440
31
0.400000
12
4.438268
22
4.842388
32
0.400000
13
4.438268
23
4.842388
33
0.400000
0
3DFACE
8
0
10
4.150000
20
4.153000
30
0.400000
11
4.316853
21
4.694443
31
0.400000
12
4.307612
22
4.711732
32
0.400000
13
4.307612
23
4.711732
33
0.400000
0
3DFACE
8
0
10
1.850000
20
5.350000
30
0.400000
11
1.683147
21
4.805557
31
0.400000
12
1.692388
22
4.788268
32
0.400000
13
1.692388
23
4.788268
33
0.400000
0
3DFACE
8
0
10
1.850000
20
5.350000
30
0.400000
11
1.670711
21
4.820710
31
0.400000
12
1.683147
22
4.805557
32
0.400000
13
1.683147
23
4.805557
33
0.400000
0
3DFACE
8
0
10
1.850000
20
5.350000
30
0.400000
11
1.655557
21
4.833147
31
0.400000
12
1.670711
22
4.820710
32
0.400000
13
1.670711
23
4.820710
33
0.400000
0
3DFACE
8
0
10
1.850000
20
5.350000
30
0.400000
11
1.638268
21
4.842388
31
0.400000
12
1.655557
22
4.833147
32
0.400000
13
1.655557
23
4.833147
33
0.400000
0
3DFACE
8
0
10
1.850000
20
5.350000
30
0.400000
11
1.619510
21
4.848079
31
0.400000
12
1.638268
22
4.842388
32
0.400000
13
1.638268
23
4.842388
33
0.400000
0
3DFACE
8
0
10
1.850000
20
5.350000
30
0.400000
11
1.600000
21
4.849999
31
0.400000
12
1.619510
22
4.848079
32
0.400000
13
1.619510
23
4.848079
33
0.400000
0
3DFACE
8
0
10
1.850000
20
5.350000
30
0.400000
11
1.350000
21
5.416667
31
0.400000
12
1.598990
22
4.849900
32
0.400000
13
1.598990
23
4.849900
33
0.400000
0
3DFACE
8
0
10
1.598990
20
4.849900
30
0.400000
11
1.600000
21
4.849999
31
0.400000
12
1.850000
22
5.350000
32
0.400000
13
1.850000
23
5.350000
33
0.400000
0
3DFACE
8
0
10
1.350000
20
5.416667
30
0.400000
11
1.596793
21
4.849684
31
0.400000
12
1.598990
22
4.849900
32
0.400000
13
1.598990
23
4.849900
33
0.400000
0
3DFACE
8
0
10
1.350000
20
5.416667
30
0.400000
11
1.594187
21
4.849427
31
0.400000
12
1.596793
22
4.849684
32
0.400000
13
1.596793
23
4.849684
33
0.400000
0
3DFACE
8
0
10
1.350000
20
5.416667
30
0.400000
11
1.578022
21
4.847329
31
0.400000
12
1.580491
22
4.848079
32
0.400000
13
1.580491
23
4.848079
33
0.400000
0
3DFACE
8
0
10
1.580491
20
4.848079
30
0.400000
11
1.594187
21
4.849427
31
0.400000
12
1.350000
22
5.416667
32
0.400000
13
1.350000
23
5.416667
33
0.400000
0
3DFACE
8
0
10
1.350000
20
5.416667
30
0.400000
11
1.577759
21
4.847250
31
0.400000
12
1.578022
22
4.847329
32
0.400000
13
1.578022
23
4.847329
33
0.400000
0
3DFACE
8
0
10
1.350000
20
5.416667
30
0.400000
11
1.575089
21
4.846440
31
0.400000
12
1.577759
22
4.847250
32
0.400000
13
1.577759
23
4.847250
33
0.400000
0
3DFACE
8
0
10
1.350000
20
5.416667
30
0.400000
11
1.516853
21
4.805557
31
0.400000
12
1.529290
22
4.820710
32
0.400000
13
1.529290
23
4.820710
33
0.400000
0
3DFACE
8
0
10
1.350000
20
5.416667
30
0.400000
11
1.507612
21
4.788268
31
0.400000
12
1.516853
22
4.805557
32
0.400000
13
1.516853
23
4.805557
33
0.400000
0
3DFACE
8
0
10
1.350000
20
5.416667
30
0.400000
11
1.501922
21
4.769509
31
0.400000
12
1.507612
22
4.788268
32
0.400000
13
1.507612
23
4.788268
33
0.400000
0
3DFACE
8
0
10
1.350000
20
5.416667
30
0.400000
11
1.500000
21
4.750000
31
0.400000
12
1.501922
22
4.769509
32
0.400000
13
1.501922
23
4.769509
33
0.400000
0
3DFACE
8
0
10
1.700000
20
-4.150002
30
0.400000
11
1.698079
21
-4.169512
31
0.400000
12
1.850000
22
-4.750001
32
0.400000
13
1.850000
23
-4.750001
33
0.400000
0
3DFACE
8
0
10
1.500000
20
4.750000
30
0.400000
11
1.350000
21
5.416667
31
0.400000
12
1.350000
22
4.150513
32
0.400000
13
1.350000
23
4.150513
33
0.400000
0
3DFACE
8
0
10
1.529290
20
4.820710
30
0.400000
11
1.544443
21
4.833147
31
0.400000
12
1.350000
22
5.416667
32
0.400000
13
1.350000
23
5.416667
33
0.400000
0
3DFACE
8
0
10
-1.850000
20
-3.550002
30
0.400000
11
-1.698079
21
-4.169511
31
0.400000
12
-1.700000
22
-4.150002
32
0.400000
13
-1.700000
23
-4.150002
33
0.400000
0
3DFACE
8
0
10
-1.850000
20
-3.550002
30
0.400000
11
-1.700000
21
-4.150002
31
0.400000
12
-1.698079
22
-4.130493
32
0.400000
13
-1.698079
23
-4.130493
33
0.400000
0
3DFACE
8
0
10
-1.850000
20
-3.550002
30
0.400000
11
-1.698079
21
-4.130493
31
0.400000
12
-1.692388
22
-4.111734
32
0.400000
13
-1.692388
23
-4.111734
33
0.400000
0
3DFACE
8
0
10
-1.850000
20
-3.550002
30
0.400000
11
-1.692388
21
-4.111734
31
0.400000
12
-1.683147
22
-4.094445
32
0.400000
13
-1.683147
23
-4.094445
33
0.400000
0
3DFACE
8
0
10
-1.850000
20
-3.550002
30
0.400000
11
-1.683147
21
-4.094445
31
0.400000
12
-1.670710
22
-4.079291
32
0.400000
13
-1.670710
23
-4.079291
33
0.400000
0
3DFACE
8
0
10
-1.850000
20
-3.550002
30
0.400000
11
-1.670710
21
-4.079291
31
0.400000
12
-1.655557
22
-4.066855
32
0.400000
13
-1.655557
23
-4.066855
33
0.400000
0
3DFACE
8
0
10
1.544443
20
4.833147
30
0.400000
11
1.561732
21
4.842388
31
0.400000
12
1.350000
22
5.416667
32
0.400000
13
1.350000
23
5.416667
33
0.400000
0
3DFACE
8
0
10
-1.692388
20
4.711732
30
0.400000
11
-1.698079
21
4.730491
31
0.400000
12
-1.850000
22
4.150513
32
0.400000
13
-1.850000
23
4.150513
33
0.400000
0
3DFACE
8
0
10
1.561732
20
4.842388
30
0.400000
11
1.575089
21
4.846440
31
0.400000
12
1.350000
22
5.416667
32
0.400000
13
1.350000
23
5.416667
33
0.400000
0
3DFACE
8
0
10
-2.983333
20
-3.150002
30
0.400000
11
-4.150000
21
-3.150002
31
0.400000
12
-4.650000
22
-3.483336
32
0.400000
13
-4.650000
23
-3.483336
33
0.400000
0
3DFACE
8
0
10
2.983333
20
-3.150002
30
0.400000
11
-2.983333
21
-3.150002
31
0.400000
12
-4.650000
22
-3.483336
32
0.400000
13
-4.650000
23
-3.483336
33
0.400000
0
3DFACE
8
0
10
4.150000
20
-3.150002
30
0.400000
11
2.983333
21
-3.150002
31
0.400000
12
-4.650000
22
-3.483336
32
0.400000
13
-4.650000
23
-3.483336
33
0.400000
0
3DFACE
8
0
10
4.150000
20
-3.150002
30
0.400000
11
-4.650000
21
-3.483336
31
0.400000
12
4.650000
22
-3.483336
32
0.400000
13
4.650000
23
-3.483336
33
0.400000
0
3DFACE
8
0
10
4.150000
20
4.153000
30
0.400000
11
4.650000
21
4.083333
31
0.400000
12
4.361732
22
4.657612
32
0.400000
13
4.361732
23
4.657612
33
0.400000
0
3DFACE
8
0
10
4.361732
20
4.657612
30
0.400000
11
4.352352
21
4.662625
31
0.400000
12
4.150000
22
4.153000
32
0.400000
13
4.150000
23
4.153000
33
0.400000
0
3DFACE
8
0
10
4.150000
20
4.153000
30
0.400000
11
4.352352
21
4.662625
31
0.400000
12
4.344443
22
4.666853
32
0.400000
13
4.344443
23
4.666853
33
0.400000
0
3DFACE
8
0
10
4.150000
20
4.153000
30
0.400000
11
4.344443
21
4.666853
31
0.400000
12
4.329289
22
4.679289
32
0.400000
13
4.329289
23
4.679289
33
0.400000
0
3DFACE
8
0
10
4.150000
20
4.153000
30
0.400000
11
4.329289
21
4.679289
31
0.400000
12
4.316853
22
4.694443
32
0.400000
13
4.316853
23
4.694443
33
0.400000
0
3DFACE
8
0
10
1.350000
20
-5.816668
30
0.400000
11
1.350000
21
-3.548336
31
0.400000
12
-1.350000
22
-3.548336
32
0.400000
13
-1.350000
23
-3.548336
33
0.400000
0
3DFACE
8
0
10
-1.350000
20
-3.548336
30
0.400000
11
-1.350000
21
-5.816668
31
0.400000
12
1.350000
22
-5.816668
32
0.400000
13
1.350000
23
-5.816668
33
0.400000
0
3DFACE
8
0
10
1.700000
20
4.750000
30
0.400000
11
1.698079
21
4.730491
31
0.400000
12
1.850000
22
4.150513
32
0.400000
13
1.850000
23
4.150513
33
0.400000
0
3DFACE
8
0
10
1.850000
20
4.150513
30
0.400000
11
1.698079
21
4.769509
31
0.400000
12
1.700000
22
4.750000
32
0.400000
13
1.700000
23
4.750000
33
0.400000
0
3DFACE
8
0
10
1.698079
20
4.730491
30
0.400000
11
1.692388
21
4.711732
31
0.400000
12
1.850000
22
4.150513
32
0.400000
13
1.850000
23
4.150513
33
0.400000
0
3DFACE
8
0
10
1.850000
20
4.150513
30
0.400000
11
1.850000
21
5.350000
31
0.400000
12
1.692388
22
4.788268
32
0.400000
13
1.692388
23
4.788268
33
0.400000
0
3DFACE
8
0
10
1.692388
20
4.788268
30
0.400000
11
1.698079
21
4.769509
31
0.400000
12
1.850000
22
4.150513
32
0.400000
13
1.850000
23
4.150513
33
0.400000
0
3DFACE
8
0
10
1.683147
20
4.694443
30
0.400000
11
1.850000
21
4.150513
31
0.400000
12
1.692388
22
4.711732
32
0.400000
13
1.692388
23
4.711732
33
0.400000
0
3DFACE
8
0
10
1.683147
20
4.694443
30
0.400000
11
1.672816
21
4.681854
31
0.400000
12
1.850000
22
4.150513
32
0.400000
13
1.850000
23
4.150513
33
0.400000
0
3DFACE
8
0
10
1.670874
20
4.679488
30
0.400000
11
1.850000
21
4.150513
31
0.400000
12
1.672816
22
4.681854
32
0.400000
13
1.672816
23
4.681854
33
0.400000
0
3DFACE
8
0
10
1.668286
20
4.677299
30
0.400000
11
1.655557
21
4.666853
31
0.400000
12
1.850000
22
4.150513
32
0.400000
13
1.850000
23
4.150513
33
0.400000
0
3DFACE
8
0
10
1.850000
20
4.150513
30
0.400000
11
1.650909
21
4.664369
31
0.400000
12
1.647648
22
4.662625
32
0.400000
13
1.647648
23
4.662625
33
0.400000
0
3DFACE
8
0
10
-1.698079
20
4.730491
30
0.400000
11
-1.850000
21
5.348073
31
0.400000
12
-1.850000
22
4.150513
32
0.400000
13
-1.850000
23
4.150513
33
0.400000
0
3DFACE
8
0
10
1.850000
20
4.150513
30
0.400000
11
1.670874
21
4.679488
31
0.400000
12
1.670711
22
4.679289
32
0.400000
13
1.670711
23
4.679289
33
0.400000
0
3DFACE
8
0
10
1.850000
20
4.150513
30
0.400000
11
1.670711
21
4.679289
31
0.400000
12
1.668286
22
4.677299
32
0.400000
13
1.668286
23
4.677299
33
0.400000
0
3DFACE
8
0
10
1.850000
20
4.150513
30
0.400000
11
1.655557
21
4.666853
31
0.400000
12
1.651231
22
4.664540
32
0.400000
13
1.651231
23
4.664540
33
0.400000
0
3DFACE
8
0
10
1.850000
20
4.150513
30
0.400000
11
1.651231
21
4.664540
31
0.400000
12
1.650909
22
4.664369
32
0.400000
13
1.650909
23
4.664369
33
0.400000
0
3DFACE
8
0
10
-4.650000
20
4.083333
30
0.400000
11
4.650000
21
4.083333
31
0.400000
12
4.150000
22
4.153000
32
0.400000
13
4.150000
23
4.153000
33
0.400000
0
3DFACE
8
0
10
4.150000
20
4.153000
30
0.400000
11
-4.150000
21
4.153000
31
0.400000
12
-4.650000
22
4.083333
32
0.400000
13
-4.650000
23
4.083333
33
0.400000
0
3DFACE
8
0
10
4.150000
20
5.350000
30
0.400000
11
4.329289
21
4.820710
31
0.400000
12
4.344443
22
4.833147
32
0.400000
13
4.344443
23
4.833147
33
0.400000
0
3DFACE
8
0
10
4.150000
20
5.350000
30
0.400000
11
4.344443
21
4.833147
31
0.400000
12
4.361732
22
4.842388
32
0.400000
13
4.361732
23
4.842388
33
0.400000
0
3DFACE
8
0
10
-1.580491
20
4.651921
30
0.400000
11
-1.600000
21
4.650000
31
0.400000
12
-1.350000
22
4.150513
32
0.400000
13
-1.350000
23
4.150513
33
0.400000
0
3DFACE
8
0
10
-1.561732
20
4.657612
30
0.400000
11
-1.580491
21
4.651921
31
0.400000
12
-1.350000
22
4.150513
32
0.400000
13
-1.350000
23
4.150513
33
0.400000
0
3DFACE
8
0
10
-1.350000
20
4.150513
30
0.400000
11
-1.501922
21
4.769509
31
0.400000
12
-1.500000
22
4.750000
32
0.400000
13
-1.500000
23
4.750000
33
0.400000
0
3DFACE
8
0
10
-1.350000
20
4.150513
30
0.400000
11
-1.544443
21
4.666853
31
0.400000
12
-1.561732
22
4.657612
32
0.400000
13
-1.561732
23
4.657612
33
0.400000
0
3DFACE
8
0
10
-1.350000
20
4.150513
30
0.400000
11
-1.529289
21
4.679289
31
0.400000
12
-1.544443
22
4.666853
32
0.400000
13
-1.544443
23
4.666853
33
0.400000
0
3DFACE
8
0
10
-1.350000
20
4.150513
30
0.400000
11
-1.516853
21
4.694443
31
0.400000
12
-1.529289
22
4.679289
32
0.400000
13
-1.529289
23
4.679289
33
0.400000
0
3DFACE
8
0
10
-1.350000
20
4.150513
30
0.400000
11
-1.507612
21
4.711732
31
0.400000
12
-1.516853
22
4.694443
32
0.400000
13
-1.516853
23
4.694443
33
0.400000
0
3DFACE
8
0
10
-1.350000
20
4.150513
30
0.400000
11
-1.501922
21
4.730491
31
0.400000
12
-1.507612
22
4.711732
32
0.400000
13
-1.507612
23
4.711732
33
0.400000
0
3DFACE
8
0
10
-1.600000
20
4.650000
30
0.400000
11
-1.619509
21
4.651921
31
0.400000
12
-1.350000
22
4.150513
32
0.400000
13
-1.350000
23
4.150513
33
0.400000
0
3DFACE
8
0
10
-1.619509
20
4.651921
30
0.400000
11
-1.638268
21
4.657612
31
0.400000
12
-1.350000
22
4.150513
32
0.400000
13
-1.350000
23
4.150513
33
0.400000
0
3DFACE
8
0
10
-4.352352
20
4.662625
30
0.400000
11
-4.150000
21
4.153000
31
0.400000
12
-4.349091
22
4.664369
32
0.400000
13
-4.349091
23
4.664369
33
0.400000
0
3DFACE
8
0
10
-1.850000
20
-3.550002
30
0.400000
11
-1.638268
21
-4.057614
31
0.400000
12
-1.619509
22
-4.051924
32
0.400000
13
-1.619509
23
-4.051924
33
0.400000
0
3DFACE
8
0
10
1.501922
20
4.730491
30
0.400000
11
1.500000
21
4.750000
31
0.400000
12
1.350000
22
4.150513
32
0.400000
13
1.350000
23
4.150513
33
0.400000
0
3DFACE
8
0
10
1.529289
20
4.679289
30
0.400000
11
1.516853
21
4.694443
31
0.400000
12
1.350000
22
4.150513
32
0.400000
13
1.350000
23
4.150513
33
0.400000
0
3DFACE
8
0
10
1.544443
20
4.666853
30
0.400000
11
1.529289
21
4.679289
31
0.400000
12
1.350000
22
4.150513
32
0.400000
13
1.350000
23
4.150513
33
0.400000
0
3DFACE
8
0
10
1.561732
20
4.657612
30
0.400000
11
1.544443
21
4.666853
31
0.400000
12
1.350000
22
4.150513
32
0.400000
13
1.350000
23
4.150513
33
0.400000
0
3DFACE
8
0
10
1.350000
20
4.150513
30
0.400000
11
1.580491
21
4.651921
31
0.400000
12
1.561732
22
4.657612
32
0.400000
13
1.561732
23
4.657612
33
0.400000
0
3DFACE
8
0
10
1.350000
20
4.150513
30
0.400000
11
1.600000
21
4.650000
31
0.400000
12
1.580491
22
4.651921
32
0.400000
13
1.580491
23
4.651921
33
0.400000
0
3DFACE
8
0
10
1.350000
20
4.150513
30
0.400000
11
1.619510
21
4.651921
31
0.400000
12
1.600000
22
4.650000
32
0.400000
13
1.600000
23
4.650000
33
0.400000
0
3DFACE
8
0
10
1.350000
20
4.150513
30
0.400000
11
1.638268
21
4.657612
31
0.400000
12
1.619510
22
4.651921
32
0.400000
13
1.619510
23
4.651921
33
0.400000
0
3DFACE
8
0
10
1.850000
20
4.150513
30
0.400000
11
1.647648
21
4.662625
31
0.400000
12
1.638268
22
4.657612
32
0.400000
13
1.638268
23
4.657612
33
0.400000
0
3DFACE
8
0
10
1.638268
20
4.657612
30
0.400000
11
1.350000
21
4.150513
31
0.400000
12
1.850000
22
4.150513
32
0.400000
13
1.850000
23
4.150513
33
0.400000
0
3DFACE
8
0
10
-1.619509
20
-4.051924
30
0.400000
11
-1.600000
21
-4.050002
31
0.400000
12
-1.850000
22
-3.550002
32
0.400000
13
-1.850000
23
-3.550002
33
0.400000
0
3DFACE
8
0
10
-1.600000
20
-4.050002
30
0.400000
11
-1.580491
21
-4.051924
31
0.400000
12
-1.850000
22
-3.550002
32
0.400000
13
-1.850000
23
-3.550002
33
0.400000
0
3DFACE
8
0
10
-1.575089
20
-4.053562
30
0.400000
11
-1.850000
21
-3.550002
31
0.400000
12
-1.580491
22
-4.051924
32
0.400000
13
-1.580491
23
-4.051924
33
0.400000
0
3DFACE
8
0
10
-1.575089
20
-4.053562
30
0.400000
11
-1.350000
21
-3.548336
31
0.400000
12
-1.850000
22
-3.550002
32
0.400000
13
-1.850000
23
-3.550002
33
0.400000
0
3DFACE
8
0
10
4.150000
20
-3.550002
30
0.400000
11
4.361732
21
-4.057614
31
0.400000
12
4.380492
22
-4.051924
32
0.400000
13
4.380492
23
-4.051924
33
0.400000
0
3DFACE
8
0
10
4.150000
20
-3.550002
30
0.400000
11
4.344443
21
-4.066855
31
0.400000
12
4.361732
22
-4.057614
32
0.400000
13
4.361732
23
-4.057614
33
0.400000
0
3DFACE
8
0
10
4.150000
20
-3.550002
30
0.400000
11
4.329289
21
-4.079291
31
0.400000
12
4.344443
22
-4.066855
32
0.400000
13
4.344443
23
-4.066855
33
0.400000
0
3DFACE
8
0
10
4.150000
20
-3.550002
30
0.400000
11
4.316853
21
-4.094445
31
0.400000
12
4.329289
22
-4.079291
32
0.400000
13
4.329289
23
-4.079291
33
0.400000
0
3DFACE
8
0
10
4.150000
20
-3.550002
30
0.400000
11
4.307612
21
-4.111734
31
0.400000
12
4.316853
22
-4.094445
32
0.400000
13
4.316853
23
-4.094445
33
0.400000
0
3DFACE
8
0
10
4.150000
20
-3.550002
30
0.400000
11
4.301921
21
-4.130493
31
0.400000
12
4.307612
22
-4.111734
32
0.400000
13
4.307612
23
-4.111734
33
0.400000
0
3DFACE
8
0
10
4.150000
20
-3.550002
30
0.400000
11
4.300000
21
-4.150002
31
0.400000
12
4.301921
22
-4.130493
32
0.400000
13
4.301921
23
-4.130493
33
0.400000
0
3DFACE
8
0
10
4.150000
20
-3.550002
30
0.400000
11
4.301921
21
-4.169511
31
0.400000
12
4.300000
22
-4.150002
32
0.400000
13
4.300000
23
-4.150002
33
0.400000
0
3DFACE
8
0
10
4.380492
20
-4.051924
30
0.400000
11
4.400000
21
-4.050002
31
0.400000
12
4.150000
22
-3.550002
32
0.400000
13
4.150000
23
-3.550002
33
0.400000
0
3DFACE
8
0
10
4.400000
20
-4.050002
30
0.400000
11
4.419509
21
-4.051924
31
0.400000
12
4.150000
22
-3.550002
32
0.400000
13
4.150000
23
-3.550002
33
0.400000
0
3DFACE
8
0
10
4.424911
20
-4.053562
30
0.400000
11
4.150000
21
-3.550002
31
0.400000
12
4.419509
22
-4.051924
32
0.400000
13
4.419509
23
-4.051924
33
0.400000
0
3DFACE
8
0
10
4.424911
20
-4.053562
30
0.400000
11
4.650000
21
-3.483336
31
0.400000
12
4.150000
22
-3.550002
32
0.400000
13
4.150000
23
-3.550002
33
0.400000
0
3DFACE
8
0
10
4.150000
20
-3.550002
30
0.400000
11
4.150000
21
-4.750001
31
0.400000
12
4.307612
22
-4.188271
32
0.400000
13
4.307612
23
-4.188271
33
0.400000
0
3DFACE
8
0
10
4.307612
20
-4.188271
30
0.400000
11
4.301921
21
-4.169511
31
0.400000
12
4.150000
22
-3.550002
32
0.400000
13
4.150000
23
-3.550002
33
0.400000
0
3DFACE
8
0
10
1.507612
20
4.711732
30
0.400000
11
1.350000
21
4.150513
31
0.400000
12
1.516853
22
4.694443
32
0.400000
13
1.516853
23
4.694443
33
0.400000
0
3DFACE
8
0
10
1.507612
20
4.711732
30
0.400000
11
1.501922
21
4.730491
31
0.400000
12
1.350000
22
4.150513
32
0.400000
13
1.350000
23
4.150513
33
0.400000
0
ENDSEC
0
EOF
