M48
;DRILL file {Pcbnew (2012-apr-16-27)-stable} date Fr 03 Jan 2014 11:35:26 CET
;FORMAT={-:-/ absolute / inch / decimal}
FMAT,2
INCH,TZ
T1C0.025
T2C0.030
T3C0.032
T4C0.040
T5C0.120
%
G90
G05
M72
T1
X0.950Y1.300
X1.000Y1.850
X1.050Y2.000
X1.200Y1.500
X1.200Y1.600
X1.300Y1.850
X1.350Y2.000
X1.700Y1.050
X1.950Y1.500
X2.050Y1.600
X2.200Y1.300
X2.250Y1.050
T2
X1.650Y1.950
X1.650Y2.150
T3
X0.700Y1.150
X0.700Y2.450
X0.800Y2.450
X0.900Y1.150
X1.050Y2.100
X1.050Y2.200
X1.100Y0.700
X1.100Y0.800
X1.100Y0.900
X1.100Y1.400
X1.100Y1.700
X1.100Y2.450
X1.200Y0.700
X1.200Y0.800
X1.200Y0.900
X1.200Y1.400
X1.200Y1.700
X1.200Y2.450
X1.300Y0.700
X1.300Y0.800
X1.300Y0.900
X1.300Y1.400
X1.300Y1.700
X1.300Y2.450
X1.400Y0.700
X1.400Y0.800
X1.400Y0.900
X1.400Y1.400
X1.400Y1.700
X1.400Y2.450
X1.450Y1.950
X1.450Y2.050
X1.450Y2.150
X1.450Y2.250
X1.500Y0.700
X1.500Y0.800
X1.500Y0.900
X1.500Y1.400
X1.500Y1.700
X1.600Y0.700
X1.600Y0.800
X1.600Y0.900
X1.600Y1.400
X1.600Y1.700
X1.700Y1.400
X1.700Y1.700
X1.800Y1.400
X1.800Y1.700
X1.850Y0.700
X1.850Y0.800
X1.850Y0.900
X1.850Y2.250
X1.850Y2.350
X1.850Y2.450
X1.900Y1.400
X1.900Y1.700
X1.950Y0.700
X1.950Y0.800
X1.950Y0.900
X1.950Y2.250
X1.950Y2.350
X1.950Y2.450
X2.000Y1.400
X2.000Y1.700
X2.050Y0.700
X2.050Y0.800
X2.050Y0.900
X2.050Y2.250
X2.050Y2.350
X2.050Y2.450
X2.100Y1.400
X2.100Y1.700
X2.150Y0.700
X2.150Y0.800
X2.150Y0.900
X2.150Y2.250
X2.150Y2.350
X2.150Y2.450
X2.200Y1.400
X2.200Y1.700
X2.300Y1.400
X2.300Y1.700
X2.400Y1.400
X2.400Y1.700
T4
X0.700Y1.500
X0.700Y1.600
X0.700Y2.000
X0.700Y2.100
X0.700Y2.200
X0.800Y1.500
X0.800Y1.600
X0.900Y1.500
X0.900Y1.600
T5
X0.750Y0.750
X2.400Y0.750
X2.400Y2.400
T0
M30
